M48
; DRILL file KiCad 10.0.3 date 2026-06-08T13:00:38
; FORMAT={-:-/ absolute / metric / decimal}
; #@! TF.CreationDate,2026-06-08T13:00:38+09:00
; #@! TF.GenerationSoftware,Kicad,Pcbnew,10.0.3
; #@! TF.FileFunction,Plated,1,2,PTH
FMAT,2
METRIC
; #@! TA.AperFunction,Plated,PTH,ComponentDrill
T1C0.750
; #@! TA.AperFunction,Plated,PTH,ComponentDrill
T2C0.800
; #@! TA.AperFunction,Plated,PTH,ComponentDrill
T3C1.000
%
G90
G05
T1
X52.23Y-60.14
X53.5Y-60.14
X54.77Y-60.14
T2
X39.69Y-55.0
X40.19Y-44.0
X40.19Y-60.0
X47.31Y-55.0
X47.81Y-44.0
X47.81Y-60.0
X48.3Y-50.0
X51.7Y-50.0
T3
X29.5Y-42.96
X29.5Y-45.5
X29.5Y-48.04
X35.5Y-51.96
X35.5Y-54.5
X35.5Y-57.04
X64.5Y-42.96
X64.5Y-45.5
X64.5Y-48.04
X70.5Y-51.96
X70.5Y-54.5
X70.5Y-57.04
M30
