%TF.GenerationSoftware,KiCad,Pcbnew,10.0.3*%
%TF.CreationDate,2026-06-08T14:01:53+09:00*%
%TF.ProjectId,rs_light_sensor,72735f6c-6967-4687-945f-73656e736f72,rev?*%
%TF.SameCoordinates,Original*%
%TF.FileFunction,Copper,L1,Top*%
%TF.FilePolarity,Positive*%
%FSLAX46Y46*%
G04 Gerber Fmt 4.6, Leading zero omitted, Abs format (unit mm)*
G04 Created by KiCad (PCBNEW 10.0.3) date 2026-06-08 14:01:53*
%MOMM*%
%LPD*%
G01*
G04 APERTURE LIST*
G04 Aperture macros list*
%AMRoundRect*
0 Rectangle with rounded corners*
0 $1 Rounding radius*
0 $2 $3 $4 $5 $6 $7 $8 $9 X,Y pos of 4 corners*
0 Add a 4 corners polygon primitive as box body*
4,1,4,$2,$3,$4,$5,$6,$7,$8,$9,$2,$3,0*
0 Add four circle primitives for the rounded corners*
1,1,$1+$1,$2,$3*
1,1,$1+$1,$4,$5*
1,1,$1+$1,$6,$7*
1,1,$1+$1,$8,$9*
0 Add four rect primitives between the rounded corners*
20,1,$1+$1,$2,$3,$4,$5,0*
20,1,$1+$1,$4,$5,$6,$7,0*
20,1,$1+$1,$6,$7,$8,$9,0*
20,1,$1+$1,$8,$9,$2,$3,0*%
G04 Aperture macros list end*
%TA.AperFunction,ComponentPad*%
%ADD10R,1.700000X1.700000*%
%TD*%
%TA.AperFunction,ComponentPad*%
%ADD11C,1.700000*%
%TD*%
%TA.AperFunction,ComponentPad*%
%ADD12C,1.600000*%
%TD*%
%TA.AperFunction,ComponentPad*%
%ADD13RoundRect,0.250000X-0.550000X-0.550000X0.550000X-0.550000X0.550000X0.550000X-0.550000X0.550000X0*%
%TD*%
%TA.AperFunction,ComponentPad*%
%ADD14R,1.050000X1.500000*%
%TD*%
%TA.AperFunction,ComponentPad*%
%ADD15O,1.050000X1.500000*%
%TD*%
%TA.AperFunction,Conductor*%
%ADD16C,0.500000*%
%TD*%
G04 APERTURE END LIST*
D10*
%TO.P,J2,1,Pin_1_1*%
%TO.N,GND*%
X27000000Y-42960000D03*
D11*
%TO.P,J2,2,Pin_2_2*%
%TO.N,/OUT*%
X27000000Y-45500000D03*
%TO.P,J2,3,Pin_3_3*%
%TO.N,+5V*%
X27000000Y-48040000D03*
%TD*%
D12*
%TO.P,R2,1*%
%TO.N,Net-(Q1-G)*%
X48300000Y-50000000D03*
%TO.P,R2,2*%
%TO.N,GND*%
X51700000Y-50000000D03*
%TD*%
D13*
%TO.P,D2,1,K_1*%
%TO.N,/OUT*%
X33190000Y-44000000D03*
D12*
%TO.P,D2,2,A_2*%
%TO.N,Net-(D2-A)*%
X40810000Y-44000000D03*
%TD*%
%TO.P,R4,1*%
%TO.N,+5V*%
X45880000Y-43000000D03*
%TO.P,R4,2*%
%TO.N,Net-(Q1-G)*%
X53500000Y-43000000D03*
%TD*%
D14*
%TO.P,Q1,1,S_1*%
%TO.N,GND*%
X59000000Y-56500000D03*
D15*
%TO.P,Q1,2,G_2*%
%TO.N,Net-(Q1-G)*%
X57730000Y-56500000D03*
%TO.P,Q1,3,D_3*%
%TO.N,Net-(D2-A)*%
X56460000Y-56500000D03*
%TD*%
D12*
%TO.P,R3,1*%
%TO.N,+5V*%
X34880000Y-56000000D03*
%TO.P,R3,2*%
%TO.N,Net-(D2-A)*%
X42500000Y-56000000D03*
%TD*%
D10*
%TO.P,J4,1,Pin_1_1*%
%TO.N,GND*%
X64500000Y-42960000D03*
D11*
%TO.P,J4,2,Pin_2_2*%
%TO.N,/IN*%
X64500000Y-45500000D03*
%TO.P,J4,3,Pin_3_3*%
%TO.N,+5V*%
X64500000Y-48040000D03*
%TD*%
D10*
%TO.P,J3,1,Pin_1_1*%
%TO.N,GND*%
X70500000Y-57040000D03*
D11*
%TO.P,J3,2,Pin_2_2*%
%TO.N,/IN*%
X70500000Y-54500000D03*
%TO.P,J3,3,Pin_3_3*%
%TO.N,+5V*%
X70500000Y-51960000D03*
%TD*%
%TO.N,GND*%
D16*
X29540000Y-42960000D02*
X31500000Y-41000000D01*
X27000000Y-42960000D02*
X29540000Y-42960000D01*
%TO.N,Net-(D2-A)*%
X56460000Y-56500000D02*
X43000000Y-56500000D01*
X43000000Y-56500000D02*
X42500000Y-56000000D01*
%TO.N,Net-(Q1-G)*%
X53600000Y-55300000D02*
X48300000Y-50000000D01*
X57330000Y-55300000D02*
X53600000Y-55300000D01*
X57730000Y-55700000D02*
X57330000Y-55300000D01*
X57730000Y-56500000D02*
X57730000Y-55700000D01*
%TO.N,/IN*%
X71800000Y-51421522D02*
X65878478Y-45500000D01*
X71800000Y-53200000D02*
X71800000Y-51421522D01*
X70500000Y-54500000D02*
X71800000Y-53200000D01*
X65878478Y-45500000D02*
X64500000Y-45500000D01*
%TO.N,+5V*%
X68420000Y-51960000D02*
X70500000Y-51960000D01*
X64500000Y-48040000D02*
X68420000Y-51960000D01*
X50920000Y-48040000D02*
X64500000Y-48040000D01*
X45880000Y-43000000D02*
X50920000Y-48040000D01*
X34880000Y-54000000D02*
X45880000Y-43000000D01*
X34880000Y-56000000D02*
X34880000Y-54000000D01*
X27000000Y-48040000D02*
X34880000Y-55920000D01*
X34880000Y-55920000D02*
X34880000Y-56000000D01*
%TO.N,/OUT*%
X28500000Y-44000000D02*
X27000000Y-45500000D01*
X33190000Y-44000000D02*
X28500000Y-44000000D01*
%TD*%
%TA.AperFunction,Conductor*%
%TO.N,GND*%
G36*
X71442539Y-38520185D02*
G01*
X71488294Y-38572989D01*
X71499500Y-38624500D01*
X71499500Y-41065891D01*
X71533608Y-41193187D01*
X71566554Y-41250250D01*
X71599500Y-41307314D01*
X71692686Y-41400500D01*
X71791521Y-41457563D01*
X71806810Y-41466390D01*
X71806814Y-41466392D01*
X71934108Y-41500500D01*
X74375500Y-41500500D01*
X74442539Y-41520185D01*
X74488294Y-41572989D01*
X74499500Y-41624500D01*
X74499500Y-58375500D01*
X74479815Y-58442539D01*
X74427011Y-58488294D01*
X74375500Y-58499500D01*
X71934108Y-58499500D01*
X71806812Y-58533608D01*
X71692686Y-58599500D01*
X71692683Y-58599502D01*
X71599502Y-58692683D01*
X71599500Y-58692686D01*
X71533608Y-58806812D01*
X71499500Y-58934108D01*
X71499500Y-61375500D01*
X71479815Y-61442539D01*
X71427011Y-61488294D01*
X71375500Y-61499500D01*
X28624500Y-61499500D01*
X28557461Y-61479815D01*
X28511706Y-61427011D01*
X28500500Y-61375500D01*
X28500500Y-58934110D01*
X28500500Y-58934108D01*
X28466392Y-58806814D01*
X28400500Y-58692686D01*
X28307314Y-58599500D01*
X28250250Y-58566554D01*
X28193187Y-58533608D01*
X28129539Y-58516554D01*
X28065892Y-58499500D01*
X28065891Y-58499500D01*
X25624500Y-58499500D01*
X25557461Y-58479815D01*
X25511706Y-58427011D01*
X25500500Y-58375500D01*
X25500500Y-48578226D01*
X25520185Y-48511187D01*
X25572989Y-48465432D01*
X25642147Y-48455488D01*
X25705703Y-48484513D01*
X25742431Y-48539908D01*
X25748444Y-48558414D01*
X25844951Y-48747820D01*
X25969890Y-48919786D01*
X26120213Y-49070109D01*
X26292179Y-49195048D01*
X26292181Y-49195049D01*
X26292184Y-49195051D01*
X26481588Y-49291557D01*
X26683757Y-49357246D01*
X26893713Y-49390500D01*
X26893714Y-49390500D01*
X27106286Y-49390500D01*
X27106287Y-49390500D01*
X27201728Y-49375383D01*
X27271021Y-49384337D01*
X27308807Y-49410175D01*
X33564464Y-55665832D01*
X33597949Y-55727155D01*
X33599256Y-55772911D01*
X33579500Y-55897642D01*
X33579500Y-56102351D01*
X33611522Y-56304534D01*
X33674781Y-56499223D01*
X33767715Y-56681613D01*
X33888028Y-56847213D01*
X34032786Y-56991971D01*
X34187749Y-57104556D01*
X34198390Y-57112287D01*
X34314607Y-57171503D01*
X34380776Y-57205218D01*
X34380778Y-57205218D01*
X34380781Y-57205220D01*
X34485137Y-57239127D01*
X34575465Y-57268477D01*
X34676557Y-57284488D01*
X34777648Y-57300500D01*
X34777649Y-57300500D01*
X34982351Y-57300500D01*
X34982352Y-57300500D01*
X35184534Y-57268477D01*
X35379219Y-57205220D01*
X35561610Y-57112287D01*
X35682953Y-57024127D01*
X35727213Y-56991971D01*
X35727215Y-56991968D01*
X35727219Y-56991966D01*
X35871966Y-56847219D01*
X35871968Y-56847215D01*
X35871971Y-56847213D01*
X35954955Y-56732993D01*
X35992287Y-56681610D01*
X36085220Y-56499219D01*
X36148477Y-56304534D01*
X36180500Y-56102352D01*
X36180500Y-55897648D01*
X41199500Y-55897648D01*
X41199500Y-56102351D01*
X41231522Y-56304534D01*
X41294781Y-56499223D01*
X41387715Y-56681613D01*
X41508028Y-56847213D01*
X41652786Y-56991971D01*
X41807749Y-57104556D01*
X41818390Y-57112287D01*
X41934607Y-57171503D01*
X42000776Y-57205218D01*
X42000778Y-57205218D01*
X42000781Y-57205220D01*
X42105137Y-57239127D01*
X42195465Y-57268477D01*
X42296557Y-57284488D01*
X42397648Y-57300500D01*
X42397649Y-57300500D01*
X42602351Y-57300500D01*
X42602352Y-57300500D01*
X42804534Y-57268477D01*
X42854235Y-57252327D01*
X42916747Y-57248643D01*
X42921411Y-57249570D01*
X42926081Y-57250500D01*
X42926082Y-57250500D01*
X42926083Y-57250500D01*
X43073918Y-57250500D01*
X55511491Y-57250500D01*
X55578530Y-57270185D01*
X55614591Y-57305607D01*
X55642254Y-57347007D01*
X55663443Y-57378720D01*
X55806281Y-57521558D01*
X55974237Y-57633782D01*
X55974241Y-57633784D01*
X55974244Y-57633786D01*
X56160873Y-57711091D01*
X56324288Y-57743596D01*
X56358992Y-57750499D01*
X56358996Y-57750500D01*
X56358997Y-57750500D01*
X56561004Y-57750500D01*
X56561005Y-57750499D01*
X56759127Y-57711091D01*
X56945756Y-57633786D01*
X57026110Y-57580094D01*
X57092786Y-57559217D01*
X57160166Y-57577701D01*
X57163865Y-57580078D01*
X57244244Y-57633786D01*
X57430873Y-57711091D01*
X57594288Y-57743596D01*
X57628992Y-57750499D01*
X57628996Y-57750500D01*
X57628997Y-57750500D01*
X57831004Y-57750500D01*
X57831005Y-57750499D01*
X58029127Y-57711091D01*
X58110338Y-57677451D01*
X58179804Y-57669983D01*
X58224859Y-57689594D01*
X58225128Y-57689103D01*
X58230613Y-57692098D01*
X58232099Y-57692745D01*
X58232911Y-57693353D01*
X58232913Y-57693354D01*
X58367620Y-57743596D01*
X58367627Y-57743598D01*
X58427155Y-57749999D01*
X58427172Y-57750000D01*
X58750000Y-57750000D01*
X58750000Y-56865865D01*
X58750067Y-56861789D01*
X58750400Y-56851638D01*
X58755500Y-56826003D01*
X58755500Y-56785830D01*
X58769745Y-56800075D01*
X58855255Y-56849444D01*
X58950630Y-56875000D01*
X59049370Y-56875000D01*
X59144745Y-56849444D01*
X59230255Y-56800075D01*
X59250000Y-56780330D01*
X59250000Y-57750000D01*
X59572828Y-57750000D01*
X59572844Y-57749999D01*
X59632372Y-57743598D01*
X59632379Y-57743596D01*
X59767086Y-57693354D01*
X59767093Y-57693350D01*
X59882187Y-57607190D01*
X59882190Y-57607187D01*
X59968350Y-57492093D01*
X59968354Y-57492086D01*
X60018596Y-57357379D01*
X60018598Y-57357372D01*
X60024999Y-57297844D01*
X60025000Y-57297827D01*
X60025000Y-56750000D01*
X59280330Y-56750000D01*
X59300075Y-56730255D01*
X59349444Y-56644745D01*
X59375000Y-56549370D01*
X59375000Y-56450630D01*
X59349444Y-56355255D01*
X59300075Y-56269745D01*
X59280330Y-56250000D01*
X60025000Y-56250000D01*
X60025000Y-55702172D01*
X60024999Y-55702155D01*
X60018598Y-55642627D01*
X60018596Y-55642620D01*
X59968354Y-55507913D01*
X59968350Y-55507906D01*
X59882190Y-55392812D01*
X59882187Y-55392809D01*
X59767093Y-55306649D01*
X59767086Y-55306645D01*
X59632379Y-55256403D01*
X59632372Y-55256401D01*
X59572844Y-55250000D01*
X59250000Y-55250000D01*
X59250000Y-56219670D01*
X59230255Y-56199925D01*
X59144745Y-56150556D01*
X59049370Y-56125000D01*
X58950630Y-56125000D01*
X58855255Y-56150556D01*
X58769745Y-56199925D01*
X58755500Y-56214170D01*
X58755500Y-56173997D01*
X58752383Y-56158326D01*
X58750000Y-56134134D01*
X58750000Y-55250000D01*
X58427155Y-55250000D01*
X58408683Y-55251987D01*
X58406424Y-55251579D01*
X58404273Y-55252382D01*
X58372205Y-55245406D01*
X58339923Y-55239582D01*
X58337542Y-55237865D01*
X58336000Y-55237530D01*
X58307746Y-55216379D01*
X58208416Y-55117049D01*
X57808421Y-54717052D01*
X57808414Y-54717046D01*
X57730645Y-54665083D01*
X57730645Y-54665084D01*
X57685495Y-54634916D01*
X57685492Y-54634914D01*
X57685491Y-54634914D01*
X57548917Y-54578343D01*
X57548907Y-54578340D01*
X57403920Y-54549500D01*
X57403918Y-54549500D01*
X53962230Y-54549500D01*
X53895191Y-54529815D01*
X53874549Y-54513181D01*
X49626473Y-50265105D01*
X49592988Y-50203782D01*
X49591681Y-50158027D01*
X49600500Y-50102352D01*
X49600500Y-49897648D01*
X49592257Y-49845606D01*
X49568477Y-49695465D01*
X49537458Y-49600000D01*
X49505220Y-49500781D01*
X49505218Y-49500778D01*
X49505218Y-49500776D01*
X49449029Y-49390500D01*
X49412287Y-49318390D01*
X49392792Y-49291557D01*
X49291971Y-49152786D01*
X49147213Y-49008028D01*
X48981613Y-48887715D01*
X48981612Y-48887714D01*
X48981610Y-48887713D01*
X48891138Y-48841615D01*
X48799223Y-48794781D01*
X48604534Y-48731522D01*
X48429995Y-48703878D01*
X48402352Y-48699500D01*
X48197648Y-48699500D01*
X48173329Y-48703351D01*
X47995465Y-48731522D01*
X47800776Y-48794781D01*
X47618386Y-48887715D01*
X47452786Y-49008028D01*
X47308028Y-49152786D01*
X47187715Y-49318386D01*
X47094781Y-49500776D01*
X47031522Y-49695465D01*
X46999500Y-49897648D01*
X46999500Y-50102351D01*
X47031522Y-50304534D01*
X47094781Y-50499223D01*
X47158691Y-50624653D01*
X47187585Y-50681359D01*
X47187715Y-50681613D01*
X47308028Y-50847213D01*
X47452786Y-50991971D01*
X47586438Y-51089073D01*
X47618390Y-51112287D01*
X47734607Y-51171503D01*
X47800776Y-51205218D01*
X47800778Y-51205218D01*
X47800781Y-51205220D01*
X47905137Y-51239127D01*
X47995465Y-51268477D01*
X48079564Y-51281797D01*
X48197648Y-51300500D01*
X48197649Y-51300500D01*
X48402350Y-51300500D01*
X48402352Y-51300500D01*
X48458026Y-51291681D01*
X48527318Y-51300635D01*
X48565105Y-51326473D01*
X52776451Y-55537819D01*
X52809936Y-55599142D01*
X52804952Y-55668834D01*
X52763080Y-55724767D01*
X52697616Y-55749184D01*
X52688770Y-55749500D01*
X43876125Y-55749500D01*
X43809086Y-55729815D01*
X43763331Y-55677011D01*
X43758194Y-55663818D01*
X43755265Y-55654804D01*
X43705220Y-55500781D01*
X43612287Y-55318390D01*
X43603754Y-55306645D01*
X43491971Y-55152786D01*
X43347213Y-55008028D01*
X43181613Y-54887715D01*
X43181612Y-54887714D01*
X43181610Y-54887713D01*
X43124653Y-54858691D01*
X42999223Y-54794781D01*
X42804534Y-54731522D01*
X42629995Y-54703878D01*
X42602352Y-54699500D01*
X42397648Y-54699500D01*
X42373329Y-54703351D01*
X42195465Y-54731522D01*
X42000776Y-54794781D01*
X41818386Y-54887715D01*
X41652786Y-55008028D01*
X41508028Y-55152786D01*
X41387715Y-55318386D01*
X41294781Y-55500776D01*
X41231522Y-55695465D01*
X41199500Y-55897648D01*
X36180500Y-55897648D01*
X36156583Y-55746646D01*
X36148477Y-55695465D01*
X36114287Y-55590241D01*
X36085220Y-55500781D01*
X36085218Y-55500778D01*
X36085218Y-55500776D01*
X36030205Y-55392809D01*
X35992287Y-55318390D01*
X35983754Y-55306645D01*
X35871971Y-55152786D01*
X35727217Y-55008032D01*
X35727212Y-55008028D01*
X35681615Y-54974900D01*
X35638949Y-54919571D01*
X35630500Y-54874582D01*
X35630500Y-54362228D01*
X35650185Y-54295189D01*
X35666814Y-54274552D01*
X45614894Y-44326471D01*
X45676215Y-44292988D01*
X45721970Y-44291681D01*
X45777648Y-44300500D01*
X45777649Y-44300500D01*
X45982350Y-44300500D01*
X45982352Y-44300500D01*
X46038027Y-44291681D01*
X46107319Y-44300635D01*
X46145106Y-44326473D01*
X50441580Y-48622948D01*
X50441584Y-48622951D01*
X50564498Y-48705080D01*
X50564511Y-48705087D01*
X50667669Y-48747816D01*
X50701087Y-48761658D01*
X50701091Y-48761658D01*
X50701092Y-48761659D01*
X50846079Y-48790500D01*
X50846082Y-48790500D01*
X50850168Y-48790500D01*
X50917207Y-48810185D01*
X50962962Y-48862989D01*
X50972927Y-48919374D01*
X51653554Y-49600000D01*
X51647339Y-49600000D01*
X51545606Y-49627259D01*
X51454394Y-49679920D01*
X51379920Y-49754394D01*
X51327259Y-49845606D01*
X51300000Y-49947339D01*
X51300000Y-49953553D01*
X50620524Y-49274077D01*
X50620523Y-49274077D01*
X50588143Y-49318644D01*
X50495244Y-49500968D01*
X50432009Y-49695582D01*
X50400000Y-49897682D01*
X50400000Y-50102317D01*
X50432009Y-50304417D01*
X50495244Y-50499031D01*
X50588141Y-50681350D01*
X50588147Y-50681359D01*
X50620523Y-50725921D01*
X50620524Y-50725922D01*
X51300000Y-50046446D01*
X51300000Y-50052661D01*
X51327259Y-50154394D01*
X51379920Y-50245606D01*
X51454394Y-50320080D01*
X51545606Y-50372741D01*
X51647339Y-50400000D01*
X51653553Y-50400000D01*
X50974076Y-51079474D01*
X51018650Y-51111859D01*
X51200968Y-51204755D01*
X51395582Y-51267990D01*
X51597683Y-51300000D01*
X51802317Y-51300000D01*
X52004417Y-51267990D01*
X52199031Y-51204755D01*
X52381349Y-51111859D01*
X52425921Y-51079474D01*
X51746447Y-50400000D01*
X51752661Y-50400000D01*
X51854394Y-50372741D01*
X51945606Y-50320080D01*
X52020080Y-50245606D01*
X52072741Y-50154394D01*
X52100000Y-50052661D01*
X52100000Y-50046448D01*
X52779474Y-50725922D01*
X52779474Y-50725921D01*
X52811859Y-50681349D01*
X52904755Y-50499031D01*
X52967990Y-50304417D01*
X53000000Y-50102317D01*
X53000000Y-49897682D01*
X52967990Y-49695582D01*
X52904755Y-49500968D01*
X52811859Y-49318650D01*
X52779474Y-49274077D01*
X52779474Y-49274076D01*
X52100000Y-49953551D01*
X52100000Y-49947339D01*
X52072741Y-49845606D01*
X52020080Y-49754394D01*
X51945606Y-49679920D01*
X51854394Y-49627259D01*
X51752661Y-49600000D01*
X51746446Y-49600000D01*
X52427276Y-48919170D01*
X52440579Y-48855851D01*
X52489631Y-48806094D01*
X52549832Y-48790500D01*
X63312779Y-48790500D01*
X63379818Y-48810185D01*
X63413097Y-48841615D01*
X63469892Y-48919788D01*
X63620213Y-49070109D01*
X63792179Y-49195048D01*
X63792181Y-49195049D01*
X63792184Y-49195051D01*
X63981588Y-49291557D01*
X64183757Y-49357246D01*
X64393713Y-49390500D01*
X64393714Y-49390500D01*
X64606286Y-49390500D01*
X64606287Y-49390500D01*
X64701728Y-49375383D01*
X64771021Y-49384337D01*
X64808807Y-49410175D01*
X67941580Y-52542948D01*
X67941584Y-52542951D01*
X68064498Y-52625080D01*
X68064511Y-52625087D01*
X68201082Y-52681656D01*
X68201087Y-52681658D01*
X68201091Y-52681658D01*
X68201092Y-52681659D01*
X68346079Y-52710500D01*
X68346082Y-52710500D01*
X68493917Y-52710500D01*
X69312779Y-52710500D01*
X69379818Y-52730185D01*
X69413097Y-52761615D01*
X69469892Y-52839788D01*
X69620213Y-52990109D01*
X69792182Y-53115050D01*
X69800946Y-53119516D01*
X69851742Y-53167491D01*
X69868536Y-53235312D01*
X69845998Y-53301447D01*
X69800946Y-53340484D01*
X69792182Y-53344949D01*
X69620216Y-53469889D01*
X69620209Y-53469894D01*
X69469897Y-53620207D01*
X69469890Y-53620213D01*
X69344951Y-53792179D01*
X69248444Y-53981585D01*
X69182753Y-54183760D01*
X69154487Y-54362228D01*
X69149500Y-54393713D01*
X69149500Y-54606287D01*
X69158812Y-54665083D01*
X69179354Y-54794781D01*
X69182754Y-54816243D01*
X69245070Y-55008032D01*
X69248444Y-55018414D01*
X69344951Y-55207820D01*
X69469890Y-55379786D01*
X69583818Y-55493714D01*
X69617303Y-55555037D01*
X69612319Y-55624729D01*
X69570447Y-55680662D01*
X69539471Y-55697577D01*
X69407912Y-55746646D01*
X69407906Y-55746649D01*
X69292812Y-55832809D01*
X69292809Y-55832812D01*
X69206649Y-55947906D01*
X69206645Y-55947913D01*
X69156403Y-56082620D01*
X69156401Y-56082627D01*
X69150000Y-56142155D01*
X69150000Y-56790000D01*
X70066988Y-56790000D01*
X70034075Y-56847007D01*
X70000000Y-56974174D01*
X70000000Y-57105826D01*
X70034075Y-57232993D01*
X70066988Y-57290000D01*
X69150000Y-57290000D01*
X69150000Y-57937844D01*
X69156401Y-57997372D01*
X69156403Y-57997379D01*
X69206645Y-58132086D01*
X69206649Y-58132093D01*
X69292809Y-58247187D01*
X69292812Y-58247190D01*
X69407906Y-58333350D01*
X69407913Y-58333354D01*
X69542620Y-58383596D01*
X69542627Y-58383598D01*
X69602155Y-58389999D01*
X69602172Y-58390000D01*
X70250000Y-58390000D01*
X70250000Y-57473012D01*
X70307007Y-57505925D01*
X70434174Y-57540000D01*
X70565826Y-57540000D01*
X70692993Y-57505925D01*
X70750000Y-57473012D01*
X70750000Y-58390000D01*
X71397828Y-58390000D01*
X71397844Y-58389999D01*
X71457372Y-58383598D01*
X71457379Y-58383596D01*
X71592086Y-58333354D01*
X71592093Y-58333350D01*
X71707187Y-58247190D01*
X71707190Y-58247187D01*
X71793350Y-58132093D01*
X71793354Y-58132086D01*
X71843596Y-57997379D01*
X71843598Y-57997372D01*
X71849999Y-57937844D01*
X71850000Y-57937827D01*
X71850000Y-57290000D01*
X70933012Y-57290000D01*
X70965925Y-57232993D01*
X71000000Y-57105826D01*
X71000000Y-56974174D01*
X70965925Y-56847007D01*
X70933012Y-56790000D01*
X71850000Y-56790000D01*
X71850000Y-56142172D01*
X71849999Y-56142155D01*
X71843598Y-56082627D01*
X71843596Y-56082620D01*
X71793354Y-55947913D01*
X71793350Y-55947906D01*
X71707190Y-55832812D01*
X71707187Y-55832809D01*
X71592093Y-55746649D01*
X71592088Y-55746646D01*
X71460528Y-55697577D01*
X71404595Y-55655705D01*
X71380178Y-55590241D01*
X71395030Y-55521968D01*
X71416175Y-55493720D01*
X71530104Y-55379792D01*
X71655051Y-55207816D01*
X71751557Y-55018412D01*
X71817246Y-54816243D01*
X71850500Y-54606287D01*
X71850500Y-54393713D01*
X71835382Y-54298267D01*
X71844336Y-54228978D01*
X71870171Y-54191194D01*
X72382952Y-53678415D01*
X72421844Y-53620208D01*
X72465084Y-53555495D01*
X72500540Y-53469896D01*
X72521659Y-53418912D01*
X72550500Y-53273917D01*
X72550500Y-53126082D01*
X72550500Y-51347604D01*
X72541130Y-51300500D01*
X72541130Y-51300497D01*
X72522178Y-51205220D01*
X72521659Y-51202610D01*
X72470958Y-51080208D01*
X72465084Y-51066027D01*
X72415598Y-50991966D01*
X72409546Y-50982909D01*
X72382954Y-50943108D01*
X66356891Y-44917045D01*
X66307657Y-44884150D01*
X66274833Y-44862218D01*
X66233973Y-44834916D01*
X66233972Y-44834915D01*
X66233970Y-44834914D01*
X66233968Y-44834913D01*
X66097395Y-44778343D01*
X66097385Y-44778340D01*
X65952398Y-44749500D01*
X65952396Y-44749500D01*
X65687221Y-44749500D01*
X65620182Y-44729815D01*
X65586903Y-44698385D01*
X65530107Y-44620211D01*
X65416181Y-44506285D01*
X65382696Y-44444962D01*
X65387680Y-44375270D01*
X65429552Y-44319337D01*
X65460529Y-44302422D01*
X65592086Y-44253354D01*
X65592093Y-44253350D01*
X65707187Y-44167190D01*
X65707190Y-44167187D01*
X65793350Y-44052093D01*
X65793354Y-44052086D01*
X65843596Y-43917379D01*
X65843598Y-43917372D01*
X65849999Y-43857844D01*
X65850000Y-43857827D01*
X65850000Y-43210000D01*
X64933012Y-43210000D01*
X64965925Y-43152993D01*
X65000000Y-43025826D01*
X65000000Y-42894174D01*
X64965925Y-42767007D01*
X64933012Y-42710000D01*
X65850000Y-42710000D01*
X65850000Y-42062172D01*
X65849999Y-42062155D01*
X65843598Y-42002627D01*
X65843596Y-42002620D01*
X65793354Y-41867913D01*
X65793350Y-41867906D01*
X65707190Y-41752812D01*
X65707187Y-41752809D01*
X65592093Y-41666649D01*
X65592086Y-41666645D01*
X65457379Y-41616403D01*
X65457372Y-41616401D01*
X65397844Y-41610000D01*
X64750000Y-41610000D01*
X64750000Y-42526988D01*
X64692993Y-42494075D01*
X64565826Y-42460000D01*
X64434174Y-42460000D01*
X64307007Y-42494075D01*
X64250000Y-42526988D01*
X64250000Y-41610000D01*
X63602155Y-41610000D01*
X63542627Y-41616401D01*
X63542620Y-41616403D01*
X63407913Y-41666645D01*
X63407906Y-41666649D01*
X63292812Y-41752809D01*
X63292809Y-41752812D01*
X63206649Y-41867906D01*
X63206645Y-41867913D01*
X63156403Y-42002620D01*
X63156401Y-42002627D01*
X63150000Y-42062155D01*
X63150000Y-42710000D01*
X64066988Y-42710000D01*
X64034075Y-42767007D01*
X64000000Y-42894174D01*
X64000000Y-43025826D01*
X64034075Y-43152993D01*
X64066988Y-43210000D01*
X63150000Y-43210000D01*
X63150000Y-43857844D01*
X63156401Y-43917372D01*
X63156403Y-43917379D01*
X63206645Y-44052086D01*
X63206649Y-44052093D01*
X63292809Y-44167187D01*
X63292812Y-44167190D01*
X63407906Y-44253350D01*
X63407913Y-44253354D01*
X63539470Y-44302422D01*
X63595404Y-44344293D01*
X63619821Y-44409758D01*
X63604969Y-44478031D01*
X63583819Y-44506285D01*
X63469889Y-44620215D01*
X63344951Y-44792179D01*
X63248444Y-44981585D01*
X63248443Y-44981587D01*
X63248443Y-44981588D01*
X63234076Y-45025805D01*
X63182753Y-45183760D01*
X63149500Y-45393713D01*
X63149500Y-45606286D01*
X63182753Y-45816239D01*
X63248444Y-46018414D01*
X63344951Y-46207820D01*
X63469890Y-46379786D01*
X63620213Y-46530109D01*
X63792182Y-46655050D01*
X63800946Y-46659516D01*
X63851742Y-46707491D01*
X63868536Y-46775312D01*
X63845998Y-46841447D01*
X63800946Y-46880484D01*
X63792182Y-46884949D01*
X63620213Y-47009890D01*
X63469892Y-47160211D01*
X63413097Y-47238385D01*
X63357767Y-47281051D01*
X63312779Y-47289500D01*
X51282229Y-47289500D01*
X51215190Y-47269815D01*
X51194548Y-47253181D01*
X47206473Y-43265106D01*
X47172988Y-43203783D01*
X47171681Y-43158028D01*
X47180500Y-43102352D01*
X47180500Y-42897648D01*
X52199500Y-42897648D01*
X52199500Y-43102351D01*
X52231522Y-43304534D01*
X52294781Y-43499223D01*
X52387715Y-43681613D01*
X52508028Y-43847213D01*
X52652786Y-43991971D01*
X52807749Y-44104556D01*
X52818390Y-44112287D01*
X52891425Y-44149500D01*
X53000776Y-44205218D01*
X53000778Y-44205218D01*
X53000781Y-44205220D01*
X53105137Y-44239127D01*
X53195465Y-44268477D01*
X53279564Y-44281797D01*
X53397648Y-44300500D01*
X53397649Y-44300500D01*
X53602351Y-44300500D01*
X53602352Y-44300500D01*
X53804534Y-44268477D01*
X53999219Y-44205220D01*
X54181610Y-44112287D01*
X54291968Y-44032108D01*
X54347213Y-43991971D01*
X54347215Y-43991968D01*
X54347219Y-43991966D01*
X54491966Y-43847219D01*
X54491968Y-43847215D01*
X54491971Y-43847213D01*
X54544732Y-43774590D01*
X54612287Y-43681610D01*
X54705220Y-43499219D01*
X54768477Y-43304534D01*
X54800500Y-43102352D01*
X54800500Y-42897648D01*
X54768477Y-42695466D01*
X54705220Y-42500781D01*
X54705218Y-42500778D01*
X54705218Y-42500776D01*
X54671503Y-42434607D01*
X54612287Y-42318390D01*
X54604556Y-42307749D01*
X54491971Y-42152786D01*
X54347213Y-42008028D01*
X54181613Y-41887715D01*
X54181612Y-41887714D01*
X54181610Y-41887713D01*
X54124653Y-41858691D01*
X53999223Y-41794781D01*
X53804534Y-41731522D01*
X53629995Y-41703878D01*
X53602352Y-41699500D01*
X53397648Y-41699500D01*
X53373329Y-41703351D01*
X53195465Y-41731522D01*
X53000776Y-41794781D01*
X52818386Y-41887715D01*
X52652786Y-42008028D01*
X52508028Y-42152786D01*
X52387715Y-42318386D01*
X52294781Y-42500776D01*
X52231522Y-42695465D01*
X52199500Y-42897648D01*
X47180500Y-42897648D01*
X47148477Y-42695466D01*
X47085220Y-42500781D01*
X47085218Y-42500778D01*
X47085218Y-42500776D01*
X47051503Y-42434607D01*
X46992287Y-42318390D01*
X46984556Y-42307749D01*
X46871971Y-42152786D01*
X46727213Y-42008028D01*
X46561613Y-41887715D01*
X46561612Y-41887714D01*
X46561610Y-41887713D01*
X46504653Y-41858691D01*
X46379223Y-41794781D01*
X46184534Y-41731522D01*
X46009995Y-41703878D01*
X45982352Y-41699500D01*
X45777648Y-41699500D01*
X45753329Y-41703351D01*
X45575465Y-41731522D01*
X45380776Y-41794781D01*
X45198386Y-41887715D01*
X45032786Y-42008028D01*
X44888028Y-42152786D01*
X44767715Y-42318386D01*
X44674781Y-42500776D01*
X44611522Y-42695465D01*
X44579500Y-42897648D01*
X44579500Y-43102351D01*
X44588318Y-43158026D01*
X44579363Y-43227320D01*
X44553526Y-43265105D01*
X34297048Y-53521583D01*
X34291546Y-53529817D01*
X34286114Y-53537949D01*
X34250393Y-53591409D01*
X34214914Y-53644507D01*
X34158343Y-53781082D01*
X34158340Y-53781092D01*
X34144554Y-53850399D01*
X34112169Y-53912310D01*
X34051453Y-53946884D01*
X33981683Y-53943143D01*
X33935256Y-53913888D01*
X28370175Y-48348807D01*
X28336690Y-48287484D01*
X28335383Y-48241728D01*
X28350500Y-48146285D01*
X28350500Y-47933713D01*
X28317246Y-47723760D01*
X28317246Y-47723757D01*
X28251557Y-47521588D01*
X28155051Y-47332184D01*
X28155049Y-47332181D01*
X28155048Y-47332179D01*
X28030109Y-47160213D01*
X27879786Y-47009890D01*
X27707820Y-46884951D01*
X27707115Y-46884591D01*
X27699054Y-46880485D01*
X27648259Y-46832512D01*
X27631463Y-46764692D01*
X27653999Y-46698556D01*
X27699054Y-46659515D01*
X27707816Y-46655051D01*
X27729789Y-46639086D01*
X27879786Y-46530109D01*
X27879788Y-46530106D01*
X27879792Y-46530104D01*
X28030104Y-46379792D01*
X28030106Y-46379788D01*
X28030109Y-46379786D01*
X28155048Y-46207820D01*
X28155047Y-46207820D01*
X28155051Y-46207816D01*
X28251557Y-46018412D01*
X28317246Y-45816243D01*
X28350500Y-45606287D01*
X28350500Y-45393713D01*
X28335382Y-45298267D01*
X28344336Y-45228978D01*
X28370171Y-45191194D01*
X28774548Y-44786819D01*
X28835871Y-44753334D01*
X28862229Y-44750500D01*
X31826267Y-44750500D01*
X31893306Y-44770185D01*
X31939061Y-44822989D01*
X31943972Y-44835494D01*
X31952828Y-44862218D01*
X31955186Y-44869334D01*
X32047288Y-45018656D01*
X32171344Y-45142712D01*
X32320666Y-45234814D01*
X32487203Y-45289999D01*
X32589991Y-45300500D01*
X33790008Y-45300499D01*
X33892797Y-45289999D01*
X34059334Y-45234814D01*
X34208656Y-45142712D01*
X34332712Y-45018656D01*
X34424814Y-44869334D01*
X34479999Y-44702797D01*
X34490500Y-44600009D01*
X34490499Y-43897648D01*
X39509500Y-43897648D01*
X39509500Y-44102351D01*
X39541522Y-44304534D01*
X39604781Y-44499223D01*
X39697715Y-44681613D01*
X39818028Y-44847213D01*
X39962786Y-44991971D01*
X40053350Y-45057768D01*
X40128390Y-45112287D01*
X40244607Y-45171503D01*
X40310776Y-45205218D01*
X40310778Y-45205218D01*
X40310781Y-45205220D01*
X40383901Y-45228978D01*
X40505465Y-45268477D01*
X40606557Y-45284488D01*
X40707648Y-45300500D01*
X40707649Y-45300500D01*
X40912351Y-45300500D01*
X40912352Y-45300500D01*
X41114534Y-45268477D01*
X41309219Y-45205220D01*
X41491610Y-45112287D01*
X41584590Y-45044732D01*
X41657213Y-44991971D01*
X41657215Y-44991968D01*
X41657219Y-44991966D01*
X41801966Y-44847219D01*
X41801968Y-44847215D01*
X41801971Y-44847213D01*
X41887264Y-44729815D01*
X41922287Y-44681610D01*
X42015220Y-44499219D01*
X42078477Y-44304534D01*
X42110500Y-44102352D01*
X42110500Y-43897648D01*
X42078477Y-43695466D01*
X42015220Y-43500781D01*
X42015218Y-43500778D01*
X42015218Y-43500776D01*
X41963865Y-43399992D01*
X41922287Y-43318390D01*
X41893191Y-43278342D01*
X41801971Y-43152786D01*
X41657213Y-43008028D01*
X41491613Y-42887715D01*
X41491612Y-42887714D01*
X41491610Y-42887713D01*
X41431898Y-42857288D01*
X41309223Y-42794781D01*
X41114534Y-42731522D01*
X40939995Y-42703878D01*
X40912352Y-42699500D01*
X40707648Y-42699500D01*
X40683329Y-42703351D01*
X40505465Y-42731522D01*
X40310776Y-42794781D01*
X40128386Y-42887715D01*
X39962786Y-43008028D01*
X39818028Y-43152786D01*
X39697715Y-43318386D01*
X39604781Y-43500776D01*
X39541522Y-43695465D01*
X39509500Y-43897648D01*
X34490499Y-43897648D01*
X34490499Y-43399992D01*
X34479999Y-43297203D01*
X34424814Y-43130666D01*
X34332712Y-42981344D01*
X34208656Y-42857288D01*
X34107314Y-42794780D01*
X34059336Y-42765187D01*
X34059331Y-42765185D01*
X34057862Y-42764698D01*
X33892797Y-42710001D01*
X33892795Y-42710000D01*
X33790010Y-42699500D01*
X32589998Y-42699500D01*
X32589981Y-42699501D01*
X32487203Y-42710000D01*
X32487200Y-42710001D01*
X32320668Y-42765185D01*
X32320663Y-42765187D01*
X32171342Y-42857289D01*
X32047289Y-42981342D01*
X31955187Y-43130663D01*
X31955184Y-43130671D01*
X31943972Y-43164506D01*
X31904199Y-43221950D01*
X31839683Y-43248772D01*
X31826267Y-43249500D01*
X28440862Y-43249500D01*
X28373823Y-43229815D01*
X28353181Y-43213181D01*
X28350000Y-43210000D01*
X27433012Y-43210000D01*
X27465925Y-43152993D01*
X27500000Y-43025826D01*
X27500000Y-42894174D01*
X27465925Y-42767007D01*
X27433012Y-42710000D01*
X28350000Y-42710000D01*
X28350000Y-42062172D01*
X28349999Y-42062155D01*
X28343598Y-42002627D01*
X28343596Y-42002620D01*
X28293354Y-41867913D01*
X28293350Y-41867906D01*
X28207190Y-41752812D01*
X28126088Y-41692098D01*
X28084218Y-41636164D01*
X28079234Y-41566472D01*
X28112720Y-41505149D01*
X28168305Y-41473058D01*
X28193186Y-41466392D01*
X28307314Y-41400500D01*
X28400500Y-41307314D01*
X28466392Y-41193186D01*
X28500500Y-41065892D01*
X28500500Y-38624500D01*
X28520185Y-38557461D01*
X28572989Y-38511706D01*
X28624500Y-38500500D01*
X40934108Y-38500500D01*
X58934108Y-38500500D01*
X71375500Y-38500500D01*
X71442539Y-38520185D01*
G37*
%TD.AperFunction*%
%TD*%
M02*
