M48
; DRILL file KiCad 10.0.3 date 2026-06-08T14:01:54
; FORMAT={-:-/ absolute / metric / decimal}
; #@! TF.CreationDate,2026-06-08T14:01:54+09:00
; #@! TF.GenerationSoftware,Kicad,Pcbnew,10.0.3
; #@! TF.FileFunction,Plated,1,2,PTH
FMAT,2
METRIC
; #@! TA.AperFunction,Plated,PTH,ComponentDrill
T1C0.750
; #@! TA.AperFunction,Plated,PTH,ComponentDrill
T2C0.800
; #@! TA.AperFunction,Plated,PTH,ComponentDrill
T3C1.000
%
G90
G05
T1
X56.46Y-56.5
X57.73Y-56.5
X59.0Y-56.5
T2
X33.19Y-44.0
X34.88Y-56.0
X40.81Y-44.0
X42.5Y-56.0
X45.88Y-43.0
X48.3Y-50.0
X51.7Y-50.0
X53.5Y-43.0
T3
X27.0Y-42.96
X27.0Y-45.5
X27.0Y-48.04
X64.5Y-42.96
X64.5Y-45.5
X64.5Y-48.04
X70.5Y-51.96
X70.5Y-54.5
X70.5Y-57.04
M30
