%TF.GenerationSoftware,KiCad,Pcbnew,10.0.3*%
%TF.CreationDate,2026-06-08T14:01:53+09:00*%
%TF.ProjectId,rs_light_sensor,72735f6c-6967-4687-945f-73656e736f72,rev?*%
%TF.SameCoordinates,Original*%
%TF.FileFunction,Legend,Bot*%
%TF.FilePolarity,Positive*%
%FSLAX46Y46*%
G04 Gerber Fmt 4.6, Leading zero omitted, Abs format (unit mm)*
G04 Created by KiCad (PCBNEW 10.0.3) date 2026-06-08 14:01:53*
%MOMM*%
%LPD*%
G01*
G04 APERTURE LIST*
G04 Aperture macros list*
%AMRoundRect*
0 Rectangle with rounded corners*
0 $1 Rounding radius*
0 $2 $3 $4 $5 $6 $7 $8 $9 X,Y pos of 4 corners*
0 Add a 4 corners polygon primitive as box body*
4,1,4,$2,$3,$4,$5,$6,$7,$8,$9,$2,$3,0*
0 Add four circle primitives for the rounded corners*
1,1,$1+$1,$2,$3*
1,1,$1+$1,$4,$5*
1,1,$1+$1,$6,$7*
1,1,$1+$1,$8,$9*
0 Add four rect primitives between the rounded corners*
20,1,$1+$1,$2,$3,$4,$5,0*
20,1,$1+$1,$4,$5,$6,$7,0*
20,1,$1+$1,$6,$7,$8,$9,0*
20,1,$1+$1,$8,$9,$2,$3,0*%
G04 Aperture macros list end*
%ADD10C,0.150000*%
%ADD11C,0.120000*%
%ADD12R,1.700000X1.700000*%
%ADD13C,1.700000*%
%ADD14C,1.600000*%
%ADD15RoundRect,0.250000X-0.550000X-0.550000X0.550000X-0.550000X0.550000X0.550000X-0.550000X0.550000X0*%
%ADD16R,1.050000X1.500000*%
%ADD17O,1.050000X1.500000*%
G04 APERTURE END LIST*
D10*
X27333333Y-40034819D02*
X27333333Y-40749104D01*
X27333333Y-40749104D02*
X27380952Y-40891961D01*
X27380952Y-40891961D02*
X27476190Y-40987200D01*
X27476190Y-40987200D02*
X27619047Y-41034819D01*
X27619047Y-41034819D02*
X27714285Y-41034819D01*
X26904761Y-40130057D02*
X26857142Y-40082438D01*
X26857142Y-40082438D02*
X26761904Y-40034819D01*
X26761904Y-40034819D02*
X26523809Y-40034819D01*
X26523809Y-40034819D02*
X26428571Y-40082438D01*
X26428571Y-40082438D02*
X26380952Y-40130057D01*
X26380952Y-40130057D02*
X26333333Y-40225295D01*
X26333333Y-40225295D02*
X26333333Y-40320533D01*
X26333333Y-40320533D02*
X26380952Y-40463390D01*
X26380952Y-40463390D02*
X26952380Y-41034819D01*
X26952380Y-41034819D02*
X26333333Y-41034819D01*
X69213333Y-39644819D02*
X69213333Y-40359104D01*
X69213333Y-40359104D02*
X69260952Y-40501961D01*
X69260952Y-40501961D02*
X69356190Y-40597200D01*
X69356190Y-40597200D02*
X69499047Y-40644819D01*
X69499047Y-40644819D02*
X69594285Y-40644819D01*
X68308571Y-39978152D02*
X68308571Y-40644819D01*
X68546666Y-39597200D02*
X68784761Y-40311485D01*
X68784761Y-40311485D02*
X68165714Y-40311485D01*
X75218333Y-58764819D02*
X75218333Y-59479104D01*
X75218333Y-59479104D02*
X75265952Y-59621961D01*
X75265952Y-59621961D02*
X75361190Y-59717200D01*
X75361190Y-59717200D02*
X75504047Y-59764819D01*
X75504047Y-59764819D02*
X75599285Y-59764819D01*
X74837380Y-58764819D02*
X74218333Y-58764819D01*
X74218333Y-58764819D02*
X74551666Y-59145771D01*
X74551666Y-59145771D02*
X74408809Y-59145771D01*
X74408809Y-59145771D02*
X74313571Y-59193390D01*
X74313571Y-59193390D02*
X74265952Y-59241009D01*
X74265952Y-59241009D02*
X74218333Y-59336247D01*
X74218333Y-59336247D02*
X74218333Y-59574342D01*
X74218333Y-59574342D02*
X74265952Y-59669580D01*
X74265952Y-59669580D02*
X74313571Y-59717200D01*
X74313571Y-59717200D02*
X74408809Y-59764819D01*
X74408809Y-59764819D02*
X74694523Y-59764819D01*
X74694523Y-59764819D02*
X74789761Y-59717200D01*
X74789761Y-59717200D02*
X74837380Y-59669580D01*
%TO.C,J2*%
D11*
X28380000Y-41580000D02*
X27000000Y-41580000D01*
X28380000Y-42960000D02*
X28380000Y-41580000D01*
X28380000Y-44230000D02*
X28380000Y-49420000D01*
X28380000Y-44230000D02*
X25620000Y-44230000D01*
X28380000Y-49420000D02*
X25620000Y-49420000D01*
X25620000Y-44230000D02*
X25620000Y-49420000D01*
%TO.C,J4*%
X63390000Y-41630000D02*
X63390000Y-42960000D01*
X64500000Y-41630000D02*
X63390000Y-41630000D01*
X65960000Y-41630000D02*
X65960000Y-49370000D01*
X65960000Y-42600000D02*
X65610000Y-42600000D01*
X65960000Y-43320000D02*
X65610000Y-43320000D01*
X65960000Y-45140000D02*
X65550000Y-45140000D01*
X65960000Y-45860000D02*
X65550000Y-45860000D01*
X65960000Y-47680000D02*
X65550000Y-47680000D01*
X65960000Y-48400000D02*
X65550000Y-48400000D01*
X74590000Y-41630000D02*
X65960000Y-41630000D01*
X74590000Y-41630000D02*
X74590000Y-49370000D01*
X74590000Y-41750000D02*
X65960000Y-41750000D01*
X74590000Y-41868095D02*
X65960000Y-41868095D01*
X74590000Y-41986190D02*
X65960000Y-41986190D01*
X74590000Y-42104286D02*
X65960000Y-42104286D01*
X74590000Y-42222381D02*
X65960000Y-42222381D01*
X74590000Y-42340476D02*
X65960000Y-42340476D01*
X74590000Y-42458571D02*
X65960000Y-42458571D01*
X74590000Y-42576667D02*
X65960000Y-42576667D01*
X74590000Y-42694762D02*
X65960000Y-42694762D01*
X74590000Y-42812857D02*
X65960000Y-42812857D01*
X74590000Y-42930952D02*
X65960000Y-42930952D01*
X74590000Y-43049048D02*
X65960000Y-43049048D01*
X74590000Y-43167143D02*
X65960000Y-43167143D01*
X74590000Y-43285238D02*
X65960000Y-43285238D01*
X74590000Y-43403333D02*
X65960000Y-43403333D01*
X74590000Y-43521429D02*
X65960000Y-43521429D01*
X74590000Y-43639524D02*
X65960000Y-43639524D01*
X74590000Y-43757619D02*
X65960000Y-43757619D01*
X74590000Y-43875714D02*
X65960000Y-43875714D01*
X74590000Y-43993810D02*
X65960000Y-43993810D01*
X74590000Y-44111905D02*
X65960000Y-44111905D01*
X74590000Y-44230000D02*
X65960000Y-44230000D01*
X74590000Y-46770000D02*
X65960000Y-46770000D01*
X74590000Y-49370000D02*
X65960000Y-49370000D01*
%TO.C,J3*%
X69230000Y-57040000D02*
X69230000Y-58310000D01*
X69230000Y-58310000D02*
X70500000Y-58310000D01*
X71577358Y-51530000D02*
X71890000Y-51530000D01*
X71577358Y-52390000D02*
X71890000Y-52390000D01*
X71577358Y-54070000D02*
X71890000Y-54070000D01*
X71577358Y-54930000D02*
X71890000Y-54930000D01*
X71660000Y-56610000D02*
X71890000Y-56610000D01*
X71660000Y-57470000D02*
X71890000Y-57470000D01*
X71890000Y-53230000D02*
X74650000Y-53230000D01*
X71890000Y-55770000D02*
X74650000Y-55770000D01*
X74650000Y-52390000D02*
X80650000Y-52390000D01*
X74650000Y-54930000D02*
X80650000Y-54930000D01*
X80650000Y-51530000D02*
X74650000Y-51530000D01*
X80650000Y-52390000D02*
X80650000Y-51530000D01*
X80650000Y-54070000D02*
X74650000Y-54070000D01*
X80650000Y-54930000D02*
X80650000Y-54070000D01*
X71890000Y-50580000D02*
X74650000Y-50580000D01*
X74650000Y-58420000D01*
X71890000Y-58420000D01*
X71890000Y-50580000D01*
X74650000Y-56610000D02*
X80650000Y-56610000D01*
X80650000Y-57470000D01*
X74650000Y-57470000D01*
X74650000Y-56610000D01*
G36*
X74650000Y-56610000D02*
G01*
X80650000Y-56610000D01*
X80650000Y-57470000D01*
X74650000Y-57470000D01*
X74650000Y-56610000D01*
G37*
%TD*%
%LPC*%
D12*
%TO.C,J2*%
X27000000Y-42960000D03*
D13*
X27000000Y-45500000D03*
X27000000Y-48040000D03*
%TD*%
D14*
%TO.C,R2*%
X48300000Y-50000000D03*
X51700000Y-50000000D03*
%TD*%
D15*
%TO.C,D2*%
X33190000Y-44000000D03*
D14*
X40810000Y-44000000D03*
%TD*%
%TO.C,R4*%
X45880000Y-43000000D03*
X53500000Y-43000000D03*
%TD*%
D16*
%TO.C,Q1*%
X59000000Y-56500000D03*
D17*
X57730000Y-56500000D03*
X56460000Y-56500000D03*
%TD*%
D14*
%TO.C,R3*%
X34880000Y-56000000D03*
X42500000Y-56000000D03*
%TD*%
D12*
%TO.C,J4*%
X64500000Y-42960000D03*
D13*
X64500000Y-45500000D03*
X64500000Y-48040000D03*
%TD*%
D12*
%TO.C,J3*%
X70500000Y-57040000D03*
D13*
X70500000Y-54500000D03*
X70500000Y-51960000D03*
%TD*%
%LPD*%
M02*
