%TF.GenerationSoftware,KiCad,Pcbnew,10.0.3*%
%TF.CreationDate,2026-06-08T13:00:36+09:00*%
%TF.ProjectId,rs_light_sensor,72735f6c-6967-4687-945f-73656e736f72,rev?*%
%TF.SameCoordinates,Original*%
%TF.FileFunction,Copper,L2,Bot*%
%TF.FilePolarity,Positive*%
%FSLAX46Y46*%
G04 Gerber Fmt 4.6, Leading zero omitted, Abs format (unit mm)*
G04 Created by KiCad (PCBNEW 10.0.3) date 2026-06-08 13:00:36*
%MOMM*%
%LPD*%
G01*
G04 APERTURE LIST*
G04 Aperture macros list*
%AMRoundRect*
0 Rectangle with rounded corners*
0 $1 Rounding radius*
0 $2 $3 $4 $5 $6 $7 $8 $9 X,Y pos of 4 corners*
0 Add a 4 corners polygon primitive as box body*
4,1,4,$2,$3,$4,$5,$6,$7,$8,$9,$2,$3,0*
0 Add four circle primitives for the rounded corners*
1,1,$1+$1,$2,$3*
1,1,$1+$1,$4,$5*
1,1,$1+$1,$6,$7*
1,1,$1+$1,$8,$9*
0 Add four rect primitives between the rounded corners*
20,1,$1+$1,$2,$3,$4,$5,0*
20,1,$1+$1,$4,$5,$6,$7,0*
20,1,$1+$1,$6,$7,$8,$9,0*
20,1,$1+$1,$8,$9,$2,$3,0*%
G04 Aperture macros list end*
%TA.AperFunction,ComponentPad*%
%ADD10C,1.600000*%
%TD*%
%TA.AperFunction,ComponentPad*%
%ADD11RoundRect,0.250000X-0.550000X-0.550000X0.550000X-0.550000X0.550000X0.550000X-0.550000X0.550000X0*%
%TD*%
%TA.AperFunction,ComponentPad*%
%ADD12R,1.050000X1.500000*%
%TD*%
%TA.AperFunction,ComponentPad*%
%ADD13O,1.050000X1.500000*%
%TD*%
%TA.AperFunction,ComponentPad*%
%ADD14R,1.700000X1.700000*%
%TD*%
%TA.AperFunction,ComponentPad*%
%ADD15C,1.700000*%
%TD*%
G04 APERTURE END LIST*
D10*
%TO.P,R2,1*%
%TO.N,Net-(Q1-G)*%
X48300000Y-50000000D03*
%TO.P,R2,2*%
%TO.N,GND*%
X51700000Y-50000000D03*
%TD*%
D11*
%TO.P,D2,1,K_1*%
%TO.N,/OUT*%
X40190000Y-60000000D03*
D10*
%TO.P,D2,2,A_2*%
%TO.N,Net-(D2-A)*%
X47810000Y-60000000D03*
%TD*%
%TO.P,R4,1*%
%TO.N,+5V*%
X40190000Y-44000000D03*
%TO.P,R4,2*%
%TO.N,Net-(Q1-G)*%
X47810000Y-44000000D03*
%TD*%
D12*
%TO.P,Q1,1,S_1*%
%TO.N,GND*%
X54770000Y-60140000D03*
D13*
%TO.P,Q1,2,G_2*%
%TO.N,Net-(Q1-G)*%
X53500000Y-60140000D03*
%TO.P,Q1,3,D_3*%
%TO.N,Net-(D2-A)*%
X52230000Y-60140000D03*
%TD*%
D10*
%TO.P,R3,1*%
%TO.N,+5V*%
X39690000Y-55000000D03*
%TO.P,R3,2*%
%TO.N,Net-(D2-A)*%
X47310000Y-55000000D03*
%TD*%
D14*
%TO.P,J1,1,Pin_1_1*%
%TO.N,GND*%
X35500000Y-57040000D03*
D15*
%TO.P,J1,2,Pin_2_2*%
%TO.N,/OUT*%
X35500000Y-54500000D03*
%TO.P,J1,3,Pin_3_3*%
%TO.N,+5V*%
X35500000Y-51960000D03*
%TD*%
D14*
%TO.P,J2,1,Pin_1_1*%
%TO.N,GND*%
X29500000Y-42960000D03*
D15*
%TO.P,J2,2,Pin_2_2*%
%TO.N,/OUT*%
X29500000Y-45500000D03*
%TO.P,J2,3,Pin_3_3*%
%TO.N,+5V*%
X29500000Y-48040000D03*
%TD*%
D14*
%TO.P,J4,1,Pin_1_1*%
%TO.N,GND*%
X64500000Y-42960000D03*
D15*
%TO.P,J4,2,Pin_2_2*%
%TO.N,/IN*%
X64500000Y-45500000D03*
%TO.P,J4,3,Pin_3_3*%
%TO.N,+5V*%
X64500000Y-48040000D03*
%TD*%
D14*
%TO.P,J3,1,Pin_1_1*%
%TO.N,GND*%
X70500000Y-57040000D03*
D15*
%TO.P,J3,2,Pin_2_2*%
%TO.N,/IN*%
X70500000Y-54500000D03*
%TO.P,J3,3,Pin_3_3*%
%TO.N,+5V*%
X70500000Y-51960000D03*
%TD*%
%TA.AperFunction,Conductor*%
%TO.N,GND*%
G36*
X71442539Y-28520185D02*
G01*
X71488294Y-28572989D01*
X71499500Y-28624500D01*
X71499500Y-41065891D01*
X71533608Y-41193187D01*
X71566554Y-41250250D01*
X71599500Y-41307314D01*
X71692686Y-41400500D01*
X71806814Y-41466392D01*
X71934108Y-41500500D01*
X74375500Y-41500500D01*
X74442539Y-41520185D01*
X74488294Y-41572989D01*
X74499500Y-41624500D01*
X74499500Y-58375500D01*
X74479815Y-58442539D01*
X74427011Y-58488294D01*
X74375500Y-58499500D01*
X71934108Y-58499500D01*
X71806812Y-58533608D01*
X71692686Y-58599500D01*
X71692683Y-58599502D01*
X71599502Y-58692683D01*
X71599500Y-58692686D01*
X71533608Y-58806812D01*
X71499500Y-58934108D01*
X71499500Y-71375500D01*
X71479815Y-71442539D01*
X71427011Y-71488294D01*
X71375500Y-71499500D01*
X28624500Y-71499500D01*
X28557461Y-71479815D01*
X28511706Y-71427011D01*
X28500500Y-71375500D01*
X28500500Y-59399983D01*
X38889500Y-59399983D01*
X38889500Y-60600001D01*
X38889501Y-60600018D01*
X38900000Y-60702796D01*
X38900001Y-60702799D01*
X38949030Y-60850756D01*
X38955186Y-60869334D01*
X39047288Y-61018656D01*
X39171344Y-61142712D01*
X39320666Y-61234814D01*
X39487203Y-61289999D01*
X39589991Y-61300500D01*
X40790008Y-61300499D01*
X40892797Y-61289999D01*
X41059334Y-61234814D01*
X41208656Y-61142712D01*
X41332712Y-61018656D01*
X41424814Y-60869334D01*
X41479999Y-60702797D01*
X41490500Y-60600009D01*
X41490499Y-59897648D01*
X46509500Y-59897648D01*
X46509500Y-60102351D01*
X46541522Y-60304534D01*
X46604781Y-60499223D01*
X46697715Y-60681613D01*
X46818028Y-60847213D01*
X46962786Y-60991971D01*
X47117749Y-61104556D01*
X47128390Y-61112287D01*
X47225090Y-61161558D01*
X47310776Y-61205218D01*
X47310778Y-61205218D01*
X47310781Y-61205220D01*
X47349194Y-61217701D01*
X47505465Y-61268477D01*
X47538991Y-61273787D01*
X47707648Y-61300500D01*
X47707649Y-61300500D01*
X47912351Y-61300500D01*
X47912352Y-61300500D01*
X48114534Y-61268477D01*
X48309219Y-61205220D01*
X48491610Y-61112287D01*
X48620482Y-61018657D01*
X48657213Y-60991971D01*
X48657215Y-60991968D01*
X48657219Y-60991966D01*
X48801966Y-60847219D01*
X48801968Y-60847215D01*
X48801971Y-60847213D01*
X48906892Y-60702799D01*
X48922287Y-60681610D01*
X49015220Y-60499219D01*
X49078477Y-60304534D01*
X49110500Y-60102352D01*
X49110500Y-59897648D01*
X49097250Y-59813992D01*
X51204500Y-59813992D01*
X51204500Y-60466007D01*
X51243907Y-60664119D01*
X51243909Y-60664127D01*
X51321212Y-60850752D01*
X51321217Y-60850762D01*
X51433441Y-61018718D01*
X51576281Y-61161558D01*
X51744237Y-61273782D01*
X51744241Y-61273784D01*
X51744244Y-61273786D01*
X51930873Y-61351091D01*
X52094288Y-61383596D01*
X52128992Y-61390499D01*
X52128996Y-61390500D01*
X52128997Y-61390500D01*
X52331004Y-61390500D01*
X52331005Y-61390499D01*
X52529127Y-61351091D01*
X52715756Y-61273786D01*
X52796110Y-61220094D01*
X52862786Y-61199217D01*
X52930166Y-61217701D01*
X52933865Y-61220078D01*
X53014244Y-61273786D01*
X53200873Y-61351091D01*
X53364288Y-61383596D01*
X53398992Y-61390499D01*
X53398996Y-61390500D01*
X53398997Y-61390500D01*
X53601004Y-61390500D01*
X53601005Y-61390499D01*
X53799127Y-61351091D01*
X53880338Y-61317451D01*
X53949804Y-61309983D01*
X53994859Y-61329594D01*
X53995128Y-61329103D01*
X54000613Y-61332098D01*
X54002099Y-61332745D01*
X54002911Y-61333353D01*
X54002913Y-61333354D01*
X54137620Y-61383596D01*
X54137627Y-61383598D01*
X54197155Y-61389999D01*
X54197172Y-61390000D01*
X54520000Y-61390000D01*
X54520000Y-60505865D01*
X54520067Y-60501789D01*
X54520400Y-60491638D01*
X54525500Y-60466003D01*
X54525500Y-60425830D01*
X54539745Y-60440075D01*
X54625255Y-60489444D01*
X54720630Y-60515000D01*
X54819370Y-60515000D01*
X54914745Y-60489444D01*
X55000255Y-60440075D01*
X55020000Y-60420330D01*
X55020000Y-61390000D01*
X55342828Y-61390000D01*
X55342844Y-61389999D01*
X55402372Y-61383598D01*
X55402379Y-61383596D01*
X55537086Y-61333354D01*
X55537093Y-61333350D01*
X55652187Y-61247190D01*
X55652190Y-61247187D01*
X55738350Y-61132093D01*
X55738354Y-61132086D01*
X55788596Y-60997379D01*
X55788598Y-60997372D01*
X55794999Y-60937844D01*
X55795000Y-60937827D01*
X55795000Y-60390000D01*
X55050330Y-60390000D01*
X55070075Y-60370255D01*
X55119444Y-60284745D01*
X55145000Y-60189370D01*
X55145000Y-60090630D01*
X55119444Y-59995255D01*
X55070075Y-59909745D01*
X55050330Y-59890000D01*
X55795000Y-59890000D01*
X55795000Y-59342172D01*
X55794999Y-59342155D01*
X55788598Y-59282627D01*
X55788596Y-59282620D01*
X55738354Y-59147913D01*
X55738350Y-59147906D01*
X55652190Y-59032812D01*
X55652187Y-59032809D01*
X55537093Y-58946649D01*
X55537086Y-58946645D01*
X55402379Y-58896403D01*
X55402372Y-58896401D01*
X55342844Y-58890000D01*
X55020000Y-58890000D01*
X55020000Y-59859670D01*
X55000255Y-59839925D01*
X54914745Y-59790556D01*
X54819370Y-59765000D01*
X54720630Y-59765000D01*
X54625255Y-59790556D01*
X54539745Y-59839925D01*
X54525500Y-59854170D01*
X54525500Y-59813997D01*
X54522383Y-59798326D01*
X54520000Y-59774134D01*
X54520000Y-58890000D01*
X54197155Y-58890000D01*
X54137627Y-58896401D01*
X54137620Y-58896403D01*
X54002913Y-58946645D01*
X54002911Y-58946646D01*
X54002092Y-58947260D01*
X54001134Y-58947616D01*
X53995132Y-58950895D01*
X53994660Y-58950031D01*
X53936625Y-58971671D01*
X53880338Y-58962547D01*
X53799131Y-58928910D01*
X53799119Y-58928907D01*
X53601007Y-58889500D01*
X53601003Y-58889500D01*
X53398997Y-58889500D01*
X53398992Y-58889500D01*
X53200880Y-58928907D01*
X53200872Y-58928909D01*
X53014244Y-59006213D01*
X52933891Y-59059904D01*
X52867213Y-59080782D01*
X52799833Y-59062297D01*
X52796109Y-59059904D01*
X52715755Y-59006213D01*
X52529127Y-58928909D01*
X52529119Y-58928907D01*
X52331007Y-58889500D01*
X52331003Y-58889500D01*
X52128997Y-58889500D01*
X52128992Y-58889500D01*
X51930880Y-58928907D01*
X51930872Y-58928909D01*
X51744247Y-59006212D01*
X51744237Y-59006217D01*
X51576281Y-59118441D01*
X51433441Y-59261281D01*
X51321217Y-59429237D01*
X51321212Y-59429247D01*
X51243909Y-59615872D01*
X51243907Y-59615880D01*
X51204500Y-59813992D01*
X49097250Y-59813992D01*
X49078477Y-59695466D01*
X49015220Y-59500781D01*
X49015218Y-59500778D01*
X49015218Y-59500776D01*
X48963865Y-59399991D01*
X48922287Y-59318390D01*
X48880796Y-59261282D01*
X48801971Y-59152786D01*
X48657213Y-59008028D01*
X48491613Y-58887715D01*
X48491612Y-58887714D01*
X48491610Y-58887713D01*
X48431898Y-58857288D01*
X48309223Y-58794781D01*
X48114534Y-58731522D01*
X47939995Y-58703878D01*
X47912352Y-58699500D01*
X47707648Y-58699500D01*
X47683329Y-58703351D01*
X47505465Y-58731522D01*
X47310776Y-58794781D01*
X47128386Y-58887715D01*
X46962786Y-59008028D01*
X46818028Y-59152786D01*
X46697715Y-59318386D01*
X46604781Y-59500776D01*
X46541522Y-59695465D01*
X46509500Y-59897648D01*
X41490499Y-59897648D01*
X41490499Y-59399992D01*
X41479999Y-59297203D01*
X41424814Y-59130666D01*
X41332712Y-58981344D01*
X41208656Y-58857288D01*
X41059334Y-58765186D01*
X40892797Y-58710001D01*
X40892795Y-58710000D01*
X40790010Y-58699500D01*
X39589998Y-58699500D01*
X39589981Y-58699501D01*
X39487203Y-58710000D01*
X39487200Y-58710001D01*
X39320668Y-58765185D01*
X39320663Y-58765187D01*
X39171342Y-58857289D01*
X39047289Y-58981342D01*
X38955187Y-59130663D01*
X38955186Y-59130666D01*
X38900001Y-59297203D01*
X38900001Y-59297204D01*
X38900000Y-59297204D01*
X38889500Y-59399983D01*
X28500500Y-59399983D01*
X28500500Y-58934110D01*
X28500500Y-58934108D01*
X28466392Y-58806814D01*
X28400500Y-58692686D01*
X28307314Y-58599500D01*
X28250250Y-58566554D01*
X28193187Y-58533608D01*
X28129539Y-58516554D01*
X28065892Y-58499500D01*
X28065891Y-58499500D01*
X25624500Y-58499500D01*
X25557461Y-58479815D01*
X25511706Y-58427011D01*
X25500500Y-58375500D01*
X25500500Y-51853713D01*
X34149500Y-51853713D01*
X34149500Y-52066286D01*
X34182753Y-52276239D01*
X34248444Y-52478414D01*
X34344951Y-52667820D01*
X34469890Y-52839786D01*
X34620213Y-52990109D01*
X34792182Y-53115050D01*
X34800946Y-53119516D01*
X34851742Y-53167491D01*
X34868536Y-53235312D01*
X34845998Y-53301447D01*
X34800946Y-53340484D01*
X34792182Y-53344949D01*
X34620213Y-53469890D01*
X34469890Y-53620213D01*
X34344951Y-53792179D01*
X34248444Y-53981585D01*
X34182753Y-54183760D01*
X34149500Y-54393713D01*
X34149500Y-54606286D01*
X34182753Y-54816239D01*
X34182753Y-54816241D01*
X34182754Y-54816243D01*
X34209204Y-54897648D01*
X34248444Y-55018414D01*
X34344951Y-55207820D01*
X34469890Y-55379786D01*
X34583818Y-55493714D01*
X34617303Y-55555037D01*
X34612319Y-55624729D01*
X34570447Y-55680662D01*
X34539471Y-55697577D01*
X34407912Y-55746646D01*
X34407906Y-55746649D01*
X34292812Y-55832809D01*
X34292809Y-55832812D01*
X34206649Y-55947906D01*
X34206645Y-55947913D01*
X34156403Y-56082620D01*
X34156401Y-56082627D01*
X34150000Y-56142155D01*
X34150000Y-56790000D01*
X35066988Y-56790000D01*
X35034075Y-56847007D01*
X35000000Y-56974174D01*
X35000000Y-57105826D01*
X35034075Y-57232993D01*
X35066988Y-57290000D01*
X34150000Y-57290000D01*
X34150000Y-57937844D01*
X34156401Y-57997372D01*
X34156403Y-57997379D01*
X34206645Y-58132086D01*
X34206649Y-58132093D01*
X34292809Y-58247187D01*
X34292812Y-58247190D01*
X34407906Y-58333350D01*
X34407913Y-58333354D01*
X34542620Y-58383596D01*
X34542627Y-58383598D01*
X34602155Y-58389999D01*
X34602172Y-58390000D01*
X35250000Y-58390000D01*
X35250000Y-57473012D01*
X35307007Y-57505925D01*
X35434174Y-57540000D01*
X35565826Y-57540000D01*
X35692993Y-57505925D01*
X35750000Y-57473012D01*
X35750000Y-58390000D01*
X36397828Y-58390000D01*
X36397844Y-58389999D01*
X36457372Y-58383598D01*
X36457379Y-58383596D01*
X36592086Y-58333354D01*
X36592093Y-58333350D01*
X36707187Y-58247190D01*
X36707190Y-58247187D01*
X36793350Y-58132093D01*
X36793354Y-58132086D01*
X36843596Y-57997379D01*
X36843598Y-57997372D01*
X36849999Y-57937844D01*
X36850000Y-57937827D01*
X36850000Y-57290000D01*
X35933012Y-57290000D01*
X35965925Y-57232993D01*
X36000000Y-57105826D01*
X36000000Y-56974174D01*
X35965925Y-56847007D01*
X35933012Y-56790000D01*
X36850000Y-56790000D01*
X36850000Y-56142172D01*
X36849999Y-56142155D01*
X36843598Y-56082627D01*
X36843596Y-56082620D01*
X36793354Y-55947913D01*
X36793350Y-55947906D01*
X36707190Y-55832812D01*
X36707187Y-55832809D01*
X36592093Y-55746649D01*
X36592088Y-55746646D01*
X36460528Y-55697577D01*
X36404595Y-55655705D01*
X36380178Y-55590241D01*
X36395030Y-55521968D01*
X36416175Y-55493720D01*
X36530104Y-55379792D01*
X36655051Y-55207816D01*
X36751557Y-55018412D01*
X36790796Y-54897648D01*
X38389500Y-54897648D01*
X38389500Y-55102351D01*
X38421522Y-55304534D01*
X38484781Y-55499223D01*
X38531158Y-55590241D01*
X38564180Y-55655051D01*
X38577715Y-55681613D01*
X38698028Y-55847213D01*
X38842786Y-55991971D01*
X38967566Y-56082627D01*
X39008390Y-56112287D01*
X39067043Y-56142172D01*
X39190776Y-56205218D01*
X39190778Y-56205218D01*
X39190781Y-56205220D01*
X39295137Y-56239127D01*
X39385465Y-56268477D01*
X39486557Y-56284488D01*
X39587648Y-56300500D01*
X39587649Y-56300500D01*
X39792351Y-56300500D01*
X39792352Y-56300500D01*
X39994534Y-56268477D01*
X40189219Y-56205220D01*
X40371610Y-56112287D01*
X40464590Y-56044732D01*
X40537213Y-55991971D01*
X40537215Y-55991968D01*
X40537219Y-55991966D01*
X40681966Y-55847219D01*
X40681968Y-55847215D01*
X40681971Y-55847213D01*
X40790686Y-55697577D01*
X40802287Y-55681610D01*
X40895220Y-55499219D01*
X40958477Y-55304534D01*
X40990500Y-55102352D01*
X40990500Y-54897648D01*
X46009500Y-54897648D01*
X46009500Y-55102351D01*
X46041522Y-55304534D01*
X46104781Y-55499223D01*
X46151158Y-55590241D01*
X46184180Y-55655051D01*
X46197715Y-55681613D01*
X46318028Y-55847213D01*
X46462786Y-55991971D01*
X46587566Y-56082627D01*
X46628390Y-56112287D01*
X46687043Y-56142172D01*
X46810776Y-56205218D01*
X46810778Y-56205218D01*
X46810781Y-56205220D01*
X46915137Y-56239127D01*
X47005465Y-56268477D01*
X47106557Y-56284488D01*
X47207648Y-56300500D01*
X47207649Y-56300500D01*
X47412351Y-56300500D01*
X47412352Y-56300500D01*
X47614534Y-56268477D01*
X47809219Y-56205220D01*
X47991610Y-56112287D01*
X48084590Y-56044732D01*
X48157213Y-55991971D01*
X48157215Y-55991968D01*
X48157219Y-55991966D01*
X48301966Y-55847219D01*
X48301968Y-55847215D01*
X48301971Y-55847213D01*
X48410686Y-55697577D01*
X48422287Y-55681610D01*
X48515220Y-55499219D01*
X48578477Y-55304534D01*
X48610500Y-55102352D01*
X48610500Y-54897648D01*
X48578477Y-54695466D01*
X48515220Y-54500781D01*
X48515218Y-54500778D01*
X48515218Y-54500776D01*
X48460666Y-54393713D01*
X48422287Y-54318390D01*
X48414556Y-54307749D01*
X48301971Y-54152786D01*
X48157213Y-54008028D01*
X47991613Y-53887715D01*
X47991612Y-53887714D01*
X47991610Y-53887713D01*
X47934653Y-53858691D01*
X47809223Y-53794781D01*
X47614534Y-53731522D01*
X47439995Y-53703878D01*
X47412352Y-53699500D01*
X47207648Y-53699500D01*
X47183329Y-53703351D01*
X47005465Y-53731522D01*
X46810776Y-53794781D01*
X46628386Y-53887715D01*
X46462786Y-54008028D01*
X46318028Y-54152786D01*
X46197715Y-54318386D01*
X46104781Y-54500776D01*
X46041522Y-54695465D01*
X46009500Y-54897648D01*
X40990500Y-54897648D01*
X40958477Y-54695466D01*
X40895220Y-54500781D01*
X40895218Y-54500778D01*
X40895218Y-54500776D01*
X40840666Y-54393713D01*
X40802287Y-54318390D01*
X40794556Y-54307749D01*
X40681971Y-54152786D01*
X40537213Y-54008028D01*
X40371613Y-53887715D01*
X40371612Y-53887714D01*
X40371610Y-53887713D01*
X40314653Y-53858691D01*
X40189223Y-53794781D01*
X39994534Y-53731522D01*
X39819995Y-53703878D01*
X39792352Y-53699500D01*
X39587648Y-53699500D01*
X39563329Y-53703351D01*
X39385465Y-53731522D01*
X39190776Y-53794781D01*
X39008386Y-53887715D01*
X38842786Y-54008028D01*
X38698028Y-54152786D01*
X38577715Y-54318386D01*
X38484781Y-54500776D01*
X38421522Y-54695465D01*
X38389500Y-54897648D01*
X36790796Y-54897648D01*
X36817246Y-54816243D01*
X36850500Y-54606287D01*
X36850500Y-54393713D01*
X36817246Y-54183757D01*
X36751557Y-53981588D01*
X36655051Y-53792184D01*
X36655049Y-53792181D01*
X36655048Y-53792179D01*
X36530109Y-53620213D01*
X36379786Y-53469890D01*
X36207820Y-53344951D01*
X36207115Y-53344591D01*
X36199054Y-53340485D01*
X36148259Y-53292512D01*
X36131463Y-53224692D01*
X36153999Y-53158556D01*
X36199054Y-53119515D01*
X36207816Y-53115051D01*
X36229789Y-53099086D01*
X36379786Y-52990109D01*
X36379788Y-52990106D01*
X36379792Y-52990104D01*
X36530104Y-52839792D01*
X36530106Y-52839788D01*
X36530109Y-52839786D01*
X36655048Y-52667820D01*
X36655047Y-52667820D01*
X36655051Y-52667816D01*
X36751557Y-52478412D01*
X36817246Y-52276243D01*
X36850500Y-52066287D01*
X36850500Y-51853713D01*
X69149500Y-51853713D01*
X69149500Y-52066286D01*
X69182753Y-52276239D01*
X69248444Y-52478414D01*
X69344951Y-52667820D01*
X69469890Y-52839786D01*
X69620213Y-52990109D01*
X69792182Y-53115050D01*
X69800946Y-53119516D01*
X69851742Y-53167491D01*
X69868536Y-53235312D01*
X69845998Y-53301447D01*
X69800946Y-53340484D01*
X69792182Y-53344949D01*
X69620213Y-53469890D01*
X69469890Y-53620213D01*
X69344951Y-53792179D01*
X69248444Y-53981585D01*
X69182753Y-54183760D01*
X69149500Y-54393713D01*
X69149500Y-54606286D01*
X69182753Y-54816239D01*
X69182753Y-54816241D01*
X69182754Y-54816243D01*
X69209204Y-54897648D01*
X69248444Y-55018414D01*
X69344951Y-55207820D01*
X69469890Y-55379786D01*
X69583818Y-55493714D01*
X69617303Y-55555037D01*
X69612319Y-55624729D01*
X69570447Y-55680662D01*
X69539471Y-55697577D01*
X69407912Y-55746646D01*
X69407906Y-55746649D01*
X69292812Y-55832809D01*
X69292809Y-55832812D01*
X69206649Y-55947906D01*
X69206645Y-55947913D01*
X69156403Y-56082620D01*
X69156401Y-56082627D01*
X69150000Y-56142155D01*
X69150000Y-56790000D01*
X70066988Y-56790000D01*
X70034075Y-56847007D01*
X70000000Y-56974174D01*
X70000000Y-57105826D01*
X70034075Y-57232993D01*
X70066988Y-57290000D01*
X69150000Y-57290000D01*
X69150000Y-57937844D01*
X69156401Y-57997372D01*
X69156403Y-57997379D01*
X69206645Y-58132086D01*
X69206649Y-58132093D01*
X69292809Y-58247187D01*
X69292812Y-58247190D01*
X69407906Y-58333350D01*
X69407913Y-58333354D01*
X69542620Y-58383596D01*
X69542627Y-58383598D01*
X69602155Y-58389999D01*
X69602172Y-58390000D01*
X70250000Y-58390000D01*
X70250000Y-57473012D01*
X70307007Y-57505925D01*
X70434174Y-57540000D01*
X70565826Y-57540000D01*
X70692993Y-57505925D01*
X70750000Y-57473012D01*
X70750000Y-58390000D01*
X71397828Y-58390000D01*
X71397844Y-58389999D01*
X71457372Y-58383598D01*
X71457379Y-58383596D01*
X71592086Y-58333354D01*
X71592093Y-58333350D01*
X71707187Y-58247190D01*
X71707190Y-58247187D01*
X71793350Y-58132093D01*
X71793354Y-58132086D01*
X71843596Y-57997379D01*
X71843598Y-57997372D01*
X71849999Y-57937844D01*
X71850000Y-57937827D01*
X71850000Y-57290000D01*
X70933012Y-57290000D01*
X70965925Y-57232993D01*
X71000000Y-57105826D01*
X71000000Y-56974174D01*
X70965925Y-56847007D01*
X70933012Y-56790000D01*
X71850000Y-56790000D01*
X71850000Y-56142172D01*
X71849999Y-56142155D01*
X71843598Y-56082627D01*
X71843596Y-56082620D01*
X71793354Y-55947913D01*
X71793350Y-55947906D01*
X71707190Y-55832812D01*
X71707187Y-55832809D01*
X71592093Y-55746649D01*
X71592088Y-55746646D01*
X71460528Y-55697577D01*
X71404595Y-55655705D01*
X71380178Y-55590241D01*
X71395030Y-55521968D01*
X71416175Y-55493720D01*
X71530104Y-55379792D01*
X71655051Y-55207816D01*
X71751557Y-55018412D01*
X71817246Y-54816243D01*
X71850500Y-54606287D01*
X71850500Y-54393713D01*
X71817246Y-54183757D01*
X71751557Y-53981588D01*
X71655051Y-53792184D01*
X71655049Y-53792181D01*
X71655048Y-53792179D01*
X71530109Y-53620213D01*
X71379786Y-53469890D01*
X71207820Y-53344951D01*
X71207115Y-53344591D01*
X71199054Y-53340485D01*
X71148259Y-53292512D01*
X71131463Y-53224692D01*
X71153999Y-53158556D01*
X71199054Y-53119515D01*
X71207816Y-53115051D01*
X71229789Y-53099086D01*
X71379786Y-52990109D01*
X71379788Y-52990106D01*
X71379792Y-52990104D01*
X71530104Y-52839792D01*
X71530106Y-52839788D01*
X71530109Y-52839786D01*
X71655048Y-52667820D01*
X71655047Y-52667820D01*
X71655051Y-52667816D01*
X71751557Y-52478412D01*
X71817246Y-52276243D01*
X71850500Y-52066287D01*
X71850500Y-51853713D01*
X71817246Y-51643757D01*
X71751557Y-51441588D01*
X71655051Y-51252184D01*
X71655049Y-51252181D01*
X71655048Y-51252179D01*
X71530109Y-51080213D01*
X71379786Y-50929890D01*
X71207820Y-50804951D01*
X71018414Y-50708444D01*
X71018413Y-50708443D01*
X71018412Y-50708443D01*
X70816243Y-50642754D01*
X70816241Y-50642753D01*
X70816240Y-50642753D01*
X70654957Y-50617208D01*
X70606287Y-50609500D01*
X70393713Y-50609500D01*
X70345042Y-50617208D01*
X70183760Y-50642753D01*
X69981585Y-50708444D01*
X69792179Y-50804951D01*
X69620213Y-50929890D01*
X69469890Y-51080213D01*
X69344951Y-51252179D01*
X69248444Y-51441585D01*
X69182753Y-51643760D01*
X69149500Y-51853713D01*
X36850500Y-51853713D01*
X36817246Y-51643757D01*
X36751557Y-51441588D01*
X36655051Y-51252184D01*
X36655049Y-51252181D01*
X36655048Y-51252179D01*
X36530109Y-51080213D01*
X36379786Y-50929890D01*
X36207820Y-50804951D01*
X36018414Y-50708444D01*
X36018413Y-50708443D01*
X36018412Y-50708443D01*
X35816243Y-50642754D01*
X35816241Y-50642753D01*
X35816240Y-50642753D01*
X35654957Y-50617208D01*
X35606287Y-50609500D01*
X35393713Y-50609500D01*
X35345042Y-50617208D01*
X35183760Y-50642753D01*
X34981585Y-50708444D01*
X34792179Y-50804951D01*
X34620213Y-50929890D01*
X34469890Y-51080213D01*
X34344951Y-51252179D01*
X34248444Y-51441585D01*
X34182753Y-51643760D01*
X34149500Y-51853713D01*
X25500500Y-51853713D01*
X25500500Y-49897648D01*
X46999500Y-49897648D01*
X46999500Y-50102351D01*
X47031522Y-50304534D01*
X47094781Y-50499223D01*
X47150971Y-50609500D01*
X47187585Y-50681359D01*
X47187715Y-50681613D01*
X47308028Y-50847213D01*
X47452786Y-50991971D01*
X47607749Y-51104556D01*
X47618390Y-51112287D01*
X47734607Y-51171503D01*
X47800776Y-51205218D01*
X47800778Y-51205218D01*
X47800781Y-51205220D01*
X47905137Y-51239127D01*
X47995465Y-51268477D01*
X48096557Y-51284488D01*
X48197648Y-51300500D01*
X48197649Y-51300500D01*
X48402351Y-51300500D01*
X48402352Y-51300500D01*
X48604534Y-51268477D01*
X48799219Y-51205220D01*
X48981610Y-51112287D01*
X49074590Y-51044732D01*
X49147213Y-50991971D01*
X49147215Y-50991968D01*
X49147219Y-50991966D01*
X49291966Y-50847219D01*
X49291968Y-50847215D01*
X49291971Y-50847213D01*
X49344732Y-50774590D01*
X49412287Y-50681610D01*
X49505220Y-50499219D01*
X49568477Y-50304534D01*
X49600500Y-50102352D01*
X49600500Y-49897682D01*
X50400000Y-49897682D01*
X50400000Y-50102317D01*
X50432009Y-50304417D01*
X50495244Y-50499031D01*
X50588141Y-50681350D01*
X50588147Y-50681359D01*
X50620523Y-50725921D01*
X50620524Y-50725922D01*
X51300000Y-50046446D01*
X51300000Y-50052661D01*
X51327259Y-50154394D01*
X51379920Y-50245606D01*
X51454394Y-50320080D01*
X51545606Y-50372741D01*
X51647339Y-50400000D01*
X51653553Y-50400000D01*
X50974076Y-51079474D01*
X51018650Y-51111859D01*
X51200968Y-51204755D01*
X51395582Y-51267990D01*
X51597683Y-51300000D01*
X51802317Y-51300000D01*
X52004417Y-51267990D01*
X52199031Y-51204755D01*
X52381349Y-51111859D01*
X52425921Y-51079474D01*
X51746447Y-50400000D01*
X51752661Y-50400000D01*
X51854394Y-50372741D01*
X51945606Y-50320080D01*
X52020080Y-50245606D01*
X52072741Y-50154394D01*
X52100000Y-50052661D01*
X52100000Y-50046448D01*
X52779474Y-50725922D01*
X52779474Y-50725921D01*
X52811859Y-50681349D01*
X52904755Y-50499031D01*
X52967990Y-50304417D01*
X53000000Y-50102317D01*
X53000000Y-49897682D01*
X52967990Y-49695582D01*
X52904755Y-49500968D01*
X52811859Y-49318650D01*
X52779474Y-49274077D01*
X52779474Y-49274076D01*
X52100000Y-49953551D01*
X52100000Y-49947339D01*
X52072741Y-49845606D01*
X52020080Y-49754394D01*
X51945606Y-49679920D01*
X51854394Y-49627259D01*
X51752661Y-49600000D01*
X51746446Y-49600000D01*
X52425922Y-48920524D01*
X52425921Y-48920523D01*
X52381359Y-48888147D01*
X52381350Y-48888141D01*
X52199031Y-48795244D01*
X52004417Y-48732009D01*
X51802317Y-48700000D01*
X51597683Y-48700000D01*
X51395582Y-48732009D01*
X51200968Y-48795244D01*
X51018644Y-48888143D01*
X50974077Y-48920523D01*
X50974077Y-48920524D01*
X51653554Y-49600000D01*
X51647339Y-49600000D01*
X51545606Y-49627259D01*
X51454394Y-49679920D01*
X51379920Y-49754394D01*
X51327259Y-49845606D01*
X51300000Y-49947339D01*
X51300000Y-49953553D01*
X50620524Y-49274077D01*
X50620523Y-49274077D01*
X50588143Y-49318644D01*
X50495244Y-49500968D01*
X50432009Y-49695582D01*
X50400000Y-49897682D01*
X49600500Y-49897682D01*
X49600500Y-49897648D01*
X49592257Y-49845606D01*
X49568477Y-49695465D01*
X49537458Y-49600000D01*
X49505220Y-49500781D01*
X49505218Y-49500778D01*
X49505218Y-49500776D01*
X49412419Y-49318650D01*
X49412287Y-49318390D01*
X49392792Y-49291557D01*
X49291971Y-49152786D01*
X49147213Y-49008028D01*
X48981613Y-48887715D01*
X48981612Y-48887714D01*
X48981610Y-48887713D01*
X48924653Y-48858691D01*
X48799223Y-48794781D01*
X48604534Y-48731522D01*
X48429995Y-48703878D01*
X48402352Y-48699500D01*
X48197648Y-48699500D01*
X48173329Y-48703351D01*
X47995465Y-48731522D01*
X47800776Y-48794781D01*
X47618386Y-48887715D01*
X47452786Y-49008028D01*
X47308028Y-49152786D01*
X47187715Y-49318386D01*
X47094781Y-49500776D01*
X47031522Y-49695465D01*
X46999500Y-49897648D01*
X25500500Y-49897648D01*
X25500500Y-45393713D01*
X28149500Y-45393713D01*
X28149500Y-45606286D01*
X28182753Y-45816239D01*
X28248444Y-46018414D01*
X28344951Y-46207820D01*
X28469890Y-46379786D01*
X28620213Y-46530109D01*
X28792182Y-46655050D01*
X28800946Y-46659516D01*
X28851742Y-46707491D01*
X28868536Y-46775312D01*
X28845998Y-46841447D01*
X28800946Y-46880484D01*
X28792182Y-46884949D01*
X28620213Y-47009890D01*
X28469890Y-47160213D01*
X28344951Y-47332179D01*
X28248444Y-47521585D01*
X28182753Y-47723760D01*
X28149500Y-47933713D01*
X28149500Y-48146286D01*
X28182753Y-48356239D01*
X28248444Y-48558414D01*
X28344951Y-48747820D01*
X28469890Y-48919786D01*
X28620213Y-49070109D01*
X28792179Y-49195048D01*
X28792181Y-49195049D01*
X28792184Y-49195051D01*
X28981588Y-49291557D01*
X29183757Y-49357246D01*
X29393713Y-49390500D01*
X29393714Y-49390500D01*
X29606286Y-49390500D01*
X29606287Y-49390500D01*
X29816243Y-49357246D01*
X30018412Y-49291557D01*
X30207816Y-49195051D01*
X30265996Y-49152781D01*
X30379786Y-49070109D01*
X30379788Y-49070106D01*
X30379792Y-49070104D01*
X30530104Y-48919792D01*
X30530106Y-48919788D01*
X30530109Y-48919786D01*
X30655048Y-48747820D01*
X30655047Y-48747820D01*
X30655051Y-48747816D01*
X30751557Y-48558412D01*
X30817246Y-48356243D01*
X30850500Y-48146287D01*
X30850500Y-47933713D01*
X30817246Y-47723757D01*
X30751557Y-47521588D01*
X30655051Y-47332184D01*
X30655049Y-47332181D01*
X30655048Y-47332179D01*
X30530109Y-47160213D01*
X30379786Y-47009890D01*
X30207820Y-46884951D01*
X30207115Y-46884591D01*
X30199054Y-46880485D01*
X30148259Y-46832512D01*
X30131463Y-46764692D01*
X30153999Y-46698556D01*
X30199054Y-46659515D01*
X30207816Y-46655051D01*
X30229789Y-46639086D01*
X30379786Y-46530109D01*
X30379788Y-46530106D01*
X30379792Y-46530104D01*
X30530104Y-46379792D01*
X30530106Y-46379788D01*
X30530109Y-46379786D01*
X30655048Y-46207820D01*
X30655047Y-46207820D01*
X30655051Y-46207816D01*
X30751557Y-46018412D01*
X30817246Y-45816243D01*
X30850500Y-45606287D01*
X30850500Y-45393713D01*
X63149500Y-45393713D01*
X63149500Y-45606286D01*
X63182753Y-45816239D01*
X63248444Y-46018414D01*
X63344951Y-46207820D01*
X63469890Y-46379786D01*
X63620213Y-46530109D01*
X63792182Y-46655050D01*
X63800946Y-46659516D01*
X63851742Y-46707491D01*
X63868536Y-46775312D01*
X63845998Y-46841447D01*
X63800946Y-46880484D01*
X63792182Y-46884949D01*
X63620213Y-47009890D01*
X63469890Y-47160213D01*
X63344951Y-47332179D01*
X63248444Y-47521585D01*
X63182753Y-47723760D01*
X63149500Y-47933713D01*
X63149500Y-48146286D01*
X63182753Y-48356239D01*
X63248444Y-48558414D01*
X63344951Y-48747820D01*
X63469890Y-48919786D01*
X63620213Y-49070109D01*
X63792179Y-49195048D01*
X63792181Y-49195049D01*
X63792184Y-49195051D01*
X63981588Y-49291557D01*
X64183757Y-49357246D01*
X64393713Y-49390500D01*
X64393714Y-49390500D01*
X64606286Y-49390500D01*
X64606287Y-49390500D01*
X64816243Y-49357246D01*
X65018412Y-49291557D01*
X65207816Y-49195051D01*
X65265996Y-49152781D01*
X65379786Y-49070109D01*
X65379788Y-49070106D01*
X65379792Y-49070104D01*
X65530104Y-48919792D01*
X65530106Y-48919788D01*
X65530109Y-48919786D01*
X65655048Y-48747820D01*
X65655047Y-48747820D01*
X65655051Y-48747816D01*
X65751557Y-48558412D01*
X65817246Y-48356243D01*
X65850500Y-48146287D01*
X65850500Y-47933713D01*
X65817246Y-47723757D01*
X65751557Y-47521588D01*
X65655051Y-47332184D01*
X65655049Y-47332181D01*
X65655048Y-47332179D01*
X65530109Y-47160213D01*
X65379786Y-47009890D01*
X65207820Y-46884951D01*
X65207115Y-46884591D01*
X65199054Y-46880485D01*
X65148259Y-46832512D01*
X65131463Y-46764692D01*
X65153999Y-46698556D01*
X65199054Y-46659515D01*
X65207816Y-46655051D01*
X65229789Y-46639086D01*
X65379786Y-46530109D01*
X65379788Y-46530106D01*
X65379792Y-46530104D01*
X65530104Y-46379792D01*
X65530106Y-46379788D01*
X65530109Y-46379786D01*
X65655048Y-46207820D01*
X65655047Y-46207820D01*
X65655051Y-46207816D01*
X65751557Y-46018412D01*
X65817246Y-45816243D01*
X65850500Y-45606287D01*
X65850500Y-45393713D01*
X65817246Y-45183757D01*
X65751557Y-44981588D01*
X65655051Y-44792184D01*
X65655049Y-44792181D01*
X65655048Y-44792179D01*
X65530109Y-44620213D01*
X65416181Y-44506285D01*
X65382696Y-44444962D01*
X65387680Y-44375270D01*
X65429552Y-44319337D01*
X65460529Y-44302422D01*
X65592086Y-44253354D01*
X65592093Y-44253350D01*
X65707187Y-44167190D01*
X65707190Y-44167187D01*
X65793350Y-44052093D01*
X65793354Y-44052086D01*
X65843596Y-43917379D01*
X65843598Y-43917372D01*
X65849999Y-43857844D01*
X65850000Y-43857827D01*
X65850000Y-43210000D01*
X64933012Y-43210000D01*
X64965925Y-43152993D01*
X65000000Y-43025826D01*
X65000000Y-42894174D01*
X64965925Y-42767007D01*
X64933012Y-42710000D01*
X65850000Y-42710000D01*
X65850000Y-42062172D01*
X65849999Y-42062155D01*
X65843598Y-42002627D01*
X65843596Y-42002620D01*
X65793354Y-41867913D01*
X65793350Y-41867906D01*
X65707190Y-41752812D01*
X65707187Y-41752809D01*
X65592093Y-41666649D01*
X65592086Y-41666645D01*
X65457379Y-41616403D01*
X65457372Y-41616401D01*
X65397844Y-41610000D01*
X64750000Y-41610000D01*
X64750000Y-42526988D01*
X64692993Y-42494075D01*
X64565826Y-42460000D01*
X64434174Y-42460000D01*
X64307007Y-42494075D01*
X64250000Y-42526988D01*
X64250000Y-41610000D01*
X63602155Y-41610000D01*
X63542627Y-41616401D01*
X63542620Y-41616403D01*
X63407913Y-41666645D01*
X63407906Y-41666649D01*
X63292812Y-41752809D01*
X63292809Y-41752812D01*
X63206649Y-41867906D01*
X63206645Y-41867913D01*
X63156403Y-42002620D01*
X63156401Y-42002627D01*
X63150000Y-42062155D01*
X63150000Y-42710000D01*
X64066988Y-42710000D01*
X64034075Y-42767007D01*
X64000000Y-42894174D01*
X64000000Y-43025826D01*
X64034075Y-43152993D01*
X64066988Y-43210000D01*
X63150000Y-43210000D01*
X63150000Y-43857844D01*
X63156401Y-43917372D01*
X63156403Y-43917379D01*
X63206645Y-44052086D01*
X63206649Y-44052093D01*
X63292809Y-44167187D01*
X63292812Y-44167190D01*
X63407906Y-44253350D01*
X63407913Y-44253354D01*
X63539470Y-44302422D01*
X63595404Y-44344293D01*
X63619821Y-44409758D01*
X63604969Y-44478031D01*
X63583819Y-44506285D01*
X63469889Y-44620215D01*
X63344951Y-44792179D01*
X63248444Y-44981585D01*
X63182753Y-45183760D01*
X63149500Y-45393713D01*
X30850500Y-45393713D01*
X30817246Y-45183757D01*
X30751557Y-44981588D01*
X30655051Y-44792184D01*
X30655049Y-44792181D01*
X30655048Y-44792179D01*
X30530109Y-44620213D01*
X30416181Y-44506285D01*
X30382696Y-44444962D01*
X30387680Y-44375270D01*
X30429552Y-44319337D01*
X30460529Y-44302422D01*
X30592086Y-44253354D01*
X30592093Y-44253350D01*
X30707187Y-44167190D01*
X30707190Y-44167187D01*
X30793350Y-44052093D01*
X30793354Y-44052086D01*
X30843596Y-43917380D01*
X30845718Y-43897648D01*
X38889500Y-43897648D01*
X38889500Y-44102351D01*
X38921522Y-44304534D01*
X38984781Y-44499223D01*
X39077715Y-44681613D01*
X39198028Y-44847213D01*
X39342786Y-44991971D01*
X39497749Y-45104556D01*
X39508390Y-45112287D01*
X39624607Y-45171503D01*
X39690776Y-45205218D01*
X39690778Y-45205218D01*
X39690781Y-45205220D01*
X39795137Y-45239127D01*
X39885465Y-45268477D01*
X39986557Y-45284488D01*
X40087648Y-45300500D01*
X40087649Y-45300500D01*
X40292351Y-45300500D01*
X40292352Y-45300500D01*
X40494534Y-45268477D01*
X40689219Y-45205220D01*
X40871610Y-45112287D01*
X40964590Y-45044732D01*
X41037213Y-44991971D01*
X41037215Y-44991968D01*
X41037219Y-44991966D01*
X41181966Y-44847219D01*
X41181968Y-44847215D01*
X41181971Y-44847213D01*
X41234732Y-44774590D01*
X41302287Y-44681610D01*
X41395220Y-44499219D01*
X41458477Y-44304534D01*
X41490500Y-44102352D01*
X41490500Y-43897648D01*
X46509500Y-43897648D01*
X46509500Y-44102351D01*
X46541522Y-44304534D01*
X46604781Y-44499223D01*
X46697715Y-44681613D01*
X46818028Y-44847213D01*
X46962786Y-44991971D01*
X47117749Y-45104556D01*
X47128390Y-45112287D01*
X47244607Y-45171503D01*
X47310776Y-45205218D01*
X47310778Y-45205218D01*
X47310781Y-45205220D01*
X47415137Y-45239127D01*
X47505465Y-45268477D01*
X47606557Y-45284488D01*
X47707648Y-45300500D01*
X47707649Y-45300500D01*
X47912351Y-45300500D01*
X47912352Y-45300500D01*
X48114534Y-45268477D01*
X48309219Y-45205220D01*
X48491610Y-45112287D01*
X48584590Y-45044732D01*
X48657213Y-44991971D01*
X48657215Y-44991968D01*
X48657219Y-44991966D01*
X48801966Y-44847219D01*
X48801968Y-44847215D01*
X48801971Y-44847213D01*
X48854732Y-44774590D01*
X48922287Y-44681610D01*
X49015220Y-44499219D01*
X49078477Y-44304534D01*
X49110500Y-44102352D01*
X49110500Y-43897648D01*
X49078477Y-43695466D01*
X49015220Y-43500781D01*
X49015218Y-43500778D01*
X49015218Y-43500776D01*
X48977079Y-43425925D01*
X48922287Y-43318390D01*
X48914556Y-43307749D01*
X48801971Y-43152786D01*
X48657213Y-43008028D01*
X48491613Y-42887715D01*
X48491612Y-42887714D01*
X48491610Y-42887713D01*
X48434653Y-42858691D01*
X48309223Y-42794781D01*
X48114534Y-42731522D01*
X47939995Y-42703878D01*
X47912352Y-42699500D01*
X47707648Y-42699500D01*
X47683329Y-42703351D01*
X47505465Y-42731522D01*
X47310776Y-42794781D01*
X47128386Y-42887715D01*
X46962786Y-43008028D01*
X46818028Y-43152786D01*
X46697715Y-43318386D01*
X46604781Y-43500776D01*
X46541522Y-43695465D01*
X46509500Y-43897648D01*
X41490500Y-43897648D01*
X41458477Y-43695466D01*
X41395220Y-43500781D01*
X41395218Y-43500778D01*
X41395218Y-43500776D01*
X41357079Y-43425925D01*
X41302287Y-43318390D01*
X41294556Y-43307749D01*
X41181971Y-43152786D01*
X41037213Y-43008028D01*
X40871613Y-42887715D01*
X40871612Y-42887714D01*
X40871610Y-42887713D01*
X40814653Y-42858691D01*
X40689223Y-42794781D01*
X40494534Y-42731522D01*
X40319995Y-42703878D01*
X40292352Y-42699500D01*
X40087648Y-42699500D01*
X40063329Y-42703351D01*
X39885465Y-42731522D01*
X39690776Y-42794781D01*
X39508386Y-42887715D01*
X39342786Y-43008028D01*
X39198028Y-43152786D01*
X39077715Y-43318386D01*
X38984781Y-43500776D01*
X38921522Y-43695465D01*
X38889500Y-43897648D01*
X30845718Y-43897648D01*
X30847667Y-43879521D01*
X30847668Y-43879518D01*
X30847668Y-43879517D01*
X30849999Y-43857836D01*
X30850000Y-43857827D01*
X30850000Y-43210000D01*
X29933012Y-43210000D01*
X29965925Y-43152993D01*
X30000000Y-43025826D01*
X30000000Y-42894174D01*
X29965925Y-42767007D01*
X29933012Y-42710000D01*
X30850000Y-42710000D01*
X30850000Y-42062172D01*
X30849999Y-42062155D01*
X30843598Y-42002627D01*
X30843596Y-42002620D01*
X30793354Y-41867913D01*
X30793350Y-41867906D01*
X30707190Y-41752812D01*
X30707187Y-41752809D01*
X30592093Y-41666649D01*
X30592086Y-41666645D01*
X30457379Y-41616403D01*
X30457372Y-41616401D01*
X30397844Y-41610000D01*
X29750000Y-41610000D01*
X29750000Y-42526988D01*
X29692993Y-42494075D01*
X29565826Y-42460000D01*
X29434174Y-42460000D01*
X29307007Y-42494075D01*
X29250000Y-42526988D01*
X29250000Y-41610000D01*
X28602155Y-41610000D01*
X28542627Y-41616401D01*
X28542620Y-41616403D01*
X28407913Y-41666645D01*
X28407906Y-41666649D01*
X28292812Y-41752809D01*
X28292809Y-41752812D01*
X28206649Y-41867906D01*
X28206645Y-41867913D01*
X28156403Y-42002620D01*
X28156401Y-42002627D01*
X28150000Y-42062155D01*
X28150000Y-42710000D01*
X29066988Y-42710000D01*
X29034075Y-42767007D01*
X29000000Y-42894174D01*
X29000000Y-43025826D01*
X29034075Y-43152993D01*
X29066988Y-43210000D01*
X28150000Y-43210000D01*
X28150000Y-43857844D01*
X28156401Y-43917372D01*
X28156403Y-43917379D01*
X28206645Y-44052086D01*
X28206649Y-44052093D01*
X28292809Y-44167187D01*
X28292812Y-44167190D01*
X28407906Y-44253350D01*
X28407913Y-44253354D01*
X28539470Y-44302422D01*
X28595404Y-44344293D01*
X28619821Y-44409758D01*
X28604969Y-44478031D01*
X28583819Y-44506285D01*
X28469889Y-44620215D01*
X28344951Y-44792179D01*
X28248444Y-44981585D01*
X28182753Y-45183760D01*
X28149500Y-45393713D01*
X25500500Y-45393713D01*
X25500500Y-41624500D01*
X25520185Y-41557461D01*
X25572989Y-41511706D01*
X25624500Y-41500500D01*
X28065890Y-41500500D01*
X28065892Y-41500500D01*
X28193186Y-41466392D01*
X28307314Y-41400500D01*
X28400500Y-41307314D01*
X28466392Y-41193186D01*
X28500500Y-41065892D01*
X28500500Y-28624500D01*
X28520185Y-28557461D01*
X28572989Y-28511706D01*
X28624500Y-28500500D01*
X40934108Y-28500500D01*
X58934108Y-28500500D01*
X71375500Y-28500500D01*
X71442539Y-28520185D01*
G37*
%TD.AperFunction*%
%TD*%
M02*
