%TF.GenerationSoftware,KiCad,Pcbnew,10.0.3*%
%TF.CreationDate,2026-06-08T13:00:36+09:00*%
%TF.ProjectId,rs_light_sensor,72735f6c-6967-4687-945f-73656e736f72,rev?*%
%TF.SameCoordinates,Original*%
%TF.FileFunction,Legend,Top*%
%TF.FilePolarity,Positive*%
%FSLAX46Y46*%
G04 Gerber Fmt 4.6, Leading zero omitted, Abs format (unit mm)*
G04 Created by KiCad (PCBNEW 10.0.3) date 2026-06-08 13:00:36*
%MOMM*%
%LPD*%
G01*
G04 APERTURE LIST*
G04 Aperture macros list*
%AMRoundRect*
0 Rectangle with rounded corners*
0 $1 Rounding radius*
0 $2 $3 $4 $5 $6 $7 $8 $9 X,Y pos of 4 corners*
0 Add a 4 corners polygon primitive as box body*
4,1,4,$2,$3,$4,$5,$6,$7,$8,$9,$2,$3,0*
0 Add four circle primitives for the rounded corners*
1,1,$1+$1,$2,$3*
1,1,$1+$1,$4,$5*
1,1,$1+$1,$6,$7*
1,1,$1+$1,$8,$9*
0 Add four rect primitives between the rounded corners*
20,1,$1+$1,$2,$3,$4,$5,0*
20,1,$1+$1,$4,$5,$6,$7,0*
20,1,$1+$1,$6,$7,$8,$9,0*
20,1,$1+$1,$8,$9,$2,$3,0*%
G04 Aperture macros list end*
%ADD10C,0.150000*%
%ADD11C,0.120000*%
%ADD12C,0.000000*%
%ADD13C,1.600000*%
%ADD14RoundRect,0.250000X-0.550000X-0.550000X0.550000X-0.550000X0.550000X0.550000X-0.550000X0.550000X0*%
%ADD15R,1.050000X1.500000*%
%ADD16O,1.050000X1.500000*%
%ADD17R,1.700000X1.700000*%
%ADD18C,1.700000*%
G04 APERTURE END LIST*
D10*
X49833333Y-46454819D02*
X49500000Y-45978628D01*
X49261905Y-46454819D02*
X49261905Y-45454819D01*
X49261905Y-45454819D02*
X49642857Y-45454819D01*
X49642857Y-45454819D02*
X49738095Y-45502438D01*
X49738095Y-45502438D02*
X49785714Y-45550057D01*
X49785714Y-45550057D02*
X49833333Y-45645295D01*
X49833333Y-45645295D02*
X49833333Y-45788152D01*
X49833333Y-45788152D02*
X49785714Y-45883390D01*
X49785714Y-45883390D02*
X49738095Y-45931009D01*
X49738095Y-45931009D02*
X49642857Y-45978628D01*
X49642857Y-45978628D02*
X49261905Y-45978628D01*
X50214286Y-45550057D02*
X50261905Y-45502438D01*
X50261905Y-45502438D02*
X50357143Y-45454819D01*
X50357143Y-45454819D02*
X50595238Y-45454819D01*
X50595238Y-45454819D02*
X50690476Y-45502438D01*
X50690476Y-45502438D02*
X50738095Y-45550057D01*
X50738095Y-45550057D02*
X50785714Y-45645295D01*
X50785714Y-45645295D02*
X50785714Y-45740533D01*
X50785714Y-45740533D02*
X50738095Y-45883390D01*
X50738095Y-45883390D02*
X50166667Y-46454819D01*
X50166667Y-46454819D02*
X50785714Y-46454819D01*
X49333333Y-54459580D02*
X49285714Y-54507200D01*
X49285714Y-54507200D02*
X49142857Y-54554819D01*
X49142857Y-54554819D02*
X49047619Y-54554819D01*
X49047619Y-54554819D02*
X48904762Y-54507200D01*
X48904762Y-54507200D02*
X48809524Y-54411961D01*
X48809524Y-54411961D02*
X48761905Y-54316723D01*
X48761905Y-54316723D02*
X48714286Y-54126247D01*
X48714286Y-54126247D02*
X48714286Y-53983390D01*
X48714286Y-53983390D02*
X48761905Y-53792914D01*
X48761905Y-53792914D02*
X48809524Y-53697676D01*
X48809524Y-53697676D02*
X48904762Y-53602438D01*
X48904762Y-53602438D02*
X49047619Y-53554819D01*
X49047619Y-53554819D02*
X49142857Y-53554819D01*
X49142857Y-53554819D02*
X49285714Y-53602438D01*
X49285714Y-53602438D02*
X49333333Y-53650057D01*
X49761905Y-54554819D02*
X49761905Y-53554819D01*
X49761905Y-53554819D02*
X50000000Y-53554819D01*
X50000000Y-53554819D02*
X50142857Y-53602438D01*
X50142857Y-53602438D02*
X50238095Y-53697676D01*
X50238095Y-53697676D02*
X50285714Y-53792914D01*
X50285714Y-53792914D02*
X50333333Y-53983390D01*
X50333333Y-53983390D02*
X50333333Y-54126247D01*
X50333333Y-54126247D02*
X50285714Y-54316723D01*
X50285714Y-54316723D02*
X50238095Y-54411961D01*
X50238095Y-54411961D02*
X50142857Y-54507200D01*
X50142857Y-54507200D02*
X50000000Y-54554819D01*
X50000000Y-54554819D02*
X49761905Y-54554819D01*
X50714286Y-54507200D02*
X50857143Y-54554819D01*
X50857143Y-54554819D02*
X51095238Y-54554819D01*
X51095238Y-54554819D02*
X51190476Y-54507200D01*
X51190476Y-54507200D02*
X51238095Y-54459580D01*
X51238095Y-54459580D02*
X51285714Y-54364342D01*
X51285714Y-54364342D02*
X51285714Y-54269104D01*
X51285714Y-54269104D02*
X51238095Y-54173866D01*
X51238095Y-54173866D02*
X51190476Y-54126247D01*
X51190476Y-54126247D02*
X51095238Y-54078628D01*
X51095238Y-54078628D02*
X50904762Y-54031009D01*
X50904762Y-54031009D02*
X50809524Y-53983390D01*
X50809524Y-53983390D02*
X50761905Y-53935771D01*
X50761905Y-53935771D02*
X50714286Y-53840533D01*
X50714286Y-53840533D02*
X50714286Y-53745295D01*
X50714286Y-53745295D02*
X50761905Y-53650057D01*
X50761905Y-53650057D02*
X50809524Y-53602438D01*
X50809524Y-53602438D02*
X50904762Y-53554819D01*
X50904762Y-53554819D02*
X51142857Y-53554819D01*
X51142857Y-53554819D02*
X51285714Y-53602438D01*
X43261905Y-63454819D02*
X43261905Y-62454819D01*
X43261905Y-62454819D02*
X43500000Y-62454819D01*
X43500000Y-62454819D02*
X43642857Y-62502438D01*
X43642857Y-62502438D02*
X43738095Y-62597676D01*
X43738095Y-62597676D02*
X43785714Y-62692914D01*
X43785714Y-62692914D02*
X43833333Y-62883390D01*
X43833333Y-62883390D02*
X43833333Y-63026247D01*
X43833333Y-63026247D02*
X43785714Y-63216723D01*
X43785714Y-63216723D02*
X43738095Y-63311961D01*
X43738095Y-63311961D02*
X43642857Y-63407200D01*
X43642857Y-63407200D02*
X43500000Y-63454819D01*
X43500000Y-63454819D02*
X43261905Y-63454819D01*
X44214286Y-62550057D02*
X44261905Y-62502438D01*
X44261905Y-62502438D02*
X44357143Y-62454819D01*
X44357143Y-62454819D02*
X44595238Y-62454819D01*
X44595238Y-62454819D02*
X44690476Y-62502438D01*
X44690476Y-62502438D02*
X44738095Y-62550057D01*
X44738095Y-62550057D02*
X44785714Y-62645295D01*
X44785714Y-62645295D02*
X44785714Y-62740533D01*
X44785714Y-62740533D02*
X44738095Y-62883390D01*
X44738095Y-62883390D02*
X44166667Y-63454819D01*
X44166667Y-63454819D02*
X44785714Y-63454819D01*
X39928095Y-58654819D02*
X39928095Y-57654819D01*
X40499523Y-58654819D02*
X40070952Y-58083390D01*
X40499523Y-57654819D02*
X39928095Y-58226247D01*
X43833333Y-42084819D02*
X43500000Y-41608628D01*
X43261905Y-42084819D02*
X43261905Y-41084819D01*
X43261905Y-41084819D02*
X43642857Y-41084819D01*
X43642857Y-41084819D02*
X43738095Y-41132438D01*
X43738095Y-41132438D02*
X43785714Y-41180057D01*
X43785714Y-41180057D02*
X43833333Y-41275295D01*
X43833333Y-41275295D02*
X43833333Y-41418152D01*
X43833333Y-41418152D02*
X43785714Y-41513390D01*
X43785714Y-41513390D02*
X43738095Y-41561009D01*
X43738095Y-41561009D02*
X43642857Y-41608628D01*
X43642857Y-41608628D02*
X43261905Y-41608628D01*
X44690476Y-41418152D02*
X44690476Y-42084819D01*
X44452381Y-41037200D02*
X44214286Y-41751485D01*
X44214286Y-41751485D02*
X44833333Y-41751485D01*
X53404761Y-64250057D02*
X53309523Y-64202438D01*
X53309523Y-64202438D02*
X53214285Y-64107200D01*
X53214285Y-64107200D02*
X53071428Y-63964342D01*
X53071428Y-63964342D02*
X52976190Y-63916723D01*
X52976190Y-63916723D02*
X52880952Y-63916723D01*
X52928571Y-64154819D02*
X52833333Y-64107200D01*
X52833333Y-64107200D02*
X52738095Y-64011961D01*
X52738095Y-64011961D02*
X52690476Y-63821485D01*
X52690476Y-63821485D02*
X52690476Y-63488152D01*
X52690476Y-63488152D02*
X52738095Y-63297676D01*
X52738095Y-63297676D02*
X52833333Y-63202438D01*
X52833333Y-63202438D02*
X52928571Y-63154819D01*
X52928571Y-63154819D02*
X53119047Y-63154819D01*
X53119047Y-63154819D02*
X53214285Y-63202438D01*
X53214285Y-63202438D02*
X53309523Y-63297676D01*
X53309523Y-63297676D02*
X53357142Y-63488152D01*
X53357142Y-63488152D02*
X53357142Y-63821485D01*
X53357142Y-63821485D02*
X53309523Y-64011961D01*
X53309523Y-64011961D02*
X53214285Y-64107200D01*
X53214285Y-64107200D02*
X53119047Y-64154819D01*
X53119047Y-64154819D02*
X52928571Y-64154819D01*
X54309523Y-64154819D02*
X53738095Y-64154819D01*
X54023809Y-64154819D02*
X54023809Y-63154819D01*
X54023809Y-63154819D02*
X53928571Y-63297676D01*
X53928571Y-63297676D02*
X53833333Y-63392914D01*
X53833333Y-63392914D02*
X53738095Y-63440533D01*
X43333333Y-53084819D02*
X43000000Y-52608628D01*
X42761905Y-53084819D02*
X42761905Y-52084819D01*
X42761905Y-52084819D02*
X43142857Y-52084819D01*
X43142857Y-52084819D02*
X43238095Y-52132438D01*
X43238095Y-52132438D02*
X43285714Y-52180057D01*
X43285714Y-52180057D02*
X43333333Y-52275295D01*
X43333333Y-52275295D02*
X43333333Y-52418152D01*
X43333333Y-52418152D02*
X43285714Y-52513390D01*
X43285714Y-52513390D02*
X43238095Y-52561009D01*
X43238095Y-52561009D02*
X43142857Y-52608628D01*
X43142857Y-52608628D02*
X42761905Y-52608628D01*
X43666667Y-52084819D02*
X44285714Y-52084819D01*
X44285714Y-52084819D02*
X43952381Y-52465771D01*
X43952381Y-52465771D02*
X44095238Y-52465771D01*
X44095238Y-52465771D02*
X44190476Y-52513390D01*
X44190476Y-52513390D02*
X44238095Y-52561009D01*
X44238095Y-52561009D02*
X44285714Y-52656247D01*
X44285714Y-52656247D02*
X44285714Y-52894342D01*
X44285714Y-52894342D02*
X44238095Y-52989580D01*
X44238095Y-52989580D02*
X44190476Y-53037200D01*
X44190476Y-53037200D02*
X44095238Y-53084819D01*
X44095238Y-53084819D02*
X43809524Y-53084819D01*
X43809524Y-53084819D02*
X43714286Y-53037200D01*
X43714286Y-53037200D02*
X43666667Y-52989580D01*
X42904761Y-57824819D02*
X42333333Y-57824819D01*
X42619047Y-57824819D02*
X42619047Y-56824819D01*
X42619047Y-56824819D02*
X42523809Y-56967676D01*
X42523809Y-56967676D02*
X42428571Y-57062914D01*
X42428571Y-57062914D02*
X42333333Y-57110533D01*
X43523809Y-56824819D02*
X43619047Y-56824819D01*
X43619047Y-56824819D02*
X43714285Y-56872438D01*
X43714285Y-56872438D02*
X43761904Y-56920057D01*
X43761904Y-56920057D02*
X43809523Y-57015295D01*
X43809523Y-57015295D02*
X43857142Y-57205771D01*
X43857142Y-57205771D02*
X43857142Y-57443866D01*
X43857142Y-57443866D02*
X43809523Y-57634342D01*
X43809523Y-57634342D02*
X43761904Y-57729580D01*
X43761904Y-57729580D02*
X43714285Y-57777200D01*
X43714285Y-57777200D02*
X43619047Y-57824819D01*
X43619047Y-57824819D02*
X43523809Y-57824819D01*
X43523809Y-57824819D02*
X43428571Y-57777200D01*
X43428571Y-57777200D02*
X43380952Y-57729580D01*
X43380952Y-57729580D02*
X43333333Y-57634342D01*
X43333333Y-57634342D02*
X43285714Y-57443866D01*
X43285714Y-57443866D02*
X43285714Y-57205771D01*
X43285714Y-57205771D02*
X43333333Y-57015295D01*
X43333333Y-57015295D02*
X43380952Y-56920057D01*
X43380952Y-56920057D02*
X43428571Y-56872438D01*
X43428571Y-56872438D02*
X43523809Y-56824819D01*
X44285714Y-57824819D02*
X44285714Y-56824819D01*
X44380952Y-57443866D02*
X44666666Y-57824819D01*
X44666666Y-57158152D02*
X44285714Y-57539104D01*
%TO.C,R2*%
D11*
X53301515Y-50000000D02*
G75*
G02*
X46698485Y-50000000I-3301515J0D01*
G01*
X46698485Y-50000000D02*
G75*
G02*
X53301515Y-50000000I3301515J0D01*
G01*
%TO.C,D2*%
X41230000Y-60000000D02*
X41880000Y-60000000D01*
X42480000Y-58880000D02*
X42480000Y-61120000D01*
X42600000Y-58880000D02*
X42600000Y-61120000D01*
X42720000Y-58880000D02*
X42720000Y-61120000D01*
X46770000Y-60000000D02*
X46120000Y-60000000D01*
X41880000Y-58880000D02*
X46120000Y-58880000D01*
X46120000Y-61120000D01*
X41880000Y-61120000D01*
X41880000Y-58880000D01*
%TO.C,R4*%
X40730000Y-42630000D02*
X47270000Y-42630000D01*
X40730000Y-42960000D02*
X40730000Y-42630000D01*
X40730000Y-45040000D02*
X40730000Y-45370000D01*
X40730000Y-45370000D02*
X47270000Y-45370000D01*
X47270000Y-42630000D02*
X47270000Y-42960000D01*
X47270000Y-45370000D02*
X47270000Y-45040000D01*
D12*
%TO.C,G\u002A\u002A\u002A*%
G36*
X50536932Y-36301798D02*
G01*
X50547589Y-36307507D01*
X50554085Y-36319353D01*
X50557297Y-36339246D01*
X50558100Y-36369093D01*
X50558002Y-36380351D01*
X50557604Y-36395257D01*
X50556682Y-36421546D01*
X50555276Y-36458282D01*
X50553428Y-36504528D01*
X50551179Y-36559346D01*
X50548571Y-36621800D01*
X50545645Y-36690952D01*
X50542443Y-36765866D01*
X50539007Y-36845604D01*
X50535378Y-36929230D01*
X50531598Y-37015807D01*
X50527707Y-37104397D01*
X50523748Y-37194063D01*
X50519763Y-37283869D01*
X50515792Y-37372877D01*
X50511877Y-37460151D01*
X50508060Y-37544753D01*
X50504382Y-37625747D01*
X50500885Y-37702195D01*
X50497610Y-37773161D01*
X50494599Y-37837707D01*
X50491894Y-37894896D01*
X50489535Y-37943792D01*
X50487565Y-37983458D01*
X50486025Y-38012955D01*
X50484956Y-38031349D01*
X50484622Y-38035960D01*
X50481767Y-38061073D01*
X50477584Y-38077544D01*
X50470757Y-38089233D01*
X50464080Y-38096282D01*
X50456076Y-38102494D01*
X50438653Y-38115088D01*
X50412736Y-38133420D01*
X50379250Y-38156850D01*
X50339120Y-38184734D01*
X50293271Y-38216432D01*
X50242627Y-38251299D01*
X50188114Y-38288695D01*
X50130656Y-38327977D01*
X50116419Y-38337690D01*
X50047079Y-38384941D01*
X49987286Y-38425552D01*
X49936278Y-38459957D01*
X49893293Y-38488590D01*
X49857568Y-38511886D01*
X49828341Y-38530279D01*
X49804851Y-38544203D01*
X49786334Y-38554093D01*
X49772028Y-38560382D01*
X49761172Y-38563505D01*
X49753003Y-38563897D01*
X49746759Y-38561991D01*
X49741678Y-38558221D01*
X49737471Y-38553598D01*
X49735826Y-38550701D01*
X49734394Y-38545846D01*
X49733182Y-38538463D01*
X49732200Y-38527984D01*
X49731456Y-38513843D01*
X49730960Y-38495471D01*
X49730719Y-38472299D01*
X49730743Y-38443761D01*
X49731039Y-38409288D01*
X49731418Y-38382433D01*
X49813401Y-38382433D01*
X49813891Y-38410360D01*
X49815014Y-38428531D01*
X49816872Y-38438313D01*
X49819565Y-38441076D01*
X49820637Y-38440692D01*
X49827180Y-38436374D01*
X49843068Y-38425699D01*
X49867307Y-38409340D01*
X49898903Y-38387969D01*
X49936860Y-38362261D01*
X49980186Y-38332887D01*
X50027885Y-38300522D01*
X50078964Y-38265839D01*
X50098830Y-38252343D01*
X50150640Y-38217103D01*
X50199192Y-38184006D01*
X50243527Y-38153710D01*
X50282686Y-38126874D01*
X50315711Y-38104156D01*
X50341644Y-38086215D01*
X50359525Y-38073710D01*
X50368398Y-38067298D01*
X50369209Y-38066587D01*
X50364122Y-38062297D01*
X50350130Y-38052869D01*
X50329134Y-38039453D01*
X50303037Y-38023196D01*
X50273741Y-38005248D01*
X50243149Y-37986756D01*
X50213164Y-37968871D01*
X50185687Y-37952739D01*
X50162620Y-37939511D01*
X50145867Y-37930333D01*
X50137330Y-37926356D01*
X50136822Y-37926280D01*
X50129723Y-37929822D01*
X50113678Y-37939566D01*
X50090046Y-37954632D01*
X50060184Y-37974140D01*
X50025451Y-37997208D01*
X49987203Y-38022956D01*
X49975362Y-38030993D01*
X49822200Y-38135146D01*
X49818131Y-38188284D01*
X49816649Y-38213775D01*
X49815320Y-38247978D01*
X49814260Y-38287099D01*
X49813583Y-38327348D01*
X49813443Y-38343378D01*
X49813401Y-38382433D01*
X49731418Y-38382433D01*
X49731618Y-38368312D01*
X49732488Y-38320265D01*
X49733657Y-38264580D01*
X49735135Y-38200688D01*
X49736929Y-38128021D01*
X49739048Y-38046012D01*
X49741503Y-37954093D01*
X49744191Y-37855691D01*
X50181663Y-37855691D01*
X50286376Y-37921359D01*
X50318899Y-37941566D01*
X50348041Y-37959315D01*
X50372068Y-37973579D01*
X50389245Y-37983330D01*
X50397841Y-37987542D01*
X50398253Y-37987631D01*
X50402664Y-37981973D01*
X50406508Y-37965044D01*
X50409364Y-37939785D01*
X50410348Y-37924732D01*
X50411758Y-37898797D01*
X50413556Y-37862907D01*
X50415703Y-37817988D01*
X50418160Y-37764967D01*
X50420889Y-37704771D01*
X50423851Y-37638326D01*
X50427006Y-37566559D01*
X50430318Y-37490396D01*
X50433746Y-37410764D01*
X50437252Y-37328590D01*
X50440797Y-37244800D01*
X50444343Y-37160321D01*
X50447851Y-37076079D01*
X50451282Y-36993002D01*
X50454598Y-36912015D01*
X50457759Y-36834046D01*
X50460728Y-36760020D01*
X50463465Y-36690866D01*
X50465931Y-36627508D01*
X50468089Y-36570874D01*
X50469899Y-36521891D01*
X50471322Y-36481484D01*
X50472320Y-36450581D01*
X50472855Y-36430109D01*
X50472887Y-36420993D01*
X50472821Y-36420602D01*
X50467101Y-36423046D01*
X50452722Y-36431196D01*
X50431485Y-36443910D01*
X50405193Y-36460048D01*
X50375648Y-36478469D01*
X50344652Y-36498031D01*
X50314008Y-36517594D01*
X50285517Y-36536016D01*
X50260981Y-36552157D01*
X50242204Y-36564875D01*
X50230987Y-36573030D01*
X50228679Y-36575178D01*
X50228016Y-36581976D01*
X50226949Y-36600232D01*
X50225516Y-36628910D01*
X50223759Y-36666972D01*
X50221717Y-36713381D01*
X50219429Y-36767101D01*
X50216937Y-36827095D01*
X50214278Y-36892326D01*
X50211494Y-36961757D01*
X50208625Y-37034350D01*
X50205710Y-37109070D01*
X50202789Y-37184879D01*
X50199902Y-37260740D01*
X50197089Y-37335617D01*
X50194389Y-37408472D01*
X50191844Y-37478269D01*
X50189492Y-37543970D01*
X50187373Y-37604539D01*
X50185528Y-37658939D01*
X50183996Y-37706133D01*
X50182817Y-37745085D01*
X50182032Y-37774756D01*
X50181679Y-37794110D01*
X50181663Y-37797296D01*
X50181663Y-37855691D01*
X49744191Y-37855691D01*
X49744300Y-37851695D01*
X49745810Y-37797296D01*
X49747449Y-37738250D01*
X49750958Y-37613192D01*
X49753065Y-37538548D01*
X49774705Y-36773159D01*
X49792201Y-36756283D01*
X49800420Y-36750060D01*
X49818270Y-36737764D01*
X49844816Y-36720003D01*
X49879123Y-36697388D01*
X49920254Y-36670530D01*
X49967274Y-36640037D01*
X50019249Y-36606521D01*
X50075241Y-36570591D01*
X50134317Y-36532858D01*
X50154724Y-36519863D01*
X50225947Y-36474609D01*
X50287405Y-36435720D01*
X50339824Y-36402761D01*
X50383930Y-36375296D01*
X50420451Y-36352890D01*
X50450113Y-36335108D01*
X50473642Y-36321515D01*
X50491765Y-36311675D01*
X50505208Y-36305153D01*
X50514699Y-36301514D01*
X50520964Y-36300322D01*
X50521236Y-36300319D01*
X50536932Y-36301798D01*
G37*
G36*
X48440146Y-29814558D02*
G01*
X48462173Y-29823258D01*
X48475988Y-29830563D01*
X48508921Y-29849207D01*
X48550781Y-29871706D01*
X48599081Y-29896807D01*
X48651336Y-29923258D01*
X48705061Y-29949804D01*
X48757768Y-29975193D01*
X48806974Y-29998171D01*
X48821953Y-30004982D01*
X48858463Y-30021464D01*
X48892708Y-30036948D01*
X48922423Y-30050408D01*
X48945344Y-30060819D01*
X48959206Y-30067154D01*
X48959487Y-30067283D01*
X48968675Y-30071439D01*
X48988459Y-30080323D01*
X49018017Y-30093569D01*
X49056528Y-30110810D01*
X49103171Y-30131677D01*
X49157124Y-30155803D01*
X49217566Y-30182822D01*
X49283676Y-30212366D01*
X49354631Y-30244067D01*
X49429611Y-30277559D01*
X49507794Y-30312474D01*
X49540638Y-30327140D01*
X49619505Y-30362361D01*
X49695231Y-30396195D01*
X49767023Y-30428288D01*
X49834089Y-30458283D01*
X49895636Y-30485826D01*
X49950873Y-30510563D01*
X49999006Y-30532138D01*
X50039244Y-30550196D01*
X50070795Y-30564383D01*
X50092865Y-30574343D01*
X50104662Y-30579722D01*
X50106403Y-30580550D01*
X50113371Y-30583772D01*
X50130965Y-30591726D01*
X50158391Y-30604059D01*
X50194853Y-30620413D01*
X50239556Y-30640433D01*
X50291706Y-30663765D01*
X50350508Y-30690052D01*
X50415167Y-30718939D01*
X50484889Y-30750070D01*
X50558878Y-30783090D01*
X50636340Y-30817644D01*
X50669283Y-30832334D01*
X50748590Y-30867699D01*
X50825202Y-30901869D01*
X50898275Y-30934467D01*
X50966968Y-30965117D01*
X51030438Y-30993444D01*
X51087844Y-31019072D01*
X51138342Y-31041624D01*
X51181090Y-31060724D01*
X51215247Y-31075996D01*
X51239969Y-31087065D01*
X51254416Y-31093554D01*
X51256928Y-31094691D01*
X51393859Y-31156347D01*
X51522162Y-31212587D01*
X51641381Y-31263220D01*
X51751058Y-31308056D01*
X51850735Y-31346901D01*
X51916465Y-31371200D01*
X51947573Y-31382975D01*
X51975486Y-31394601D01*
X51997513Y-31404884D01*
X52010963Y-31412628D01*
X52012479Y-31413850D01*
X52018376Y-31419638D01*
X52022322Y-31425884D01*
X52024558Y-31434867D01*
X52025328Y-31448866D01*
X52024875Y-31470159D01*
X52023442Y-31501024D01*
X52022900Y-31511641D01*
X52019529Y-31568557D01*
X52015743Y-31616475D01*
X52011633Y-31654610D01*
X52007291Y-31682178D01*
X52002809Y-31698393D01*
X52000697Y-31701852D01*
X51992935Y-31707097D01*
X51976300Y-31716826D01*
X51953024Y-31729780D01*
X51925339Y-31744699D01*
X51916831Y-31749199D01*
X51887078Y-31764944D01*
X51849451Y-31784969D01*
X51807076Y-31807604D01*
X51763077Y-31831180D01*
X51720578Y-31854028D01*
X51714992Y-31857038D01*
X51668774Y-31881582D01*
X51632272Y-31900101D01*
X51604506Y-31913046D01*
X51584496Y-31920867D01*
X51571262Y-31924014D01*
X51568966Y-31924124D01*
X51550409Y-31920164D01*
X51522096Y-31908449D01*
X51484065Y-31888993D01*
X51478857Y-31886143D01*
X51444815Y-31867897D01*
X51401716Y-31845578D01*
X51351868Y-31820326D01*
X51297579Y-31793282D01*
X51241154Y-31765590D01*
X51184902Y-31738389D01*
X51131129Y-31712823D01*
X51088136Y-31692787D01*
X51053771Y-31676936D01*
X51018105Y-31660449D01*
X50985371Y-31645282D01*
X50959980Y-31633479D01*
X50940891Y-31624612D01*
X50912512Y-31611472D01*
X50876908Y-31595014D01*
X50836147Y-31576193D01*
X50792294Y-31555964D01*
X50747427Y-31535285D01*
X50704804Y-31515611D01*
X50665255Y-31497281D01*
X50630390Y-31481049D01*
X50601820Y-31467665D01*
X50581154Y-31457882D01*
X50570002Y-31452452D01*
X50569258Y-31452064D01*
X50559431Y-31447252D01*
X50539938Y-31438071D01*
X50512501Y-31425318D01*
X50478840Y-31409789D01*
X50440675Y-31392280D01*
X50406718Y-31376775D01*
X50362696Y-31356673D01*
X50318599Y-31336461D01*
X50276910Y-31317284D01*
X50240110Y-31300284D01*
X50210684Y-31286604D01*
X50197292Y-31280320D01*
X50169769Y-31267407D01*
X50137295Y-31252297D01*
X50101634Y-31235797D01*
X50064549Y-31218716D01*
X50027804Y-31201858D01*
X49993164Y-31186033D01*
X49962393Y-31172048D01*
X49937254Y-31160708D01*
X49919512Y-31152823D01*
X49910930Y-31149198D01*
X49910432Y-31149052D01*
X49904250Y-31151757D01*
X49887779Y-31159574D01*
X49861928Y-31172056D01*
X49827606Y-31188754D01*
X49785723Y-31209221D01*
X49737188Y-31233009D01*
X49682910Y-31259671D01*
X49623800Y-31288759D01*
X49560766Y-31319826D01*
X49494718Y-31352423D01*
X49426566Y-31386103D01*
X49357218Y-31420418D01*
X49287584Y-31454921D01*
X49218574Y-31489163D01*
X49151097Y-31522698D01*
X49125153Y-31535608D01*
X49059693Y-31568189D01*
X48985163Y-31605279D01*
X48903690Y-31645819D01*
X48817401Y-31688751D01*
X48728422Y-31733018D01*
X48638880Y-31777561D01*
X48550901Y-31821323D01*
X48466611Y-31863246D01*
X48388653Y-31902015D01*
X47980358Y-32105050D01*
X48051069Y-32140374D01*
X48078810Y-32154300D01*
X48117078Y-32173619D01*
X48165273Y-32198025D01*
X48222794Y-32227212D01*
X48289039Y-32260874D01*
X48363408Y-32298707D01*
X48445300Y-32340403D01*
X48534113Y-32385657D01*
X48629246Y-32434164D01*
X48730099Y-32485617D01*
X48800073Y-32521334D01*
X48892718Y-32568601D01*
X48975314Y-32610654D01*
X49048931Y-32647999D01*
X49114639Y-32681140D01*
X49173507Y-32710584D01*
X49226604Y-32736836D01*
X49275001Y-32760401D01*
X49319766Y-32781786D01*
X49361970Y-32801496D01*
X49402681Y-32820036D01*
X49442970Y-32837913D01*
X49483905Y-32855631D01*
X49526556Y-32873697D01*
X49571993Y-32892616D01*
X49621286Y-32912894D01*
X49673072Y-32934045D01*
X49692736Y-32942059D01*
X49697017Y-33012981D01*
X49698095Y-33042836D01*
X49698172Y-33077175D01*
X49697379Y-33113683D01*
X49695844Y-33150045D01*
X49693699Y-33183946D01*
X49691071Y-33213069D01*
X49688092Y-33235101D01*
X49684889Y-33247725D01*
X49683783Y-33249454D01*
X49677328Y-33253404D01*
X49661027Y-33262690D01*
X49636021Y-33276681D01*
X49603451Y-33294746D01*
X49564457Y-33316253D01*
X49520180Y-33340570D01*
X49471761Y-33367067D01*
X49436301Y-33386417D01*
X49373038Y-33420750D01*
X49319901Y-33449244D01*
X49276162Y-33472262D01*
X49241092Y-33490171D01*
X49213963Y-33503337D01*
X49194047Y-33512123D01*
X49180614Y-33516896D01*
X49173737Y-33518070D01*
X49154778Y-33513556D01*
X49128531Y-33500286D01*
X49106398Y-33486245D01*
X49089398Y-33475069D01*
X49069986Y-33462815D01*
X49047643Y-33449201D01*
X49021851Y-33433945D01*
X48992093Y-33416767D01*
X48957850Y-33397385D01*
X48918605Y-33375517D01*
X48873838Y-33350881D01*
X48823032Y-33323198D01*
X48765670Y-33292185D01*
X48701232Y-33257560D01*
X48629201Y-33219042D01*
X48549059Y-33176351D01*
X48460287Y-33129203D01*
X48362368Y-33077319D01*
X48254783Y-33020416D01*
X48137015Y-32958214D01*
X48043637Y-32908939D01*
X47950498Y-32859796D01*
X47860088Y-32812072D01*
X47773057Y-32766111D01*
X47690054Y-32722256D01*
X47611727Y-32680851D01*
X47538725Y-32642239D01*
X47471698Y-32606764D01*
X47411293Y-32574770D01*
X47358161Y-32546599D01*
X47312950Y-32522596D01*
X47276308Y-32503104D01*
X47248884Y-32488466D01*
X47231329Y-32479026D01*
X47224685Y-32475368D01*
X47203185Y-32463368D01*
X47181873Y-32452294D01*
X47174673Y-32448824D01*
X47164313Y-32443663D01*
X47144271Y-32433348D01*
X47115907Y-32418591D01*
X47080583Y-32400106D01*
X47039658Y-32378604D01*
X46994493Y-32354796D01*
X46946447Y-32329396D01*
X46940240Y-32326109D01*
X46889767Y-32299383D01*
X46840152Y-32273123D01*
X46793102Y-32248232D01*
X46750324Y-32225613D01*
X46713527Y-32206168D01*
X46684417Y-32190801D01*
X46665173Y-32180662D01*
X46633034Y-32163732D01*
X46598441Y-32145460D01*
X46566717Y-32128660D01*
X46552645Y-32121186D01*
X46534380Y-32111497D01*
X46506921Y-32096966D01*
X46472135Y-32078579D01*
X46431889Y-32057323D01*
X46388051Y-32034184D01*
X46342487Y-32010148D01*
X46327590Y-32002292D01*
X46274088Y-31974071D01*
X46214715Y-31942728D01*
X46152963Y-31910112D01*
X46092328Y-31878067D01*
X46036304Y-31848440D01*
X45995074Y-31826620D01*
X45948773Y-31802137D01*
X45900976Y-31776924D01*
X45854287Y-31752349D01*
X45811312Y-31729783D01*
X45774653Y-31710595D01*
X45751264Y-31698409D01*
X45721096Y-31682650D01*
X45694694Y-31668678D01*
X45674134Y-31657606D01*
X45661488Y-31650544D01*
X45658675Y-31648785D01*
X45648775Y-31642694D01*
X45629050Y-31631823D01*
X45600906Y-31616881D01*
X45565752Y-31598578D01*
X45524997Y-31577621D01*
X45480048Y-31554721D01*
X45432314Y-31530585D01*
X45383201Y-31505922D01*
X45334120Y-31481442D01*
X45286477Y-31457854D01*
X45241681Y-31435865D01*
X45201139Y-31416185D01*
X45166261Y-31399523D01*
X45138453Y-31386587D01*
X45132354Y-31383832D01*
X45100396Y-31369035D01*
X45072523Y-31355218D01*
X45050737Y-31343444D01*
X45037041Y-31334780D01*
X45033337Y-31331133D01*
X45031283Y-31320725D01*
X45028875Y-31300305D01*
X45026279Y-31272352D01*
X45023657Y-31239348D01*
X45021175Y-31203771D01*
X45019263Y-31172503D01*
X45099498Y-31172503D01*
X45099974Y-31200488D01*
X45102659Y-31238134D01*
X45103187Y-31243854D01*
X45107122Y-31285518D01*
X45179724Y-31318237D01*
X45195670Y-31325484D01*
X45212518Y-31333276D01*
X45230645Y-31341810D01*
X45250424Y-31351279D01*
X45272231Y-31361878D01*
X45296441Y-31373803D01*
X45323429Y-31387247D01*
X45353569Y-31402407D01*
X45387238Y-31419476D01*
X45424809Y-31438650D01*
X45466658Y-31460123D01*
X45513161Y-31484091D01*
X45564691Y-31510749D01*
X45621624Y-31540290D01*
X45684336Y-31572911D01*
X45753200Y-31608805D01*
X45828593Y-31648168D01*
X45910889Y-31691195D01*
X46000463Y-31738080D01*
X46097690Y-31789019D01*
X46202945Y-31844206D01*
X46316604Y-31903836D01*
X46439041Y-31968104D01*
X46570631Y-32037205D01*
X46711750Y-32111333D01*
X46862772Y-32190684D01*
X47024072Y-32275453D01*
X47196026Y-32365834D01*
X47212489Y-32374488D01*
X47380097Y-32462595D01*
X47537012Y-32545089D01*
X47683609Y-32622172D01*
X47820265Y-32694041D01*
X47947357Y-32760897D01*
X48065260Y-32822939D01*
X48174352Y-32880368D01*
X48275009Y-32933382D01*
X48367607Y-32982181D01*
X48452522Y-33026965D01*
X48530131Y-33067933D01*
X48600810Y-33105286D01*
X48664937Y-33139222D01*
X48722886Y-33169942D01*
X48775035Y-33197644D01*
X48821760Y-33222530D01*
X48863437Y-33244797D01*
X48900444Y-33264647D01*
X48933155Y-33282278D01*
X48961948Y-33297890D01*
X48987199Y-33311683D01*
X49009285Y-33323857D01*
X49028581Y-33334611D01*
X49045465Y-33344144D01*
X49060313Y-33352657D01*
X49073500Y-33360348D01*
X49085404Y-33367419D01*
X49090770Y-33370648D01*
X49109509Y-33381854D01*
X49123455Y-33389963D01*
X49129763Y-33393323D01*
X49129842Y-33393338D01*
X49130469Y-33387513D01*
X49130662Y-33381482D01*
X49219960Y-33381482D01*
X49221397Y-33395741D01*
X49223615Y-33399492D01*
X49230019Y-33396570D01*
X49246085Y-33388318D01*
X49270518Y-33375430D01*
X49302021Y-33358596D01*
X49339298Y-33338507D01*
X49381054Y-33315857D01*
X49415850Y-33296884D01*
X49603396Y-33194388D01*
X49608161Y-33129768D01*
X49610002Y-33102033D01*
X49611178Y-33078619D01*
X49611558Y-33062551D01*
X49611287Y-33057324D01*
X49605496Y-33058088D01*
X49589554Y-33064650D01*
X49564194Y-33076649D01*
X49530144Y-33093724D01*
X49488137Y-33115514D01*
X49438902Y-33141657D01*
X49418975Y-33152374D01*
X49228303Y-33255248D01*
X49224346Y-33294606D01*
X49221448Y-33328863D01*
X49219981Y-33358505D01*
X49219960Y-33381482D01*
X49130662Y-33381482D01*
X49130976Y-33371706D01*
X49131306Y-33348436D01*
X49131405Y-33324447D01*
X49131405Y-33255540D01*
X49079516Y-33221717D01*
X49057277Y-33207787D01*
X49026852Y-33189527D01*
X48991039Y-33168576D01*
X48952640Y-33146573D01*
X48915413Y-33125688D01*
X48902558Y-33118740D01*
X48879143Y-33106284D01*
X48845698Y-33088597D01*
X48802748Y-33065954D01*
X48750820Y-33038629D01*
X48690442Y-33006899D01*
X48622141Y-32971039D01*
X48546443Y-32931325D01*
X48463875Y-32888031D01*
X48374965Y-32841433D01*
X48280239Y-32791807D01*
X48180225Y-32739429D01*
X48075449Y-32684572D01*
X47966439Y-32627514D01*
X47853721Y-32568529D01*
X47737822Y-32507893D01*
X47619270Y-32445882D01*
X47498591Y-32382770D01*
X47376313Y-32318833D01*
X47252961Y-32254347D01*
X47129065Y-32189586D01*
X47005149Y-32124828D01*
X46881742Y-32060346D01*
X46759370Y-31996417D01*
X46638561Y-31933315D01*
X46519840Y-31871317D01*
X46403737Y-31810697D01*
X46290776Y-31751731D01*
X46181486Y-31694695D01*
X46076392Y-31639864D01*
X45976024Y-31587514D01*
X45880906Y-31537919D01*
X45791567Y-31491355D01*
X45708532Y-31448098D01*
X45632331Y-31408424D01*
X45563488Y-31372607D01*
X45502531Y-31340922D01*
X45449988Y-31313647D01*
X45406385Y-31291055D01*
X45372249Y-31273423D01*
X45348107Y-31261025D01*
X45336721Y-31255250D01*
X45304722Y-31239461D01*
X45269849Y-31222656D01*
X45234009Y-31205710D01*
X45199111Y-31189497D01*
X45167063Y-31174893D01*
X45139774Y-31162773D01*
X45119150Y-31154011D01*
X45107101Y-31149482D01*
X45105106Y-31149052D01*
X45101215Y-31155062D01*
X45099498Y-31172503D01*
X45019263Y-31172503D01*
X45018994Y-31168103D01*
X45017280Y-31134823D01*
X45016196Y-31106412D01*
X45015906Y-31085349D01*
X45016012Y-31083212D01*
X45164620Y-31083212D01*
X45168134Y-31088567D01*
X45180698Y-31095469D01*
X45190200Y-31099755D01*
X45203834Y-31105853D01*
X45219695Y-31113171D01*
X45238138Y-31121891D01*
X45259518Y-31132197D01*
X45284192Y-31144272D01*
X45312515Y-31158298D01*
X45344842Y-31174459D01*
X45381530Y-31192937D01*
X45422933Y-31213916D01*
X45469408Y-31237578D01*
X45521309Y-31264108D01*
X45578994Y-31293686D01*
X45642816Y-31326498D01*
X45713133Y-31362725D01*
X45790299Y-31402551D01*
X45874670Y-31446158D01*
X45966601Y-31493731D01*
X46066449Y-31545450D01*
X46174569Y-31601501D01*
X46291316Y-31662065D01*
X46417047Y-31727326D01*
X46552116Y-31797467D01*
X46696879Y-31872670D01*
X46851693Y-31953120D01*
X47016912Y-32038998D01*
X47177799Y-32122640D01*
X47347784Y-32211022D01*
X47507047Y-32293837D01*
X47655963Y-32371282D01*
X47794904Y-32443553D01*
X47924244Y-32510846D01*
X48044358Y-32573359D01*
X48155619Y-32631287D01*
X48258400Y-32684828D01*
X48353076Y-32734178D01*
X48440020Y-32779534D01*
X48519605Y-32821092D01*
X48592206Y-32859048D01*
X48658197Y-32893601D01*
X48717950Y-32924945D01*
X48771839Y-32953277D01*
X48820239Y-32978795D01*
X48863523Y-33001695D01*
X48902065Y-33022173D01*
X48936238Y-33040426D01*
X48966416Y-33056651D01*
X48992974Y-33071043D01*
X49016283Y-33083801D01*
X49036720Y-33095120D01*
X49054656Y-33105196D01*
X49070465Y-33114228D01*
X49084523Y-33122410D01*
X49097201Y-33129940D01*
X49108874Y-33137014D01*
X49119916Y-33143829D01*
X49124623Y-33146766D01*
X49147412Y-33160865D01*
X49166052Y-33172090D01*
X49178150Y-33179018D01*
X49181417Y-33180547D01*
X49187477Y-33177739D01*
X49203210Y-33169683D01*
X49227291Y-33157080D01*
X49258394Y-33140628D01*
X49295193Y-33121029D01*
X49336364Y-33098981D01*
X49362328Y-33085022D01*
X49405494Y-33061620D01*
X49445013Y-33039885D01*
X49479561Y-33020570D01*
X49507814Y-33004427D01*
X49528449Y-32992208D01*
X49540142Y-32984666D01*
X49542308Y-32982722D01*
X49537580Y-32978243D01*
X49523107Y-32969932D01*
X49500705Y-32958709D01*
X49472195Y-32945492D01*
X49445792Y-32933922D01*
X49404821Y-32916135D01*
X49359971Y-32896229D01*
X49315853Y-32876276D01*
X49277078Y-32858349D01*
X49265813Y-32853027D01*
X49246990Y-32843873D01*
X49218708Y-32829842D01*
X49181716Y-32811317D01*
X49136763Y-32788682D01*
X49084599Y-32762322D01*
X49025975Y-32732618D01*
X48961638Y-32699956D01*
X48892339Y-32664719D01*
X48818828Y-32627291D01*
X48741853Y-32588055D01*
X48662165Y-32547395D01*
X48580513Y-32505695D01*
X48497647Y-32463338D01*
X48414316Y-32420708D01*
X48331269Y-32378189D01*
X48249257Y-32336164D01*
X48169029Y-32295018D01*
X48091334Y-32255133D01*
X48016923Y-32216894D01*
X47946544Y-32180684D01*
X47880947Y-32146887D01*
X47820881Y-32115887D01*
X47767097Y-32088067D01*
X47720344Y-32063811D01*
X47681371Y-32043502D01*
X47650929Y-32027525D01*
X47629765Y-32016263D01*
X47618631Y-32010100D01*
X47617065Y-32009060D01*
X47613736Y-31998355D01*
X47612472Y-31983632D01*
X47612704Y-31981095D01*
X47747456Y-31981095D01*
X47750818Y-31985203D01*
X47762964Y-31993424D01*
X47781423Y-32004428D01*
X47803726Y-32016883D01*
X47827400Y-32029459D01*
X47849975Y-32040824D01*
X47868981Y-32049647D01*
X47881946Y-32054597D01*
X47885019Y-32055203D01*
X47891282Y-32052512D01*
X47908182Y-32044558D01*
X47935148Y-32031621D01*
X47971608Y-32013979D01*
X48016994Y-31991912D01*
X48070733Y-31965701D01*
X48132255Y-31935624D01*
X48200990Y-31901961D01*
X48276366Y-31864992D01*
X48357813Y-31824996D01*
X48444761Y-31782253D01*
X48536639Y-31737042D01*
X48632875Y-31689643D01*
X48732900Y-31640336D01*
X48836142Y-31589400D01*
X48879013Y-31568237D01*
X49865960Y-31080949D01*
X49867735Y-31011100D01*
X49868304Y-30980535D01*
X49868288Y-30979437D01*
X49951113Y-30979437D01*
X49951634Y-31008841D01*
X49951714Y-31012024D01*
X49953482Y-31081296D01*
X50603642Y-31380656D01*
X50691774Y-31421293D01*
X50778801Y-31461530D01*
X50863800Y-31500936D01*
X50945852Y-31539080D01*
X51024033Y-31575528D01*
X51097424Y-31609851D01*
X51165103Y-31641615D01*
X51226149Y-31670389D01*
X51279640Y-31695743D01*
X51324655Y-31717243D01*
X51360274Y-31734459D01*
X51385574Y-31746958D01*
X51388210Y-31748291D01*
X51425858Y-31767360D01*
X51459781Y-31784434D01*
X51488397Y-31798726D01*
X51510126Y-31809451D01*
X51523388Y-31815822D01*
X51526773Y-31817267D01*
X51529309Y-31811904D01*
X51532170Y-31797104D01*
X51534789Y-31775898D01*
X51535099Y-31772643D01*
X51535636Y-31764692D01*
X51619568Y-31764692D01*
X51619797Y-31786598D01*
X51621068Y-31803180D01*
X51623464Y-31811255D01*
X51624205Y-31811574D01*
X51630738Y-31808688D01*
X51646798Y-31800618D01*
X51670917Y-31788131D01*
X51701628Y-31771994D01*
X51737461Y-31752973D01*
X51776948Y-31731836D01*
X51778931Y-31730770D01*
X51928968Y-31650107D01*
X51933296Y-31626197D01*
X51936476Y-31602145D01*
X51937990Y-31576583D01*
X51937917Y-31552499D01*
X51936331Y-31532881D01*
X51933310Y-31520715D01*
X51930531Y-31518220D01*
X51923109Y-31521158D01*
X51906238Y-31529264D01*
X51881464Y-31541749D01*
X51850331Y-31557825D01*
X51814385Y-31576703D01*
X51778931Y-31595579D01*
X51726660Y-31623998D01*
X51685559Y-31647272D01*
X51655452Y-31665509D01*
X51636161Y-31678816D01*
X51627510Y-31687300D01*
X51627423Y-31687461D01*
X51624309Y-31698846D01*
X51621906Y-31717634D01*
X51620299Y-31740643D01*
X51619568Y-31764692D01*
X51535636Y-31764692D01*
X51536954Y-31745155D01*
X51537677Y-31718157D01*
X51537196Y-31699187D01*
X51535121Y-31671055D01*
X51385084Y-31595782D01*
X51360116Y-31583499D01*
X51326080Y-31567127D01*
X51283812Y-31547049D01*
X51234146Y-31523650D01*
X51177919Y-31497312D01*
X51115966Y-31468417D01*
X51049124Y-31437349D01*
X50978226Y-31404492D01*
X50904110Y-31370227D01*
X50827610Y-31334939D01*
X50749563Y-31299009D01*
X50670804Y-31262822D01*
X50592168Y-31226760D01*
X50514491Y-31191207D01*
X50438609Y-31156545D01*
X50365357Y-31123157D01*
X50295571Y-31091426D01*
X50230086Y-31061737D01*
X50169739Y-31034470D01*
X50115365Y-31010010D01*
X50067798Y-30988740D01*
X50027876Y-30971043D01*
X49996433Y-30957301D01*
X49974306Y-30947898D01*
X49962329Y-30943217D01*
X49960521Y-30942751D01*
X49955910Y-30943992D01*
X49952983Y-30949116D01*
X49951474Y-30960230D01*
X49951113Y-30979437D01*
X49868288Y-30979437D01*
X49868013Y-30960548D01*
X49866641Y-30949234D01*
X49863973Y-30944683D01*
X49860151Y-30944842D01*
X49852997Y-30948176D01*
X49835357Y-30956664D01*
X49807902Y-30969978D01*
X49771303Y-30987787D01*
X49726230Y-31009763D01*
X49673355Y-31035577D01*
X49613349Y-31064900D01*
X49546883Y-31097402D01*
X49474627Y-31132754D01*
X49397253Y-31170627D01*
X49315432Y-31210693D01*
X49229835Y-31252621D01*
X49141133Y-31296084D01*
X49049996Y-31340751D01*
X48957097Y-31386293D01*
X48863105Y-31432383D01*
X48768692Y-31478689D01*
X48674529Y-31524884D01*
X48581288Y-31570637D01*
X48489637Y-31615621D01*
X48400250Y-31659506D01*
X48313797Y-31701962D01*
X48230949Y-31742661D01*
X48152377Y-31781273D01*
X48078752Y-31817470D01*
X48010745Y-31850922D01*
X47949027Y-31881300D01*
X47894269Y-31908275D01*
X47847142Y-31931518D01*
X47808317Y-31950699D01*
X47778465Y-31965490D01*
X47758257Y-31975562D01*
X47748365Y-31980585D01*
X47747456Y-31981095D01*
X47612704Y-31981095D01*
X47613913Y-31967862D01*
X47617065Y-31957987D01*
X47623056Y-31954605D01*
X47639755Y-31946010D01*
X47666631Y-31932463D01*
X47703151Y-31914228D01*
X47748783Y-31891566D01*
X47802994Y-31864738D01*
X47865254Y-31834006D01*
X47935029Y-31799633D01*
X48011787Y-31761880D01*
X48094996Y-31721008D01*
X48184124Y-31677281D01*
X48278638Y-31630959D01*
X48378008Y-31582305D01*
X48481699Y-31531580D01*
X48589181Y-31479047D01*
X48699920Y-31424966D01*
X48757403Y-31396912D01*
X48900528Y-31327103D01*
X49032745Y-31262679D01*
X49154360Y-31203491D01*
X49265678Y-31149394D01*
X49367006Y-31100241D01*
X49458650Y-31055886D01*
X49540914Y-31016181D01*
X49614106Y-30980982D01*
X49678530Y-30950141D01*
X49734493Y-30923512D01*
X49782300Y-30900948D01*
X49822257Y-30882303D01*
X49854671Y-30867432D01*
X49879846Y-30856186D01*
X49898089Y-30848420D01*
X49909705Y-30843987D01*
X49914753Y-30842726D01*
X49923446Y-30845292D01*
X49942669Y-30852742D01*
X49971604Y-30864706D01*
X50009436Y-30880816D01*
X50055349Y-30900701D01*
X50108525Y-30923992D01*
X50168148Y-30950318D01*
X50233403Y-30979311D01*
X50303472Y-31010601D01*
X50377540Y-31043817D01*
X50454790Y-31078591D01*
X50534406Y-31114552D01*
X50615571Y-31151331D01*
X50697469Y-31188558D01*
X50779284Y-31225864D01*
X50860199Y-31262878D01*
X50939399Y-31299232D01*
X51016066Y-31334554D01*
X51089384Y-31368477D01*
X51158537Y-31400629D01*
X51222710Y-31430642D01*
X51281084Y-31458146D01*
X51332844Y-31482770D01*
X51377174Y-31504146D01*
X51400344Y-31515493D01*
X51451069Y-31540461D01*
X51491841Y-31560319D01*
X51523877Y-31575576D01*
X51548393Y-31586741D01*
X51566607Y-31594322D01*
X51579734Y-31598830D01*
X51588992Y-31600773D01*
X51595597Y-31600659D01*
X51600393Y-31599169D01*
X51614625Y-31592324D01*
X51636670Y-31581148D01*
X51664636Y-31566651D01*
X51696634Y-31549845D01*
X51730772Y-31531741D01*
X51765159Y-31513350D01*
X51797904Y-31495684D01*
X51827118Y-31479754D01*
X51850907Y-31466570D01*
X51867383Y-31457145D01*
X51874646Y-31452497D01*
X51875893Y-31448550D01*
X51870875Y-31443590D01*
X51858207Y-31436892D01*
X51836504Y-31427728D01*
X51804382Y-31415373D01*
X51802754Y-31414761D01*
X51784818Y-31407992D01*
X51766691Y-31401045D01*
X51747920Y-31393718D01*
X51728049Y-31385812D01*
X51706626Y-31377126D01*
X51683196Y-31367459D01*
X51657306Y-31356611D01*
X51628501Y-31344381D01*
X51596328Y-31330569D01*
X51560333Y-31314973D01*
X51520062Y-31297393D01*
X51475062Y-31277629D01*
X51424877Y-31255480D01*
X51369055Y-31230745D01*
X51307142Y-31203224D01*
X51238683Y-31172717D01*
X51163225Y-31139021D01*
X51080315Y-31101938D01*
X50989497Y-31061266D01*
X50890318Y-31016805D01*
X50782325Y-30968354D01*
X50665064Y-30915712D01*
X50538080Y-30858679D01*
X50400920Y-30797054D01*
X50253130Y-30730637D01*
X50143404Y-30681319D01*
X49989262Y-30612036D01*
X49846085Y-30547681D01*
X49713434Y-30488055D01*
X49590870Y-30432958D01*
X49477955Y-30382188D01*
X49374251Y-30335547D01*
X49279320Y-30292833D01*
X49192723Y-30253847D01*
X49114021Y-30218389D01*
X49042777Y-30186258D01*
X48978552Y-30157253D01*
X48920907Y-30131176D01*
X48869405Y-30107825D01*
X48823607Y-30087001D01*
X48783074Y-30068503D01*
X48747369Y-30052131D01*
X48716052Y-30037685D01*
X48688686Y-30024965D01*
X48664832Y-30013770D01*
X48644052Y-30003901D01*
X48625907Y-29995156D01*
X48609959Y-29987337D01*
X48595769Y-29980242D01*
X48582901Y-29973672D01*
X48570913Y-29967426D01*
X48559370Y-29961304D01*
X48547832Y-29955106D01*
X48535860Y-29948632D01*
X48523017Y-29941681D01*
X48518625Y-29939309D01*
X48418727Y-29885406D01*
X48314015Y-29932259D01*
X48276909Y-29948866D01*
X48240349Y-29965234D01*
X48207237Y-29980065D01*
X48180474Y-29992059D01*
X48166389Y-29998377D01*
X48142855Y-30009980D01*
X48131111Y-30019113D01*
X48130995Y-30026973D01*
X48142345Y-30034760D01*
X48160458Y-30042061D01*
X48177637Y-30048773D01*
X48204613Y-30060017D01*
X48240512Y-30075394D01*
X48284458Y-30094509D01*
X48335576Y-30116964D01*
X48392991Y-30142363D01*
X48455829Y-30170310D01*
X48523213Y-30200406D01*
X48594269Y-30232256D01*
X48668121Y-30265462D01*
X48743896Y-30299629D01*
X48820717Y-30334359D01*
X48897709Y-30369255D01*
X48973998Y-30403921D01*
X49048708Y-30437960D01*
X49120964Y-30470976D01*
X49189892Y-30502570D01*
X49254615Y-30532348D01*
X49314260Y-30559912D01*
X49367950Y-30584864D01*
X49414812Y-30606810D01*
X49453969Y-30625351D01*
X49484546Y-30640091D01*
X49505670Y-30650633D01*
X49516463Y-30656581D01*
X49517437Y-30657296D01*
X49528903Y-30673904D01*
X49530589Y-30692013D01*
X49522858Y-30706693D01*
X49515958Y-30710692D01*
X49498442Y-30719733D01*
X49470962Y-30733503D01*
X49434167Y-30751692D01*
X49388711Y-30773986D01*
X49335243Y-30800075D01*
X49274417Y-30829646D01*
X49206883Y-30862387D01*
X49133293Y-30897986D01*
X49054298Y-30936132D01*
X48970550Y-30976513D01*
X48882700Y-31018815D01*
X48791399Y-31062729D01*
X48697300Y-31107941D01*
X48601053Y-31154140D01*
X48503310Y-31201014D01*
X48404723Y-31248251D01*
X48305943Y-31295539D01*
X48207621Y-31342566D01*
X48110409Y-31389020D01*
X48014958Y-31434589D01*
X47921920Y-31478962D01*
X47831946Y-31521826D01*
X47745688Y-31562869D01*
X47663797Y-31601781D01*
X47586925Y-31638247D01*
X47515723Y-31671958D01*
X47450842Y-31702600D01*
X47392934Y-31729862D01*
X47342651Y-31753432D01*
X47300644Y-31772998D01*
X47267564Y-31788249D01*
X47244064Y-31798871D01*
X47230793Y-31804554D01*
X47228038Y-31805463D01*
X47220582Y-31802663D01*
X47202808Y-31794530D01*
X47175507Y-31781467D01*
X47139471Y-31763879D01*
X47095491Y-31742167D01*
X47044360Y-31716736D01*
X46986868Y-31687988D01*
X46923808Y-31656327D01*
X46855971Y-31622155D01*
X46784148Y-31585876D01*
X46709131Y-31547893D01*
X46631712Y-31508610D01*
X46552682Y-31468428D01*
X46472833Y-31427752D01*
X46392957Y-31386985D01*
X46313845Y-31346530D01*
X46236288Y-31306789D01*
X46161079Y-31268167D01*
X46089009Y-31231066D01*
X46020869Y-31195889D01*
X45957452Y-31163040D01*
X45899548Y-31132922D01*
X45847949Y-31105937D01*
X45803448Y-31082490D01*
X45766834Y-31062983D01*
X45738901Y-31047819D01*
X45723889Y-31039404D01*
X45688553Y-31018831D01*
X45650974Y-30996501D01*
X45615332Y-30974926D01*
X45585808Y-30956615D01*
X45582329Y-30954409D01*
X45523181Y-30916768D01*
X45350244Y-30992822D01*
X45306496Y-31012213D01*
X45266221Y-31030355D01*
X45230916Y-31046549D01*
X45202077Y-31060099D01*
X45181202Y-31070308D01*
X45169787Y-31076478D01*
X45168320Y-31077540D01*
X45164620Y-31083212D01*
X45016012Y-31083212D01*
X45016420Y-31074978D01*
X45017076Y-31069601D01*
X45017951Y-31064982D01*
X45020018Y-31060619D01*
X45024246Y-31056005D01*
X45031609Y-31050639D01*
X45043077Y-31044015D01*
X45059622Y-31035629D01*
X45082214Y-31024978D01*
X45111826Y-31011558D01*
X45149429Y-30994864D01*
X45195993Y-30974393D01*
X45252492Y-30949640D01*
X45287761Y-30934189D01*
X45341753Y-30910744D01*
X45391230Y-30889682D01*
X45435032Y-30871469D01*
X45471997Y-30856576D01*
X45500966Y-30845469D01*
X45520778Y-30838618D01*
X45529943Y-30836475D01*
X45543230Y-30839428D01*
X45563221Y-30848647D01*
X45590942Y-30864673D01*
X45625059Y-30886487D01*
X45652028Y-30904176D01*
X45675029Y-30919117D01*
X45692177Y-30930096D01*
X45701585Y-30935898D01*
X45702776Y-30936499D01*
X45708578Y-30939440D01*
X45722809Y-30947377D01*
X45743115Y-30958982D01*
X45759770Y-30968628D01*
X45775457Y-30977343D01*
X45801506Y-30991292D01*
X45837120Y-31010068D01*
X45881503Y-31033262D01*
X45933858Y-31060467D01*
X45993390Y-31091274D01*
X46059301Y-31125275D01*
X46130797Y-31162063D01*
X46207080Y-31201230D01*
X46287355Y-31242367D01*
X46370825Y-31285067D01*
X46456694Y-31328922D01*
X46544165Y-31373524D01*
X46632443Y-31418464D01*
X46720731Y-31463335D01*
X46808233Y-31507728D01*
X46894153Y-31551237D01*
X46977695Y-31593452D01*
X47058061Y-31633967D01*
X47072505Y-31641237D01*
X47229777Y-31720374D01*
X47294435Y-31689984D01*
X47322592Y-31676685D01*
X47358422Y-31659665D01*
X47398337Y-31640632D01*
X47438749Y-31621298D01*
X47462244Y-31610022D01*
X47502188Y-31590852D01*
X47549319Y-31568274D01*
X47599532Y-31544252D01*
X47648725Y-31520750D01*
X47687299Y-31502348D01*
X47730030Y-31481971D01*
X47775203Y-31460409D01*
X47819373Y-31439309D01*
X47859091Y-31420318D01*
X47890474Y-31405292D01*
X47943712Y-31379783D01*
X48001067Y-31352321D01*
X48061378Y-31323458D01*
X48123485Y-31293750D01*
X48186228Y-31263750D01*
X48248447Y-31234013D01*
X48308982Y-31205092D01*
X48366671Y-31177542D01*
X48420356Y-31151917D01*
X48468876Y-31128771D01*
X48511071Y-31108658D01*
X48545780Y-31092133D01*
X48571843Y-31079749D01*
X48588101Y-31072061D01*
X48590647Y-31070868D01*
X48612108Y-31060756D01*
X48641522Y-31046766D01*
X48675591Y-31030473D01*
X48711016Y-31013453D01*
X48725055Y-31006684D01*
X48796412Y-30972293D01*
X48869087Y-30937365D01*
X48940103Y-30903326D01*
X49006483Y-30871604D01*
X49065248Y-30843626D01*
X49076704Y-30838188D01*
X49104092Y-30824867D01*
X49126843Y-30813173D01*
X49142843Y-30804240D01*
X49149979Y-30799203D01*
X49150159Y-30798798D01*
X49144922Y-30793973D01*
X49131504Y-30786545D01*
X49120464Y-30781462D01*
X49102408Y-30773449D01*
X49076834Y-30761797D01*
X49047516Y-30748236D01*
X49025128Y-30737753D01*
X48987022Y-30719840D01*
X48953349Y-30704109D01*
X48919865Y-30688587D01*
X48882323Y-30671306D01*
X48850085Y-30656524D01*
X48835845Y-30649979D01*
X48811650Y-30638833D01*
X48778892Y-30623727D01*
X48738966Y-30605306D01*
X48693266Y-30584212D01*
X48643187Y-30561090D01*
X48590120Y-30536581D01*
X48556263Y-30520941D01*
X48468733Y-30480648D01*
X48390995Y-30445192D01*
X48321600Y-30413937D01*
X48259097Y-30386247D01*
X48202038Y-30361484D01*
X48148973Y-30339014D01*
X48098453Y-30318198D01*
X48053014Y-30299978D01*
X47990499Y-30275228D01*
X47986200Y-30241712D01*
X47984556Y-30223328D01*
X47982972Y-30195706D01*
X47981597Y-30162112D01*
X47980580Y-30125812D01*
X47980564Y-30124996D01*
X48057067Y-30124996D01*
X48057498Y-30149702D01*
X48058701Y-30182045D01*
X48060560Y-30203842D01*
X48063367Y-30217043D01*
X48067412Y-30223600D01*
X48068643Y-30224425D01*
X48076881Y-30228176D01*
X48094941Y-30235973D01*
X48121089Y-30247081D01*
X48153595Y-30260767D01*
X48190724Y-30276299D01*
X48215554Y-30286636D01*
X48243884Y-30298684D01*
X48282298Y-30315447D01*
X48329547Y-30336360D01*
X48384381Y-30360860D01*
X48445550Y-30388382D01*
X48511805Y-30418363D01*
X48581895Y-30450238D01*
X48654570Y-30483444D01*
X48728581Y-30517417D01*
X48796947Y-30548944D01*
X48867001Y-30581290D01*
X48933825Y-30612082D01*
X48996545Y-30640919D01*
X49054283Y-30667401D01*
X49106163Y-30691129D01*
X49151309Y-30711702D01*
X49188845Y-30728721D01*
X49217895Y-30741786D01*
X49237582Y-30750496D01*
X49247030Y-30754452D01*
X49247702Y-30754653D01*
X49255665Y-30752316D01*
X49272546Y-30745533D01*
X49296005Y-30735296D01*
X49323702Y-30722600D01*
X49328843Y-30720184D01*
X49358884Y-30705936D01*
X49379001Y-30695943D01*
X49390589Y-30689145D01*
X49395042Y-30684483D01*
X49393753Y-30680896D01*
X49388116Y-30677325D01*
X49386392Y-30676416D01*
X49373219Y-30669925D01*
X49349627Y-30658753D01*
X49316600Y-30643345D01*
X49275121Y-30624148D01*
X49226174Y-30601609D01*
X49170743Y-30576174D01*
X49109812Y-30548290D01*
X49044364Y-30518403D01*
X48975383Y-30486960D01*
X48903854Y-30454407D01*
X48830759Y-30421191D01*
X48757082Y-30387758D01*
X48683808Y-30354556D01*
X48611920Y-30322030D01*
X48542402Y-30290627D01*
X48476237Y-30260794D01*
X48414409Y-30232976D01*
X48357902Y-30207622D01*
X48307700Y-30185177D01*
X48264787Y-30166087D01*
X48230146Y-30150800D01*
X48204761Y-30139762D01*
X48194900Y-30135580D01*
X48156883Y-30119777D01*
X48122835Y-30105724D01*
X48094412Y-30094093D01*
X48073266Y-30085562D01*
X48061054Y-30080804D01*
X48058724Y-30080039D01*
X48057677Y-30085869D01*
X48057110Y-30101690D01*
X48057067Y-30124996D01*
X47980564Y-30124996D01*
X47980329Y-30112621D01*
X47979796Y-30076117D01*
X47979768Y-30049965D01*
X47980512Y-30032016D01*
X47982293Y-30020123D01*
X47985378Y-30012135D01*
X47990032Y-30005905D01*
X47994043Y-30001761D01*
X48004063Y-29994953D01*
X48023881Y-29984162D01*
X48051843Y-29970122D01*
X48086295Y-29953568D01*
X48125583Y-29935234D01*
X48168054Y-29915856D01*
X48212054Y-29896167D01*
X48255929Y-29876904D01*
X48298025Y-29858800D01*
X48336690Y-29842591D01*
X48370268Y-29829011D01*
X48397106Y-29818795D01*
X48415551Y-29812678D01*
X48422871Y-29811222D01*
X48440146Y-29814558D01*
G37*
G36*
X48506789Y-29326065D02*
G01*
X48524596Y-29333325D01*
X48552973Y-29345187D01*
X48591472Y-29361459D01*
X48639647Y-29381945D01*
X48697051Y-29406452D01*
X48763236Y-29434787D01*
X48837755Y-29466755D01*
X48920162Y-29502162D01*
X49010009Y-29540816D01*
X49106849Y-29582520D01*
X49210236Y-29627083D01*
X49319721Y-29674310D01*
X49434859Y-29724007D01*
X49555201Y-29775980D01*
X49680301Y-29830036D01*
X49809712Y-29885980D01*
X49942987Y-29943619D01*
X50079678Y-30002759D01*
X50219339Y-30063205D01*
X50361522Y-30124765D01*
X50505781Y-30187243D01*
X50651668Y-30250447D01*
X50798736Y-30314183D01*
X50946539Y-30378256D01*
X51094628Y-30442472D01*
X51242558Y-30506639D01*
X51389881Y-30570561D01*
X51536149Y-30634045D01*
X51680916Y-30696897D01*
X51823736Y-30758924D01*
X51964159Y-30819931D01*
X52101741Y-30879725D01*
X52236032Y-30938111D01*
X52366588Y-30994896D01*
X52492959Y-31049887D01*
X52614700Y-31102888D01*
X52731364Y-31153706D01*
X52842502Y-31202147D01*
X52947669Y-31248018D01*
X53046416Y-31291125D01*
X53138298Y-31331273D01*
X53222866Y-31368269D01*
X53299674Y-31401919D01*
X53368275Y-31432029D01*
X53428221Y-31458405D01*
X53479066Y-31480853D01*
X53520363Y-31499180D01*
X53551664Y-31513192D01*
X53572522Y-31522694D01*
X53582491Y-31527492D01*
X53583284Y-31527979D01*
X53587424Y-31532758D01*
X53590607Y-31539472D01*
X53592791Y-31549194D01*
X53593936Y-31562996D01*
X53593999Y-31581952D01*
X53592941Y-31607133D01*
X53590719Y-31639612D01*
X53587294Y-31680461D01*
X53582623Y-31730754D01*
X53576667Y-31791562D01*
X53571070Y-31847293D01*
X53565859Y-31900262D01*
X53561279Y-31949616D01*
X53557443Y-31993901D01*
X53554466Y-32031664D01*
X53552462Y-32061450D01*
X53551545Y-32081806D01*
X53551829Y-32091279D01*
X53551893Y-32091486D01*
X53559844Y-32099527D01*
X53578251Y-32110860D01*
X53605747Y-32124699D01*
X53624060Y-32133010D01*
X53651821Y-32145630D01*
X53676100Y-32157426D01*
X53694140Y-32167011D01*
X53702842Y-32172668D01*
X53706756Y-32176936D01*
X53709746Y-32182677D01*
X53711764Y-32191051D01*
X53712763Y-32203213D01*
X53712695Y-32220322D01*
X53711514Y-32243534D01*
X53709171Y-32274008D01*
X53705619Y-32312902D01*
X53700811Y-32361371D01*
X53694700Y-32420575D01*
X53691415Y-32451955D01*
X53685269Y-32509916D01*
X53680126Y-32556716D01*
X53675788Y-32593636D01*
X53672056Y-32621959D01*
X53668731Y-32642969D01*
X53665614Y-32657949D01*
X53662507Y-32668181D01*
X53659211Y-32674948D01*
X53656271Y-32678766D01*
X53646412Y-32686775D01*
X53628011Y-32699458D01*
X53603385Y-32715294D01*
X53574855Y-32732767D01*
X53563478Y-32739516D01*
X53535041Y-32756490D01*
X53510517Y-32771615D01*
X53491915Y-32783615D01*
X53481246Y-32791211D01*
X53479580Y-32792834D01*
X53478591Y-32799514D01*
X53476459Y-32817666D01*
X53473282Y-32846321D01*
X53469158Y-32884509D01*
X53464187Y-32931261D01*
X53458467Y-32985609D01*
X53452098Y-33046583D01*
X53445177Y-33113213D01*
X53437804Y-33184530D01*
X53430077Y-33259566D01*
X53422095Y-33337351D01*
X53413957Y-33416915D01*
X53405762Y-33497290D01*
X53397608Y-33577506D01*
X53389594Y-33656595D01*
X53381819Y-33733586D01*
X53374382Y-33807511D01*
X53367381Y-33877400D01*
X53360915Y-33942284D01*
X53355083Y-34001195D01*
X53349984Y-34053162D01*
X53345716Y-34097216D01*
X53342379Y-34132389D01*
X53340070Y-34157711D01*
X53338889Y-34172213D01*
X53338752Y-34174952D01*
X53344399Y-34181539D01*
X53361026Y-34192628D01*
X53388078Y-34207891D01*
X53425002Y-34227004D01*
X53439748Y-34234342D01*
X53483311Y-34256132D01*
X53516736Y-34273700D01*
X53541293Y-34287944D01*
X53558251Y-34299764D01*
X53568881Y-34310058D01*
X53574450Y-34319725D01*
X53576229Y-34329663D01*
X53576248Y-34330975D01*
X53575604Y-34341297D01*
X53573777Y-34362432D01*
X53570923Y-34392761D01*
X53567203Y-34430666D01*
X53562772Y-34474528D01*
X53557789Y-34522729D01*
X53554543Y-34553595D01*
X53548573Y-34609662D01*
X53543648Y-34654638D01*
X53539543Y-34689868D01*
X53536030Y-34716700D01*
X53532885Y-34736479D01*
X53529879Y-34750552D01*
X53526788Y-34760266D01*
X53523386Y-34766968D01*
X53519445Y-34772002D01*
X53517511Y-34774007D01*
X53507853Y-34781835D01*
X53489410Y-34795158D01*
X53463949Y-34812761D01*
X53433234Y-34833431D01*
X53399034Y-34855955D01*
X53384493Y-34865393D01*
X53341388Y-34893649D01*
X53308388Y-34916221D01*
X53284763Y-34933656D01*
X53269777Y-34946501D01*
X53262699Y-34955302D01*
X53262157Y-34956659D01*
X53261056Y-34964404D01*
X53258793Y-34983952D01*
X53255432Y-35014664D01*
X53251039Y-35055901D01*
X53245680Y-35107023D01*
X53239419Y-35167392D01*
X53232323Y-35236368D01*
X53224455Y-35313312D01*
X53215882Y-35397584D01*
X53206669Y-35488545D01*
X53196880Y-35585556D01*
X53186583Y-35687978D01*
X53175841Y-35795171D01*
X53164719Y-35906497D01*
X53153285Y-36021315D01*
X53148682Y-36067627D01*
X53133259Y-36222519D01*
X53118885Y-36366069D01*
X53105569Y-36498187D01*
X53093320Y-36618784D01*
X53082147Y-36727771D01*
X53072061Y-36825059D01*
X53063071Y-36910559D01*
X53055185Y-36984182D01*
X53048414Y-37045840D01*
X53042766Y-37095443D01*
X53038252Y-37132903D01*
X53034879Y-37158130D01*
X53032659Y-37171036D01*
X53032061Y-37172774D01*
X53024624Y-37179261D01*
X53008707Y-37191566D01*
X52986092Y-37208363D01*
X52958563Y-37228327D01*
X52929856Y-37248755D01*
X52899669Y-37270212D01*
X52873028Y-37289463D01*
X52851625Y-37305260D01*
X52837154Y-37316352D01*
X52831353Y-37321420D01*
X52828419Y-37330625D01*
X52825192Y-37347903D01*
X52823219Y-37362478D01*
X52820096Y-37389177D01*
X52816817Y-37416728D01*
X52815502Y-37427612D01*
X52811830Y-37457759D01*
X52649883Y-37572960D01*
X52601693Y-37607040D01*
X52562555Y-37634232D01*
X52531515Y-37655145D01*
X52507618Y-37670386D01*
X52489910Y-37680563D01*
X52477435Y-37686284D01*
X52469239Y-37688157D01*
X52468943Y-37688161D01*
X52453809Y-37685007D01*
X52432880Y-37676752D01*
X52412059Y-37665954D01*
X52392304Y-37655317D01*
X52376317Y-37648420D01*
X52367428Y-37646689D01*
X52367246Y-37646757D01*
X52361305Y-37650703D01*
X52345829Y-37661402D01*
X52321491Y-37678379D01*
X52288962Y-37701164D01*
X52248912Y-37729283D01*
X52202014Y-37762264D01*
X52148938Y-37799634D01*
X52090356Y-37840922D01*
X52026939Y-37885656D01*
X51959358Y-37933362D01*
X51888284Y-37983568D01*
X51814389Y-38035802D01*
X51813768Y-38036241D01*
X51267212Y-38422716D01*
X51205876Y-38537800D01*
X51186888Y-38573050D01*
X51169266Y-38605067D01*
X51154056Y-38632001D01*
X51142307Y-38652001D01*
X51135068Y-38663220D01*
X51134124Y-38664394D01*
X51117447Y-38673776D01*
X51092764Y-38674990D01*
X51061561Y-38668003D01*
X51056101Y-38666136D01*
X51034712Y-38660293D01*
X51007625Y-38655266D01*
X50987081Y-38652771D01*
X50945417Y-38649174D01*
X49733648Y-39504540D01*
X49584106Y-39610059D01*
X49444653Y-39708373D01*
X49315204Y-39799543D01*
X49195671Y-39883629D01*
X49085968Y-39960692D01*
X48986008Y-40030792D01*
X48895706Y-40093988D01*
X48814973Y-40150343D01*
X48743725Y-40199915D01*
X48681874Y-40242765D01*
X48629334Y-40278953D01*
X48586019Y-40308540D01*
X48551841Y-40331586D01*
X48526714Y-40348152D01*
X48510552Y-40358296D01*
X48503269Y-40362081D01*
X48503125Y-40362106D01*
X48500526Y-40361634D01*
X48495942Y-40359680D01*
X48489077Y-40356038D01*
X48479634Y-40350500D01*
X48467315Y-40342860D01*
X48451825Y-40332909D01*
X48432867Y-40320442D01*
X48410144Y-40305251D01*
X48383358Y-40287129D01*
X48352215Y-40265870D01*
X48316416Y-40241265D01*
X48275665Y-40213109D01*
X48229665Y-40181193D01*
X48178120Y-40145312D01*
X48120732Y-40105257D01*
X48057206Y-40060822D01*
X47987244Y-40011800D01*
X47910550Y-39957985D01*
X47826827Y-39899167D01*
X47735778Y-39835142D01*
X47637107Y-39765702D01*
X47530516Y-39690639D01*
X47415709Y-39609747D01*
X47292390Y-39522818D01*
X47160262Y-39429646D01*
X47019027Y-39330024D01*
X46868389Y-39223745D01*
X46708052Y-39110601D01*
X46587425Y-39025468D01*
X44803367Y-37766305D01*
X44936622Y-37766305D01*
X44939748Y-37769431D01*
X44942874Y-37766305D01*
X44939748Y-37763179D01*
X44936622Y-37766305D01*
X44803367Y-37766305D01*
X44690480Y-37686631D01*
X44640071Y-37679581D01*
X44589662Y-37672532D01*
X44557229Y-37622520D01*
X44542224Y-37599906D01*
X44528967Y-37580866D01*
X44519421Y-37568179D01*
X44516594Y-37565031D01*
X44510001Y-37560063D01*
X44494175Y-37548628D01*
X44470119Y-37531438D01*
X44438838Y-37509203D01*
X44401333Y-37482635D01*
X44358609Y-37452447D01*
X44311669Y-37419350D01*
X44261517Y-37384055D01*
X44248953Y-37375223D01*
X44197889Y-37339262D01*
X44149584Y-37305103D01*
X44105075Y-37273490D01*
X44065399Y-37245165D01*
X44031594Y-37220871D01*
X44004698Y-37201353D01*
X43985747Y-37187354D01*
X43975779Y-37179617D01*
X43974904Y-37178838D01*
X43973722Y-37177550D01*
X43972548Y-37175766D01*
X43971346Y-37173141D01*
X43970080Y-37169336D01*
X43968715Y-37164009D01*
X43967215Y-37156817D01*
X43965544Y-37147421D01*
X43963666Y-37135477D01*
X43961546Y-37120646D01*
X43959148Y-37102584D01*
X43956436Y-37080951D01*
X43953375Y-37055405D01*
X43949929Y-37025605D01*
X43946061Y-36991209D01*
X43941737Y-36951876D01*
X43936920Y-36907264D01*
X43931576Y-36857031D01*
X43925667Y-36800837D01*
X43919159Y-36738339D01*
X43912015Y-36669196D01*
X43904201Y-36593067D01*
X43895679Y-36509610D01*
X43886415Y-36418484D01*
X43876373Y-36319347D01*
X43865517Y-36211857D01*
X43853811Y-36095674D01*
X43841219Y-35970455D01*
X43827707Y-35835859D01*
X43813237Y-35691545D01*
X43797775Y-35537171D01*
X43781284Y-35372396D01*
X43763729Y-35196878D01*
X43745075Y-35010275D01*
X43725285Y-34812246D01*
X43704323Y-34602450D01*
X43682766Y-34386662D01*
X43664235Y-34201093D01*
X43646021Y-34018539D01*
X43628162Y-33839403D01*
X43610698Y-33664084D01*
X43593669Y-33492983D01*
X43577114Y-33326501D01*
X43561072Y-33165039D01*
X43545584Y-33008997D01*
X43530689Y-32858776D01*
X43516426Y-32714776D01*
X43502835Y-32577399D01*
X43489955Y-32447045D01*
X43477827Y-32324115D01*
X43466488Y-32209010D01*
X43455980Y-32102130D01*
X43446342Y-32003875D01*
X43437613Y-31914648D01*
X43429833Y-31834847D01*
X43423041Y-31764875D01*
X43417276Y-31705132D01*
X43412580Y-31656018D01*
X43410874Y-31637922D01*
X43495434Y-31637922D01*
X43495912Y-31644205D01*
X43497575Y-31662533D01*
X43500385Y-31692508D01*
X43504302Y-31733733D01*
X43509289Y-31785809D01*
X43515305Y-31848339D01*
X43522313Y-31920925D01*
X43530273Y-32003169D01*
X43539148Y-32094673D01*
X43548897Y-32195040D01*
X43559483Y-32303871D01*
X43570866Y-32420768D01*
X43583008Y-32545334D01*
X43595870Y-32677171D01*
X43609413Y-32815881D01*
X43623599Y-32961067D01*
X43638389Y-33112329D01*
X43653743Y-33269271D01*
X43669624Y-33431495D01*
X43685992Y-33598602D01*
X43702808Y-33770195D01*
X43720035Y-33945876D01*
X43737632Y-34125247D01*
X43755562Y-34307911D01*
X43761828Y-34371724D01*
X43779876Y-34555536D01*
X43797614Y-34736237D01*
X43815002Y-34913428D01*
X43832002Y-35086707D01*
X43848574Y-35255676D01*
X43864679Y-35419935D01*
X43880278Y-35579083D01*
X43895333Y-35732721D01*
X43909803Y-35880448D01*
X43923650Y-36021865D01*
X43936834Y-36156572D01*
X43949317Y-36284169D01*
X43961060Y-36404255D01*
X43972023Y-36516432D01*
X43982167Y-36620299D01*
X43991453Y-36715455D01*
X43999842Y-36801503D01*
X44007295Y-36878040D01*
X44013772Y-36944668D01*
X44019235Y-37000986D01*
X44023645Y-37046595D01*
X44026962Y-37081094D01*
X44029148Y-37104085D01*
X44030163Y-37115166D01*
X44030234Y-37116145D01*
X44033370Y-37122217D01*
X44043162Y-37132162D01*
X44060318Y-37146536D01*
X44085544Y-37165893D01*
X44119550Y-37190789D01*
X44163043Y-37221778D01*
X44181717Y-37234924D01*
X44222575Y-37263618D01*
X44262316Y-37291536D01*
X44299158Y-37317424D01*
X44331319Y-37340032D01*
X44357018Y-37358108D01*
X44374474Y-37370398D01*
X44375900Y-37371403D01*
X44395041Y-37384166D01*
X44407941Y-37391253D01*
X44413051Y-37391876D01*
X44412579Y-37390158D01*
X44407387Y-37381315D01*
X44396757Y-37363809D01*
X44381881Y-37339579D01*
X44363947Y-37310565D01*
X44346446Y-37282399D01*
X44327222Y-37251053D01*
X44310552Y-37222953D01*
X44297498Y-37199967D01*
X44289122Y-37183960D01*
X44286462Y-37177025D01*
X44288044Y-37166502D01*
X44292157Y-37148229D01*
X44297002Y-37129550D01*
X44302491Y-37103037D01*
X44305783Y-37070324D01*
X44307096Y-37028815D01*
X44307121Y-37009869D01*
X44306522Y-36998010D01*
X44304822Y-36974311D01*
X44302076Y-36939380D01*
X44298340Y-36893824D01*
X44293668Y-36838254D01*
X44288117Y-36773278D01*
X44281741Y-36699504D01*
X44274595Y-36617541D01*
X44266736Y-36527997D01*
X44258219Y-36431481D01*
X44249098Y-36328603D01*
X44239430Y-36219969D01*
X44229269Y-36106190D01*
X44218671Y-35987873D01*
X44207692Y-35865628D01*
X44196386Y-35740063D01*
X44184809Y-35611786D01*
X44173016Y-35481406D01*
X44161063Y-35349532D01*
X44149005Y-35216772D01*
X44136897Y-35083736D01*
X44124796Y-34951031D01*
X44112755Y-34819266D01*
X44100830Y-34689050D01*
X44089078Y-34560992D01*
X44077552Y-34435700D01*
X44066309Y-34313783D01*
X44055404Y-34195849D01*
X44044892Y-34082507D01*
X44034828Y-33974366D01*
X44025269Y-33872034D01*
X44016268Y-33776120D01*
X44007883Y-33687233D01*
X44000167Y-33605981D01*
X43993176Y-33532972D01*
X43986966Y-33468816D01*
X43981592Y-33414121D01*
X43977109Y-33369496D01*
X43973573Y-33335548D01*
X43971038Y-33312888D01*
X43970555Y-33308958D01*
X43963588Y-33256790D01*
X43955194Y-33198500D01*
X43945750Y-33136361D01*
X43935634Y-33072649D01*
X43925222Y-33009640D01*
X43914892Y-32949610D01*
X43905020Y-32894832D01*
X43900287Y-32870087D01*
X43988694Y-32870087D01*
X43988728Y-32876955D01*
X43990621Y-32894554D01*
X43994149Y-32921286D01*
X43999089Y-32955556D01*
X44005219Y-32995764D01*
X44012314Y-33040314D01*
X44013497Y-33047571D01*
X44021570Y-33097693D01*
X44029503Y-33148290D01*
X44036899Y-33196724D01*
X44043359Y-33240356D01*
X44048486Y-33276549D01*
X44051508Y-33299581D01*
X44053710Y-33319236D01*
X44056907Y-33350326D01*
X44061045Y-33392244D01*
X44066071Y-33444382D01*
X44071930Y-33506133D01*
X44078568Y-33576889D01*
X44085931Y-33656044D01*
X44093965Y-33742990D01*
X44102615Y-33837120D01*
X44111829Y-33937825D01*
X44121551Y-34044499D01*
X44131728Y-34156534D01*
X44142305Y-34273324D01*
X44153228Y-34394260D01*
X44164444Y-34518735D01*
X44175898Y-34646142D01*
X44187535Y-34775874D01*
X44199303Y-34907322D01*
X44211147Y-35039881D01*
X44223013Y-35172941D01*
X44234846Y-35305897D01*
X44246593Y-35438140D01*
X44258199Y-35569063D01*
X44269611Y-35698059D01*
X44280774Y-35824521D01*
X44291635Y-35947840D01*
X44302138Y-36067411D01*
X44312231Y-36182624D01*
X44321858Y-36292874D01*
X44330967Y-36397552D01*
X44339502Y-36496051D01*
X44347410Y-36587764D01*
X44354636Y-36672084D01*
X44361127Y-36748402D01*
X44366829Y-36816112D01*
X44371686Y-36874607D01*
X44375646Y-36923278D01*
X44378654Y-36961519D01*
X44380656Y-36988722D01*
X44381598Y-37004280D01*
X44381667Y-37006743D01*
X44381151Y-37041939D01*
X44379471Y-37077452D01*
X44376902Y-37108777D01*
X44374241Y-37128648D01*
X44366449Y-37172409D01*
X44492836Y-37375584D01*
X44521390Y-37421380D01*
X44548149Y-37464093D01*
X44572334Y-37502497D01*
X44593166Y-37535361D01*
X44609865Y-37561457D01*
X44621653Y-37579557D01*
X44627749Y-37588432D01*
X44628112Y-37588878D01*
X44639149Y-37595225D01*
X44659597Y-37601536D01*
X44685224Y-37606673D01*
X44703764Y-37610701D01*
X44732072Y-37618246D01*
X44768114Y-37628699D01*
X44809857Y-37641451D01*
X44855265Y-37655894D01*
X44902304Y-37671419D01*
X44908491Y-37673505D01*
X45108945Y-37738009D01*
X45301992Y-37793453D01*
X45488616Y-37840047D01*
X45669801Y-37878001D01*
X45846529Y-37907524D01*
X46019784Y-37928826D01*
X46158798Y-37940233D01*
X46190055Y-37941629D01*
X46231078Y-37942589D01*
X46279138Y-37943127D01*
X46331507Y-37943258D01*
X46385455Y-37942995D01*
X46438255Y-37942353D01*
X46487176Y-37941347D01*
X46529490Y-37939990D01*
X46562469Y-37938297D01*
X46565148Y-37938109D01*
X46697795Y-37924703D01*
X46830953Y-37903850D01*
X46962474Y-37876106D01*
X47090213Y-37842025D01*
X47212022Y-37802164D01*
X47325755Y-37757076D01*
X47400510Y-37722153D01*
X47427605Y-37707949D01*
X47458904Y-37690524D01*
X47492702Y-37670940D01*
X47527290Y-37650259D01*
X47560965Y-37629545D01*
X47592018Y-37609859D01*
X47618744Y-37592263D01*
X47639437Y-37577821D01*
X47652390Y-37567594D01*
X47656042Y-37563044D01*
X47653617Y-37555573D01*
X47646750Y-37538216D01*
X47636055Y-37512374D01*
X47622142Y-37479443D01*
X47605626Y-37440821D01*
X47587119Y-37397908D01*
X47567233Y-37352101D01*
X47546580Y-37304798D01*
X47525774Y-37257398D01*
X47505426Y-37211298D01*
X47486149Y-37167896D01*
X47468557Y-37128591D01*
X47453260Y-37094780D01*
X47440873Y-37067863D01*
X47432007Y-37049236D01*
X47427275Y-37040299D01*
X47426763Y-37039719D01*
X47419683Y-37042450D01*
X47404679Y-37051384D01*
X47383811Y-37065199D01*
X47359141Y-37082576D01*
X47353835Y-37086433D01*
X47276372Y-37138417D01*
X47188823Y-37188943D01*
X47093597Y-37236905D01*
X46993105Y-37281195D01*
X46889758Y-37320705D01*
X46785968Y-37354328D01*
X46746443Y-37365457D01*
X46633795Y-37393125D01*
X46521667Y-37415081D01*
X46407595Y-37431623D01*
X46289118Y-37443046D01*
X46163773Y-37449649D01*
X46030642Y-37451727D01*
X45832074Y-37446430D01*
X45637918Y-37430456D01*
X45446137Y-37403513D01*
X45254698Y-37365310D01*
X45061563Y-37315554D01*
X45043066Y-37310220D01*
X44999452Y-37297155D01*
X44953490Y-37282730D01*
X44906848Y-37267531D01*
X44861196Y-37252146D01*
X44818203Y-37237164D01*
X44779540Y-37223171D01*
X44746875Y-37210756D01*
X44721879Y-37200506D01*
X44706220Y-37193009D01*
X44702130Y-37190211D01*
X44695914Y-37178842D01*
X44690920Y-37160996D01*
X44690247Y-37156921D01*
X44827308Y-37156921D01*
X44835826Y-37162684D01*
X44855032Y-37170987D01*
X44883468Y-37181403D01*
X44919674Y-37193504D01*
X44962193Y-37206863D01*
X45009567Y-37221052D01*
X45060337Y-37235645D01*
X45113045Y-37250213D01*
X45166233Y-37264329D01*
X45218442Y-37277566D01*
X45268214Y-37289496D01*
X45314092Y-37299692D01*
X45315187Y-37299923D01*
X45481437Y-37330699D01*
X45649768Y-37353573D01*
X45817855Y-37368385D01*
X45983375Y-37374971D01*
X46144004Y-37373170D01*
X46262923Y-37365963D01*
X46421438Y-37347905D01*
X46576659Y-37320775D01*
X46726699Y-37284994D01*
X46869668Y-37240984D01*
X46940240Y-37215122D01*
X46984260Y-37197736D01*
X47018474Y-37183584D01*
X47042573Y-37172832D01*
X47056247Y-37165651D01*
X47059187Y-37162209D01*
X47051083Y-37162675D01*
X47031625Y-37167217D01*
X47024636Y-37169096D01*
X47001830Y-37174425D01*
X46968895Y-37180873D01*
X46928118Y-37188089D01*
X46881785Y-37195722D01*
X46832185Y-37203422D01*
X46781603Y-37210835D01*
X46732327Y-37217612D01*
X46686645Y-37223402D01*
X46646843Y-37227851D01*
X46633915Y-37229102D01*
X46571692Y-37233624D01*
X46500367Y-37236836D01*
X46423276Y-37238718D01*
X46343755Y-37239247D01*
X46265137Y-37238404D01*
X46190759Y-37236167D01*
X46123956Y-37232515D01*
X46121289Y-37232325D01*
X45948942Y-37215321D01*
X45772380Y-37189155D01*
X45595043Y-37154531D01*
X45420368Y-37112155D01*
X45251797Y-37062729D01*
X45185936Y-37040829D01*
X45082038Y-37005012D01*
X44953149Y-37078501D01*
X44917162Y-37099288D01*
X44885301Y-37118207D01*
X44859022Y-37134351D01*
X44839782Y-37146811D01*
X44829037Y-37154681D01*
X44827308Y-37156921D01*
X44690247Y-37156921D01*
X44689953Y-37155142D01*
X44688825Y-37144415D01*
X44686725Y-37121836D01*
X44683704Y-37088014D01*
X44679813Y-37043560D01*
X44675102Y-36989083D01*
X44669622Y-36925192D01*
X44663423Y-36852496D01*
X44656556Y-36771606D01*
X44649072Y-36683131D01*
X44641021Y-36587679D01*
X44632453Y-36485862D01*
X44623420Y-36378287D01*
X44613971Y-36265566D01*
X44604158Y-36148306D01*
X44594031Y-36027118D01*
X44583640Y-35902612D01*
X44573037Y-35775396D01*
X44562271Y-35646080D01*
X44551394Y-35515273D01*
X44540455Y-35383586D01*
X44529506Y-35251628D01*
X44518597Y-35120007D01*
X44507779Y-34989334D01*
X44497102Y-34860218D01*
X44486617Y-34733269D01*
X44476374Y-34609096D01*
X44466424Y-34488309D01*
X44456818Y-34371516D01*
X44447606Y-34259328D01*
X44438839Y-34152354D01*
X44430567Y-34051204D01*
X44422841Y-33956486D01*
X44415711Y-33868812D01*
X44409229Y-33788789D01*
X44403444Y-33717027D01*
X44398407Y-33654137D01*
X44394169Y-33600727D01*
X44390781Y-33557407D01*
X44388292Y-33524787D01*
X44386754Y-33503476D01*
X44386316Y-33496504D01*
X44384121Y-33448976D01*
X44382162Y-33393647D01*
X44380567Y-33335220D01*
X44379466Y-33278398D01*
X44379453Y-33277074D01*
X44461545Y-33277074D01*
X44462022Y-33327580D01*
X44463020Y-33379682D01*
X44464544Y-33431825D01*
X44466598Y-33482451D01*
X44467952Y-33509007D01*
X44468923Y-33523621D01*
X44470852Y-33549832D01*
X44473691Y-33587028D01*
X44477387Y-33634593D01*
X44481892Y-33691914D01*
X44487155Y-33758378D01*
X44493126Y-33833369D01*
X44499754Y-33916273D01*
X44506990Y-34006478D01*
X44514784Y-34103367D01*
X44523084Y-34206329D01*
X44531842Y-34314748D01*
X44541007Y-34428010D01*
X44550529Y-34545501D01*
X44560357Y-34666608D01*
X44570442Y-34790716D01*
X44580733Y-34917211D01*
X44591181Y-35045479D01*
X44601734Y-35174906D01*
X44612344Y-35304878D01*
X44622959Y-35434781D01*
X44633529Y-35564001D01*
X44644005Y-35691923D01*
X44654337Y-35817934D01*
X44664473Y-35941419D01*
X44674364Y-36061766D01*
X44683960Y-36178358D01*
X44693211Y-36290583D01*
X44702066Y-36397826D01*
X44710475Y-36499474D01*
X44718389Y-36594911D01*
X44725757Y-36683525D01*
X44732528Y-36764701D01*
X44738653Y-36837825D01*
X44744082Y-36902282D01*
X44748764Y-36957460D01*
X44752649Y-37002743D01*
X44755687Y-37037518D01*
X44757829Y-37061171D01*
X44759022Y-37073087D01*
X44759134Y-37073947D01*
X44762312Y-37090009D01*
X44765764Y-37099165D01*
X44766978Y-37100013D01*
X44773273Y-37096861D01*
X44788841Y-37088273D01*
X44812156Y-37075114D01*
X44841693Y-37058249D01*
X44875925Y-37038544D01*
X44902239Y-37023307D01*
X44943483Y-36999271D01*
X44975137Y-36980497D01*
X44998483Y-36966072D01*
X45014801Y-36955083D01*
X45025374Y-36946617D01*
X45031482Y-36939761D01*
X45034407Y-36933601D01*
X45035326Y-36928474D01*
X45035010Y-36920737D01*
X45033781Y-36901041D01*
X45031677Y-36869893D01*
X45028734Y-36827801D01*
X45024990Y-36775271D01*
X45020483Y-36712812D01*
X45015250Y-36640930D01*
X45009330Y-36560134D01*
X45002759Y-36470930D01*
X44995575Y-36373826D01*
X44987815Y-36269330D01*
X44979518Y-36157948D01*
X44970721Y-36040189D01*
X44961461Y-35916560D01*
X44951776Y-35787568D01*
X44941704Y-35653721D01*
X44931281Y-35515525D01*
X44920547Y-35373490D01*
X44909537Y-35228121D01*
X44905512Y-35175042D01*
X44891334Y-34987999D01*
X44878095Y-34812961D01*
X44865766Y-34649469D01*
X44854313Y-34497062D01*
X44843708Y-34355282D01*
X44833917Y-34223667D01*
X44824912Y-34101759D01*
X44816661Y-33989096D01*
X44809132Y-33885221D01*
X44802295Y-33789672D01*
X44796119Y-33701989D01*
X44790572Y-33621714D01*
X44785625Y-33548385D01*
X44781246Y-33481544D01*
X44777404Y-33420730D01*
X44774068Y-33365483D01*
X44771207Y-33315344D01*
X44768790Y-33269852D01*
X44766787Y-33228548D01*
X44765166Y-33190973D01*
X44763896Y-33156665D01*
X44762947Y-33125165D01*
X44762287Y-33096014D01*
X44761885Y-33068751D01*
X44761711Y-33042917D01*
X44761702Y-33038579D01*
X44761445Y-33008036D01*
X44760826Y-32982571D01*
X44759933Y-32964483D01*
X44758852Y-32956071D01*
X44758586Y-32955746D01*
X44751925Y-32958349D01*
X44735895Y-32965562D01*
X44712357Y-32976491D01*
X44683170Y-32990244D01*
X44650191Y-33005927D01*
X44615282Y-33022646D01*
X44580299Y-33039509D01*
X44547103Y-33055623D01*
X44517553Y-33070093D01*
X44493507Y-33082026D01*
X44476825Y-33090530D01*
X44469365Y-33094710D01*
X44469320Y-33094746D01*
X44466783Y-33102980D01*
X44464736Y-33122152D01*
X44463183Y-33150704D01*
X44462130Y-33187079D01*
X44461582Y-33229722D01*
X44461545Y-33277074D01*
X44379453Y-33277074D01*
X44379006Y-33232289D01*
X44378440Y-33093104D01*
X44305882Y-33050324D01*
X44235929Y-33009137D01*
X44176092Y-32974039D01*
X44125765Y-32944686D01*
X44084342Y-32920735D01*
X44051219Y-32901840D01*
X44025790Y-32887657D01*
X44007449Y-32877844D01*
X43995591Y-32872055D01*
X43989611Y-32869946D01*
X43988694Y-32870087D01*
X43900287Y-32870087D01*
X43895983Y-32847583D01*
X43888159Y-32810137D01*
X43887190Y-32805844D01*
X43884432Y-32793101D01*
X43883385Y-32783982D01*
X44020772Y-32783982D01*
X44025985Y-32788696D01*
X44040645Y-32798656D01*
X44063286Y-32813008D01*
X44092440Y-32830898D01*
X44126639Y-32851474D01*
X44164416Y-32873883D01*
X44204304Y-32897271D01*
X44244835Y-32920785D01*
X44284543Y-32943572D01*
X44321959Y-32964778D01*
X44355617Y-32983551D01*
X44384048Y-32999037D01*
X44405787Y-33010383D01*
X44419364Y-33016736D01*
X44422887Y-33017795D01*
X44432510Y-33015320D01*
X44451586Y-33008124D01*
X44478332Y-32996966D01*
X44510962Y-32982602D01*
X44547691Y-32965792D01*
X44569798Y-32955397D01*
X44607512Y-32937379D01*
X44641487Y-32920937D01*
X44670074Y-32906887D01*
X44691627Y-32896042D01*
X44704497Y-32889218D01*
X44707360Y-32887398D01*
X44706327Y-32880922D01*
X44697081Y-32871665D01*
X44694857Y-32870057D01*
X44681661Y-32861608D01*
X44660148Y-32848616D01*
X44631832Y-32831939D01*
X44598228Y-32812431D01*
X44560853Y-32790950D01*
X44521222Y-32768352D01*
X44480850Y-32745493D01*
X44441252Y-32723229D01*
X44403944Y-32702415D01*
X44370441Y-32683910D01*
X44342259Y-32668567D01*
X44320913Y-32657245D01*
X44307918Y-32650798D01*
X44304706Y-32649626D01*
X44296157Y-32652249D01*
X44278649Y-32659372D01*
X44254046Y-32670112D01*
X44224212Y-32683589D01*
X44191009Y-32698919D01*
X44156301Y-32715222D01*
X44121952Y-32731616D01*
X44089825Y-32747219D01*
X44061783Y-32761149D01*
X44039690Y-32772524D01*
X44025409Y-32780463D01*
X44020772Y-32783982D01*
X43883385Y-32783982D01*
X43883187Y-32782259D01*
X43884456Y-32772582D01*
X43889239Y-32763331D01*
X43898536Y-32753770D01*
X43913348Y-32743162D01*
X43934675Y-32730771D01*
X43963518Y-32715859D01*
X44000877Y-32697689D01*
X44047751Y-32675524D01*
X44092665Y-32654473D01*
X44139486Y-32632776D01*
X44183358Y-32612885D01*
X44222845Y-32595420D01*
X44256507Y-32580998D01*
X44282907Y-32570238D01*
X44300608Y-32563758D01*
X44307518Y-32562072D01*
X44316667Y-32565089D01*
X44335224Y-32573707D01*
X44361838Y-32587165D01*
X44395156Y-32604698D01*
X44433823Y-32625543D01*
X44476489Y-32648936D01*
X44521800Y-32674115D01*
X44568404Y-32700316D01*
X44614947Y-32726776D01*
X44660078Y-32752731D01*
X44702443Y-32777419D01*
X44740689Y-32800075D01*
X44773465Y-32819937D01*
X44799417Y-32836242D01*
X44817192Y-32848225D01*
X44823758Y-32853370D01*
X44845303Y-32872899D01*
X44846836Y-33106558D01*
X44847716Y-33191891D01*
X44849261Y-33268510D01*
X44851619Y-33340193D01*
X44854935Y-33410719D01*
X44859359Y-33483864D01*
X44864237Y-33552768D01*
X44866130Y-33578198D01*
X44868896Y-33615473D01*
X44872490Y-33663968D01*
X44876865Y-33723058D01*
X44881975Y-33792119D01*
X44887774Y-33870526D01*
X44894216Y-33957654D01*
X44901254Y-34052880D01*
X44908844Y-34155577D01*
X44916937Y-34265123D01*
X44925488Y-34380892D01*
X44934452Y-34502259D01*
X44943782Y-34628600D01*
X44953431Y-34759290D01*
X44963354Y-34893705D01*
X44973504Y-35031220D01*
X44983835Y-35171211D01*
X44994302Y-35313052D01*
X44996112Y-35337582D01*
X45006398Y-35476891D01*
X45016462Y-35612997D01*
X45026263Y-35745368D01*
X45035762Y-35873475D01*
X45044920Y-35996784D01*
X45053696Y-36114764D01*
X45062050Y-36226884D01*
X45069943Y-36332612D01*
X45077335Y-36431417D01*
X45084186Y-36522767D01*
X45090456Y-36606130D01*
X45096105Y-36680976D01*
X45101094Y-36746772D01*
X45105382Y-36802986D01*
X45108931Y-36849089D01*
X45111699Y-36884546D01*
X45113647Y-36908829D01*
X45114736Y-36921404D01*
X45114930Y-36923084D01*
X45117865Y-36928685D01*
X45125294Y-36934552D01*
X45138791Y-36941406D01*
X45159931Y-36949968D01*
X45190286Y-36960962D01*
X45219416Y-36971022D01*
X45399493Y-37027126D01*
X45581790Y-37073478D01*
X45765317Y-37110027D01*
X45949089Y-37136723D01*
X46132116Y-37153516D01*
X46313411Y-37160356D01*
X46338817Y-37159906D01*
X47062145Y-37159906D01*
X47065271Y-37163031D01*
X47068397Y-37159906D01*
X47065271Y-37156780D01*
X47062145Y-37159906D01*
X46338817Y-37159906D01*
X46491986Y-37157193D01*
X46666853Y-37143977D01*
X46837024Y-37120658D01*
X47001512Y-37087186D01*
X47085073Y-37065583D01*
X47140499Y-37049340D01*
X47195107Y-37031836D01*
X47247104Y-37013756D01*
X47294699Y-36995787D01*
X47330900Y-36980770D01*
X47504563Y-36980770D01*
X47506239Y-36986974D01*
X47512308Y-37003246D01*
X47522177Y-37028188D01*
X47535254Y-37060404D01*
X47550948Y-37098494D01*
X47568664Y-37141061D01*
X47587812Y-37186707D01*
X47607799Y-37234034D01*
X47628033Y-37281645D01*
X47647920Y-37328141D01*
X47666870Y-37372125D01*
X47684289Y-37412199D01*
X47699586Y-37446964D01*
X47712168Y-37475024D01*
X47721442Y-37494979D01*
X47726817Y-37505433D01*
X47727004Y-37505729D01*
X47736561Y-37511036D01*
X47741894Y-37510298D01*
X47749627Y-37506093D01*
X47766420Y-37496166D01*
X47790746Y-37481447D01*
X47821076Y-37462865D01*
X47855884Y-37441350D01*
X47888233Y-37421213D01*
X47931416Y-37394054D01*
X47964849Y-37372534D01*
X47989544Y-37355926D01*
X48006508Y-37343499D01*
X48016754Y-37334523D01*
X48021290Y-37328271D01*
X48021553Y-37324931D01*
X48017166Y-37313223D01*
X48008603Y-37292226D01*
X47996478Y-37263341D01*
X47981408Y-37227973D01*
X47964006Y-37187522D01*
X47944889Y-37143393D01*
X47924673Y-37096987D01*
X47903971Y-37049706D01*
X47883400Y-37002955D01*
X47863575Y-36958134D01*
X47845112Y-36916646D01*
X47828625Y-36879895D01*
X47814729Y-36849282D01*
X47804041Y-36826210D01*
X47797176Y-36812082D01*
X47794836Y-36808156D01*
X47788529Y-36810831D01*
X47773275Y-36819018D01*
X47750787Y-36831696D01*
X47722780Y-36847848D01*
X47690969Y-36866453D01*
X47657067Y-36886492D01*
X47622789Y-36906945D01*
X47589849Y-36926794D01*
X47559962Y-36945019D01*
X47534841Y-36960599D01*
X47516200Y-36972517D01*
X47505755Y-36979752D01*
X47504563Y-36980770D01*
X47330900Y-36980770D01*
X47336097Y-36978614D01*
X47369507Y-36962923D01*
X47393136Y-36949401D01*
X47398133Y-36945805D01*
X47408554Y-36938619D01*
X47428105Y-36926004D01*
X47455217Y-36908916D01*
X47488322Y-36888309D01*
X47525849Y-36865141D01*
X47566231Y-36840367D01*
X47607898Y-36814943D01*
X47649282Y-36789825D01*
X47688814Y-36765968D01*
X47724925Y-36744328D01*
X47756045Y-36725861D01*
X47780607Y-36711523D01*
X47797041Y-36702270D01*
X47802274Y-36699590D01*
X47818118Y-36696151D01*
X47834476Y-36701300D01*
X47838875Y-36704368D01*
X47843894Y-36710033D01*
X47849970Y-36719216D01*
X47857539Y-36732839D01*
X47867036Y-36751823D01*
X47878899Y-36777090D01*
X47893564Y-36809561D01*
X47911465Y-36850158D01*
X47933041Y-36899804D01*
X47958726Y-36959418D01*
X47979029Y-37006743D01*
X48003975Y-37065017D01*
X48027700Y-37120543D01*
X48049693Y-37172117D01*
X48069443Y-37218538D01*
X48086438Y-37258603D01*
X48100170Y-37291110D01*
X48110127Y-37314858D01*
X48115799Y-37328643D01*
X48116529Y-37330499D01*
X48126788Y-37357307D01*
X48108656Y-37376688D01*
X48095703Y-37388031D01*
X48073193Y-37404944D01*
X48042346Y-37426660D01*
X48004384Y-37452412D01*
X47960527Y-37481433D01*
X47911996Y-37512955D01*
X47860012Y-37546211D01*
X47805794Y-37580434D01*
X47750565Y-37614857D01*
X47695545Y-37648713D01*
X47641955Y-37681233D01*
X47591015Y-37711652D01*
X47543946Y-37739202D01*
X47501969Y-37763116D01*
X47466305Y-37782626D01*
X47446184Y-37793034D01*
X47307340Y-37855681D01*
X47161033Y-37908553D01*
X47007649Y-37951611D01*
X46847574Y-37984814D01*
X46681193Y-38008120D01*
X46508892Y-38021490D01*
X46331057Y-38024880D01*
X46148074Y-38018252D01*
X45960329Y-38001564D01*
X45768207Y-37974774D01*
X45754705Y-37972537D01*
X45652511Y-37954027D01*
X45544546Y-37931913D01*
X45433816Y-37906932D01*
X45323324Y-37879824D01*
X45216073Y-37851327D01*
X45115067Y-37822182D01*
X45023309Y-37793126D01*
X45017035Y-37791022D01*
X44990892Y-37782474D01*
X44969500Y-37775963D01*
X44955376Y-37772224D01*
X44950996Y-37771728D01*
X44955880Y-37775448D01*
X44970626Y-37786094D01*
X44994864Y-37803408D01*
X45028224Y-37827127D01*
X45070336Y-37856992D01*
X45120832Y-37892743D01*
X45179343Y-37934118D01*
X45245498Y-37980857D01*
X45318928Y-38032700D01*
X45399264Y-38089386D01*
X45486137Y-38150655D01*
X45579176Y-38216246D01*
X45678014Y-38285899D01*
X45782279Y-38359353D01*
X45891604Y-38436347D01*
X46005617Y-38516622D01*
X46123951Y-38599916D01*
X46246236Y-38685969D01*
X46372101Y-38774521D01*
X46501178Y-38865311D01*
X46633098Y-38958079D01*
X46700953Y-39005787D01*
X48453113Y-40237642D01*
X48453884Y-39342738D01*
X49160661Y-39342738D01*
X49269501Y-39415850D01*
X49378340Y-39488963D01*
X49382740Y-39390322D01*
X49383474Y-39370299D01*
X49384416Y-39338766D01*
X49385544Y-39296716D01*
X49386836Y-39245140D01*
X49388269Y-39185030D01*
X49389821Y-39117376D01*
X49391469Y-39043172D01*
X49393191Y-38963407D01*
X49394963Y-38879075D01*
X49396765Y-38791166D01*
X49398573Y-38700673D01*
X49399790Y-38638395D01*
X49401593Y-38546031D01*
X49403396Y-38455110D01*
X49405176Y-38366674D01*
X49406912Y-38281763D01*
X49408581Y-38201418D01*
X49410161Y-38126680D01*
X49411631Y-38058590D01*
X49412967Y-37998188D01*
X49414149Y-37946517D01*
X49415152Y-37904615D01*
X49415957Y-37873525D01*
X49416347Y-37860078D01*
X49417313Y-37822446D01*
X49417744Y-37789795D01*
X49417652Y-37763905D01*
X49417048Y-37746559D01*
X49415941Y-37739535D01*
X49415633Y-37739551D01*
X49411841Y-37746416D01*
X49403926Y-37762978D01*
X49392705Y-37787449D01*
X49378996Y-37818040D01*
X49363616Y-37852962D01*
X49359912Y-37861456D01*
X49324631Y-37941745D01*
X49293123Y-38011839D01*
X49265497Y-38071516D01*
X49241862Y-38120555D01*
X49222326Y-38158733D01*
X49206999Y-38185829D01*
X49195988Y-38201619D01*
X49191304Y-38205669D01*
X49177191Y-38212099D01*
X49173074Y-38433061D01*
X49172161Y-38484582D01*
X49171145Y-38546273D01*
X49170060Y-38615803D01*
X49168940Y-38690841D01*
X49167820Y-38769055D01*
X49166733Y-38848113D01*
X49165714Y-38925683D01*
X49164810Y-38998381D01*
X49160661Y-39342738D01*
X48453884Y-39342738D01*
X48455063Y-37973595D01*
X48455200Y-37798643D01*
X48455227Y-37754944D01*
X48820722Y-37754944D01*
X48822560Y-37763103D01*
X48828807Y-37776634D01*
X48832005Y-37782891D01*
X48840224Y-37800190D01*
X48851273Y-37825343D01*
X48863504Y-37854528D01*
X48871954Y-37875484D01*
X48897853Y-37940901D01*
X48988060Y-37998868D01*
X49023114Y-38021276D01*
X49049041Y-38037505D01*
X49067140Y-38048271D01*
X49078712Y-38054292D01*
X49085059Y-38056285D01*
X49087482Y-38054966D01*
X49087644Y-38053762D01*
X49084810Y-38045853D01*
X49077138Y-38029395D01*
X49065869Y-38006761D01*
X49052244Y-37980327D01*
X49037506Y-37952469D01*
X49022896Y-37925560D01*
X49009656Y-37901976D01*
X48999029Y-37884091D01*
X48998418Y-37883120D01*
X48985172Y-37863615D01*
X48971591Y-37847795D01*
X48954765Y-37832971D01*
X48931783Y-37816452D01*
X48912636Y-37803837D01*
X48907405Y-37800478D01*
X49050135Y-37800478D01*
X49053297Y-37808578D01*
X49061574Y-37823757D01*
X49072823Y-37842165D01*
X49084008Y-37861065D01*
X49098772Y-37888020D01*
X49115380Y-37919767D01*
X49132097Y-37953041D01*
X49136017Y-37961066D01*
X49150567Y-37990327D01*
X49163542Y-38015104D01*
X49173859Y-38033426D01*
X49180432Y-38043320D01*
X49181906Y-38044498D01*
X49186463Y-38038913D01*
X49195221Y-38022958D01*
X49207647Y-37997838D01*
X49223212Y-37964757D01*
X49241382Y-37924919D01*
X49261626Y-37879527D01*
X49283413Y-37829786D01*
X49306211Y-37776899D01*
X49329488Y-37722070D01*
X49352712Y-37666504D01*
X49375353Y-37611403D01*
X49396877Y-37557973D01*
X49397928Y-37555334D01*
X49434604Y-37463142D01*
X49460408Y-37463124D01*
X49478202Y-37464886D01*
X49490781Y-37469299D01*
X49492686Y-37470920D01*
X49496026Y-37480562D01*
X49499059Y-37499098D01*
X49501232Y-37522922D01*
X49501552Y-37528746D01*
X49501691Y-37540726D01*
X49501559Y-37564471D01*
X49501169Y-37599245D01*
X49500535Y-37644312D01*
X49499670Y-37698938D01*
X49498588Y-37762388D01*
X49497302Y-37833925D01*
X49495826Y-37912815D01*
X49494173Y-37998322D01*
X49492357Y-38089711D01*
X49490391Y-38186247D01*
X49488290Y-38287194D01*
X49486065Y-38391817D01*
X49483732Y-38499381D01*
X49483494Y-38510238D01*
X49480652Y-38639602D01*
X49478071Y-38757039D01*
X49475739Y-38863121D01*
X49473647Y-38958421D01*
X49471785Y-39043513D01*
X49470141Y-39118969D01*
X49468705Y-39185362D01*
X49467468Y-39243264D01*
X49466418Y-39293249D01*
X49465546Y-39335889D01*
X49464841Y-39371758D01*
X49464293Y-39401427D01*
X49463891Y-39425471D01*
X49463626Y-39444461D01*
X49463486Y-39458970D01*
X49463462Y-39469573D01*
X49463542Y-39476840D01*
X49463718Y-39481345D01*
X49463978Y-39483662D01*
X49464311Y-39484362D01*
X49464709Y-39484018D01*
X49465160Y-39483204D01*
X49465654Y-39482493D01*
X49465947Y-39482352D01*
X49471780Y-39478923D01*
X49486319Y-39469325D01*
X49508050Y-39454587D01*
X49535457Y-39435741D01*
X49567026Y-39413818D01*
X49581575Y-39403652D01*
X49614612Y-39380367D01*
X49644167Y-39359235D01*
X49668702Y-39341382D01*
X49686677Y-39327934D01*
X49696551Y-39320016D01*
X49697904Y-39318623D01*
X49699062Y-39311077D01*
X49700570Y-39292528D01*
X49702346Y-39264466D01*
X49704307Y-39228385D01*
X49706371Y-39185774D01*
X49708455Y-39138128D01*
X49709989Y-39099794D01*
X49712277Y-39041837D01*
X49714293Y-38995096D01*
X49716145Y-38958290D01*
X49717944Y-38930135D01*
X49719799Y-38909352D01*
X49721819Y-38894658D01*
X49724114Y-38884772D01*
X49726794Y-38878412D01*
X49729198Y-38875101D01*
X49735846Y-38869858D01*
X49752068Y-38858046D01*
X49777130Y-38840176D01*
X49810300Y-38816760D01*
X49850847Y-38788309D01*
X49898037Y-38755334D01*
X49951140Y-38718348D01*
X50009421Y-38677861D01*
X50072150Y-38634384D01*
X50138594Y-38588430D01*
X50179884Y-38559931D01*
X50914145Y-38559931D01*
X50920851Y-38561433D01*
X50937072Y-38563996D01*
X50959912Y-38567178D01*
X50972483Y-38568809D01*
X51000130Y-38572691D01*
X51025133Y-38576864D01*
X51043355Y-38580615D01*
X51047501Y-38581738D01*
X51060401Y-38585310D01*
X51070979Y-38586248D01*
X51080450Y-38583298D01*
X51090026Y-38575207D01*
X51100919Y-38560720D01*
X51114343Y-38538584D01*
X51131510Y-38507543D01*
X51146867Y-38478980D01*
X51253360Y-38269222D01*
X51351710Y-38052689D01*
X51442019Y-37829015D01*
X51524389Y-37597834D01*
X51566830Y-37461715D01*
X52213413Y-37461715D01*
X52321252Y-37524766D01*
X52354323Y-37544001D01*
X52383681Y-37560885D01*
X52407638Y-37574461D01*
X52424501Y-37583774D01*
X52432583Y-37587868D01*
X52432972Y-37587977D01*
X52435672Y-37582417D01*
X52438681Y-37567851D01*
X52440423Y-37554901D01*
X52513797Y-37554901D01*
X52514269Y-37565438D01*
X52517504Y-37568530D01*
X52521828Y-37567518D01*
X52529877Y-37562828D01*
X52546375Y-37552028D01*
X52569603Y-37536287D01*
X52597844Y-37516772D01*
X52629377Y-37494649D01*
X52634951Y-37490706D01*
X52672465Y-37463796D01*
X52700598Y-37442750D01*
X52720462Y-37426635D01*
X52733169Y-37414516D01*
X52739832Y-37405459D01*
X52741336Y-37401382D01*
X52742466Y-37392580D01*
X52744656Y-37372165D01*
X52747835Y-37340905D01*
X52751932Y-37299566D01*
X52756876Y-37248915D01*
X52762595Y-37189718D01*
X52769017Y-37122742D01*
X52776072Y-37048754D01*
X52783689Y-36968520D01*
X52791795Y-36882807D01*
X52800320Y-36792381D01*
X52809192Y-36698010D01*
X52818340Y-36600460D01*
X52827692Y-36500497D01*
X52837178Y-36398888D01*
X52846726Y-36296399D01*
X52856265Y-36193798D01*
X52865723Y-36091852D01*
X52875029Y-35991325D01*
X52884111Y-35892986D01*
X52892899Y-35797601D01*
X52901322Y-35705936D01*
X52909307Y-35618758D01*
X52916783Y-35536834D01*
X52923679Y-35460931D01*
X52929925Y-35391814D01*
X52935448Y-35330251D01*
X52940177Y-35277008D01*
X52944041Y-35232852D01*
X52946968Y-35198550D01*
X52948888Y-35174868D01*
X52949728Y-35162573D01*
X52949749Y-35161039D01*
X52948873Y-35155348D01*
X52946705Y-35152105D01*
X52941853Y-35151963D01*
X52932922Y-35155575D01*
X52918518Y-35163593D01*
X52897245Y-35176670D01*
X52867711Y-35195457D01*
X52844818Y-35210145D01*
X52811972Y-35231470D01*
X52782005Y-35251364D01*
X52756814Y-35268534D01*
X52738294Y-35281686D01*
X52728340Y-35289528D01*
X52728069Y-35289789D01*
X52726336Y-35291832D01*
X52724654Y-35294820D01*
X52722967Y-35299302D01*
X52721223Y-35305825D01*
X52719365Y-35314935D01*
X52717339Y-35327181D01*
X52715090Y-35343109D01*
X52712563Y-35363266D01*
X52709705Y-35388200D01*
X52706460Y-35418458D01*
X52702773Y-35454588D01*
X52698590Y-35497135D01*
X52693856Y-35546649D01*
X52688516Y-35603675D01*
X52682515Y-35668762D01*
X52675800Y-35742456D01*
X52668315Y-35825305D01*
X52660005Y-35917856D01*
X52650816Y-36020656D01*
X52640693Y-36134252D01*
X52629581Y-36259192D01*
X52617426Y-36396023D01*
X52617042Y-36400344D01*
X52606690Y-36516873D01*
X52596599Y-36630380D01*
X52586828Y-36740208D01*
X52577434Y-36845701D01*
X52568477Y-36946201D01*
X52560016Y-37041053D01*
X52552110Y-37129600D01*
X52544816Y-37211184D01*
X52538194Y-37285150D01*
X52532303Y-37350841D01*
X52527200Y-37407600D01*
X52522946Y-37454771D01*
X52519598Y-37491697D01*
X52517215Y-37517721D01*
X52515857Y-37532188D01*
X52515628Y-37534458D01*
X52513797Y-37554901D01*
X52440423Y-37554901D01*
X52440788Y-37552190D01*
X52442243Y-37537616D01*
X52444654Y-37511867D01*
X52447954Y-37475711D01*
X52452077Y-37429918D01*
X52456955Y-37375257D01*
X52462522Y-37312496D01*
X52468711Y-37242407D01*
X52475456Y-37165758D01*
X52482691Y-37083317D01*
X52490348Y-36995856D01*
X52498360Y-36904142D01*
X52506662Y-36808946D01*
X52515186Y-36711036D01*
X52523866Y-36611182D01*
X52532636Y-36510153D01*
X52541428Y-36408719D01*
X52550176Y-36307649D01*
X52558813Y-36207712D01*
X52567272Y-36109677D01*
X52575488Y-36014314D01*
X52583393Y-35922393D01*
X52590921Y-35834682D01*
X52598005Y-35751950D01*
X52604578Y-35674968D01*
X52610574Y-35604505D01*
X52615925Y-35541329D01*
X52620567Y-35486210D01*
X52624431Y-35439918D01*
X52627451Y-35403221D01*
X52629561Y-35376890D01*
X52630694Y-35361693D01*
X52630867Y-35358080D01*
X52625344Y-35359063D01*
X52610648Y-35366328D01*
X52587978Y-35379178D01*
X52558538Y-35396919D01*
X52523527Y-35418852D01*
X52500984Y-35433324D01*
X52372827Y-35516272D01*
X52367957Y-35547269D01*
X52366837Y-35557377D01*
X52364788Y-35579071D01*
X52361882Y-35611499D01*
X52358187Y-35653811D01*
X52353774Y-35705155D01*
X52348711Y-35764680D01*
X52343069Y-35831535D01*
X52336918Y-35904867D01*
X52330326Y-35983826D01*
X52323364Y-36067561D01*
X52316102Y-36155220D01*
X52308609Y-36245952D01*
X52300955Y-36338906D01*
X52293209Y-36433229D01*
X52285441Y-36528072D01*
X52277722Y-36622583D01*
X52270120Y-36715909D01*
X52262705Y-36807201D01*
X52255548Y-36895607D01*
X52248717Y-36980275D01*
X52242283Y-37060354D01*
X52236315Y-37134992D01*
X52230882Y-37203340D01*
X52226056Y-37264544D01*
X52221904Y-37317754D01*
X52218497Y-37362119D01*
X52215905Y-37396787D01*
X52214198Y-37420907D01*
X52213444Y-37433627D01*
X52213413Y-37434910D01*
X52213413Y-37461715D01*
X51566830Y-37461715D01*
X51575188Y-37434910D01*
X51598925Y-37358779D01*
X51665728Y-37111485D01*
X51724902Y-36855585D01*
X51776550Y-36590713D01*
X51820774Y-36316503D01*
X51857677Y-36032588D01*
X51872556Y-35895360D01*
X51877333Y-35848809D01*
X51881199Y-35813044D01*
X51884479Y-35786413D01*
X51887503Y-35767260D01*
X51890597Y-35753932D01*
X51894089Y-35744774D01*
X51898306Y-35738132D01*
X51903576Y-35732352D01*
X51905130Y-35730814D01*
X51912367Y-35725457D01*
X51929518Y-35713730D01*
X51955980Y-35696027D01*
X51991150Y-35672740D01*
X52034426Y-35644264D01*
X52085206Y-35610992D01*
X52142886Y-35573315D01*
X52206865Y-35531629D01*
X52276538Y-35486324D01*
X52351305Y-35437796D01*
X52430562Y-35386437D01*
X52513706Y-35332640D01*
X52600135Y-35276798D01*
X52685404Y-35221782D01*
X52774134Y-35164561D01*
X52860002Y-35109169D01*
X52942418Y-35055984D01*
X53020793Y-35005389D01*
X53094539Y-34957764D01*
X53163067Y-34913489D01*
X53225789Y-34872945D01*
X53282114Y-34836514D01*
X53331456Y-34804574D01*
X53373224Y-34777509D01*
X53406830Y-34755697D01*
X53431685Y-34739520D01*
X53447201Y-34729359D01*
X53452782Y-34725600D01*
X53454345Y-34718829D01*
X53456969Y-34701692D01*
X53460413Y-34676256D01*
X53464436Y-34644588D01*
X53468797Y-34608758D01*
X53473255Y-34570834D01*
X53477568Y-34532882D01*
X53481496Y-34496972D01*
X53484797Y-34465172D01*
X53487231Y-34439549D01*
X53488556Y-34422171D01*
X53488727Y-34417296D01*
X53484167Y-34413630D01*
X53479526Y-34414548D01*
X53472361Y-34418594D01*
X53455854Y-34428625D01*
X53431198Y-34443895D01*
X53399588Y-34463656D01*
X53362217Y-34487162D01*
X53320279Y-34513666D01*
X53274968Y-34542421D01*
X53263644Y-34549624D01*
X53205201Y-34586711D01*
X53156385Y-34617258D01*
X53116330Y-34641525D01*
X53084171Y-34659774D01*
X53059044Y-34672265D01*
X53040083Y-34679259D01*
X53026424Y-34681017D01*
X53017201Y-34677800D01*
X53011549Y-34669869D01*
X53008603Y-34657484D01*
X53007499Y-34640907D01*
X53007358Y-34626907D01*
X53007929Y-34616561D01*
X53009583Y-34594692D01*
X53012238Y-34562222D01*
X53013122Y-34551779D01*
X53088628Y-34551779D01*
X53089368Y-34564197D01*
X53093666Y-34566153D01*
X53102694Y-34560948D01*
X53111450Y-34555358D01*
X53129320Y-34544026D01*
X53154840Y-34527877D01*
X53186547Y-34507836D01*
X53222977Y-34484828D01*
X53262668Y-34459778D01*
X53273049Y-34453230D01*
X53313244Y-34427748D01*
X53350420Y-34403939D01*
X53383133Y-34382746D01*
X53409942Y-34365112D01*
X53429404Y-34351979D01*
X53440076Y-34344290D01*
X53441219Y-34343313D01*
X53444802Y-34339316D01*
X53445636Y-34335408D01*
X53442447Y-34330742D01*
X53433964Y-34324470D01*
X53418913Y-34315743D01*
X53396023Y-34303715D01*
X53364020Y-34287537D01*
X53337928Y-34274495D01*
X53222757Y-34217009D01*
X53174473Y-34246806D01*
X53152231Y-34260935D01*
X53133801Y-34273388D01*
X53122024Y-34282214D01*
X53119700Y-34284422D01*
X53117412Y-34292390D01*
X53114240Y-34310548D01*
X53110448Y-34336631D01*
X53106299Y-34368378D01*
X53102056Y-34403528D01*
X53097982Y-34439817D01*
X53094339Y-34474985D01*
X53091391Y-34506768D01*
X53089400Y-34532905D01*
X53088630Y-34551133D01*
X53088628Y-34551779D01*
X53013122Y-34551779D01*
X53015807Y-34520076D01*
X53020207Y-34469177D01*
X53025354Y-34410451D01*
X53031161Y-34344820D01*
X53037546Y-34273208D01*
X53044424Y-34196541D01*
X53051710Y-34115741D01*
X53059319Y-34031733D01*
X53067167Y-33945440D01*
X53075169Y-33857788D01*
X53083241Y-33769699D01*
X53091299Y-33682098D01*
X53099258Y-33595908D01*
X53107032Y-33512055D01*
X53114539Y-33431461D01*
X53121693Y-33355051D01*
X53128409Y-33283749D01*
X53134604Y-33218479D01*
X53140192Y-33160164D01*
X53145089Y-33109730D01*
X53149211Y-33068099D01*
X53152473Y-33036196D01*
X53154791Y-33014945D01*
X53154952Y-33013573D01*
X53156266Y-32993205D01*
X53154526Y-32982173D01*
X53152602Y-32980752D01*
X53144945Y-32983864D01*
X53128711Y-32992436D01*
X53105805Y-33005322D01*
X53078127Y-33021375D01*
X53047581Y-33039451D01*
X53016068Y-33058404D01*
X52985491Y-33077086D01*
X52957752Y-33094353D01*
X52934754Y-33109059D01*
X52918399Y-33120057D01*
X52910588Y-33126202D01*
X52910215Y-33126759D01*
X52909376Y-33133737D01*
X52907505Y-33152448D01*
X52904668Y-33182170D01*
X52900929Y-33222183D01*
X52896355Y-33271764D01*
X52891010Y-33330192D01*
X52884961Y-33396746D01*
X52878272Y-33470703D01*
X52871010Y-33551343D01*
X52863239Y-33637944D01*
X52855025Y-33729783D01*
X52846435Y-33826140D01*
X52837532Y-33926293D01*
X52832403Y-33984124D01*
X52823337Y-34086285D01*
X52814535Y-34185175D01*
X52806063Y-34280061D01*
X52797988Y-34370211D01*
X52790377Y-34454895D01*
X52783295Y-34533379D01*
X52776809Y-34604933D01*
X52770986Y-34668823D01*
X52765892Y-34724319D01*
X52761593Y-34770688D01*
X52758156Y-34807198D01*
X52755648Y-34833118D01*
X52754134Y-34847715D01*
X52753751Y-34850647D01*
X52746921Y-34866058D01*
X52734757Y-34881620D01*
X52733550Y-34882784D01*
X52723500Y-34890601D01*
X52704237Y-34904065D01*
X52676795Y-34922522D01*
X52642210Y-34945323D01*
X52601516Y-34971814D01*
X52555749Y-35001344D01*
X52505944Y-35033260D01*
X52453135Y-35066913D01*
X52398357Y-35101648D01*
X52342647Y-35136816D01*
X52287038Y-35171763D01*
X52232565Y-35205838D01*
X52180264Y-35238389D01*
X52131170Y-35268765D01*
X52086318Y-35296313D01*
X52046742Y-35320382D01*
X52013477Y-35340320D01*
X51987559Y-35355475D01*
X51970023Y-35365196D01*
X51961903Y-35368830D01*
X51961750Y-35368840D01*
X51943582Y-35365094D01*
X51932165Y-35353008D01*
X51926672Y-35331314D01*
X51925876Y-35313693D01*
X51926328Y-35303165D01*
X51927638Y-35280939D01*
X51929754Y-35247785D01*
X51930710Y-35233354D01*
X52008465Y-35233354D01*
X52009311Y-35246398D01*
X52011311Y-35250061D01*
X52017443Y-35246801D01*
X52033166Y-35237416D01*
X52057527Y-35222502D01*
X52089573Y-35202653D01*
X52128350Y-35178463D01*
X52172905Y-35150526D01*
X52222284Y-35119436D01*
X52275535Y-35085789D01*
X52319813Y-35057727D01*
X52380653Y-35018959D01*
X52436382Y-34983131D01*
X52486260Y-34950738D01*
X52529545Y-34922271D01*
X52565495Y-34898225D01*
X52593370Y-34879092D01*
X52612428Y-34865366D01*
X52621927Y-34857539D01*
X52622889Y-34856115D01*
X52617559Y-34850233D01*
X52602953Y-34840190D01*
X52581149Y-34827064D01*
X52554222Y-34811934D01*
X52524249Y-34795879D01*
X52493307Y-34779978D01*
X52463472Y-34765308D01*
X52436821Y-34752948D01*
X52415431Y-34743977D01*
X52401378Y-34739474D01*
X52397833Y-34739219D01*
X52389685Y-34743005D01*
X52372327Y-34752698D01*
X52347099Y-34767495D01*
X52315343Y-34786591D01*
X52278398Y-34809185D01*
X52237604Y-34834473D01*
X52209156Y-34852290D01*
X52160105Y-34883256D01*
X52120708Y-34908444D01*
X52089945Y-34928581D01*
X52066791Y-34944394D01*
X52050226Y-34956610D01*
X52039226Y-34965956D01*
X52032769Y-34973159D01*
X52029833Y-34978946D01*
X52029582Y-34979977D01*
X52027924Y-34992183D01*
X52025705Y-35014096D01*
X52023178Y-35042946D01*
X52020596Y-35075963D01*
X52019759Y-35087521D01*
X52017127Y-35123489D01*
X52014430Y-35158328D01*
X52011949Y-35188527D01*
X52009966Y-35210571D01*
X52009610Y-35214114D01*
X52008465Y-35233354D01*
X51930710Y-35233354D01*
X51932622Y-35204476D01*
X51936189Y-35151782D01*
X51940399Y-35090475D01*
X51945201Y-35021326D01*
X51950540Y-34945106D01*
X51956363Y-34862586D01*
X51962616Y-34774539D01*
X51969246Y-34681734D01*
X51971357Y-34652340D01*
X52445172Y-34652340D01*
X52445551Y-34662296D01*
X52446539Y-34666634D01*
X52446642Y-34666753D01*
X52453942Y-34671505D01*
X52470163Y-34680734D01*
X52493241Y-34693358D01*
X52521112Y-34708297D01*
X52551712Y-34724472D01*
X52582977Y-34740803D01*
X52612843Y-34756208D01*
X52639247Y-34769608D01*
X52660125Y-34779922D01*
X52673412Y-34786071D01*
X52677003Y-34787322D01*
X52680105Y-34781813D01*
X52683404Y-34767652D01*
X52684909Y-34757752D01*
X52686133Y-34746208D01*
X52688320Y-34723361D01*
X52691389Y-34690142D01*
X52695259Y-34647483D01*
X52699850Y-34596315D01*
X52705082Y-34537569D01*
X52710872Y-34472176D01*
X52717141Y-34401069D01*
X52723807Y-34325178D01*
X52730790Y-34245434D01*
X52738009Y-34162769D01*
X52745383Y-34078115D01*
X52752831Y-33992402D01*
X52760274Y-33906563D01*
X52767629Y-33821527D01*
X52774815Y-33738227D01*
X52781754Y-33657595D01*
X52788362Y-33580560D01*
X52794561Y-33508056D01*
X52800268Y-33441012D01*
X52805403Y-33380361D01*
X52809885Y-33327034D01*
X52813634Y-33281961D01*
X52816569Y-33246075D01*
X52818608Y-33220307D01*
X52819672Y-33205588D01*
X52819812Y-33202638D01*
X52818361Y-33188191D01*
X52814794Y-33180985D01*
X52814047Y-33180802D01*
X52807240Y-33183869D01*
X52791300Y-33192470D01*
X52767811Y-33205706D01*
X52738360Y-33222675D01*
X52704535Y-33242477D01*
X52684328Y-33254435D01*
X52636120Y-33283585D01*
X52598972Y-33307198D01*
X52572771Y-33325350D01*
X52557404Y-33338117D01*
X52553194Y-33343519D01*
X52551707Y-33351764D01*
X52549297Y-33371629D01*
X52546043Y-33402272D01*
X52542020Y-33442849D01*
X52537306Y-33492518D01*
X52531977Y-33550436D01*
X52526109Y-33615760D01*
X52519780Y-33687647D01*
X52513066Y-33765254D01*
X52506044Y-33847738D01*
X52498791Y-33934257D01*
X52492600Y-34009130D01*
X52483649Y-34118485D01*
X52475746Y-34215953D01*
X52468850Y-34302105D01*
X52462921Y-34377512D01*
X52457921Y-34442742D01*
X52453808Y-34498366D01*
X52450544Y-34544954D01*
X52448088Y-34583075D01*
X52446400Y-34613300D01*
X52445442Y-34636199D01*
X52445172Y-34652340D01*
X51971357Y-34652340D01*
X51976198Y-34584944D01*
X51983420Y-34484940D01*
X51985245Y-34459742D01*
X51992473Y-34359750D01*
X51999410Y-34263224D01*
X52006005Y-34170893D01*
X52012207Y-34083491D01*
X52017965Y-34001749D01*
X52023231Y-33926398D01*
X52027952Y-33858170D01*
X52032078Y-33797796D01*
X52035559Y-33746009D01*
X52038344Y-33703540D01*
X52040383Y-33671121D01*
X52041625Y-33649483D01*
X52042019Y-33639358D01*
X52041962Y-33638673D01*
X52036084Y-33640973D01*
X52020990Y-33648843D01*
X51998199Y-33661434D01*
X51969228Y-33677899D01*
X51935593Y-33697392D01*
X51912263Y-33711098D01*
X51785183Y-33786143D01*
X51780400Y-33828870D01*
X51779407Y-33840235D01*
X51777639Y-33863308D01*
X51775149Y-33897318D01*
X51771991Y-33941497D01*
X51768217Y-33995077D01*
X51763880Y-34057288D01*
X51759035Y-34127362D01*
X51753733Y-34204529D01*
X51748028Y-34288022D01*
X51741973Y-34377070D01*
X51735620Y-34470906D01*
X51729024Y-34568760D01*
X51722238Y-34669863D01*
X51719389Y-34712428D01*
X51711323Y-34832864D01*
X51704021Y-34941439D01*
X51697434Y-35038772D01*
X51691514Y-35125479D01*
X51686212Y-35202177D01*
X51681480Y-35269483D01*
X51677267Y-35328015D01*
X51673527Y-35378389D01*
X51670209Y-35421222D01*
X51667266Y-35457130D01*
X51664649Y-35486732D01*
X51662308Y-35510644D01*
X51660196Y-35529483D01*
X51658264Y-35543866D01*
X51656462Y-35554410D01*
X51654743Y-35561732D01*
X51653056Y-35566448D01*
X51651797Y-35568630D01*
X51644337Y-35575022D01*
X51627388Y-35587349D01*
X51602039Y-35604885D01*
X51569380Y-35626899D01*
X51530502Y-35652665D01*
X51486494Y-35681453D01*
X51438446Y-35712537D01*
X51388971Y-35744217D01*
X51338164Y-35776660D01*
X51290393Y-35807302D01*
X51246734Y-35835443D01*
X51208266Y-35860382D01*
X51176066Y-35881417D01*
X51151210Y-35897850D01*
X51134777Y-35908977D01*
X51127872Y-35914070D01*
X51123781Y-35921227D01*
X51120099Y-35934702D01*
X51116722Y-35955491D01*
X51113543Y-35984589D01*
X51110459Y-36022995D01*
X51107364Y-36071702D01*
X51104153Y-36131709D01*
X51103466Y-36145594D01*
X51101965Y-36184489D01*
X51101722Y-36213353D01*
X51102722Y-36231389D01*
X51104953Y-36237799D01*
X51105030Y-36237804D01*
X51111236Y-36234501D01*
X51127003Y-36224985D01*
X51151400Y-36209846D01*
X51183498Y-36189672D01*
X51222367Y-36165052D01*
X51267076Y-36136576D01*
X51316696Y-36104832D01*
X51370295Y-36070411D01*
X51425815Y-36034629D01*
X51491655Y-35992160D01*
X51547862Y-35956012D01*
X51595283Y-35925680D01*
X51634763Y-35900662D01*
X51667147Y-35880456D01*
X51693280Y-35864557D01*
X51714007Y-35852464D01*
X51730175Y-35843672D01*
X51742627Y-35837680D01*
X51752210Y-35833983D01*
X51759769Y-35832080D01*
X51766150Y-35831466D01*
X51767261Y-35831454D01*
X51784170Y-35832166D01*
X51792642Y-35836241D01*
X51796738Y-35846588D01*
X51798145Y-35853584D01*
X51799550Y-35865032D01*
X51798144Y-35875014D01*
X51792607Y-35884887D01*
X51781617Y-35896007D01*
X51763854Y-35909730D01*
X51737996Y-35927413D01*
X51705719Y-35948475D01*
X51672406Y-35970843D01*
X51647975Y-35989060D01*
X51633208Y-36002510D01*
X51628912Y-36009234D01*
X51627470Y-36018933D01*
X51624920Y-36039147D01*
X51621489Y-36067956D01*
X51617402Y-36103444D01*
X51612885Y-36143692D01*
X51610095Y-36169037D01*
X51578043Y-36429851D01*
X51539954Y-36680354D01*
X51495614Y-36921295D01*
X51444813Y-37153425D01*
X51387339Y-37377494D01*
X51322980Y-37594253D01*
X51251525Y-37804453D01*
X51172762Y-38008843D01*
X51086479Y-38208175D01*
X50992466Y-38403198D01*
X50965284Y-38456068D01*
X50948567Y-38488444D01*
X50934228Y-38516781D01*
X50923135Y-38539317D01*
X50916155Y-38554290D01*
X50914145Y-38559931D01*
X50179884Y-38559931D01*
X50208021Y-38540510D01*
X50225876Y-38528201D01*
X50428851Y-38388310D01*
X50602154Y-38388310D01*
X50602186Y-38397161D01*
X50607114Y-38403601D01*
X50616592Y-38410973D01*
X50634029Y-38422868D01*
X50657505Y-38438117D01*
X50685099Y-38455548D01*
X50714891Y-38473989D01*
X50744962Y-38492269D01*
X50773390Y-38509217D01*
X50798256Y-38523663D01*
X50817639Y-38534433D01*
X50829620Y-38540358D01*
X50832497Y-38541079D01*
X50836888Y-38534775D01*
X50845997Y-38519171D01*
X50858814Y-38496082D01*
X50874331Y-38467322D01*
X50890568Y-38436565D01*
X50993622Y-38228071D01*
X51087988Y-38013388D01*
X51173799Y-37792062D01*
X51251185Y-37563638D01*
X51320278Y-37327660D01*
X51381210Y-37083673D01*
X51434110Y-36831223D01*
X51479112Y-36569853D01*
X51516345Y-36299109D01*
X51522825Y-36244198D01*
X51529018Y-36188865D01*
X51533541Y-36144953D01*
X51536454Y-36111499D01*
X51537817Y-36087541D01*
X51537692Y-36072118D01*
X51536139Y-36064267D01*
X51534237Y-36062761D01*
X51526353Y-36066164D01*
X51510041Y-36075586D01*
X51487057Y-36089847D01*
X51459157Y-36107765D01*
X51428098Y-36128160D01*
X51395634Y-36149850D01*
X51363523Y-36171655D01*
X51333521Y-36192395D01*
X51307382Y-36210887D01*
X51286864Y-36225951D01*
X51273722Y-36236406D01*
X51269701Y-36240656D01*
X51267147Y-36251498D01*
X51263538Y-36271950D01*
X51259328Y-36299208D01*
X51254974Y-36330471D01*
X51254418Y-36334703D01*
X51241813Y-36423533D01*
X51226060Y-36521490D01*
X51207683Y-36625748D01*
X51187203Y-36733483D01*
X51165142Y-36841867D01*
X51142022Y-36948076D01*
X51137220Y-36969234D01*
X51093848Y-37144568D01*
X51043484Y-37322764D01*
X50987288Y-37500189D01*
X50926423Y-37673209D01*
X50862051Y-37838188D01*
X50850357Y-37866330D01*
X50805765Y-37972606D01*
X50797329Y-38097636D01*
X50794560Y-38136359D01*
X50791780Y-38171156D01*
X50789175Y-38199970D01*
X50786933Y-38220743D01*
X50785243Y-38231418D01*
X50785040Y-38232045D01*
X50778745Y-38238644D01*
X50763901Y-38250708D01*
X50742390Y-38266811D01*
X50716092Y-38285524D01*
X50699856Y-38296693D01*
X50664744Y-38321159D01*
X50639151Y-38340505D01*
X50621756Y-38355839D01*
X50611238Y-38368267D01*
X50608304Y-38373397D01*
X50602154Y-38388310D01*
X50428851Y-38388310D01*
X50711520Y-38193494D01*
X50715475Y-38145565D01*
X50716159Y-38134814D01*
X50717414Y-38112438D01*
X50719201Y-38079198D01*
X50721482Y-38035858D01*
X50724219Y-37983179D01*
X50727375Y-37921924D01*
X50730911Y-37852855D01*
X50734789Y-37776735D01*
X50738972Y-37694326D01*
X50743421Y-37606390D01*
X50748098Y-37513690D01*
X50752965Y-37416989D01*
X50757984Y-37317047D01*
X50763117Y-37214629D01*
X50768327Y-37110496D01*
X50773574Y-37005411D01*
X50778822Y-36900136D01*
X50784032Y-36795433D01*
X50789166Y-36692065D01*
X50794186Y-36590794D01*
X50799054Y-36492382D01*
X50803732Y-36397592D01*
X50808182Y-36307187D01*
X50812366Y-36221928D01*
X50816246Y-36142579D01*
X50816472Y-36137927D01*
X50901441Y-36137927D01*
X50901676Y-36147157D01*
X50903716Y-36190917D01*
X50953728Y-36220588D01*
X50975963Y-36233541D01*
X50994049Y-36243634D01*
X51005386Y-36249436D01*
X51007751Y-36250283D01*
X51012137Y-36245057D01*
X51015162Y-36236241D01*
X51016442Y-36226178D01*
X51018190Y-36205564D01*
X51020273Y-36176340D01*
X51022559Y-36140444D01*
X51024914Y-36099815D01*
X51026312Y-36073840D01*
X51028710Y-36026668D01*
X51030335Y-35990395D01*
X51031162Y-35963438D01*
X51031165Y-35944215D01*
X51030320Y-35931144D01*
X51028604Y-35922643D01*
X51025990Y-35917129D01*
X51023823Y-35914426D01*
X51014151Y-35906737D01*
X50997743Y-35896258D01*
X50977518Y-35884558D01*
X50956392Y-35873207D01*
X50937284Y-35863776D01*
X50923109Y-35857834D01*
X50916857Y-35856863D01*
X50915258Y-35864172D01*
X50913373Y-35881829D01*
X50911313Y-35907688D01*
X50909190Y-35939600D01*
X50907118Y-35975418D01*
X50905208Y-36012995D01*
X50903574Y-36050181D01*
X50902326Y-36084831D01*
X50901577Y-36114795D01*
X50901441Y-36137927D01*
X50816472Y-36137927D01*
X50819784Y-36069900D01*
X50822942Y-36004656D01*
X50825681Y-35947607D01*
X50827965Y-35899517D01*
X50829755Y-35861148D01*
X50831012Y-35833262D01*
X50831700Y-35816622D01*
X50831823Y-35812261D01*
X50830464Y-35798893D01*
X50825407Y-35795477D01*
X50821909Y-35796411D01*
X50815264Y-35800234D01*
X50798806Y-35810244D01*
X50773300Y-35825966D01*
X50739511Y-35846921D01*
X50698203Y-35872632D01*
X50650142Y-35902622D01*
X50596092Y-35936413D01*
X50536819Y-35973529D01*
X50473088Y-36013491D01*
X50405663Y-36055823D01*
X50335310Y-36100047D01*
X50333244Y-36101346D01*
X50262720Y-36145636D01*
X50195012Y-36188023D01*
X50130891Y-36228032D01*
X50071133Y-36265184D01*
X50016511Y-36299005D01*
X49967799Y-36329016D01*
X49925771Y-36354742D01*
X49891200Y-36375705D01*
X49864860Y-36391429D01*
X49847526Y-36401437D01*
X49839970Y-36405252D01*
X49839921Y-36405263D01*
X49820168Y-36403544D01*
X49803888Y-36392653D01*
X49794835Y-36375596D01*
X49794068Y-36368537D01*
X49795631Y-36357913D01*
X49800061Y-36336854D01*
X49806963Y-36306996D01*
X49815946Y-36269977D01*
X49818021Y-36261705D01*
X49906694Y-36261705D01*
X49907745Y-36262540D01*
X49911477Y-36261509D01*
X49918519Y-36258231D01*
X49929498Y-36252321D01*
X49945043Y-36243400D01*
X49965782Y-36231083D01*
X49992345Y-36214990D01*
X50025358Y-36194737D01*
X50065450Y-36169943D01*
X50113251Y-36140225D01*
X50169387Y-36105201D01*
X50234487Y-36064489D01*
X50309180Y-36017706D01*
X50355882Y-35988431D01*
X50422552Y-35946531D01*
X50486030Y-35906443D01*
X50545535Y-35868672D01*
X50600284Y-35833724D01*
X50649496Y-35802103D01*
X50692391Y-35774314D01*
X50728186Y-35750863D01*
X50756100Y-35732254D01*
X50775352Y-35718994D01*
X50785160Y-35711586D01*
X50786280Y-35710238D01*
X50780341Y-35705132D01*
X50765389Y-35695284D01*
X50743442Y-35681834D01*
X50733992Y-35676250D01*
X50910983Y-35676250D01*
X50912320Y-35692959D01*
X50915583Y-35713895D01*
X50920051Y-35735153D01*
X50924998Y-35752826D01*
X50929701Y-35763011D01*
X50930026Y-35763366D01*
X50938763Y-35769764D01*
X50955412Y-35780169D01*
X50977325Y-35793100D01*
X51001858Y-35807072D01*
X51026365Y-35820602D01*
X51048198Y-35832209D01*
X51064712Y-35840407D01*
X51073260Y-35843716D01*
X51073403Y-35843725D01*
X51080035Y-35840524D01*
X51096083Y-35831277D01*
X51120428Y-35816671D01*
X51151952Y-35797394D01*
X51189534Y-35774133D01*
X51232056Y-35747576D01*
X51278399Y-35718409D01*
X51307835Y-35699775D01*
X51355734Y-35669255D01*
X51400199Y-35640663D01*
X51440149Y-35614714D01*
X51474502Y-35592121D01*
X51502177Y-35573599D01*
X51522093Y-35559864D01*
X51533168Y-35551628D01*
X51535121Y-35549606D01*
X51529882Y-35544793D01*
X51515502Y-35535408D01*
X51493986Y-35522543D01*
X51467340Y-35507289D01*
X51437570Y-35490737D01*
X51406682Y-35473980D01*
X51376682Y-35458108D01*
X51349574Y-35444212D01*
X51327365Y-35433385D01*
X51312060Y-35426718D01*
X51306334Y-35425104D01*
X51299378Y-35428290D01*
X51283316Y-35437246D01*
X51259613Y-35451070D01*
X51229735Y-35468859D01*
X51195149Y-35489710D01*
X51157321Y-35512720D01*
X51117717Y-35536988D01*
X51077803Y-35561610D01*
X51039047Y-35585683D01*
X51002913Y-35608306D01*
X50970869Y-35628574D01*
X50944381Y-35645587D01*
X50924914Y-35658440D01*
X50913936Y-35666232D01*
X50912298Y-35667675D01*
X50910983Y-35676250D01*
X50733992Y-35676250D01*
X50716518Y-35665925D01*
X50686635Y-35648701D01*
X50655810Y-35631303D01*
X50626062Y-35614874D01*
X50599408Y-35600558D01*
X50577866Y-35589496D01*
X50563455Y-35582830D01*
X50558728Y-35581392D01*
X50552303Y-35584569D01*
X50536478Y-35593600D01*
X50512472Y-35607739D01*
X50481503Y-35626240D01*
X50444789Y-35648355D01*
X50403549Y-35673338D01*
X50359001Y-35700441D01*
X50312364Y-35728919D01*
X50264856Y-35758023D01*
X50217696Y-35787008D01*
X50172101Y-35815126D01*
X50129290Y-35841631D01*
X50090482Y-35865776D01*
X50056895Y-35886813D01*
X50029748Y-35903997D01*
X50010258Y-35916580D01*
X49999644Y-35923816D01*
X49998260Y-35924939D01*
X49995834Y-35931571D01*
X49990746Y-35948394D01*
X49983512Y-35973503D01*
X49974651Y-36004996D01*
X49964678Y-36040971D01*
X49954113Y-36079525D01*
X49943471Y-36118756D01*
X49933271Y-36156761D01*
X49924029Y-36191637D01*
X49916264Y-36221483D01*
X49910491Y-36244394D01*
X49907229Y-36258470D01*
X49906694Y-36261705D01*
X49818021Y-36261705D01*
X49826617Y-36227431D01*
X49838583Y-36180995D01*
X49844336Y-36159073D01*
X49885644Y-35998792D01*
X49927250Y-35830106D01*
X49968559Y-35655712D01*
X50008974Y-35478304D01*
X50036935Y-35350642D01*
X51349437Y-35350642D01*
X51349535Y-35351168D01*
X51357352Y-35356490D01*
X51373728Y-35366105D01*
X51396726Y-35378986D01*
X51424409Y-35394110D01*
X51454839Y-35410451D01*
X51486079Y-35426984D01*
X51516190Y-35442685D01*
X51543236Y-35456529D01*
X51565279Y-35467490D01*
X51580381Y-35474543D01*
X51586605Y-35476665D01*
X51586659Y-35476601D01*
X51587247Y-35469911D01*
X51588600Y-35451483D01*
X51590667Y-35422053D01*
X51593399Y-35382359D01*
X51596747Y-35333138D01*
X51600661Y-35275129D01*
X51605092Y-35209068D01*
X51609990Y-35135693D01*
X51615307Y-35055742D01*
X51620991Y-34969953D01*
X51626995Y-34879062D01*
X51633269Y-34783807D01*
X51639762Y-34684927D01*
X51641406Y-34659857D01*
X51647915Y-34560239D01*
X51654159Y-34464093D01*
X51660093Y-34372153D01*
X51665670Y-34285155D01*
X51670846Y-34203833D01*
X51675573Y-34128923D01*
X51679806Y-34061159D01*
X51683500Y-34001276D01*
X51686608Y-33950008D01*
X51689085Y-33908091D01*
X51690885Y-33876259D01*
X51691961Y-33855247D01*
X51692269Y-33845790D01*
X51692220Y-33845317D01*
X51686264Y-33847494D01*
X51671457Y-33855189D01*
X51649579Y-33867343D01*
X51622410Y-33882895D01*
X51591731Y-33900786D01*
X51559323Y-33919956D01*
X51526967Y-33939344D01*
X51496442Y-33957892D01*
X51469531Y-33974538D01*
X51448012Y-33988224D01*
X51433668Y-33997889D01*
X51428297Y-34002410D01*
X51427355Y-34010116D01*
X51425789Y-34029221D01*
X51423655Y-34058742D01*
X51421010Y-34097693D01*
X51417913Y-34145090D01*
X51414421Y-34199949D01*
X51410591Y-34261286D01*
X51406481Y-34328115D01*
X51402148Y-34399452D01*
X51397649Y-34474313D01*
X51393043Y-34551714D01*
X51388387Y-34630669D01*
X51383738Y-34710195D01*
X51379153Y-34789306D01*
X51374691Y-34867019D01*
X51370408Y-34942349D01*
X51366363Y-35014312D01*
X51362612Y-35081922D01*
X51359214Y-35144196D01*
X51356225Y-35200149D01*
X51353703Y-35248796D01*
X51351706Y-35289154D01*
X51350291Y-35320237D01*
X51349515Y-35341061D01*
X51349437Y-35350642D01*
X50036935Y-35350642D01*
X50047900Y-35300577D01*
X50084739Y-35125224D01*
X50118896Y-34954942D01*
X50149774Y-34792424D01*
X50163610Y-34715973D01*
X50171017Y-34677522D01*
X50177756Y-34649929D01*
X50184285Y-34631602D01*
X50190761Y-34621264D01*
X50198156Y-34615882D01*
X50215463Y-34604736D01*
X50241797Y-34588362D01*
X50276270Y-34567294D01*
X50317993Y-34542066D01*
X50366080Y-34513215D01*
X50419643Y-34481273D01*
X50477794Y-34446776D01*
X50539646Y-34410260D01*
X50594265Y-34378150D01*
X50658371Y-34340496D01*
X50719412Y-34304564D01*
X50776515Y-34270874D01*
X50828810Y-34239942D01*
X50875424Y-34212287D01*
X50915486Y-34188425D01*
X50948125Y-34168877D01*
X50972470Y-34154158D01*
X50987648Y-34144787D01*
X50992712Y-34141393D01*
X50994811Y-34133747D01*
X50997375Y-34115666D01*
X51000264Y-34089136D01*
X51003338Y-34056144D01*
X51006457Y-34018674D01*
X51009481Y-33978713D01*
X51012270Y-33938247D01*
X51014684Y-33899262D01*
X51016583Y-33863744D01*
X51017827Y-33833679D01*
X51018276Y-33811053D01*
X51017789Y-33797852D01*
X51017115Y-33795365D01*
X51010122Y-33795772D01*
X50999587Y-33800235D01*
X50990721Y-33805216D01*
X50971931Y-33815968D01*
X50943901Y-33832095D01*
X50907319Y-33853198D01*
X50862870Y-33878878D01*
X50811239Y-33908739D01*
X50753113Y-33942381D01*
X50689176Y-33979406D01*
X50620115Y-34019417D01*
X50546616Y-34062015D01*
X50469365Y-34106803D01*
X50389046Y-34153382D01*
X50306347Y-34201354D01*
X50221952Y-34250321D01*
X50136547Y-34299886D01*
X50050819Y-34349649D01*
X49965452Y-34399213D01*
X49881133Y-34448180D01*
X49798548Y-34496151D01*
X49718382Y-34542729D01*
X49641321Y-34587516D01*
X49568051Y-34630113D01*
X49499257Y-34670123D01*
X49435625Y-34707147D01*
X49377842Y-34740787D01*
X49326592Y-34770645D01*
X49282562Y-34796323D01*
X49246437Y-34817424D01*
X49218904Y-34833548D01*
X49200647Y-34844298D01*
X49192353Y-34849276D01*
X49191917Y-34849571D01*
X49190463Y-34856789D01*
X49188984Y-34874377D01*
X49187526Y-34900425D01*
X49186132Y-34933024D01*
X49184846Y-34970266D01*
X49183711Y-35010242D01*
X49182773Y-35051043D01*
X49182075Y-35090761D01*
X49181661Y-35127487D01*
X49181575Y-35159312D01*
X49181861Y-35184328D01*
X49182563Y-35200626D01*
X49183694Y-35206300D01*
X49189605Y-35203202D01*
X49205482Y-35194219D01*
X49230525Y-35179819D01*
X49263931Y-35160470D01*
X49304898Y-35136640D01*
X49352623Y-35108795D01*
X49406306Y-35077404D01*
X49465143Y-35042935D01*
X49528332Y-35005855D01*
X49595072Y-34966632D01*
X49633987Y-34943735D01*
X49715932Y-34895521D01*
X49787812Y-34853307D01*
X49850325Y-34816737D01*
X49904171Y-34785451D01*
X49950052Y-34759092D01*
X49988665Y-34737302D01*
X50020710Y-34719724D01*
X50046889Y-34705999D01*
X50067899Y-34695769D01*
X50084441Y-34688677D01*
X50097214Y-34684364D01*
X50106919Y-34682473D01*
X50114254Y-34682645D01*
X50119920Y-34684524D01*
X50124617Y-34687750D01*
X50128078Y-34690995D01*
X50134963Y-34704625D01*
X50137746Y-34723608D01*
X50135831Y-34741295D01*
X50133118Y-34747302D01*
X50126587Y-34752312D01*
X50110857Y-34762589D01*
X50087545Y-34777131D01*
X50058269Y-34794935D01*
X50024647Y-34814999D01*
X50008671Y-34824415D01*
X49973277Y-34845417D01*
X49941195Y-34864874D01*
X49914123Y-34881720D01*
X49893762Y-34894891D01*
X49881812Y-34903321D01*
X49879708Y-34905195D01*
X49875535Y-34914758D01*
X49870023Y-34934283D01*
X49863746Y-34961379D01*
X49857281Y-34993653D01*
X49853895Y-35012502D01*
X49799636Y-35311252D01*
X49741271Y-35602051D01*
X49678924Y-35884458D01*
X49612719Y-36158032D01*
X49542781Y-36422333D01*
X49469236Y-36676919D01*
X49392208Y-36921349D01*
X49311823Y-37155183D01*
X49228204Y-37377980D01*
X49141476Y-37589299D01*
X49093156Y-37699012D01*
X49078845Y-37731052D01*
X49066550Y-37759257D01*
X49057128Y-37781606D01*
X49051439Y-37796073D01*
X49050135Y-37800478D01*
X48907405Y-37800478D01*
X48877440Y-37781235D01*
X48851650Y-37765304D01*
X48834267Y-37755785D01*
X48824290Y-37752418D01*
X48820722Y-37754944D01*
X48455227Y-37754944D01*
X48455309Y-37623442D01*
X48455326Y-37588341D01*
X48738979Y-37588341D01*
X48738985Y-37589294D01*
X48744576Y-37594207D01*
X48758855Y-37604335D01*
X48780003Y-37618531D01*
X48806202Y-37635649D01*
X48835634Y-37654542D01*
X48866480Y-37674064D01*
X48896924Y-37693068D01*
X48925146Y-37710408D01*
X48949329Y-37724937D01*
X48967654Y-37735508D01*
X48978303Y-37740976D01*
X48980212Y-37741413D01*
X48983768Y-37734944D01*
X48991362Y-37719428D01*
X49001870Y-37697202D01*
X49013906Y-37671185D01*
X49080683Y-37518987D01*
X49146935Y-37355262D01*
X49212352Y-37180987D01*
X49276625Y-36997135D01*
X49339442Y-36804681D01*
X49400495Y-36604602D01*
X49459472Y-36397871D01*
X49516065Y-36185463D01*
X49569963Y-35968354D01*
X49609775Y-35797070D01*
X49624087Y-35732701D01*
X49638734Y-35665110D01*
X49653514Y-35595347D01*
X49668229Y-35524464D01*
X49682677Y-35453514D01*
X49696659Y-35383547D01*
X49709973Y-35315615D01*
X49722421Y-35250770D01*
X49733801Y-35190063D01*
X49743913Y-35134547D01*
X49752557Y-35085271D01*
X49759533Y-35043289D01*
X49764640Y-35009652D01*
X49767678Y-34985411D01*
X49768447Y-34971617D01*
X49767544Y-34968742D01*
X49761168Y-34971820D01*
X49745812Y-34980379D01*
X49723176Y-34993403D01*
X49694964Y-35009877D01*
X49662877Y-35028787D01*
X49628618Y-35049118D01*
X49593889Y-35069854D01*
X49560392Y-35089982D01*
X49529829Y-35108486D01*
X49503904Y-35124351D01*
X49484318Y-35136563D01*
X49472773Y-35144106D01*
X49470563Y-35145795D01*
X49467482Y-35153627D01*
X49462371Y-35172217D01*
X49455582Y-35200051D01*
X49447463Y-35235612D01*
X49438366Y-35277385D01*
X49428638Y-35323854D01*
X49422633Y-35353422D01*
X49363855Y-35632529D01*
X49301484Y-35902450D01*
X49235634Y-36162807D01*
X49166417Y-36413223D01*
X49093950Y-36653320D01*
X49018344Y-36882721D01*
X48939715Y-37101049D01*
X48858177Y-37307925D01*
X48773843Y-37502973D01*
X48772356Y-37506250D01*
X48759600Y-37535004D01*
X48749183Y-37559770D01*
X48742008Y-37578299D01*
X48738979Y-37588341D01*
X48455326Y-37588341D01*
X48455392Y-37448619D01*
X48455448Y-37274799D01*
X48455479Y-37102606D01*
X48455484Y-36932667D01*
X48455465Y-36765605D01*
X48455421Y-36602048D01*
X48455353Y-36442619D01*
X48455262Y-36287944D01*
X48455149Y-36138649D01*
X48455013Y-35995359D01*
X48454855Y-35858698D01*
X48454677Y-35729293D01*
X48454477Y-35607768D01*
X48454257Y-35494748D01*
X48454017Y-35390860D01*
X48453758Y-35296728D01*
X48453480Y-35212977D01*
X48453184Y-35140233D01*
X48452870Y-35079121D01*
X48452829Y-35072410D01*
X48841962Y-35072410D01*
X48956988Y-35138759D01*
X48991443Y-35158482D01*
X49022422Y-35175929D01*
X49048234Y-35190169D01*
X49067184Y-35200274D01*
X49077581Y-35205312D01*
X49078841Y-35205704D01*
X49081814Y-35199944D01*
X49084492Y-35182047D01*
X49086883Y-35151906D01*
X49088998Y-35109414D01*
X49089763Y-35089084D01*
X49091123Y-35046774D01*
X49092294Y-35003849D01*
X49093195Y-34963817D01*
X49093745Y-34930186D01*
X49093878Y-34911553D01*
X49093895Y-34851239D01*
X48974649Y-34784385D01*
X48939784Y-34764995D01*
X48908728Y-34748026D01*
X48883077Y-34734323D01*
X48864426Y-34724734D01*
X48854369Y-34720104D01*
X48853085Y-34719848D01*
X48852333Y-34726453D01*
X48851364Y-34743949D01*
X48850238Y-34770727D01*
X48849017Y-34805179D01*
X48847761Y-34845696D01*
X48846532Y-34890669D01*
X48846364Y-34897288D01*
X48841962Y-35072410D01*
X48452829Y-35072410D01*
X48452742Y-35058416D01*
X48450002Y-34640804D01*
X48907226Y-34640804D01*
X48907367Y-34640968D01*
X48916381Y-34647516D01*
X48933976Y-34658465D01*
X48958092Y-34672679D01*
X48986671Y-34689020D01*
X49017650Y-34706353D01*
X49048972Y-34723539D01*
X49078574Y-34739442D01*
X49104398Y-34752926D01*
X49124384Y-34762852D01*
X49136470Y-34768085D01*
X49138662Y-34768610D01*
X49145118Y-34765542D01*
X49161828Y-34756536D01*
X49188224Y-34741916D01*
X49223739Y-34722006D01*
X49267804Y-34697130D01*
X49319852Y-34667611D01*
X49379314Y-34633775D01*
X49445623Y-34595944D01*
X49518211Y-34554443D01*
X49596511Y-34509596D01*
X49679953Y-34461727D01*
X49767971Y-34411160D01*
X49859997Y-34358218D01*
X49955462Y-34303227D01*
X50053798Y-34246509D01*
X50056781Y-34244787D01*
X50155085Y-34188019D01*
X50250430Y-34132897D01*
X50342255Y-34079749D01*
X50429999Y-34028901D01*
X50513100Y-33980682D01*
X50590998Y-33935418D01*
X50663132Y-33893435D01*
X50728940Y-33855063D01*
X50787862Y-33820627D01*
X50839337Y-33790454D01*
X50882803Y-33764873D01*
X50917700Y-33744210D01*
X50943466Y-33728791D01*
X50959541Y-33718945D01*
X50965363Y-33714999D01*
X50965375Y-33714969D01*
X50960403Y-33710233D01*
X50946192Y-33701081D01*
X50924750Y-33688569D01*
X50898082Y-33673749D01*
X50868195Y-33657674D01*
X50851156Y-33648758D01*
X51036840Y-33648758D01*
X51060925Y-33661050D01*
X51078409Y-33670560D01*
X51090761Y-33679867D01*
X51098933Y-33691324D01*
X51103876Y-33707283D01*
X51106541Y-33730096D01*
X51107879Y-33762115D01*
X51108257Y-33778099D01*
X51110016Y-33859094D01*
X51191286Y-33901029D01*
X51220348Y-33915885D01*
X51245472Y-33928463D01*
X51264571Y-33937739D01*
X51275554Y-33942687D01*
X51277245Y-33943227D01*
X51280676Y-33938031D01*
X51282032Y-33926298D01*
X51282435Y-33915344D01*
X51282714Y-33909782D01*
X51370620Y-33909782D01*
X51371325Y-33925709D01*
X51372832Y-33930986D01*
X51378870Y-33927932D01*
X51394298Y-33919296D01*
X51417747Y-33905868D01*
X51447847Y-33888439D01*
X51483230Y-33867797D01*
X51522528Y-33844732D01*
X51533809Y-33838088D01*
X51584522Y-33808219D01*
X51625624Y-33784107D01*
X51658260Y-33765136D01*
X51683576Y-33750693D01*
X51702720Y-33740162D01*
X51716838Y-33732929D01*
X51727075Y-33728380D01*
X51734578Y-33725899D01*
X51740494Y-33724873D01*
X51745344Y-33724685D01*
X51754729Y-33721776D01*
X51773238Y-33713633D01*
X51799087Y-33701129D01*
X51830491Y-33685139D01*
X51865667Y-33666538D01*
X51881626Y-33657890D01*
X51928861Y-33632068D01*
X51966294Y-33611435D01*
X51995108Y-33595210D01*
X52016485Y-33582612D01*
X52031611Y-33572859D01*
X52041667Y-33565171D01*
X52047837Y-33558766D01*
X52051305Y-33552864D01*
X52053254Y-33546684D01*
X52053810Y-33544249D01*
X52062934Y-33528037D01*
X52080520Y-33520117D01*
X52105166Y-33521091D01*
X52106726Y-33521420D01*
X52113935Y-33521461D01*
X52124745Y-33518647D01*
X52140372Y-33512404D01*
X52162033Y-33502160D01*
X52190945Y-33487341D01*
X52228326Y-33467372D01*
X52272055Y-33443515D01*
X52323601Y-33415235D01*
X52365282Y-33392341D01*
X52398161Y-33374139D01*
X52423300Y-33359938D01*
X52441761Y-33349047D01*
X52454606Y-33340773D01*
X52462898Y-33334424D01*
X52467698Y-33329308D01*
X52470070Y-33324733D01*
X52471075Y-33320007D01*
X52471776Y-33314439D01*
X52471952Y-33313294D01*
X52476414Y-33296107D01*
X52482475Y-33283663D01*
X52482692Y-33283394D01*
X52495122Y-33276661D01*
X52513582Y-33274848D01*
X52532498Y-33278217D01*
X52538429Y-33280792D01*
X52543811Y-33281689D01*
X52552500Y-33279526D01*
X52565700Y-33273655D01*
X52584619Y-33263426D01*
X52610462Y-33248192D01*
X52644435Y-33227305D01*
X52683366Y-33202880D01*
X52730036Y-33173072D01*
X52766622Y-33148865D01*
X52793915Y-33129692D01*
X52812707Y-33114984D01*
X52823788Y-33104172D01*
X52826799Y-33099838D01*
X52839124Y-33079170D01*
X52850487Y-33067674D01*
X52864340Y-33062821D01*
X52878404Y-33062020D01*
X52887995Y-33061242D01*
X52898892Y-33058384D01*
X52912601Y-33052659D01*
X52930623Y-33043280D01*
X52954464Y-33029459D01*
X52985626Y-33010410D01*
X53025613Y-32985346D01*
X53029239Y-32983057D01*
X53065744Y-32959587D01*
X53099594Y-32937043D01*
X53129025Y-32916663D01*
X53152275Y-32899681D01*
X53167581Y-32887333D01*
X53171916Y-32883035D01*
X53188713Y-32867668D01*
X53204295Y-32861975D01*
X53204518Y-32861973D01*
X53214542Y-32858681D01*
X53232950Y-32849545D01*
X53257734Y-32835679D01*
X53286889Y-32818196D01*
X53311902Y-32802422D01*
X53343361Y-32782192D01*
X53372361Y-32763615D01*
X53396768Y-32748052D01*
X53414448Y-32736865D01*
X53422130Y-32732093D01*
X53459057Y-32709476D01*
X53494054Y-32687573D01*
X53525338Y-32667538D01*
X53551125Y-32650529D01*
X53569633Y-32637703D01*
X53578767Y-32630523D01*
X53582911Y-32624931D01*
X53586564Y-32615773D01*
X53589998Y-32601479D01*
X53593489Y-32580484D01*
X53597311Y-32551219D01*
X53601738Y-32512118D01*
X53605193Y-32479500D01*
X53610899Y-32423388D01*
X53615110Y-32378609D01*
X53617879Y-32344088D01*
X53619255Y-32318752D01*
X53619291Y-32301525D01*
X53618039Y-32291334D01*
X53615549Y-32287103D01*
X53614423Y-32286832D01*
X53608599Y-32289912D01*
X53592583Y-32298914D01*
X53566992Y-32313479D01*
X53532444Y-32333250D01*
X53489559Y-32357868D01*
X53438953Y-32386975D01*
X53381247Y-32420213D01*
X53317057Y-32457223D01*
X53247004Y-32497648D01*
X53171704Y-32541129D01*
X53091776Y-32587307D01*
X53007839Y-32635826D01*
X52920510Y-32686326D01*
X52830410Y-32738449D01*
X52738155Y-32791837D01*
X52644364Y-32846132D01*
X52549655Y-32900976D01*
X52454648Y-32956011D01*
X52359960Y-33010878D01*
X52266209Y-33065219D01*
X52174015Y-33118675D01*
X52083995Y-33170890D01*
X51996768Y-33221504D01*
X51912951Y-33270159D01*
X51833165Y-33316498D01*
X51758026Y-33360161D01*
X51688154Y-33400791D01*
X51624166Y-33438030D01*
X51566682Y-33471518D01*
X51516318Y-33500899D01*
X51473695Y-33525814D01*
X51439430Y-33545905D01*
X51414141Y-33560813D01*
X51398447Y-33570180D01*
X51392990Y-33573620D01*
X51390638Y-33581552D01*
X51388029Y-33599708D01*
X51385269Y-33626188D01*
X51382465Y-33659094D01*
X51379725Y-33696525D01*
X51377156Y-33736582D01*
X51374864Y-33777366D01*
X51372958Y-33816978D01*
X51371544Y-33853517D01*
X51370729Y-33885085D01*
X51370620Y-33909782D01*
X51282714Y-33909782D01*
X51283512Y-33893886D01*
X51285154Y-33863896D01*
X51287250Y-33827348D01*
X51289692Y-33786215D01*
X51291344Y-33759069D01*
X51293943Y-33716086D01*
X51296264Y-33676466D01*
X51298197Y-33642180D01*
X51299633Y-33615198D01*
X51300462Y-33597491D01*
X51300623Y-33592008D01*
X51299962Y-33586043D01*
X51297010Y-33580305D01*
X51290386Y-33573898D01*
X51278708Y-33565925D01*
X51260597Y-33555487D01*
X51234670Y-33541689D01*
X51199548Y-33523632D01*
X51180346Y-33513864D01*
X51144771Y-33495803D01*
X51112992Y-33479686D01*
X51086688Y-33466362D01*
X51067538Y-33456681D01*
X51057220Y-33451492D01*
X51055965Y-33450876D01*
X51053175Y-33455112D01*
X51050284Y-33470576D01*
X51047254Y-33497590D01*
X51044051Y-33536476D01*
X51040787Y-33585134D01*
X51036840Y-33648758D01*
X50851156Y-33648758D01*
X50837093Y-33641399D01*
X50806785Y-33625976D01*
X50779274Y-33612459D01*
X50756569Y-33601901D01*
X50740674Y-33595356D01*
X50734445Y-33593714D01*
X50726926Y-33596692D01*
X50709495Y-33605395D01*
X50683078Y-33619312D01*
X50648601Y-33637936D01*
X50606990Y-33660756D01*
X50559172Y-33687263D01*
X50506072Y-33716948D01*
X50448616Y-33749300D01*
X50387731Y-33783812D01*
X50356227Y-33801755D01*
X50294990Y-33836686D01*
X50224432Y-33876932D01*
X50146093Y-33921613D01*
X50061514Y-33969852D01*
X49972237Y-34020768D01*
X49879801Y-34073484D01*
X49785747Y-34127121D01*
X49691617Y-34180800D01*
X49598950Y-34233642D01*
X49509287Y-34284770D01*
X49445000Y-34321427D01*
X49354041Y-34373327D01*
X49273411Y-34419417D01*
X49202549Y-34460032D01*
X49140894Y-34495505D01*
X49087883Y-34526169D01*
X49042957Y-34552359D01*
X49005553Y-34574407D01*
X48975111Y-34592647D01*
X48951070Y-34607413D01*
X48932868Y-34619039D01*
X48919943Y-34627857D01*
X48911736Y-34634201D01*
X48907684Y-34638406D01*
X48907226Y-34640804D01*
X48450002Y-34640804D01*
X48448470Y-34407283D01*
X45972894Y-33021661D01*
X45809126Y-32930004D01*
X45648117Y-32839904D01*
X45490212Y-32751552D01*
X45335752Y-32665141D01*
X45185081Y-32580862D01*
X45038541Y-32498907D01*
X44896477Y-32419466D01*
X44759232Y-32342733D01*
X44627147Y-32268899D01*
X44500568Y-32198155D01*
X44379836Y-32130692D01*
X44265294Y-32066703D01*
X44157287Y-32006380D01*
X44056156Y-31949913D01*
X43962246Y-31897495D01*
X43875899Y-31849317D01*
X43797459Y-31805571D01*
X43727268Y-31766448D01*
X43665670Y-31732140D01*
X43613007Y-31702839D01*
X43569624Y-31678737D01*
X43535863Y-31660024D01*
X43512067Y-31646893D01*
X43498579Y-31639536D01*
X43495434Y-31637922D01*
X43410874Y-31637922D01*
X43408990Y-31617935D01*
X43406546Y-31591282D01*
X43405289Y-31576461D01*
X43405117Y-31573562D01*
X43405790Y-31560831D01*
X43547206Y-31560831D01*
X43551452Y-31564887D01*
X43566136Y-31574576D01*
X43590703Y-31589578D01*
X43624596Y-31609574D01*
X43667258Y-31634243D01*
X43718132Y-31663266D01*
X43776662Y-31696324D01*
X43842291Y-31733097D01*
X43914464Y-31773266D01*
X43988782Y-31814391D01*
X44013196Y-31827900D01*
X44046167Y-31846196D01*
X44086826Y-31868795D01*
X44134306Y-31895212D01*
X44187739Y-31924964D01*
X44246257Y-31957564D01*
X44308993Y-31992530D01*
X44375079Y-32029376D01*
X44443648Y-32067619D01*
X44513831Y-32106774D01*
X44584761Y-32146357D01*
X44655570Y-32185882D01*
X44725390Y-32224867D01*
X44793354Y-32262826D01*
X44858595Y-32299275D01*
X44920243Y-32333729D01*
X44977432Y-32365705D01*
X45029294Y-32394718D01*
X45074961Y-32420284D01*
X45113566Y-32441917D01*
X45144240Y-32459135D01*
X45166117Y-32471451D01*
X45178328Y-32478383D01*
X45180432Y-32479613D01*
X45196733Y-32489225D01*
X45209670Y-32496212D01*
X45211690Y-32497164D01*
X45218194Y-32500651D01*
X45234603Y-32509663D01*
X45259903Y-32523636D01*
X45293078Y-32542005D01*
X45333115Y-32564205D01*
X45378998Y-32589672D01*
X45429713Y-32617841D01*
X45484245Y-32648148D01*
X45541579Y-32680027D01*
X45600702Y-32712915D01*
X45660598Y-32746246D01*
X45720253Y-32779456D01*
X45778652Y-32811980D01*
X45834781Y-32843254D01*
X45887624Y-32872713D01*
X45936168Y-32899791D01*
X45979398Y-32923926D01*
X46016298Y-32944551D01*
X46045855Y-32961102D01*
X46067054Y-32973015D01*
X46078880Y-32979725D01*
X46080654Y-32980762D01*
X46088340Y-32985142D01*
X46105594Y-32994825D01*
X46131049Y-33009050D01*
X46163339Y-33027059D01*
X46201096Y-33048091D01*
X46242954Y-33071386D01*
X46287545Y-33096186D01*
X46333503Y-33121731D01*
X46379460Y-33147260D01*
X46424050Y-33172015D01*
X46465906Y-33195236D01*
X46503660Y-33216163D01*
X46535946Y-33234037D01*
X46561397Y-33248098D01*
X46578646Y-33257586D01*
X46585887Y-33261514D01*
X46593627Y-33265755D01*
X46611519Y-33275659D01*
X46638795Y-33290799D01*
X46674688Y-33310747D01*
X46718431Y-33335078D01*
X46769255Y-33363362D01*
X46826393Y-33395175D01*
X46889078Y-33430087D01*
X46956542Y-33467671D01*
X47028017Y-33507502D01*
X47102736Y-33549151D01*
X47140290Y-33570087D01*
X47231538Y-33620962D01*
X47312547Y-33666128D01*
X47383999Y-33705964D01*
X47446574Y-33740850D01*
X47500954Y-33771164D01*
X47547822Y-33797286D01*
X47587857Y-33819594D01*
X47621743Y-33838469D01*
X47650160Y-33854288D01*
X47673789Y-33867432D01*
X47693313Y-33878280D01*
X47709413Y-33887210D01*
X47722770Y-33894602D01*
X47734066Y-33900835D01*
X47743982Y-33906288D01*
X47753200Y-33911341D01*
X47762401Y-33916372D01*
X47772267Y-33921760D01*
X47777947Y-33924862D01*
X47806236Y-33940467D01*
X47839855Y-33959233D01*
X47873296Y-33978081D01*
X47887348Y-33986069D01*
X47914755Y-34001640D01*
X47940976Y-34016424D01*
X47962378Y-34028377D01*
X47972077Y-34033711D01*
X47991811Y-34044514D01*
X48019552Y-34059829D01*
X48053914Y-34078880D01*
X48093515Y-34100895D01*
X48136970Y-34125099D01*
X48182896Y-34150719D01*
X48229908Y-34176980D01*
X48276624Y-34203110D01*
X48321658Y-34228332D01*
X48363627Y-34251875D01*
X48401148Y-34272965D01*
X48432836Y-34290826D01*
X48457308Y-34304686D01*
X48473179Y-34313770D01*
X48478359Y-34316829D01*
X48488345Y-34322115D01*
X48497812Y-34323578D01*
X48509662Y-34320534D01*
X48526798Y-34312303D01*
X48548187Y-34300435D01*
X48574828Y-34285427D01*
X48602789Y-34269812D01*
X48625328Y-34257350D01*
X48636523Y-34251164D01*
X48657646Y-34239440D01*
X48687705Y-34222732D01*
X48725709Y-34201592D01*
X48770664Y-34176571D01*
X48821580Y-34148223D01*
X48877464Y-34117098D01*
X48937325Y-34083750D01*
X49000169Y-34048731D01*
X49034506Y-34029593D01*
X49111796Y-33986515D01*
X49196948Y-33939058D01*
X49287467Y-33888614D01*
X49380860Y-33836570D01*
X49474635Y-33784316D01*
X49566299Y-33733242D01*
X49653357Y-33684737D01*
X49733316Y-33640189D01*
X49772187Y-33618535D01*
X49846860Y-33576935D01*
X49928236Y-33531597D01*
X50013959Y-33483834D01*
X50101674Y-33434959D01*
X50189024Y-33386284D01*
X50204383Y-33377725D01*
X51110313Y-33377725D01*
X51115527Y-33382720D01*
X51130062Y-33391951D01*
X51151895Y-33404393D01*
X51179001Y-33419024D01*
X51209358Y-33434821D01*
X51240942Y-33450761D01*
X51271731Y-33465821D01*
X51299701Y-33478978D01*
X51322829Y-33489209D01*
X51339091Y-33495491D01*
X51346108Y-33496943D01*
X51352529Y-33493622D01*
X51369264Y-33484339D01*
X51395801Y-33469388D01*
X51431627Y-33449062D01*
X51476231Y-33423656D01*
X51529100Y-33393463D01*
X51589722Y-33358776D01*
X51657585Y-33319890D01*
X51732178Y-33277098D01*
X51812987Y-33230694D01*
X51899501Y-33180971D01*
X51991209Y-33128223D01*
X52087597Y-33072745D01*
X52188154Y-33014829D01*
X52292367Y-32954769D01*
X52399725Y-32892860D01*
X52470146Y-32852231D01*
X52579058Y-32789346D01*
X52685013Y-32728100D01*
X52787507Y-32668786D01*
X52886038Y-32611697D01*
X52980101Y-32557126D01*
X53069195Y-32505369D01*
X53152816Y-32456718D01*
X53230461Y-32411466D01*
X53301627Y-32369909D01*
X53365811Y-32332339D01*
X53422510Y-32299049D01*
X53471221Y-32270335D01*
X53511440Y-32246489D01*
X53542665Y-32227804D01*
X53564392Y-32214576D01*
X53576119Y-32207096D01*
X53578136Y-32205452D01*
X53571120Y-32201636D01*
X53554470Y-32193623D01*
X53529998Y-32182250D01*
X53499513Y-32168358D01*
X53464825Y-32152785D01*
X53458211Y-32149840D01*
X53343300Y-32098739D01*
X52898699Y-32352128D01*
X52731101Y-32447650D01*
X52574041Y-32537175D01*
X52427190Y-32620892D01*
X52290217Y-32698989D01*
X52162796Y-32771655D01*
X52044597Y-32839078D01*
X51935290Y-32901447D01*
X51834549Y-32958951D01*
X51742042Y-33011778D01*
X51657443Y-33060116D01*
X51580421Y-33104155D01*
X51510649Y-33144083D01*
X51447797Y-33180087D01*
X51391537Y-33212358D01*
X51341539Y-33241083D01*
X51297476Y-33266451D01*
X51259018Y-33288650D01*
X51225836Y-33307870D01*
X51197602Y-33324298D01*
X51173987Y-33338123D01*
X51154662Y-33349534D01*
X51139298Y-33358720D01*
X51127567Y-33365868D01*
X51119139Y-33371168D01*
X51113686Y-33374807D01*
X51110880Y-33376975D01*
X51110313Y-33377725D01*
X50204383Y-33377725D01*
X50273654Y-33339122D01*
X50353207Y-33294786D01*
X50425329Y-33254588D01*
X50456731Y-33237085D01*
X50516396Y-33203836D01*
X50573864Y-33171828D01*
X50628016Y-33141684D01*
X50677734Y-33114026D01*
X50721897Y-33089475D01*
X50759389Y-33068654D01*
X50789090Y-33052184D01*
X50809881Y-33040688D01*
X50819320Y-33035505D01*
X50836975Y-33025792D01*
X50863237Y-33011207D01*
X50895827Y-32993024D01*
X50932462Y-32972517D01*
X50970862Y-32950958D01*
X50983352Y-32943932D01*
X51018953Y-32923983D01*
X51050866Y-32906274D01*
X51077498Y-32891673D01*
X51097256Y-32881051D01*
X51108550Y-32875275D01*
X51110543Y-32874476D01*
X51117803Y-32871238D01*
X51130199Y-32863394D01*
X51130932Y-32862884D01*
X51144258Y-32854467D01*
X51164759Y-32842512D01*
X51188534Y-32829279D01*
X51194412Y-32826101D01*
X51218502Y-32813005D01*
X51249481Y-32795942D01*
X51283363Y-32777119D01*
X51316164Y-32758739D01*
X51316317Y-32758653D01*
X51347072Y-32741368D01*
X51376942Y-32724647D01*
X51402711Y-32710288D01*
X51421161Y-32700086D01*
X51422593Y-32699302D01*
X51440227Y-32689575D01*
X51465453Y-32675551D01*
X51494972Y-32659070D01*
X51525482Y-32641970D01*
X51526957Y-32641142D01*
X51558503Y-32623467D01*
X51590262Y-32605752D01*
X51618526Y-32590060D01*
X51639485Y-32578511D01*
X51650651Y-32572345D01*
X51671899Y-32560555D01*
X51702393Y-32543606D01*
X51741297Y-32521965D01*
X51787773Y-32496096D01*
X51840986Y-32466466D01*
X51900097Y-32433541D01*
X51964271Y-32397786D01*
X52032671Y-32359668D01*
X52104460Y-32319653D01*
X52178801Y-32278205D01*
X52188407Y-32272850D01*
X52262411Y-32231592D01*
X52333546Y-32191946D01*
X52401022Y-32154354D01*
X52464048Y-32119253D01*
X52521833Y-32087085D01*
X52573587Y-32058288D01*
X52618520Y-32033304D01*
X52655840Y-32012571D01*
X52684758Y-31996529D01*
X52704482Y-31985619D01*
X52714223Y-31980280D01*
X52714862Y-31979941D01*
X52737275Y-31968039D01*
X52767531Y-31951590D01*
X52804567Y-31931196D01*
X52847321Y-31907462D01*
X52894728Y-31880990D01*
X52945728Y-31852385D01*
X52999255Y-31822250D01*
X53054249Y-31791189D01*
X53109645Y-31759806D01*
X53164381Y-31728704D01*
X53217394Y-31698486D01*
X53267621Y-31669757D01*
X53313999Y-31643121D01*
X53355465Y-31619180D01*
X53390957Y-31598538D01*
X53419410Y-31581800D01*
X53439763Y-31569568D01*
X53450953Y-31562447D01*
X53452812Y-31560847D01*
X53446258Y-31557453D01*
X53429424Y-31549618D01*
X53403504Y-31537872D01*
X53369690Y-31522749D01*
X53329175Y-31504780D01*
X53283150Y-31484495D01*
X53232808Y-31462427D01*
X53198030Y-31447246D01*
X53119528Y-31413032D01*
X53033990Y-31375750D01*
X52942197Y-31335740D01*
X52844926Y-31293341D01*
X52742957Y-31248892D01*
X52637066Y-31202733D01*
X52528034Y-31155203D01*
X52416638Y-31106641D01*
X52303657Y-31057388D01*
X52189870Y-31007782D01*
X52076055Y-30958163D01*
X51962990Y-30908870D01*
X51851454Y-30860242D01*
X51742226Y-30812620D01*
X51636084Y-30766342D01*
X51533806Y-30721748D01*
X51436172Y-30679177D01*
X51343959Y-30638969D01*
X51257946Y-30601463D01*
X51178911Y-30566999D01*
X51107634Y-30535915D01*
X51044892Y-30508552D01*
X50991464Y-30485249D01*
X50948129Y-30466344D01*
X50922470Y-30455149D01*
X50878822Y-30436104D01*
X50824916Y-30412589D01*
X50761956Y-30385129D01*
X50691146Y-30354249D01*
X50613691Y-30320474D01*
X50530794Y-30284328D01*
X50443659Y-30246338D01*
X50353491Y-30207027D01*
X50261494Y-30166921D01*
X50168871Y-30126544D01*
X50076826Y-30086423D01*
X50019123Y-30061271D01*
X49934293Y-30024294D01*
X49852345Y-29988565D01*
X49774047Y-29954421D01*
X49700167Y-29922196D01*
X49631473Y-29892226D01*
X49568733Y-29864846D01*
X49512715Y-29840391D01*
X49464187Y-29819196D01*
X49423918Y-29801597D01*
X49392674Y-29787930D01*
X49371225Y-29778528D01*
X49360338Y-29773728D01*
X49359586Y-29773390D01*
X49349825Y-29769072D01*
X49329570Y-29760193D01*
X49299795Y-29747177D01*
X49261473Y-29730449D01*
X49215576Y-29710432D01*
X49163078Y-29687550D01*
X49104951Y-29662229D01*
X49042168Y-29634891D01*
X48975703Y-29605962D01*
X48917267Y-29580537D01*
X48499954Y-29398999D01*
X47501294Y-29833959D01*
X47394789Y-29880350D01*
X47291158Y-29925495D01*
X47191002Y-29969134D01*
X47094922Y-30011002D01*
X47003519Y-30050840D01*
X46917394Y-30088384D01*
X46837147Y-30123372D01*
X46763379Y-30155543D01*
X46696692Y-30184634D01*
X46637687Y-30210383D01*
X46586964Y-30232528D01*
X46545124Y-30250808D01*
X46512768Y-30264959D01*
X46490497Y-30274720D01*
X46478912Y-30279829D01*
X46477627Y-30280407D01*
X46469741Y-30283897D01*
X46450887Y-30292165D01*
X46421559Y-30304998D01*
X46382248Y-30322181D01*
X46333449Y-30343497D01*
X46275656Y-30368731D01*
X46209361Y-30397669D01*
X46135059Y-30430094D01*
X46053242Y-30465793D01*
X45964404Y-30504548D01*
X45869039Y-30546146D01*
X45767640Y-30590371D01*
X45660700Y-30637007D01*
X45548714Y-30685839D01*
X45432174Y-30736653D01*
X45311573Y-30789232D01*
X45187407Y-30843361D01*
X45060167Y-30898826D01*
X45002264Y-30924065D01*
X44874076Y-30979948D01*
X44748886Y-31034544D01*
X44627176Y-31087641D01*
X44509432Y-31139028D01*
X44396137Y-31188492D01*
X44287778Y-31235821D01*
X44184837Y-31280803D01*
X44087799Y-31323226D01*
X43997149Y-31362878D01*
X43913372Y-31399547D01*
X43836952Y-31433022D01*
X43768372Y-31463089D01*
X43708119Y-31489537D01*
X43656676Y-31512155D01*
X43614528Y-31530729D01*
X43582158Y-31545048D01*
X43560053Y-31554901D01*
X43548695Y-31560074D01*
X43547206Y-31560831D01*
X43405790Y-31560831D01*
X43406361Y-31550036D01*
X43410897Y-31535234D01*
X43416715Y-31527979D01*
X43423416Y-31524591D01*
X43441138Y-31516444D01*
X43469433Y-31503731D01*
X43507854Y-31486645D01*
X43555954Y-31465381D01*
X43613287Y-31440133D01*
X43679404Y-31411095D01*
X43753859Y-31378459D01*
X43836206Y-31342421D01*
X43925996Y-31303175D01*
X44022783Y-31260913D01*
X44126119Y-31215830D01*
X44235558Y-31168120D01*
X44350653Y-31117976D01*
X44470956Y-31065593D01*
X44596020Y-31011164D01*
X44725399Y-30954884D01*
X44858645Y-30896945D01*
X44995311Y-30837543D01*
X45134950Y-30776870D01*
X45277115Y-30715122D01*
X45421359Y-30652491D01*
X45567235Y-30589171D01*
X45714296Y-30525357D01*
X45862094Y-30461242D01*
X46010183Y-30397020D01*
X46158116Y-30332885D01*
X46305445Y-30269031D01*
X46451724Y-30205651D01*
X46596505Y-30142941D01*
X46739341Y-30081092D01*
X46879785Y-30020300D01*
X47017391Y-29960759D01*
X47151710Y-29902661D01*
X47282297Y-29846202D01*
X47408703Y-29791574D01*
X47530483Y-29738972D01*
X47647188Y-29688590D01*
X47758372Y-29640621D01*
X47863587Y-29595259D01*
X47962387Y-29552699D01*
X48054324Y-29513133D01*
X48138952Y-29476757D01*
X48215823Y-29443764D01*
X48284491Y-29414347D01*
X48344507Y-29388701D01*
X48395426Y-29367019D01*
X48436800Y-29349496D01*
X48468181Y-29336325D01*
X48489124Y-29327700D01*
X48499180Y-29323815D01*
X48499999Y-29323602D01*
X48506789Y-29326065D01*
G37*
%TO.C,Q1*%
D11*
X55300000Y-58290000D02*
X51700000Y-58290000D01*
X53500000Y-62740000D02*
G75*
G02*
X51661522Y-58301522I0J2600000D01*
G01*
X55338478Y-58301522D02*
G75*
G02*
X53500000Y-62740001I-1838478J-1838478D01*
G01*
%TO.C,R3*%
X40230000Y-53630000D02*
X46770000Y-53630000D01*
X40230000Y-53960000D02*
X40230000Y-53630000D01*
X40230000Y-56040000D02*
X40230000Y-56370000D01*
X40230000Y-56370000D02*
X46770000Y-56370000D01*
X46770000Y-53630000D02*
X46770000Y-53960000D01*
X46770000Y-56370000D02*
X46770000Y-56040000D01*
%TD*%
%LPC*%
D13*
%TO.C,R2*%
X48300000Y-50000000D03*
X51700000Y-50000000D03*
%TD*%
D14*
%TO.C,D2*%
X40190000Y-60000000D03*
D13*
X47810000Y-60000000D03*
%TD*%
%TO.C,R4*%
X40190000Y-44000000D03*
X47810000Y-44000000D03*
%TD*%
D15*
%TO.C,Q1*%
X54770000Y-60140000D03*
D16*
X53500000Y-60140000D03*
X52230000Y-60140000D03*
%TD*%
D13*
%TO.C,R3*%
X39690000Y-55000000D03*
X47310000Y-55000000D03*
%TD*%
D17*
%TO.C,J1*%
X35500000Y-57040000D03*
D18*
X35500000Y-54500000D03*
X35500000Y-51960000D03*
%TD*%
D17*
%TO.C,J2*%
X29500000Y-42960000D03*
D18*
X29500000Y-45500000D03*
X29500000Y-48040000D03*
%TD*%
D17*
%TO.C,J4*%
X64500000Y-42960000D03*
D18*
X64500000Y-45500000D03*
X64500000Y-48040000D03*
%TD*%
D17*
%TO.C,J3*%
X70500000Y-57040000D03*
D18*
X70500000Y-54500000D03*
X70500000Y-51960000D03*
%TD*%
%LPD*%
M02*
