%TF.GenerationSoftware,KiCad,Pcbnew,10.0.3*%
%TF.CreationDate,2026-06-09T21:56:31+09:00*%
%TF.ProjectId,rs_torch,72735f74-6f72-4636-982e-6b696361645f,rev?*%
%TF.SameCoordinates,Original*%
%TF.FileFunction,Soldermask,Top*%
%TF.FilePolarity,Negative*%
%FSLAX46Y46*%
G04 Gerber Fmt 4.6, Leading zero omitted, Abs format (unit mm)*
G04 Created by KiCad (PCBNEW 10.0.3) date 2026-06-09 21:56:31*
%MOMM*%
%LPD*%
G01*
G04 APERTURE LIST*
G04 Aperture macros list*
%AMRoundRect*
0 Rectangle with rounded corners*
0 $1 Rounding radius*
0 $2 $3 $4 $5 $6 $7 $8 $9 X,Y pos of 4 corners*
0 Add a 4 corners polygon primitive as box body*
4,1,4,$2,$3,$4,$5,$6,$7,$8,$9,$2,$3,0*
0 Add four circle primitives for the rounded corners*
1,1,$1+$1,$2,$3*
1,1,$1+$1,$4,$5*
1,1,$1+$1,$6,$7*
1,1,$1+$1,$8,$9*
0 Add four rect primitives between the rounded corners*
20,1,$1+$1,$2,$3,$4,$5,0*
20,1,$1+$1,$4,$5,$6,$7,0*
20,1,$1+$1,$6,$7,$8,$9,0*
20,1,$1+$1,$8,$9,$2,$3,0*%
G04 Aperture macros list end*
%ADD10RoundRect,0.249999X-0.850001X-0.850001X0.850001X-0.850001X0.850001X0.850001X-0.850001X0.850001X0*%
%ADD11C,2.200000*%
%ADD12RoundRect,0.249999X-0.850001X0.850001X-0.850001X-0.850001X0.850001X-0.850001X0.850001X0.850001X0*%
%ADD13C,1.600000*%
%ADD14R,1.500000X1.050000*%
%ADD15O,1.500000X1.050000*%
%ADD16RoundRect,0.249999X0.850001X0.850001X-0.850001X0.850001X-0.850001X-0.850001X0.850001X-0.850001X0*%
%ADD17C,2.500000*%
%ADD18R,1.700000X1.700000*%
%ADD19C,1.700000*%
G04 APERTURE END LIST*
D10*
%TO.C,D4*%
X31920000Y-65500000D03*
D11*
X42080000Y-65500000D03*
%TD*%
D12*
%TO.C,D3*%
X38500000Y-30920000D03*
D11*
X38500000Y-41080000D03*
%TD*%
D12*
%TO.C,D2*%
X33000000Y-30978416D03*
D11*
X33000000Y-41138416D03*
%TD*%
D13*
%TO.C,R5*%
X61000000Y-62500000D03*
X68620000Y-62500000D03*
%TD*%
%TO.C,R1*%
X35500000Y-45500000D03*
X43120000Y-45500000D03*
%TD*%
D14*
%TO.C,Q2*%
X54500000Y-43000000D03*
D15*
X54500000Y-44270000D03*
X54500000Y-45540000D03*
%TD*%
D13*
%TO.C,R2*%
X43120000Y-49000000D03*
X35500000Y-49000000D03*
%TD*%
D16*
%TO.C,D1*%
X66080000Y-57000000D03*
D11*
X55920000Y-57000000D03*
%TD*%
D13*
%TO.C,R4*%
X50000000Y-49000000D03*
X50000000Y-56620000D03*
%TD*%
%TO.C,R3*%
X47000000Y-53690000D03*
X39380000Y-53690000D03*
%TD*%
D17*
%TO.C,TP1*%
X56000000Y-52500000D03*
%TD*%
D14*
%TO.C,Q1*%
X47000000Y-43000000D03*
D15*
X47000000Y-44270000D03*
X47000000Y-45540000D03*
%TD*%
D17*
%TO.C,TP2*%
X56000000Y-49000000D03*
%TD*%
D18*
%TO.C,J1*%
X35500000Y-57040000D03*
D19*
X35500000Y-54500000D03*
X35500000Y-51960000D03*
%TD*%
D18*
%TO.C,J5*%
X57040000Y-29500000D03*
D19*
X54500000Y-29500000D03*
X51960000Y-29500000D03*
%TD*%
D18*
%TO.C,J7*%
X57040000Y-64500000D03*
D19*
X54500000Y-64500000D03*
X51960000Y-64500000D03*
%TD*%
D18*
%TO.C,J6*%
X42960000Y-35500000D03*
D19*
X45500000Y-35500000D03*
X48040000Y-35500000D03*
%TD*%
D18*
%TO.C,J4*%
X64500000Y-42960000D03*
D19*
X64500000Y-45500000D03*
X64500000Y-48040000D03*
%TD*%
D18*
%TO.C,J3*%
X70500000Y-57040000D03*
D19*
X70500000Y-54500000D03*
X70500000Y-51960000D03*
%TD*%
D18*
%TO.C,J8*%
X42960000Y-70500000D03*
D19*
X45500000Y-70500000D03*
X48040000Y-70500000D03*
%TD*%
D18*
%TO.C,J2*%
X29500000Y-42960000D03*
D19*
X29500000Y-45500000D03*
X29500000Y-48040000D03*
%TD*%
M02*
