%TF.GenerationSoftware,KiCad,Pcbnew,10.0.3*%
%TF.CreationDate,2026-06-05T10:26:20+09:00*%
%TF.ProjectId,rs_lever,72735f6c-6576-4657-922e-6b696361645f,rev?*%
%TF.SameCoordinates,Original*%
%TF.FileFunction,Copper,L1,Top*%
%TF.FilePolarity,Positive*%
%FSLAX46Y46*%
G04 Gerber Fmt 4.6, Leading zero omitted, Abs format (unit mm)*
G04 Created by KiCad (PCBNEW 10.0.3) date 2026-06-05 10:26:20*
%MOMM*%
%LPD*%
G01*
G04 APERTURE LIST*
G04 Aperture macros list*
%AMRoundRect*
0 Rectangle with rounded corners*
0 $1 Rounding radius*
0 $2 $3 $4 $5 $6 $7 $8 $9 X,Y pos of 4 corners*
0 Add a 4 corners polygon primitive as box body*
4,1,4,$2,$3,$4,$5,$6,$7,$8,$9,$2,$3,0*
0 Add four circle primitives for the rounded corners*
1,1,$1+$1,$2,$3*
1,1,$1+$1,$4,$5*
1,1,$1+$1,$6,$7*
1,1,$1+$1,$8,$9*
0 Add four rect primitives between the rounded corners*
20,1,$1+$1,$2,$3,$4,$5,0*
20,1,$1+$1,$4,$5,$6,$7,0*
20,1,$1+$1,$6,$7,$8,$9,0*
20,1,$1+$1,$8,$9,$2,$3,0*%
G04 Aperture macros list end*
%TA.AperFunction,ComponentPad*%
%ADD10C,2.500000*%
%TD*%
%TA.AperFunction,ComponentPad*%
%ADD11C,1.200000*%
%TD*%
%TA.AperFunction,ComponentPad*%
%ADD12R,1.200000X1.200000*%
%TD*%
%TA.AperFunction,ComponentPad*%
%ADD13RoundRect,0.250000X0.550000X-0.550000X0.550000X0.550000X-0.550000X0.550000X-0.550000X-0.550000X0*%
%TD*%
%TA.AperFunction,ComponentPad*%
%ADD14C,1.600000*%
%TD*%
%TA.AperFunction,ComponentPad*%
%ADD15R,1.700000X1.700000*%
%TD*%
%TA.AperFunction,ComponentPad*%
%ADD16C,1.700000*%
%TD*%
%TA.AperFunction,Conductor*%
%ADD17C,0.500000*%
%TD*%
G04 APERTURE END LIST*
D10*
%TO.P,TP4,1,1_1*%
%TO.N,Net-(TP3-Pad1)*%
X44000000Y-60000000D03*
%TD*%
%TO.P,TP3,1,1_1*%
%TO.N,Net-(TP3-Pad1)*%
X65000000Y-40000000D03*
%TD*%
%TO.P,TP2,1,1_1*%
%TO.N,GND*%
X64000000Y-60000000D03*
%TD*%
D11*
%TO.P,SW1,*%
%TO.N,*%
X47460000Y-55080000D03*
X52540000Y-55080000D03*
D12*
%TO.P,SW1,1,A_1*%
%TO.N,+5V*%
X47460000Y-50000000D03*
D11*
%TO.P,SW1,2,B_2*%
%TO.N,/OUT*%
X50000000Y-50000000D03*
%TO.P,SW1,3,C_3*%
%TO.N,GND*%
X52540000Y-50000000D03*
%TD*%
D13*
%TO.P,D1,1,K_1*%
%TO.N,+5V*%
X35500000Y-48310000D03*
D14*
%TO.P,D1,2,A_2*%
%TO.N,Net-(D1-A)*%
X35500000Y-40690000D03*
%TD*%
D10*
%TO.P,TP1,1,1_1*%
%TO.N,Net-(D1-A)*%
X45000000Y-40000000D03*
%TD*%
D15*
%TO.P,J1,1,Pin_1_1*%
%TO.N,GND*%
X35500000Y-57040000D03*
D16*
%TO.P,J1,2,Pin_2_2*%
%TO.N,/OUT*%
X35500000Y-54500000D03*
%TO.P,J1,3,Pin_3_3*%
%TO.N,+5V*%
X35500000Y-51960000D03*
%TD*%
D15*
%TO.P,J2,1,Pin_1_1*%
%TO.N,GND*%
X29500000Y-42960000D03*
D16*
%TO.P,J2,2,Pin_2_2*%
%TO.N,/OUT*%
X29500000Y-45500000D03*
%TO.P,J2,3,Pin_3_3*%
%TO.N,+5V*%
X29500000Y-48040000D03*
%TD*%
%TO.N,Net-(TP3-Pad1)*%
D17*
X45000000Y-60000000D02*
X65000000Y-40000000D01*
X44000000Y-60000000D02*
X45000000Y-60000000D01*
%TO.N,Net-(D1-A)*%
X36190000Y-40000000D02*
X35500000Y-40690000D01*
X45000000Y-40000000D02*
X36190000Y-40000000D01*
%TO.N,/OUT*%
X36974975Y-53025025D02*
X35500000Y-54500000D01*
X39000000Y-51000000D02*
X37449950Y-51000000D01*
X37449950Y-51000000D02*
X36974975Y-51474975D01*
X39050000Y-51050000D02*
X39000000Y-51000000D01*
X48950000Y-51050000D02*
X39050000Y-51050000D01*
X50000000Y-50000000D02*
X48950000Y-51050000D01*
X36974975Y-51474975D02*
X36974975Y-53025025D01*
%TO.N,GND*%
X27500000Y-49040000D02*
X27500000Y-44960000D01*
X35500000Y-57040000D02*
X27500000Y-49040000D01*
X27500000Y-44960000D02*
X29500000Y-42960000D01*
%TO.N,+5V*%
X35500000Y-51960000D02*
X35500000Y-48310000D01*
X35500000Y-51960000D02*
X37460000Y-50000000D01*
X37460000Y-50000000D02*
X47460000Y-50000000D01*
X29500000Y-48040000D02*
X33420000Y-51960000D01*
X33420000Y-51960000D02*
X35500000Y-51960000D01*
%TO.N,/OUT*%
X28200000Y-46800000D02*
X28200000Y-48578478D01*
X29500000Y-45500000D02*
X28200000Y-46800000D01*
X34121522Y-54500000D02*
X35500000Y-54500000D01*
X28200000Y-48578478D02*
X34121522Y-54500000D01*
%TD*%
%TA.AperFunction,Conductor*%
%TO.N,GND*%
G36*
X71442539Y-28520185D02*
G01*
X71488294Y-28572989D01*
X71499500Y-28624500D01*
X71499500Y-71375500D01*
X71479815Y-71442539D01*
X71427011Y-71488294D01*
X71375500Y-71499500D01*
X28624500Y-71499500D01*
X28557461Y-71479815D01*
X28511706Y-71427011D01*
X28500500Y-71375500D01*
X28500500Y-59885258D01*
X42249500Y-59885258D01*
X42249500Y-60114741D01*
X42274446Y-60304215D01*
X42279452Y-60342238D01*
X42316397Y-60480119D01*
X42338842Y-60563887D01*
X42426650Y-60775876D01*
X42426656Y-60775888D01*
X42541228Y-60974334D01*
X42541392Y-60974617D01*
X42681081Y-61156661D01*
X42681089Y-61156670D01*
X42843330Y-61318911D01*
X42843338Y-61318918D01*
X43025382Y-61458607D01*
X43025385Y-61458608D01*
X43025388Y-61458611D01*
X43224112Y-61573344D01*
X43224117Y-61573346D01*
X43224123Y-61573349D01*
X43315480Y-61611190D01*
X43436113Y-61661158D01*
X43657762Y-61720548D01*
X43885266Y-61750500D01*
X43885273Y-61750500D01*
X44114727Y-61750500D01*
X44114734Y-61750500D01*
X44342238Y-61720548D01*
X44563887Y-61661158D01*
X44775888Y-61573344D01*
X44974612Y-61458611D01*
X45156661Y-61318919D01*
X45156665Y-61318914D01*
X45156670Y-61318911D01*
X45318911Y-61156670D01*
X45318914Y-61156665D01*
X45318919Y-61156661D01*
X45458611Y-60974612D01*
X45573344Y-60775888D01*
X45661158Y-60563887D01*
X45712469Y-60372388D01*
X45744560Y-60316805D01*
X46176060Y-59885305D01*
X62250000Y-59885305D01*
X62250000Y-60114694D01*
X62250001Y-60114710D01*
X62279942Y-60342137D01*
X62339318Y-60563730D01*
X62427102Y-60775659D01*
X62427106Y-60775669D01*
X62541799Y-60974324D01*
X62541805Y-60974331D01*
X62598381Y-61048064D01*
X63435387Y-60211058D01*
X63440889Y-60231591D01*
X63519881Y-60368408D01*
X63631592Y-60480119D01*
X63768409Y-60559111D01*
X63788940Y-60564612D01*
X62951934Y-61401617D01*
X62951934Y-61401618D01*
X63025666Y-61458194D01*
X63224330Y-61572893D01*
X63224340Y-61572897D01*
X63436269Y-61660681D01*
X63657862Y-61720057D01*
X63885289Y-61749998D01*
X63885306Y-61750000D01*
X64114694Y-61750000D01*
X64114710Y-61749998D01*
X64342137Y-61720057D01*
X64563730Y-61660681D01*
X64775659Y-61572897D01*
X64775668Y-61572893D01*
X64974327Y-61458197D01*
X64974334Y-61458192D01*
X65048064Y-61401617D01*
X64211059Y-60564612D01*
X64231591Y-60559111D01*
X64368408Y-60480119D01*
X64480119Y-60368408D01*
X64559111Y-60231591D01*
X64564612Y-60211059D01*
X65401617Y-61048064D01*
X65458192Y-60974334D01*
X65458197Y-60974327D01*
X65572893Y-60775668D01*
X65572897Y-60775659D01*
X65660681Y-60563730D01*
X65720057Y-60342137D01*
X65749998Y-60114710D01*
X65750000Y-60114694D01*
X65750000Y-59885305D01*
X65749998Y-59885289D01*
X65720057Y-59657862D01*
X65660681Y-59436269D01*
X65572897Y-59224340D01*
X65572893Y-59224330D01*
X65458194Y-59025666D01*
X65401618Y-58951934D01*
X65401617Y-58951934D01*
X64564612Y-59788939D01*
X64559111Y-59768409D01*
X64480119Y-59631592D01*
X64368408Y-59519881D01*
X64231591Y-59440889D01*
X64211057Y-59435387D01*
X65048064Y-58598381D01*
X65048064Y-58598380D01*
X64974331Y-58541805D01*
X64974324Y-58541799D01*
X64775669Y-58427106D01*
X64775659Y-58427102D01*
X64563730Y-58339318D01*
X64342137Y-58279942D01*
X64114710Y-58250001D01*
X64114694Y-58250000D01*
X63885306Y-58250000D01*
X63885289Y-58250001D01*
X63657862Y-58279942D01*
X63436269Y-58339318D01*
X63224340Y-58427102D01*
X63224330Y-58427106D01*
X63025673Y-58541801D01*
X63025659Y-58541810D01*
X62951934Y-58598380D01*
X63788940Y-59435387D01*
X63768409Y-59440889D01*
X63631592Y-59519881D01*
X63519881Y-59631592D01*
X63440889Y-59768409D01*
X63435387Y-59788940D01*
X62598380Y-58951934D01*
X62541810Y-59025659D01*
X62541801Y-59025673D01*
X62427106Y-59224330D01*
X62427102Y-59224340D01*
X62339318Y-59436269D01*
X62279942Y-59657862D01*
X62250001Y-59885289D01*
X62250000Y-59885305D01*
X46176060Y-59885305D01*
X51239564Y-54821801D01*
X51300885Y-54788318D01*
X51370577Y-54793302D01*
X51426510Y-54835174D01*
X51450927Y-54900638D01*
X51449717Y-54928880D01*
X51439500Y-54993389D01*
X51439500Y-55166611D01*
X51443989Y-55194951D01*
X51460882Y-55301615D01*
X51466598Y-55337701D01*
X51520127Y-55502445D01*
X51598768Y-55656788D01*
X51700586Y-55796928D01*
X51823072Y-55919414D01*
X51963212Y-56021232D01*
X52117555Y-56099873D01*
X52282299Y-56153402D01*
X52453389Y-56180500D01*
X52453390Y-56180500D01*
X52626610Y-56180500D01*
X52626611Y-56180500D01*
X52797701Y-56153402D01*
X52962445Y-56099873D01*
X53116788Y-56021232D01*
X53256928Y-55919414D01*
X53379414Y-55796928D01*
X53481232Y-55656788D01*
X53559873Y-55502445D01*
X53613402Y-55337701D01*
X53640500Y-55166611D01*
X53640500Y-54993389D01*
X53613402Y-54822299D01*
X53559873Y-54657555D01*
X53481232Y-54503212D01*
X53379414Y-54363072D01*
X53256928Y-54240586D01*
X53116788Y-54138768D01*
X52962445Y-54060127D01*
X52797701Y-54006598D01*
X52797699Y-54006597D01*
X52797698Y-54006597D01*
X52666271Y-53985781D01*
X52626611Y-53979500D01*
X52453389Y-53979500D01*
X52403112Y-53987462D01*
X52388880Y-53989717D01*
X52319587Y-53980761D01*
X52266135Y-53935764D01*
X52245497Y-53869012D01*
X52264223Y-53801698D01*
X52281799Y-53779566D01*
X64357174Y-41704191D01*
X64418495Y-41670708D01*
X64476945Y-41672098D01*
X64657762Y-41720548D01*
X64885266Y-41750500D01*
X64885273Y-41750500D01*
X65114727Y-41750500D01*
X65114734Y-41750500D01*
X65342238Y-41720548D01*
X65563887Y-41661158D01*
X65775888Y-41573344D01*
X65974612Y-41458611D01*
X66156661Y-41318919D01*
X66156665Y-41318914D01*
X66156670Y-41318911D01*
X66318911Y-41156670D01*
X66318914Y-41156665D01*
X66318919Y-41156661D01*
X66458611Y-40974612D01*
X66573344Y-40775888D01*
X66661158Y-40563887D01*
X66720548Y-40342238D01*
X66750500Y-40114734D01*
X66750500Y-39885266D01*
X66720548Y-39657762D01*
X66661158Y-39436113D01*
X66573344Y-39224112D01*
X66458611Y-39025388D01*
X66458608Y-39025385D01*
X66458607Y-39025382D01*
X66318918Y-38843338D01*
X66318911Y-38843330D01*
X66156670Y-38681089D01*
X66156661Y-38681081D01*
X65974617Y-38541392D01*
X65775890Y-38426657D01*
X65775876Y-38426650D01*
X65563887Y-38338842D01*
X65342238Y-38279452D01*
X65304215Y-38274446D01*
X65114741Y-38249500D01*
X65114734Y-38249500D01*
X64885266Y-38249500D01*
X64885258Y-38249500D01*
X64668715Y-38278009D01*
X64657762Y-38279452D01*
X64564076Y-38304554D01*
X64436112Y-38338842D01*
X64224123Y-38426650D01*
X64224109Y-38426657D01*
X64025382Y-38541392D01*
X63843338Y-38681081D01*
X63681081Y-38843338D01*
X63541392Y-39025382D01*
X63426657Y-39224109D01*
X63426650Y-39224123D01*
X63338842Y-39436112D01*
X63279453Y-39657759D01*
X63279451Y-39657770D01*
X63249500Y-39885258D01*
X63249500Y-40114741D01*
X63274446Y-40304215D01*
X63279452Y-40342238D01*
X63279453Y-40342240D01*
X63327900Y-40523051D01*
X63326237Y-40592901D01*
X63295806Y-40642825D01*
X53851681Y-50086950D01*
X53790358Y-50120435D01*
X53720666Y-50115451D01*
X53664733Y-50073579D01*
X53640316Y-50008115D01*
X53640000Y-49999269D01*
X53640000Y-49913428D01*
X53612914Y-49742415D01*
X53559408Y-49577742D01*
X53480801Y-49423471D01*
X53476290Y-49417262D01*
X53476289Y-49417261D01*
X52834854Y-50058698D01*
X52840000Y-50039496D01*
X52840000Y-49960504D01*
X52819556Y-49884204D01*
X52780060Y-49815795D01*
X52724205Y-49759940D01*
X52655796Y-49720444D01*
X52579496Y-49700000D01*
X52500504Y-49700000D01*
X52424204Y-49720444D01*
X52355795Y-49759940D01*
X52299940Y-49815795D01*
X52260444Y-49884204D01*
X52240000Y-49960504D01*
X52240000Y-50039496D01*
X52260444Y-50115796D01*
X52299940Y-50184205D01*
X52355795Y-50240060D01*
X52424204Y-50279556D01*
X52500504Y-50300000D01*
X52579496Y-50300000D01*
X52598698Y-50294854D01*
X51957261Y-50936289D01*
X51957262Y-50936290D01*
X51963471Y-50940801D01*
X52117742Y-51019408D01*
X52282415Y-51072914D01*
X52453429Y-51100000D01*
X52539269Y-51100000D01*
X52606308Y-51119685D01*
X52652063Y-51172489D01*
X52662007Y-51241647D01*
X52632982Y-51305203D01*
X52626950Y-51311681D01*
X48772181Y-55166450D01*
X48710858Y-55199935D01*
X48641166Y-55194951D01*
X48585233Y-55153079D01*
X48560816Y-55087615D01*
X48560500Y-55078769D01*
X48560500Y-54993389D01*
X48550283Y-54928880D01*
X48533402Y-54822299D01*
X48479873Y-54657555D01*
X48401232Y-54503212D01*
X48299414Y-54363072D01*
X48176928Y-54240586D01*
X48036788Y-54138768D01*
X47882445Y-54060127D01*
X47717701Y-54006598D01*
X47717699Y-54006597D01*
X47717698Y-54006597D01*
X47586271Y-53985781D01*
X47546611Y-53979500D01*
X47373389Y-53979500D01*
X47333728Y-53985781D01*
X47202302Y-54006597D01*
X47037552Y-54060128D01*
X46883211Y-54138768D01*
X46811058Y-54191191D01*
X46743072Y-54240586D01*
X46743070Y-54240588D01*
X46743069Y-54240588D01*
X46620588Y-54363069D01*
X46620588Y-54363070D01*
X46620586Y-54363072D01*
X46576859Y-54423256D01*
X46518768Y-54503211D01*
X46440128Y-54657552D01*
X46386597Y-54822302D01*
X46374190Y-54900638D01*
X46359500Y-54993389D01*
X46359500Y-55166611D01*
X46363989Y-55194951D01*
X46380882Y-55301615D01*
X46386598Y-55337701D01*
X46440127Y-55502445D01*
X46518768Y-55656788D01*
X46620586Y-55796928D01*
X46743072Y-55919414D01*
X46883212Y-56021232D01*
X47037555Y-56099873D01*
X47202299Y-56153402D01*
X47373389Y-56180500D01*
X47373390Y-56180500D01*
X47458769Y-56180500D01*
X47525808Y-56200185D01*
X47571563Y-56252989D01*
X47581507Y-56322147D01*
X47552482Y-56385703D01*
X47546450Y-56392181D01*
X45290641Y-58647990D01*
X45229318Y-58681475D01*
X45159626Y-58676491D01*
X45127473Y-58658684D01*
X44974617Y-58541392D01*
X44775890Y-58426657D01*
X44775876Y-58426650D01*
X44563887Y-58338842D01*
X44543390Y-58333350D01*
X44342238Y-58279452D01*
X44304215Y-58274446D01*
X44114741Y-58249500D01*
X44114734Y-58249500D01*
X43885266Y-58249500D01*
X43885258Y-58249500D01*
X43668715Y-58278009D01*
X43657762Y-58279452D01*
X43564076Y-58304554D01*
X43436112Y-58338842D01*
X43224123Y-58426650D01*
X43224109Y-58426657D01*
X43025382Y-58541392D01*
X42843338Y-58681081D01*
X42681081Y-58843338D01*
X42541392Y-59025382D01*
X42426657Y-59224109D01*
X42426650Y-59224123D01*
X42338842Y-59436112D01*
X42279453Y-59657759D01*
X42279451Y-59657770D01*
X42249500Y-59885258D01*
X28500500Y-59885258D01*
X28500500Y-58934110D01*
X28500500Y-58934108D01*
X28466392Y-58806814D01*
X28400500Y-58692686D01*
X28307314Y-58599500D01*
X28250250Y-58566554D01*
X28193187Y-58533608D01*
X28129539Y-58516554D01*
X28065892Y-58499500D01*
X28065891Y-58499500D01*
X25624500Y-58499500D01*
X25557461Y-58479815D01*
X25511706Y-58427011D01*
X25500500Y-58375500D01*
X25500500Y-48652398D01*
X27449499Y-48652398D01*
X27478340Y-48797385D01*
X27478343Y-48797395D01*
X27534914Y-48933970D01*
X27565754Y-48980125D01*
X27565755Y-48980128D01*
X27617046Y-49056892D01*
X27617052Y-49056899D01*
X33643106Y-55082952D01*
X33643108Y-55082954D01*
X33668606Y-55099990D01*
X33716792Y-55132186D01*
X33766027Y-55165084D01*
X33769714Y-55166611D01*
X33902610Y-55221659D01*
X34018763Y-55244763D01*
X34037990Y-55248587D01*
X34047603Y-55250500D01*
X34047604Y-55250500D01*
X34047605Y-55250500D01*
X34195440Y-55250500D01*
X34312779Y-55250500D01*
X34379818Y-55270185D01*
X34413097Y-55301615D01*
X34469892Y-55379788D01*
X34583818Y-55493714D01*
X34617303Y-55555037D01*
X34612319Y-55624729D01*
X34570447Y-55680662D01*
X34539471Y-55697577D01*
X34407912Y-55746646D01*
X34407906Y-55746649D01*
X34292812Y-55832809D01*
X34292809Y-55832812D01*
X34206649Y-55947906D01*
X34206645Y-55947913D01*
X34156403Y-56082620D01*
X34156401Y-56082627D01*
X34150000Y-56142155D01*
X34150000Y-56790000D01*
X35066988Y-56790000D01*
X35034075Y-56847007D01*
X35000000Y-56974174D01*
X35000000Y-57105826D01*
X35034075Y-57232993D01*
X35066988Y-57290000D01*
X34150000Y-57290000D01*
X34150000Y-57937844D01*
X34156401Y-57997372D01*
X34156403Y-57997379D01*
X34206645Y-58132086D01*
X34206649Y-58132093D01*
X34292809Y-58247187D01*
X34292812Y-58247190D01*
X34407906Y-58333350D01*
X34407913Y-58333354D01*
X34542620Y-58383596D01*
X34542627Y-58383598D01*
X34602155Y-58389999D01*
X34602172Y-58390000D01*
X35250000Y-58390000D01*
X35250000Y-57473012D01*
X35307007Y-57505925D01*
X35434174Y-57540000D01*
X35565826Y-57540000D01*
X35692993Y-57505925D01*
X35750000Y-57473012D01*
X35750000Y-58390000D01*
X36397828Y-58390000D01*
X36397844Y-58389999D01*
X36457372Y-58383598D01*
X36457379Y-58383596D01*
X36592086Y-58333354D01*
X36592093Y-58333350D01*
X36707187Y-58247190D01*
X36707190Y-58247187D01*
X36793350Y-58132093D01*
X36793354Y-58132086D01*
X36843596Y-57997379D01*
X36843598Y-57997372D01*
X36849999Y-57937844D01*
X36850000Y-57937827D01*
X36850000Y-57290000D01*
X35933012Y-57290000D01*
X35965925Y-57232993D01*
X36000000Y-57105826D01*
X36000000Y-56974174D01*
X35965925Y-56847007D01*
X35933012Y-56790000D01*
X36850000Y-56790000D01*
X36850000Y-56142172D01*
X36849999Y-56142155D01*
X36843598Y-56082627D01*
X36843596Y-56082620D01*
X36793354Y-55947913D01*
X36793350Y-55947906D01*
X36707190Y-55832812D01*
X36707187Y-55832809D01*
X36592093Y-55746649D01*
X36592088Y-55746646D01*
X36460528Y-55697577D01*
X36404595Y-55655705D01*
X36380178Y-55590241D01*
X36395030Y-55521968D01*
X36416175Y-55493720D01*
X36530104Y-55379792D01*
X36655051Y-55207816D01*
X36751557Y-55018412D01*
X36817246Y-54816243D01*
X36850500Y-54606287D01*
X36850500Y-54393713D01*
X36835382Y-54298267D01*
X36844336Y-54228978D01*
X36870171Y-54191194D01*
X37557927Y-53503440D01*
X37585180Y-53462652D01*
X37640059Y-53380520D01*
X37669062Y-53310500D01*
X37696634Y-53243937D01*
X37725475Y-53098942D01*
X37725475Y-52951107D01*
X37725475Y-51874500D01*
X37745160Y-51807461D01*
X37797964Y-51761706D01*
X37849475Y-51750500D01*
X38755341Y-51750500D01*
X38785383Y-51754194D01*
X38794299Y-51756420D01*
X38831088Y-51771659D01*
X38947241Y-51794763D01*
X38971757Y-51799639D01*
X38976081Y-51800500D01*
X38976082Y-51800500D01*
X49023920Y-51800500D01*
X49121462Y-51781096D01*
X49168913Y-51771658D01*
X49305495Y-51715084D01*
X49354729Y-51682186D01*
X49428416Y-51632952D01*
X49924549Y-51136819D01*
X49985872Y-51103334D01*
X50012230Y-51100500D01*
X50086610Y-51100500D01*
X50086611Y-51100500D01*
X50257701Y-51073402D01*
X50422445Y-51019873D01*
X50576788Y-50941232D01*
X50716928Y-50839414D01*
X50839414Y-50716928D01*
X50941232Y-50576788D01*
X51019873Y-50422445D01*
X51073402Y-50257701D01*
X51100500Y-50086611D01*
X51100500Y-49913428D01*
X51440000Y-49913428D01*
X51440000Y-50086571D01*
X51467085Y-50257584D01*
X51520592Y-50422259D01*
X51599196Y-50576525D01*
X51603709Y-50582736D01*
X51603709Y-50582737D01*
X52186446Y-50000001D01*
X52186446Y-49999999D01*
X51603709Y-49417261D01*
X51603708Y-49417261D01*
X51599203Y-49423463D01*
X51599193Y-49423480D01*
X51520592Y-49577740D01*
X51467085Y-49742415D01*
X51440000Y-49913428D01*
X51100500Y-49913428D01*
X51100500Y-49913389D01*
X51073402Y-49742299D01*
X51019873Y-49577555D01*
X50941232Y-49423212D01*
X50839414Y-49283072D01*
X50716928Y-49160586D01*
X50583587Y-49063708D01*
X51957261Y-49063708D01*
X51957261Y-49063709D01*
X52540000Y-49646446D01*
X52540001Y-49646446D01*
X53122737Y-49063709D01*
X53116525Y-49059196D01*
X52962259Y-48980592D01*
X52797584Y-48927085D01*
X52626571Y-48900000D01*
X52453429Y-48900000D01*
X52282415Y-48927085D01*
X52117740Y-48980592D01*
X51963480Y-49059193D01*
X51963463Y-49059203D01*
X51957261Y-49063708D01*
X50583587Y-49063708D01*
X50576788Y-49058768D01*
X50422445Y-48980127D01*
X50257701Y-48926598D01*
X50257699Y-48926597D01*
X50257698Y-48926597D01*
X50126271Y-48905781D01*
X50086611Y-48899500D01*
X49913389Y-48899500D01*
X49873728Y-48905781D01*
X49742302Y-48926597D01*
X49577552Y-48980128D01*
X49423211Y-49058768D01*
X49343256Y-49116859D01*
X49283072Y-49160586D01*
X49283070Y-49160588D01*
X49283069Y-49160588D01*
X49160588Y-49283069D01*
X49160588Y-49283070D01*
X49160586Y-49283072D01*
X49122920Y-49334915D01*
X49058768Y-49423211D01*
X48980128Y-49577552D01*
X48926597Y-49742302D01*
X48899500Y-49913389D01*
X48899500Y-49987770D01*
X48890855Y-50017209D01*
X48884332Y-50047197D01*
X48880577Y-50052212D01*
X48879815Y-50054809D01*
X48863185Y-50075446D01*
X48790500Y-50148132D01*
X48772180Y-50166452D01*
X48710856Y-50199936D01*
X48641165Y-50194952D01*
X48585231Y-50153080D01*
X48560815Y-50087615D01*
X48560499Y-50078791D01*
X48560499Y-49352128D01*
X48554091Y-49292517D01*
X48550568Y-49283072D01*
X48503797Y-49157671D01*
X48503793Y-49157664D01*
X48417547Y-49042455D01*
X48417544Y-49042452D01*
X48302335Y-48956206D01*
X48302328Y-48956202D01*
X48167482Y-48905908D01*
X48167483Y-48905908D01*
X48107883Y-48899501D01*
X48107881Y-48899500D01*
X48107873Y-48899500D01*
X48107864Y-48899500D01*
X46812129Y-48899500D01*
X46812123Y-48899501D01*
X46752516Y-48905908D01*
X46617671Y-48956202D01*
X46617664Y-48956206D01*
X46502455Y-49042452D01*
X46502452Y-49042455D01*
X46416206Y-49157664D01*
X46416204Y-49157668D01*
X46416204Y-49157669D01*
X46412039Y-49168834D01*
X46370171Y-49224766D01*
X46304707Y-49249184D01*
X46295859Y-49249500D01*
X37386076Y-49249500D01*
X37357242Y-49255234D01*
X37357243Y-49255235D01*
X37241093Y-49278339D01*
X37241083Y-49278342D01*
X37161081Y-49311479D01*
X37161082Y-49311480D01*
X37104505Y-49334915D01*
X37022372Y-49389795D01*
X36981585Y-49417047D01*
X36981581Y-49417050D01*
X36462181Y-49936451D01*
X36400858Y-49969936D01*
X36331166Y-49964952D01*
X36275233Y-49923080D01*
X36250816Y-49857616D01*
X36250500Y-49848770D01*
X36250500Y-49673732D01*
X36270185Y-49606693D01*
X36322989Y-49560938D01*
X36335495Y-49556026D01*
X36369334Y-49544814D01*
X36518656Y-49452712D01*
X36642712Y-49328656D01*
X36734814Y-49179334D01*
X36789999Y-49012797D01*
X36800500Y-48910009D01*
X36800499Y-47709992D01*
X36789999Y-47607203D01*
X36734814Y-47440666D01*
X36642712Y-47291344D01*
X36518656Y-47167288D01*
X36369334Y-47075186D01*
X36202797Y-47020001D01*
X36202795Y-47020000D01*
X36100010Y-47009500D01*
X34899998Y-47009500D01*
X34899981Y-47009501D01*
X34797203Y-47020000D01*
X34797200Y-47020001D01*
X34630668Y-47075185D01*
X34630663Y-47075187D01*
X34481342Y-47167289D01*
X34357289Y-47291342D01*
X34265187Y-47440663D01*
X34265186Y-47440666D01*
X34210001Y-47607203D01*
X34210001Y-47607204D01*
X34210000Y-47607204D01*
X34199500Y-47709983D01*
X34199500Y-48910001D01*
X34199501Y-48910018D01*
X34210000Y-49012796D01*
X34210001Y-49012799D01*
X34265185Y-49179331D01*
X34265187Y-49179336D01*
X34300069Y-49235888D01*
X34357288Y-49328656D01*
X34481344Y-49452712D01*
X34630666Y-49544814D01*
X34664500Y-49556025D01*
X34721947Y-49595796D01*
X34748772Y-49660311D01*
X34749500Y-49673732D01*
X34749500Y-50772779D01*
X34729815Y-50839818D01*
X34698385Y-50873097D01*
X34620211Y-50929893D01*
X34620205Y-50929898D01*
X34469892Y-51080211D01*
X34413097Y-51158385D01*
X34357767Y-51201051D01*
X34312779Y-51209500D01*
X33782229Y-51209500D01*
X33715190Y-51189815D01*
X33694548Y-51173181D01*
X30870175Y-48348807D01*
X30836690Y-48287484D01*
X30835383Y-48241728D01*
X30850500Y-48146285D01*
X30850500Y-47933713D01*
X30817246Y-47723760D01*
X30817246Y-47723757D01*
X30751557Y-47521588D01*
X30655051Y-47332184D01*
X30655049Y-47332181D01*
X30655048Y-47332179D01*
X30530109Y-47160213D01*
X30379786Y-47009890D01*
X30207820Y-46884951D01*
X30207115Y-46884591D01*
X30199054Y-46880485D01*
X30148259Y-46832512D01*
X30131463Y-46764692D01*
X30153999Y-46698556D01*
X30199054Y-46659515D01*
X30207816Y-46655051D01*
X30309613Y-46581092D01*
X30379786Y-46530109D01*
X30379788Y-46530106D01*
X30379792Y-46530104D01*
X30530104Y-46379792D01*
X30530104Y-46379791D01*
X30530107Y-46379789D01*
X30530109Y-46379786D01*
X30655048Y-46207820D01*
X30655047Y-46207820D01*
X30655051Y-46207816D01*
X30751557Y-46018412D01*
X30817246Y-45816243D01*
X30850500Y-45606287D01*
X30850500Y-45393713D01*
X30817246Y-45183757D01*
X30751557Y-44981588D01*
X30655051Y-44792184D01*
X30655049Y-44792181D01*
X30655048Y-44792179D01*
X30530109Y-44620213D01*
X30416181Y-44506285D01*
X30382696Y-44444962D01*
X30387680Y-44375270D01*
X30429552Y-44319337D01*
X30460529Y-44302422D01*
X30592086Y-44253354D01*
X30592093Y-44253350D01*
X30707187Y-44167190D01*
X30707190Y-44167187D01*
X30793350Y-44052093D01*
X30793354Y-44052086D01*
X30843596Y-43917379D01*
X30843598Y-43917372D01*
X30849999Y-43857844D01*
X30850000Y-43857827D01*
X30850000Y-43210000D01*
X29933012Y-43210000D01*
X29965925Y-43152993D01*
X30000000Y-43025826D01*
X30000000Y-42894174D01*
X29965925Y-42767007D01*
X29933012Y-42710000D01*
X30850000Y-42710000D01*
X30850000Y-42062172D01*
X30849999Y-42062155D01*
X30843598Y-42002627D01*
X30843596Y-42002620D01*
X30793354Y-41867913D01*
X30793350Y-41867906D01*
X30707190Y-41752812D01*
X30707187Y-41752809D01*
X30592093Y-41666649D01*
X30592086Y-41666645D01*
X30457379Y-41616403D01*
X30457372Y-41616401D01*
X30397844Y-41610000D01*
X29750000Y-41610000D01*
X29750000Y-42526988D01*
X29692993Y-42494075D01*
X29565826Y-42460000D01*
X29434174Y-42460000D01*
X29307007Y-42494075D01*
X29250000Y-42526988D01*
X29250000Y-41610000D01*
X28602155Y-41610000D01*
X28542627Y-41616401D01*
X28542620Y-41616403D01*
X28407913Y-41666645D01*
X28407906Y-41666649D01*
X28292812Y-41752809D01*
X28292809Y-41752812D01*
X28206649Y-41867906D01*
X28206645Y-41867913D01*
X28156403Y-42002620D01*
X28156401Y-42002627D01*
X28150000Y-42062155D01*
X28150000Y-42710000D01*
X29066988Y-42710000D01*
X29034075Y-42767007D01*
X29000000Y-42894174D01*
X29000000Y-43025826D01*
X29034075Y-43152993D01*
X29066988Y-43210000D01*
X28150000Y-43210000D01*
X28150000Y-43857844D01*
X28156401Y-43917372D01*
X28156403Y-43917379D01*
X28206645Y-44052086D01*
X28206649Y-44052093D01*
X28292809Y-44167187D01*
X28292812Y-44167190D01*
X28407906Y-44253350D01*
X28407913Y-44253354D01*
X28539470Y-44302422D01*
X28595404Y-44344293D01*
X28619821Y-44409758D01*
X28604969Y-44478031D01*
X28583819Y-44506285D01*
X28469889Y-44620215D01*
X28344951Y-44792179D01*
X28248444Y-44981585D01*
X28182753Y-45183760D01*
X28149500Y-45393713D01*
X28149500Y-45606292D01*
X28164616Y-45701728D01*
X28155662Y-45771021D01*
X28129824Y-45808807D01*
X27617045Y-46321586D01*
X27578160Y-46379786D01*
X27578156Y-46379792D01*
X27556536Y-46412148D01*
X27534916Y-46444504D01*
X27534912Y-46444511D01*
X27478343Y-46581082D01*
X27478340Y-46581092D01*
X27449500Y-46726079D01*
X27449500Y-46726082D01*
X27449500Y-48652396D01*
X27449500Y-48652398D01*
X27449499Y-48652398D01*
X25500500Y-48652398D01*
X25500500Y-41624500D01*
X25520185Y-41557461D01*
X25572989Y-41511706D01*
X25624500Y-41500500D01*
X28065890Y-41500500D01*
X28065892Y-41500500D01*
X28193186Y-41466392D01*
X28307314Y-41400500D01*
X28400500Y-41307314D01*
X28466392Y-41193186D01*
X28500500Y-41065892D01*
X28500500Y-40587648D01*
X34199500Y-40587648D01*
X34199500Y-40792351D01*
X34231522Y-40994534D01*
X34294781Y-41189223D01*
X34358691Y-41314653D01*
X34360861Y-41318911D01*
X34387715Y-41371613D01*
X34508028Y-41537213D01*
X34652786Y-41681971D01*
X34807749Y-41794556D01*
X34818390Y-41802287D01*
X34934607Y-41861503D01*
X35000776Y-41895218D01*
X35000778Y-41895218D01*
X35000781Y-41895220D01*
X35105137Y-41929127D01*
X35195465Y-41958477D01*
X35296557Y-41974488D01*
X35397648Y-41990500D01*
X35397649Y-41990500D01*
X35602351Y-41990500D01*
X35602352Y-41990500D01*
X35804534Y-41958477D01*
X35999219Y-41895220D01*
X36181610Y-41802287D01*
X36316626Y-41704193D01*
X36347213Y-41681971D01*
X36347215Y-41681968D01*
X36347219Y-41681966D01*
X36491966Y-41537219D01*
X36491968Y-41537215D01*
X36491971Y-41537213D01*
X36591298Y-41400499D01*
X36612287Y-41371610D01*
X36705220Y-41189219D01*
X36768477Y-40994534D01*
X36790561Y-40855101D01*
X36820490Y-40791967D01*
X36879802Y-40755036D01*
X36913034Y-40750500D01*
X43340407Y-40750500D01*
X43407446Y-40770185D01*
X43447794Y-40812500D01*
X43541392Y-40974617D01*
X43681081Y-41156661D01*
X43681089Y-41156670D01*
X43843330Y-41318911D01*
X43843338Y-41318918D01*
X44025382Y-41458607D01*
X44025385Y-41458608D01*
X44025388Y-41458611D01*
X44224112Y-41573344D01*
X44224117Y-41573346D01*
X44224123Y-41573349D01*
X44312607Y-41610000D01*
X44436113Y-41661158D01*
X44657762Y-41720548D01*
X44885266Y-41750500D01*
X44885273Y-41750500D01*
X45114727Y-41750500D01*
X45114734Y-41750500D01*
X45342238Y-41720548D01*
X45563887Y-41661158D01*
X45775888Y-41573344D01*
X45974612Y-41458611D01*
X46156661Y-41318919D01*
X46156665Y-41318914D01*
X46156670Y-41318911D01*
X46318911Y-41156670D01*
X46318914Y-41156665D01*
X46318919Y-41156661D01*
X46458611Y-40974612D01*
X46573344Y-40775888D01*
X46661158Y-40563887D01*
X46720548Y-40342238D01*
X46750500Y-40114734D01*
X46750500Y-39885266D01*
X46720548Y-39657762D01*
X46661158Y-39436113D01*
X46573344Y-39224112D01*
X46458611Y-39025388D01*
X46458608Y-39025385D01*
X46458607Y-39025382D01*
X46318918Y-38843338D01*
X46318911Y-38843330D01*
X46156670Y-38681089D01*
X46156661Y-38681081D01*
X45974617Y-38541392D01*
X45775890Y-38426657D01*
X45775876Y-38426650D01*
X45563887Y-38338842D01*
X45342238Y-38279452D01*
X45304215Y-38274446D01*
X45114741Y-38249500D01*
X45114734Y-38249500D01*
X44885266Y-38249500D01*
X44885258Y-38249500D01*
X44668715Y-38278009D01*
X44657762Y-38279452D01*
X44564076Y-38304554D01*
X44436112Y-38338842D01*
X44224123Y-38426650D01*
X44224109Y-38426657D01*
X44025382Y-38541392D01*
X43843338Y-38681081D01*
X43681081Y-38843338D01*
X43541392Y-39025382D01*
X43447794Y-39187500D01*
X43397227Y-39235716D01*
X43340407Y-39249500D01*
X36116080Y-39249500D01*
X35971092Y-39278340D01*
X35971082Y-39278343D01*
X35834509Y-39334913D01*
X35764333Y-39381802D01*
X35697655Y-39402678D01*
X35676046Y-39401171D01*
X35602357Y-39389500D01*
X35602352Y-39389500D01*
X35397648Y-39389500D01*
X35373329Y-39393351D01*
X35195465Y-39421522D01*
X35000776Y-39484781D01*
X34818386Y-39577715D01*
X34652786Y-39698028D01*
X34508028Y-39842786D01*
X34387715Y-40008386D01*
X34294781Y-40190776D01*
X34231522Y-40385465D01*
X34199500Y-40587648D01*
X28500500Y-40587648D01*
X28500500Y-28624500D01*
X28520185Y-28557461D01*
X28572989Y-28511706D01*
X28624500Y-28500500D01*
X40934108Y-28500500D01*
X58934108Y-28500500D01*
X71375500Y-28500500D01*
X71442539Y-28520185D01*
G37*
%TD.AperFunction*%
%TD*%
M02*
