%TF.GenerationSoftware,KiCad,Pcbnew,10.0.3*%
%TF.CreationDate,2026-05-25T20:11:54+09:00*%
%TF.ProjectId,rs_lever,72735f6c-6576-4657-922e-6b696361645f,rev?*%
%TF.SameCoordinates,Original*%
%TF.FileFunction,Legend,Top*%
%TF.FilePolarity,Positive*%
%FSLAX46Y46*%
G04 Gerber Fmt 4.6, Leading zero omitted, Abs format (unit mm)*
G04 Created by KiCad (PCBNEW 10.0.3) date 2026-05-25 20:11:54*
%MOMM*%
%LPD*%
G01*
G04 APERTURE LIST*
G04 Aperture macros list*
%AMRoundRect*
0 Rectangle with rounded corners*
0 $1 Rounding radius*
0 $2 $3 $4 $5 $6 $7 $8 $9 X,Y pos of 4 corners*
0 Add a 4 corners polygon primitive as box body*
4,1,4,$2,$3,$4,$5,$6,$7,$8,$9,$2,$3,0*
0 Add four circle primitives for the rounded corners*
1,1,$1+$1,$2,$3*
1,1,$1+$1,$4,$5*
1,1,$1+$1,$6,$7*
1,1,$1+$1,$8,$9*
0 Add four rect primitives between the rounded corners*
20,1,$1+$1,$2,$3,$4,$5,0*
20,1,$1+$1,$4,$5,$6,$7,0*
20,1,$1+$1,$6,$7,$8,$9,0*
20,1,$1+$1,$8,$9,$2,$3,0*%
G04 Aperture macros list end*
%ADD10C,0.150000*%
%ADD11C,0.000000*%
%ADD12C,0.120000*%
%ADD13C,2.500000*%
%ADD14C,1.200000*%
%ADD15R,1.200000X1.200000*%
%ADD16RoundRect,0.250000X0.550000X-0.550000X0.550000X0.550000X-0.550000X0.550000X-0.550000X-0.550000X0*%
%ADD17C,1.600000*%
%ADD18R,1.700000X1.700000*%
%ADD19C,1.700000*%
G04 APERTURE END LIST*
D10*
X51238095Y-37306819D02*
X51809523Y-37306819D01*
X51523809Y-38306819D02*
X51523809Y-37306819D01*
X52142857Y-38306819D02*
X52142857Y-37306819D01*
X52142857Y-37306819D02*
X52523809Y-37306819D01*
X52523809Y-37306819D02*
X52619047Y-37354438D01*
X52619047Y-37354438D02*
X52666666Y-37402057D01*
X52666666Y-37402057D02*
X52714285Y-37497295D01*
X52714285Y-37497295D02*
X52714285Y-37640152D01*
X52714285Y-37640152D02*
X52666666Y-37735390D01*
X52666666Y-37735390D02*
X52619047Y-37783009D01*
X52619047Y-37783009D02*
X52523809Y-37830628D01*
X52523809Y-37830628D02*
X52142857Y-37830628D01*
X53095238Y-37402057D02*
X53142857Y-37354438D01*
X53142857Y-37354438D02*
X53238095Y-37306819D01*
X53238095Y-37306819D02*
X53476190Y-37306819D01*
X53476190Y-37306819D02*
X53571428Y-37354438D01*
X53571428Y-37354438D02*
X53619047Y-37402057D01*
X53619047Y-37402057D02*
X53666666Y-37497295D01*
X53666666Y-37497295D02*
X53666666Y-37592533D01*
X53666666Y-37592533D02*
X53619047Y-37735390D01*
X53619047Y-37735390D02*
X53047619Y-38306819D01*
X53047619Y-38306819D02*
X53666666Y-38306819D01*
X52004761Y-42931009D02*
X52147618Y-42978628D01*
X52147618Y-42978628D02*
X52195237Y-43026247D01*
X52195237Y-43026247D02*
X52242856Y-43121485D01*
X52242856Y-43121485D02*
X52242856Y-43264342D01*
X52242856Y-43264342D02*
X52195237Y-43359580D01*
X52195237Y-43359580D02*
X52147618Y-43407200D01*
X52147618Y-43407200D02*
X52052380Y-43454819D01*
X52052380Y-43454819D02*
X51671428Y-43454819D01*
X51671428Y-43454819D02*
X51671428Y-42454819D01*
X51671428Y-42454819D02*
X52004761Y-42454819D01*
X52004761Y-42454819D02*
X52099999Y-42502438D01*
X52099999Y-42502438D02*
X52147618Y-42550057D01*
X52147618Y-42550057D02*
X52195237Y-42645295D01*
X52195237Y-42645295D02*
X52195237Y-42740533D01*
X52195237Y-42740533D02*
X52147618Y-42835771D01*
X52147618Y-42835771D02*
X52099999Y-42883390D01*
X52099999Y-42883390D02*
X52004761Y-42931009D01*
X52004761Y-42931009D02*
X51671428Y-42931009D01*
X52623809Y-43169104D02*
X53099999Y-43169104D01*
X52528571Y-43454819D02*
X52861904Y-42454819D01*
X52861904Y-42454819D02*
X53195237Y-43454819D01*
X53385714Y-42454819D02*
X53957142Y-42454819D01*
X53671428Y-43454819D02*
X53671428Y-42454819D01*
X54147619Y-42454819D02*
X54719047Y-42454819D01*
X54433333Y-43454819D02*
X54433333Y-42454819D01*
X55052381Y-42931009D02*
X55385714Y-42931009D01*
X55528571Y-43454819D02*
X55052381Y-43454819D01*
X55052381Y-43454819D02*
X55052381Y-42454819D01*
X55052381Y-42454819D02*
X55528571Y-42454819D01*
X56528571Y-43454819D02*
X56195238Y-42978628D01*
X55957143Y-43454819D02*
X55957143Y-42454819D01*
X55957143Y-42454819D02*
X56338095Y-42454819D01*
X56338095Y-42454819D02*
X56433333Y-42502438D01*
X56433333Y-42502438D02*
X56480952Y-42550057D01*
X56480952Y-42550057D02*
X56528571Y-42645295D01*
X56528571Y-42645295D02*
X56528571Y-42788152D01*
X56528571Y-42788152D02*
X56480952Y-42883390D01*
X56480952Y-42883390D02*
X56433333Y-42931009D01*
X56433333Y-42931009D02*
X56338095Y-42978628D01*
X56338095Y-42978628D02*
X55957143Y-42978628D01*
X57147619Y-42978628D02*
X57147619Y-43454819D01*
X56814286Y-42454819D02*
X57147619Y-42978628D01*
X57147619Y-42978628D02*
X57480952Y-42454819D01*
X57766667Y-43260533D02*
X58376191Y-43260533D01*
X48666667Y-48807200D02*
X48809524Y-48854819D01*
X48809524Y-48854819D02*
X49047619Y-48854819D01*
X49047619Y-48854819D02*
X49142857Y-48807200D01*
X49142857Y-48807200D02*
X49190476Y-48759580D01*
X49190476Y-48759580D02*
X49238095Y-48664342D01*
X49238095Y-48664342D02*
X49238095Y-48569104D01*
X49238095Y-48569104D02*
X49190476Y-48473866D01*
X49190476Y-48473866D02*
X49142857Y-48426247D01*
X49142857Y-48426247D02*
X49047619Y-48378628D01*
X49047619Y-48378628D02*
X48857143Y-48331009D01*
X48857143Y-48331009D02*
X48761905Y-48283390D01*
X48761905Y-48283390D02*
X48714286Y-48235771D01*
X48714286Y-48235771D02*
X48666667Y-48140533D01*
X48666667Y-48140533D02*
X48666667Y-48045295D01*
X48666667Y-48045295D02*
X48714286Y-47950057D01*
X48714286Y-47950057D02*
X48761905Y-47902438D01*
X48761905Y-47902438D02*
X48857143Y-47854819D01*
X48857143Y-47854819D02*
X49095238Y-47854819D01*
X49095238Y-47854819D02*
X49238095Y-47902438D01*
X49571429Y-47854819D02*
X49809524Y-48854819D01*
X49809524Y-48854819D02*
X50000000Y-48140533D01*
X50000000Y-48140533D02*
X50190476Y-48854819D01*
X50190476Y-48854819D02*
X50428572Y-47854819D01*
X51333333Y-48854819D02*
X50761905Y-48854819D01*
X51047619Y-48854819D02*
X51047619Y-47854819D01*
X51047619Y-47854819D02*
X50952381Y-47997676D01*
X50952381Y-47997676D02*
X50857143Y-48092914D01*
X50857143Y-48092914D02*
X50761905Y-48140533D01*
X33834819Y-45238094D02*
X32834819Y-45238094D01*
X32834819Y-45238094D02*
X32834819Y-44999999D01*
X32834819Y-44999999D02*
X32882438Y-44857142D01*
X32882438Y-44857142D02*
X32977676Y-44761904D01*
X32977676Y-44761904D02*
X33072914Y-44714285D01*
X33072914Y-44714285D02*
X33263390Y-44666666D01*
X33263390Y-44666666D02*
X33406247Y-44666666D01*
X33406247Y-44666666D02*
X33596723Y-44714285D01*
X33596723Y-44714285D02*
X33691961Y-44761904D01*
X33691961Y-44761904D02*
X33787200Y-44857142D01*
X33787200Y-44857142D02*
X33834819Y-44999999D01*
X33834819Y-44999999D02*
X33834819Y-45238094D01*
X33834819Y-43714285D02*
X33834819Y-44285713D01*
X33834819Y-43999999D02*
X32834819Y-43999999D01*
X32834819Y-43999999D02*
X32977676Y-44095237D01*
X32977676Y-44095237D02*
X33072914Y-44190475D01*
X33072914Y-44190475D02*
X33120533Y-44285713D01*
X34154819Y-48571904D02*
X33154819Y-48571904D01*
X34154819Y-48000476D02*
X33583390Y-48429047D01*
X33154819Y-48000476D02*
X33726247Y-48571904D01*
X44238095Y-37306819D02*
X44809523Y-37306819D01*
X44523809Y-38306819D02*
X44523809Y-37306819D01*
X45142857Y-38306819D02*
X45142857Y-37306819D01*
X45142857Y-37306819D02*
X45523809Y-37306819D01*
X45523809Y-37306819D02*
X45619047Y-37354438D01*
X45619047Y-37354438D02*
X45666666Y-37402057D01*
X45666666Y-37402057D02*
X45714285Y-37497295D01*
X45714285Y-37497295D02*
X45714285Y-37640152D01*
X45714285Y-37640152D02*
X45666666Y-37735390D01*
X45666666Y-37735390D02*
X45619047Y-37783009D01*
X45619047Y-37783009D02*
X45523809Y-37830628D01*
X45523809Y-37830628D02*
X45142857Y-37830628D01*
X46666666Y-38306819D02*
X46095238Y-38306819D01*
X46380952Y-38306819D02*
X46380952Y-37306819D01*
X46380952Y-37306819D02*
X46285714Y-37449676D01*
X46285714Y-37449676D02*
X46190476Y-37544914D01*
X46190476Y-37544914D02*
X46095238Y-37592533D01*
X42004761Y-42931009D02*
X42147618Y-42978628D01*
X42147618Y-42978628D02*
X42195237Y-43026247D01*
X42195237Y-43026247D02*
X42242856Y-43121485D01*
X42242856Y-43121485D02*
X42242856Y-43264342D01*
X42242856Y-43264342D02*
X42195237Y-43359580D01*
X42195237Y-43359580D02*
X42147618Y-43407200D01*
X42147618Y-43407200D02*
X42052380Y-43454819D01*
X42052380Y-43454819D02*
X41671428Y-43454819D01*
X41671428Y-43454819D02*
X41671428Y-42454819D01*
X41671428Y-42454819D02*
X42004761Y-42454819D01*
X42004761Y-42454819D02*
X42099999Y-42502438D01*
X42099999Y-42502438D02*
X42147618Y-42550057D01*
X42147618Y-42550057D02*
X42195237Y-42645295D01*
X42195237Y-42645295D02*
X42195237Y-42740533D01*
X42195237Y-42740533D02*
X42147618Y-42835771D01*
X42147618Y-42835771D02*
X42099999Y-42883390D01*
X42099999Y-42883390D02*
X42004761Y-42931009D01*
X42004761Y-42931009D02*
X41671428Y-42931009D01*
X42623809Y-43169104D02*
X43099999Y-43169104D01*
X42528571Y-43454819D02*
X42861904Y-42454819D01*
X42861904Y-42454819D02*
X43195237Y-43454819D01*
X43385714Y-42454819D02*
X43957142Y-42454819D01*
X43671428Y-43454819D02*
X43671428Y-42454819D01*
X44147619Y-42454819D02*
X44719047Y-42454819D01*
X44433333Y-43454819D02*
X44433333Y-42454819D01*
X45052381Y-42931009D02*
X45385714Y-42931009D01*
X45528571Y-43454819D02*
X45052381Y-43454819D01*
X45052381Y-43454819D02*
X45052381Y-42454819D01*
X45052381Y-42454819D02*
X45528571Y-42454819D01*
X46528571Y-43454819D02*
X46195238Y-42978628D01*
X45957143Y-43454819D02*
X45957143Y-42454819D01*
X45957143Y-42454819D02*
X46338095Y-42454819D01*
X46338095Y-42454819D02*
X46433333Y-42502438D01*
X46433333Y-42502438D02*
X46480952Y-42550057D01*
X46480952Y-42550057D02*
X46528571Y-42645295D01*
X46528571Y-42645295D02*
X46528571Y-42788152D01*
X46528571Y-42788152D02*
X46480952Y-42883390D01*
X46480952Y-42883390D02*
X46433333Y-42931009D01*
X46433333Y-42931009D02*
X46338095Y-42978628D01*
X46338095Y-42978628D02*
X45957143Y-42978628D01*
X47147619Y-42978628D02*
X47147619Y-43454819D01*
X46814286Y-42454819D02*
X47147619Y-42978628D01*
X47147619Y-42978628D02*
X47480952Y-42454819D01*
X47766667Y-43260533D02*
X48376191Y-43260533D01*
X48071429Y-43565295D02*
X48071429Y-42955771D01*
D11*
%TO.C,G\u002A\u002A\u002A*%
G36*
X67036932Y-51301798D02*
G01*
X67047589Y-51307507D01*
X67054085Y-51319353D01*
X67057297Y-51339246D01*
X67058100Y-51369093D01*
X67058002Y-51380351D01*
X67057604Y-51395257D01*
X67056682Y-51421546D01*
X67055276Y-51458282D01*
X67053428Y-51504528D01*
X67051179Y-51559346D01*
X67048571Y-51621800D01*
X67045645Y-51690952D01*
X67042443Y-51765866D01*
X67039007Y-51845604D01*
X67035378Y-51929230D01*
X67031598Y-52015807D01*
X67027707Y-52104397D01*
X67023748Y-52194063D01*
X67019763Y-52283869D01*
X67015792Y-52372877D01*
X67011877Y-52460151D01*
X67008060Y-52544753D01*
X67004382Y-52625747D01*
X67000885Y-52702195D01*
X66997610Y-52773161D01*
X66994599Y-52837707D01*
X66991894Y-52894896D01*
X66989535Y-52943792D01*
X66987565Y-52983458D01*
X66986025Y-53012955D01*
X66984956Y-53031349D01*
X66984622Y-53035960D01*
X66981767Y-53061073D01*
X66977584Y-53077544D01*
X66970757Y-53089233D01*
X66964080Y-53096282D01*
X66956076Y-53102494D01*
X66938653Y-53115088D01*
X66912736Y-53133420D01*
X66879250Y-53156850D01*
X66839120Y-53184734D01*
X66793271Y-53216432D01*
X66742627Y-53251299D01*
X66688114Y-53288695D01*
X66630656Y-53327977D01*
X66616419Y-53337690D01*
X66547079Y-53384941D01*
X66487286Y-53425552D01*
X66436278Y-53459957D01*
X66393293Y-53488590D01*
X66357568Y-53511886D01*
X66328341Y-53530279D01*
X66304851Y-53544203D01*
X66286334Y-53554093D01*
X66272028Y-53560382D01*
X66261172Y-53563505D01*
X66253003Y-53563897D01*
X66246759Y-53561991D01*
X66241678Y-53558221D01*
X66237471Y-53553598D01*
X66235826Y-53550701D01*
X66234394Y-53545846D01*
X66233182Y-53538463D01*
X66232200Y-53527984D01*
X66231456Y-53513843D01*
X66230960Y-53495471D01*
X66230719Y-53472299D01*
X66230743Y-53443761D01*
X66231039Y-53409288D01*
X66231418Y-53382433D01*
X66313401Y-53382433D01*
X66313891Y-53410360D01*
X66315014Y-53428531D01*
X66316872Y-53438313D01*
X66319565Y-53441076D01*
X66320637Y-53440692D01*
X66327180Y-53436374D01*
X66343068Y-53425699D01*
X66367307Y-53409340D01*
X66398903Y-53387969D01*
X66436860Y-53362261D01*
X66480186Y-53332887D01*
X66527885Y-53300522D01*
X66578964Y-53265839D01*
X66598830Y-53252343D01*
X66650640Y-53217103D01*
X66699192Y-53184006D01*
X66743527Y-53153710D01*
X66782686Y-53126874D01*
X66815711Y-53104156D01*
X66841644Y-53086215D01*
X66859525Y-53073710D01*
X66868398Y-53067298D01*
X66869209Y-53066587D01*
X66864122Y-53062297D01*
X66850130Y-53052869D01*
X66829134Y-53039453D01*
X66803037Y-53023196D01*
X66773741Y-53005248D01*
X66743149Y-52986756D01*
X66713164Y-52968871D01*
X66685687Y-52952739D01*
X66662620Y-52939511D01*
X66645867Y-52930333D01*
X66637330Y-52926356D01*
X66636822Y-52926280D01*
X66629723Y-52929822D01*
X66613678Y-52939566D01*
X66590046Y-52954632D01*
X66560184Y-52974140D01*
X66525451Y-52997208D01*
X66487203Y-53022956D01*
X66475362Y-53030993D01*
X66322200Y-53135146D01*
X66318131Y-53188284D01*
X66316649Y-53213775D01*
X66315320Y-53247978D01*
X66314260Y-53287099D01*
X66313583Y-53327348D01*
X66313443Y-53343378D01*
X66313401Y-53382433D01*
X66231418Y-53382433D01*
X66231618Y-53368312D01*
X66232488Y-53320265D01*
X66233657Y-53264580D01*
X66235135Y-53200688D01*
X66236929Y-53128021D01*
X66239048Y-53046012D01*
X66241503Y-52954093D01*
X66244191Y-52855691D01*
X66681663Y-52855691D01*
X66786376Y-52921359D01*
X66818899Y-52941566D01*
X66848041Y-52959315D01*
X66872068Y-52973579D01*
X66889245Y-52983330D01*
X66897841Y-52987542D01*
X66898253Y-52987631D01*
X66902664Y-52981973D01*
X66906508Y-52965044D01*
X66909364Y-52939785D01*
X66910348Y-52924732D01*
X66911758Y-52898797D01*
X66913556Y-52862907D01*
X66915703Y-52817988D01*
X66918160Y-52764967D01*
X66920889Y-52704771D01*
X66923851Y-52638326D01*
X66927006Y-52566559D01*
X66930318Y-52490396D01*
X66933746Y-52410764D01*
X66937252Y-52328590D01*
X66940797Y-52244800D01*
X66944343Y-52160321D01*
X66947851Y-52076079D01*
X66951282Y-51993002D01*
X66954598Y-51912015D01*
X66957759Y-51834046D01*
X66960728Y-51760020D01*
X66963465Y-51690866D01*
X66965931Y-51627508D01*
X66968089Y-51570874D01*
X66969899Y-51521891D01*
X66971322Y-51481484D01*
X66972320Y-51450581D01*
X66972855Y-51430109D01*
X66972887Y-51420993D01*
X66972821Y-51420602D01*
X66967101Y-51423046D01*
X66952722Y-51431196D01*
X66931485Y-51443910D01*
X66905193Y-51460048D01*
X66875648Y-51478469D01*
X66844652Y-51498031D01*
X66814008Y-51517594D01*
X66785517Y-51536016D01*
X66760981Y-51552157D01*
X66742204Y-51564875D01*
X66730987Y-51573030D01*
X66728679Y-51575178D01*
X66728016Y-51581976D01*
X66726949Y-51600232D01*
X66725516Y-51628910D01*
X66723759Y-51666972D01*
X66721717Y-51713381D01*
X66719429Y-51767101D01*
X66716937Y-51827095D01*
X66714278Y-51892326D01*
X66711494Y-51961757D01*
X66708625Y-52034350D01*
X66705710Y-52109070D01*
X66702789Y-52184879D01*
X66699902Y-52260740D01*
X66697089Y-52335617D01*
X66694389Y-52408472D01*
X66691844Y-52478269D01*
X66689492Y-52543970D01*
X66687373Y-52604539D01*
X66685528Y-52658939D01*
X66683996Y-52706133D01*
X66682817Y-52745085D01*
X66682032Y-52774756D01*
X66681679Y-52794110D01*
X66681663Y-52797296D01*
X66681663Y-52855691D01*
X66244191Y-52855691D01*
X66244300Y-52851695D01*
X66245810Y-52797296D01*
X66247449Y-52738250D01*
X66250958Y-52613192D01*
X66253065Y-52538548D01*
X66274705Y-51773159D01*
X66292201Y-51756283D01*
X66300420Y-51750060D01*
X66318270Y-51737764D01*
X66344816Y-51720003D01*
X66379123Y-51697388D01*
X66420254Y-51670530D01*
X66467274Y-51640037D01*
X66519249Y-51606521D01*
X66575241Y-51570591D01*
X66634317Y-51532858D01*
X66654724Y-51519863D01*
X66725947Y-51474609D01*
X66787405Y-51435720D01*
X66839824Y-51402761D01*
X66883930Y-51375296D01*
X66920451Y-51352890D01*
X66950113Y-51335108D01*
X66973642Y-51321515D01*
X66991765Y-51311675D01*
X67005208Y-51305153D01*
X67014699Y-51301514D01*
X67020964Y-51300322D01*
X67021236Y-51300319D01*
X67036932Y-51301798D01*
G37*
G36*
X64940146Y-44814558D02*
G01*
X64962173Y-44823258D01*
X64975988Y-44830563D01*
X65008921Y-44849207D01*
X65050781Y-44871706D01*
X65099081Y-44896807D01*
X65151336Y-44923258D01*
X65205061Y-44949804D01*
X65257768Y-44975193D01*
X65306974Y-44998171D01*
X65321953Y-45004982D01*
X65358463Y-45021464D01*
X65392708Y-45036948D01*
X65422423Y-45050408D01*
X65445344Y-45060819D01*
X65459206Y-45067154D01*
X65459487Y-45067283D01*
X65468675Y-45071439D01*
X65488459Y-45080323D01*
X65518017Y-45093569D01*
X65556528Y-45110810D01*
X65603171Y-45131677D01*
X65657124Y-45155803D01*
X65717566Y-45182822D01*
X65783676Y-45212366D01*
X65854631Y-45244067D01*
X65929611Y-45277559D01*
X66007794Y-45312474D01*
X66040638Y-45327140D01*
X66119505Y-45362361D01*
X66195231Y-45396195D01*
X66267023Y-45428288D01*
X66334089Y-45458283D01*
X66395636Y-45485826D01*
X66450873Y-45510563D01*
X66499006Y-45532138D01*
X66539244Y-45550196D01*
X66570795Y-45564383D01*
X66592865Y-45574343D01*
X66604662Y-45579722D01*
X66606403Y-45580550D01*
X66613371Y-45583772D01*
X66630965Y-45591726D01*
X66658391Y-45604059D01*
X66694853Y-45620413D01*
X66739556Y-45640433D01*
X66791706Y-45663765D01*
X66850508Y-45690052D01*
X66915167Y-45718939D01*
X66984889Y-45750070D01*
X67058878Y-45783090D01*
X67136340Y-45817644D01*
X67169283Y-45832334D01*
X67248590Y-45867699D01*
X67325202Y-45901869D01*
X67398275Y-45934467D01*
X67466968Y-45965117D01*
X67530438Y-45993444D01*
X67587844Y-46019072D01*
X67638342Y-46041624D01*
X67681090Y-46060724D01*
X67715247Y-46075996D01*
X67739969Y-46087065D01*
X67754416Y-46093554D01*
X67756928Y-46094691D01*
X67893859Y-46156347D01*
X68022162Y-46212587D01*
X68141381Y-46263220D01*
X68251058Y-46308056D01*
X68350735Y-46346901D01*
X68416465Y-46371200D01*
X68447573Y-46382975D01*
X68475486Y-46394601D01*
X68497513Y-46404884D01*
X68510963Y-46412628D01*
X68512479Y-46413850D01*
X68518376Y-46419638D01*
X68522322Y-46425884D01*
X68524558Y-46434867D01*
X68525328Y-46448866D01*
X68524875Y-46470159D01*
X68523442Y-46501024D01*
X68522900Y-46511641D01*
X68519529Y-46568557D01*
X68515743Y-46616475D01*
X68511633Y-46654610D01*
X68507291Y-46682178D01*
X68502809Y-46698393D01*
X68500697Y-46701852D01*
X68492935Y-46707097D01*
X68476300Y-46716826D01*
X68453024Y-46729780D01*
X68425339Y-46744699D01*
X68416831Y-46749199D01*
X68387078Y-46764944D01*
X68349451Y-46784969D01*
X68307076Y-46807604D01*
X68263077Y-46831180D01*
X68220578Y-46854028D01*
X68214992Y-46857038D01*
X68168774Y-46881582D01*
X68132272Y-46900101D01*
X68104506Y-46913046D01*
X68084496Y-46920867D01*
X68071262Y-46924014D01*
X68068966Y-46924124D01*
X68050409Y-46920164D01*
X68022096Y-46908449D01*
X67984065Y-46888993D01*
X67978857Y-46886143D01*
X67944815Y-46867897D01*
X67901716Y-46845578D01*
X67851868Y-46820326D01*
X67797579Y-46793282D01*
X67741154Y-46765590D01*
X67684902Y-46738389D01*
X67631129Y-46712823D01*
X67588136Y-46692787D01*
X67553771Y-46676936D01*
X67518105Y-46660449D01*
X67485371Y-46645282D01*
X67459980Y-46633479D01*
X67440891Y-46624612D01*
X67412512Y-46611472D01*
X67376908Y-46595014D01*
X67336147Y-46576193D01*
X67292294Y-46555964D01*
X67247427Y-46535285D01*
X67204804Y-46515611D01*
X67165255Y-46497281D01*
X67130390Y-46481049D01*
X67101820Y-46467665D01*
X67081154Y-46457882D01*
X67070002Y-46452452D01*
X67069258Y-46452064D01*
X67059431Y-46447252D01*
X67039938Y-46438071D01*
X67012501Y-46425318D01*
X66978840Y-46409789D01*
X66940675Y-46392280D01*
X66906718Y-46376775D01*
X66862696Y-46356673D01*
X66818599Y-46336461D01*
X66776910Y-46317284D01*
X66740110Y-46300284D01*
X66710684Y-46286604D01*
X66697292Y-46280320D01*
X66669769Y-46267407D01*
X66637295Y-46252297D01*
X66601634Y-46235797D01*
X66564549Y-46218716D01*
X66527804Y-46201858D01*
X66493164Y-46186033D01*
X66462393Y-46172048D01*
X66437254Y-46160708D01*
X66419512Y-46152823D01*
X66410930Y-46149198D01*
X66410432Y-46149052D01*
X66404250Y-46151757D01*
X66387779Y-46159574D01*
X66361928Y-46172056D01*
X66327606Y-46188754D01*
X66285723Y-46209221D01*
X66237188Y-46233009D01*
X66182910Y-46259671D01*
X66123800Y-46288759D01*
X66060766Y-46319826D01*
X65994718Y-46352423D01*
X65926566Y-46386103D01*
X65857218Y-46420418D01*
X65787584Y-46454921D01*
X65718574Y-46489163D01*
X65651097Y-46522698D01*
X65625153Y-46535608D01*
X65559693Y-46568189D01*
X65485163Y-46605279D01*
X65403690Y-46645819D01*
X65317401Y-46688751D01*
X65228422Y-46733018D01*
X65138880Y-46777561D01*
X65050901Y-46821323D01*
X64966611Y-46863246D01*
X64888653Y-46902015D01*
X64480358Y-47105050D01*
X64551069Y-47140374D01*
X64578810Y-47154300D01*
X64617078Y-47173619D01*
X64665273Y-47198025D01*
X64722794Y-47227212D01*
X64789039Y-47260874D01*
X64863408Y-47298707D01*
X64945300Y-47340403D01*
X65034113Y-47385657D01*
X65129246Y-47434164D01*
X65230099Y-47485617D01*
X65300073Y-47521334D01*
X65392718Y-47568601D01*
X65475314Y-47610654D01*
X65548931Y-47647999D01*
X65614639Y-47681140D01*
X65673507Y-47710584D01*
X65726604Y-47736836D01*
X65775001Y-47760401D01*
X65819766Y-47781786D01*
X65861970Y-47801496D01*
X65902681Y-47820036D01*
X65942970Y-47837913D01*
X65983905Y-47855631D01*
X66026556Y-47873697D01*
X66071993Y-47892616D01*
X66121286Y-47912894D01*
X66173072Y-47934045D01*
X66192736Y-47942059D01*
X66197017Y-48012981D01*
X66198095Y-48042836D01*
X66198172Y-48077175D01*
X66197379Y-48113683D01*
X66195844Y-48150045D01*
X66193699Y-48183946D01*
X66191071Y-48213069D01*
X66188092Y-48235101D01*
X66184889Y-48247725D01*
X66183783Y-48249454D01*
X66177328Y-48253404D01*
X66161027Y-48262690D01*
X66136021Y-48276681D01*
X66103451Y-48294746D01*
X66064457Y-48316253D01*
X66020180Y-48340570D01*
X65971761Y-48367067D01*
X65936301Y-48386417D01*
X65873038Y-48420750D01*
X65819901Y-48449244D01*
X65776162Y-48472262D01*
X65741092Y-48490171D01*
X65713963Y-48503337D01*
X65694047Y-48512123D01*
X65680614Y-48516896D01*
X65673737Y-48518070D01*
X65654778Y-48513556D01*
X65628531Y-48500286D01*
X65606398Y-48486245D01*
X65589398Y-48475069D01*
X65569986Y-48462815D01*
X65547643Y-48449201D01*
X65521851Y-48433945D01*
X65492093Y-48416767D01*
X65457850Y-48397385D01*
X65418605Y-48375517D01*
X65373838Y-48350881D01*
X65323032Y-48323198D01*
X65265670Y-48292185D01*
X65201232Y-48257560D01*
X65129201Y-48219042D01*
X65049059Y-48176351D01*
X64960287Y-48129203D01*
X64862368Y-48077319D01*
X64754783Y-48020416D01*
X64637015Y-47958214D01*
X64543637Y-47908939D01*
X64450498Y-47859796D01*
X64360088Y-47812072D01*
X64273057Y-47766111D01*
X64190054Y-47722256D01*
X64111727Y-47680851D01*
X64038725Y-47642239D01*
X63971698Y-47606764D01*
X63911293Y-47574770D01*
X63858161Y-47546599D01*
X63812950Y-47522596D01*
X63776308Y-47503104D01*
X63748884Y-47488466D01*
X63731329Y-47479026D01*
X63724685Y-47475368D01*
X63703185Y-47463368D01*
X63681873Y-47452294D01*
X63674673Y-47448824D01*
X63664313Y-47443663D01*
X63644271Y-47433348D01*
X63615907Y-47418591D01*
X63580583Y-47400106D01*
X63539658Y-47378604D01*
X63494493Y-47354796D01*
X63446447Y-47329396D01*
X63440240Y-47326109D01*
X63389767Y-47299383D01*
X63340152Y-47273123D01*
X63293102Y-47248232D01*
X63250324Y-47225613D01*
X63213527Y-47206168D01*
X63184417Y-47190801D01*
X63165173Y-47180662D01*
X63133034Y-47163732D01*
X63098441Y-47145460D01*
X63066717Y-47128660D01*
X63052645Y-47121186D01*
X63034380Y-47111497D01*
X63006921Y-47096966D01*
X62972135Y-47078579D01*
X62931889Y-47057323D01*
X62888051Y-47034184D01*
X62842487Y-47010148D01*
X62827590Y-47002292D01*
X62774088Y-46974071D01*
X62714715Y-46942728D01*
X62652963Y-46910112D01*
X62592328Y-46878067D01*
X62536304Y-46848440D01*
X62495074Y-46826620D01*
X62448773Y-46802137D01*
X62400976Y-46776924D01*
X62354287Y-46752349D01*
X62311312Y-46729783D01*
X62274653Y-46710595D01*
X62251264Y-46698409D01*
X62221096Y-46682650D01*
X62194694Y-46668678D01*
X62174134Y-46657606D01*
X62161488Y-46650544D01*
X62158675Y-46648785D01*
X62148775Y-46642694D01*
X62129050Y-46631823D01*
X62100906Y-46616881D01*
X62065752Y-46598578D01*
X62024997Y-46577621D01*
X61980048Y-46554721D01*
X61932314Y-46530585D01*
X61883201Y-46505922D01*
X61834120Y-46481442D01*
X61786477Y-46457854D01*
X61741681Y-46435865D01*
X61701139Y-46416185D01*
X61666261Y-46399523D01*
X61638453Y-46386587D01*
X61632354Y-46383832D01*
X61600396Y-46369035D01*
X61572523Y-46355218D01*
X61550737Y-46343444D01*
X61537041Y-46334780D01*
X61533337Y-46331133D01*
X61531283Y-46320725D01*
X61528875Y-46300305D01*
X61526279Y-46272352D01*
X61523657Y-46239348D01*
X61521175Y-46203771D01*
X61519263Y-46172503D01*
X61599498Y-46172503D01*
X61599974Y-46200488D01*
X61602659Y-46238134D01*
X61603187Y-46243854D01*
X61607122Y-46285518D01*
X61679724Y-46318237D01*
X61695670Y-46325484D01*
X61712518Y-46333276D01*
X61730645Y-46341810D01*
X61750424Y-46351279D01*
X61772231Y-46361878D01*
X61796441Y-46373803D01*
X61823429Y-46387247D01*
X61853569Y-46402407D01*
X61887238Y-46419476D01*
X61924809Y-46438650D01*
X61966658Y-46460123D01*
X62013161Y-46484091D01*
X62064691Y-46510749D01*
X62121624Y-46540290D01*
X62184336Y-46572911D01*
X62253200Y-46608805D01*
X62328593Y-46648168D01*
X62410889Y-46691195D01*
X62500463Y-46738080D01*
X62597690Y-46789019D01*
X62702945Y-46844206D01*
X62816604Y-46903836D01*
X62939041Y-46968104D01*
X63070631Y-47037205D01*
X63211750Y-47111333D01*
X63362772Y-47190684D01*
X63524072Y-47275453D01*
X63696026Y-47365834D01*
X63712489Y-47374488D01*
X63880097Y-47462595D01*
X64037012Y-47545089D01*
X64183609Y-47622172D01*
X64320265Y-47694041D01*
X64447357Y-47760897D01*
X64565260Y-47822939D01*
X64674352Y-47880368D01*
X64775009Y-47933382D01*
X64867607Y-47982181D01*
X64952522Y-48026965D01*
X65030131Y-48067933D01*
X65100810Y-48105286D01*
X65164937Y-48139222D01*
X65222886Y-48169942D01*
X65275035Y-48197644D01*
X65321760Y-48222530D01*
X65363437Y-48244797D01*
X65400444Y-48264647D01*
X65433155Y-48282278D01*
X65461948Y-48297890D01*
X65487199Y-48311683D01*
X65509285Y-48323857D01*
X65528581Y-48334611D01*
X65545465Y-48344144D01*
X65560313Y-48352657D01*
X65573500Y-48360348D01*
X65585404Y-48367419D01*
X65590770Y-48370648D01*
X65609509Y-48381854D01*
X65623455Y-48389963D01*
X65629763Y-48393323D01*
X65629842Y-48393338D01*
X65630469Y-48387513D01*
X65630662Y-48381482D01*
X65719960Y-48381482D01*
X65721397Y-48395741D01*
X65723615Y-48399492D01*
X65730019Y-48396570D01*
X65746085Y-48388318D01*
X65770518Y-48375430D01*
X65802021Y-48358596D01*
X65839298Y-48338507D01*
X65881054Y-48315857D01*
X65915850Y-48296884D01*
X66103396Y-48194388D01*
X66108161Y-48129768D01*
X66110002Y-48102033D01*
X66111178Y-48078619D01*
X66111558Y-48062551D01*
X66111287Y-48057324D01*
X66105496Y-48058088D01*
X66089554Y-48064650D01*
X66064194Y-48076649D01*
X66030144Y-48093724D01*
X65988137Y-48115514D01*
X65938902Y-48141657D01*
X65918975Y-48152374D01*
X65728303Y-48255248D01*
X65724346Y-48294606D01*
X65721448Y-48328863D01*
X65719981Y-48358505D01*
X65719960Y-48381482D01*
X65630662Y-48381482D01*
X65630976Y-48371706D01*
X65631306Y-48348436D01*
X65631405Y-48324447D01*
X65631405Y-48255540D01*
X65579516Y-48221717D01*
X65557277Y-48207787D01*
X65526852Y-48189527D01*
X65491039Y-48168576D01*
X65452640Y-48146573D01*
X65415413Y-48125688D01*
X65402558Y-48118740D01*
X65379143Y-48106284D01*
X65345698Y-48088597D01*
X65302748Y-48065954D01*
X65250820Y-48038629D01*
X65190442Y-48006899D01*
X65122141Y-47971039D01*
X65046443Y-47931325D01*
X64963875Y-47888031D01*
X64874965Y-47841433D01*
X64780239Y-47791807D01*
X64680225Y-47739429D01*
X64575449Y-47684572D01*
X64466439Y-47627514D01*
X64353721Y-47568529D01*
X64237822Y-47507893D01*
X64119270Y-47445882D01*
X63998591Y-47382770D01*
X63876313Y-47318833D01*
X63752961Y-47254347D01*
X63629065Y-47189586D01*
X63505149Y-47124828D01*
X63381742Y-47060346D01*
X63259370Y-46996417D01*
X63138561Y-46933315D01*
X63019840Y-46871317D01*
X62903737Y-46810697D01*
X62790776Y-46751731D01*
X62681486Y-46694695D01*
X62576392Y-46639864D01*
X62476024Y-46587514D01*
X62380906Y-46537919D01*
X62291567Y-46491355D01*
X62208532Y-46448098D01*
X62132331Y-46408424D01*
X62063488Y-46372607D01*
X62002531Y-46340922D01*
X61949988Y-46313647D01*
X61906385Y-46291055D01*
X61872249Y-46273423D01*
X61848107Y-46261025D01*
X61836721Y-46255250D01*
X61804722Y-46239461D01*
X61769849Y-46222656D01*
X61734009Y-46205710D01*
X61699111Y-46189497D01*
X61667063Y-46174893D01*
X61639774Y-46162773D01*
X61619150Y-46154011D01*
X61607101Y-46149482D01*
X61605106Y-46149052D01*
X61601215Y-46155062D01*
X61599498Y-46172503D01*
X61519263Y-46172503D01*
X61518994Y-46168103D01*
X61517280Y-46134823D01*
X61516196Y-46106412D01*
X61515906Y-46085349D01*
X61516012Y-46083212D01*
X61664620Y-46083212D01*
X61668134Y-46088567D01*
X61680698Y-46095469D01*
X61690200Y-46099755D01*
X61703834Y-46105853D01*
X61719695Y-46113171D01*
X61738138Y-46121891D01*
X61759518Y-46132197D01*
X61784192Y-46144272D01*
X61812515Y-46158298D01*
X61844842Y-46174459D01*
X61881530Y-46192937D01*
X61922933Y-46213916D01*
X61969408Y-46237578D01*
X62021309Y-46264108D01*
X62078994Y-46293686D01*
X62142816Y-46326498D01*
X62213133Y-46362725D01*
X62290299Y-46402551D01*
X62374670Y-46446158D01*
X62466601Y-46493731D01*
X62566449Y-46545450D01*
X62674569Y-46601501D01*
X62791316Y-46662065D01*
X62917047Y-46727326D01*
X63052116Y-46797467D01*
X63196879Y-46872670D01*
X63351693Y-46953120D01*
X63516912Y-47038998D01*
X63677799Y-47122640D01*
X63847784Y-47211022D01*
X64007047Y-47293837D01*
X64155963Y-47371282D01*
X64294904Y-47443553D01*
X64424244Y-47510846D01*
X64544358Y-47573359D01*
X64655619Y-47631287D01*
X64758400Y-47684828D01*
X64853076Y-47734178D01*
X64940020Y-47779534D01*
X65019605Y-47821092D01*
X65092206Y-47859048D01*
X65158197Y-47893601D01*
X65217950Y-47924945D01*
X65271839Y-47953277D01*
X65320239Y-47978795D01*
X65363523Y-48001695D01*
X65402065Y-48022173D01*
X65436238Y-48040426D01*
X65466416Y-48056651D01*
X65492974Y-48071043D01*
X65516283Y-48083801D01*
X65536720Y-48095120D01*
X65554656Y-48105196D01*
X65570465Y-48114228D01*
X65584523Y-48122410D01*
X65597201Y-48129940D01*
X65608874Y-48137014D01*
X65619916Y-48143829D01*
X65624623Y-48146766D01*
X65647412Y-48160865D01*
X65666052Y-48172090D01*
X65678150Y-48179018D01*
X65681417Y-48180547D01*
X65687477Y-48177739D01*
X65703210Y-48169683D01*
X65727291Y-48157080D01*
X65758394Y-48140628D01*
X65795193Y-48121029D01*
X65836364Y-48098981D01*
X65862328Y-48085022D01*
X65905494Y-48061620D01*
X65945013Y-48039885D01*
X65979561Y-48020570D01*
X66007814Y-48004427D01*
X66028449Y-47992208D01*
X66040142Y-47984666D01*
X66042308Y-47982722D01*
X66037580Y-47978243D01*
X66023107Y-47969932D01*
X66000705Y-47958709D01*
X65972195Y-47945492D01*
X65945792Y-47933922D01*
X65904821Y-47916135D01*
X65859971Y-47896229D01*
X65815853Y-47876276D01*
X65777078Y-47858349D01*
X65765813Y-47853027D01*
X65746990Y-47843873D01*
X65718708Y-47829842D01*
X65681716Y-47811317D01*
X65636763Y-47788682D01*
X65584599Y-47762322D01*
X65525975Y-47732618D01*
X65461638Y-47699956D01*
X65392339Y-47664719D01*
X65318828Y-47627291D01*
X65241853Y-47588055D01*
X65162165Y-47547395D01*
X65080513Y-47505695D01*
X64997647Y-47463338D01*
X64914316Y-47420708D01*
X64831269Y-47378189D01*
X64749257Y-47336164D01*
X64669029Y-47295018D01*
X64591334Y-47255133D01*
X64516923Y-47216894D01*
X64446544Y-47180684D01*
X64380947Y-47146887D01*
X64320881Y-47115887D01*
X64267097Y-47088067D01*
X64220344Y-47063811D01*
X64181371Y-47043502D01*
X64150929Y-47027525D01*
X64129765Y-47016263D01*
X64118631Y-47010100D01*
X64117065Y-47009060D01*
X64113736Y-46998355D01*
X64112472Y-46983632D01*
X64112704Y-46981095D01*
X64247456Y-46981095D01*
X64250818Y-46985203D01*
X64262964Y-46993424D01*
X64281423Y-47004428D01*
X64303726Y-47016883D01*
X64327400Y-47029459D01*
X64349975Y-47040824D01*
X64368981Y-47049647D01*
X64381946Y-47054597D01*
X64385019Y-47055203D01*
X64391282Y-47052512D01*
X64408182Y-47044558D01*
X64435148Y-47031621D01*
X64471608Y-47013979D01*
X64516994Y-46991912D01*
X64570733Y-46965701D01*
X64632255Y-46935624D01*
X64700990Y-46901961D01*
X64776366Y-46864992D01*
X64857813Y-46824996D01*
X64944761Y-46782253D01*
X65036639Y-46737042D01*
X65132875Y-46689643D01*
X65232900Y-46640336D01*
X65336142Y-46589400D01*
X65379013Y-46568237D01*
X66365960Y-46080949D01*
X66367735Y-46011100D01*
X66368304Y-45980535D01*
X66368288Y-45979437D01*
X66451113Y-45979437D01*
X66451634Y-46008841D01*
X66451714Y-46012024D01*
X66453482Y-46081296D01*
X67103642Y-46380656D01*
X67191774Y-46421293D01*
X67278801Y-46461530D01*
X67363800Y-46500936D01*
X67445852Y-46539080D01*
X67524033Y-46575528D01*
X67597424Y-46609851D01*
X67665103Y-46641615D01*
X67726149Y-46670389D01*
X67779640Y-46695743D01*
X67824655Y-46717243D01*
X67860274Y-46734459D01*
X67885574Y-46746958D01*
X67888210Y-46748291D01*
X67925858Y-46767360D01*
X67959781Y-46784434D01*
X67988397Y-46798726D01*
X68010126Y-46809451D01*
X68023388Y-46815822D01*
X68026773Y-46817267D01*
X68029309Y-46811904D01*
X68032170Y-46797104D01*
X68034789Y-46775898D01*
X68035099Y-46772643D01*
X68035636Y-46764692D01*
X68119568Y-46764692D01*
X68119797Y-46786598D01*
X68121068Y-46803180D01*
X68123464Y-46811255D01*
X68124205Y-46811574D01*
X68130738Y-46808688D01*
X68146798Y-46800618D01*
X68170917Y-46788131D01*
X68201628Y-46771994D01*
X68237461Y-46752973D01*
X68276948Y-46731836D01*
X68278931Y-46730770D01*
X68428968Y-46650107D01*
X68433296Y-46626197D01*
X68436476Y-46602145D01*
X68437990Y-46576583D01*
X68437917Y-46552499D01*
X68436331Y-46532881D01*
X68433310Y-46520715D01*
X68430531Y-46518220D01*
X68423109Y-46521158D01*
X68406238Y-46529264D01*
X68381464Y-46541749D01*
X68350331Y-46557825D01*
X68314385Y-46576703D01*
X68278931Y-46595579D01*
X68226660Y-46623998D01*
X68185559Y-46647272D01*
X68155452Y-46665509D01*
X68136161Y-46678816D01*
X68127510Y-46687300D01*
X68127423Y-46687461D01*
X68124309Y-46698846D01*
X68121906Y-46717634D01*
X68120299Y-46740643D01*
X68119568Y-46764692D01*
X68035636Y-46764692D01*
X68036954Y-46745155D01*
X68037677Y-46718157D01*
X68037196Y-46699187D01*
X68035121Y-46671055D01*
X67885084Y-46595782D01*
X67860116Y-46583499D01*
X67826080Y-46567127D01*
X67783812Y-46547049D01*
X67734146Y-46523650D01*
X67677919Y-46497312D01*
X67615966Y-46468417D01*
X67549124Y-46437349D01*
X67478226Y-46404492D01*
X67404110Y-46370227D01*
X67327610Y-46334939D01*
X67249563Y-46299009D01*
X67170804Y-46262822D01*
X67092168Y-46226760D01*
X67014491Y-46191207D01*
X66938609Y-46156545D01*
X66865357Y-46123157D01*
X66795571Y-46091426D01*
X66730086Y-46061737D01*
X66669739Y-46034470D01*
X66615365Y-46010010D01*
X66567798Y-45988740D01*
X66527876Y-45971043D01*
X66496433Y-45957301D01*
X66474306Y-45947898D01*
X66462329Y-45943217D01*
X66460521Y-45942751D01*
X66455910Y-45943992D01*
X66452983Y-45949116D01*
X66451474Y-45960230D01*
X66451113Y-45979437D01*
X66368288Y-45979437D01*
X66368013Y-45960548D01*
X66366641Y-45949234D01*
X66363973Y-45944683D01*
X66360151Y-45944842D01*
X66352997Y-45948176D01*
X66335357Y-45956664D01*
X66307902Y-45969978D01*
X66271303Y-45987787D01*
X66226230Y-46009763D01*
X66173355Y-46035577D01*
X66113349Y-46064900D01*
X66046883Y-46097402D01*
X65974627Y-46132754D01*
X65897253Y-46170627D01*
X65815432Y-46210693D01*
X65729835Y-46252621D01*
X65641133Y-46296084D01*
X65549996Y-46340751D01*
X65457097Y-46386293D01*
X65363105Y-46432383D01*
X65268692Y-46478689D01*
X65174529Y-46524884D01*
X65081288Y-46570637D01*
X64989637Y-46615621D01*
X64900250Y-46659506D01*
X64813797Y-46701962D01*
X64730949Y-46742661D01*
X64652377Y-46781273D01*
X64578752Y-46817470D01*
X64510745Y-46850922D01*
X64449027Y-46881300D01*
X64394269Y-46908275D01*
X64347142Y-46931518D01*
X64308317Y-46950699D01*
X64278465Y-46965490D01*
X64258257Y-46975562D01*
X64248365Y-46980585D01*
X64247456Y-46981095D01*
X64112704Y-46981095D01*
X64113913Y-46967862D01*
X64117065Y-46957987D01*
X64123056Y-46954605D01*
X64139755Y-46946010D01*
X64166631Y-46932463D01*
X64203151Y-46914228D01*
X64248783Y-46891566D01*
X64302994Y-46864738D01*
X64365254Y-46834006D01*
X64435029Y-46799633D01*
X64511787Y-46761880D01*
X64594996Y-46721008D01*
X64684124Y-46677281D01*
X64778638Y-46630959D01*
X64878008Y-46582305D01*
X64981699Y-46531580D01*
X65089181Y-46479047D01*
X65199920Y-46424966D01*
X65257403Y-46396912D01*
X65400528Y-46327103D01*
X65532745Y-46262679D01*
X65654360Y-46203491D01*
X65765678Y-46149394D01*
X65867006Y-46100241D01*
X65958650Y-46055886D01*
X66040914Y-46016181D01*
X66114106Y-45980982D01*
X66178530Y-45950141D01*
X66234493Y-45923512D01*
X66282300Y-45900948D01*
X66322257Y-45882303D01*
X66354671Y-45867432D01*
X66379846Y-45856186D01*
X66398089Y-45848420D01*
X66409705Y-45843987D01*
X66414753Y-45842726D01*
X66423446Y-45845292D01*
X66442669Y-45852742D01*
X66471604Y-45864706D01*
X66509436Y-45880816D01*
X66555349Y-45900701D01*
X66608525Y-45923992D01*
X66668148Y-45950318D01*
X66733403Y-45979311D01*
X66803472Y-46010601D01*
X66877540Y-46043817D01*
X66954790Y-46078591D01*
X67034406Y-46114552D01*
X67115571Y-46151331D01*
X67197469Y-46188558D01*
X67279284Y-46225864D01*
X67360199Y-46262878D01*
X67439399Y-46299232D01*
X67516066Y-46334554D01*
X67589384Y-46368477D01*
X67658537Y-46400629D01*
X67722710Y-46430642D01*
X67781084Y-46458146D01*
X67832844Y-46482770D01*
X67877174Y-46504146D01*
X67900344Y-46515493D01*
X67951069Y-46540461D01*
X67991841Y-46560319D01*
X68023877Y-46575576D01*
X68048393Y-46586741D01*
X68066607Y-46594322D01*
X68079734Y-46598830D01*
X68088992Y-46600773D01*
X68095597Y-46600659D01*
X68100393Y-46599169D01*
X68114625Y-46592324D01*
X68136670Y-46581148D01*
X68164636Y-46566651D01*
X68196634Y-46549845D01*
X68230772Y-46531741D01*
X68265159Y-46513350D01*
X68297904Y-46495684D01*
X68327118Y-46479754D01*
X68350907Y-46466570D01*
X68367383Y-46457145D01*
X68374646Y-46452497D01*
X68375893Y-46448550D01*
X68370875Y-46443590D01*
X68358207Y-46436892D01*
X68336504Y-46427728D01*
X68304382Y-46415373D01*
X68302754Y-46414761D01*
X68284818Y-46407992D01*
X68266691Y-46401045D01*
X68247920Y-46393718D01*
X68228049Y-46385812D01*
X68206626Y-46377126D01*
X68183196Y-46367459D01*
X68157306Y-46356611D01*
X68128501Y-46344381D01*
X68096328Y-46330569D01*
X68060333Y-46314973D01*
X68020062Y-46297393D01*
X67975062Y-46277629D01*
X67924877Y-46255480D01*
X67869055Y-46230745D01*
X67807142Y-46203224D01*
X67738683Y-46172717D01*
X67663225Y-46139021D01*
X67580315Y-46101938D01*
X67489497Y-46061266D01*
X67390318Y-46016805D01*
X67282325Y-45968354D01*
X67165064Y-45915712D01*
X67038080Y-45858679D01*
X66900920Y-45797054D01*
X66753130Y-45730637D01*
X66643404Y-45681319D01*
X66489262Y-45612036D01*
X66346085Y-45547681D01*
X66213434Y-45488055D01*
X66090870Y-45432958D01*
X65977955Y-45382188D01*
X65874251Y-45335547D01*
X65779320Y-45292833D01*
X65692723Y-45253847D01*
X65614021Y-45218389D01*
X65542777Y-45186258D01*
X65478552Y-45157253D01*
X65420907Y-45131176D01*
X65369405Y-45107825D01*
X65323607Y-45087001D01*
X65283074Y-45068503D01*
X65247369Y-45052131D01*
X65216052Y-45037685D01*
X65188686Y-45024965D01*
X65164832Y-45013770D01*
X65144052Y-45003901D01*
X65125907Y-44995156D01*
X65109959Y-44987337D01*
X65095769Y-44980242D01*
X65082901Y-44973672D01*
X65070913Y-44967426D01*
X65059370Y-44961304D01*
X65047832Y-44955106D01*
X65035860Y-44948632D01*
X65023017Y-44941681D01*
X65018625Y-44939309D01*
X64918727Y-44885406D01*
X64814015Y-44932259D01*
X64776909Y-44948866D01*
X64740349Y-44965234D01*
X64707237Y-44980065D01*
X64680474Y-44992059D01*
X64666389Y-44998377D01*
X64642855Y-45009980D01*
X64631111Y-45019113D01*
X64630995Y-45026973D01*
X64642345Y-45034760D01*
X64660458Y-45042061D01*
X64677637Y-45048773D01*
X64704613Y-45060017D01*
X64740512Y-45075394D01*
X64784458Y-45094509D01*
X64835576Y-45116964D01*
X64892991Y-45142363D01*
X64955829Y-45170310D01*
X65023213Y-45200406D01*
X65094269Y-45232256D01*
X65168121Y-45265462D01*
X65243896Y-45299629D01*
X65320717Y-45334359D01*
X65397709Y-45369255D01*
X65473998Y-45403921D01*
X65548708Y-45437960D01*
X65620964Y-45470976D01*
X65689892Y-45502570D01*
X65754615Y-45532348D01*
X65814260Y-45559912D01*
X65867950Y-45584864D01*
X65914812Y-45606810D01*
X65953969Y-45625351D01*
X65984546Y-45640091D01*
X66005670Y-45650633D01*
X66016463Y-45656581D01*
X66017437Y-45657296D01*
X66028903Y-45673904D01*
X66030589Y-45692013D01*
X66022858Y-45706693D01*
X66015958Y-45710692D01*
X65998442Y-45719733D01*
X65970962Y-45733503D01*
X65934167Y-45751692D01*
X65888711Y-45773986D01*
X65835243Y-45800075D01*
X65774417Y-45829646D01*
X65706883Y-45862387D01*
X65633293Y-45897986D01*
X65554298Y-45936132D01*
X65470550Y-45976513D01*
X65382700Y-46018815D01*
X65291399Y-46062729D01*
X65197300Y-46107941D01*
X65101053Y-46154140D01*
X65003310Y-46201014D01*
X64904723Y-46248251D01*
X64805943Y-46295539D01*
X64707621Y-46342566D01*
X64610409Y-46389020D01*
X64514958Y-46434589D01*
X64421920Y-46478962D01*
X64331946Y-46521826D01*
X64245688Y-46562869D01*
X64163797Y-46601781D01*
X64086925Y-46638247D01*
X64015723Y-46671958D01*
X63950842Y-46702600D01*
X63892934Y-46729862D01*
X63842651Y-46753432D01*
X63800644Y-46772998D01*
X63767564Y-46788249D01*
X63744064Y-46798871D01*
X63730793Y-46804554D01*
X63728038Y-46805463D01*
X63720582Y-46802663D01*
X63702808Y-46794530D01*
X63675507Y-46781467D01*
X63639471Y-46763879D01*
X63595491Y-46742167D01*
X63544360Y-46716736D01*
X63486868Y-46687988D01*
X63423808Y-46656327D01*
X63355971Y-46622155D01*
X63284148Y-46585876D01*
X63209131Y-46547893D01*
X63131712Y-46508610D01*
X63052682Y-46468428D01*
X62972833Y-46427752D01*
X62892957Y-46386985D01*
X62813845Y-46346530D01*
X62736288Y-46306789D01*
X62661079Y-46268167D01*
X62589009Y-46231066D01*
X62520869Y-46195889D01*
X62457452Y-46163040D01*
X62399548Y-46132922D01*
X62347949Y-46105937D01*
X62303448Y-46082490D01*
X62266834Y-46062983D01*
X62238901Y-46047819D01*
X62223889Y-46039404D01*
X62188553Y-46018831D01*
X62150974Y-45996501D01*
X62115332Y-45974926D01*
X62085808Y-45956615D01*
X62082329Y-45954409D01*
X62023181Y-45916768D01*
X61850244Y-45992822D01*
X61806496Y-46012213D01*
X61766221Y-46030355D01*
X61730916Y-46046549D01*
X61702077Y-46060099D01*
X61681202Y-46070308D01*
X61669787Y-46076478D01*
X61668320Y-46077540D01*
X61664620Y-46083212D01*
X61516012Y-46083212D01*
X61516420Y-46074978D01*
X61517076Y-46069601D01*
X61517951Y-46064982D01*
X61520018Y-46060619D01*
X61524246Y-46056005D01*
X61531609Y-46050639D01*
X61543077Y-46044015D01*
X61559622Y-46035629D01*
X61582214Y-46024978D01*
X61611826Y-46011558D01*
X61649429Y-45994864D01*
X61695993Y-45974393D01*
X61752492Y-45949640D01*
X61787761Y-45934189D01*
X61841753Y-45910744D01*
X61891230Y-45889682D01*
X61935032Y-45871469D01*
X61971997Y-45856576D01*
X62000966Y-45845469D01*
X62020778Y-45838618D01*
X62029943Y-45836475D01*
X62043230Y-45839428D01*
X62063221Y-45848647D01*
X62090942Y-45864673D01*
X62125059Y-45886487D01*
X62152028Y-45904176D01*
X62175029Y-45919117D01*
X62192177Y-45930096D01*
X62201585Y-45935898D01*
X62202776Y-45936499D01*
X62208578Y-45939440D01*
X62222809Y-45947377D01*
X62243115Y-45958982D01*
X62259770Y-45968628D01*
X62275457Y-45977343D01*
X62301506Y-45991292D01*
X62337120Y-46010068D01*
X62381503Y-46033262D01*
X62433858Y-46060467D01*
X62493390Y-46091274D01*
X62559301Y-46125275D01*
X62630797Y-46162063D01*
X62707080Y-46201230D01*
X62787355Y-46242367D01*
X62870825Y-46285067D01*
X62956694Y-46328922D01*
X63044165Y-46373524D01*
X63132443Y-46418464D01*
X63220731Y-46463335D01*
X63308233Y-46507728D01*
X63394153Y-46551237D01*
X63477695Y-46593452D01*
X63558061Y-46633967D01*
X63572505Y-46641237D01*
X63729777Y-46720374D01*
X63794435Y-46689984D01*
X63822592Y-46676685D01*
X63858422Y-46659665D01*
X63898337Y-46640632D01*
X63938749Y-46621298D01*
X63962244Y-46610022D01*
X64002188Y-46590852D01*
X64049319Y-46568274D01*
X64099532Y-46544252D01*
X64148725Y-46520750D01*
X64187299Y-46502348D01*
X64230030Y-46481971D01*
X64275203Y-46460409D01*
X64319373Y-46439309D01*
X64359091Y-46420318D01*
X64390474Y-46405292D01*
X64443712Y-46379783D01*
X64501067Y-46352321D01*
X64561378Y-46323458D01*
X64623485Y-46293750D01*
X64686228Y-46263750D01*
X64748447Y-46234013D01*
X64808982Y-46205092D01*
X64866671Y-46177542D01*
X64920356Y-46151917D01*
X64968876Y-46128771D01*
X65011071Y-46108658D01*
X65045780Y-46092133D01*
X65071843Y-46079749D01*
X65088101Y-46072061D01*
X65090647Y-46070868D01*
X65112108Y-46060756D01*
X65141522Y-46046766D01*
X65175591Y-46030473D01*
X65211016Y-46013453D01*
X65225055Y-46006684D01*
X65296412Y-45972293D01*
X65369087Y-45937365D01*
X65440103Y-45903326D01*
X65506483Y-45871604D01*
X65565248Y-45843626D01*
X65576704Y-45838188D01*
X65604092Y-45824867D01*
X65626843Y-45813173D01*
X65642843Y-45804240D01*
X65649979Y-45799203D01*
X65650159Y-45798798D01*
X65644922Y-45793973D01*
X65631504Y-45786545D01*
X65620464Y-45781462D01*
X65602408Y-45773449D01*
X65576834Y-45761797D01*
X65547516Y-45748236D01*
X65525128Y-45737753D01*
X65487022Y-45719840D01*
X65453349Y-45704109D01*
X65419865Y-45688587D01*
X65382323Y-45671306D01*
X65350085Y-45656524D01*
X65335845Y-45649979D01*
X65311650Y-45638833D01*
X65278892Y-45623727D01*
X65238966Y-45605306D01*
X65193266Y-45584212D01*
X65143187Y-45561090D01*
X65090120Y-45536581D01*
X65056263Y-45520941D01*
X64968733Y-45480648D01*
X64890995Y-45445192D01*
X64821600Y-45413937D01*
X64759097Y-45386247D01*
X64702038Y-45361484D01*
X64648973Y-45339014D01*
X64598453Y-45318198D01*
X64553014Y-45299978D01*
X64490499Y-45275228D01*
X64486200Y-45241712D01*
X64484556Y-45223328D01*
X64482972Y-45195706D01*
X64481597Y-45162112D01*
X64480580Y-45125812D01*
X64480564Y-45124996D01*
X64557067Y-45124996D01*
X64557498Y-45149702D01*
X64558701Y-45182045D01*
X64560560Y-45203842D01*
X64563367Y-45217043D01*
X64567412Y-45223600D01*
X64568643Y-45224425D01*
X64576881Y-45228176D01*
X64594941Y-45235973D01*
X64621089Y-45247081D01*
X64653595Y-45260767D01*
X64690724Y-45276299D01*
X64715554Y-45286636D01*
X64743884Y-45298684D01*
X64782298Y-45315447D01*
X64829547Y-45336360D01*
X64884381Y-45360860D01*
X64945550Y-45388382D01*
X65011805Y-45418363D01*
X65081895Y-45450238D01*
X65154570Y-45483444D01*
X65228581Y-45517417D01*
X65296947Y-45548944D01*
X65367001Y-45581290D01*
X65433825Y-45612082D01*
X65496545Y-45640919D01*
X65554283Y-45667401D01*
X65606163Y-45691129D01*
X65651309Y-45711702D01*
X65688845Y-45728721D01*
X65717895Y-45741786D01*
X65737582Y-45750496D01*
X65747030Y-45754452D01*
X65747702Y-45754653D01*
X65755665Y-45752316D01*
X65772546Y-45745533D01*
X65796005Y-45735296D01*
X65823702Y-45722600D01*
X65828843Y-45720184D01*
X65858884Y-45705936D01*
X65879001Y-45695943D01*
X65890589Y-45689145D01*
X65895042Y-45684483D01*
X65893753Y-45680896D01*
X65888116Y-45677325D01*
X65886392Y-45676416D01*
X65873219Y-45669925D01*
X65849627Y-45658753D01*
X65816600Y-45643345D01*
X65775121Y-45624148D01*
X65726174Y-45601609D01*
X65670743Y-45576174D01*
X65609812Y-45548290D01*
X65544364Y-45518403D01*
X65475383Y-45486960D01*
X65403854Y-45454407D01*
X65330759Y-45421191D01*
X65257082Y-45387758D01*
X65183808Y-45354556D01*
X65111920Y-45322030D01*
X65042402Y-45290627D01*
X64976237Y-45260794D01*
X64914409Y-45232976D01*
X64857902Y-45207622D01*
X64807700Y-45185177D01*
X64764787Y-45166087D01*
X64730146Y-45150800D01*
X64704761Y-45139762D01*
X64694900Y-45135580D01*
X64656883Y-45119777D01*
X64622835Y-45105724D01*
X64594412Y-45094093D01*
X64573266Y-45085562D01*
X64561054Y-45080804D01*
X64558724Y-45080039D01*
X64557677Y-45085869D01*
X64557110Y-45101690D01*
X64557067Y-45124996D01*
X64480564Y-45124996D01*
X64480329Y-45112621D01*
X64479796Y-45076117D01*
X64479768Y-45049965D01*
X64480512Y-45032016D01*
X64482293Y-45020123D01*
X64485378Y-45012135D01*
X64490032Y-45005905D01*
X64494043Y-45001761D01*
X64504063Y-44994953D01*
X64523881Y-44984162D01*
X64551843Y-44970122D01*
X64586295Y-44953568D01*
X64625583Y-44935234D01*
X64668054Y-44915856D01*
X64712054Y-44896167D01*
X64755929Y-44876904D01*
X64798025Y-44858800D01*
X64836690Y-44842591D01*
X64870268Y-44829011D01*
X64897106Y-44818795D01*
X64915551Y-44812678D01*
X64922871Y-44811222D01*
X64940146Y-44814558D01*
G37*
G36*
X65006789Y-44326065D02*
G01*
X65024596Y-44333325D01*
X65052973Y-44345187D01*
X65091472Y-44361459D01*
X65139647Y-44381945D01*
X65197051Y-44406452D01*
X65263236Y-44434787D01*
X65337755Y-44466755D01*
X65420162Y-44502162D01*
X65510009Y-44540816D01*
X65606849Y-44582520D01*
X65710236Y-44627083D01*
X65819721Y-44674310D01*
X65934859Y-44724007D01*
X66055201Y-44775980D01*
X66180301Y-44830036D01*
X66309712Y-44885980D01*
X66442987Y-44943619D01*
X66579678Y-45002759D01*
X66719339Y-45063205D01*
X66861522Y-45124765D01*
X67005781Y-45187243D01*
X67151668Y-45250447D01*
X67298736Y-45314183D01*
X67446539Y-45378256D01*
X67594628Y-45442472D01*
X67742558Y-45506639D01*
X67889881Y-45570561D01*
X68036149Y-45634045D01*
X68180916Y-45696897D01*
X68323736Y-45758924D01*
X68464159Y-45819931D01*
X68601741Y-45879725D01*
X68736032Y-45938111D01*
X68866588Y-45994896D01*
X68992959Y-46049887D01*
X69114700Y-46102888D01*
X69231364Y-46153706D01*
X69342502Y-46202147D01*
X69447669Y-46248018D01*
X69546416Y-46291125D01*
X69638298Y-46331273D01*
X69722866Y-46368269D01*
X69799674Y-46401919D01*
X69868275Y-46432029D01*
X69928221Y-46458405D01*
X69979066Y-46480853D01*
X70020363Y-46499180D01*
X70051664Y-46513192D01*
X70072522Y-46522694D01*
X70082491Y-46527492D01*
X70083284Y-46527979D01*
X70087424Y-46532758D01*
X70090607Y-46539472D01*
X70092791Y-46549194D01*
X70093936Y-46562996D01*
X70093999Y-46581952D01*
X70092941Y-46607133D01*
X70090719Y-46639612D01*
X70087294Y-46680461D01*
X70082623Y-46730754D01*
X70076667Y-46791562D01*
X70071070Y-46847293D01*
X70065859Y-46900262D01*
X70061279Y-46949616D01*
X70057443Y-46993901D01*
X70054466Y-47031664D01*
X70052462Y-47061450D01*
X70051545Y-47081806D01*
X70051829Y-47091279D01*
X70051893Y-47091486D01*
X70059844Y-47099527D01*
X70078251Y-47110860D01*
X70105747Y-47124699D01*
X70124060Y-47133010D01*
X70151821Y-47145630D01*
X70176100Y-47157426D01*
X70194140Y-47167011D01*
X70202842Y-47172668D01*
X70206756Y-47176936D01*
X70209746Y-47182677D01*
X70211764Y-47191051D01*
X70212763Y-47203213D01*
X70212695Y-47220322D01*
X70211514Y-47243534D01*
X70209171Y-47274008D01*
X70205619Y-47312902D01*
X70200811Y-47361371D01*
X70194700Y-47420575D01*
X70191415Y-47451955D01*
X70185269Y-47509916D01*
X70180126Y-47556716D01*
X70175788Y-47593636D01*
X70172056Y-47621959D01*
X70168731Y-47642969D01*
X70165614Y-47657949D01*
X70162507Y-47668181D01*
X70159211Y-47674948D01*
X70156271Y-47678766D01*
X70146412Y-47686775D01*
X70128011Y-47699458D01*
X70103385Y-47715294D01*
X70074855Y-47732767D01*
X70063478Y-47739516D01*
X70035041Y-47756490D01*
X70010517Y-47771615D01*
X69991915Y-47783615D01*
X69981246Y-47791211D01*
X69979580Y-47792834D01*
X69978591Y-47799514D01*
X69976459Y-47817666D01*
X69973282Y-47846321D01*
X69969158Y-47884509D01*
X69964187Y-47931261D01*
X69958467Y-47985609D01*
X69952098Y-48046583D01*
X69945177Y-48113213D01*
X69937804Y-48184530D01*
X69930077Y-48259566D01*
X69922095Y-48337351D01*
X69913957Y-48416915D01*
X69905762Y-48497290D01*
X69897608Y-48577506D01*
X69889594Y-48656595D01*
X69881819Y-48733586D01*
X69874382Y-48807511D01*
X69867381Y-48877400D01*
X69860915Y-48942284D01*
X69855083Y-49001195D01*
X69849984Y-49053162D01*
X69845716Y-49097216D01*
X69842379Y-49132389D01*
X69840070Y-49157711D01*
X69838889Y-49172213D01*
X69838752Y-49174952D01*
X69844399Y-49181539D01*
X69861026Y-49192628D01*
X69888078Y-49207891D01*
X69925002Y-49227004D01*
X69939748Y-49234342D01*
X69983311Y-49256132D01*
X70016736Y-49273700D01*
X70041293Y-49287944D01*
X70058251Y-49299764D01*
X70068881Y-49310058D01*
X70074450Y-49319725D01*
X70076229Y-49329663D01*
X70076248Y-49330975D01*
X70075604Y-49341297D01*
X70073777Y-49362432D01*
X70070923Y-49392761D01*
X70067203Y-49430666D01*
X70062772Y-49474528D01*
X70057789Y-49522729D01*
X70054543Y-49553595D01*
X70048573Y-49609662D01*
X70043648Y-49654638D01*
X70039543Y-49689868D01*
X70036030Y-49716700D01*
X70032885Y-49736479D01*
X70029879Y-49750552D01*
X70026788Y-49760266D01*
X70023386Y-49766968D01*
X70019445Y-49772002D01*
X70017511Y-49774007D01*
X70007853Y-49781835D01*
X69989410Y-49795158D01*
X69963949Y-49812761D01*
X69933234Y-49833431D01*
X69899034Y-49855955D01*
X69884493Y-49865393D01*
X69841388Y-49893649D01*
X69808388Y-49916221D01*
X69784763Y-49933656D01*
X69769777Y-49946501D01*
X69762699Y-49955302D01*
X69762157Y-49956659D01*
X69761056Y-49964404D01*
X69758793Y-49983952D01*
X69755432Y-50014664D01*
X69751039Y-50055901D01*
X69745680Y-50107023D01*
X69739419Y-50167392D01*
X69732323Y-50236368D01*
X69724455Y-50313312D01*
X69715882Y-50397584D01*
X69706669Y-50488545D01*
X69696880Y-50585556D01*
X69686583Y-50687978D01*
X69675841Y-50795171D01*
X69664719Y-50906497D01*
X69653285Y-51021315D01*
X69648682Y-51067627D01*
X69633259Y-51222519D01*
X69618885Y-51366069D01*
X69605569Y-51498187D01*
X69593320Y-51618784D01*
X69582147Y-51727771D01*
X69572061Y-51825059D01*
X69563071Y-51910559D01*
X69555185Y-51984182D01*
X69548414Y-52045840D01*
X69542766Y-52095443D01*
X69538252Y-52132903D01*
X69534879Y-52158130D01*
X69532659Y-52171036D01*
X69532061Y-52172774D01*
X69524624Y-52179261D01*
X69508707Y-52191566D01*
X69486092Y-52208363D01*
X69458563Y-52228327D01*
X69429856Y-52248755D01*
X69399669Y-52270212D01*
X69373028Y-52289463D01*
X69351625Y-52305260D01*
X69337154Y-52316352D01*
X69331353Y-52321420D01*
X69328419Y-52330625D01*
X69325192Y-52347903D01*
X69323219Y-52362478D01*
X69320096Y-52389177D01*
X69316817Y-52416728D01*
X69315502Y-52427612D01*
X69311830Y-52457759D01*
X69149883Y-52572960D01*
X69101693Y-52607040D01*
X69062555Y-52634232D01*
X69031515Y-52655145D01*
X69007618Y-52670386D01*
X68989910Y-52680563D01*
X68977435Y-52686284D01*
X68969239Y-52688157D01*
X68968943Y-52688161D01*
X68953809Y-52685007D01*
X68932880Y-52676752D01*
X68912059Y-52665954D01*
X68892304Y-52655317D01*
X68876317Y-52648420D01*
X68867428Y-52646689D01*
X68867246Y-52646757D01*
X68861305Y-52650703D01*
X68845829Y-52661402D01*
X68821491Y-52678379D01*
X68788962Y-52701164D01*
X68748912Y-52729283D01*
X68702014Y-52762264D01*
X68648938Y-52799634D01*
X68590356Y-52840922D01*
X68526939Y-52885656D01*
X68459358Y-52933362D01*
X68388284Y-52983568D01*
X68314389Y-53035802D01*
X68313768Y-53036241D01*
X67767212Y-53422716D01*
X67705876Y-53537800D01*
X67686888Y-53573050D01*
X67669266Y-53605067D01*
X67654056Y-53632001D01*
X67642307Y-53652001D01*
X67635068Y-53663220D01*
X67634124Y-53664394D01*
X67617447Y-53673776D01*
X67592764Y-53674990D01*
X67561561Y-53668003D01*
X67556101Y-53666136D01*
X67534712Y-53660293D01*
X67507625Y-53655266D01*
X67487081Y-53652771D01*
X67445417Y-53649174D01*
X66233648Y-54504540D01*
X66084106Y-54610059D01*
X65944653Y-54708373D01*
X65815204Y-54799543D01*
X65695671Y-54883629D01*
X65585968Y-54960692D01*
X65486008Y-55030792D01*
X65395706Y-55093988D01*
X65314973Y-55150343D01*
X65243725Y-55199915D01*
X65181874Y-55242765D01*
X65129334Y-55278953D01*
X65086019Y-55308540D01*
X65051841Y-55331586D01*
X65026714Y-55348152D01*
X65010552Y-55358296D01*
X65003269Y-55362081D01*
X65003125Y-55362106D01*
X65000526Y-55361634D01*
X64995942Y-55359680D01*
X64989077Y-55356038D01*
X64979634Y-55350500D01*
X64967315Y-55342860D01*
X64951825Y-55332909D01*
X64932867Y-55320442D01*
X64910144Y-55305251D01*
X64883358Y-55287129D01*
X64852215Y-55265870D01*
X64816416Y-55241265D01*
X64775665Y-55213109D01*
X64729665Y-55181193D01*
X64678120Y-55145312D01*
X64620732Y-55105257D01*
X64557206Y-55060822D01*
X64487244Y-55011800D01*
X64410550Y-54957985D01*
X64326827Y-54899167D01*
X64235778Y-54835142D01*
X64137107Y-54765702D01*
X64030516Y-54690639D01*
X63915709Y-54609747D01*
X63792390Y-54522818D01*
X63660262Y-54429646D01*
X63519027Y-54330024D01*
X63368389Y-54223745D01*
X63208052Y-54110601D01*
X63087425Y-54025468D01*
X61303367Y-52766305D01*
X61436622Y-52766305D01*
X61439748Y-52769431D01*
X61442874Y-52766305D01*
X61439748Y-52763179D01*
X61436622Y-52766305D01*
X61303367Y-52766305D01*
X61190480Y-52686631D01*
X61140071Y-52679581D01*
X61089662Y-52672532D01*
X61057229Y-52622520D01*
X61042224Y-52599906D01*
X61028967Y-52580866D01*
X61019421Y-52568179D01*
X61016594Y-52565031D01*
X61010001Y-52560063D01*
X60994175Y-52548628D01*
X60970119Y-52531438D01*
X60938838Y-52509203D01*
X60901333Y-52482635D01*
X60858609Y-52452447D01*
X60811669Y-52419350D01*
X60761517Y-52384055D01*
X60748953Y-52375223D01*
X60697889Y-52339262D01*
X60649584Y-52305103D01*
X60605075Y-52273490D01*
X60565399Y-52245165D01*
X60531594Y-52220871D01*
X60504698Y-52201353D01*
X60485747Y-52187354D01*
X60475779Y-52179617D01*
X60474904Y-52178838D01*
X60473722Y-52177550D01*
X60472548Y-52175766D01*
X60471346Y-52173141D01*
X60470080Y-52169336D01*
X60468715Y-52164009D01*
X60467215Y-52156817D01*
X60465544Y-52147421D01*
X60463666Y-52135477D01*
X60461546Y-52120646D01*
X60459148Y-52102584D01*
X60456436Y-52080951D01*
X60453375Y-52055405D01*
X60449929Y-52025605D01*
X60446061Y-51991209D01*
X60441737Y-51951876D01*
X60436920Y-51907264D01*
X60431576Y-51857031D01*
X60425667Y-51800837D01*
X60419159Y-51738339D01*
X60412015Y-51669196D01*
X60404201Y-51593067D01*
X60395679Y-51509610D01*
X60386415Y-51418484D01*
X60376373Y-51319347D01*
X60365517Y-51211857D01*
X60353811Y-51095674D01*
X60341219Y-50970455D01*
X60327707Y-50835859D01*
X60313237Y-50691545D01*
X60297775Y-50537171D01*
X60281284Y-50372396D01*
X60263729Y-50196878D01*
X60245075Y-50010275D01*
X60225285Y-49812246D01*
X60204323Y-49602450D01*
X60182766Y-49386662D01*
X60164235Y-49201093D01*
X60146021Y-49018539D01*
X60128162Y-48839403D01*
X60110698Y-48664084D01*
X60093669Y-48492983D01*
X60077114Y-48326501D01*
X60061072Y-48165039D01*
X60045584Y-48008997D01*
X60030689Y-47858776D01*
X60016426Y-47714776D01*
X60002835Y-47577399D01*
X59989955Y-47447045D01*
X59977827Y-47324115D01*
X59966488Y-47209010D01*
X59955980Y-47102130D01*
X59946342Y-47003875D01*
X59937613Y-46914648D01*
X59929833Y-46834847D01*
X59923041Y-46764875D01*
X59917276Y-46705132D01*
X59912580Y-46656018D01*
X59910874Y-46637922D01*
X59995434Y-46637922D01*
X59995912Y-46644205D01*
X59997575Y-46662533D01*
X60000385Y-46692508D01*
X60004302Y-46733733D01*
X60009289Y-46785809D01*
X60015305Y-46848339D01*
X60022313Y-46920925D01*
X60030273Y-47003169D01*
X60039148Y-47094673D01*
X60048897Y-47195040D01*
X60059483Y-47303871D01*
X60070866Y-47420768D01*
X60083008Y-47545334D01*
X60095870Y-47677171D01*
X60109413Y-47815881D01*
X60123599Y-47961067D01*
X60138389Y-48112329D01*
X60153743Y-48269271D01*
X60169624Y-48431495D01*
X60185992Y-48598602D01*
X60202808Y-48770195D01*
X60220035Y-48945876D01*
X60237632Y-49125247D01*
X60255562Y-49307911D01*
X60261828Y-49371724D01*
X60279876Y-49555536D01*
X60297614Y-49736237D01*
X60315002Y-49913428D01*
X60332002Y-50086707D01*
X60348574Y-50255676D01*
X60364679Y-50419935D01*
X60380278Y-50579083D01*
X60395333Y-50732721D01*
X60409803Y-50880448D01*
X60423650Y-51021865D01*
X60436834Y-51156572D01*
X60449317Y-51284169D01*
X60461060Y-51404255D01*
X60472023Y-51516432D01*
X60482167Y-51620299D01*
X60491453Y-51715455D01*
X60499842Y-51801503D01*
X60507295Y-51878040D01*
X60513772Y-51944668D01*
X60519235Y-52000986D01*
X60523645Y-52046595D01*
X60526962Y-52081094D01*
X60529148Y-52104085D01*
X60530163Y-52115166D01*
X60530234Y-52116145D01*
X60533370Y-52122217D01*
X60543162Y-52132162D01*
X60560318Y-52146536D01*
X60585544Y-52165893D01*
X60619550Y-52190789D01*
X60663043Y-52221778D01*
X60681717Y-52234924D01*
X60722575Y-52263618D01*
X60762316Y-52291536D01*
X60799158Y-52317424D01*
X60831319Y-52340032D01*
X60857018Y-52358108D01*
X60874474Y-52370398D01*
X60875900Y-52371403D01*
X60895041Y-52384166D01*
X60907941Y-52391253D01*
X60913051Y-52391876D01*
X60912579Y-52390158D01*
X60907387Y-52381315D01*
X60896757Y-52363809D01*
X60881881Y-52339579D01*
X60863947Y-52310565D01*
X60846446Y-52282399D01*
X60827222Y-52251053D01*
X60810552Y-52222953D01*
X60797498Y-52199967D01*
X60789122Y-52183960D01*
X60786462Y-52177025D01*
X60788044Y-52166502D01*
X60792157Y-52148229D01*
X60797002Y-52129550D01*
X60802491Y-52103037D01*
X60805783Y-52070324D01*
X60807096Y-52028815D01*
X60807121Y-52009869D01*
X60806522Y-51998010D01*
X60804822Y-51974311D01*
X60802076Y-51939380D01*
X60798340Y-51893824D01*
X60793668Y-51838254D01*
X60788117Y-51773278D01*
X60781741Y-51699504D01*
X60774595Y-51617541D01*
X60766736Y-51527997D01*
X60758219Y-51431481D01*
X60749098Y-51328603D01*
X60739430Y-51219969D01*
X60729269Y-51106190D01*
X60718671Y-50987873D01*
X60707692Y-50865628D01*
X60696386Y-50740063D01*
X60684809Y-50611786D01*
X60673016Y-50481406D01*
X60661063Y-50349532D01*
X60649005Y-50216772D01*
X60636897Y-50083736D01*
X60624796Y-49951031D01*
X60612755Y-49819266D01*
X60600830Y-49689050D01*
X60589078Y-49560992D01*
X60577552Y-49435700D01*
X60566309Y-49313783D01*
X60555404Y-49195849D01*
X60544892Y-49082507D01*
X60534828Y-48974366D01*
X60525269Y-48872034D01*
X60516268Y-48776120D01*
X60507883Y-48687233D01*
X60500167Y-48605981D01*
X60493176Y-48532972D01*
X60486966Y-48468816D01*
X60481592Y-48414121D01*
X60477109Y-48369496D01*
X60473573Y-48335548D01*
X60471038Y-48312888D01*
X60470555Y-48308958D01*
X60463588Y-48256790D01*
X60455194Y-48198500D01*
X60445750Y-48136361D01*
X60435634Y-48072649D01*
X60425222Y-48009640D01*
X60414892Y-47949610D01*
X60405020Y-47894832D01*
X60400287Y-47870087D01*
X60488694Y-47870087D01*
X60488728Y-47876955D01*
X60490621Y-47894554D01*
X60494149Y-47921286D01*
X60499089Y-47955556D01*
X60505219Y-47995764D01*
X60512314Y-48040314D01*
X60513497Y-48047571D01*
X60521570Y-48097693D01*
X60529503Y-48148290D01*
X60536899Y-48196724D01*
X60543359Y-48240356D01*
X60548486Y-48276549D01*
X60551508Y-48299581D01*
X60553710Y-48319236D01*
X60556907Y-48350326D01*
X60561045Y-48392244D01*
X60566071Y-48444382D01*
X60571930Y-48506133D01*
X60578568Y-48576889D01*
X60585931Y-48656044D01*
X60593965Y-48742990D01*
X60602615Y-48837120D01*
X60611829Y-48937825D01*
X60621551Y-49044499D01*
X60631728Y-49156534D01*
X60642305Y-49273324D01*
X60653228Y-49394260D01*
X60664444Y-49518735D01*
X60675898Y-49646142D01*
X60687535Y-49775874D01*
X60699303Y-49907322D01*
X60711147Y-50039881D01*
X60723013Y-50172941D01*
X60734846Y-50305897D01*
X60746593Y-50438140D01*
X60758199Y-50569063D01*
X60769611Y-50698059D01*
X60780774Y-50824521D01*
X60791635Y-50947840D01*
X60802138Y-51067411D01*
X60812231Y-51182624D01*
X60821858Y-51292874D01*
X60830967Y-51397552D01*
X60839502Y-51496051D01*
X60847410Y-51587764D01*
X60854636Y-51672084D01*
X60861127Y-51748402D01*
X60866829Y-51816112D01*
X60871686Y-51874607D01*
X60875646Y-51923278D01*
X60878654Y-51961519D01*
X60880656Y-51988722D01*
X60881598Y-52004280D01*
X60881667Y-52006743D01*
X60881151Y-52041939D01*
X60879471Y-52077452D01*
X60876902Y-52108777D01*
X60874241Y-52128648D01*
X60866449Y-52172409D01*
X60992836Y-52375584D01*
X61021390Y-52421380D01*
X61048149Y-52464093D01*
X61072334Y-52502497D01*
X61093166Y-52535361D01*
X61109865Y-52561457D01*
X61121653Y-52579557D01*
X61127749Y-52588432D01*
X61128112Y-52588878D01*
X61139149Y-52595225D01*
X61159597Y-52601536D01*
X61185224Y-52606673D01*
X61203764Y-52610701D01*
X61232072Y-52618246D01*
X61268114Y-52628699D01*
X61309857Y-52641451D01*
X61355265Y-52655894D01*
X61402304Y-52671419D01*
X61408491Y-52673505D01*
X61608945Y-52738009D01*
X61801992Y-52793453D01*
X61988616Y-52840047D01*
X62169801Y-52878001D01*
X62346529Y-52907524D01*
X62519784Y-52928826D01*
X62658798Y-52940233D01*
X62690055Y-52941629D01*
X62731078Y-52942589D01*
X62779138Y-52943127D01*
X62831507Y-52943258D01*
X62885455Y-52942995D01*
X62938255Y-52942353D01*
X62987176Y-52941347D01*
X63029490Y-52939990D01*
X63062469Y-52938297D01*
X63065148Y-52938109D01*
X63197795Y-52924703D01*
X63330953Y-52903850D01*
X63462474Y-52876106D01*
X63590213Y-52842025D01*
X63712022Y-52802164D01*
X63825755Y-52757076D01*
X63900510Y-52722153D01*
X63927605Y-52707949D01*
X63958904Y-52690524D01*
X63992702Y-52670940D01*
X64027290Y-52650259D01*
X64060965Y-52629545D01*
X64092018Y-52609859D01*
X64118744Y-52592263D01*
X64139437Y-52577821D01*
X64152390Y-52567594D01*
X64156042Y-52563044D01*
X64153617Y-52555573D01*
X64146750Y-52538216D01*
X64136055Y-52512374D01*
X64122142Y-52479443D01*
X64105626Y-52440821D01*
X64087119Y-52397908D01*
X64067233Y-52352101D01*
X64046580Y-52304798D01*
X64025774Y-52257398D01*
X64005426Y-52211298D01*
X63986149Y-52167896D01*
X63968557Y-52128591D01*
X63953260Y-52094780D01*
X63940873Y-52067863D01*
X63932007Y-52049236D01*
X63927275Y-52040299D01*
X63926763Y-52039719D01*
X63919683Y-52042450D01*
X63904679Y-52051384D01*
X63883811Y-52065199D01*
X63859141Y-52082576D01*
X63853835Y-52086433D01*
X63776372Y-52138417D01*
X63688823Y-52188943D01*
X63593597Y-52236905D01*
X63493105Y-52281195D01*
X63389758Y-52320705D01*
X63285968Y-52354328D01*
X63246443Y-52365457D01*
X63133795Y-52393125D01*
X63021667Y-52415081D01*
X62907595Y-52431623D01*
X62789118Y-52443046D01*
X62663773Y-52449649D01*
X62530642Y-52451727D01*
X62332074Y-52446430D01*
X62137918Y-52430456D01*
X61946137Y-52403513D01*
X61754698Y-52365310D01*
X61561563Y-52315554D01*
X61543066Y-52310220D01*
X61499452Y-52297155D01*
X61453490Y-52282730D01*
X61406848Y-52267531D01*
X61361196Y-52252146D01*
X61318203Y-52237164D01*
X61279540Y-52223171D01*
X61246875Y-52210756D01*
X61221879Y-52200506D01*
X61206220Y-52193009D01*
X61202130Y-52190211D01*
X61195914Y-52178842D01*
X61190920Y-52160996D01*
X61190247Y-52156921D01*
X61327308Y-52156921D01*
X61335826Y-52162684D01*
X61355032Y-52170987D01*
X61383468Y-52181403D01*
X61419674Y-52193504D01*
X61462193Y-52206863D01*
X61509567Y-52221052D01*
X61560337Y-52235645D01*
X61613045Y-52250213D01*
X61666233Y-52264329D01*
X61718442Y-52277566D01*
X61768214Y-52289496D01*
X61814092Y-52299692D01*
X61815187Y-52299923D01*
X61981437Y-52330699D01*
X62149768Y-52353573D01*
X62317855Y-52368385D01*
X62483375Y-52374971D01*
X62644004Y-52373170D01*
X62762923Y-52365963D01*
X62921438Y-52347905D01*
X63076659Y-52320775D01*
X63226699Y-52284994D01*
X63369668Y-52240984D01*
X63440240Y-52215122D01*
X63484260Y-52197736D01*
X63518474Y-52183584D01*
X63542573Y-52172832D01*
X63556247Y-52165651D01*
X63559187Y-52162209D01*
X63551083Y-52162675D01*
X63531625Y-52167217D01*
X63524636Y-52169096D01*
X63501830Y-52174425D01*
X63468895Y-52180873D01*
X63428118Y-52188089D01*
X63381785Y-52195722D01*
X63332185Y-52203422D01*
X63281603Y-52210835D01*
X63232327Y-52217612D01*
X63186645Y-52223402D01*
X63146843Y-52227851D01*
X63133915Y-52229102D01*
X63071692Y-52233624D01*
X63000367Y-52236836D01*
X62923276Y-52238718D01*
X62843755Y-52239247D01*
X62765137Y-52238404D01*
X62690759Y-52236167D01*
X62623956Y-52232515D01*
X62621289Y-52232325D01*
X62448942Y-52215321D01*
X62272380Y-52189155D01*
X62095043Y-52154531D01*
X61920368Y-52112155D01*
X61751797Y-52062729D01*
X61685936Y-52040829D01*
X61582038Y-52005012D01*
X61453149Y-52078501D01*
X61417162Y-52099288D01*
X61385301Y-52118207D01*
X61359022Y-52134351D01*
X61339782Y-52146811D01*
X61329037Y-52154681D01*
X61327308Y-52156921D01*
X61190247Y-52156921D01*
X61189953Y-52155142D01*
X61188825Y-52144415D01*
X61186725Y-52121836D01*
X61183704Y-52088014D01*
X61179813Y-52043560D01*
X61175102Y-51989083D01*
X61169622Y-51925192D01*
X61163423Y-51852496D01*
X61156556Y-51771606D01*
X61149072Y-51683131D01*
X61141021Y-51587679D01*
X61132453Y-51485862D01*
X61123420Y-51378287D01*
X61113971Y-51265566D01*
X61104158Y-51148306D01*
X61094031Y-51027118D01*
X61083640Y-50902612D01*
X61073037Y-50775396D01*
X61062271Y-50646080D01*
X61051394Y-50515273D01*
X61040455Y-50383586D01*
X61029506Y-50251628D01*
X61018597Y-50120007D01*
X61007779Y-49989334D01*
X60997102Y-49860218D01*
X60986617Y-49733269D01*
X60976374Y-49609096D01*
X60966424Y-49488309D01*
X60956818Y-49371516D01*
X60947606Y-49259328D01*
X60938839Y-49152354D01*
X60930567Y-49051204D01*
X60922841Y-48956486D01*
X60915711Y-48868812D01*
X60909229Y-48788789D01*
X60903444Y-48717027D01*
X60898407Y-48654137D01*
X60894169Y-48600727D01*
X60890781Y-48557407D01*
X60888292Y-48524787D01*
X60886754Y-48503476D01*
X60886316Y-48496504D01*
X60884121Y-48448976D01*
X60882162Y-48393647D01*
X60880567Y-48335220D01*
X60879466Y-48278398D01*
X60879453Y-48277074D01*
X60961545Y-48277074D01*
X60962022Y-48327580D01*
X60963020Y-48379682D01*
X60964544Y-48431825D01*
X60966598Y-48482451D01*
X60967952Y-48509007D01*
X60968923Y-48523621D01*
X60970852Y-48549832D01*
X60973691Y-48587028D01*
X60977387Y-48634593D01*
X60981892Y-48691914D01*
X60987155Y-48758378D01*
X60993126Y-48833369D01*
X60999754Y-48916273D01*
X61006990Y-49006478D01*
X61014784Y-49103367D01*
X61023084Y-49206329D01*
X61031842Y-49314748D01*
X61041007Y-49428010D01*
X61050529Y-49545501D01*
X61060357Y-49666608D01*
X61070442Y-49790716D01*
X61080733Y-49917211D01*
X61091181Y-50045479D01*
X61101734Y-50174906D01*
X61112344Y-50304878D01*
X61122959Y-50434781D01*
X61133529Y-50564001D01*
X61144005Y-50691923D01*
X61154337Y-50817934D01*
X61164473Y-50941419D01*
X61174364Y-51061766D01*
X61183960Y-51178358D01*
X61193211Y-51290583D01*
X61202066Y-51397826D01*
X61210475Y-51499474D01*
X61218389Y-51594911D01*
X61225757Y-51683525D01*
X61232528Y-51764701D01*
X61238653Y-51837825D01*
X61244082Y-51902282D01*
X61248764Y-51957460D01*
X61252649Y-52002743D01*
X61255687Y-52037518D01*
X61257829Y-52061171D01*
X61259022Y-52073087D01*
X61259134Y-52073947D01*
X61262312Y-52090009D01*
X61265764Y-52099165D01*
X61266978Y-52100013D01*
X61273273Y-52096861D01*
X61288841Y-52088273D01*
X61312156Y-52075114D01*
X61341693Y-52058249D01*
X61375925Y-52038544D01*
X61402239Y-52023307D01*
X61443483Y-51999271D01*
X61475137Y-51980497D01*
X61498483Y-51966072D01*
X61514801Y-51955083D01*
X61525374Y-51946617D01*
X61531482Y-51939761D01*
X61534407Y-51933601D01*
X61535326Y-51928474D01*
X61535010Y-51920737D01*
X61533781Y-51901041D01*
X61531677Y-51869893D01*
X61528734Y-51827801D01*
X61524990Y-51775271D01*
X61520483Y-51712812D01*
X61515250Y-51640930D01*
X61509330Y-51560134D01*
X61502759Y-51470930D01*
X61495575Y-51373826D01*
X61487815Y-51269330D01*
X61479518Y-51157948D01*
X61470721Y-51040189D01*
X61461461Y-50916560D01*
X61451776Y-50787568D01*
X61441704Y-50653721D01*
X61431281Y-50515525D01*
X61420547Y-50373490D01*
X61409537Y-50228121D01*
X61405512Y-50175042D01*
X61391334Y-49987999D01*
X61378095Y-49812961D01*
X61365766Y-49649469D01*
X61354313Y-49497062D01*
X61343708Y-49355282D01*
X61333917Y-49223667D01*
X61324912Y-49101759D01*
X61316661Y-48989096D01*
X61309132Y-48885221D01*
X61302295Y-48789672D01*
X61296119Y-48701989D01*
X61290572Y-48621714D01*
X61285625Y-48548385D01*
X61281246Y-48481544D01*
X61277404Y-48420730D01*
X61274068Y-48365483D01*
X61271207Y-48315344D01*
X61268790Y-48269852D01*
X61266787Y-48228548D01*
X61265166Y-48190973D01*
X61263896Y-48156665D01*
X61262947Y-48125165D01*
X61262287Y-48096014D01*
X61261885Y-48068751D01*
X61261711Y-48042917D01*
X61261702Y-48038579D01*
X61261445Y-48008036D01*
X61260826Y-47982571D01*
X61259933Y-47964483D01*
X61258852Y-47956071D01*
X61258586Y-47955746D01*
X61251925Y-47958349D01*
X61235895Y-47965562D01*
X61212357Y-47976491D01*
X61183170Y-47990244D01*
X61150191Y-48005927D01*
X61115282Y-48022646D01*
X61080299Y-48039509D01*
X61047103Y-48055623D01*
X61017553Y-48070093D01*
X60993507Y-48082026D01*
X60976825Y-48090530D01*
X60969365Y-48094710D01*
X60969320Y-48094746D01*
X60966783Y-48102980D01*
X60964736Y-48122152D01*
X60963183Y-48150704D01*
X60962130Y-48187079D01*
X60961582Y-48229722D01*
X60961545Y-48277074D01*
X60879453Y-48277074D01*
X60879006Y-48232289D01*
X60878440Y-48093104D01*
X60805882Y-48050324D01*
X60735929Y-48009137D01*
X60676092Y-47974039D01*
X60625765Y-47944686D01*
X60584342Y-47920735D01*
X60551219Y-47901840D01*
X60525790Y-47887657D01*
X60507449Y-47877844D01*
X60495591Y-47872055D01*
X60489611Y-47869946D01*
X60488694Y-47870087D01*
X60400287Y-47870087D01*
X60395983Y-47847583D01*
X60388159Y-47810137D01*
X60387190Y-47805844D01*
X60384432Y-47793101D01*
X60383385Y-47783982D01*
X60520772Y-47783982D01*
X60525985Y-47788696D01*
X60540645Y-47798656D01*
X60563286Y-47813008D01*
X60592440Y-47830898D01*
X60626639Y-47851474D01*
X60664416Y-47873883D01*
X60704304Y-47897271D01*
X60744835Y-47920785D01*
X60784543Y-47943572D01*
X60821959Y-47964778D01*
X60855617Y-47983551D01*
X60884048Y-47999037D01*
X60905787Y-48010383D01*
X60919364Y-48016736D01*
X60922887Y-48017795D01*
X60932510Y-48015320D01*
X60951586Y-48008124D01*
X60978332Y-47996966D01*
X61010962Y-47982602D01*
X61047691Y-47965792D01*
X61069798Y-47955397D01*
X61107512Y-47937379D01*
X61141487Y-47920937D01*
X61170074Y-47906887D01*
X61191627Y-47896042D01*
X61204497Y-47889218D01*
X61207360Y-47887398D01*
X61206327Y-47880922D01*
X61197081Y-47871665D01*
X61194857Y-47870057D01*
X61181661Y-47861608D01*
X61160148Y-47848616D01*
X61131832Y-47831939D01*
X61098228Y-47812431D01*
X61060853Y-47790950D01*
X61021222Y-47768352D01*
X60980850Y-47745493D01*
X60941252Y-47723229D01*
X60903944Y-47702415D01*
X60870441Y-47683910D01*
X60842259Y-47668567D01*
X60820913Y-47657245D01*
X60807918Y-47650798D01*
X60804706Y-47649626D01*
X60796157Y-47652249D01*
X60778649Y-47659372D01*
X60754046Y-47670112D01*
X60724212Y-47683589D01*
X60691009Y-47698919D01*
X60656301Y-47715222D01*
X60621952Y-47731616D01*
X60589825Y-47747219D01*
X60561783Y-47761149D01*
X60539690Y-47772524D01*
X60525409Y-47780463D01*
X60520772Y-47783982D01*
X60383385Y-47783982D01*
X60383187Y-47782259D01*
X60384456Y-47772582D01*
X60389239Y-47763331D01*
X60398536Y-47753770D01*
X60413348Y-47743162D01*
X60434675Y-47730771D01*
X60463518Y-47715859D01*
X60500877Y-47697689D01*
X60547751Y-47675524D01*
X60592665Y-47654473D01*
X60639486Y-47632776D01*
X60683358Y-47612885D01*
X60722845Y-47595420D01*
X60756507Y-47580998D01*
X60782907Y-47570238D01*
X60800608Y-47563758D01*
X60807518Y-47562072D01*
X60816667Y-47565089D01*
X60835224Y-47573707D01*
X60861838Y-47587165D01*
X60895156Y-47604698D01*
X60933823Y-47625543D01*
X60976489Y-47648936D01*
X61021800Y-47674115D01*
X61068404Y-47700316D01*
X61114947Y-47726776D01*
X61160078Y-47752731D01*
X61202443Y-47777419D01*
X61240689Y-47800075D01*
X61273465Y-47819937D01*
X61299417Y-47836242D01*
X61317192Y-47848225D01*
X61323758Y-47853370D01*
X61345303Y-47872899D01*
X61346836Y-48106558D01*
X61347716Y-48191891D01*
X61349261Y-48268510D01*
X61351619Y-48340193D01*
X61354935Y-48410719D01*
X61359359Y-48483864D01*
X61364237Y-48552768D01*
X61366130Y-48578198D01*
X61368896Y-48615473D01*
X61372490Y-48663968D01*
X61376865Y-48723058D01*
X61381975Y-48792119D01*
X61387774Y-48870526D01*
X61394216Y-48957654D01*
X61401254Y-49052880D01*
X61408844Y-49155577D01*
X61416937Y-49265123D01*
X61425488Y-49380892D01*
X61434452Y-49502259D01*
X61443782Y-49628600D01*
X61453431Y-49759290D01*
X61463354Y-49893705D01*
X61473504Y-50031220D01*
X61483835Y-50171211D01*
X61494302Y-50313052D01*
X61496112Y-50337582D01*
X61506398Y-50476891D01*
X61516462Y-50612997D01*
X61526263Y-50745368D01*
X61535762Y-50873475D01*
X61544920Y-50996784D01*
X61553696Y-51114764D01*
X61562050Y-51226884D01*
X61569943Y-51332612D01*
X61577335Y-51431417D01*
X61584186Y-51522767D01*
X61590456Y-51606130D01*
X61596105Y-51680976D01*
X61601094Y-51746772D01*
X61605382Y-51802986D01*
X61608931Y-51849089D01*
X61611699Y-51884546D01*
X61613647Y-51908829D01*
X61614736Y-51921404D01*
X61614930Y-51923084D01*
X61617865Y-51928685D01*
X61625294Y-51934552D01*
X61638791Y-51941406D01*
X61659931Y-51949968D01*
X61690286Y-51960962D01*
X61719416Y-51971022D01*
X61899493Y-52027126D01*
X62081790Y-52073478D01*
X62265317Y-52110027D01*
X62449089Y-52136723D01*
X62632116Y-52153516D01*
X62813411Y-52160356D01*
X62838817Y-52159906D01*
X63562145Y-52159906D01*
X63565271Y-52163031D01*
X63568397Y-52159906D01*
X63565271Y-52156780D01*
X63562145Y-52159906D01*
X62838817Y-52159906D01*
X62991986Y-52157193D01*
X63166853Y-52143977D01*
X63337024Y-52120658D01*
X63501512Y-52087186D01*
X63585073Y-52065583D01*
X63640499Y-52049340D01*
X63695107Y-52031836D01*
X63747104Y-52013756D01*
X63794699Y-51995787D01*
X63830900Y-51980770D01*
X64004563Y-51980770D01*
X64006239Y-51986974D01*
X64012308Y-52003246D01*
X64022177Y-52028188D01*
X64035254Y-52060404D01*
X64050948Y-52098494D01*
X64068664Y-52141061D01*
X64087812Y-52186707D01*
X64107799Y-52234034D01*
X64128033Y-52281645D01*
X64147920Y-52328141D01*
X64166870Y-52372125D01*
X64184289Y-52412199D01*
X64199586Y-52446964D01*
X64212168Y-52475024D01*
X64221442Y-52494979D01*
X64226817Y-52505433D01*
X64227004Y-52505729D01*
X64236561Y-52511036D01*
X64241894Y-52510298D01*
X64249627Y-52506093D01*
X64266420Y-52496166D01*
X64290746Y-52481447D01*
X64321076Y-52462865D01*
X64355884Y-52441350D01*
X64388233Y-52421213D01*
X64431416Y-52394054D01*
X64464849Y-52372534D01*
X64489544Y-52355926D01*
X64506508Y-52343499D01*
X64516754Y-52334523D01*
X64521290Y-52328271D01*
X64521553Y-52324931D01*
X64517166Y-52313223D01*
X64508603Y-52292226D01*
X64496478Y-52263341D01*
X64481408Y-52227973D01*
X64464006Y-52187522D01*
X64444889Y-52143393D01*
X64424673Y-52096987D01*
X64403971Y-52049706D01*
X64383400Y-52002955D01*
X64363575Y-51958134D01*
X64345112Y-51916646D01*
X64328625Y-51879895D01*
X64314729Y-51849282D01*
X64304041Y-51826210D01*
X64297176Y-51812082D01*
X64294836Y-51808156D01*
X64288529Y-51810831D01*
X64273275Y-51819018D01*
X64250787Y-51831696D01*
X64222780Y-51847848D01*
X64190969Y-51866453D01*
X64157067Y-51886492D01*
X64122789Y-51906945D01*
X64089849Y-51926794D01*
X64059962Y-51945019D01*
X64034841Y-51960599D01*
X64016200Y-51972517D01*
X64005755Y-51979752D01*
X64004563Y-51980770D01*
X63830900Y-51980770D01*
X63836097Y-51978614D01*
X63869507Y-51962923D01*
X63893136Y-51949401D01*
X63898133Y-51945805D01*
X63908554Y-51938619D01*
X63928105Y-51926004D01*
X63955217Y-51908916D01*
X63988322Y-51888309D01*
X64025849Y-51865141D01*
X64066231Y-51840367D01*
X64107898Y-51814943D01*
X64149282Y-51789825D01*
X64188814Y-51765968D01*
X64224925Y-51744328D01*
X64256045Y-51725861D01*
X64280607Y-51711523D01*
X64297041Y-51702270D01*
X64302274Y-51699590D01*
X64318118Y-51696151D01*
X64334476Y-51701300D01*
X64338875Y-51704368D01*
X64343894Y-51710033D01*
X64349970Y-51719216D01*
X64357539Y-51732839D01*
X64367036Y-51751823D01*
X64378899Y-51777090D01*
X64393564Y-51809561D01*
X64411465Y-51850158D01*
X64433041Y-51899804D01*
X64458726Y-51959418D01*
X64479029Y-52006743D01*
X64503975Y-52065017D01*
X64527700Y-52120543D01*
X64549693Y-52172117D01*
X64569443Y-52218538D01*
X64586438Y-52258603D01*
X64600170Y-52291110D01*
X64610127Y-52314858D01*
X64615799Y-52328643D01*
X64616529Y-52330499D01*
X64626788Y-52357307D01*
X64608656Y-52376688D01*
X64595703Y-52388031D01*
X64573193Y-52404944D01*
X64542346Y-52426660D01*
X64504384Y-52452412D01*
X64460527Y-52481433D01*
X64411996Y-52512955D01*
X64360012Y-52546211D01*
X64305794Y-52580434D01*
X64250565Y-52614857D01*
X64195545Y-52648713D01*
X64141955Y-52681233D01*
X64091015Y-52711652D01*
X64043946Y-52739202D01*
X64001969Y-52763116D01*
X63966305Y-52782626D01*
X63946184Y-52793034D01*
X63807340Y-52855681D01*
X63661033Y-52908553D01*
X63507649Y-52951611D01*
X63347574Y-52984814D01*
X63181193Y-53008120D01*
X63008892Y-53021490D01*
X62831057Y-53024880D01*
X62648074Y-53018252D01*
X62460329Y-53001564D01*
X62268207Y-52974774D01*
X62254705Y-52972537D01*
X62152511Y-52954027D01*
X62044546Y-52931913D01*
X61933816Y-52906932D01*
X61823324Y-52879824D01*
X61716073Y-52851327D01*
X61615067Y-52822182D01*
X61523309Y-52793126D01*
X61517035Y-52791022D01*
X61490892Y-52782474D01*
X61469500Y-52775963D01*
X61455376Y-52772224D01*
X61450996Y-52771728D01*
X61455880Y-52775448D01*
X61470626Y-52786094D01*
X61494864Y-52803408D01*
X61528224Y-52827127D01*
X61570336Y-52856992D01*
X61620832Y-52892743D01*
X61679343Y-52934118D01*
X61745498Y-52980857D01*
X61818928Y-53032700D01*
X61899264Y-53089386D01*
X61986137Y-53150655D01*
X62079176Y-53216246D01*
X62178014Y-53285899D01*
X62282279Y-53359353D01*
X62391604Y-53436347D01*
X62505617Y-53516622D01*
X62623951Y-53599916D01*
X62746236Y-53685969D01*
X62872101Y-53774521D01*
X63001178Y-53865311D01*
X63133098Y-53958079D01*
X63200953Y-54005787D01*
X64953113Y-55237642D01*
X64953884Y-54342738D01*
X65660661Y-54342738D01*
X65769501Y-54415850D01*
X65878340Y-54488963D01*
X65882740Y-54390322D01*
X65883474Y-54370299D01*
X65884416Y-54338766D01*
X65885544Y-54296716D01*
X65886836Y-54245140D01*
X65888269Y-54185030D01*
X65889821Y-54117376D01*
X65891469Y-54043172D01*
X65893191Y-53963407D01*
X65894963Y-53879075D01*
X65896765Y-53791166D01*
X65898573Y-53700673D01*
X65899790Y-53638395D01*
X65901593Y-53546031D01*
X65903396Y-53455110D01*
X65905176Y-53366674D01*
X65906912Y-53281763D01*
X65908581Y-53201418D01*
X65910161Y-53126680D01*
X65911631Y-53058590D01*
X65912967Y-52998188D01*
X65914149Y-52946517D01*
X65915152Y-52904615D01*
X65915957Y-52873525D01*
X65916347Y-52860078D01*
X65917313Y-52822446D01*
X65917744Y-52789795D01*
X65917652Y-52763905D01*
X65917048Y-52746559D01*
X65915941Y-52739535D01*
X65915633Y-52739551D01*
X65911841Y-52746416D01*
X65903926Y-52762978D01*
X65892705Y-52787449D01*
X65878996Y-52818040D01*
X65863616Y-52852962D01*
X65859912Y-52861456D01*
X65824631Y-52941745D01*
X65793123Y-53011839D01*
X65765497Y-53071516D01*
X65741862Y-53120555D01*
X65722326Y-53158733D01*
X65706999Y-53185829D01*
X65695988Y-53201619D01*
X65691304Y-53205669D01*
X65677191Y-53212099D01*
X65673074Y-53433061D01*
X65672161Y-53484582D01*
X65671145Y-53546273D01*
X65670060Y-53615803D01*
X65668940Y-53690841D01*
X65667820Y-53769055D01*
X65666733Y-53848113D01*
X65665714Y-53925683D01*
X65664810Y-53998381D01*
X65660661Y-54342738D01*
X64953884Y-54342738D01*
X64955063Y-52973595D01*
X64955200Y-52798643D01*
X64955227Y-52754944D01*
X65320722Y-52754944D01*
X65322560Y-52763103D01*
X65328807Y-52776634D01*
X65332005Y-52782891D01*
X65340224Y-52800190D01*
X65351273Y-52825343D01*
X65363504Y-52854528D01*
X65371954Y-52875484D01*
X65397853Y-52940901D01*
X65488060Y-52998868D01*
X65523114Y-53021276D01*
X65549041Y-53037505D01*
X65567140Y-53048271D01*
X65578712Y-53054292D01*
X65585059Y-53056285D01*
X65587482Y-53054966D01*
X65587644Y-53053762D01*
X65584810Y-53045853D01*
X65577138Y-53029395D01*
X65565869Y-53006761D01*
X65552244Y-52980327D01*
X65537506Y-52952469D01*
X65522896Y-52925560D01*
X65509656Y-52901976D01*
X65499029Y-52884091D01*
X65498418Y-52883120D01*
X65485172Y-52863615D01*
X65471591Y-52847795D01*
X65454765Y-52832971D01*
X65431783Y-52816452D01*
X65412636Y-52803837D01*
X65407405Y-52800478D01*
X65550135Y-52800478D01*
X65553297Y-52808578D01*
X65561574Y-52823757D01*
X65572823Y-52842165D01*
X65584008Y-52861065D01*
X65598772Y-52888020D01*
X65615380Y-52919767D01*
X65632097Y-52953041D01*
X65636017Y-52961066D01*
X65650567Y-52990327D01*
X65663542Y-53015104D01*
X65673859Y-53033426D01*
X65680432Y-53043320D01*
X65681906Y-53044498D01*
X65686463Y-53038913D01*
X65695221Y-53022958D01*
X65707647Y-52997838D01*
X65723212Y-52964757D01*
X65741382Y-52924919D01*
X65761626Y-52879527D01*
X65783413Y-52829786D01*
X65806211Y-52776899D01*
X65829488Y-52722070D01*
X65852712Y-52666504D01*
X65875353Y-52611403D01*
X65896877Y-52557973D01*
X65897928Y-52555334D01*
X65934604Y-52463142D01*
X65960408Y-52463124D01*
X65978202Y-52464886D01*
X65990781Y-52469299D01*
X65992686Y-52470920D01*
X65996026Y-52480562D01*
X65999059Y-52499098D01*
X66001232Y-52522922D01*
X66001552Y-52528746D01*
X66001691Y-52540726D01*
X66001559Y-52564471D01*
X66001169Y-52599245D01*
X66000535Y-52644312D01*
X65999670Y-52698938D01*
X65998588Y-52762388D01*
X65997302Y-52833925D01*
X65995826Y-52912815D01*
X65994173Y-52998322D01*
X65992357Y-53089711D01*
X65990391Y-53186247D01*
X65988290Y-53287194D01*
X65986065Y-53391817D01*
X65983732Y-53499381D01*
X65983494Y-53510238D01*
X65980652Y-53639602D01*
X65978071Y-53757039D01*
X65975739Y-53863121D01*
X65973647Y-53958421D01*
X65971785Y-54043513D01*
X65970141Y-54118969D01*
X65968705Y-54185362D01*
X65967468Y-54243264D01*
X65966418Y-54293249D01*
X65965546Y-54335889D01*
X65964841Y-54371758D01*
X65964293Y-54401427D01*
X65963891Y-54425471D01*
X65963626Y-54444461D01*
X65963486Y-54458970D01*
X65963462Y-54469573D01*
X65963542Y-54476840D01*
X65963718Y-54481345D01*
X65963978Y-54483662D01*
X65964311Y-54484362D01*
X65964709Y-54484018D01*
X65965160Y-54483204D01*
X65965654Y-54482493D01*
X65965947Y-54482352D01*
X65971780Y-54478923D01*
X65986319Y-54469325D01*
X66008050Y-54454587D01*
X66035457Y-54435741D01*
X66067026Y-54413818D01*
X66081575Y-54403652D01*
X66114612Y-54380367D01*
X66144167Y-54359235D01*
X66168702Y-54341382D01*
X66186677Y-54327934D01*
X66196551Y-54320016D01*
X66197904Y-54318623D01*
X66199062Y-54311077D01*
X66200570Y-54292528D01*
X66202346Y-54264466D01*
X66204307Y-54228385D01*
X66206371Y-54185774D01*
X66208455Y-54138128D01*
X66209989Y-54099794D01*
X66212277Y-54041837D01*
X66214293Y-53995096D01*
X66216145Y-53958290D01*
X66217944Y-53930135D01*
X66219799Y-53909352D01*
X66221819Y-53894658D01*
X66224114Y-53884772D01*
X66226794Y-53878412D01*
X66229198Y-53875101D01*
X66235846Y-53869858D01*
X66252068Y-53858046D01*
X66277130Y-53840176D01*
X66310300Y-53816760D01*
X66350847Y-53788309D01*
X66398037Y-53755334D01*
X66451140Y-53718348D01*
X66509421Y-53677861D01*
X66572150Y-53634384D01*
X66638594Y-53588430D01*
X66679884Y-53559931D01*
X67414145Y-53559931D01*
X67420851Y-53561433D01*
X67437072Y-53563996D01*
X67459912Y-53567178D01*
X67472483Y-53568809D01*
X67500130Y-53572691D01*
X67525133Y-53576864D01*
X67543355Y-53580615D01*
X67547501Y-53581738D01*
X67560401Y-53585310D01*
X67570979Y-53586248D01*
X67580450Y-53583298D01*
X67590026Y-53575207D01*
X67600919Y-53560720D01*
X67614343Y-53538584D01*
X67631510Y-53507543D01*
X67646867Y-53478980D01*
X67753360Y-53269222D01*
X67851710Y-53052689D01*
X67942019Y-52829015D01*
X68024389Y-52597834D01*
X68066830Y-52461715D01*
X68713413Y-52461715D01*
X68821252Y-52524766D01*
X68854323Y-52544001D01*
X68883681Y-52560885D01*
X68907638Y-52574461D01*
X68924501Y-52583774D01*
X68932583Y-52587868D01*
X68932972Y-52587977D01*
X68935672Y-52582417D01*
X68938681Y-52567851D01*
X68940423Y-52554901D01*
X69013797Y-52554901D01*
X69014269Y-52565438D01*
X69017504Y-52568530D01*
X69021828Y-52567518D01*
X69029877Y-52562828D01*
X69046375Y-52552028D01*
X69069603Y-52536287D01*
X69097844Y-52516772D01*
X69129377Y-52494649D01*
X69134951Y-52490706D01*
X69172465Y-52463796D01*
X69200598Y-52442750D01*
X69220462Y-52426635D01*
X69233169Y-52414516D01*
X69239832Y-52405459D01*
X69241336Y-52401382D01*
X69242466Y-52392580D01*
X69244656Y-52372165D01*
X69247835Y-52340905D01*
X69251932Y-52299566D01*
X69256876Y-52248915D01*
X69262595Y-52189718D01*
X69269017Y-52122742D01*
X69276072Y-52048754D01*
X69283689Y-51968520D01*
X69291795Y-51882807D01*
X69300320Y-51792381D01*
X69309192Y-51698010D01*
X69318340Y-51600460D01*
X69327692Y-51500497D01*
X69337178Y-51398888D01*
X69346726Y-51296399D01*
X69356265Y-51193798D01*
X69365723Y-51091852D01*
X69375029Y-50991325D01*
X69384111Y-50892986D01*
X69392899Y-50797601D01*
X69401322Y-50705936D01*
X69409307Y-50618758D01*
X69416783Y-50536834D01*
X69423679Y-50460931D01*
X69429925Y-50391814D01*
X69435448Y-50330251D01*
X69440177Y-50277008D01*
X69444041Y-50232852D01*
X69446968Y-50198550D01*
X69448888Y-50174868D01*
X69449728Y-50162573D01*
X69449749Y-50161039D01*
X69448873Y-50155348D01*
X69446705Y-50152105D01*
X69441853Y-50151963D01*
X69432922Y-50155575D01*
X69418518Y-50163593D01*
X69397245Y-50176670D01*
X69367711Y-50195457D01*
X69344818Y-50210145D01*
X69311972Y-50231470D01*
X69282005Y-50251364D01*
X69256814Y-50268534D01*
X69238294Y-50281686D01*
X69228340Y-50289528D01*
X69228069Y-50289789D01*
X69226336Y-50291832D01*
X69224654Y-50294820D01*
X69222967Y-50299302D01*
X69221223Y-50305825D01*
X69219365Y-50314935D01*
X69217339Y-50327181D01*
X69215090Y-50343109D01*
X69212563Y-50363266D01*
X69209705Y-50388200D01*
X69206460Y-50418458D01*
X69202773Y-50454588D01*
X69198590Y-50497135D01*
X69193856Y-50546649D01*
X69188516Y-50603675D01*
X69182515Y-50668762D01*
X69175800Y-50742456D01*
X69168315Y-50825305D01*
X69160005Y-50917856D01*
X69150816Y-51020656D01*
X69140693Y-51134252D01*
X69129581Y-51259192D01*
X69117426Y-51396023D01*
X69117042Y-51400344D01*
X69106690Y-51516873D01*
X69096599Y-51630380D01*
X69086828Y-51740208D01*
X69077434Y-51845701D01*
X69068477Y-51946201D01*
X69060016Y-52041053D01*
X69052110Y-52129600D01*
X69044816Y-52211184D01*
X69038194Y-52285150D01*
X69032303Y-52350841D01*
X69027200Y-52407600D01*
X69022946Y-52454771D01*
X69019598Y-52491697D01*
X69017215Y-52517721D01*
X69015857Y-52532188D01*
X69015628Y-52534458D01*
X69013797Y-52554901D01*
X68940423Y-52554901D01*
X68940788Y-52552190D01*
X68942243Y-52537616D01*
X68944654Y-52511867D01*
X68947954Y-52475711D01*
X68952077Y-52429918D01*
X68956955Y-52375257D01*
X68962522Y-52312496D01*
X68968711Y-52242407D01*
X68975456Y-52165758D01*
X68982691Y-52083317D01*
X68990348Y-51995856D01*
X68998360Y-51904142D01*
X69006662Y-51808946D01*
X69015186Y-51711036D01*
X69023866Y-51611182D01*
X69032636Y-51510153D01*
X69041428Y-51408719D01*
X69050176Y-51307649D01*
X69058813Y-51207712D01*
X69067272Y-51109677D01*
X69075488Y-51014314D01*
X69083393Y-50922393D01*
X69090921Y-50834682D01*
X69098005Y-50751950D01*
X69104578Y-50674968D01*
X69110574Y-50604505D01*
X69115925Y-50541329D01*
X69120567Y-50486210D01*
X69124431Y-50439918D01*
X69127451Y-50403221D01*
X69129561Y-50376890D01*
X69130694Y-50361693D01*
X69130867Y-50358080D01*
X69125344Y-50359063D01*
X69110648Y-50366328D01*
X69087978Y-50379178D01*
X69058538Y-50396919D01*
X69023527Y-50418852D01*
X69000984Y-50433324D01*
X68872827Y-50516272D01*
X68867957Y-50547269D01*
X68866837Y-50557377D01*
X68864788Y-50579071D01*
X68861882Y-50611499D01*
X68858187Y-50653811D01*
X68853774Y-50705155D01*
X68848711Y-50764680D01*
X68843069Y-50831535D01*
X68836918Y-50904867D01*
X68830326Y-50983826D01*
X68823364Y-51067561D01*
X68816102Y-51155220D01*
X68808609Y-51245952D01*
X68800955Y-51338906D01*
X68793209Y-51433229D01*
X68785441Y-51528072D01*
X68777722Y-51622583D01*
X68770120Y-51715909D01*
X68762705Y-51807201D01*
X68755548Y-51895607D01*
X68748717Y-51980275D01*
X68742283Y-52060354D01*
X68736315Y-52134992D01*
X68730882Y-52203340D01*
X68726056Y-52264544D01*
X68721904Y-52317754D01*
X68718497Y-52362119D01*
X68715905Y-52396787D01*
X68714198Y-52420907D01*
X68713444Y-52433627D01*
X68713413Y-52434910D01*
X68713413Y-52461715D01*
X68066830Y-52461715D01*
X68075188Y-52434910D01*
X68098925Y-52358779D01*
X68165728Y-52111485D01*
X68224902Y-51855585D01*
X68276550Y-51590713D01*
X68320774Y-51316503D01*
X68357677Y-51032588D01*
X68372556Y-50895360D01*
X68377333Y-50848809D01*
X68381199Y-50813044D01*
X68384479Y-50786413D01*
X68387503Y-50767260D01*
X68390597Y-50753932D01*
X68394089Y-50744774D01*
X68398306Y-50738132D01*
X68403576Y-50732352D01*
X68405130Y-50730814D01*
X68412367Y-50725457D01*
X68429518Y-50713730D01*
X68455980Y-50696027D01*
X68491150Y-50672740D01*
X68534426Y-50644264D01*
X68585206Y-50610992D01*
X68642886Y-50573315D01*
X68706865Y-50531629D01*
X68776538Y-50486324D01*
X68851305Y-50437796D01*
X68930562Y-50386437D01*
X69013706Y-50332640D01*
X69100135Y-50276798D01*
X69185404Y-50221782D01*
X69274134Y-50164561D01*
X69360002Y-50109169D01*
X69442418Y-50055984D01*
X69520793Y-50005389D01*
X69594539Y-49957764D01*
X69663067Y-49913489D01*
X69725789Y-49872945D01*
X69782114Y-49836514D01*
X69831456Y-49804574D01*
X69873224Y-49777509D01*
X69906830Y-49755697D01*
X69931685Y-49739520D01*
X69947201Y-49729359D01*
X69952782Y-49725600D01*
X69954345Y-49718829D01*
X69956969Y-49701692D01*
X69960413Y-49676256D01*
X69964436Y-49644588D01*
X69968797Y-49608758D01*
X69973255Y-49570834D01*
X69977568Y-49532882D01*
X69981496Y-49496972D01*
X69984797Y-49465172D01*
X69987231Y-49439549D01*
X69988556Y-49422171D01*
X69988727Y-49417296D01*
X69984167Y-49413630D01*
X69979526Y-49414548D01*
X69972361Y-49418594D01*
X69955854Y-49428625D01*
X69931198Y-49443895D01*
X69899588Y-49463656D01*
X69862217Y-49487162D01*
X69820279Y-49513666D01*
X69774968Y-49542421D01*
X69763644Y-49549624D01*
X69705201Y-49586711D01*
X69656385Y-49617258D01*
X69616330Y-49641525D01*
X69584171Y-49659774D01*
X69559044Y-49672265D01*
X69540083Y-49679259D01*
X69526424Y-49681017D01*
X69517201Y-49677800D01*
X69511549Y-49669869D01*
X69508603Y-49657484D01*
X69507499Y-49640907D01*
X69507358Y-49626907D01*
X69507929Y-49616561D01*
X69509583Y-49594692D01*
X69512238Y-49562222D01*
X69513122Y-49551779D01*
X69588628Y-49551779D01*
X69589368Y-49564197D01*
X69593666Y-49566153D01*
X69602694Y-49560948D01*
X69611450Y-49555358D01*
X69629320Y-49544026D01*
X69654840Y-49527877D01*
X69686547Y-49507836D01*
X69722977Y-49484828D01*
X69762668Y-49459778D01*
X69773049Y-49453230D01*
X69813244Y-49427748D01*
X69850420Y-49403939D01*
X69883133Y-49382746D01*
X69909942Y-49365112D01*
X69929404Y-49351979D01*
X69940076Y-49344290D01*
X69941219Y-49343313D01*
X69944802Y-49339316D01*
X69945636Y-49335408D01*
X69942447Y-49330742D01*
X69933964Y-49324470D01*
X69918913Y-49315743D01*
X69896023Y-49303715D01*
X69864020Y-49287537D01*
X69837928Y-49274495D01*
X69722757Y-49217009D01*
X69674473Y-49246806D01*
X69652231Y-49260935D01*
X69633801Y-49273388D01*
X69622024Y-49282214D01*
X69619700Y-49284422D01*
X69617412Y-49292390D01*
X69614240Y-49310548D01*
X69610448Y-49336631D01*
X69606299Y-49368378D01*
X69602056Y-49403528D01*
X69597982Y-49439817D01*
X69594339Y-49474985D01*
X69591391Y-49506768D01*
X69589400Y-49532905D01*
X69588630Y-49551133D01*
X69588628Y-49551779D01*
X69513122Y-49551779D01*
X69515807Y-49520076D01*
X69520207Y-49469177D01*
X69525354Y-49410451D01*
X69531161Y-49344820D01*
X69537546Y-49273208D01*
X69544424Y-49196541D01*
X69551710Y-49115741D01*
X69559319Y-49031733D01*
X69567167Y-48945440D01*
X69575169Y-48857788D01*
X69583241Y-48769699D01*
X69591299Y-48682098D01*
X69599258Y-48595908D01*
X69607032Y-48512055D01*
X69614539Y-48431461D01*
X69621693Y-48355051D01*
X69628409Y-48283749D01*
X69634604Y-48218479D01*
X69640192Y-48160164D01*
X69645089Y-48109730D01*
X69649211Y-48068099D01*
X69652473Y-48036196D01*
X69654791Y-48014945D01*
X69654952Y-48013573D01*
X69656266Y-47993205D01*
X69654526Y-47982173D01*
X69652602Y-47980752D01*
X69644945Y-47983864D01*
X69628711Y-47992436D01*
X69605805Y-48005322D01*
X69578127Y-48021375D01*
X69547581Y-48039451D01*
X69516068Y-48058404D01*
X69485491Y-48077086D01*
X69457752Y-48094353D01*
X69434754Y-48109059D01*
X69418399Y-48120057D01*
X69410588Y-48126202D01*
X69410215Y-48126759D01*
X69409376Y-48133737D01*
X69407505Y-48152448D01*
X69404668Y-48182170D01*
X69400929Y-48222183D01*
X69396355Y-48271764D01*
X69391010Y-48330192D01*
X69384961Y-48396746D01*
X69378272Y-48470703D01*
X69371010Y-48551343D01*
X69363239Y-48637944D01*
X69355025Y-48729783D01*
X69346435Y-48826140D01*
X69337532Y-48926293D01*
X69332403Y-48984124D01*
X69323337Y-49086285D01*
X69314535Y-49185175D01*
X69306063Y-49280061D01*
X69297988Y-49370211D01*
X69290377Y-49454895D01*
X69283295Y-49533379D01*
X69276809Y-49604933D01*
X69270986Y-49668823D01*
X69265892Y-49724319D01*
X69261593Y-49770688D01*
X69258156Y-49807198D01*
X69255648Y-49833118D01*
X69254134Y-49847715D01*
X69253751Y-49850647D01*
X69246921Y-49866058D01*
X69234757Y-49881620D01*
X69233550Y-49882784D01*
X69223500Y-49890601D01*
X69204237Y-49904065D01*
X69176795Y-49922522D01*
X69142210Y-49945323D01*
X69101516Y-49971814D01*
X69055749Y-50001344D01*
X69005944Y-50033260D01*
X68953135Y-50066913D01*
X68898357Y-50101648D01*
X68842647Y-50136816D01*
X68787038Y-50171763D01*
X68732565Y-50205838D01*
X68680264Y-50238389D01*
X68631170Y-50268765D01*
X68586318Y-50296313D01*
X68546742Y-50320382D01*
X68513477Y-50340320D01*
X68487559Y-50355475D01*
X68470023Y-50365196D01*
X68461903Y-50368830D01*
X68461750Y-50368840D01*
X68443582Y-50365094D01*
X68432165Y-50353008D01*
X68426672Y-50331314D01*
X68425876Y-50313693D01*
X68426328Y-50303165D01*
X68427638Y-50280939D01*
X68429754Y-50247785D01*
X68430710Y-50233354D01*
X68508465Y-50233354D01*
X68509311Y-50246398D01*
X68511311Y-50250061D01*
X68517443Y-50246801D01*
X68533166Y-50237416D01*
X68557527Y-50222502D01*
X68589573Y-50202653D01*
X68628350Y-50178463D01*
X68672905Y-50150526D01*
X68722284Y-50119436D01*
X68775535Y-50085789D01*
X68819813Y-50057727D01*
X68880653Y-50018959D01*
X68936382Y-49983131D01*
X68986260Y-49950738D01*
X69029545Y-49922271D01*
X69065495Y-49898225D01*
X69093370Y-49879092D01*
X69112428Y-49865366D01*
X69121927Y-49857539D01*
X69122889Y-49856115D01*
X69117559Y-49850233D01*
X69102953Y-49840190D01*
X69081149Y-49827064D01*
X69054222Y-49811934D01*
X69024249Y-49795879D01*
X68993307Y-49779978D01*
X68963472Y-49765308D01*
X68936821Y-49752948D01*
X68915431Y-49743977D01*
X68901378Y-49739474D01*
X68897833Y-49739219D01*
X68889685Y-49743005D01*
X68872327Y-49752698D01*
X68847099Y-49767495D01*
X68815343Y-49786591D01*
X68778398Y-49809185D01*
X68737604Y-49834473D01*
X68709156Y-49852290D01*
X68660105Y-49883256D01*
X68620708Y-49908444D01*
X68589945Y-49928581D01*
X68566791Y-49944394D01*
X68550226Y-49956610D01*
X68539226Y-49965956D01*
X68532769Y-49973159D01*
X68529833Y-49978946D01*
X68529582Y-49979977D01*
X68527924Y-49992183D01*
X68525705Y-50014096D01*
X68523178Y-50042946D01*
X68520596Y-50075963D01*
X68519759Y-50087521D01*
X68517127Y-50123489D01*
X68514430Y-50158328D01*
X68511949Y-50188527D01*
X68509966Y-50210571D01*
X68509610Y-50214114D01*
X68508465Y-50233354D01*
X68430710Y-50233354D01*
X68432622Y-50204476D01*
X68436189Y-50151782D01*
X68440399Y-50090475D01*
X68445201Y-50021326D01*
X68450540Y-49945106D01*
X68456363Y-49862586D01*
X68462616Y-49774539D01*
X68469246Y-49681734D01*
X68471357Y-49652340D01*
X68945172Y-49652340D01*
X68945551Y-49662296D01*
X68946539Y-49666634D01*
X68946642Y-49666753D01*
X68953942Y-49671505D01*
X68970163Y-49680734D01*
X68993241Y-49693358D01*
X69021112Y-49708297D01*
X69051712Y-49724472D01*
X69082977Y-49740803D01*
X69112843Y-49756208D01*
X69139247Y-49769608D01*
X69160125Y-49779922D01*
X69173412Y-49786071D01*
X69177003Y-49787322D01*
X69180105Y-49781813D01*
X69183404Y-49767652D01*
X69184909Y-49757752D01*
X69186133Y-49746208D01*
X69188320Y-49723361D01*
X69191389Y-49690142D01*
X69195259Y-49647483D01*
X69199850Y-49596315D01*
X69205082Y-49537569D01*
X69210872Y-49472176D01*
X69217141Y-49401069D01*
X69223807Y-49325178D01*
X69230790Y-49245434D01*
X69238009Y-49162769D01*
X69245383Y-49078115D01*
X69252831Y-48992402D01*
X69260274Y-48906563D01*
X69267629Y-48821527D01*
X69274815Y-48738227D01*
X69281754Y-48657595D01*
X69288362Y-48580560D01*
X69294561Y-48508056D01*
X69300268Y-48441012D01*
X69305403Y-48380361D01*
X69309885Y-48327034D01*
X69313634Y-48281961D01*
X69316569Y-48246075D01*
X69318608Y-48220307D01*
X69319672Y-48205588D01*
X69319812Y-48202638D01*
X69318361Y-48188191D01*
X69314794Y-48180985D01*
X69314047Y-48180802D01*
X69307240Y-48183869D01*
X69291300Y-48192470D01*
X69267811Y-48205706D01*
X69238360Y-48222675D01*
X69204535Y-48242477D01*
X69184328Y-48254435D01*
X69136120Y-48283585D01*
X69098972Y-48307198D01*
X69072771Y-48325350D01*
X69057404Y-48338117D01*
X69053194Y-48343519D01*
X69051707Y-48351764D01*
X69049297Y-48371629D01*
X69046043Y-48402272D01*
X69042020Y-48442849D01*
X69037306Y-48492518D01*
X69031977Y-48550436D01*
X69026109Y-48615760D01*
X69019780Y-48687647D01*
X69013066Y-48765254D01*
X69006044Y-48847738D01*
X68998791Y-48934257D01*
X68992600Y-49009130D01*
X68983649Y-49118485D01*
X68975746Y-49215953D01*
X68968850Y-49302105D01*
X68962921Y-49377512D01*
X68957921Y-49442742D01*
X68953808Y-49498366D01*
X68950544Y-49544954D01*
X68948088Y-49583075D01*
X68946400Y-49613300D01*
X68945442Y-49636199D01*
X68945172Y-49652340D01*
X68471357Y-49652340D01*
X68476198Y-49584944D01*
X68483420Y-49484940D01*
X68485245Y-49459742D01*
X68492473Y-49359750D01*
X68499410Y-49263224D01*
X68506005Y-49170893D01*
X68512207Y-49083491D01*
X68517965Y-49001749D01*
X68523231Y-48926398D01*
X68527952Y-48858170D01*
X68532078Y-48797796D01*
X68535559Y-48746009D01*
X68538344Y-48703540D01*
X68540383Y-48671121D01*
X68541625Y-48649483D01*
X68542019Y-48639358D01*
X68541962Y-48638673D01*
X68536084Y-48640973D01*
X68520990Y-48648843D01*
X68498199Y-48661434D01*
X68469228Y-48677899D01*
X68435593Y-48697392D01*
X68412263Y-48711098D01*
X68285183Y-48786143D01*
X68280400Y-48828870D01*
X68279407Y-48840235D01*
X68277639Y-48863308D01*
X68275149Y-48897318D01*
X68271991Y-48941497D01*
X68268217Y-48995077D01*
X68263880Y-49057288D01*
X68259035Y-49127362D01*
X68253733Y-49204529D01*
X68248028Y-49288022D01*
X68241973Y-49377070D01*
X68235620Y-49470906D01*
X68229024Y-49568760D01*
X68222238Y-49669863D01*
X68219389Y-49712428D01*
X68211323Y-49832864D01*
X68204021Y-49941439D01*
X68197434Y-50038772D01*
X68191514Y-50125479D01*
X68186212Y-50202177D01*
X68181480Y-50269483D01*
X68177267Y-50328015D01*
X68173527Y-50378389D01*
X68170209Y-50421222D01*
X68167266Y-50457130D01*
X68164649Y-50486732D01*
X68162308Y-50510644D01*
X68160196Y-50529483D01*
X68158264Y-50543866D01*
X68156462Y-50554410D01*
X68154743Y-50561732D01*
X68153056Y-50566448D01*
X68151797Y-50568630D01*
X68144337Y-50575022D01*
X68127388Y-50587349D01*
X68102039Y-50604885D01*
X68069380Y-50626899D01*
X68030502Y-50652665D01*
X67986494Y-50681453D01*
X67938446Y-50712537D01*
X67888971Y-50744217D01*
X67838164Y-50776660D01*
X67790393Y-50807302D01*
X67746734Y-50835443D01*
X67708266Y-50860382D01*
X67676066Y-50881417D01*
X67651210Y-50897850D01*
X67634777Y-50908977D01*
X67627872Y-50914070D01*
X67623781Y-50921227D01*
X67620099Y-50934702D01*
X67616722Y-50955491D01*
X67613543Y-50984589D01*
X67610459Y-51022995D01*
X67607364Y-51071702D01*
X67604153Y-51131709D01*
X67603466Y-51145594D01*
X67601965Y-51184489D01*
X67601722Y-51213353D01*
X67602722Y-51231389D01*
X67604953Y-51237799D01*
X67605030Y-51237804D01*
X67611236Y-51234501D01*
X67627003Y-51224985D01*
X67651400Y-51209846D01*
X67683498Y-51189672D01*
X67722367Y-51165052D01*
X67767076Y-51136576D01*
X67816696Y-51104832D01*
X67870295Y-51070411D01*
X67925815Y-51034629D01*
X67991655Y-50992160D01*
X68047862Y-50956012D01*
X68095283Y-50925680D01*
X68134763Y-50900662D01*
X68167147Y-50880456D01*
X68193280Y-50864557D01*
X68214007Y-50852464D01*
X68230175Y-50843672D01*
X68242627Y-50837680D01*
X68252210Y-50833983D01*
X68259769Y-50832080D01*
X68266150Y-50831466D01*
X68267261Y-50831454D01*
X68284170Y-50832166D01*
X68292642Y-50836241D01*
X68296738Y-50846588D01*
X68298145Y-50853584D01*
X68299550Y-50865032D01*
X68298144Y-50875014D01*
X68292607Y-50884887D01*
X68281617Y-50896007D01*
X68263854Y-50909730D01*
X68237996Y-50927413D01*
X68205719Y-50948475D01*
X68172406Y-50970843D01*
X68147975Y-50989060D01*
X68133208Y-51002510D01*
X68128912Y-51009234D01*
X68127470Y-51018933D01*
X68124920Y-51039147D01*
X68121489Y-51067956D01*
X68117402Y-51103444D01*
X68112885Y-51143692D01*
X68110095Y-51169037D01*
X68078043Y-51429851D01*
X68039954Y-51680354D01*
X67995614Y-51921295D01*
X67944813Y-52153425D01*
X67887339Y-52377494D01*
X67822980Y-52594253D01*
X67751525Y-52804453D01*
X67672762Y-53008843D01*
X67586479Y-53208175D01*
X67492466Y-53403198D01*
X67465284Y-53456068D01*
X67448567Y-53488444D01*
X67434228Y-53516781D01*
X67423135Y-53539317D01*
X67416155Y-53554290D01*
X67414145Y-53559931D01*
X66679884Y-53559931D01*
X66708021Y-53540510D01*
X66725876Y-53528201D01*
X66928851Y-53388310D01*
X67102154Y-53388310D01*
X67102186Y-53397161D01*
X67107114Y-53403601D01*
X67116592Y-53410973D01*
X67134029Y-53422868D01*
X67157505Y-53438117D01*
X67185099Y-53455548D01*
X67214891Y-53473989D01*
X67244962Y-53492269D01*
X67273390Y-53509217D01*
X67298256Y-53523663D01*
X67317639Y-53534433D01*
X67329620Y-53540358D01*
X67332497Y-53541079D01*
X67336888Y-53534775D01*
X67345997Y-53519171D01*
X67358814Y-53496082D01*
X67374331Y-53467322D01*
X67390568Y-53436565D01*
X67493622Y-53228071D01*
X67587988Y-53013388D01*
X67673799Y-52792062D01*
X67751185Y-52563638D01*
X67820278Y-52327660D01*
X67881210Y-52083673D01*
X67934110Y-51831223D01*
X67979112Y-51569853D01*
X68016345Y-51299109D01*
X68022825Y-51244198D01*
X68029018Y-51188865D01*
X68033541Y-51144953D01*
X68036454Y-51111499D01*
X68037817Y-51087541D01*
X68037692Y-51072118D01*
X68036139Y-51064267D01*
X68034237Y-51062761D01*
X68026353Y-51066164D01*
X68010041Y-51075586D01*
X67987057Y-51089847D01*
X67959157Y-51107765D01*
X67928098Y-51128160D01*
X67895634Y-51149850D01*
X67863523Y-51171655D01*
X67833521Y-51192395D01*
X67807382Y-51210887D01*
X67786864Y-51225951D01*
X67773722Y-51236406D01*
X67769701Y-51240656D01*
X67767147Y-51251498D01*
X67763538Y-51271950D01*
X67759328Y-51299208D01*
X67754974Y-51330471D01*
X67754418Y-51334703D01*
X67741813Y-51423533D01*
X67726060Y-51521490D01*
X67707683Y-51625748D01*
X67687203Y-51733483D01*
X67665142Y-51841867D01*
X67642022Y-51948076D01*
X67637220Y-51969234D01*
X67593848Y-52144568D01*
X67543484Y-52322764D01*
X67487288Y-52500189D01*
X67426423Y-52673209D01*
X67362051Y-52838188D01*
X67350357Y-52866330D01*
X67305765Y-52972606D01*
X67297329Y-53097636D01*
X67294560Y-53136359D01*
X67291780Y-53171156D01*
X67289175Y-53199970D01*
X67286933Y-53220743D01*
X67285243Y-53231418D01*
X67285040Y-53232045D01*
X67278745Y-53238644D01*
X67263901Y-53250708D01*
X67242390Y-53266811D01*
X67216092Y-53285524D01*
X67199856Y-53296693D01*
X67164744Y-53321159D01*
X67139151Y-53340505D01*
X67121756Y-53355839D01*
X67111238Y-53368267D01*
X67108304Y-53373397D01*
X67102154Y-53388310D01*
X66928851Y-53388310D01*
X67211520Y-53193494D01*
X67215475Y-53145565D01*
X67216159Y-53134814D01*
X67217414Y-53112438D01*
X67219201Y-53079198D01*
X67221482Y-53035858D01*
X67224219Y-52983179D01*
X67227375Y-52921924D01*
X67230911Y-52852855D01*
X67234789Y-52776735D01*
X67238972Y-52694326D01*
X67243421Y-52606390D01*
X67248098Y-52513690D01*
X67252965Y-52416989D01*
X67257984Y-52317047D01*
X67263117Y-52214629D01*
X67268327Y-52110496D01*
X67273574Y-52005411D01*
X67278822Y-51900136D01*
X67284032Y-51795433D01*
X67289166Y-51692065D01*
X67294186Y-51590794D01*
X67299054Y-51492382D01*
X67303732Y-51397592D01*
X67308182Y-51307187D01*
X67312366Y-51221928D01*
X67316246Y-51142579D01*
X67316472Y-51137927D01*
X67401441Y-51137927D01*
X67401676Y-51147157D01*
X67403716Y-51190917D01*
X67453728Y-51220588D01*
X67475963Y-51233541D01*
X67494049Y-51243634D01*
X67505386Y-51249436D01*
X67507751Y-51250283D01*
X67512137Y-51245057D01*
X67515162Y-51236241D01*
X67516442Y-51226178D01*
X67518190Y-51205564D01*
X67520273Y-51176340D01*
X67522559Y-51140444D01*
X67524914Y-51099815D01*
X67526312Y-51073840D01*
X67528710Y-51026668D01*
X67530335Y-50990395D01*
X67531162Y-50963438D01*
X67531165Y-50944215D01*
X67530320Y-50931144D01*
X67528604Y-50922643D01*
X67525990Y-50917129D01*
X67523823Y-50914426D01*
X67514151Y-50906737D01*
X67497743Y-50896258D01*
X67477518Y-50884558D01*
X67456392Y-50873207D01*
X67437284Y-50863776D01*
X67423109Y-50857834D01*
X67416857Y-50856863D01*
X67415258Y-50864172D01*
X67413373Y-50881829D01*
X67411313Y-50907688D01*
X67409190Y-50939600D01*
X67407118Y-50975418D01*
X67405208Y-51012995D01*
X67403574Y-51050181D01*
X67402326Y-51084831D01*
X67401577Y-51114795D01*
X67401441Y-51137927D01*
X67316472Y-51137927D01*
X67319784Y-51069900D01*
X67322942Y-51004656D01*
X67325681Y-50947607D01*
X67327965Y-50899517D01*
X67329755Y-50861148D01*
X67331012Y-50833262D01*
X67331700Y-50816622D01*
X67331823Y-50812261D01*
X67330464Y-50798893D01*
X67325407Y-50795477D01*
X67321909Y-50796411D01*
X67315264Y-50800234D01*
X67298806Y-50810244D01*
X67273300Y-50825966D01*
X67239511Y-50846921D01*
X67198203Y-50872632D01*
X67150142Y-50902622D01*
X67096092Y-50936413D01*
X67036819Y-50973529D01*
X66973088Y-51013491D01*
X66905663Y-51055823D01*
X66835310Y-51100047D01*
X66833244Y-51101346D01*
X66762720Y-51145636D01*
X66695012Y-51188023D01*
X66630891Y-51228032D01*
X66571133Y-51265184D01*
X66516511Y-51299005D01*
X66467799Y-51329016D01*
X66425771Y-51354742D01*
X66391200Y-51375705D01*
X66364860Y-51391429D01*
X66347526Y-51401437D01*
X66339970Y-51405252D01*
X66339921Y-51405263D01*
X66320168Y-51403544D01*
X66303888Y-51392653D01*
X66294835Y-51375596D01*
X66294068Y-51368537D01*
X66295631Y-51357913D01*
X66300061Y-51336854D01*
X66306963Y-51306996D01*
X66315946Y-51269977D01*
X66318021Y-51261705D01*
X66406694Y-51261705D01*
X66407745Y-51262540D01*
X66411477Y-51261509D01*
X66418519Y-51258231D01*
X66429498Y-51252321D01*
X66445043Y-51243400D01*
X66465782Y-51231083D01*
X66492345Y-51214990D01*
X66525358Y-51194737D01*
X66565450Y-51169943D01*
X66613251Y-51140225D01*
X66669387Y-51105201D01*
X66734487Y-51064489D01*
X66809180Y-51017706D01*
X66855882Y-50988431D01*
X66922552Y-50946531D01*
X66986030Y-50906443D01*
X67045535Y-50868672D01*
X67100284Y-50833724D01*
X67149496Y-50802103D01*
X67192391Y-50774314D01*
X67228186Y-50750863D01*
X67256100Y-50732254D01*
X67275352Y-50718994D01*
X67285160Y-50711586D01*
X67286280Y-50710238D01*
X67280341Y-50705132D01*
X67265389Y-50695284D01*
X67243442Y-50681834D01*
X67233992Y-50676250D01*
X67410983Y-50676250D01*
X67412320Y-50692959D01*
X67415583Y-50713895D01*
X67420051Y-50735153D01*
X67424998Y-50752826D01*
X67429701Y-50763011D01*
X67430026Y-50763366D01*
X67438763Y-50769764D01*
X67455412Y-50780169D01*
X67477325Y-50793100D01*
X67501858Y-50807072D01*
X67526365Y-50820602D01*
X67548198Y-50832209D01*
X67564712Y-50840407D01*
X67573260Y-50843716D01*
X67573403Y-50843725D01*
X67580035Y-50840524D01*
X67596083Y-50831277D01*
X67620428Y-50816671D01*
X67651952Y-50797394D01*
X67689534Y-50774133D01*
X67732056Y-50747576D01*
X67778399Y-50718409D01*
X67807835Y-50699775D01*
X67855734Y-50669255D01*
X67900199Y-50640663D01*
X67940149Y-50614714D01*
X67974502Y-50592121D01*
X68002177Y-50573599D01*
X68022093Y-50559864D01*
X68033168Y-50551628D01*
X68035121Y-50549606D01*
X68029882Y-50544793D01*
X68015502Y-50535408D01*
X67993986Y-50522543D01*
X67967340Y-50507289D01*
X67937570Y-50490737D01*
X67906682Y-50473980D01*
X67876682Y-50458108D01*
X67849574Y-50444212D01*
X67827365Y-50433385D01*
X67812060Y-50426718D01*
X67806334Y-50425104D01*
X67799378Y-50428290D01*
X67783316Y-50437246D01*
X67759613Y-50451070D01*
X67729735Y-50468859D01*
X67695149Y-50489710D01*
X67657321Y-50512720D01*
X67617717Y-50536988D01*
X67577803Y-50561610D01*
X67539047Y-50585683D01*
X67502913Y-50608306D01*
X67470869Y-50628574D01*
X67444381Y-50645587D01*
X67424914Y-50658440D01*
X67413936Y-50666232D01*
X67412298Y-50667675D01*
X67410983Y-50676250D01*
X67233992Y-50676250D01*
X67216518Y-50665925D01*
X67186635Y-50648701D01*
X67155810Y-50631303D01*
X67126062Y-50614874D01*
X67099408Y-50600558D01*
X67077866Y-50589496D01*
X67063455Y-50582830D01*
X67058728Y-50581392D01*
X67052303Y-50584569D01*
X67036478Y-50593600D01*
X67012472Y-50607739D01*
X66981503Y-50626240D01*
X66944789Y-50648355D01*
X66903549Y-50673338D01*
X66859001Y-50700441D01*
X66812364Y-50728919D01*
X66764856Y-50758023D01*
X66717696Y-50787008D01*
X66672101Y-50815126D01*
X66629290Y-50841631D01*
X66590482Y-50865776D01*
X66556895Y-50886813D01*
X66529748Y-50903997D01*
X66510258Y-50916580D01*
X66499644Y-50923816D01*
X66498260Y-50924939D01*
X66495834Y-50931571D01*
X66490746Y-50948394D01*
X66483512Y-50973503D01*
X66474651Y-51004996D01*
X66464678Y-51040971D01*
X66454113Y-51079525D01*
X66443471Y-51118756D01*
X66433271Y-51156761D01*
X66424029Y-51191637D01*
X66416264Y-51221483D01*
X66410491Y-51244394D01*
X66407229Y-51258470D01*
X66406694Y-51261705D01*
X66318021Y-51261705D01*
X66326617Y-51227431D01*
X66338583Y-51180995D01*
X66344336Y-51159073D01*
X66385644Y-50998792D01*
X66427250Y-50830106D01*
X66468559Y-50655712D01*
X66508974Y-50478304D01*
X66536935Y-50350642D01*
X67849437Y-50350642D01*
X67849535Y-50351168D01*
X67857352Y-50356490D01*
X67873728Y-50366105D01*
X67896726Y-50378986D01*
X67924409Y-50394110D01*
X67954839Y-50410451D01*
X67986079Y-50426984D01*
X68016190Y-50442685D01*
X68043236Y-50456529D01*
X68065279Y-50467490D01*
X68080381Y-50474543D01*
X68086605Y-50476665D01*
X68086659Y-50476601D01*
X68087247Y-50469911D01*
X68088600Y-50451483D01*
X68090667Y-50422053D01*
X68093399Y-50382359D01*
X68096747Y-50333138D01*
X68100661Y-50275129D01*
X68105092Y-50209068D01*
X68109990Y-50135693D01*
X68115307Y-50055742D01*
X68120991Y-49969953D01*
X68126995Y-49879062D01*
X68133269Y-49783807D01*
X68139762Y-49684927D01*
X68141406Y-49659857D01*
X68147915Y-49560239D01*
X68154159Y-49464093D01*
X68160093Y-49372153D01*
X68165670Y-49285155D01*
X68170846Y-49203833D01*
X68175573Y-49128923D01*
X68179806Y-49061159D01*
X68183500Y-49001276D01*
X68186608Y-48950008D01*
X68189085Y-48908091D01*
X68190885Y-48876259D01*
X68191961Y-48855247D01*
X68192269Y-48845790D01*
X68192220Y-48845317D01*
X68186264Y-48847494D01*
X68171457Y-48855189D01*
X68149579Y-48867343D01*
X68122410Y-48882895D01*
X68091731Y-48900786D01*
X68059323Y-48919956D01*
X68026967Y-48939344D01*
X67996442Y-48957892D01*
X67969531Y-48974538D01*
X67948012Y-48988224D01*
X67933668Y-48997889D01*
X67928297Y-49002410D01*
X67927355Y-49010116D01*
X67925789Y-49029221D01*
X67923655Y-49058742D01*
X67921010Y-49097693D01*
X67917913Y-49145090D01*
X67914421Y-49199949D01*
X67910591Y-49261286D01*
X67906481Y-49328115D01*
X67902148Y-49399452D01*
X67897649Y-49474313D01*
X67893043Y-49551714D01*
X67888387Y-49630669D01*
X67883738Y-49710195D01*
X67879153Y-49789306D01*
X67874691Y-49867019D01*
X67870408Y-49942349D01*
X67866363Y-50014312D01*
X67862612Y-50081922D01*
X67859214Y-50144196D01*
X67856225Y-50200149D01*
X67853703Y-50248796D01*
X67851706Y-50289154D01*
X67850291Y-50320237D01*
X67849515Y-50341061D01*
X67849437Y-50350642D01*
X66536935Y-50350642D01*
X66547900Y-50300577D01*
X66584739Y-50125224D01*
X66618896Y-49954942D01*
X66649774Y-49792424D01*
X66663610Y-49715973D01*
X66671017Y-49677522D01*
X66677756Y-49649929D01*
X66684285Y-49631602D01*
X66690761Y-49621264D01*
X66698156Y-49615882D01*
X66715463Y-49604736D01*
X66741797Y-49588362D01*
X66776270Y-49567294D01*
X66817993Y-49542066D01*
X66866080Y-49513215D01*
X66919643Y-49481273D01*
X66977794Y-49446776D01*
X67039646Y-49410260D01*
X67094265Y-49378150D01*
X67158371Y-49340496D01*
X67219412Y-49304564D01*
X67276515Y-49270874D01*
X67328810Y-49239942D01*
X67375424Y-49212287D01*
X67415486Y-49188425D01*
X67448125Y-49168877D01*
X67472470Y-49154158D01*
X67487648Y-49144787D01*
X67492712Y-49141393D01*
X67494811Y-49133747D01*
X67497375Y-49115666D01*
X67500264Y-49089136D01*
X67503338Y-49056144D01*
X67506457Y-49018674D01*
X67509481Y-48978713D01*
X67512270Y-48938247D01*
X67514684Y-48899262D01*
X67516583Y-48863744D01*
X67517827Y-48833679D01*
X67518276Y-48811053D01*
X67517789Y-48797852D01*
X67517115Y-48795365D01*
X67510122Y-48795772D01*
X67499587Y-48800235D01*
X67490721Y-48805216D01*
X67471931Y-48815968D01*
X67443901Y-48832095D01*
X67407319Y-48853198D01*
X67362870Y-48878878D01*
X67311239Y-48908739D01*
X67253113Y-48942381D01*
X67189176Y-48979406D01*
X67120115Y-49019417D01*
X67046616Y-49062015D01*
X66969365Y-49106803D01*
X66889046Y-49153382D01*
X66806347Y-49201354D01*
X66721952Y-49250321D01*
X66636547Y-49299886D01*
X66550819Y-49349649D01*
X66465452Y-49399213D01*
X66381133Y-49448180D01*
X66298548Y-49496151D01*
X66218382Y-49542729D01*
X66141321Y-49587516D01*
X66068051Y-49630113D01*
X65999257Y-49670123D01*
X65935625Y-49707147D01*
X65877842Y-49740787D01*
X65826592Y-49770645D01*
X65782562Y-49796323D01*
X65746437Y-49817424D01*
X65718904Y-49833548D01*
X65700647Y-49844298D01*
X65692353Y-49849276D01*
X65691917Y-49849571D01*
X65690463Y-49856789D01*
X65688984Y-49874377D01*
X65687526Y-49900425D01*
X65686132Y-49933024D01*
X65684846Y-49970266D01*
X65683711Y-50010242D01*
X65682773Y-50051043D01*
X65682075Y-50090761D01*
X65681661Y-50127487D01*
X65681575Y-50159312D01*
X65681861Y-50184328D01*
X65682563Y-50200626D01*
X65683694Y-50206300D01*
X65689605Y-50203202D01*
X65705482Y-50194219D01*
X65730525Y-50179819D01*
X65763931Y-50160470D01*
X65804898Y-50136640D01*
X65852623Y-50108795D01*
X65906306Y-50077404D01*
X65965143Y-50042935D01*
X66028332Y-50005855D01*
X66095072Y-49966632D01*
X66133987Y-49943735D01*
X66215932Y-49895521D01*
X66287812Y-49853307D01*
X66350325Y-49816737D01*
X66404171Y-49785451D01*
X66450052Y-49759092D01*
X66488665Y-49737302D01*
X66520710Y-49719724D01*
X66546889Y-49705999D01*
X66567899Y-49695769D01*
X66584441Y-49688677D01*
X66597214Y-49684364D01*
X66606919Y-49682473D01*
X66614254Y-49682645D01*
X66619920Y-49684524D01*
X66624617Y-49687750D01*
X66628078Y-49690995D01*
X66634963Y-49704625D01*
X66637746Y-49723608D01*
X66635831Y-49741295D01*
X66633118Y-49747302D01*
X66626587Y-49752312D01*
X66610857Y-49762589D01*
X66587545Y-49777131D01*
X66558269Y-49794935D01*
X66524647Y-49814999D01*
X66508671Y-49824415D01*
X66473277Y-49845417D01*
X66441195Y-49864874D01*
X66414123Y-49881720D01*
X66393762Y-49894891D01*
X66381812Y-49903321D01*
X66379708Y-49905195D01*
X66375535Y-49914758D01*
X66370023Y-49934283D01*
X66363746Y-49961379D01*
X66357281Y-49993653D01*
X66353895Y-50012502D01*
X66299636Y-50311252D01*
X66241271Y-50602051D01*
X66178924Y-50884458D01*
X66112719Y-51158032D01*
X66042781Y-51422333D01*
X65969236Y-51676919D01*
X65892208Y-51921349D01*
X65811823Y-52155183D01*
X65728204Y-52377980D01*
X65641476Y-52589299D01*
X65593156Y-52699012D01*
X65578845Y-52731052D01*
X65566550Y-52759257D01*
X65557128Y-52781606D01*
X65551439Y-52796073D01*
X65550135Y-52800478D01*
X65407405Y-52800478D01*
X65377440Y-52781235D01*
X65351650Y-52765304D01*
X65334267Y-52755785D01*
X65324290Y-52752418D01*
X65320722Y-52754944D01*
X64955227Y-52754944D01*
X64955309Y-52623442D01*
X64955326Y-52588341D01*
X65238979Y-52588341D01*
X65238985Y-52589294D01*
X65244576Y-52594207D01*
X65258855Y-52604335D01*
X65280003Y-52618531D01*
X65306202Y-52635649D01*
X65335634Y-52654542D01*
X65366480Y-52674064D01*
X65396924Y-52693068D01*
X65425146Y-52710408D01*
X65449329Y-52724937D01*
X65467654Y-52735508D01*
X65478303Y-52740976D01*
X65480212Y-52741413D01*
X65483768Y-52734944D01*
X65491362Y-52719428D01*
X65501870Y-52697202D01*
X65513906Y-52671185D01*
X65580683Y-52518987D01*
X65646935Y-52355262D01*
X65712352Y-52180987D01*
X65776625Y-51997135D01*
X65839442Y-51804681D01*
X65900495Y-51604602D01*
X65959472Y-51397871D01*
X66016065Y-51185463D01*
X66069963Y-50968354D01*
X66109775Y-50797070D01*
X66124087Y-50732701D01*
X66138734Y-50665110D01*
X66153514Y-50595347D01*
X66168229Y-50524464D01*
X66182677Y-50453514D01*
X66196659Y-50383547D01*
X66209973Y-50315615D01*
X66222421Y-50250770D01*
X66233801Y-50190063D01*
X66243913Y-50134547D01*
X66252557Y-50085271D01*
X66259533Y-50043289D01*
X66264640Y-50009652D01*
X66267678Y-49985411D01*
X66268447Y-49971617D01*
X66267544Y-49968742D01*
X66261168Y-49971820D01*
X66245812Y-49980379D01*
X66223176Y-49993403D01*
X66194964Y-50009877D01*
X66162877Y-50028787D01*
X66128618Y-50049118D01*
X66093889Y-50069854D01*
X66060392Y-50089982D01*
X66029829Y-50108486D01*
X66003904Y-50124351D01*
X65984318Y-50136563D01*
X65972773Y-50144106D01*
X65970563Y-50145795D01*
X65967482Y-50153627D01*
X65962371Y-50172217D01*
X65955582Y-50200051D01*
X65947463Y-50235612D01*
X65938366Y-50277385D01*
X65928638Y-50323854D01*
X65922633Y-50353422D01*
X65863855Y-50632529D01*
X65801484Y-50902450D01*
X65735634Y-51162807D01*
X65666417Y-51413223D01*
X65593950Y-51653320D01*
X65518344Y-51882721D01*
X65439715Y-52101049D01*
X65358177Y-52307925D01*
X65273843Y-52502973D01*
X65272356Y-52506250D01*
X65259600Y-52535004D01*
X65249183Y-52559770D01*
X65242008Y-52578299D01*
X65238979Y-52588341D01*
X64955326Y-52588341D01*
X64955392Y-52448619D01*
X64955448Y-52274799D01*
X64955479Y-52102606D01*
X64955484Y-51932667D01*
X64955465Y-51765605D01*
X64955421Y-51602048D01*
X64955353Y-51442619D01*
X64955262Y-51287944D01*
X64955149Y-51138649D01*
X64955013Y-50995359D01*
X64954855Y-50858698D01*
X64954677Y-50729293D01*
X64954477Y-50607768D01*
X64954257Y-50494748D01*
X64954017Y-50390860D01*
X64953758Y-50296728D01*
X64953480Y-50212977D01*
X64953184Y-50140233D01*
X64952870Y-50079121D01*
X64952829Y-50072410D01*
X65341962Y-50072410D01*
X65456988Y-50138759D01*
X65491443Y-50158482D01*
X65522422Y-50175929D01*
X65548234Y-50190169D01*
X65567184Y-50200274D01*
X65577581Y-50205312D01*
X65578841Y-50205704D01*
X65581814Y-50199944D01*
X65584492Y-50182047D01*
X65586883Y-50151906D01*
X65588998Y-50109414D01*
X65589763Y-50089084D01*
X65591123Y-50046774D01*
X65592294Y-50003849D01*
X65593195Y-49963817D01*
X65593745Y-49930186D01*
X65593878Y-49911553D01*
X65593895Y-49851239D01*
X65474649Y-49784385D01*
X65439784Y-49764995D01*
X65408728Y-49748026D01*
X65383077Y-49734323D01*
X65364426Y-49724734D01*
X65354369Y-49720104D01*
X65353085Y-49719848D01*
X65352333Y-49726453D01*
X65351364Y-49743949D01*
X65350238Y-49770727D01*
X65349017Y-49805179D01*
X65347761Y-49845696D01*
X65346532Y-49890669D01*
X65346364Y-49897288D01*
X65341962Y-50072410D01*
X64952829Y-50072410D01*
X64952742Y-50058416D01*
X64950002Y-49640804D01*
X65407226Y-49640804D01*
X65407367Y-49640968D01*
X65416381Y-49647516D01*
X65433976Y-49658465D01*
X65458092Y-49672679D01*
X65486671Y-49689020D01*
X65517650Y-49706353D01*
X65548972Y-49723539D01*
X65578574Y-49739442D01*
X65604398Y-49752926D01*
X65624384Y-49762852D01*
X65636470Y-49768085D01*
X65638662Y-49768610D01*
X65645118Y-49765542D01*
X65661828Y-49756536D01*
X65688224Y-49741916D01*
X65723739Y-49722006D01*
X65767804Y-49697130D01*
X65819852Y-49667611D01*
X65879314Y-49633775D01*
X65945623Y-49595944D01*
X66018211Y-49554443D01*
X66096511Y-49509596D01*
X66179953Y-49461727D01*
X66267971Y-49411160D01*
X66359997Y-49358218D01*
X66455462Y-49303227D01*
X66553798Y-49246509D01*
X66556781Y-49244787D01*
X66655085Y-49188019D01*
X66750430Y-49132897D01*
X66842255Y-49079749D01*
X66929999Y-49028901D01*
X67013100Y-48980682D01*
X67090998Y-48935418D01*
X67163132Y-48893435D01*
X67228940Y-48855063D01*
X67287862Y-48820627D01*
X67339337Y-48790454D01*
X67382803Y-48764873D01*
X67417700Y-48744210D01*
X67443466Y-48728791D01*
X67459541Y-48718945D01*
X67465363Y-48714999D01*
X67465375Y-48714969D01*
X67460403Y-48710233D01*
X67446192Y-48701081D01*
X67424750Y-48688569D01*
X67398082Y-48673749D01*
X67368195Y-48657674D01*
X67351156Y-48648758D01*
X67536840Y-48648758D01*
X67560925Y-48661050D01*
X67578409Y-48670560D01*
X67590761Y-48679867D01*
X67598933Y-48691324D01*
X67603876Y-48707283D01*
X67606541Y-48730096D01*
X67607879Y-48762115D01*
X67608257Y-48778099D01*
X67610016Y-48859094D01*
X67691286Y-48901029D01*
X67720348Y-48915885D01*
X67745472Y-48928463D01*
X67764571Y-48937739D01*
X67775554Y-48942687D01*
X67777245Y-48943227D01*
X67780676Y-48938031D01*
X67782032Y-48926298D01*
X67782435Y-48915344D01*
X67782714Y-48909782D01*
X67870620Y-48909782D01*
X67871325Y-48925709D01*
X67872832Y-48930986D01*
X67878870Y-48927932D01*
X67894298Y-48919296D01*
X67917747Y-48905868D01*
X67947847Y-48888439D01*
X67983230Y-48867797D01*
X68022528Y-48844732D01*
X68033809Y-48838088D01*
X68084522Y-48808219D01*
X68125624Y-48784107D01*
X68158260Y-48765136D01*
X68183576Y-48750693D01*
X68202720Y-48740162D01*
X68216838Y-48732929D01*
X68227075Y-48728380D01*
X68234578Y-48725899D01*
X68240494Y-48724873D01*
X68245344Y-48724685D01*
X68254729Y-48721776D01*
X68273238Y-48713633D01*
X68299087Y-48701129D01*
X68330491Y-48685139D01*
X68365667Y-48666538D01*
X68381626Y-48657890D01*
X68428861Y-48632068D01*
X68466294Y-48611435D01*
X68495108Y-48595210D01*
X68516485Y-48582612D01*
X68531611Y-48572859D01*
X68541667Y-48565171D01*
X68547837Y-48558766D01*
X68551305Y-48552864D01*
X68553254Y-48546684D01*
X68553810Y-48544249D01*
X68562934Y-48528037D01*
X68580520Y-48520117D01*
X68605166Y-48521091D01*
X68606726Y-48521420D01*
X68613935Y-48521461D01*
X68624745Y-48518647D01*
X68640372Y-48512404D01*
X68662033Y-48502160D01*
X68690945Y-48487341D01*
X68728326Y-48467372D01*
X68772055Y-48443515D01*
X68823601Y-48415235D01*
X68865282Y-48392341D01*
X68898161Y-48374139D01*
X68923300Y-48359938D01*
X68941761Y-48349047D01*
X68954606Y-48340773D01*
X68962898Y-48334424D01*
X68967698Y-48329308D01*
X68970070Y-48324733D01*
X68971075Y-48320007D01*
X68971776Y-48314439D01*
X68971952Y-48313294D01*
X68976414Y-48296107D01*
X68982475Y-48283663D01*
X68982692Y-48283394D01*
X68995122Y-48276661D01*
X69013582Y-48274848D01*
X69032498Y-48278217D01*
X69038429Y-48280792D01*
X69043811Y-48281689D01*
X69052500Y-48279526D01*
X69065700Y-48273655D01*
X69084619Y-48263426D01*
X69110462Y-48248192D01*
X69144435Y-48227305D01*
X69183366Y-48202880D01*
X69230036Y-48173072D01*
X69266622Y-48148865D01*
X69293915Y-48129692D01*
X69312707Y-48114984D01*
X69323788Y-48104172D01*
X69326799Y-48099838D01*
X69339124Y-48079170D01*
X69350487Y-48067674D01*
X69364340Y-48062821D01*
X69378404Y-48062020D01*
X69387995Y-48061242D01*
X69398892Y-48058384D01*
X69412601Y-48052659D01*
X69430623Y-48043280D01*
X69454464Y-48029459D01*
X69485626Y-48010410D01*
X69525613Y-47985346D01*
X69529239Y-47983057D01*
X69565744Y-47959587D01*
X69599594Y-47937043D01*
X69629025Y-47916663D01*
X69652275Y-47899681D01*
X69667581Y-47887333D01*
X69671916Y-47883035D01*
X69688713Y-47867668D01*
X69704295Y-47861975D01*
X69704518Y-47861973D01*
X69714542Y-47858681D01*
X69732950Y-47849545D01*
X69757734Y-47835679D01*
X69786889Y-47818196D01*
X69811902Y-47802422D01*
X69843361Y-47782192D01*
X69872361Y-47763615D01*
X69896768Y-47748052D01*
X69914448Y-47736865D01*
X69922130Y-47732093D01*
X69959057Y-47709476D01*
X69994054Y-47687573D01*
X70025338Y-47667538D01*
X70051125Y-47650529D01*
X70069633Y-47637703D01*
X70078767Y-47630523D01*
X70082911Y-47624931D01*
X70086564Y-47615773D01*
X70089998Y-47601479D01*
X70093489Y-47580484D01*
X70097311Y-47551219D01*
X70101738Y-47512118D01*
X70105193Y-47479500D01*
X70110899Y-47423388D01*
X70115110Y-47378609D01*
X70117879Y-47344088D01*
X70119255Y-47318752D01*
X70119291Y-47301525D01*
X70118039Y-47291334D01*
X70115549Y-47287103D01*
X70114423Y-47286832D01*
X70108599Y-47289912D01*
X70092583Y-47298914D01*
X70066992Y-47313479D01*
X70032444Y-47333250D01*
X69989559Y-47357868D01*
X69938953Y-47386975D01*
X69881247Y-47420213D01*
X69817057Y-47457223D01*
X69747004Y-47497648D01*
X69671704Y-47541129D01*
X69591776Y-47587307D01*
X69507839Y-47635826D01*
X69420510Y-47686326D01*
X69330410Y-47738449D01*
X69238155Y-47791837D01*
X69144364Y-47846132D01*
X69049655Y-47900976D01*
X68954648Y-47956011D01*
X68859960Y-48010878D01*
X68766209Y-48065219D01*
X68674015Y-48118675D01*
X68583995Y-48170890D01*
X68496768Y-48221504D01*
X68412951Y-48270159D01*
X68333165Y-48316498D01*
X68258026Y-48360161D01*
X68188154Y-48400791D01*
X68124166Y-48438030D01*
X68066682Y-48471518D01*
X68016318Y-48500899D01*
X67973695Y-48525814D01*
X67939430Y-48545905D01*
X67914141Y-48560813D01*
X67898447Y-48570180D01*
X67892990Y-48573620D01*
X67890638Y-48581552D01*
X67888029Y-48599708D01*
X67885269Y-48626188D01*
X67882465Y-48659094D01*
X67879725Y-48696525D01*
X67877156Y-48736582D01*
X67874864Y-48777366D01*
X67872958Y-48816978D01*
X67871544Y-48853517D01*
X67870729Y-48885085D01*
X67870620Y-48909782D01*
X67782714Y-48909782D01*
X67783512Y-48893886D01*
X67785154Y-48863896D01*
X67787250Y-48827348D01*
X67789692Y-48786215D01*
X67791344Y-48759069D01*
X67793943Y-48716086D01*
X67796264Y-48676466D01*
X67798197Y-48642180D01*
X67799633Y-48615198D01*
X67800462Y-48597491D01*
X67800623Y-48592008D01*
X67799962Y-48586043D01*
X67797010Y-48580305D01*
X67790386Y-48573898D01*
X67778708Y-48565925D01*
X67760597Y-48555487D01*
X67734670Y-48541689D01*
X67699548Y-48523632D01*
X67680346Y-48513864D01*
X67644771Y-48495803D01*
X67612992Y-48479686D01*
X67586688Y-48466362D01*
X67567538Y-48456681D01*
X67557220Y-48451492D01*
X67555965Y-48450876D01*
X67553175Y-48455112D01*
X67550284Y-48470576D01*
X67547254Y-48497590D01*
X67544051Y-48536476D01*
X67540787Y-48585134D01*
X67536840Y-48648758D01*
X67351156Y-48648758D01*
X67337093Y-48641399D01*
X67306785Y-48625976D01*
X67279274Y-48612459D01*
X67256569Y-48601901D01*
X67240674Y-48595356D01*
X67234445Y-48593714D01*
X67226926Y-48596692D01*
X67209495Y-48605395D01*
X67183078Y-48619312D01*
X67148601Y-48637936D01*
X67106990Y-48660756D01*
X67059172Y-48687263D01*
X67006072Y-48716948D01*
X66948616Y-48749300D01*
X66887731Y-48783812D01*
X66856227Y-48801755D01*
X66794990Y-48836686D01*
X66724432Y-48876932D01*
X66646093Y-48921613D01*
X66561514Y-48969852D01*
X66472237Y-49020768D01*
X66379801Y-49073484D01*
X66285747Y-49127121D01*
X66191617Y-49180800D01*
X66098950Y-49233642D01*
X66009287Y-49284770D01*
X65945000Y-49321427D01*
X65854041Y-49373327D01*
X65773411Y-49419417D01*
X65702549Y-49460032D01*
X65640894Y-49495505D01*
X65587883Y-49526169D01*
X65542957Y-49552359D01*
X65505553Y-49574407D01*
X65475111Y-49592647D01*
X65451070Y-49607413D01*
X65432868Y-49619039D01*
X65419943Y-49627857D01*
X65411736Y-49634201D01*
X65407684Y-49638406D01*
X65407226Y-49640804D01*
X64950002Y-49640804D01*
X64948470Y-49407283D01*
X62472894Y-48021661D01*
X62309126Y-47930004D01*
X62148117Y-47839904D01*
X61990212Y-47751552D01*
X61835752Y-47665141D01*
X61685081Y-47580862D01*
X61538541Y-47498907D01*
X61396477Y-47419466D01*
X61259232Y-47342733D01*
X61127147Y-47268899D01*
X61000568Y-47198155D01*
X60879836Y-47130692D01*
X60765294Y-47066703D01*
X60657287Y-47006380D01*
X60556156Y-46949913D01*
X60462246Y-46897495D01*
X60375899Y-46849317D01*
X60297459Y-46805571D01*
X60227268Y-46766448D01*
X60165670Y-46732140D01*
X60113007Y-46702839D01*
X60069624Y-46678737D01*
X60035863Y-46660024D01*
X60012067Y-46646893D01*
X59998579Y-46639536D01*
X59995434Y-46637922D01*
X59910874Y-46637922D01*
X59908990Y-46617935D01*
X59906546Y-46591282D01*
X59905289Y-46576461D01*
X59905117Y-46573562D01*
X59905790Y-46560831D01*
X60047206Y-46560831D01*
X60051452Y-46564887D01*
X60066136Y-46574576D01*
X60090703Y-46589578D01*
X60124596Y-46609574D01*
X60167258Y-46634243D01*
X60218132Y-46663266D01*
X60276662Y-46696324D01*
X60342291Y-46733097D01*
X60414464Y-46773266D01*
X60488782Y-46814391D01*
X60513196Y-46827900D01*
X60546167Y-46846196D01*
X60586826Y-46868795D01*
X60634306Y-46895212D01*
X60687739Y-46924964D01*
X60746257Y-46957564D01*
X60808993Y-46992530D01*
X60875079Y-47029376D01*
X60943648Y-47067619D01*
X61013831Y-47106774D01*
X61084761Y-47146357D01*
X61155570Y-47185882D01*
X61225390Y-47224867D01*
X61293354Y-47262826D01*
X61358595Y-47299275D01*
X61420243Y-47333729D01*
X61477432Y-47365705D01*
X61529294Y-47394718D01*
X61574961Y-47420284D01*
X61613566Y-47441917D01*
X61644240Y-47459135D01*
X61666117Y-47471451D01*
X61678328Y-47478383D01*
X61680432Y-47479613D01*
X61696733Y-47489225D01*
X61709670Y-47496212D01*
X61711690Y-47497164D01*
X61718194Y-47500651D01*
X61734603Y-47509663D01*
X61759903Y-47523636D01*
X61793078Y-47542005D01*
X61833115Y-47564205D01*
X61878998Y-47589672D01*
X61929713Y-47617841D01*
X61984245Y-47648148D01*
X62041579Y-47680027D01*
X62100702Y-47712915D01*
X62160598Y-47746246D01*
X62220253Y-47779456D01*
X62278652Y-47811980D01*
X62334781Y-47843254D01*
X62387624Y-47872713D01*
X62436168Y-47899791D01*
X62479398Y-47923926D01*
X62516298Y-47944551D01*
X62545855Y-47961102D01*
X62567054Y-47973015D01*
X62578880Y-47979725D01*
X62580654Y-47980762D01*
X62588340Y-47985142D01*
X62605594Y-47994825D01*
X62631049Y-48009050D01*
X62663339Y-48027059D01*
X62701096Y-48048091D01*
X62742954Y-48071386D01*
X62787545Y-48096186D01*
X62833503Y-48121731D01*
X62879460Y-48147260D01*
X62924050Y-48172015D01*
X62965906Y-48195236D01*
X63003660Y-48216163D01*
X63035946Y-48234037D01*
X63061397Y-48248098D01*
X63078646Y-48257586D01*
X63085887Y-48261514D01*
X63093627Y-48265755D01*
X63111519Y-48275659D01*
X63138795Y-48290799D01*
X63174688Y-48310747D01*
X63218431Y-48335078D01*
X63269255Y-48363362D01*
X63326393Y-48395175D01*
X63389078Y-48430087D01*
X63456542Y-48467671D01*
X63528017Y-48507502D01*
X63602736Y-48549151D01*
X63640290Y-48570087D01*
X63731538Y-48620962D01*
X63812547Y-48666128D01*
X63883999Y-48705964D01*
X63946574Y-48740850D01*
X64000954Y-48771164D01*
X64047822Y-48797286D01*
X64087857Y-48819594D01*
X64121743Y-48838469D01*
X64150160Y-48854288D01*
X64173789Y-48867432D01*
X64193313Y-48878280D01*
X64209413Y-48887210D01*
X64222770Y-48894602D01*
X64234066Y-48900835D01*
X64243982Y-48906288D01*
X64253200Y-48911341D01*
X64262401Y-48916372D01*
X64272267Y-48921760D01*
X64277947Y-48924862D01*
X64306236Y-48940467D01*
X64339855Y-48959233D01*
X64373296Y-48978081D01*
X64387348Y-48986069D01*
X64414755Y-49001640D01*
X64440976Y-49016424D01*
X64462378Y-49028377D01*
X64472077Y-49033711D01*
X64491811Y-49044514D01*
X64519552Y-49059829D01*
X64553914Y-49078880D01*
X64593515Y-49100895D01*
X64636970Y-49125099D01*
X64682896Y-49150719D01*
X64729908Y-49176980D01*
X64776624Y-49203110D01*
X64821658Y-49228332D01*
X64863627Y-49251875D01*
X64901148Y-49272965D01*
X64932836Y-49290826D01*
X64957308Y-49304686D01*
X64973179Y-49313770D01*
X64978359Y-49316829D01*
X64988345Y-49322115D01*
X64997812Y-49323578D01*
X65009662Y-49320534D01*
X65026798Y-49312303D01*
X65048187Y-49300435D01*
X65074828Y-49285427D01*
X65102789Y-49269812D01*
X65125328Y-49257350D01*
X65136523Y-49251164D01*
X65157646Y-49239440D01*
X65187705Y-49222732D01*
X65225709Y-49201592D01*
X65270664Y-49176571D01*
X65321580Y-49148223D01*
X65377464Y-49117098D01*
X65437325Y-49083750D01*
X65500169Y-49048731D01*
X65534506Y-49029593D01*
X65611796Y-48986515D01*
X65696948Y-48939058D01*
X65787467Y-48888614D01*
X65880860Y-48836570D01*
X65974635Y-48784316D01*
X66066299Y-48733242D01*
X66153357Y-48684737D01*
X66233316Y-48640189D01*
X66272187Y-48618535D01*
X66346860Y-48576935D01*
X66428236Y-48531597D01*
X66513959Y-48483834D01*
X66601674Y-48434959D01*
X66689024Y-48386284D01*
X66704383Y-48377725D01*
X67610313Y-48377725D01*
X67615527Y-48382720D01*
X67630062Y-48391951D01*
X67651895Y-48404393D01*
X67679001Y-48419024D01*
X67709358Y-48434821D01*
X67740942Y-48450761D01*
X67771731Y-48465821D01*
X67799701Y-48478978D01*
X67822829Y-48489209D01*
X67839091Y-48495491D01*
X67846108Y-48496943D01*
X67852529Y-48493622D01*
X67869264Y-48484339D01*
X67895801Y-48469388D01*
X67931627Y-48449062D01*
X67976231Y-48423656D01*
X68029100Y-48393463D01*
X68089722Y-48358776D01*
X68157585Y-48319890D01*
X68232178Y-48277098D01*
X68312987Y-48230694D01*
X68399501Y-48180971D01*
X68491209Y-48128223D01*
X68587597Y-48072745D01*
X68688154Y-48014829D01*
X68792367Y-47954769D01*
X68899725Y-47892860D01*
X68970146Y-47852231D01*
X69079058Y-47789346D01*
X69185013Y-47728100D01*
X69287507Y-47668786D01*
X69386038Y-47611697D01*
X69480101Y-47557126D01*
X69569195Y-47505369D01*
X69652816Y-47456718D01*
X69730461Y-47411466D01*
X69801627Y-47369909D01*
X69865811Y-47332339D01*
X69922510Y-47299049D01*
X69971221Y-47270335D01*
X70011440Y-47246489D01*
X70042665Y-47227804D01*
X70064392Y-47214576D01*
X70076119Y-47207096D01*
X70078136Y-47205452D01*
X70071120Y-47201636D01*
X70054470Y-47193623D01*
X70029998Y-47182250D01*
X69999513Y-47168358D01*
X69964825Y-47152785D01*
X69958211Y-47149840D01*
X69843300Y-47098739D01*
X69398699Y-47352128D01*
X69231101Y-47447650D01*
X69074041Y-47537175D01*
X68927190Y-47620892D01*
X68790217Y-47698989D01*
X68662796Y-47771655D01*
X68544597Y-47839078D01*
X68435290Y-47901447D01*
X68334549Y-47958951D01*
X68242042Y-48011778D01*
X68157443Y-48060116D01*
X68080421Y-48104155D01*
X68010649Y-48144083D01*
X67947797Y-48180087D01*
X67891537Y-48212358D01*
X67841539Y-48241083D01*
X67797476Y-48266451D01*
X67759018Y-48288650D01*
X67725836Y-48307870D01*
X67697602Y-48324298D01*
X67673987Y-48338123D01*
X67654662Y-48349534D01*
X67639298Y-48358720D01*
X67627567Y-48365868D01*
X67619139Y-48371168D01*
X67613686Y-48374807D01*
X67610880Y-48376975D01*
X67610313Y-48377725D01*
X66704383Y-48377725D01*
X66773654Y-48339122D01*
X66853207Y-48294786D01*
X66925329Y-48254588D01*
X66956731Y-48237085D01*
X67016396Y-48203836D01*
X67073864Y-48171828D01*
X67128016Y-48141684D01*
X67177734Y-48114026D01*
X67221897Y-48089475D01*
X67259389Y-48068654D01*
X67289090Y-48052184D01*
X67309881Y-48040688D01*
X67319320Y-48035505D01*
X67336975Y-48025792D01*
X67363237Y-48011207D01*
X67395827Y-47993024D01*
X67432462Y-47972517D01*
X67470862Y-47950958D01*
X67483352Y-47943932D01*
X67518953Y-47923983D01*
X67550866Y-47906274D01*
X67577498Y-47891673D01*
X67597256Y-47881051D01*
X67608550Y-47875275D01*
X67610543Y-47874476D01*
X67617803Y-47871238D01*
X67630199Y-47863394D01*
X67630932Y-47862884D01*
X67644258Y-47854467D01*
X67664759Y-47842512D01*
X67688534Y-47829279D01*
X67694412Y-47826101D01*
X67718502Y-47813005D01*
X67749481Y-47795942D01*
X67783363Y-47777119D01*
X67816164Y-47758739D01*
X67816317Y-47758653D01*
X67847072Y-47741368D01*
X67876942Y-47724647D01*
X67902711Y-47710288D01*
X67921161Y-47700086D01*
X67922593Y-47699302D01*
X67940227Y-47689575D01*
X67965453Y-47675551D01*
X67994972Y-47659070D01*
X68025482Y-47641970D01*
X68026957Y-47641142D01*
X68058503Y-47623467D01*
X68090262Y-47605752D01*
X68118526Y-47590060D01*
X68139485Y-47578511D01*
X68150651Y-47572345D01*
X68171899Y-47560555D01*
X68202393Y-47543606D01*
X68241297Y-47521965D01*
X68287773Y-47496096D01*
X68340986Y-47466466D01*
X68400097Y-47433541D01*
X68464271Y-47397786D01*
X68532671Y-47359668D01*
X68604460Y-47319653D01*
X68678801Y-47278205D01*
X68688407Y-47272850D01*
X68762411Y-47231592D01*
X68833546Y-47191946D01*
X68901022Y-47154354D01*
X68964048Y-47119253D01*
X69021833Y-47087085D01*
X69073587Y-47058288D01*
X69118520Y-47033304D01*
X69155840Y-47012571D01*
X69184758Y-46996529D01*
X69204482Y-46985619D01*
X69214223Y-46980280D01*
X69214862Y-46979941D01*
X69237275Y-46968039D01*
X69267531Y-46951590D01*
X69304567Y-46931196D01*
X69347321Y-46907462D01*
X69394728Y-46880990D01*
X69445728Y-46852385D01*
X69499255Y-46822250D01*
X69554249Y-46791189D01*
X69609645Y-46759806D01*
X69664381Y-46728704D01*
X69717394Y-46698486D01*
X69767621Y-46669757D01*
X69813999Y-46643121D01*
X69855465Y-46619180D01*
X69890957Y-46598538D01*
X69919410Y-46581800D01*
X69939763Y-46569568D01*
X69950953Y-46562447D01*
X69952812Y-46560847D01*
X69946258Y-46557453D01*
X69929424Y-46549618D01*
X69903504Y-46537872D01*
X69869690Y-46522749D01*
X69829175Y-46504780D01*
X69783150Y-46484495D01*
X69732808Y-46462427D01*
X69698030Y-46447246D01*
X69619528Y-46413032D01*
X69533990Y-46375750D01*
X69442197Y-46335740D01*
X69344926Y-46293341D01*
X69242957Y-46248892D01*
X69137066Y-46202733D01*
X69028034Y-46155203D01*
X68916638Y-46106641D01*
X68803657Y-46057388D01*
X68689870Y-46007782D01*
X68576055Y-45958163D01*
X68462990Y-45908870D01*
X68351454Y-45860242D01*
X68242226Y-45812620D01*
X68136084Y-45766342D01*
X68033806Y-45721748D01*
X67936172Y-45679177D01*
X67843959Y-45638969D01*
X67757946Y-45601463D01*
X67678911Y-45566999D01*
X67607634Y-45535915D01*
X67544892Y-45508552D01*
X67491464Y-45485249D01*
X67448129Y-45466344D01*
X67422470Y-45455149D01*
X67378822Y-45436104D01*
X67324916Y-45412589D01*
X67261956Y-45385129D01*
X67191146Y-45354249D01*
X67113691Y-45320474D01*
X67030794Y-45284328D01*
X66943659Y-45246338D01*
X66853491Y-45207027D01*
X66761494Y-45166921D01*
X66668871Y-45126544D01*
X66576826Y-45086423D01*
X66519123Y-45061271D01*
X66434293Y-45024294D01*
X66352345Y-44988565D01*
X66274047Y-44954421D01*
X66200167Y-44922196D01*
X66131473Y-44892226D01*
X66068733Y-44864846D01*
X66012715Y-44840391D01*
X65964187Y-44819196D01*
X65923918Y-44801597D01*
X65892674Y-44787930D01*
X65871225Y-44778528D01*
X65860338Y-44773728D01*
X65859586Y-44773390D01*
X65849825Y-44769072D01*
X65829570Y-44760193D01*
X65799795Y-44747177D01*
X65761473Y-44730449D01*
X65715576Y-44710432D01*
X65663078Y-44687550D01*
X65604951Y-44662229D01*
X65542168Y-44634891D01*
X65475703Y-44605962D01*
X65417267Y-44580537D01*
X64999954Y-44398999D01*
X64001294Y-44833959D01*
X63894789Y-44880350D01*
X63791158Y-44925495D01*
X63691002Y-44969134D01*
X63594922Y-45011002D01*
X63503519Y-45050840D01*
X63417394Y-45088384D01*
X63337147Y-45123372D01*
X63263379Y-45155543D01*
X63196692Y-45184634D01*
X63137687Y-45210383D01*
X63086964Y-45232528D01*
X63045124Y-45250808D01*
X63012768Y-45264959D01*
X62990497Y-45274720D01*
X62978912Y-45279829D01*
X62977627Y-45280407D01*
X62969741Y-45283897D01*
X62950887Y-45292165D01*
X62921559Y-45304998D01*
X62882248Y-45322181D01*
X62833449Y-45343497D01*
X62775656Y-45368731D01*
X62709361Y-45397669D01*
X62635059Y-45430094D01*
X62553242Y-45465793D01*
X62464404Y-45504548D01*
X62369039Y-45546146D01*
X62267640Y-45590371D01*
X62160700Y-45637007D01*
X62048714Y-45685839D01*
X61932174Y-45736653D01*
X61811573Y-45789232D01*
X61687407Y-45843361D01*
X61560167Y-45898826D01*
X61502264Y-45924065D01*
X61374076Y-45979948D01*
X61248886Y-46034544D01*
X61127176Y-46087641D01*
X61009432Y-46139028D01*
X60896137Y-46188492D01*
X60787778Y-46235821D01*
X60684837Y-46280803D01*
X60587799Y-46323226D01*
X60497149Y-46362878D01*
X60413372Y-46399547D01*
X60336952Y-46433022D01*
X60268372Y-46463089D01*
X60208119Y-46489537D01*
X60156676Y-46512155D01*
X60114528Y-46530729D01*
X60082158Y-46545048D01*
X60060053Y-46554901D01*
X60048695Y-46560074D01*
X60047206Y-46560831D01*
X59905790Y-46560831D01*
X59906361Y-46550036D01*
X59910897Y-46535234D01*
X59916715Y-46527979D01*
X59923416Y-46524591D01*
X59941138Y-46516444D01*
X59969433Y-46503731D01*
X60007854Y-46486645D01*
X60055954Y-46465381D01*
X60113287Y-46440133D01*
X60179404Y-46411095D01*
X60253859Y-46378459D01*
X60336206Y-46342421D01*
X60425996Y-46303175D01*
X60522783Y-46260913D01*
X60626119Y-46215830D01*
X60735558Y-46168120D01*
X60850653Y-46117976D01*
X60970956Y-46065593D01*
X61096020Y-46011164D01*
X61225399Y-45954884D01*
X61358645Y-45896945D01*
X61495311Y-45837543D01*
X61634950Y-45776870D01*
X61777115Y-45715122D01*
X61921359Y-45652491D01*
X62067235Y-45589171D01*
X62214296Y-45525357D01*
X62362094Y-45461242D01*
X62510183Y-45397020D01*
X62658116Y-45332885D01*
X62805445Y-45269031D01*
X62951724Y-45205651D01*
X63096505Y-45142941D01*
X63239341Y-45081092D01*
X63379785Y-45020300D01*
X63517391Y-44960759D01*
X63651710Y-44902661D01*
X63782297Y-44846202D01*
X63908703Y-44791574D01*
X64030483Y-44738972D01*
X64147188Y-44688590D01*
X64258372Y-44640621D01*
X64363587Y-44595259D01*
X64462387Y-44552699D01*
X64554324Y-44513133D01*
X64638952Y-44476757D01*
X64715823Y-44443764D01*
X64784491Y-44414347D01*
X64844507Y-44388701D01*
X64895426Y-44367019D01*
X64936800Y-44349496D01*
X64968181Y-44336325D01*
X64989124Y-44327700D01*
X64999180Y-44323815D01*
X64999999Y-44323602D01*
X65006789Y-44326065D01*
G37*
%TO.C,TP2*%
D12*
X53950000Y-40000000D02*
G75*
G02*
X51050000Y-40000000I-1450000J0D01*
G01*
X51050000Y-40000000D02*
G75*
G02*
X53950000Y-40000000I1450000J0D01*
G01*
%TO.C,SW1*%
X45910000Y-49100000D02*
X47410000Y-49100000D01*
X45910000Y-50600000D02*
X45910000Y-49100000D01*
X46150000Y-49900000D02*
X46150000Y-57780000D01*
X46150000Y-49900000D02*
X46546000Y-49900000D01*
X46150000Y-57780000D02*
X53850000Y-57780000D01*
X48374000Y-49900000D02*
X49087000Y-49900000D01*
X50914000Y-49900000D02*
X51627000Y-49900000D01*
X53454000Y-49900000D02*
X53850000Y-49900000D01*
X53850000Y-49900000D02*
X53850000Y-57780000D01*
D11*
%TO.C,G\u002A\u002A\u002A*%
G36*
X67085164Y-66054439D02*
G01*
X67099071Y-66115739D01*
X67083030Y-66206276D01*
X67048550Y-66284163D01*
X67015158Y-66309217D01*
X66978741Y-66272784D01*
X66972502Y-66231913D01*
X66990528Y-66140620D01*
X67030755Y-66069646D01*
X67074813Y-66047927D01*
X67085164Y-66054439D01*
G37*
G36*
X63820502Y-65950485D02*
G01*
X63835096Y-66045971D01*
X63835478Y-66066261D01*
X63824383Y-66168453D01*
X63797101Y-66219534D01*
X63791304Y-66220870D01*
X63762106Y-66182037D01*
X63747512Y-66086551D01*
X63747130Y-66066261D01*
X63758225Y-65964069D01*
X63785507Y-65912988D01*
X63791304Y-65911652D01*
X63820502Y-65950485D01*
G37*
G36*
X64044704Y-65937997D02*
G01*
X64038987Y-65981526D01*
X64017413Y-66081327D01*
X64012174Y-66158222D01*
X63996588Y-66239493D01*
X63968000Y-66265043D01*
X63940338Y-66225855D01*
X63924952Y-66127956D01*
X63923826Y-66088348D01*
X63933591Y-65968169D01*
X63967629Y-65916946D01*
X63994813Y-65911652D01*
X64044704Y-65937997D01*
G37*
G36*
X68020048Y-70579532D02*
G01*
X68111212Y-70660434D01*
X68238300Y-70780688D01*
X68388411Y-70928362D01*
X68407478Y-70947478D01*
X68574481Y-71118979D01*
X68680627Y-71237716D01*
X68730773Y-71309976D01*
X68729780Y-71342045D01*
X68714738Y-71345043D01*
X68644674Y-71313877D01*
X68529551Y-71227673D01*
X68383065Y-71097372D01*
X68284963Y-71001718D01*
X68103381Y-70811551D01*
X67989808Y-70674378D01*
X67942987Y-70588350D01*
X67961661Y-70551618D01*
X67977703Y-70549913D01*
X68020048Y-70579532D01*
G37*
G36*
X64134082Y-70176512D02*
G01*
X64177979Y-70216696D01*
X64199266Y-70242566D01*
X64237041Y-70302528D01*
X64259783Y-70381753D01*
X64270003Y-70500144D01*
X64270213Y-70677605D01*
X64267645Y-70784412D01*
X64260036Y-70988195D01*
X64248962Y-71119597D01*
X64231208Y-71194587D01*
X64203563Y-71229131D01*
X64176418Y-71237825D01*
X64094996Y-71212873D01*
X64036298Y-71153602D01*
X63976634Y-71049700D01*
X63908955Y-70917333D01*
X63897762Y-70893855D01*
X63855210Y-70814174D01*
X63804569Y-70760048D01*
X63727626Y-70724384D01*
X63606168Y-70700088D01*
X63421981Y-70680066D01*
X63327478Y-70671735D01*
X63228288Y-70646452D01*
X63195375Y-70584846D01*
X63194956Y-70572862D01*
X63236651Y-70489120D01*
X63353466Y-70400251D01*
X63533001Y-70313176D01*
X63762854Y-70234817D01*
X63836295Y-70214931D01*
X63988037Y-70177518D01*
X64079034Y-70164082D01*
X64134082Y-70176512D01*
G37*
G36*
X64778386Y-68765799D02*
G01*
X64877079Y-68780790D01*
X64941596Y-68817330D01*
X64995294Y-68878771D01*
X65047950Y-68976122D01*
X65109328Y-69130737D01*
X65168342Y-69313781D01*
X65183492Y-69368292D01*
X65230294Y-69549685D01*
X65253853Y-69667250D01*
X65255406Y-69742044D01*
X65236189Y-69795128D01*
X65210668Y-69831119D01*
X65175875Y-69869617D01*
X65140598Y-69880698D01*
X65091382Y-69855974D01*
X65014767Y-69787060D01*
X64897297Y-69665567D01*
X64829391Y-69593495D01*
X64687369Y-69444556D01*
X64583941Y-69347099D01*
X64497707Y-69287748D01*
X64407269Y-69253131D01*
X64291228Y-69229873D01*
X64233043Y-69220785D01*
X64033110Y-69176120D01*
X63906374Y-69116323D01*
X63858074Y-69045059D01*
X63883880Y-68976645D01*
X63985088Y-68904298D01*
X64148744Y-68840099D01*
X64348952Y-68791538D01*
X64559815Y-68766108D01*
X64618505Y-68764138D01*
X64778386Y-68765799D01*
G37*
G36*
X65675086Y-65223296D02*
G01*
X65826454Y-65264403D01*
X66017810Y-65293429D01*
X66217503Y-65308026D01*
X66393881Y-65305847D01*
X66512886Y-65285436D01*
X66629418Y-65256779D01*
X66691036Y-65267737D01*
X66686354Y-65311623D01*
X66637297Y-65358530D01*
X66591648Y-65406957D01*
X66607391Y-65424334D01*
X66656359Y-65461313D01*
X66662608Y-65492000D01*
X66650903Y-65548021D01*
X66602318Y-65548305D01*
X66527183Y-65512533D01*
X66467240Y-65491159D01*
X66444611Y-65528770D01*
X66441739Y-65597674D01*
X66402053Y-65738019D01*
X66325347Y-65820098D01*
X66185861Y-65898790D01*
X66070907Y-65893768D01*
X65976226Y-65804843D01*
X65976022Y-65804531D01*
X65924591Y-65684309D01*
X65900191Y-65555106D01*
X66000000Y-65555106D01*
X66023576Y-65684492D01*
X66083250Y-65769367D01*
X66162445Y-65793150D01*
X66214506Y-65769612D01*
X66290325Y-65701755D01*
X66319584Y-65668696D01*
X66346142Y-65591694D01*
X66352715Y-65525130D01*
X66341508Y-65460776D01*
X66290587Y-65432197D01*
X66176695Y-65425739D01*
X66063352Y-65431067D01*
X66012963Y-65459388D01*
X66000253Y-65529209D01*
X66000000Y-65555106D01*
X65900191Y-65555106D01*
X65897879Y-65542863D01*
X65897699Y-65539623D01*
X65882393Y-65431126D01*
X65834273Y-65378933D01*
X65746000Y-65354697D01*
X65641246Y-65316327D01*
X65602434Y-65261488D01*
X65630209Y-65216185D01*
X65675086Y-65223296D01*
G37*
G36*
X66131958Y-66384851D02*
G01*
X66132521Y-66392156D01*
X66102299Y-66449726D01*
X66066261Y-66485913D01*
X66019062Y-66566878D01*
X66000000Y-66680276D01*
X65973312Y-66851374D01*
X65888836Y-66959238D01*
X65739953Y-67010053D01*
X65640706Y-67016000D01*
X65488973Y-67006124D01*
X65384549Y-66967127D01*
X65297169Y-66894522D01*
X65180596Y-66793771D01*
X65113462Y-66748027D01*
X65370639Y-66748027D01*
X65376410Y-66803463D01*
X65413305Y-66849971D01*
X65517799Y-66909465D01*
X65646364Y-66927652D01*
X65766115Y-66914398D01*
X65834262Y-66862602D01*
X65860387Y-66815139D01*
X65904597Y-66697413D01*
X65895894Y-66641954D01*
X65830753Y-66637778D01*
X65805331Y-66643436D01*
X65682435Y-66643798D01*
X65599652Y-66616946D01*
X65520485Y-66588839D01*
X65460396Y-66621080D01*
X65421649Y-66668030D01*
X65370639Y-66748027D01*
X65113462Y-66748027D01*
X65061026Y-66712298D01*
X65052261Y-66707499D01*
X64946168Y-66631334D01*
X64896787Y-66554050D01*
X64909955Y-66501059D01*
X64957495Y-66508313D01*
X65040818Y-66559209D01*
X65053891Y-66569225D01*
X65178203Y-66646695D01*
X65267455Y-66648948D01*
X65334097Y-66575257D01*
X65345429Y-66552174D01*
X65401103Y-66467744D01*
X65475627Y-66447432D01*
X65591155Y-66487569D01*
X65626968Y-66505542D01*
X65759606Y-66542106D01*
X65876814Y-66497872D01*
X65953824Y-66422064D01*
X66024187Y-66368779D01*
X66094920Y-66354474D01*
X66131958Y-66384851D01*
G37*
G36*
X63165593Y-61405362D02*
G01*
X63234520Y-61439505D01*
X63363739Y-61500989D01*
X63533223Y-61580355D01*
X63680343Y-61648521D01*
X63871198Y-61740694D01*
X64040215Y-61829859D01*
X64165827Y-61904213D01*
X64218210Y-61942814D01*
X64280723Y-61994727D01*
X64339904Y-62011410D01*
X64427425Y-61994922D01*
X64527953Y-61962942D01*
X64734862Y-61907222D01*
X64967651Y-61864746D01*
X65199427Y-61838460D01*
X65403297Y-61831314D01*
X65552365Y-61846255D01*
X65564178Y-61849349D01*
X65720003Y-61880591D01*
X65867186Y-61893268D01*
X65998827Y-61908976D01*
X66165067Y-61947538D01*
X66260725Y-61977105D01*
X66499364Y-62059499D01*
X66790812Y-61948889D01*
X66987352Y-61884219D01*
X67220438Y-61821744D01*
X67435567Y-61775777D01*
X67612390Y-61746221D01*
X67723003Y-61734646D01*
X67787819Y-61741671D01*
X67827252Y-61767913D01*
X67843614Y-61788139D01*
X67905197Y-61936255D01*
X67925543Y-62140396D01*
X67905799Y-62379068D01*
X67847113Y-62630778D01*
X67790282Y-62787281D01*
X67771757Y-62840002D01*
X67766503Y-62894518D01*
X67779131Y-62963925D01*
X67814246Y-63061321D01*
X67876459Y-63199800D01*
X67970375Y-63392461D01*
X68080883Y-63613196D01*
X68206521Y-63855358D01*
X68332115Y-64083899D01*
X68447314Y-64280929D01*
X68541770Y-64428558D01*
X68589466Y-64492298D01*
X68684748Y-64617917D01*
X68709287Y-64698732D01*
X68660740Y-64745856D01*
X68536762Y-64770404D01*
X68530689Y-64771024D01*
X68388856Y-64785217D01*
X68523937Y-65050261D01*
X68764105Y-65448416D01*
X69082598Y-65857117D01*
X69262521Y-66055544D01*
X69389425Y-66195277D01*
X69453976Y-66286702D01*
X69459067Y-66341075D01*
X69407593Y-66369654D01*
X69345854Y-66379655D01*
X69230576Y-66398948D01*
X69106726Y-66427191D01*
X68966669Y-66463826D01*
X69205556Y-66852688D01*
X69322477Y-67060056D01*
X69431923Y-67283775D01*
X69516473Y-67487129D01*
X69540930Y-67559471D01*
X69647583Y-67870954D01*
X69764930Y-68144220D01*
X69885456Y-68364157D01*
X70001650Y-68515651D01*
X70028744Y-68540726D01*
X70110560Y-68625922D01*
X70221921Y-68763616D01*
X70345357Y-68931506D01*
X70418562Y-69038380D01*
X70556130Y-69238066D01*
X70706521Y-69444966D01*
X70845062Y-69625502D01*
X70895569Y-69687529D01*
X71024070Y-69859804D01*
X71080002Y-69984651D01*
X71063422Y-70064951D01*
X70974387Y-70103583D01*
X70903911Y-70108174D01*
X70775105Y-70108174D01*
X71174071Y-70708322D01*
X71306305Y-70910686D01*
X71417085Y-71086870D01*
X71498765Y-71224160D01*
X71543698Y-71309843D01*
X71549293Y-71332214D01*
X71513774Y-71345892D01*
X71464296Y-71320704D01*
X71394576Y-71249221D01*
X71298330Y-71124012D01*
X71169276Y-70937646D01*
X71004720Y-70688210D01*
X70856481Y-70458934D01*
X70752073Y-70292105D01*
X70686194Y-70176745D01*
X70653538Y-70101877D01*
X70648803Y-70056523D01*
X70666683Y-70029707D01*
X70681903Y-70020111D01*
X70797130Y-69982216D01*
X70857780Y-69975652D01*
X70910185Y-69965467D01*
X70918715Y-69928571D01*
X70878553Y-69855449D01*
X70784884Y-69736589D01*
X70669369Y-69603512D01*
X70476701Y-69385981D01*
X70193046Y-69521607D01*
X70000992Y-69619906D01*
X69797674Y-69733859D01*
X69666434Y-69813938D01*
X69528464Y-69893596D01*
X69427183Y-69933723D01*
X69383941Y-69931402D01*
X69393622Y-69884472D01*
X69441694Y-69780189D01*
X69518335Y-69635230D01*
X69613723Y-69466274D01*
X69718036Y-69290000D01*
X69821451Y-69123086D01*
X69914146Y-68982211D01*
X69986300Y-68884053D01*
X70022066Y-68847833D01*
X70059227Y-68803906D01*
X70041596Y-68740114D01*
X69963035Y-68642536D01*
X69905203Y-68582931D01*
X69806787Y-68491677D01*
X69746075Y-68459357D01*
X69703969Y-68477237D01*
X69695377Y-68486953D01*
X69641859Y-68536921D01*
X69533183Y-68627310D01*
X69384872Y-68745533D01*
X69212447Y-68879004D01*
X69202608Y-68886510D01*
X69018235Y-69027649D01*
X68845863Y-69160658D01*
X68705184Y-69270277D01*
X68617911Y-69339600D01*
X68525147Y-69403758D01*
X68469691Y-69411965D01*
X68451773Y-69359685D01*
X68471622Y-69242376D01*
X68529467Y-69055500D01*
X68625537Y-68794518D01*
X68648427Y-68735420D01*
X68728755Y-68526104D01*
X68794642Y-68348287D01*
X68840689Y-68217023D01*
X68861501Y-68147365D01*
X68861764Y-68140257D01*
X68815914Y-68126838D01*
X68700222Y-68099765D01*
X68531463Y-68062797D01*
X68326408Y-68019696D01*
X68296626Y-68013564D01*
X68077899Y-67968093D01*
X67883342Y-67926632D01*
X67733328Y-67893591D01*
X67648232Y-67873379D01*
X67645478Y-67872627D01*
X67575536Y-67864609D01*
X67549259Y-67909379D01*
X67546087Y-67977265D01*
X67525606Y-68090465D01*
X67481168Y-68163408D01*
X67440093Y-68181019D01*
X67399328Y-68150212D01*
X67347245Y-68057827D01*
X67303506Y-67962352D01*
X67220225Y-67779484D01*
X67157766Y-67673455D01*
X67101763Y-67640068D01*
X67037845Y-67675126D01*
X66951645Y-67774431D01*
X66897975Y-67843896D01*
X66696221Y-68102567D01*
X66515222Y-68325716D01*
X66361572Y-68505808D01*
X66241861Y-68635306D01*
X66162683Y-68706676D01*
X66133772Y-68717469D01*
X66100514Y-68738768D01*
X66069177Y-68821963D01*
X66065622Y-68837788D01*
X66033957Y-68928918D01*
X65965923Y-69084668D01*
X65867927Y-69292356D01*
X65746377Y-69539301D01*
X65607680Y-69812821D01*
X65458243Y-70100234D01*
X65304473Y-70388859D01*
X65152779Y-70666015D01*
X65047094Y-70853703D01*
X64912780Y-71081006D01*
X64810341Y-71234861D01*
X64734320Y-71321894D01*
X64679257Y-71348730D01*
X64650285Y-71335271D01*
X64663813Y-71291849D01*
X64714705Y-71185634D01*
X64795946Y-71030223D01*
X64900525Y-70839218D01*
X64966302Y-70722422D01*
X65155551Y-70383199D01*
X65338455Y-70043382D01*
X65509029Y-69715052D01*
X65661287Y-69410287D01*
X65789241Y-69141168D01*
X65886906Y-68919775D01*
X65948294Y-68758187D01*
X65960584Y-68716099D01*
X65988892Y-68589346D01*
X65985812Y-68513851D01*
X65943013Y-68455585D01*
X65884857Y-68406744D01*
X65757043Y-68304240D01*
X65680152Y-68452388D01*
X65599464Y-68584513D01*
X65536677Y-68633219D01*
X65490869Y-68604432D01*
X65495963Y-68542665D01*
X65542201Y-68439832D01*
X65577244Y-68382158D01*
X65692940Y-68207329D01*
X65592470Y-68163944D01*
X65477041Y-68105332D01*
X65412108Y-68065236D01*
X65359891Y-68038352D01*
X65314070Y-68048832D01*
X65261011Y-68108815D01*
X65187083Y-68230440D01*
X65147736Y-68300655D01*
X65084109Y-68392364D01*
X65034617Y-68406042D01*
X65020667Y-68395555D01*
X65004949Y-68336660D01*
X65040827Y-68231554D01*
X65084210Y-68148407D01*
X65151891Y-68014882D01*
X65167364Y-67938757D01*
X65129495Y-67905345D01*
X65064985Y-67899478D01*
X64997267Y-67881792D01*
X64984000Y-67860456D01*
X64947294Y-67819015D01*
X64897373Y-67798781D01*
X64834127Y-67802635D01*
X64775927Y-67861876D01*
X64716855Y-67970080D01*
X64638117Y-68117221D01*
X64579851Y-68186575D01*
X64535708Y-68184535D01*
X64521555Y-68166757D01*
X64523794Y-68104349D01*
X64560785Y-67997728D01*
X64584764Y-67946927D01*
X64639083Y-67835728D01*
X64671126Y-67761002D01*
X64674782Y-67747312D01*
X64635233Y-67737397D01*
X64534090Y-67737413D01*
X64454457Y-67742456D01*
X64295203Y-67768669D01*
X64185025Y-67825605D01*
X64123040Y-67885338D01*
X64038114Y-68003067D01*
X63925968Y-68193496D01*
X63791427Y-68446993D01*
X63639313Y-68753926D01*
X63474450Y-69104664D01*
X63301662Y-69489573D01*
X63186849Y-69754783D01*
X62997804Y-70190828D01*
X62830566Y-70562239D01*
X62686787Y-70865706D01*
X62568119Y-71097924D01*
X62476215Y-71255582D01*
X62412726Y-71335373D01*
X62392662Y-71345043D01*
X62338503Y-71330055D01*
X62333565Y-71320102D01*
X62351600Y-71255466D01*
X62397035Y-71141160D01*
X62456868Y-71006080D01*
X62518093Y-70879123D01*
X62567708Y-70789186D01*
X62580765Y-70770783D01*
X62622639Y-70701312D01*
X62686256Y-70573225D01*
X62760271Y-70409827D01*
X62788384Y-70344227D01*
X62940324Y-69983933D01*
X62738676Y-69953694D01*
X62605376Y-69940867D01*
X62527093Y-69957548D01*
X62477219Y-70004771D01*
X62431751Y-70078235D01*
X62361392Y-70205514D01*
X62273951Y-70371009D01*
X62177241Y-70559118D01*
X62079073Y-70754241D01*
X61987257Y-70940778D01*
X61909604Y-71103128D01*
X61853926Y-71225690D01*
X61828034Y-71292864D01*
X61828273Y-71300870D01*
X61879638Y-71277607D01*
X61968542Y-71220704D01*
X61981297Y-71211722D01*
X62082188Y-71160705D01*
X62137911Y-71175585D01*
X62138008Y-71251932D01*
X62130199Y-71274796D01*
X62085563Y-71319366D01*
X61984085Y-71341006D01*
X61867573Y-71345043D01*
X61631904Y-71345043D01*
X62109393Y-70406348D01*
X62274755Y-70080872D01*
X62403394Y-69825342D01*
X62498658Y-69630969D01*
X62563897Y-69488961D01*
X62602460Y-69390528D01*
X62617698Y-69326881D01*
X62612958Y-69289228D01*
X62591592Y-69268780D01*
X62556948Y-69256747D01*
X62548308Y-69254468D01*
X62451356Y-69229115D01*
X62536874Y-69116701D01*
X62713277Y-69116701D01*
X62759038Y-69154556D01*
X62809761Y-69214023D01*
X62806531Y-69269435D01*
X62818209Y-69356232D01*
X62904531Y-69452235D01*
X62922997Y-69467191D01*
X63017294Y-69536807D01*
X63080757Y-69575082D01*
X63089440Y-69577597D01*
X63117791Y-69540064D01*
X63169364Y-69439841D01*
X63234468Y-69296224D01*
X63255092Y-69247791D01*
X63319670Y-69089946D01*
X63368213Y-68963668D01*
X63392440Y-68890753D01*
X63393739Y-68882938D01*
X63360573Y-68835399D01*
X63304457Y-68792625D01*
X63236877Y-68764704D01*
X63164568Y-68779762D01*
X63056673Y-68844581D01*
X63051246Y-68848260D01*
X62939803Y-68916245D01*
X62853123Y-68955673D01*
X62832865Y-68959652D01*
X62770249Y-68994366D01*
X62733493Y-69043584D01*
X62713277Y-69116701D01*
X62536874Y-69116701D01*
X62562253Y-69083340D01*
X62666870Y-68971240D01*
X62805893Y-68852964D01*
X62874431Y-68803777D01*
X63084756Y-68659865D01*
X63291338Y-68511222D01*
X63337575Y-68476346D01*
X63570434Y-68476346D01*
X63584630Y-68516482D01*
X63617205Y-68481468D01*
X63631463Y-68449358D01*
X63634550Y-68403758D01*
X63614102Y-68407791D01*
X63572004Y-68464348D01*
X63570434Y-68476346D01*
X63337575Y-68476346D01*
X63481527Y-68367765D01*
X63642673Y-68239415D01*
X63762128Y-68136092D01*
X63827240Y-68067713D01*
X63835478Y-68050178D01*
X63805673Y-67977741D01*
X63791304Y-67965739D01*
X63752724Y-67974806D01*
X63747130Y-68002412D01*
X63720765Y-68080669D01*
X63661632Y-68170671D01*
X63596180Y-68238679D01*
X63548672Y-68241044D01*
X63510279Y-68208696D01*
X63453046Y-68117766D01*
X63387083Y-67960439D01*
X63319287Y-67757273D01*
X63256559Y-67528826D01*
X63208254Y-67308744D01*
X63153073Y-67017856D01*
X63009776Y-67156745D01*
X62940246Y-67222037D01*
X62891628Y-67252138D01*
X62857809Y-67236894D01*
X62832673Y-67166149D01*
X62810108Y-67029750D01*
X62783997Y-66817540D01*
X62778749Y-66773043D01*
X62749639Y-66555101D01*
X62709310Y-66290743D01*
X62664077Y-66020146D01*
X62636453Y-65867478D01*
X62595321Y-65622696D01*
X62567415Y-65386209D01*
X62550754Y-65131441D01*
X62543354Y-64831818D01*
X62543281Y-64811536D01*
X62661217Y-64811536D01*
X62700958Y-65355323D01*
X62787788Y-65961816D01*
X62818474Y-66132522D01*
X62858170Y-66352041D01*
X62894398Y-66564594D01*
X62922022Y-66739464D01*
X62932293Y-66813223D01*
X62959527Y-67030097D01*
X63057549Y-66907167D01*
X63155570Y-66784236D01*
X63226107Y-66891890D01*
X63268092Y-66986409D01*
X63314826Y-67138248D01*
X63357309Y-67317452D01*
X63363775Y-67350119D01*
X63405946Y-67543391D01*
X63454648Y-67726652D01*
X63500052Y-67863297D01*
X63504372Y-67873790D01*
X63577839Y-68046884D01*
X63674933Y-67873790D01*
X63762326Y-67750893D01*
X63839008Y-67705585D01*
X63897646Y-67739969D01*
X63921890Y-67802929D01*
X63939856Y-67863893D01*
X63966796Y-67872517D01*
X64022926Y-67824351D01*
X64076616Y-67768855D01*
X64244669Y-67647221D01*
X64376339Y-67605501D01*
X64413541Y-67591965D01*
X64732469Y-67591965D01*
X64778839Y-67632458D01*
X64837194Y-67647253D01*
X65048743Y-67714322D01*
X65292435Y-67829857D01*
X65539925Y-67977931D01*
X65762869Y-68142617D01*
X65840247Y-68210909D01*
X66109271Y-68463774D01*
X66268374Y-68015974D01*
X66354350Y-67752806D01*
X66400513Y-67556844D01*
X66409245Y-67417673D01*
X66408016Y-67405328D01*
X66391014Y-67300437D01*
X66360403Y-67265484D01*
X66294474Y-67282434D01*
X66271581Y-67291968D01*
X66186834Y-67310151D01*
X66032291Y-67326813D01*
X65826508Y-67340546D01*
X65588036Y-67349940D01*
X65476668Y-67352349D01*
X65241869Y-67356985D01*
X65040452Y-67362601D01*
X64887938Y-67368635D01*
X64799846Y-67374523D01*
X64784519Y-67377451D01*
X64764408Y-67426131D01*
X64741393Y-67506877D01*
X64732469Y-67591965D01*
X64413541Y-67591965D01*
X64531362Y-67549096D01*
X64615437Y-67442518D01*
X64630608Y-67350208D01*
X64605274Y-67289621D01*
X64581806Y-67281043D01*
X64488922Y-67256221D01*
X64351294Y-67191345D01*
X64193764Y-67100797D01*
X64041171Y-66998962D01*
X63918355Y-66900223D01*
X63909155Y-66891542D01*
X63764085Y-66734489D01*
X63647445Y-66562667D01*
X63549563Y-66356577D01*
X63460763Y-66096723D01*
X63393808Y-65852886D01*
X63331131Y-65598585D01*
X63297680Y-65412638D01*
X63299384Y-65278177D01*
X63321334Y-65226957D01*
X63428796Y-65226957D01*
X63453343Y-65436636D01*
X63490581Y-65669071D01*
X63546987Y-65920239D01*
X63614262Y-66158698D01*
X63684105Y-66353006D01*
X63710319Y-66410169D01*
X63769738Y-66511246D01*
X63826055Y-66544457D01*
X63901380Y-66511071D01*
X64001715Y-66426918D01*
X64095637Y-66365173D01*
X64150294Y-66375132D01*
X64160887Y-66447149D01*
X64122617Y-66571581D01*
X64098750Y-66621906D01*
X64001474Y-66812585D01*
X64128302Y-66914073D01*
X64219029Y-66980803D01*
X64279483Y-67014719D01*
X64285022Y-67015781D01*
X64317488Y-66978979D01*
X64372336Y-66882871D01*
X64429686Y-66765307D01*
X64507479Y-66619345D01*
X64566878Y-66559357D01*
X64606729Y-66584667D01*
X64625879Y-66694599D01*
X64623724Y-66878956D01*
X64608521Y-67148828D01*
X64763130Y-67173703D01*
X64887141Y-67194574D01*
X64979520Y-67211667D01*
X64984000Y-67212600D01*
X65133932Y-67229248D01*
X65342940Y-67233134D01*
X65582890Y-67225646D01*
X65825651Y-67208174D01*
X66043091Y-67182105D01*
X66191815Y-67152984D01*
X66351638Y-67113624D01*
X66446404Y-67098774D01*
X66495730Y-67107733D01*
X66519233Y-67139800D01*
X66519800Y-67141257D01*
X66548339Y-67181607D01*
X66569684Y-67152971D01*
X66580977Y-67074605D01*
X66579358Y-66965765D01*
X66562985Y-66850407D01*
X66540454Y-66689934D01*
X66550085Y-66585895D01*
X66589188Y-66548625D01*
X66635885Y-66570413D01*
X66681980Y-66593901D01*
X66715361Y-66566359D01*
X66741517Y-66475927D01*
X66765934Y-66310742D01*
X66769436Y-66281735D01*
X66781909Y-66162490D01*
X66779683Y-66122658D01*
X66760868Y-66154236D01*
X66747221Y-66187739D01*
X66699087Y-66272926D01*
X66650281Y-66310910D01*
X66620635Y-66289346D01*
X66618434Y-66267919D01*
X66638021Y-66165499D01*
X66684748Y-66071642D01*
X66740570Y-66016789D01*
X66768773Y-66014336D01*
X66802392Y-66006329D01*
X66827312Y-65943589D01*
X66847203Y-65813152D01*
X66858117Y-65698565D01*
X66876565Y-65481075D01*
X66896390Y-65249465D01*
X66911697Y-65072348D01*
X66936696Y-64785217D01*
X66589826Y-64785217D01*
X66382175Y-64778674D01*
X66222316Y-64753715D01*
X66070309Y-64702351D01*
X65984361Y-64664079D01*
X65843529Y-64602106D01*
X65768634Y-64580844D01*
X65748539Y-64597815D01*
X65752447Y-64612474D01*
X65775867Y-64717761D01*
X65779130Y-64766743D01*
X65807721Y-64836351D01*
X65845391Y-64851478D01*
X65904033Y-64883315D01*
X65911652Y-64910893D01*
X65952678Y-65005392D01*
X66063323Y-65084940D01*
X66224933Y-65138275D01*
X66308770Y-65150670D01*
X66458255Y-65174048D01*
X66521293Y-65202400D01*
X66498968Y-65228708D01*
X66392363Y-65245956D01*
X66293581Y-65249043D01*
X66137385Y-65240413D01*
X66030372Y-65206111D01*
X65934344Y-65133518D01*
X65929146Y-65128657D01*
X65838920Y-65055020D01*
X65772329Y-65020402D01*
X65761687Y-65020355D01*
X65706974Y-65000546D01*
X65622354Y-64936229D01*
X65603656Y-64918910D01*
X65485156Y-64805379D01*
X65542573Y-65250321D01*
X65568853Y-65440916D01*
X65593736Y-65598536D01*
X65613802Y-65702651D01*
X65622813Y-65732192D01*
X65613567Y-65787166D01*
X65584782Y-65819624D01*
X65538374Y-65834336D01*
X65475498Y-65800350D01*
X65381174Y-65707953D01*
X65337040Y-65658977D01*
X65224135Y-65520676D01*
X65126933Y-65383111D01*
X65079918Y-65302033D01*
X65032485Y-65209491D01*
X65004956Y-65189753D01*
X64979684Y-65235652D01*
X64971152Y-65257859D01*
X64945250Y-65315558D01*
X64915349Y-65324162D01*
X64862014Y-65277290D01*
X64792657Y-65199280D01*
X64652695Y-65039083D01*
X64541409Y-65160580D01*
X64430122Y-65282077D01*
X64590854Y-65260518D01*
X64751587Y-65238959D01*
X64782594Y-65445732D01*
X64786423Y-65643559D01*
X64732207Y-65782086D01*
X64622953Y-65856122D01*
X64538338Y-65867478D01*
X64369568Y-65845043D01*
X64270522Y-65773716D01*
X64233672Y-65647468D01*
X64233043Y-65622968D01*
X64228942Y-65548322D01*
X64321391Y-65548322D01*
X64351828Y-65688990D01*
X64441880Y-65765175D01*
X64530432Y-65779130D01*
X64631828Y-65740728D01*
X64669764Y-65680980D01*
X64684817Y-65586631D01*
X64676795Y-65480178D01*
X64651491Y-65395216D01*
X64615325Y-65365212D01*
X64459558Y-65396120D01*
X64371582Y-65424356D01*
X64332073Y-65461955D01*
X64321709Y-65520958D01*
X64321391Y-65548322D01*
X64228942Y-65548322D01*
X64226825Y-65509799D01*
X64198193Y-65477878D01*
X64132180Y-65520417D01*
X64090345Y-65558261D01*
X63996867Y-65623913D01*
X63920772Y-65644734D01*
X63880536Y-65624866D01*
X63894634Y-65568449D01*
X63932661Y-65522922D01*
X63958556Y-65480081D01*
X63910574Y-65469913D01*
X63838474Y-65457166D01*
X63835354Y-65428377D01*
X63887173Y-65397724D01*
X63979892Y-65379385D01*
X64001130Y-65378460D01*
X64136634Y-65366291D01*
X64246772Y-65340723D01*
X64255130Y-65337391D01*
X64287784Y-65314340D01*
X64246378Y-65301414D01*
X64131045Y-65296322D01*
X64003569Y-65286364D01*
X63945688Y-65263248D01*
X63945913Y-65249043D01*
X64003716Y-65221037D01*
X64113945Y-65205798D01*
X64150700Y-65204870D01*
X64295850Y-65186029D01*
X64413872Y-65115911D01*
X64461987Y-65071069D01*
X64546827Y-64973970D01*
X64576463Y-64889297D01*
X64565377Y-64775178D01*
X64565014Y-64773232D01*
X64539571Y-64657234D01*
X64516257Y-64581349D01*
X64512747Y-64574418D01*
X64472595Y-64584761D01*
X64386452Y-64644162D01*
X64271860Y-64740291D01*
X64254995Y-64755568D01*
X64069246Y-64900915D01*
X63852212Y-65035583D01*
X63723766Y-65099226D01*
X63428796Y-65226957D01*
X63321334Y-65226957D01*
X63342172Y-65178333D01*
X63431973Y-65096239D01*
X63574716Y-65015027D01*
X63711686Y-64948541D01*
X63968193Y-64808922D01*
X64185305Y-64656515D01*
X64277217Y-64574234D01*
X64431676Y-64432590D01*
X64542393Y-64364463D01*
X64613384Y-64369041D01*
X64648664Y-64445512D01*
X64653766Y-64498087D01*
X64676339Y-64629616D01*
X64726480Y-64791090D01*
X64760120Y-64873565D01*
X64818090Y-64996017D01*
X64853805Y-65047203D01*
X64878982Y-65037414D01*
X64898466Y-64995043D01*
X64942637Y-64916884D01*
X64993169Y-64908962D01*
X65057131Y-64975512D01*
X65141592Y-65120771D01*
X65156487Y-65149652D01*
X65236426Y-65298274D01*
X65312118Y-65425705D01*
X65357865Y-65492000D01*
X65393629Y-65530560D01*
X65412563Y-65526830D01*
X65417052Y-65467724D01*
X65409478Y-65340157D01*
X65402115Y-65249043D01*
X65382409Y-65059430D01*
X65357206Y-64880600D01*
X65331957Y-64751221D01*
X65331917Y-64751068D01*
X65306912Y-64606382D01*
X65325623Y-64538465D01*
X65388081Y-64547296D01*
X65494314Y-64632853D01*
X65495352Y-64633858D01*
X65643355Y-64777308D01*
X65617242Y-64616393D01*
X65611257Y-64500261D01*
X65646635Y-64440487D01*
X65732731Y-64434666D01*
X65878899Y-64480395D01*
X65980291Y-64523102D01*
X66215034Y-64606640D01*
X66457355Y-64658605D01*
X66677030Y-64674074D01*
X66810633Y-64658295D01*
X66891369Y-64618493D01*
X66928358Y-64534257D01*
X66936039Y-64474902D01*
X66956350Y-64369175D01*
X66988384Y-64311842D01*
X66993913Y-64309425D01*
X67023783Y-64342930D01*
X67042559Y-64451340D01*
X67050908Y-64621998D01*
X67049498Y-64842246D01*
X67038999Y-65099429D01*
X67020077Y-65380888D01*
X66993403Y-65673968D01*
X66959643Y-65966011D01*
X66919466Y-66244360D01*
X66880155Y-66463826D01*
X66835195Y-66657193D01*
X66767402Y-66908697D01*
X66683997Y-67193397D01*
X66592200Y-67486351D01*
X66529345Y-67675566D01*
X66448682Y-67915244D01*
X66381836Y-68120092D01*
X66332577Y-68278013D01*
X66304676Y-68376913D01*
X66301903Y-68404695D01*
X66302136Y-68404435D01*
X66341067Y-68355816D01*
X66422867Y-68251479D01*
X66536431Y-68105654D01*
X66670656Y-67932570D01*
X66704248Y-67889153D01*
X66840970Y-67717890D01*
X66960852Y-67578032D01*
X67012453Y-67524000D01*
X67016000Y-67524000D01*
X67038087Y-67546087D01*
X67060174Y-67524000D01*
X67038087Y-67501913D01*
X67016000Y-67524000D01*
X67012453Y-67524000D01*
X67052926Y-67481620D01*
X67106224Y-67440694D01*
X67112646Y-67440781D01*
X67161600Y-67489614D01*
X67238411Y-67584224D01*
X67280279Y-67640391D01*
X67406202Y-67814222D01*
X67430239Y-67536589D01*
X67443329Y-67379789D01*
X67453048Y-67252982D01*
X67456824Y-67192696D01*
X67466115Y-67065551D01*
X67484409Y-66894543D01*
X67508646Y-66701450D01*
X67535763Y-66508050D01*
X67562701Y-66336122D01*
X67586398Y-66207445D01*
X67603792Y-66143795D01*
X67604405Y-66142765D01*
X67647086Y-66116314D01*
X67720883Y-66145944D01*
X67770057Y-66178904D01*
X67854726Y-66229922D01*
X67900649Y-66239681D01*
X67903096Y-66234921D01*
X67907787Y-66065396D01*
X67897297Y-65826023D01*
X67873517Y-65533640D01*
X67838339Y-65205082D01*
X67793656Y-64857184D01*
X67741359Y-64506781D01*
X67683341Y-64170710D01*
X67654202Y-64020352D01*
X67603139Y-63747239D01*
X67577001Y-63555427D01*
X67575707Y-63441483D01*
X67599174Y-63401974D01*
X67639965Y-63425774D01*
X67674877Y-63498375D01*
X67716415Y-63645357D01*
X67762479Y-63853187D01*
X67810970Y-64108330D01*
X67859787Y-64397251D01*
X67906830Y-64706418D01*
X67950001Y-65022295D01*
X67987197Y-65331348D01*
X68016321Y-65620044D01*
X68035270Y-65874847D01*
X68041005Y-66010474D01*
X68040692Y-66240362D01*
X68023634Y-66388617D01*
X67986420Y-66460945D01*
X67925641Y-66463048D01*
X67837888Y-66400631D01*
X67818559Y-66382596D01*
X67692884Y-66262191D01*
X67639148Y-66848922D01*
X67617161Y-67080233D01*
X67595659Y-67291062D01*
X67576941Y-67459839D01*
X67563304Y-67564993D01*
X67562017Y-67572909D01*
X67538621Y-67710167D01*
X67951654Y-67805610D01*
X68174408Y-67854752D01*
X68404669Y-67901756D01*
X68602124Y-67938494D01*
X68651126Y-67946647D01*
X68862260Y-67987598D01*
X69091196Y-68043735D01*
X69309814Y-68107086D01*
X69489995Y-68169677D01*
X69581283Y-68210407D01*
X69640640Y-68238025D01*
X69647915Y-68217500D01*
X69608869Y-68134380D01*
X69563406Y-68029325D01*
X69504700Y-67873540D01*
X69445458Y-67700746D01*
X69445441Y-67700696D01*
X69330229Y-67386221D01*
X69191031Y-67089238D01*
X69011449Y-66776217D01*
X68930955Y-66648800D01*
X68843834Y-66504274D01*
X68783850Y-66386342D01*
X68760958Y-66315253D01*
X68762638Y-66306356D01*
X68818905Y-66285083D01*
X68925246Y-66285353D01*
X68951275Y-66288575D01*
X69098987Y-66299984D01*
X69176270Y-66277069D01*
X69183881Y-66214111D01*
X69122576Y-66105386D01*
X68996221Y-65948755D01*
X68753257Y-65652109D01*
X68558625Y-65373277D01*
X68389110Y-65078243D01*
X68349631Y-65001337D01*
X68273333Y-64829068D01*
X68252693Y-64716717D01*
X68289504Y-64654170D01*
X68385562Y-64631315D01*
X68415422Y-64630609D01*
X68461217Y-64625961D01*
X68475784Y-64602378D01*
X68454414Y-64545400D01*
X68392402Y-64440568D01*
X68313418Y-64317247D01*
X68207273Y-64140965D01*
X68083917Y-63917409D01*
X67961524Y-63680254D01*
X67890479Y-63533455D01*
X67670254Y-63063025D01*
X67602641Y-63195252D01*
X67490967Y-63372767D01*
X67375271Y-63464552D01*
X67245254Y-63473001D01*
X67090619Y-63400509D01*
X67009252Y-63340851D01*
X67331105Y-63340851D01*
X67337208Y-63349489D01*
X67350060Y-63349565D01*
X67350169Y-63349565D01*
X67378493Y-63312290D01*
X67433831Y-63212272D01*
X67506696Y-63067222D01*
X67549428Y-62977605D01*
X67634596Y-62780368D01*
X67708462Y-62581511D01*
X67758508Y-62415623D01*
X67767432Y-62375228D01*
X67801729Y-62178058D01*
X67814355Y-62061251D01*
X67804813Y-62025541D01*
X67772607Y-62071666D01*
X67717239Y-62200362D01*
X67638213Y-62412365D01*
X67535030Y-62708413D01*
X67527359Y-62730925D01*
X67445915Y-62970220D01*
X67389155Y-63138337D01*
X67353491Y-63247799D01*
X67335337Y-63311129D01*
X67331105Y-63340851D01*
X67009252Y-63340851D01*
X67001347Y-63335055D01*
X66644423Y-63091666D01*
X66229899Y-62888840D01*
X66051242Y-62819483D01*
X65893428Y-62757573D01*
X65771714Y-62701582D01*
X65707035Y-62661401D01*
X65702052Y-62654504D01*
X65725113Y-62601166D01*
X65731259Y-62594374D01*
X65911652Y-62594374D01*
X65949217Y-62632310D01*
X66028036Y-62662415D01*
X66164947Y-62710647D01*
X66349335Y-62793866D01*
X66554890Y-62898465D01*
X66755303Y-63010841D01*
X66924267Y-63117389D01*
X66968086Y-63148541D01*
X67078775Y-63227919D01*
X67156082Y-63278424D01*
X67179722Y-63288915D01*
X67196475Y-63246160D01*
X67236872Y-63133790D01*
X67295982Y-62965792D01*
X67368875Y-62756151D01*
X67427677Y-62585663D01*
X67514869Y-62330528D01*
X67575318Y-62147015D01*
X67611458Y-62023356D01*
X67625725Y-61947784D01*
X67620554Y-61908529D01*
X67598381Y-61893824D01*
X67571259Y-61891826D01*
X67482864Y-61902586D01*
X67345526Y-61929924D01*
X67190012Y-61966421D01*
X67047088Y-62004663D01*
X66947520Y-62037233D01*
X66926238Y-62047309D01*
X66918122Y-62097875D01*
X66935267Y-62203476D01*
X66954939Y-62277238D01*
X66997295Y-62449928D01*
X66997057Y-62545228D01*
X66954133Y-62563199D01*
X66868431Y-62503905D01*
X66770179Y-62402200D01*
X66576309Y-62183704D01*
X66421716Y-62257424D01*
X66264218Y-62339180D01*
X66115564Y-62427609D01*
X65995438Y-62509707D01*
X65923526Y-62572470D01*
X65911652Y-62594374D01*
X65731259Y-62594374D01*
X65802834Y-62515269D01*
X65916529Y-62413501D01*
X66047511Y-62312553D01*
X66177093Y-62229115D01*
X66180441Y-62227237D01*
X66331304Y-62142995D01*
X66154608Y-62089847D01*
X66006644Y-62054338D01*
X65823249Y-62022157D01*
X65720222Y-62008763D01*
X65576668Y-61991042D01*
X65471017Y-61974005D01*
X65433092Y-61964043D01*
X65369841Y-61958637D01*
X65244994Y-61967586D01*
X65083470Y-61987342D01*
X64910188Y-62014359D01*
X64750068Y-62045089D01*
X64628028Y-62075985D01*
X64613817Y-62080666D01*
X64450650Y-62137156D01*
X64612140Y-62325821D01*
X64695468Y-62432679D01*
X64742785Y-62512530D01*
X64746467Y-62541648D01*
X64687210Y-62565159D01*
X64582527Y-62583784D01*
X64581484Y-62583899D01*
X64399193Y-62630429D01*
X64179879Y-62727013D01*
X63947994Y-62860253D01*
X63727992Y-63016752D01*
X63614775Y-63113544D01*
X63493645Y-63221768D01*
X63401550Y-63296586D01*
X63353330Y-63326232D01*
X63349565Y-63323793D01*
X63328443Y-63324148D01*
X63294348Y-63361864D01*
X63249003Y-63407841D01*
X63198888Y-63400018D01*
X63129926Y-63351672D01*
X63020722Y-63268121D01*
X62921020Y-63430321D01*
X62821569Y-63603063D01*
X62754273Y-63755592D01*
X62711044Y-63916372D01*
X62683794Y-64113864D01*
X62667812Y-64321391D01*
X62661217Y-64811536D01*
X62543281Y-64811536D01*
X62542555Y-64608522D01*
X62545019Y-64300341D01*
X62553667Y-64062784D01*
X62572466Y-63878151D01*
X62605382Y-63728747D01*
X62656381Y-63596873D01*
X62729430Y-63464833D01*
X62828494Y-63314929D01*
X62834381Y-63306386D01*
X62972223Y-63106609D01*
X62973155Y-62307248D01*
X62974021Y-62199649D01*
X63087729Y-62199649D01*
X63089699Y-62364003D01*
X63096602Y-62524099D01*
X63108649Y-62661433D01*
X63115491Y-62709043D01*
X63145487Y-62885739D01*
X63179267Y-62731130D01*
X63192885Y-62606201D01*
X63195016Y-62433148D01*
X63186463Y-62267304D01*
X63168139Y-62098260D01*
X63145881Y-61954850D01*
X63125001Y-61869739D01*
X63109330Y-61866083D01*
X63097755Y-61932186D01*
X63090485Y-62049542D01*
X63087729Y-62199649D01*
X62974021Y-62199649D01*
X62975768Y-61982765D01*
X62983971Y-61737977D01*
X62987953Y-61693714D01*
X63269744Y-61693714D01*
X63274928Y-61812701D01*
X63289042Y-61980136D01*
X63303658Y-62116232D01*
X63325466Y-62373857D01*
X63334231Y-62637924D01*
X63328751Y-62865909D01*
X63325902Y-62902738D01*
X63295818Y-63239130D01*
X63488343Y-63057648D01*
X63641505Y-62924257D01*
X63813937Y-62789644D01*
X63894178Y-62732868D01*
X64063807Y-62632979D01*
X64252311Y-62542043D01*
X64335917Y-62509024D01*
X64564348Y-62428477D01*
X64344441Y-62226413D01*
X64228983Y-62124455D01*
X64138157Y-62051831D01*
X64091834Y-62024348D01*
X64051141Y-62057295D01*
X63975525Y-62143779D01*
X63881162Y-62265265D01*
X63878766Y-62268503D01*
X63765262Y-62408285D01*
X63685564Y-62472629D01*
X63638699Y-62459926D01*
X63623697Y-62368565D01*
X63639585Y-62196936D01*
X63684661Y-61947005D01*
X63696633Y-61860309D01*
X63675726Y-61804684D01*
X63604179Y-61756708D01*
X63506032Y-61711401D01*
X63384112Y-61663434D01*
X63298138Y-61640677D01*
X63274689Y-61642760D01*
X63269744Y-61693714D01*
X62987953Y-61693714D01*
X62999594Y-61564310D01*
X63024465Y-61453190D01*
X63060414Y-61396046D01*
X63109270Y-61384303D01*
X63165593Y-61405362D01*
G37*
%TO.C,D1*%
D12*
X34380000Y-45780000D02*
X36620000Y-45780000D01*
X34380000Y-45900000D02*
X36620000Y-45900000D01*
X34380000Y-46020000D02*
X36620000Y-46020000D01*
X35500000Y-41730000D02*
X35500000Y-42380000D01*
X35500000Y-47270000D02*
X35500000Y-46620000D01*
X34380000Y-42380000D02*
X36620000Y-42380000D01*
X36620000Y-46620000D01*
X34380000Y-46620000D01*
X34380000Y-42380000D01*
%TO.C,TP1*%
X46950000Y-40000000D02*
G75*
G02*
X44050000Y-40000000I-1450000J0D01*
G01*
X44050000Y-40000000D02*
G75*
G02*
X46950000Y-40000000I1450000J0D01*
G01*
%TD*%
%LPC*%
D13*
%TO.C,TP2*%
X52500000Y-40000000D03*
%TD*%
D14*
%TO.C,SW1*%
X47460000Y-55080000D03*
X52540000Y-55080000D03*
D15*
X47460000Y-50000000D03*
D14*
X50000000Y-50000000D03*
X52540000Y-50000000D03*
%TD*%
D16*
%TO.C,D1*%
X35500000Y-48310000D03*
D17*
X35500000Y-40690000D03*
%TD*%
D13*
%TO.C,TP1*%
X45500000Y-40000000D03*
%TD*%
D18*
%TO.C,J1*%
X35500000Y-57040000D03*
D19*
X35500000Y-54500000D03*
X35500000Y-51960000D03*
%TD*%
D18*
%TO.C,J2*%
X29500000Y-42960000D03*
D19*
X29500000Y-45500000D03*
X29500000Y-48040000D03*
%TD*%
%LPD*%
M02*
