%TF.GenerationSoftware,KiCad,Pcbnew,10.0.3*%
%TF.CreationDate,2026-06-05T21:44:52+09:00*%
%TF.ProjectId,rs_lever,72735f6c-6576-4657-922e-6b696361645f,rev?*%
%TF.SameCoordinates,Original*%
%TF.FileFunction,Copper,L1,Top*%
%TF.FilePolarity,Positive*%
%FSLAX46Y46*%
G04 Gerber Fmt 4.6, Leading zero omitted, Abs format (unit mm)*
G04 Created by KiCad (PCBNEW 10.0.3) date 2026-06-05 21:44:52*
%MOMM*%
%LPD*%
G01*
G04 APERTURE LIST*
G04 Aperture macros list*
%AMRoundRect*
0 Rectangle with rounded corners*
0 $1 Rounding radius*
0 $2 $3 $4 $5 $6 $7 $8 $9 X,Y pos of 4 corners*
0 Add a 4 corners polygon primitive as box body*
4,1,4,$2,$3,$4,$5,$6,$7,$8,$9,$2,$3,0*
0 Add four circle primitives for the rounded corners*
1,1,$1+$1,$2,$3*
1,1,$1+$1,$4,$5*
1,1,$1+$1,$6,$7*
1,1,$1+$1,$8,$9*
0 Add four rect primitives between the rounded corners*
20,1,$1+$1,$2,$3,$4,$5,0*
20,1,$1+$1,$4,$5,$6,$7,0*
20,1,$1+$1,$6,$7,$8,$9,0*
20,1,$1+$1,$8,$9,$2,$3,0*%
G04 Aperture macros list end*
%TA.AperFunction,ComponentPad*%
%ADD10C,2.500000*%
%TD*%
%TA.AperFunction,ComponentPad*%
%ADD11C,1.200000*%
%TD*%
%TA.AperFunction,ComponentPad*%
%ADD12R,1.200000X1.200000*%
%TD*%
%TA.AperFunction,ComponentPad*%
%ADD13RoundRect,0.250000X0.550000X-0.550000X0.550000X0.550000X-0.550000X0.550000X-0.550000X-0.550000X0*%
%TD*%
%TA.AperFunction,ComponentPad*%
%ADD14C,1.600000*%
%TD*%
%TA.AperFunction,ComponentPad*%
%ADD15R,1.700000X1.700000*%
%TD*%
%TA.AperFunction,ComponentPad*%
%ADD16C,1.700000*%
%TD*%
%TA.AperFunction,Conductor*%
%ADD17C,0.500000*%
%TD*%
G04 APERTURE END LIST*
D10*
%TO.P,TP4,1,1_1*%
%TO.N,Net-(TP3-Pad1)*%
X44000000Y-59000000D03*
%TD*%
%TO.P,TP2,1,1_1*%
%TO.N,GND*%
X64000000Y-59000000D03*
%TD*%
D11*
%TO.P,SW1,*%
%TO.N,*%
X47460000Y-55080000D03*
X52540000Y-55080000D03*
D12*
%TO.P,SW1,1,A_1*%
%TO.N,+5V*%
X47460000Y-50000000D03*
D11*
%TO.P,SW1,2,B_2*%
%TO.N,Net-(D2-A)*%
X50000000Y-50000000D03*
%TO.P,SW1,3,C_3*%
%TO.N,GND*%
X52540000Y-50000000D03*
%TD*%
D13*
%TO.P,D2,1,K_1*%
%TO.N,/OUT*%
X32500000Y-38310000D03*
D14*
%TO.P,D2,2,A_2*%
%TO.N,Net-(D2-A)*%
X32500000Y-30690000D03*
%TD*%
D10*
%TO.P,TP3,1,1_1*%
%TO.N,Net-(TP3-Pad1)*%
X66000000Y-39000000D03*
%TD*%
D13*
%TO.P,D1,1,K_1*%
%TO.N,+5V*%
X35500000Y-48310000D03*
D14*
%TO.P,D1,2,A_2*%
%TO.N,Net-(D1-A)*%
X35500000Y-40690000D03*
%TD*%
D10*
%TO.P,TP1,1,1_1*%
%TO.N,Net-(D1-A)*%
X46000000Y-39000000D03*
%TD*%
D15*
%TO.P,J1,1,Pin_1_1*%
%TO.N,GND*%
X35500000Y-57040000D03*
D16*
%TO.P,J1,2,Pin_2_2*%
%TO.N,/OUT*%
X35500000Y-54500000D03*
%TO.P,J1,3,Pin_3_3*%
%TO.N,+5V*%
X35500000Y-51960000D03*
%TD*%
D15*
%TO.P,J2,1,Pin_1_1*%
%TO.N,GND*%
X29500000Y-42960000D03*
D16*
%TO.P,J2,2,Pin_2_2*%
%TO.N,/OUT*%
X29500000Y-45500000D03*
%TO.P,J2,3,Pin_3_3*%
%TO.N,+5V*%
X29500000Y-48040000D03*
%TD*%
%TO.N,Net-(TP3-Pad1)*%
D17*
X46000000Y-59000000D02*
X66000000Y-39000000D01*
X44000000Y-59000000D02*
X46000000Y-59000000D01*
%TO.N,GND*%
X27500000Y-49040000D02*
X35500000Y-57040000D01*
X27500000Y-44960000D02*
X27500000Y-49040000D01*
X29500000Y-42960000D02*
X27500000Y-44960000D01*
%TO.N,+5V*%
X35500000Y-48310000D02*
X35500000Y-51960000D01*
X33420000Y-51960000D02*
X35500000Y-51960000D01*
X29500000Y-48040000D02*
X33420000Y-51960000D01*
X45770000Y-48310000D02*
X47460000Y-50000000D01*
X35500000Y-48310000D02*
X45770000Y-48310000D01*
%TO.N,Net-(D2-A)*%
X34250000Y-32440000D02*
X32500000Y-30690000D01*
X34250000Y-41207767D02*
X34250000Y-32440000D01*
X41940000Y-41940000D02*
X34982233Y-41940000D01*
X34982233Y-41940000D02*
X34250000Y-41207767D01*
X50000000Y-50000000D02*
X41940000Y-41940000D01*
%TO.N,/OUT*%
X34121522Y-54500000D02*
X35500000Y-54500000D01*
X28200000Y-46800000D02*
X28200000Y-48578478D01*
X28200000Y-48578478D02*
X34121522Y-54500000D01*
X32500000Y-42500000D02*
X29500000Y-45500000D01*
X32500000Y-38310000D02*
X32500000Y-42500000D01*
X29500000Y-45500000D02*
X28200000Y-46800000D01*
%TO.N,Net-(D1-A)*%
X37190000Y-39000000D02*
X35500000Y-40690000D01*
X46000000Y-39000000D02*
X37190000Y-39000000D01*
%TD*%
%TA.AperFunction,Conductor*%
%TO.N,GND*%
G36*
X71442539Y-28520185D02*
G01*
X71488294Y-28572989D01*
X71499500Y-28624500D01*
X71499500Y-71375500D01*
X71479815Y-71442539D01*
X71427011Y-71488294D01*
X71375500Y-71499500D01*
X28624500Y-71499500D01*
X28557461Y-71479815D01*
X28511706Y-71427011D01*
X28500500Y-71375500D01*
X28500500Y-58934110D01*
X28500500Y-58934108D01*
X28487411Y-58885258D01*
X42249500Y-58885258D01*
X42249500Y-59114741D01*
X42274446Y-59304215D01*
X42279452Y-59342238D01*
X42295063Y-59400500D01*
X42338842Y-59563887D01*
X42426650Y-59775876D01*
X42426656Y-59775888D01*
X42541228Y-59974334D01*
X42541392Y-59974617D01*
X42681081Y-60156661D01*
X42681089Y-60156670D01*
X42843330Y-60318911D01*
X42843338Y-60318918D01*
X43025382Y-60458607D01*
X43025385Y-60458608D01*
X43025388Y-60458611D01*
X43224112Y-60573344D01*
X43224117Y-60573346D01*
X43224123Y-60573349D01*
X43315480Y-60611190D01*
X43436113Y-60661158D01*
X43657762Y-60720548D01*
X43885266Y-60750500D01*
X43885273Y-60750500D01*
X44114727Y-60750500D01*
X44114734Y-60750500D01*
X44342238Y-60720548D01*
X44563887Y-60661158D01*
X44775888Y-60573344D01*
X44974612Y-60458611D01*
X45156661Y-60318919D01*
X45156665Y-60318914D01*
X45156670Y-60318911D01*
X45318911Y-60156670D01*
X45318914Y-60156665D01*
X45318919Y-60156661D01*
X45458611Y-59974612D01*
X45552206Y-59812499D01*
X45602773Y-59764284D01*
X45659593Y-59750500D01*
X46073920Y-59750500D01*
X46171462Y-59731096D01*
X46218913Y-59721658D01*
X46355495Y-59665084D01*
X46404729Y-59632186D01*
X46478416Y-59582952D01*
X47176063Y-58885305D01*
X62250000Y-58885305D01*
X62250000Y-59114694D01*
X62250001Y-59114710D01*
X62279942Y-59342137D01*
X62339318Y-59563730D01*
X62427102Y-59775659D01*
X62427106Y-59775669D01*
X62541799Y-59974324D01*
X62541805Y-59974331D01*
X62598381Y-60048064D01*
X63435387Y-59211058D01*
X63440889Y-59231591D01*
X63519881Y-59368408D01*
X63631592Y-59480119D01*
X63768409Y-59559111D01*
X63788940Y-59564612D01*
X62951934Y-60401617D01*
X62951934Y-60401618D01*
X63025666Y-60458194D01*
X63224330Y-60572893D01*
X63224340Y-60572897D01*
X63436269Y-60660681D01*
X63657862Y-60720057D01*
X63885289Y-60749998D01*
X63885306Y-60750000D01*
X64114694Y-60750000D01*
X64114710Y-60749998D01*
X64342137Y-60720057D01*
X64563730Y-60660681D01*
X64775659Y-60572897D01*
X64775668Y-60572893D01*
X64974327Y-60458197D01*
X64974334Y-60458192D01*
X65048064Y-60401617D01*
X64211059Y-59564612D01*
X64231591Y-59559111D01*
X64368408Y-59480119D01*
X64480119Y-59368408D01*
X64559111Y-59231591D01*
X64564612Y-59211059D01*
X65401617Y-60048064D01*
X65458192Y-59974334D01*
X65458197Y-59974327D01*
X65572893Y-59775668D01*
X65572897Y-59775659D01*
X65660681Y-59563730D01*
X65720057Y-59342137D01*
X65749998Y-59114710D01*
X65750000Y-59114694D01*
X65750000Y-58885305D01*
X65749998Y-58885289D01*
X65720057Y-58657862D01*
X65660681Y-58436269D01*
X65572897Y-58224340D01*
X65572893Y-58224330D01*
X65458194Y-58025666D01*
X65401618Y-57951934D01*
X65401617Y-57951934D01*
X64564612Y-58788939D01*
X64559111Y-58768409D01*
X64480119Y-58631592D01*
X64368408Y-58519881D01*
X64231591Y-58440889D01*
X64211057Y-58435387D01*
X65048064Y-57598381D01*
X65048064Y-57598380D01*
X64974331Y-57541805D01*
X64974324Y-57541799D01*
X64775669Y-57427106D01*
X64775659Y-57427102D01*
X64563730Y-57339318D01*
X64342137Y-57279942D01*
X64114710Y-57250001D01*
X64114694Y-57250000D01*
X63885306Y-57250000D01*
X63885289Y-57250001D01*
X63657862Y-57279942D01*
X63436269Y-57339318D01*
X63224340Y-57427102D01*
X63224330Y-57427106D01*
X63025673Y-57541801D01*
X63025659Y-57541810D01*
X62951934Y-57598380D01*
X63788940Y-58435387D01*
X63768409Y-58440889D01*
X63631592Y-58519881D01*
X63519881Y-58631592D01*
X63440889Y-58768409D01*
X63435387Y-58788940D01*
X62598380Y-57951934D01*
X62541810Y-58025659D01*
X62541801Y-58025673D01*
X62427106Y-58224330D01*
X62427102Y-58224340D01*
X62339318Y-58436269D01*
X62279942Y-58657862D01*
X62250001Y-58885289D01*
X62250000Y-58885305D01*
X47176063Y-58885305D01*
X51239565Y-54821802D01*
X51300885Y-54788319D01*
X51370577Y-54793303D01*
X51426510Y-54835175D01*
X51450927Y-54900639D01*
X51449716Y-54928881D01*
X51439500Y-54993389D01*
X51439500Y-55166611D01*
X51444778Y-55199934D01*
X51460882Y-55301615D01*
X51466598Y-55337701D01*
X51520127Y-55502445D01*
X51598768Y-55656788D01*
X51700586Y-55796928D01*
X51823072Y-55919414D01*
X51963212Y-56021232D01*
X52117555Y-56099873D01*
X52282299Y-56153402D01*
X52453389Y-56180500D01*
X52453390Y-56180500D01*
X52626610Y-56180500D01*
X52626611Y-56180500D01*
X52797701Y-56153402D01*
X52962445Y-56099873D01*
X53116788Y-56021232D01*
X53256928Y-55919414D01*
X53379414Y-55796928D01*
X53481232Y-55656788D01*
X53559873Y-55502445D01*
X53613402Y-55337701D01*
X53640500Y-55166611D01*
X53640500Y-54993389D01*
X53613402Y-54822299D01*
X53559873Y-54657555D01*
X53481232Y-54503212D01*
X53379414Y-54363072D01*
X53256928Y-54240586D01*
X53116788Y-54138768D01*
X52962445Y-54060127D01*
X52797701Y-54006598D01*
X52797699Y-54006597D01*
X52797698Y-54006597D01*
X52666271Y-53985781D01*
X52626611Y-53979500D01*
X52453389Y-53979500D01*
X52388881Y-53989717D01*
X52319588Y-53980761D01*
X52266137Y-53935764D01*
X52245498Y-53869012D01*
X52264224Y-53801699D01*
X52281798Y-53779568D01*
X65357174Y-40704191D01*
X65418495Y-40670708D01*
X65476945Y-40672098D01*
X65657762Y-40720548D01*
X65885266Y-40750500D01*
X65885273Y-40750500D01*
X66114727Y-40750500D01*
X66114734Y-40750500D01*
X66342238Y-40720548D01*
X66563887Y-40661158D01*
X66775888Y-40573344D01*
X66974612Y-40458611D01*
X67156661Y-40318919D01*
X67156665Y-40318914D01*
X67156670Y-40318911D01*
X67318911Y-40156670D01*
X67318914Y-40156665D01*
X67318919Y-40156661D01*
X67458611Y-39974612D01*
X67573344Y-39775888D01*
X67661158Y-39563887D01*
X67720548Y-39342238D01*
X67750500Y-39114734D01*
X67750500Y-38885266D01*
X67720548Y-38657762D01*
X67661158Y-38436113D01*
X67573344Y-38224112D01*
X67458611Y-38025388D01*
X67458608Y-38025385D01*
X67458607Y-38025382D01*
X67318918Y-37843338D01*
X67318911Y-37843330D01*
X67156670Y-37681089D01*
X67156661Y-37681081D01*
X66974617Y-37541392D01*
X66775890Y-37426657D01*
X66775876Y-37426650D01*
X66563887Y-37338842D01*
X66342238Y-37279452D01*
X66304215Y-37274446D01*
X66114741Y-37249500D01*
X66114734Y-37249500D01*
X65885266Y-37249500D01*
X65885258Y-37249500D01*
X65668715Y-37278009D01*
X65657762Y-37279452D01*
X65613380Y-37291344D01*
X65436112Y-37338842D01*
X65224123Y-37426650D01*
X65224109Y-37426657D01*
X65025382Y-37541392D01*
X64843338Y-37681081D01*
X64681081Y-37843338D01*
X64541392Y-38025382D01*
X64426657Y-38224109D01*
X64426650Y-38224123D01*
X64338842Y-38436112D01*
X64279453Y-38657759D01*
X64279451Y-38657770D01*
X64249500Y-38885258D01*
X64249500Y-39114741D01*
X64258005Y-39179336D01*
X64279452Y-39342238D01*
X64303538Y-39432130D01*
X64327900Y-39523051D01*
X64326237Y-39592901D01*
X64295806Y-39642825D01*
X53851681Y-50086950D01*
X53790358Y-50120435D01*
X53720666Y-50115451D01*
X53664733Y-50073579D01*
X53640316Y-50008115D01*
X53640000Y-49999269D01*
X53640000Y-49913428D01*
X53612914Y-49742415D01*
X53559408Y-49577742D01*
X53480801Y-49423471D01*
X53476290Y-49417262D01*
X53476289Y-49417261D01*
X52834854Y-50058698D01*
X52840000Y-50039496D01*
X52840000Y-49960504D01*
X52819556Y-49884204D01*
X52780060Y-49815795D01*
X52724205Y-49759940D01*
X52655796Y-49720444D01*
X52579496Y-49700000D01*
X52500504Y-49700000D01*
X52424204Y-49720444D01*
X52355795Y-49759940D01*
X52299940Y-49815795D01*
X52260444Y-49884204D01*
X52240000Y-49960504D01*
X52240000Y-50039496D01*
X52260444Y-50115796D01*
X52299940Y-50184205D01*
X52355795Y-50240060D01*
X52424204Y-50279556D01*
X52500504Y-50300000D01*
X52579496Y-50300000D01*
X52598698Y-50294854D01*
X51957261Y-50936289D01*
X51957262Y-50936290D01*
X51963471Y-50940801D01*
X52117742Y-51019408D01*
X52282415Y-51072914D01*
X52453429Y-51100000D01*
X52539268Y-51100000D01*
X52606307Y-51119685D01*
X52652062Y-51172489D01*
X52662006Y-51241647D01*
X52632981Y-51305203D01*
X52626949Y-51311681D01*
X48772181Y-55166449D01*
X48710858Y-55199934D01*
X48641166Y-55194950D01*
X48585233Y-55153078D01*
X48560816Y-55087614D01*
X48560500Y-55078768D01*
X48560500Y-54993389D01*
X48533402Y-54822302D01*
X48533402Y-54822299D01*
X48479873Y-54657555D01*
X48401232Y-54503212D01*
X48299414Y-54363072D01*
X48176928Y-54240586D01*
X48036788Y-54138768D01*
X47882445Y-54060127D01*
X47717701Y-54006598D01*
X47717699Y-54006597D01*
X47717698Y-54006597D01*
X47586271Y-53985781D01*
X47546611Y-53979500D01*
X47373389Y-53979500D01*
X47333728Y-53985781D01*
X47202302Y-54006597D01*
X47037552Y-54060128D01*
X46883211Y-54138768D01*
X46821290Y-54183757D01*
X46743072Y-54240586D01*
X46743070Y-54240588D01*
X46743069Y-54240588D01*
X46620588Y-54363069D01*
X46620588Y-54363070D01*
X46620586Y-54363072D01*
X46598324Y-54393713D01*
X46518768Y-54503211D01*
X46440128Y-54657552D01*
X46386597Y-54822302D01*
X46374190Y-54900639D01*
X46359500Y-54993389D01*
X46359500Y-55166611D01*
X46364778Y-55199934D01*
X46380882Y-55301615D01*
X46386598Y-55337701D01*
X46440127Y-55502445D01*
X46518768Y-55656788D01*
X46620586Y-55796928D01*
X46743072Y-55919414D01*
X46883212Y-56021232D01*
X47037555Y-56099873D01*
X47202299Y-56153402D01*
X47373389Y-56180500D01*
X47373390Y-56180500D01*
X47458769Y-56180500D01*
X47525808Y-56200185D01*
X47571563Y-56252989D01*
X47581507Y-56322147D01*
X47552482Y-56385703D01*
X47546450Y-56392181D01*
X45739286Y-58199345D01*
X45677963Y-58232830D01*
X45608271Y-58227846D01*
X45552338Y-58185974D01*
X45544218Y-58173664D01*
X45520213Y-58132086D01*
X45458611Y-58025388D01*
X45458608Y-58025385D01*
X45458607Y-58025382D01*
X45318918Y-57843338D01*
X45318911Y-57843330D01*
X45156670Y-57681089D01*
X45156661Y-57681081D01*
X44974617Y-57541392D01*
X44775890Y-57426657D01*
X44775876Y-57426650D01*
X44563887Y-57338842D01*
X44342238Y-57279452D01*
X44304215Y-57274446D01*
X44114741Y-57249500D01*
X44114734Y-57249500D01*
X43885266Y-57249500D01*
X43885258Y-57249500D01*
X43668715Y-57278009D01*
X43657762Y-57279452D01*
X43618396Y-57290000D01*
X43436112Y-57338842D01*
X43224123Y-57426650D01*
X43224109Y-57426657D01*
X43025382Y-57541392D01*
X42843338Y-57681081D01*
X42681081Y-57843338D01*
X42541392Y-58025382D01*
X42426657Y-58224109D01*
X42426650Y-58224123D01*
X42338842Y-58436112D01*
X42279453Y-58657759D01*
X42279451Y-58657770D01*
X42249500Y-58885258D01*
X28487411Y-58885258D01*
X28466392Y-58806814D01*
X28400500Y-58692686D01*
X28307314Y-58599500D01*
X28250250Y-58566554D01*
X28193187Y-58533608D01*
X28129539Y-58516554D01*
X28065892Y-58499500D01*
X28065891Y-58499500D01*
X25624500Y-58499500D01*
X25557461Y-58479815D01*
X25511706Y-58427011D01*
X25500500Y-58375500D01*
X25500500Y-48652398D01*
X27449499Y-48652398D01*
X27478340Y-48797385D01*
X27478343Y-48797395D01*
X27534914Y-48933970D01*
X27565754Y-48980125D01*
X27565755Y-48980128D01*
X27617046Y-49056892D01*
X27617052Y-49056899D01*
X33643106Y-55082952D01*
X33643108Y-55082954D01*
X33650083Y-55087614D01*
X33716792Y-55132186D01*
X33766027Y-55165084D01*
X33769714Y-55166611D01*
X33902610Y-55221659D01*
X34018763Y-55244763D01*
X34037990Y-55248587D01*
X34047603Y-55250500D01*
X34047604Y-55250500D01*
X34047605Y-55250500D01*
X34195440Y-55250500D01*
X34312779Y-55250500D01*
X34379818Y-55270185D01*
X34413097Y-55301615D01*
X34469892Y-55379788D01*
X34583818Y-55493714D01*
X34617303Y-55555037D01*
X34612319Y-55624729D01*
X34570447Y-55680662D01*
X34539471Y-55697577D01*
X34407912Y-55746646D01*
X34407906Y-55746649D01*
X34292812Y-55832809D01*
X34292809Y-55832812D01*
X34206649Y-55947906D01*
X34206645Y-55947913D01*
X34156403Y-56082620D01*
X34156401Y-56082627D01*
X34150000Y-56142155D01*
X34150000Y-56790000D01*
X35066988Y-56790000D01*
X35034075Y-56847007D01*
X35000000Y-56974174D01*
X35000000Y-57105826D01*
X35034075Y-57232993D01*
X35066988Y-57290000D01*
X34150000Y-57290000D01*
X34150000Y-57937844D01*
X34156401Y-57997372D01*
X34156403Y-57997379D01*
X34206645Y-58132086D01*
X34206649Y-58132093D01*
X34292809Y-58247187D01*
X34292812Y-58247190D01*
X34407906Y-58333350D01*
X34407913Y-58333354D01*
X34542620Y-58383596D01*
X34542627Y-58383598D01*
X34602155Y-58389999D01*
X34602172Y-58390000D01*
X35250000Y-58390000D01*
X35250000Y-57473012D01*
X35307007Y-57505925D01*
X35434174Y-57540000D01*
X35565826Y-57540000D01*
X35692993Y-57505925D01*
X35750000Y-57473012D01*
X35750000Y-58390000D01*
X36397828Y-58390000D01*
X36397844Y-58389999D01*
X36457372Y-58383598D01*
X36457379Y-58383596D01*
X36592086Y-58333354D01*
X36592093Y-58333350D01*
X36707187Y-58247190D01*
X36707190Y-58247187D01*
X36793350Y-58132093D01*
X36793354Y-58132086D01*
X36843596Y-57997379D01*
X36843598Y-57997372D01*
X36849999Y-57937844D01*
X36850000Y-57937827D01*
X36850000Y-57290000D01*
X35933012Y-57290000D01*
X35965925Y-57232993D01*
X36000000Y-57105826D01*
X36000000Y-56974174D01*
X35965925Y-56847007D01*
X35933012Y-56790000D01*
X36850000Y-56790000D01*
X36850000Y-56142172D01*
X36849999Y-56142155D01*
X36843598Y-56082627D01*
X36843596Y-56082620D01*
X36793354Y-55947913D01*
X36793350Y-55947906D01*
X36707190Y-55832812D01*
X36707187Y-55832809D01*
X36592093Y-55746649D01*
X36592088Y-55746646D01*
X36460528Y-55697577D01*
X36404595Y-55655705D01*
X36380178Y-55590241D01*
X36395030Y-55521968D01*
X36416175Y-55493720D01*
X36530104Y-55379792D01*
X36655051Y-55207816D01*
X36751557Y-55018412D01*
X36817246Y-54816243D01*
X36850500Y-54606287D01*
X36850500Y-54393713D01*
X36817246Y-54183757D01*
X36751557Y-53981588D01*
X36655051Y-53792184D01*
X36655049Y-53792181D01*
X36655048Y-53792179D01*
X36530109Y-53620213D01*
X36379786Y-53469890D01*
X36207820Y-53344951D01*
X36207115Y-53344591D01*
X36199054Y-53340485D01*
X36148259Y-53292512D01*
X36131463Y-53224692D01*
X36153999Y-53158556D01*
X36199054Y-53119515D01*
X36207816Y-53115051D01*
X36229789Y-53099086D01*
X36379786Y-52990109D01*
X36379788Y-52990106D01*
X36379792Y-52990104D01*
X36530104Y-52839792D01*
X36530106Y-52839788D01*
X36530109Y-52839786D01*
X36655048Y-52667820D01*
X36655047Y-52667820D01*
X36655051Y-52667816D01*
X36751557Y-52478412D01*
X36817246Y-52276243D01*
X36850500Y-52066287D01*
X36850500Y-51853713D01*
X36817246Y-51643757D01*
X36751557Y-51441588D01*
X36655051Y-51252184D01*
X36655049Y-51252181D01*
X36655048Y-51252179D01*
X36530109Y-51080213D01*
X36379794Y-50929898D01*
X36379788Y-50929893D01*
X36301615Y-50873097D01*
X36258949Y-50817767D01*
X36250500Y-50772779D01*
X36250500Y-49673732D01*
X36270185Y-49606693D01*
X36322989Y-49560938D01*
X36335495Y-49556026D01*
X36369334Y-49544814D01*
X36518656Y-49452712D01*
X36642712Y-49328656D01*
X36734814Y-49179334D01*
X36746028Y-49145494D01*
X36785801Y-49088050D01*
X36850317Y-49061228D01*
X36863733Y-49060500D01*
X45407770Y-49060500D01*
X45474809Y-49080185D01*
X45495451Y-49096819D01*
X46323181Y-49924549D01*
X46356666Y-49985872D01*
X46359500Y-50012230D01*
X46359500Y-50647870D01*
X46359501Y-50647876D01*
X46365908Y-50707483D01*
X46416202Y-50842328D01*
X46416206Y-50842335D01*
X46502452Y-50957544D01*
X46502455Y-50957547D01*
X46617664Y-51043793D01*
X46617671Y-51043797D01*
X46752517Y-51094091D01*
X46752516Y-51094091D01*
X46759444Y-51094835D01*
X46812127Y-51100500D01*
X48107872Y-51100499D01*
X48167483Y-51094091D01*
X48302331Y-51043796D01*
X48417546Y-50957546D01*
X48503796Y-50842331D01*
X48554091Y-50707483D01*
X48560500Y-50647873D01*
X48560499Y-49921227D01*
X48566737Y-49899981D01*
X48568317Y-49877894D01*
X48576388Y-49867111D01*
X48580183Y-49854189D01*
X48596919Y-49839687D01*
X48610189Y-49821961D01*
X48622807Y-49817254D01*
X48632987Y-49808434D01*
X48654905Y-49805282D01*
X48675653Y-49797544D01*
X48688813Y-49800406D01*
X48702146Y-49798490D01*
X48722289Y-49807689D01*
X48743926Y-49812396D01*
X48761651Y-49825664D01*
X48765702Y-49827515D01*
X48772180Y-49833547D01*
X48863181Y-49924548D01*
X48896666Y-49985871D01*
X48899500Y-50012229D01*
X48899500Y-50086611D01*
X48926598Y-50257701D01*
X48980127Y-50422445D01*
X49058768Y-50576788D01*
X49160586Y-50716928D01*
X49283072Y-50839414D01*
X49423212Y-50941232D01*
X49577555Y-51019873D01*
X49742299Y-51073402D01*
X49913389Y-51100500D01*
X49913390Y-51100500D01*
X50086610Y-51100500D01*
X50086611Y-51100500D01*
X50257701Y-51073402D01*
X50422445Y-51019873D01*
X50576788Y-50941232D01*
X50716928Y-50839414D01*
X50839414Y-50716928D01*
X50941232Y-50576788D01*
X51019873Y-50422445D01*
X51073402Y-50257701D01*
X51100500Y-50086611D01*
X51100500Y-49913428D01*
X51440000Y-49913428D01*
X51440000Y-50086571D01*
X51467085Y-50257584D01*
X51520592Y-50422259D01*
X51599196Y-50576525D01*
X51603709Y-50582736D01*
X51603709Y-50582737D01*
X52186446Y-50000001D01*
X52186446Y-49999999D01*
X51603709Y-49417261D01*
X51603708Y-49417261D01*
X51599203Y-49423463D01*
X51599193Y-49423480D01*
X51520592Y-49577740D01*
X51467085Y-49742415D01*
X51440000Y-49913428D01*
X51100500Y-49913428D01*
X51100500Y-49913389D01*
X51073402Y-49742299D01*
X51019873Y-49577555D01*
X50941232Y-49423212D01*
X50839414Y-49283072D01*
X50716928Y-49160586D01*
X50583587Y-49063708D01*
X51957261Y-49063708D01*
X51957261Y-49063709D01*
X52540000Y-49646446D01*
X52540001Y-49646446D01*
X53122737Y-49063709D01*
X53116525Y-49059196D01*
X52962259Y-48980592D01*
X52797584Y-48927085D01*
X52626571Y-48900000D01*
X52453429Y-48900000D01*
X52282415Y-48927085D01*
X52117740Y-48980592D01*
X51963480Y-49059193D01*
X51963463Y-49059203D01*
X51957261Y-49063708D01*
X50583587Y-49063708D01*
X50576788Y-49058768D01*
X50422445Y-48980127D01*
X50257701Y-48926598D01*
X50257699Y-48926597D01*
X50257698Y-48926597D01*
X50126271Y-48905781D01*
X50086611Y-48899500D01*
X50086610Y-48899500D01*
X50012229Y-48899500D01*
X49945190Y-48879815D01*
X49924548Y-48863181D01*
X42418418Y-41357050D01*
X42418417Y-41357049D01*
X42343982Y-41307314D01*
X42343981Y-41307313D01*
X42295501Y-41274919D01*
X42295488Y-41274912D01*
X42158917Y-41218343D01*
X42158907Y-41218340D01*
X42013920Y-41189500D01*
X42013918Y-41189500D01*
X36875801Y-41189500D01*
X36808762Y-41169815D01*
X36763007Y-41117011D01*
X36753063Y-41047853D01*
X36757870Y-41027183D01*
X36768475Y-40994542D01*
X36768475Y-40994538D01*
X36768477Y-40994534D01*
X36800500Y-40792352D01*
X36800500Y-40587648D01*
X36791681Y-40531971D01*
X36800635Y-40462680D01*
X36826470Y-40424896D01*
X37464549Y-39786819D01*
X37525872Y-39753334D01*
X37552230Y-39750500D01*
X44340407Y-39750500D01*
X44407446Y-39770185D01*
X44447794Y-39812500D01*
X44541392Y-39974617D01*
X44681081Y-40156661D01*
X44681089Y-40156670D01*
X44843330Y-40318911D01*
X44843338Y-40318918D01*
X45025382Y-40458607D01*
X45025385Y-40458608D01*
X45025388Y-40458611D01*
X45224112Y-40573344D01*
X45224117Y-40573346D01*
X45224123Y-40573349D01*
X45258647Y-40587649D01*
X45436113Y-40661158D01*
X45657762Y-40720548D01*
X45885266Y-40750500D01*
X45885273Y-40750500D01*
X46114727Y-40750500D01*
X46114734Y-40750500D01*
X46342238Y-40720548D01*
X46563887Y-40661158D01*
X46775888Y-40573344D01*
X46974612Y-40458611D01*
X47156661Y-40318919D01*
X47156665Y-40318914D01*
X47156670Y-40318911D01*
X47318911Y-40156670D01*
X47318914Y-40156665D01*
X47318919Y-40156661D01*
X47458611Y-39974612D01*
X47573344Y-39775888D01*
X47661158Y-39563887D01*
X47720548Y-39342238D01*
X47750500Y-39114734D01*
X47750500Y-38885266D01*
X47720548Y-38657762D01*
X47661158Y-38436113D01*
X47573344Y-38224112D01*
X47458611Y-38025388D01*
X47458608Y-38025385D01*
X47458607Y-38025382D01*
X47318918Y-37843338D01*
X47318911Y-37843330D01*
X47156670Y-37681089D01*
X47156661Y-37681081D01*
X46974617Y-37541392D01*
X46775890Y-37426657D01*
X46775876Y-37426650D01*
X46563887Y-37338842D01*
X46342238Y-37279452D01*
X46304215Y-37274446D01*
X46114741Y-37249500D01*
X46114734Y-37249500D01*
X45885266Y-37249500D01*
X45885258Y-37249500D01*
X45668715Y-37278009D01*
X45657762Y-37279452D01*
X45613380Y-37291344D01*
X45436112Y-37338842D01*
X45224123Y-37426650D01*
X45224109Y-37426657D01*
X45025382Y-37541392D01*
X44843338Y-37681081D01*
X44681081Y-37843338D01*
X44541392Y-38025382D01*
X44447794Y-38187500D01*
X44397227Y-38235716D01*
X44340407Y-38249500D01*
X37116080Y-38249500D01*
X36971092Y-38278340D01*
X36971086Y-38278342D01*
X36834508Y-38334914D01*
X36834496Y-38334921D01*
X36785270Y-38367811D01*
X36785271Y-38367812D01*
X36711581Y-38417049D01*
X35765104Y-39363526D01*
X35703781Y-39397011D01*
X35658025Y-39398318D01*
X35602352Y-39389500D01*
X35397648Y-39389500D01*
X35350226Y-39397011D01*
X35195464Y-39421523D01*
X35195457Y-39421524D01*
X35162817Y-39432130D01*
X35092976Y-39434125D01*
X35033143Y-39398044D01*
X35002316Y-39335343D01*
X35000500Y-39314199D01*
X35000500Y-32366081D01*
X34994763Y-32337242D01*
X34994763Y-32337240D01*
X34971660Y-32221095D01*
X34971659Y-32221088D01*
X34915084Y-32084506D01*
X34915084Y-32084505D01*
X34882186Y-32035270D01*
X34852363Y-31990635D01*
X34832956Y-31961589D01*
X34832952Y-31961584D01*
X33826473Y-30955105D01*
X33792988Y-30893782D01*
X33791681Y-30848027D01*
X33800500Y-30792352D01*
X33800500Y-30587648D01*
X33768477Y-30385466D01*
X33705220Y-30190781D01*
X33705218Y-30190778D01*
X33705218Y-30190776D01*
X33671503Y-30124607D01*
X33612287Y-30008390D01*
X33604556Y-29997749D01*
X33491971Y-29842786D01*
X33347213Y-29698028D01*
X33181613Y-29577715D01*
X33181612Y-29577714D01*
X33181610Y-29577713D01*
X33124653Y-29548691D01*
X32999223Y-29484781D01*
X32804534Y-29421522D01*
X32629995Y-29393878D01*
X32602352Y-29389500D01*
X32397648Y-29389500D01*
X32373329Y-29393351D01*
X32195465Y-29421522D01*
X32000776Y-29484781D01*
X31818386Y-29577715D01*
X31652786Y-29698028D01*
X31508028Y-29842786D01*
X31387715Y-30008386D01*
X31294781Y-30190776D01*
X31231522Y-30385465D01*
X31199500Y-30587648D01*
X31199500Y-30792351D01*
X31231522Y-30994534D01*
X31294781Y-31189223D01*
X31387715Y-31371613D01*
X31508028Y-31537213D01*
X31652786Y-31681971D01*
X31807749Y-31794556D01*
X31818390Y-31802287D01*
X31934607Y-31861503D01*
X32000776Y-31895218D01*
X32000778Y-31895218D01*
X32000781Y-31895220D01*
X32105137Y-31929127D01*
X32195465Y-31958477D01*
X32279564Y-31971797D01*
X32397648Y-31990500D01*
X32397649Y-31990500D01*
X32602350Y-31990500D01*
X32602352Y-31990500D01*
X32658026Y-31981681D01*
X32727318Y-31990635D01*
X32765105Y-32016473D01*
X33463181Y-32714549D01*
X33496666Y-32775872D01*
X33499500Y-32802230D01*
X33499500Y-36946598D01*
X33479815Y-37013637D01*
X33427011Y-37059392D01*
X33357853Y-37069336D01*
X33336497Y-37064304D01*
X33202799Y-37020001D01*
X33202795Y-37020000D01*
X33100010Y-37009500D01*
X31899998Y-37009500D01*
X31899981Y-37009501D01*
X31797203Y-37020000D01*
X31797200Y-37020001D01*
X31630668Y-37075185D01*
X31630663Y-37075187D01*
X31481342Y-37167289D01*
X31357289Y-37291342D01*
X31265187Y-37440663D01*
X31265186Y-37440666D01*
X31210001Y-37607203D01*
X31210001Y-37607204D01*
X31210000Y-37607204D01*
X31199500Y-37709983D01*
X31199500Y-38910001D01*
X31199501Y-38910018D01*
X31210000Y-39012796D01*
X31210001Y-39012799D01*
X31243782Y-39114741D01*
X31265186Y-39179334D01*
X31357288Y-39328656D01*
X31481344Y-39452712D01*
X31630666Y-39544814D01*
X31664500Y-39556025D01*
X31721947Y-39595796D01*
X31748772Y-39660311D01*
X31749500Y-39673732D01*
X31749500Y-42137769D01*
X31729815Y-42204808D01*
X31713181Y-42225450D01*
X31061681Y-42876950D01*
X31000358Y-42910435D01*
X30930666Y-42905451D01*
X30874733Y-42863579D01*
X30850316Y-42798115D01*
X30850000Y-42789269D01*
X30850000Y-42062172D01*
X30849999Y-42062155D01*
X30843598Y-42002627D01*
X30843596Y-42002620D01*
X30793354Y-41867913D01*
X30793350Y-41867906D01*
X30707190Y-41752812D01*
X30707187Y-41752809D01*
X30592093Y-41666649D01*
X30592086Y-41666645D01*
X30457379Y-41616403D01*
X30457372Y-41616401D01*
X30397844Y-41610000D01*
X29750000Y-41610000D01*
X29750000Y-42526988D01*
X29692993Y-42494075D01*
X29565826Y-42460000D01*
X29434174Y-42460000D01*
X29307007Y-42494075D01*
X29250000Y-42526988D01*
X29250000Y-41610000D01*
X28602155Y-41610000D01*
X28542627Y-41616401D01*
X28542620Y-41616403D01*
X28407913Y-41666645D01*
X28407906Y-41666649D01*
X28292812Y-41752809D01*
X28292809Y-41752812D01*
X28206649Y-41867906D01*
X28206645Y-41867913D01*
X28156403Y-42002620D01*
X28156401Y-42002627D01*
X28150000Y-42062155D01*
X28150000Y-42710000D01*
X29066988Y-42710000D01*
X29034075Y-42767007D01*
X29000000Y-42894174D01*
X29000000Y-43025826D01*
X29034075Y-43152993D01*
X29066988Y-43210000D01*
X28150000Y-43210000D01*
X28150000Y-43857844D01*
X28156401Y-43917372D01*
X28156403Y-43917379D01*
X28206645Y-44052086D01*
X28206649Y-44052093D01*
X28292809Y-44167187D01*
X28292812Y-44167190D01*
X28407906Y-44253350D01*
X28407913Y-44253354D01*
X28539470Y-44302422D01*
X28595404Y-44344293D01*
X28619821Y-44409758D01*
X28604969Y-44478031D01*
X28583819Y-44506285D01*
X28469889Y-44620215D01*
X28344951Y-44792179D01*
X28248444Y-44981585D01*
X28182753Y-45183760D01*
X28149500Y-45393713D01*
X28149500Y-45606292D01*
X28164616Y-45701728D01*
X28155662Y-45771021D01*
X28129824Y-45808807D01*
X27617045Y-46321586D01*
X27578160Y-46379786D01*
X27578156Y-46379792D01*
X27556536Y-46412148D01*
X27534916Y-46444504D01*
X27534912Y-46444511D01*
X27478343Y-46581082D01*
X27478340Y-46581092D01*
X27449500Y-46726079D01*
X27449500Y-46726082D01*
X27449500Y-48652396D01*
X27449500Y-48652398D01*
X27449499Y-48652398D01*
X25500500Y-48652398D01*
X25500500Y-41624500D01*
X25520185Y-41557461D01*
X25572989Y-41511706D01*
X25624500Y-41500500D01*
X28065890Y-41500500D01*
X28065892Y-41500500D01*
X28193186Y-41466392D01*
X28307314Y-41400500D01*
X28400500Y-41307314D01*
X28466392Y-41193186D01*
X28500500Y-41065892D01*
X28500500Y-28624500D01*
X28520185Y-28557461D01*
X28572989Y-28511706D01*
X28624500Y-28500500D01*
X40934108Y-28500500D01*
X58934108Y-28500500D01*
X71375500Y-28500500D01*
X71442539Y-28520185D01*
G37*
%TD.AperFunction*%
%TD*%
M02*
