%TF.GenerationSoftware,KiCad,Pcbnew,10.0.3*%
%TF.CreationDate,2026-05-25T20:12:56+09:00*%
%TF.ProjectId,rs_dust_4way,72735f64-7573-4745-9f34-7761792e6b69,rev?*%
%TF.SameCoordinates,Original*%
%TF.FileFunction,Legend,Top*%
%TF.FilePolarity,Positive*%
%FSLAX46Y46*%
G04 Gerber Fmt 4.6, Leading zero omitted, Abs format (unit mm)*
G04 Created by KiCad (PCBNEW 10.0.3) date 2026-05-25 20:12:56*
%MOMM*%
%LPD*%
G01*
G04 APERTURE LIST*
%ADD10C,0.000000*%
%ADD11R,1.700000X1.700000*%
%ADD12C,1.700000*%
G04 APERTURE END LIST*
D10*
%TO.C,G\u002A\u002A\u002A*%
G36*
X52036932Y-51301798D02*
G01*
X52047589Y-51307507D01*
X52054085Y-51319353D01*
X52057297Y-51339246D01*
X52058100Y-51369093D01*
X52058002Y-51380351D01*
X52057604Y-51395257D01*
X52056682Y-51421546D01*
X52055276Y-51458282D01*
X52053428Y-51504528D01*
X52051179Y-51559346D01*
X52048571Y-51621800D01*
X52045645Y-51690952D01*
X52042443Y-51765866D01*
X52039007Y-51845604D01*
X52035378Y-51929230D01*
X52031598Y-52015807D01*
X52027707Y-52104397D01*
X52023748Y-52194063D01*
X52019763Y-52283869D01*
X52015792Y-52372877D01*
X52011877Y-52460151D01*
X52008060Y-52544753D01*
X52004382Y-52625747D01*
X52000885Y-52702195D01*
X51997610Y-52773161D01*
X51994599Y-52837707D01*
X51991894Y-52894896D01*
X51989535Y-52943792D01*
X51987565Y-52983458D01*
X51986025Y-53012955D01*
X51984956Y-53031349D01*
X51984622Y-53035960D01*
X51981767Y-53061073D01*
X51977584Y-53077544D01*
X51970757Y-53089233D01*
X51964080Y-53096282D01*
X51956076Y-53102494D01*
X51938653Y-53115088D01*
X51912736Y-53133420D01*
X51879250Y-53156850D01*
X51839120Y-53184734D01*
X51793271Y-53216432D01*
X51742627Y-53251299D01*
X51688114Y-53288695D01*
X51630656Y-53327977D01*
X51616419Y-53337690D01*
X51547079Y-53384941D01*
X51487286Y-53425552D01*
X51436278Y-53459957D01*
X51393293Y-53488590D01*
X51357568Y-53511886D01*
X51328341Y-53530279D01*
X51304851Y-53544203D01*
X51286334Y-53554093D01*
X51272028Y-53560382D01*
X51261172Y-53563505D01*
X51253003Y-53563897D01*
X51246759Y-53561991D01*
X51241678Y-53558221D01*
X51237471Y-53553598D01*
X51235826Y-53550701D01*
X51234394Y-53545846D01*
X51233182Y-53538463D01*
X51232200Y-53527984D01*
X51231456Y-53513843D01*
X51230960Y-53495471D01*
X51230719Y-53472299D01*
X51230743Y-53443761D01*
X51231039Y-53409288D01*
X51231418Y-53382433D01*
X51313401Y-53382433D01*
X51313891Y-53410360D01*
X51315014Y-53428531D01*
X51316872Y-53438313D01*
X51319565Y-53441076D01*
X51320637Y-53440692D01*
X51327180Y-53436374D01*
X51343068Y-53425699D01*
X51367307Y-53409340D01*
X51398903Y-53387969D01*
X51436860Y-53362261D01*
X51480186Y-53332887D01*
X51527885Y-53300522D01*
X51578964Y-53265839D01*
X51598830Y-53252343D01*
X51650640Y-53217103D01*
X51699192Y-53184006D01*
X51743527Y-53153710D01*
X51782686Y-53126874D01*
X51815711Y-53104156D01*
X51841644Y-53086215D01*
X51859525Y-53073710D01*
X51868398Y-53067298D01*
X51869209Y-53066587D01*
X51864122Y-53062297D01*
X51850130Y-53052869D01*
X51829134Y-53039453D01*
X51803037Y-53023196D01*
X51773741Y-53005248D01*
X51743149Y-52986756D01*
X51713164Y-52968871D01*
X51685687Y-52952739D01*
X51662620Y-52939511D01*
X51645867Y-52930333D01*
X51637330Y-52926356D01*
X51636822Y-52926280D01*
X51629723Y-52929822D01*
X51613678Y-52939566D01*
X51590046Y-52954632D01*
X51560184Y-52974140D01*
X51525451Y-52997208D01*
X51487203Y-53022956D01*
X51475362Y-53030993D01*
X51322200Y-53135146D01*
X51318131Y-53188284D01*
X51316649Y-53213775D01*
X51315320Y-53247978D01*
X51314260Y-53287099D01*
X51313583Y-53327348D01*
X51313443Y-53343378D01*
X51313401Y-53382433D01*
X51231418Y-53382433D01*
X51231618Y-53368312D01*
X51232488Y-53320265D01*
X51233657Y-53264580D01*
X51235135Y-53200688D01*
X51236929Y-53128021D01*
X51239048Y-53046012D01*
X51241503Y-52954093D01*
X51244191Y-52855691D01*
X51681663Y-52855691D01*
X51786376Y-52921359D01*
X51818899Y-52941566D01*
X51848041Y-52959315D01*
X51872068Y-52973579D01*
X51889245Y-52983330D01*
X51897841Y-52987542D01*
X51898253Y-52987631D01*
X51902664Y-52981973D01*
X51906508Y-52965044D01*
X51909364Y-52939785D01*
X51910348Y-52924732D01*
X51911758Y-52898797D01*
X51913556Y-52862907D01*
X51915703Y-52817988D01*
X51918160Y-52764967D01*
X51920889Y-52704771D01*
X51923851Y-52638326D01*
X51927006Y-52566559D01*
X51930318Y-52490396D01*
X51933746Y-52410764D01*
X51937252Y-52328590D01*
X51940797Y-52244800D01*
X51944343Y-52160321D01*
X51947851Y-52076079D01*
X51951282Y-51993002D01*
X51954598Y-51912015D01*
X51957759Y-51834046D01*
X51960728Y-51760020D01*
X51963465Y-51690866D01*
X51965931Y-51627508D01*
X51968089Y-51570874D01*
X51969899Y-51521891D01*
X51971322Y-51481484D01*
X51972320Y-51450581D01*
X51972855Y-51430109D01*
X51972887Y-51420993D01*
X51972821Y-51420602D01*
X51967101Y-51423046D01*
X51952722Y-51431196D01*
X51931485Y-51443910D01*
X51905193Y-51460048D01*
X51875648Y-51478469D01*
X51844652Y-51498031D01*
X51814008Y-51517594D01*
X51785517Y-51536016D01*
X51760981Y-51552157D01*
X51742204Y-51564875D01*
X51730987Y-51573030D01*
X51728679Y-51575178D01*
X51728016Y-51581976D01*
X51726949Y-51600232D01*
X51725516Y-51628910D01*
X51723759Y-51666972D01*
X51721717Y-51713381D01*
X51719429Y-51767101D01*
X51716937Y-51827095D01*
X51714278Y-51892326D01*
X51711494Y-51961757D01*
X51708625Y-52034350D01*
X51705710Y-52109070D01*
X51702789Y-52184879D01*
X51699902Y-52260740D01*
X51697089Y-52335617D01*
X51694389Y-52408472D01*
X51691844Y-52478269D01*
X51689492Y-52543970D01*
X51687373Y-52604539D01*
X51685528Y-52658939D01*
X51683996Y-52706133D01*
X51682817Y-52745085D01*
X51682032Y-52774756D01*
X51681679Y-52794110D01*
X51681663Y-52797296D01*
X51681663Y-52855691D01*
X51244191Y-52855691D01*
X51244300Y-52851695D01*
X51245810Y-52797296D01*
X51247449Y-52738250D01*
X51250958Y-52613192D01*
X51253065Y-52538548D01*
X51274705Y-51773159D01*
X51292201Y-51756283D01*
X51300420Y-51750060D01*
X51318270Y-51737764D01*
X51344816Y-51720003D01*
X51379123Y-51697388D01*
X51420254Y-51670530D01*
X51467274Y-51640037D01*
X51519249Y-51606521D01*
X51575241Y-51570591D01*
X51634317Y-51532858D01*
X51654724Y-51519863D01*
X51725947Y-51474609D01*
X51787405Y-51435720D01*
X51839824Y-51402761D01*
X51883930Y-51375296D01*
X51920451Y-51352890D01*
X51950113Y-51335108D01*
X51973642Y-51321515D01*
X51991765Y-51311675D01*
X52005208Y-51305153D01*
X52014699Y-51301514D01*
X52020964Y-51300322D01*
X52021236Y-51300319D01*
X52036932Y-51301798D01*
G37*
G36*
X49940146Y-44814558D02*
G01*
X49962173Y-44823258D01*
X49975988Y-44830563D01*
X50008921Y-44849207D01*
X50050781Y-44871706D01*
X50099081Y-44896807D01*
X50151336Y-44923258D01*
X50205061Y-44949804D01*
X50257768Y-44975193D01*
X50306974Y-44998171D01*
X50321953Y-45004982D01*
X50358463Y-45021464D01*
X50392708Y-45036948D01*
X50422423Y-45050408D01*
X50445344Y-45060819D01*
X50459206Y-45067154D01*
X50459487Y-45067283D01*
X50468675Y-45071439D01*
X50488459Y-45080323D01*
X50518017Y-45093569D01*
X50556528Y-45110810D01*
X50603171Y-45131677D01*
X50657124Y-45155803D01*
X50717566Y-45182822D01*
X50783676Y-45212366D01*
X50854631Y-45244067D01*
X50929611Y-45277559D01*
X51007794Y-45312474D01*
X51040638Y-45327140D01*
X51119505Y-45362361D01*
X51195231Y-45396195D01*
X51267023Y-45428288D01*
X51334089Y-45458283D01*
X51395636Y-45485826D01*
X51450873Y-45510563D01*
X51499006Y-45532138D01*
X51539244Y-45550196D01*
X51570795Y-45564383D01*
X51592865Y-45574343D01*
X51604662Y-45579722D01*
X51606403Y-45580550D01*
X51613371Y-45583772D01*
X51630965Y-45591726D01*
X51658391Y-45604059D01*
X51694853Y-45620413D01*
X51739556Y-45640433D01*
X51791706Y-45663765D01*
X51850508Y-45690052D01*
X51915167Y-45718939D01*
X51984889Y-45750070D01*
X52058878Y-45783090D01*
X52136340Y-45817644D01*
X52169283Y-45832334D01*
X52248590Y-45867699D01*
X52325202Y-45901869D01*
X52398275Y-45934467D01*
X52466968Y-45965117D01*
X52530438Y-45993444D01*
X52587844Y-46019072D01*
X52638342Y-46041624D01*
X52681090Y-46060724D01*
X52715247Y-46075996D01*
X52739969Y-46087065D01*
X52754416Y-46093554D01*
X52756928Y-46094691D01*
X52893859Y-46156347D01*
X53022162Y-46212587D01*
X53141381Y-46263220D01*
X53251058Y-46308056D01*
X53350735Y-46346901D01*
X53416465Y-46371200D01*
X53447573Y-46382975D01*
X53475486Y-46394601D01*
X53497513Y-46404884D01*
X53510963Y-46412628D01*
X53512479Y-46413850D01*
X53518376Y-46419638D01*
X53522322Y-46425884D01*
X53524558Y-46434867D01*
X53525328Y-46448866D01*
X53524875Y-46470159D01*
X53523442Y-46501024D01*
X53522900Y-46511641D01*
X53519529Y-46568557D01*
X53515743Y-46616475D01*
X53511633Y-46654610D01*
X53507291Y-46682178D01*
X53502809Y-46698393D01*
X53500697Y-46701852D01*
X53492935Y-46707097D01*
X53476300Y-46716826D01*
X53453024Y-46729780D01*
X53425339Y-46744699D01*
X53416831Y-46749199D01*
X53387078Y-46764944D01*
X53349451Y-46784969D01*
X53307076Y-46807604D01*
X53263077Y-46831180D01*
X53220578Y-46854028D01*
X53214992Y-46857038D01*
X53168774Y-46881582D01*
X53132272Y-46900101D01*
X53104506Y-46913046D01*
X53084496Y-46920867D01*
X53071262Y-46924014D01*
X53068966Y-46924124D01*
X53050409Y-46920164D01*
X53022096Y-46908449D01*
X52984065Y-46888993D01*
X52978857Y-46886143D01*
X52944815Y-46867897D01*
X52901716Y-46845578D01*
X52851868Y-46820326D01*
X52797579Y-46793282D01*
X52741154Y-46765590D01*
X52684902Y-46738389D01*
X52631129Y-46712823D01*
X52588136Y-46692787D01*
X52553771Y-46676936D01*
X52518105Y-46660449D01*
X52485371Y-46645282D01*
X52459980Y-46633479D01*
X52440891Y-46624612D01*
X52412512Y-46611472D01*
X52376908Y-46595014D01*
X52336147Y-46576193D01*
X52292294Y-46555964D01*
X52247427Y-46535285D01*
X52204804Y-46515611D01*
X52165255Y-46497281D01*
X52130390Y-46481049D01*
X52101820Y-46467665D01*
X52081154Y-46457882D01*
X52070002Y-46452452D01*
X52069258Y-46452064D01*
X52059431Y-46447252D01*
X52039938Y-46438071D01*
X52012501Y-46425318D01*
X51978840Y-46409789D01*
X51940675Y-46392280D01*
X51906718Y-46376775D01*
X51862696Y-46356673D01*
X51818599Y-46336461D01*
X51776910Y-46317284D01*
X51740110Y-46300284D01*
X51710684Y-46286604D01*
X51697292Y-46280320D01*
X51669769Y-46267407D01*
X51637295Y-46252297D01*
X51601634Y-46235797D01*
X51564549Y-46218716D01*
X51527804Y-46201858D01*
X51493164Y-46186033D01*
X51462393Y-46172048D01*
X51437254Y-46160708D01*
X51419512Y-46152823D01*
X51410930Y-46149198D01*
X51410432Y-46149052D01*
X51404250Y-46151757D01*
X51387779Y-46159574D01*
X51361928Y-46172056D01*
X51327606Y-46188754D01*
X51285723Y-46209221D01*
X51237188Y-46233009D01*
X51182910Y-46259671D01*
X51123800Y-46288759D01*
X51060766Y-46319826D01*
X50994718Y-46352423D01*
X50926566Y-46386103D01*
X50857218Y-46420418D01*
X50787584Y-46454921D01*
X50718574Y-46489163D01*
X50651097Y-46522698D01*
X50625153Y-46535608D01*
X50559693Y-46568189D01*
X50485163Y-46605279D01*
X50403690Y-46645819D01*
X50317401Y-46688751D01*
X50228422Y-46733018D01*
X50138880Y-46777561D01*
X50050901Y-46821323D01*
X49966611Y-46863246D01*
X49888653Y-46902015D01*
X49480358Y-47105050D01*
X49551069Y-47140374D01*
X49578810Y-47154300D01*
X49617078Y-47173619D01*
X49665273Y-47198025D01*
X49722794Y-47227212D01*
X49789039Y-47260874D01*
X49863408Y-47298707D01*
X49945300Y-47340403D01*
X50034113Y-47385657D01*
X50129246Y-47434164D01*
X50230099Y-47485617D01*
X50300073Y-47521334D01*
X50392718Y-47568601D01*
X50475314Y-47610654D01*
X50548931Y-47647999D01*
X50614639Y-47681140D01*
X50673507Y-47710584D01*
X50726604Y-47736836D01*
X50775001Y-47760401D01*
X50819766Y-47781786D01*
X50861970Y-47801496D01*
X50902681Y-47820036D01*
X50942970Y-47837913D01*
X50983905Y-47855631D01*
X51026556Y-47873697D01*
X51071993Y-47892616D01*
X51121286Y-47912894D01*
X51173072Y-47934045D01*
X51192736Y-47942059D01*
X51197017Y-48012981D01*
X51198095Y-48042836D01*
X51198172Y-48077175D01*
X51197379Y-48113683D01*
X51195844Y-48150045D01*
X51193699Y-48183946D01*
X51191071Y-48213069D01*
X51188092Y-48235101D01*
X51184889Y-48247725D01*
X51183783Y-48249454D01*
X51177328Y-48253404D01*
X51161027Y-48262690D01*
X51136021Y-48276681D01*
X51103451Y-48294746D01*
X51064457Y-48316253D01*
X51020180Y-48340570D01*
X50971761Y-48367067D01*
X50936301Y-48386417D01*
X50873038Y-48420750D01*
X50819901Y-48449244D01*
X50776162Y-48472262D01*
X50741092Y-48490171D01*
X50713963Y-48503337D01*
X50694047Y-48512123D01*
X50680614Y-48516896D01*
X50673737Y-48518070D01*
X50654778Y-48513556D01*
X50628531Y-48500286D01*
X50606398Y-48486245D01*
X50589398Y-48475069D01*
X50569986Y-48462815D01*
X50547643Y-48449201D01*
X50521851Y-48433945D01*
X50492093Y-48416767D01*
X50457850Y-48397385D01*
X50418605Y-48375517D01*
X50373838Y-48350881D01*
X50323032Y-48323198D01*
X50265670Y-48292185D01*
X50201232Y-48257560D01*
X50129201Y-48219042D01*
X50049059Y-48176351D01*
X49960287Y-48129203D01*
X49862368Y-48077319D01*
X49754783Y-48020416D01*
X49637015Y-47958214D01*
X49543637Y-47908939D01*
X49450498Y-47859796D01*
X49360088Y-47812072D01*
X49273057Y-47766111D01*
X49190054Y-47722256D01*
X49111727Y-47680851D01*
X49038725Y-47642239D01*
X48971698Y-47606764D01*
X48911293Y-47574770D01*
X48858161Y-47546599D01*
X48812950Y-47522596D01*
X48776308Y-47503104D01*
X48748884Y-47488466D01*
X48731329Y-47479026D01*
X48724685Y-47475368D01*
X48703185Y-47463368D01*
X48681873Y-47452294D01*
X48674673Y-47448824D01*
X48664313Y-47443663D01*
X48644271Y-47433348D01*
X48615907Y-47418591D01*
X48580583Y-47400106D01*
X48539658Y-47378604D01*
X48494493Y-47354796D01*
X48446447Y-47329396D01*
X48440240Y-47326109D01*
X48389767Y-47299383D01*
X48340152Y-47273123D01*
X48293102Y-47248232D01*
X48250324Y-47225613D01*
X48213527Y-47206168D01*
X48184417Y-47190801D01*
X48165173Y-47180662D01*
X48133034Y-47163732D01*
X48098441Y-47145460D01*
X48066717Y-47128660D01*
X48052645Y-47121186D01*
X48034380Y-47111497D01*
X48006921Y-47096966D01*
X47972135Y-47078579D01*
X47931889Y-47057323D01*
X47888051Y-47034184D01*
X47842487Y-47010148D01*
X47827590Y-47002292D01*
X47774088Y-46974071D01*
X47714715Y-46942728D01*
X47652963Y-46910112D01*
X47592328Y-46878067D01*
X47536304Y-46848440D01*
X47495074Y-46826620D01*
X47448773Y-46802137D01*
X47400976Y-46776924D01*
X47354287Y-46752349D01*
X47311312Y-46729783D01*
X47274653Y-46710595D01*
X47251264Y-46698409D01*
X47221096Y-46682650D01*
X47194694Y-46668678D01*
X47174134Y-46657606D01*
X47161488Y-46650544D01*
X47158675Y-46648785D01*
X47148775Y-46642694D01*
X47129050Y-46631823D01*
X47100906Y-46616881D01*
X47065752Y-46598578D01*
X47024997Y-46577621D01*
X46980048Y-46554721D01*
X46932314Y-46530585D01*
X46883201Y-46505922D01*
X46834120Y-46481442D01*
X46786477Y-46457854D01*
X46741681Y-46435865D01*
X46701139Y-46416185D01*
X46666261Y-46399523D01*
X46638453Y-46386587D01*
X46632354Y-46383832D01*
X46600396Y-46369035D01*
X46572523Y-46355218D01*
X46550737Y-46343444D01*
X46537041Y-46334780D01*
X46533337Y-46331133D01*
X46531283Y-46320725D01*
X46528875Y-46300305D01*
X46526279Y-46272352D01*
X46523657Y-46239348D01*
X46521175Y-46203771D01*
X46519263Y-46172503D01*
X46599498Y-46172503D01*
X46599974Y-46200488D01*
X46602659Y-46238134D01*
X46603187Y-46243854D01*
X46607122Y-46285518D01*
X46679724Y-46318237D01*
X46695670Y-46325484D01*
X46712518Y-46333276D01*
X46730645Y-46341810D01*
X46750424Y-46351279D01*
X46772231Y-46361878D01*
X46796441Y-46373803D01*
X46823429Y-46387247D01*
X46853569Y-46402407D01*
X46887238Y-46419476D01*
X46924809Y-46438650D01*
X46966658Y-46460123D01*
X47013161Y-46484091D01*
X47064691Y-46510749D01*
X47121624Y-46540290D01*
X47184336Y-46572911D01*
X47253200Y-46608805D01*
X47328593Y-46648168D01*
X47410889Y-46691195D01*
X47500463Y-46738080D01*
X47597690Y-46789019D01*
X47702945Y-46844206D01*
X47816604Y-46903836D01*
X47939041Y-46968104D01*
X48070631Y-47037205D01*
X48211750Y-47111333D01*
X48362772Y-47190684D01*
X48524072Y-47275453D01*
X48696026Y-47365834D01*
X48712489Y-47374488D01*
X48880097Y-47462595D01*
X49037012Y-47545089D01*
X49183609Y-47622172D01*
X49320265Y-47694041D01*
X49447357Y-47760897D01*
X49565260Y-47822939D01*
X49674352Y-47880368D01*
X49775009Y-47933382D01*
X49867607Y-47982181D01*
X49952522Y-48026965D01*
X50030131Y-48067933D01*
X50100810Y-48105286D01*
X50164937Y-48139222D01*
X50222886Y-48169942D01*
X50275035Y-48197644D01*
X50321760Y-48222530D01*
X50363437Y-48244797D01*
X50400444Y-48264647D01*
X50433155Y-48282278D01*
X50461948Y-48297890D01*
X50487199Y-48311683D01*
X50509285Y-48323857D01*
X50528581Y-48334611D01*
X50545465Y-48344144D01*
X50560313Y-48352657D01*
X50573500Y-48360348D01*
X50585404Y-48367419D01*
X50590770Y-48370648D01*
X50609509Y-48381854D01*
X50623455Y-48389963D01*
X50629763Y-48393323D01*
X50629842Y-48393338D01*
X50630469Y-48387513D01*
X50630662Y-48381482D01*
X50719960Y-48381482D01*
X50721397Y-48395741D01*
X50723615Y-48399492D01*
X50730019Y-48396570D01*
X50746085Y-48388318D01*
X50770518Y-48375430D01*
X50802021Y-48358596D01*
X50839298Y-48338507D01*
X50881054Y-48315857D01*
X50915850Y-48296884D01*
X51103396Y-48194388D01*
X51108161Y-48129768D01*
X51110002Y-48102033D01*
X51111178Y-48078619D01*
X51111558Y-48062551D01*
X51111287Y-48057324D01*
X51105496Y-48058088D01*
X51089554Y-48064650D01*
X51064194Y-48076649D01*
X51030144Y-48093724D01*
X50988137Y-48115514D01*
X50938902Y-48141657D01*
X50918975Y-48152374D01*
X50728303Y-48255248D01*
X50724346Y-48294606D01*
X50721448Y-48328863D01*
X50719981Y-48358505D01*
X50719960Y-48381482D01*
X50630662Y-48381482D01*
X50630976Y-48371706D01*
X50631306Y-48348436D01*
X50631405Y-48324447D01*
X50631405Y-48255540D01*
X50579516Y-48221717D01*
X50557277Y-48207787D01*
X50526852Y-48189527D01*
X50491039Y-48168576D01*
X50452640Y-48146573D01*
X50415413Y-48125688D01*
X50402558Y-48118740D01*
X50379143Y-48106284D01*
X50345698Y-48088597D01*
X50302748Y-48065954D01*
X50250820Y-48038629D01*
X50190442Y-48006899D01*
X50122141Y-47971039D01*
X50046443Y-47931325D01*
X49963875Y-47888031D01*
X49874965Y-47841433D01*
X49780239Y-47791807D01*
X49680225Y-47739429D01*
X49575449Y-47684572D01*
X49466439Y-47627514D01*
X49353721Y-47568529D01*
X49237822Y-47507893D01*
X49119270Y-47445882D01*
X48998591Y-47382770D01*
X48876313Y-47318833D01*
X48752961Y-47254347D01*
X48629065Y-47189586D01*
X48505149Y-47124828D01*
X48381742Y-47060346D01*
X48259370Y-46996417D01*
X48138561Y-46933315D01*
X48019840Y-46871317D01*
X47903737Y-46810697D01*
X47790776Y-46751731D01*
X47681486Y-46694695D01*
X47576392Y-46639864D01*
X47476024Y-46587514D01*
X47380906Y-46537919D01*
X47291567Y-46491355D01*
X47208532Y-46448098D01*
X47132331Y-46408424D01*
X47063488Y-46372607D01*
X47002531Y-46340922D01*
X46949988Y-46313647D01*
X46906385Y-46291055D01*
X46872249Y-46273423D01*
X46848107Y-46261025D01*
X46836721Y-46255250D01*
X46804722Y-46239461D01*
X46769849Y-46222656D01*
X46734009Y-46205710D01*
X46699111Y-46189497D01*
X46667063Y-46174893D01*
X46639774Y-46162773D01*
X46619150Y-46154011D01*
X46607101Y-46149482D01*
X46605106Y-46149052D01*
X46601215Y-46155062D01*
X46599498Y-46172503D01*
X46519263Y-46172503D01*
X46518994Y-46168103D01*
X46517280Y-46134823D01*
X46516196Y-46106412D01*
X46515906Y-46085349D01*
X46516012Y-46083212D01*
X46664620Y-46083212D01*
X46668134Y-46088567D01*
X46680698Y-46095469D01*
X46690200Y-46099755D01*
X46703834Y-46105853D01*
X46719695Y-46113171D01*
X46738138Y-46121891D01*
X46759518Y-46132197D01*
X46784192Y-46144272D01*
X46812515Y-46158298D01*
X46844842Y-46174459D01*
X46881530Y-46192937D01*
X46922933Y-46213916D01*
X46969408Y-46237578D01*
X47021309Y-46264108D01*
X47078994Y-46293686D01*
X47142816Y-46326498D01*
X47213133Y-46362725D01*
X47290299Y-46402551D01*
X47374670Y-46446158D01*
X47466601Y-46493731D01*
X47566449Y-46545450D01*
X47674569Y-46601501D01*
X47791316Y-46662065D01*
X47917047Y-46727326D01*
X48052116Y-46797467D01*
X48196879Y-46872670D01*
X48351693Y-46953120D01*
X48516912Y-47038998D01*
X48677799Y-47122640D01*
X48847784Y-47211022D01*
X49007047Y-47293837D01*
X49155963Y-47371282D01*
X49294904Y-47443553D01*
X49424244Y-47510846D01*
X49544358Y-47573359D01*
X49655619Y-47631287D01*
X49758400Y-47684828D01*
X49853076Y-47734178D01*
X49940020Y-47779534D01*
X50019605Y-47821092D01*
X50092206Y-47859048D01*
X50158197Y-47893601D01*
X50217950Y-47924945D01*
X50271839Y-47953277D01*
X50320239Y-47978795D01*
X50363523Y-48001695D01*
X50402065Y-48022173D01*
X50436238Y-48040426D01*
X50466416Y-48056651D01*
X50492974Y-48071043D01*
X50516283Y-48083801D01*
X50536720Y-48095120D01*
X50554656Y-48105196D01*
X50570465Y-48114228D01*
X50584523Y-48122410D01*
X50597201Y-48129940D01*
X50608874Y-48137014D01*
X50619916Y-48143829D01*
X50624623Y-48146766D01*
X50647412Y-48160865D01*
X50666052Y-48172090D01*
X50678150Y-48179018D01*
X50681417Y-48180547D01*
X50687477Y-48177739D01*
X50703210Y-48169683D01*
X50727291Y-48157080D01*
X50758394Y-48140628D01*
X50795193Y-48121029D01*
X50836364Y-48098981D01*
X50862328Y-48085022D01*
X50905494Y-48061620D01*
X50945013Y-48039885D01*
X50979561Y-48020570D01*
X51007814Y-48004427D01*
X51028449Y-47992208D01*
X51040142Y-47984666D01*
X51042308Y-47982722D01*
X51037580Y-47978243D01*
X51023107Y-47969932D01*
X51000705Y-47958709D01*
X50972195Y-47945492D01*
X50945792Y-47933922D01*
X50904821Y-47916135D01*
X50859971Y-47896229D01*
X50815853Y-47876276D01*
X50777078Y-47858349D01*
X50765813Y-47853027D01*
X50746990Y-47843873D01*
X50718708Y-47829842D01*
X50681716Y-47811317D01*
X50636763Y-47788682D01*
X50584599Y-47762322D01*
X50525975Y-47732618D01*
X50461638Y-47699956D01*
X50392339Y-47664719D01*
X50318828Y-47627291D01*
X50241853Y-47588055D01*
X50162165Y-47547395D01*
X50080513Y-47505695D01*
X49997647Y-47463338D01*
X49914316Y-47420708D01*
X49831269Y-47378189D01*
X49749257Y-47336164D01*
X49669029Y-47295018D01*
X49591334Y-47255133D01*
X49516923Y-47216894D01*
X49446544Y-47180684D01*
X49380947Y-47146887D01*
X49320881Y-47115887D01*
X49267097Y-47088067D01*
X49220344Y-47063811D01*
X49181371Y-47043502D01*
X49150929Y-47027525D01*
X49129765Y-47016263D01*
X49118631Y-47010100D01*
X49117065Y-47009060D01*
X49113736Y-46998355D01*
X49112472Y-46983632D01*
X49112704Y-46981095D01*
X49247456Y-46981095D01*
X49250818Y-46985203D01*
X49262964Y-46993424D01*
X49281423Y-47004428D01*
X49303726Y-47016883D01*
X49327400Y-47029459D01*
X49349975Y-47040824D01*
X49368981Y-47049647D01*
X49381946Y-47054597D01*
X49385019Y-47055203D01*
X49391282Y-47052512D01*
X49408182Y-47044558D01*
X49435148Y-47031621D01*
X49471608Y-47013979D01*
X49516994Y-46991912D01*
X49570733Y-46965701D01*
X49632255Y-46935624D01*
X49700990Y-46901961D01*
X49776366Y-46864992D01*
X49857813Y-46824996D01*
X49944761Y-46782253D01*
X50036639Y-46737042D01*
X50132875Y-46689643D01*
X50232900Y-46640336D01*
X50336142Y-46589400D01*
X50379013Y-46568237D01*
X51365960Y-46080949D01*
X51367735Y-46011100D01*
X51368304Y-45980535D01*
X51368288Y-45979437D01*
X51451113Y-45979437D01*
X51451634Y-46008841D01*
X51451714Y-46012024D01*
X51453482Y-46081296D01*
X52103642Y-46380656D01*
X52191774Y-46421293D01*
X52278801Y-46461530D01*
X52363800Y-46500936D01*
X52445852Y-46539080D01*
X52524033Y-46575528D01*
X52597424Y-46609851D01*
X52665103Y-46641615D01*
X52726149Y-46670389D01*
X52779640Y-46695743D01*
X52824655Y-46717243D01*
X52860274Y-46734459D01*
X52885574Y-46746958D01*
X52888210Y-46748291D01*
X52925858Y-46767360D01*
X52959781Y-46784434D01*
X52988397Y-46798726D01*
X53010126Y-46809451D01*
X53023388Y-46815822D01*
X53026773Y-46817267D01*
X53029309Y-46811904D01*
X53032170Y-46797104D01*
X53034789Y-46775898D01*
X53035099Y-46772643D01*
X53035636Y-46764692D01*
X53119568Y-46764692D01*
X53119797Y-46786598D01*
X53121068Y-46803180D01*
X53123464Y-46811255D01*
X53124205Y-46811574D01*
X53130738Y-46808688D01*
X53146798Y-46800618D01*
X53170917Y-46788131D01*
X53201628Y-46771994D01*
X53237461Y-46752973D01*
X53276948Y-46731836D01*
X53278931Y-46730770D01*
X53428968Y-46650107D01*
X53433296Y-46626197D01*
X53436476Y-46602145D01*
X53437990Y-46576583D01*
X53437917Y-46552499D01*
X53436331Y-46532881D01*
X53433310Y-46520715D01*
X53430531Y-46518220D01*
X53423109Y-46521158D01*
X53406238Y-46529264D01*
X53381464Y-46541749D01*
X53350331Y-46557825D01*
X53314385Y-46576703D01*
X53278931Y-46595579D01*
X53226660Y-46623998D01*
X53185559Y-46647272D01*
X53155452Y-46665509D01*
X53136161Y-46678816D01*
X53127510Y-46687300D01*
X53127423Y-46687461D01*
X53124309Y-46698846D01*
X53121906Y-46717634D01*
X53120299Y-46740643D01*
X53119568Y-46764692D01*
X53035636Y-46764692D01*
X53036954Y-46745155D01*
X53037677Y-46718157D01*
X53037196Y-46699187D01*
X53035121Y-46671055D01*
X52885084Y-46595782D01*
X52860116Y-46583499D01*
X52826080Y-46567127D01*
X52783812Y-46547049D01*
X52734146Y-46523650D01*
X52677919Y-46497312D01*
X52615966Y-46468417D01*
X52549124Y-46437349D01*
X52478226Y-46404492D01*
X52404110Y-46370227D01*
X52327610Y-46334939D01*
X52249563Y-46299009D01*
X52170804Y-46262822D01*
X52092168Y-46226760D01*
X52014491Y-46191207D01*
X51938609Y-46156545D01*
X51865357Y-46123157D01*
X51795571Y-46091426D01*
X51730086Y-46061737D01*
X51669739Y-46034470D01*
X51615365Y-46010010D01*
X51567798Y-45988740D01*
X51527876Y-45971043D01*
X51496433Y-45957301D01*
X51474306Y-45947898D01*
X51462329Y-45943217D01*
X51460521Y-45942751D01*
X51455910Y-45943992D01*
X51452983Y-45949116D01*
X51451474Y-45960230D01*
X51451113Y-45979437D01*
X51368288Y-45979437D01*
X51368013Y-45960548D01*
X51366641Y-45949234D01*
X51363973Y-45944683D01*
X51360151Y-45944842D01*
X51352997Y-45948176D01*
X51335357Y-45956664D01*
X51307902Y-45969978D01*
X51271303Y-45987787D01*
X51226230Y-46009763D01*
X51173355Y-46035577D01*
X51113349Y-46064900D01*
X51046883Y-46097402D01*
X50974627Y-46132754D01*
X50897253Y-46170627D01*
X50815432Y-46210693D01*
X50729835Y-46252621D01*
X50641133Y-46296084D01*
X50549996Y-46340751D01*
X50457097Y-46386293D01*
X50363105Y-46432383D01*
X50268692Y-46478689D01*
X50174529Y-46524884D01*
X50081288Y-46570637D01*
X49989637Y-46615621D01*
X49900250Y-46659506D01*
X49813797Y-46701962D01*
X49730949Y-46742661D01*
X49652377Y-46781273D01*
X49578752Y-46817470D01*
X49510745Y-46850922D01*
X49449027Y-46881300D01*
X49394269Y-46908275D01*
X49347142Y-46931518D01*
X49308317Y-46950699D01*
X49278465Y-46965490D01*
X49258257Y-46975562D01*
X49248365Y-46980585D01*
X49247456Y-46981095D01*
X49112704Y-46981095D01*
X49113913Y-46967862D01*
X49117065Y-46957987D01*
X49123056Y-46954605D01*
X49139755Y-46946010D01*
X49166631Y-46932463D01*
X49203151Y-46914228D01*
X49248783Y-46891566D01*
X49302994Y-46864738D01*
X49365254Y-46834006D01*
X49435029Y-46799633D01*
X49511787Y-46761880D01*
X49594996Y-46721008D01*
X49684124Y-46677281D01*
X49778638Y-46630959D01*
X49878008Y-46582305D01*
X49981699Y-46531580D01*
X50089181Y-46479047D01*
X50199920Y-46424966D01*
X50257403Y-46396912D01*
X50400528Y-46327103D01*
X50532745Y-46262679D01*
X50654360Y-46203491D01*
X50765678Y-46149394D01*
X50867006Y-46100241D01*
X50958650Y-46055886D01*
X51040914Y-46016181D01*
X51114106Y-45980982D01*
X51178530Y-45950141D01*
X51234493Y-45923512D01*
X51282300Y-45900948D01*
X51322257Y-45882303D01*
X51354671Y-45867432D01*
X51379846Y-45856186D01*
X51398089Y-45848420D01*
X51409705Y-45843987D01*
X51414753Y-45842726D01*
X51423446Y-45845292D01*
X51442669Y-45852742D01*
X51471604Y-45864706D01*
X51509436Y-45880816D01*
X51555349Y-45900701D01*
X51608525Y-45923992D01*
X51668148Y-45950318D01*
X51733403Y-45979311D01*
X51803472Y-46010601D01*
X51877540Y-46043817D01*
X51954790Y-46078591D01*
X52034406Y-46114552D01*
X52115571Y-46151331D01*
X52197469Y-46188558D01*
X52279284Y-46225864D01*
X52360199Y-46262878D01*
X52439399Y-46299232D01*
X52516066Y-46334554D01*
X52589384Y-46368477D01*
X52658537Y-46400629D01*
X52722710Y-46430642D01*
X52781084Y-46458146D01*
X52832844Y-46482770D01*
X52877174Y-46504146D01*
X52900344Y-46515493D01*
X52951069Y-46540461D01*
X52991841Y-46560319D01*
X53023877Y-46575576D01*
X53048393Y-46586741D01*
X53066607Y-46594322D01*
X53079734Y-46598830D01*
X53088992Y-46600773D01*
X53095597Y-46600659D01*
X53100393Y-46599169D01*
X53114625Y-46592324D01*
X53136670Y-46581148D01*
X53164636Y-46566651D01*
X53196634Y-46549845D01*
X53230772Y-46531741D01*
X53265159Y-46513350D01*
X53297904Y-46495684D01*
X53327118Y-46479754D01*
X53350907Y-46466570D01*
X53367383Y-46457145D01*
X53374646Y-46452497D01*
X53375893Y-46448550D01*
X53370875Y-46443590D01*
X53358207Y-46436892D01*
X53336504Y-46427728D01*
X53304382Y-46415373D01*
X53302754Y-46414761D01*
X53284818Y-46407992D01*
X53266691Y-46401045D01*
X53247920Y-46393718D01*
X53228049Y-46385812D01*
X53206626Y-46377126D01*
X53183196Y-46367459D01*
X53157306Y-46356611D01*
X53128501Y-46344381D01*
X53096328Y-46330569D01*
X53060333Y-46314973D01*
X53020062Y-46297393D01*
X52975062Y-46277629D01*
X52924877Y-46255480D01*
X52869055Y-46230745D01*
X52807142Y-46203224D01*
X52738683Y-46172717D01*
X52663225Y-46139021D01*
X52580315Y-46101938D01*
X52489497Y-46061266D01*
X52390318Y-46016805D01*
X52282325Y-45968354D01*
X52165064Y-45915712D01*
X52038080Y-45858679D01*
X51900920Y-45797054D01*
X51753130Y-45730637D01*
X51643404Y-45681319D01*
X51489262Y-45612036D01*
X51346085Y-45547681D01*
X51213434Y-45488055D01*
X51090870Y-45432958D01*
X50977955Y-45382188D01*
X50874251Y-45335547D01*
X50779320Y-45292833D01*
X50692723Y-45253847D01*
X50614021Y-45218389D01*
X50542777Y-45186258D01*
X50478552Y-45157253D01*
X50420907Y-45131176D01*
X50369405Y-45107825D01*
X50323607Y-45087001D01*
X50283074Y-45068503D01*
X50247369Y-45052131D01*
X50216052Y-45037685D01*
X50188686Y-45024965D01*
X50164832Y-45013770D01*
X50144052Y-45003901D01*
X50125907Y-44995156D01*
X50109959Y-44987337D01*
X50095769Y-44980242D01*
X50082901Y-44973672D01*
X50070913Y-44967426D01*
X50059370Y-44961304D01*
X50047832Y-44955106D01*
X50035860Y-44948632D01*
X50023017Y-44941681D01*
X50018625Y-44939309D01*
X49918727Y-44885406D01*
X49814015Y-44932259D01*
X49776909Y-44948866D01*
X49740349Y-44965234D01*
X49707237Y-44980065D01*
X49680474Y-44992059D01*
X49666389Y-44998377D01*
X49642855Y-45009980D01*
X49631111Y-45019113D01*
X49630995Y-45026973D01*
X49642345Y-45034760D01*
X49660458Y-45042061D01*
X49677637Y-45048773D01*
X49704613Y-45060017D01*
X49740512Y-45075394D01*
X49784458Y-45094509D01*
X49835576Y-45116964D01*
X49892991Y-45142363D01*
X49955829Y-45170310D01*
X50023213Y-45200406D01*
X50094269Y-45232256D01*
X50168121Y-45265462D01*
X50243896Y-45299629D01*
X50320717Y-45334359D01*
X50397709Y-45369255D01*
X50473998Y-45403921D01*
X50548708Y-45437960D01*
X50620964Y-45470976D01*
X50689892Y-45502570D01*
X50754615Y-45532348D01*
X50814260Y-45559912D01*
X50867950Y-45584864D01*
X50914812Y-45606810D01*
X50953969Y-45625351D01*
X50984546Y-45640091D01*
X51005670Y-45650633D01*
X51016463Y-45656581D01*
X51017437Y-45657296D01*
X51028903Y-45673904D01*
X51030589Y-45692013D01*
X51022858Y-45706693D01*
X51015958Y-45710692D01*
X50998442Y-45719733D01*
X50970962Y-45733503D01*
X50934167Y-45751692D01*
X50888711Y-45773986D01*
X50835243Y-45800075D01*
X50774417Y-45829646D01*
X50706883Y-45862387D01*
X50633293Y-45897986D01*
X50554298Y-45936132D01*
X50470550Y-45976513D01*
X50382700Y-46018815D01*
X50291399Y-46062729D01*
X50197300Y-46107941D01*
X50101053Y-46154140D01*
X50003310Y-46201014D01*
X49904723Y-46248251D01*
X49805943Y-46295539D01*
X49707621Y-46342566D01*
X49610409Y-46389020D01*
X49514958Y-46434589D01*
X49421920Y-46478962D01*
X49331946Y-46521826D01*
X49245688Y-46562869D01*
X49163797Y-46601781D01*
X49086925Y-46638247D01*
X49015723Y-46671958D01*
X48950842Y-46702600D01*
X48892934Y-46729862D01*
X48842651Y-46753432D01*
X48800644Y-46772998D01*
X48767564Y-46788249D01*
X48744064Y-46798871D01*
X48730793Y-46804554D01*
X48728038Y-46805463D01*
X48720582Y-46802663D01*
X48702808Y-46794530D01*
X48675507Y-46781467D01*
X48639471Y-46763879D01*
X48595491Y-46742167D01*
X48544360Y-46716736D01*
X48486868Y-46687988D01*
X48423808Y-46656327D01*
X48355971Y-46622155D01*
X48284148Y-46585876D01*
X48209131Y-46547893D01*
X48131712Y-46508610D01*
X48052682Y-46468428D01*
X47972833Y-46427752D01*
X47892957Y-46386985D01*
X47813845Y-46346530D01*
X47736288Y-46306789D01*
X47661079Y-46268167D01*
X47589009Y-46231066D01*
X47520869Y-46195889D01*
X47457452Y-46163040D01*
X47399548Y-46132922D01*
X47347949Y-46105937D01*
X47303448Y-46082490D01*
X47266834Y-46062983D01*
X47238901Y-46047819D01*
X47223889Y-46039404D01*
X47188553Y-46018831D01*
X47150974Y-45996501D01*
X47115332Y-45974926D01*
X47085808Y-45956615D01*
X47082329Y-45954409D01*
X47023181Y-45916768D01*
X46850244Y-45992822D01*
X46806496Y-46012213D01*
X46766221Y-46030355D01*
X46730916Y-46046549D01*
X46702077Y-46060099D01*
X46681202Y-46070308D01*
X46669787Y-46076478D01*
X46668320Y-46077540D01*
X46664620Y-46083212D01*
X46516012Y-46083212D01*
X46516420Y-46074978D01*
X46517076Y-46069601D01*
X46517951Y-46064982D01*
X46520018Y-46060619D01*
X46524246Y-46056005D01*
X46531609Y-46050639D01*
X46543077Y-46044015D01*
X46559622Y-46035629D01*
X46582214Y-46024978D01*
X46611826Y-46011558D01*
X46649429Y-45994864D01*
X46695993Y-45974393D01*
X46752492Y-45949640D01*
X46787761Y-45934189D01*
X46841753Y-45910744D01*
X46891230Y-45889682D01*
X46935032Y-45871469D01*
X46971997Y-45856576D01*
X47000966Y-45845469D01*
X47020778Y-45838618D01*
X47029943Y-45836475D01*
X47043230Y-45839428D01*
X47063221Y-45848647D01*
X47090942Y-45864673D01*
X47125059Y-45886487D01*
X47152028Y-45904176D01*
X47175029Y-45919117D01*
X47192177Y-45930096D01*
X47201585Y-45935898D01*
X47202776Y-45936499D01*
X47208578Y-45939440D01*
X47222809Y-45947377D01*
X47243115Y-45958982D01*
X47259770Y-45968628D01*
X47275457Y-45977343D01*
X47301506Y-45991292D01*
X47337120Y-46010068D01*
X47381503Y-46033262D01*
X47433858Y-46060467D01*
X47493390Y-46091274D01*
X47559301Y-46125275D01*
X47630797Y-46162063D01*
X47707080Y-46201230D01*
X47787355Y-46242367D01*
X47870825Y-46285067D01*
X47956694Y-46328922D01*
X48044165Y-46373524D01*
X48132443Y-46418464D01*
X48220731Y-46463335D01*
X48308233Y-46507728D01*
X48394153Y-46551237D01*
X48477695Y-46593452D01*
X48558061Y-46633967D01*
X48572505Y-46641237D01*
X48729777Y-46720374D01*
X48794435Y-46689984D01*
X48822592Y-46676685D01*
X48858422Y-46659665D01*
X48898337Y-46640632D01*
X48938749Y-46621298D01*
X48962244Y-46610022D01*
X49002188Y-46590852D01*
X49049319Y-46568274D01*
X49099532Y-46544252D01*
X49148725Y-46520750D01*
X49187299Y-46502348D01*
X49230030Y-46481971D01*
X49275203Y-46460409D01*
X49319373Y-46439309D01*
X49359091Y-46420318D01*
X49390474Y-46405292D01*
X49443712Y-46379783D01*
X49501067Y-46352321D01*
X49561378Y-46323458D01*
X49623485Y-46293750D01*
X49686228Y-46263750D01*
X49748447Y-46234013D01*
X49808982Y-46205092D01*
X49866671Y-46177542D01*
X49920356Y-46151917D01*
X49968876Y-46128771D01*
X50011071Y-46108658D01*
X50045780Y-46092133D01*
X50071843Y-46079749D01*
X50088101Y-46072061D01*
X50090647Y-46070868D01*
X50112108Y-46060756D01*
X50141522Y-46046766D01*
X50175591Y-46030473D01*
X50211016Y-46013453D01*
X50225055Y-46006684D01*
X50296412Y-45972293D01*
X50369087Y-45937365D01*
X50440103Y-45903326D01*
X50506483Y-45871604D01*
X50565248Y-45843626D01*
X50576704Y-45838188D01*
X50604092Y-45824867D01*
X50626843Y-45813173D01*
X50642843Y-45804240D01*
X50649979Y-45799203D01*
X50650159Y-45798798D01*
X50644922Y-45793973D01*
X50631504Y-45786545D01*
X50620464Y-45781462D01*
X50602408Y-45773449D01*
X50576834Y-45761797D01*
X50547516Y-45748236D01*
X50525128Y-45737753D01*
X50487022Y-45719840D01*
X50453349Y-45704109D01*
X50419865Y-45688587D01*
X50382323Y-45671306D01*
X50350085Y-45656524D01*
X50335845Y-45649979D01*
X50311650Y-45638833D01*
X50278892Y-45623727D01*
X50238966Y-45605306D01*
X50193266Y-45584212D01*
X50143187Y-45561090D01*
X50090120Y-45536581D01*
X50056263Y-45520941D01*
X49968733Y-45480648D01*
X49890995Y-45445192D01*
X49821600Y-45413937D01*
X49759097Y-45386247D01*
X49702038Y-45361484D01*
X49648973Y-45339014D01*
X49598453Y-45318198D01*
X49553014Y-45299978D01*
X49490499Y-45275228D01*
X49486200Y-45241712D01*
X49484556Y-45223328D01*
X49482972Y-45195706D01*
X49481597Y-45162112D01*
X49480580Y-45125812D01*
X49480564Y-45124996D01*
X49557067Y-45124996D01*
X49557498Y-45149702D01*
X49558701Y-45182045D01*
X49560560Y-45203842D01*
X49563367Y-45217043D01*
X49567412Y-45223600D01*
X49568643Y-45224425D01*
X49576881Y-45228176D01*
X49594941Y-45235973D01*
X49621089Y-45247081D01*
X49653595Y-45260767D01*
X49690724Y-45276299D01*
X49715554Y-45286636D01*
X49743884Y-45298684D01*
X49782298Y-45315447D01*
X49829547Y-45336360D01*
X49884381Y-45360860D01*
X49945550Y-45388382D01*
X50011805Y-45418363D01*
X50081895Y-45450238D01*
X50154570Y-45483444D01*
X50228581Y-45517417D01*
X50296947Y-45548944D01*
X50367001Y-45581290D01*
X50433825Y-45612082D01*
X50496545Y-45640919D01*
X50554283Y-45667401D01*
X50606163Y-45691129D01*
X50651309Y-45711702D01*
X50688845Y-45728721D01*
X50717895Y-45741786D01*
X50737582Y-45750496D01*
X50747030Y-45754452D01*
X50747702Y-45754653D01*
X50755665Y-45752316D01*
X50772546Y-45745533D01*
X50796005Y-45735296D01*
X50823702Y-45722600D01*
X50828843Y-45720184D01*
X50858884Y-45705936D01*
X50879001Y-45695943D01*
X50890589Y-45689145D01*
X50895042Y-45684483D01*
X50893753Y-45680896D01*
X50888116Y-45677325D01*
X50886392Y-45676416D01*
X50873219Y-45669925D01*
X50849627Y-45658753D01*
X50816600Y-45643345D01*
X50775121Y-45624148D01*
X50726174Y-45601609D01*
X50670743Y-45576174D01*
X50609812Y-45548290D01*
X50544364Y-45518403D01*
X50475383Y-45486960D01*
X50403854Y-45454407D01*
X50330759Y-45421191D01*
X50257082Y-45387758D01*
X50183808Y-45354556D01*
X50111920Y-45322030D01*
X50042402Y-45290627D01*
X49976237Y-45260794D01*
X49914409Y-45232976D01*
X49857902Y-45207622D01*
X49807700Y-45185177D01*
X49764787Y-45166087D01*
X49730146Y-45150800D01*
X49704761Y-45139762D01*
X49694900Y-45135580D01*
X49656883Y-45119777D01*
X49622835Y-45105724D01*
X49594412Y-45094093D01*
X49573266Y-45085562D01*
X49561054Y-45080804D01*
X49558724Y-45080039D01*
X49557677Y-45085869D01*
X49557110Y-45101690D01*
X49557067Y-45124996D01*
X49480564Y-45124996D01*
X49480329Y-45112621D01*
X49479796Y-45076117D01*
X49479768Y-45049965D01*
X49480512Y-45032016D01*
X49482293Y-45020123D01*
X49485378Y-45012135D01*
X49490032Y-45005905D01*
X49494043Y-45001761D01*
X49504063Y-44994953D01*
X49523881Y-44984162D01*
X49551843Y-44970122D01*
X49586295Y-44953568D01*
X49625583Y-44935234D01*
X49668054Y-44915856D01*
X49712054Y-44896167D01*
X49755929Y-44876904D01*
X49798025Y-44858800D01*
X49836690Y-44842591D01*
X49870268Y-44829011D01*
X49897106Y-44818795D01*
X49915551Y-44812678D01*
X49922871Y-44811222D01*
X49940146Y-44814558D01*
G37*
G36*
X50006789Y-44326065D02*
G01*
X50024596Y-44333325D01*
X50052973Y-44345187D01*
X50091472Y-44361459D01*
X50139647Y-44381945D01*
X50197051Y-44406452D01*
X50263236Y-44434787D01*
X50337755Y-44466755D01*
X50420162Y-44502162D01*
X50510009Y-44540816D01*
X50606849Y-44582520D01*
X50710236Y-44627083D01*
X50819721Y-44674310D01*
X50934859Y-44724007D01*
X51055201Y-44775980D01*
X51180301Y-44830036D01*
X51309712Y-44885980D01*
X51442987Y-44943619D01*
X51579678Y-45002759D01*
X51719339Y-45063205D01*
X51861522Y-45124765D01*
X52005781Y-45187243D01*
X52151668Y-45250447D01*
X52298736Y-45314183D01*
X52446539Y-45378256D01*
X52594628Y-45442472D01*
X52742558Y-45506639D01*
X52889881Y-45570561D01*
X53036149Y-45634045D01*
X53180916Y-45696897D01*
X53323736Y-45758924D01*
X53464159Y-45819931D01*
X53601741Y-45879725D01*
X53736032Y-45938111D01*
X53866588Y-45994896D01*
X53992959Y-46049887D01*
X54114700Y-46102888D01*
X54231364Y-46153706D01*
X54342502Y-46202147D01*
X54447669Y-46248018D01*
X54546416Y-46291125D01*
X54638298Y-46331273D01*
X54722866Y-46368269D01*
X54799674Y-46401919D01*
X54868275Y-46432029D01*
X54928221Y-46458405D01*
X54979066Y-46480853D01*
X55020363Y-46499180D01*
X55051664Y-46513192D01*
X55072522Y-46522694D01*
X55082491Y-46527492D01*
X55083284Y-46527979D01*
X55087424Y-46532758D01*
X55090607Y-46539472D01*
X55092791Y-46549194D01*
X55093936Y-46562996D01*
X55093999Y-46581952D01*
X55092941Y-46607133D01*
X55090719Y-46639612D01*
X55087294Y-46680461D01*
X55082623Y-46730754D01*
X55076667Y-46791562D01*
X55071070Y-46847293D01*
X55065859Y-46900262D01*
X55061279Y-46949616D01*
X55057443Y-46993901D01*
X55054466Y-47031664D01*
X55052462Y-47061450D01*
X55051545Y-47081806D01*
X55051829Y-47091279D01*
X55051893Y-47091486D01*
X55059844Y-47099527D01*
X55078251Y-47110860D01*
X55105747Y-47124699D01*
X55124060Y-47133010D01*
X55151821Y-47145630D01*
X55176100Y-47157426D01*
X55194140Y-47167011D01*
X55202842Y-47172668D01*
X55206756Y-47176936D01*
X55209746Y-47182677D01*
X55211764Y-47191051D01*
X55212763Y-47203213D01*
X55212695Y-47220322D01*
X55211514Y-47243534D01*
X55209171Y-47274008D01*
X55205619Y-47312902D01*
X55200811Y-47361371D01*
X55194700Y-47420575D01*
X55191415Y-47451955D01*
X55185269Y-47509916D01*
X55180126Y-47556716D01*
X55175788Y-47593636D01*
X55172056Y-47621959D01*
X55168731Y-47642969D01*
X55165614Y-47657949D01*
X55162507Y-47668181D01*
X55159211Y-47674948D01*
X55156271Y-47678766D01*
X55146412Y-47686775D01*
X55128011Y-47699458D01*
X55103385Y-47715294D01*
X55074855Y-47732767D01*
X55063478Y-47739516D01*
X55035041Y-47756490D01*
X55010517Y-47771615D01*
X54991915Y-47783615D01*
X54981246Y-47791211D01*
X54979580Y-47792834D01*
X54978591Y-47799514D01*
X54976459Y-47817666D01*
X54973282Y-47846321D01*
X54969158Y-47884509D01*
X54964187Y-47931261D01*
X54958467Y-47985609D01*
X54952098Y-48046583D01*
X54945177Y-48113213D01*
X54937804Y-48184530D01*
X54930077Y-48259566D01*
X54922095Y-48337351D01*
X54913957Y-48416915D01*
X54905762Y-48497290D01*
X54897608Y-48577506D01*
X54889594Y-48656595D01*
X54881819Y-48733586D01*
X54874382Y-48807511D01*
X54867381Y-48877400D01*
X54860915Y-48942284D01*
X54855083Y-49001195D01*
X54849984Y-49053162D01*
X54845716Y-49097216D01*
X54842379Y-49132389D01*
X54840070Y-49157711D01*
X54838889Y-49172213D01*
X54838752Y-49174952D01*
X54844399Y-49181539D01*
X54861026Y-49192628D01*
X54888078Y-49207891D01*
X54925002Y-49227004D01*
X54939748Y-49234342D01*
X54983311Y-49256132D01*
X55016736Y-49273700D01*
X55041293Y-49287944D01*
X55058251Y-49299764D01*
X55068881Y-49310058D01*
X55074450Y-49319725D01*
X55076229Y-49329663D01*
X55076248Y-49330975D01*
X55075604Y-49341297D01*
X55073777Y-49362432D01*
X55070923Y-49392761D01*
X55067203Y-49430666D01*
X55062772Y-49474528D01*
X55057789Y-49522729D01*
X55054543Y-49553595D01*
X55048573Y-49609662D01*
X55043648Y-49654638D01*
X55039543Y-49689868D01*
X55036030Y-49716700D01*
X55032885Y-49736479D01*
X55029879Y-49750552D01*
X55026788Y-49760266D01*
X55023386Y-49766968D01*
X55019445Y-49772002D01*
X55017511Y-49774007D01*
X55007853Y-49781835D01*
X54989410Y-49795158D01*
X54963949Y-49812761D01*
X54933234Y-49833431D01*
X54899034Y-49855955D01*
X54884493Y-49865393D01*
X54841388Y-49893649D01*
X54808388Y-49916221D01*
X54784763Y-49933656D01*
X54769777Y-49946501D01*
X54762699Y-49955302D01*
X54762157Y-49956659D01*
X54761056Y-49964404D01*
X54758793Y-49983952D01*
X54755432Y-50014664D01*
X54751039Y-50055901D01*
X54745680Y-50107023D01*
X54739419Y-50167392D01*
X54732323Y-50236368D01*
X54724455Y-50313312D01*
X54715882Y-50397584D01*
X54706669Y-50488545D01*
X54696880Y-50585556D01*
X54686583Y-50687978D01*
X54675841Y-50795171D01*
X54664719Y-50906497D01*
X54653285Y-51021315D01*
X54648682Y-51067627D01*
X54633259Y-51222519D01*
X54618885Y-51366069D01*
X54605569Y-51498187D01*
X54593320Y-51618784D01*
X54582147Y-51727771D01*
X54572061Y-51825059D01*
X54563071Y-51910559D01*
X54555185Y-51984182D01*
X54548414Y-52045840D01*
X54542766Y-52095443D01*
X54538252Y-52132903D01*
X54534879Y-52158130D01*
X54532659Y-52171036D01*
X54532061Y-52172774D01*
X54524624Y-52179261D01*
X54508707Y-52191566D01*
X54486092Y-52208363D01*
X54458563Y-52228327D01*
X54429856Y-52248755D01*
X54399669Y-52270212D01*
X54373028Y-52289463D01*
X54351625Y-52305260D01*
X54337154Y-52316352D01*
X54331353Y-52321420D01*
X54328419Y-52330625D01*
X54325192Y-52347903D01*
X54323219Y-52362478D01*
X54320096Y-52389177D01*
X54316817Y-52416728D01*
X54315502Y-52427612D01*
X54311830Y-52457759D01*
X54149883Y-52572960D01*
X54101693Y-52607040D01*
X54062555Y-52634232D01*
X54031515Y-52655145D01*
X54007618Y-52670386D01*
X53989910Y-52680563D01*
X53977435Y-52686284D01*
X53969239Y-52688157D01*
X53968943Y-52688161D01*
X53953809Y-52685007D01*
X53932880Y-52676752D01*
X53912059Y-52665954D01*
X53892304Y-52655317D01*
X53876317Y-52648420D01*
X53867428Y-52646689D01*
X53867246Y-52646757D01*
X53861305Y-52650703D01*
X53845829Y-52661402D01*
X53821491Y-52678379D01*
X53788962Y-52701164D01*
X53748912Y-52729283D01*
X53702014Y-52762264D01*
X53648938Y-52799634D01*
X53590356Y-52840922D01*
X53526939Y-52885656D01*
X53459358Y-52933362D01*
X53388284Y-52983568D01*
X53314389Y-53035802D01*
X53313768Y-53036241D01*
X52767212Y-53422716D01*
X52705876Y-53537800D01*
X52686888Y-53573050D01*
X52669266Y-53605067D01*
X52654056Y-53632001D01*
X52642307Y-53652001D01*
X52635068Y-53663220D01*
X52634124Y-53664394D01*
X52617447Y-53673776D01*
X52592764Y-53674990D01*
X52561561Y-53668003D01*
X52556101Y-53666136D01*
X52534712Y-53660293D01*
X52507625Y-53655266D01*
X52487081Y-53652771D01*
X52445417Y-53649174D01*
X51233648Y-54504540D01*
X51084106Y-54610059D01*
X50944653Y-54708373D01*
X50815204Y-54799543D01*
X50695671Y-54883629D01*
X50585968Y-54960692D01*
X50486008Y-55030792D01*
X50395706Y-55093988D01*
X50314973Y-55150343D01*
X50243725Y-55199915D01*
X50181874Y-55242765D01*
X50129334Y-55278953D01*
X50086019Y-55308540D01*
X50051841Y-55331586D01*
X50026714Y-55348152D01*
X50010552Y-55358296D01*
X50003269Y-55362081D01*
X50003125Y-55362106D01*
X50000526Y-55361634D01*
X49995942Y-55359680D01*
X49989077Y-55356038D01*
X49979634Y-55350500D01*
X49967315Y-55342860D01*
X49951825Y-55332909D01*
X49932867Y-55320442D01*
X49910144Y-55305251D01*
X49883358Y-55287129D01*
X49852215Y-55265870D01*
X49816416Y-55241265D01*
X49775665Y-55213109D01*
X49729665Y-55181193D01*
X49678120Y-55145312D01*
X49620732Y-55105257D01*
X49557206Y-55060822D01*
X49487244Y-55011800D01*
X49410550Y-54957985D01*
X49326827Y-54899167D01*
X49235778Y-54835142D01*
X49137107Y-54765702D01*
X49030516Y-54690639D01*
X48915709Y-54609747D01*
X48792390Y-54522818D01*
X48660262Y-54429646D01*
X48519027Y-54330024D01*
X48368389Y-54223745D01*
X48208052Y-54110601D01*
X48087425Y-54025468D01*
X46303367Y-52766305D01*
X46436622Y-52766305D01*
X46439748Y-52769431D01*
X46442874Y-52766305D01*
X46439748Y-52763179D01*
X46436622Y-52766305D01*
X46303367Y-52766305D01*
X46190480Y-52686631D01*
X46140071Y-52679581D01*
X46089662Y-52672532D01*
X46057229Y-52622520D01*
X46042224Y-52599906D01*
X46028967Y-52580866D01*
X46019421Y-52568179D01*
X46016594Y-52565031D01*
X46010001Y-52560063D01*
X45994175Y-52548628D01*
X45970119Y-52531438D01*
X45938838Y-52509203D01*
X45901333Y-52482635D01*
X45858609Y-52452447D01*
X45811669Y-52419350D01*
X45761517Y-52384055D01*
X45748953Y-52375223D01*
X45697889Y-52339262D01*
X45649584Y-52305103D01*
X45605075Y-52273490D01*
X45565399Y-52245165D01*
X45531594Y-52220871D01*
X45504698Y-52201353D01*
X45485747Y-52187354D01*
X45475779Y-52179617D01*
X45474904Y-52178838D01*
X45473722Y-52177550D01*
X45472548Y-52175766D01*
X45471346Y-52173141D01*
X45470080Y-52169336D01*
X45468715Y-52164009D01*
X45467215Y-52156817D01*
X45465544Y-52147421D01*
X45463666Y-52135477D01*
X45461546Y-52120646D01*
X45459148Y-52102584D01*
X45456436Y-52080951D01*
X45453375Y-52055405D01*
X45449929Y-52025605D01*
X45446061Y-51991209D01*
X45441737Y-51951876D01*
X45436920Y-51907264D01*
X45431576Y-51857031D01*
X45425667Y-51800837D01*
X45419159Y-51738339D01*
X45412015Y-51669196D01*
X45404201Y-51593067D01*
X45395679Y-51509610D01*
X45386415Y-51418484D01*
X45376373Y-51319347D01*
X45365517Y-51211857D01*
X45353811Y-51095674D01*
X45341219Y-50970455D01*
X45327707Y-50835859D01*
X45313237Y-50691545D01*
X45297775Y-50537171D01*
X45281284Y-50372396D01*
X45263729Y-50196878D01*
X45245075Y-50010275D01*
X45225285Y-49812246D01*
X45204323Y-49602450D01*
X45182766Y-49386662D01*
X45164235Y-49201093D01*
X45146021Y-49018539D01*
X45128162Y-48839403D01*
X45110698Y-48664084D01*
X45093669Y-48492983D01*
X45077114Y-48326501D01*
X45061072Y-48165039D01*
X45045584Y-48008997D01*
X45030689Y-47858776D01*
X45016426Y-47714776D01*
X45002835Y-47577399D01*
X44989955Y-47447045D01*
X44977827Y-47324115D01*
X44966488Y-47209010D01*
X44955980Y-47102130D01*
X44946342Y-47003875D01*
X44937613Y-46914648D01*
X44929833Y-46834847D01*
X44923041Y-46764875D01*
X44917276Y-46705132D01*
X44912580Y-46656018D01*
X44910874Y-46637922D01*
X44995434Y-46637922D01*
X44995912Y-46644205D01*
X44997575Y-46662533D01*
X45000385Y-46692508D01*
X45004302Y-46733733D01*
X45009289Y-46785809D01*
X45015305Y-46848339D01*
X45022313Y-46920925D01*
X45030273Y-47003169D01*
X45039148Y-47094673D01*
X45048897Y-47195040D01*
X45059483Y-47303871D01*
X45070866Y-47420768D01*
X45083008Y-47545334D01*
X45095870Y-47677171D01*
X45109413Y-47815881D01*
X45123599Y-47961067D01*
X45138389Y-48112329D01*
X45153743Y-48269271D01*
X45169624Y-48431495D01*
X45185992Y-48598602D01*
X45202808Y-48770195D01*
X45220035Y-48945876D01*
X45237632Y-49125247D01*
X45255562Y-49307911D01*
X45261828Y-49371724D01*
X45279876Y-49555536D01*
X45297614Y-49736237D01*
X45315002Y-49913428D01*
X45332002Y-50086707D01*
X45348574Y-50255676D01*
X45364679Y-50419935D01*
X45380278Y-50579083D01*
X45395333Y-50732721D01*
X45409803Y-50880448D01*
X45423650Y-51021865D01*
X45436834Y-51156572D01*
X45449317Y-51284169D01*
X45461060Y-51404255D01*
X45472023Y-51516432D01*
X45482167Y-51620299D01*
X45491453Y-51715455D01*
X45499842Y-51801503D01*
X45507295Y-51878040D01*
X45513772Y-51944668D01*
X45519235Y-52000986D01*
X45523645Y-52046595D01*
X45526962Y-52081094D01*
X45529148Y-52104085D01*
X45530163Y-52115166D01*
X45530234Y-52116145D01*
X45533370Y-52122217D01*
X45543162Y-52132162D01*
X45560318Y-52146536D01*
X45585544Y-52165893D01*
X45619550Y-52190789D01*
X45663043Y-52221778D01*
X45681717Y-52234924D01*
X45722575Y-52263618D01*
X45762316Y-52291536D01*
X45799158Y-52317424D01*
X45831319Y-52340032D01*
X45857018Y-52358108D01*
X45874474Y-52370398D01*
X45875900Y-52371403D01*
X45895041Y-52384166D01*
X45907941Y-52391253D01*
X45913051Y-52391876D01*
X45912579Y-52390158D01*
X45907387Y-52381315D01*
X45896757Y-52363809D01*
X45881881Y-52339579D01*
X45863947Y-52310565D01*
X45846446Y-52282399D01*
X45827222Y-52251053D01*
X45810552Y-52222953D01*
X45797498Y-52199967D01*
X45789122Y-52183960D01*
X45786462Y-52177025D01*
X45788044Y-52166502D01*
X45792157Y-52148229D01*
X45797002Y-52129550D01*
X45802491Y-52103037D01*
X45805783Y-52070324D01*
X45807096Y-52028815D01*
X45807121Y-52009869D01*
X45806522Y-51998010D01*
X45804822Y-51974311D01*
X45802076Y-51939380D01*
X45798340Y-51893824D01*
X45793668Y-51838254D01*
X45788117Y-51773278D01*
X45781741Y-51699504D01*
X45774595Y-51617541D01*
X45766736Y-51527997D01*
X45758219Y-51431481D01*
X45749098Y-51328603D01*
X45739430Y-51219969D01*
X45729269Y-51106190D01*
X45718671Y-50987873D01*
X45707692Y-50865628D01*
X45696386Y-50740063D01*
X45684809Y-50611786D01*
X45673016Y-50481406D01*
X45661063Y-50349532D01*
X45649005Y-50216772D01*
X45636897Y-50083736D01*
X45624796Y-49951031D01*
X45612755Y-49819266D01*
X45600830Y-49689050D01*
X45589078Y-49560992D01*
X45577552Y-49435700D01*
X45566309Y-49313783D01*
X45555404Y-49195849D01*
X45544892Y-49082507D01*
X45534828Y-48974366D01*
X45525269Y-48872034D01*
X45516268Y-48776120D01*
X45507883Y-48687233D01*
X45500167Y-48605981D01*
X45493176Y-48532972D01*
X45486966Y-48468816D01*
X45481592Y-48414121D01*
X45477109Y-48369496D01*
X45473573Y-48335548D01*
X45471038Y-48312888D01*
X45470555Y-48308958D01*
X45463588Y-48256790D01*
X45455194Y-48198500D01*
X45445750Y-48136361D01*
X45435634Y-48072649D01*
X45425222Y-48009640D01*
X45414892Y-47949610D01*
X45405020Y-47894832D01*
X45400287Y-47870087D01*
X45488694Y-47870087D01*
X45488728Y-47876955D01*
X45490621Y-47894554D01*
X45494149Y-47921286D01*
X45499089Y-47955556D01*
X45505219Y-47995764D01*
X45512314Y-48040314D01*
X45513497Y-48047571D01*
X45521570Y-48097693D01*
X45529503Y-48148290D01*
X45536899Y-48196724D01*
X45543359Y-48240356D01*
X45548486Y-48276549D01*
X45551508Y-48299581D01*
X45553710Y-48319236D01*
X45556907Y-48350326D01*
X45561045Y-48392244D01*
X45566071Y-48444382D01*
X45571930Y-48506133D01*
X45578568Y-48576889D01*
X45585931Y-48656044D01*
X45593965Y-48742990D01*
X45602615Y-48837120D01*
X45611829Y-48937825D01*
X45621551Y-49044499D01*
X45631728Y-49156534D01*
X45642305Y-49273324D01*
X45653228Y-49394260D01*
X45664444Y-49518735D01*
X45675898Y-49646142D01*
X45687535Y-49775874D01*
X45699303Y-49907322D01*
X45711147Y-50039881D01*
X45723013Y-50172941D01*
X45734846Y-50305897D01*
X45746593Y-50438140D01*
X45758199Y-50569063D01*
X45769611Y-50698059D01*
X45780774Y-50824521D01*
X45791635Y-50947840D01*
X45802138Y-51067411D01*
X45812231Y-51182624D01*
X45821858Y-51292874D01*
X45830967Y-51397552D01*
X45839502Y-51496051D01*
X45847410Y-51587764D01*
X45854636Y-51672084D01*
X45861127Y-51748402D01*
X45866829Y-51816112D01*
X45871686Y-51874607D01*
X45875646Y-51923278D01*
X45878654Y-51961519D01*
X45880656Y-51988722D01*
X45881598Y-52004280D01*
X45881667Y-52006743D01*
X45881151Y-52041939D01*
X45879471Y-52077452D01*
X45876902Y-52108777D01*
X45874241Y-52128648D01*
X45866449Y-52172409D01*
X45992836Y-52375584D01*
X46021390Y-52421380D01*
X46048149Y-52464093D01*
X46072334Y-52502497D01*
X46093166Y-52535361D01*
X46109865Y-52561457D01*
X46121653Y-52579557D01*
X46127749Y-52588432D01*
X46128112Y-52588878D01*
X46139149Y-52595225D01*
X46159597Y-52601536D01*
X46185224Y-52606673D01*
X46203764Y-52610701D01*
X46232072Y-52618246D01*
X46268114Y-52628699D01*
X46309857Y-52641451D01*
X46355265Y-52655894D01*
X46402304Y-52671419D01*
X46408491Y-52673505D01*
X46608945Y-52738009D01*
X46801992Y-52793453D01*
X46988616Y-52840047D01*
X47169801Y-52878001D01*
X47346529Y-52907524D01*
X47519784Y-52928826D01*
X47658798Y-52940233D01*
X47690055Y-52941629D01*
X47731078Y-52942589D01*
X47779138Y-52943127D01*
X47831507Y-52943258D01*
X47885455Y-52942995D01*
X47938255Y-52942353D01*
X47987176Y-52941347D01*
X48029490Y-52939990D01*
X48062469Y-52938297D01*
X48065148Y-52938109D01*
X48197795Y-52924703D01*
X48330953Y-52903850D01*
X48462474Y-52876106D01*
X48590213Y-52842025D01*
X48712022Y-52802164D01*
X48825755Y-52757076D01*
X48900510Y-52722153D01*
X48927605Y-52707949D01*
X48958904Y-52690524D01*
X48992702Y-52670940D01*
X49027290Y-52650259D01*
X49060965Y-52629545D01*
X49092018Y-52609859D01*
X49118744Y-52592263D01*
X49139437Y-52577821D01*
X49152390Y-52567594D01*
X49156042Y-52563044D01*
X49153617Y-52555573D01*
X49146750Y-52538216D01*
X49136055Y-52512374D01*
X49122142Y-52479443D01*
X49105626Y-52440821D01*
X49087119Y-52397908D01*
X49067233Y-52352101D01*
X49046580Y-52304798D01*
X49025774Y-52257398D01*
X49005426Y-52211298D01*
X48986149Y-52167896D01*
X48968557Y-52128591D01*
X48953260Y-52094780D01*
X48940873Y-52067863D01*
X48932007Y-52049236D01*
X48927275Y-52040299D01*
X48926763Y-52039719D01*
X48919683Y-52042450D01*
X48904679Y-52051384D01*
X48883811Y-52065199D01*
X48859141Y-52082576D01*
X48853835Y-52086433D01*
X48776372Y-52138417D01*
X48688823Y-52188943D01*
X48593597Y-52236905D01*
X48493105Y-52281195D01*
X48389758Y-52320705D01*
X48285968Y-52354328D01*
X48246443Y-52365457D01*
X48133795Y-52393125D01*
X48021667Y-52415081D01*
X47907595Y-52431623D01*
X47789118Y-52443046D01*
X47663773Y-52449649D01*
X47530642Y-52451727D01*
X47332074Y-52446430D01*
X47137918Y-52430456D01*
X46946137Y-52403513D01*
X46754698Y-52365310D01*
X46561563Y-52315554D01*
X46543066Y-52310220D01*
X46499452Y-52297155D01*
X46453490Y-52282730D01*
X46406848Y-52267531D01*
X46361196Y-52252146D01*
X46318203Y-52237164D01*
X46279540Y-52223171D01*
X46246875Y-52210756D01*
X46221879Y-52200506D01*
X46206220Y-52193009D01*
X46202130Y-52190211D01*
X46195914Y-52178842D01*
X46190920Y-52160996D01*
X46190247Y-52156921D01*
X46327308Y-52156921D01*
X46335826Y-52162684D01*
X46355032Y-52170987D01*
X46383468Y-52181403D01*
X46419674Y-52193504D01*
X46462193Y-52206863D01*
X46509567Y-52221052D01*
X46560337Y-52235645D01*
X46613045Y-52250213D01*
X46666233Y-52264329D01*
X46718442Y-52277566D01*
X46768214Y-52289496D01*
X46814092Y-52299692D01*
X46815187Y-52299923D01*
X46981437Y-52330699D01*
X47149768Y-52353573D01*
X47317855Y-52368385D01*
X47483375Y-52374971D01*
X47644004Y-52373170D01*
X47762923Y-52365963D01*
X47921438Y-52347905D01*
X48076659Y-52320775D01*
X48226699Y-52284994D01*
X48369668Y-52240984D01*
X48440240Y-52215122D01*
X48484260Y-52197736D01*
X48518474Y-52183584D01*
X48542573Y-52172832D01*
X48556247Y-52165651D01*
X48559187Y-52162209D01*
X48551083Y-52162675D01*
X48531625Y-52167217D01*
X48524636Y-52169096D01*
X48501830Y-52174425D01*
X48468895Y-52180873D01*
X48428118Y-52188089D01*
X48381785Y-52195722D01*
X48332185Y-52203422D01*
X48281603Y-52210835D01*
X48232327Y-52217612D01*
X48186645Y-52223402D01*
X48146843Y-52227851D01*
X48133915Y-52229102D01*
X48071692Y-52233624D01*
X48000367Y-52236836D01*
X47923276Y-52238718D01*
X47843755Y-52239247D01*
X47765137Y-52238404D01*
X47690759Y-52236167D01*
X47623956Y-52232515D01*
X47621289Y-52232325D01*
X47448942Y-52215321D01*
X47272380Y-52189155D01*
X47095043Y-52154531D01*
X46920368Y-52112155D01*
X46751797Y-52062729D01*
X46685936Y-52040829D01*
X46582038Y-52005012D01*
X46453149Y-52078501D01*
X46417162Y-52099288D01*
X46385301Y-52118207D01*
X46359022Y-52134351D01*
X46339782Y-52146811D01*
X46329037Y-52154681D01*
X46327308Y-52156921D01*
X46190247Y-52156921D01*
X46189953Y-52155142D01*
X46188825Y-52144415D01*
X46186725Y-52121836D01*
X46183704Y-52088014D01*
X46179813Y-52043560D01*
X46175102Y-51989083D01*
X46169622Y-51925192D01*
X46163423Y-51852496D01*
X46156556Y-51771606D01*
X46149072Y-51683131D01*
X46141021Y-51587679D01*
X46132453Y-51485862D01*
X46123420Y-51378287D01*
X46113971Y-51265566D01*
X46104158Y-51148306D01*
X46094031Y-51027118D01*
X46083640Y-50902612D01*
X46073037Y-50775396D01*
X46062271Y-50646080D01*
X46051394Y-50515273D01*
X46040455Y-50383586D01*
X46029506Y-50251628D01*
X46018597Y-50120007D01*
X46007779Y-49989334D01*
X45997102Y-49860218D01*
X45986617Y-49733269D01*
X45976374Y-49609096D01*
X45966424Y-49488309D01*
X45956818Y-49371516D01*
X45947606Y-49259328D01*
X45938839Y-49152354D01*
X45930567Y-49051204D01*
X45922841Y-48956486D01*
X45915711Y-48868812D01*
X45909229Y-48788789D01*
X45903444Y-48717027D01*
X45898407Y-48654137D01*
X45894169Y-48600727D01*
X45890781Y-48557407D01*
X45888292Y-48524787D01*
X45886754Y-48503476D01*
X45886316Y-48496504D01*
X45884121Y-48448976D01*
X45882162Y-48393647D01*
X45880567Y-48335220D01*
X45879466Y-48278398D01*
X45879453Y-48277074D01*
X45961545Y-48277074D01*
X45962022Y-48327580D01*
X45963020Y-48379682D01*
X45964544Y-48431825D01*
X45966598Y-48482451D01*
X45967952Y-48509007D01*
X45968923Y-48523621D01*
X45970852Y-48549832D01*
X45973691Y-48587028D01*
X45977387Y-48634593D01*
X45981892Y-48691914D01*
X45987155Y-48758378D01*
X45993126Y-48833369D01*
X45999754Y-48916273D01*
X46006990Y-49006478D01*
X46014784Y-49103367D01*
X46023084Y-49206329D01*
X46031842Y-49314748D01*
X46041007Y-49428010D01*
X46050529Y-49545501D01*
X46060357Y-49666608D01*
X46070442Y-49790716D01*
X46080733Y-49917211D01*
X46091181Y-50045479D01*
X46101734Y-50174906D01*
X46112344Y-50304878D01*
X46122959Y-50434781D01*
X46133529Y-50564001D01*
X46144005Y-50691923D01*
X46154337Y-50817934D01*
X46164473Y-50941419D01*
X46174364Y-51061766D01*
X46183960Y-51178358D01*
X46193211Y-51290583D01*
X46202066Y-51397826D01*
X46210475Y-51499474D01*
X46218389Y-51594911D01*
X46225757Y-51683525D01*
X46232528Y-51764701D01*
X46238653Y-51837825D01*
X46244082Y-51902282D01*
X46248764Y-51957460D01*
X46252649Y-52002743D01*
X46255687Y-52037518D01*
X46257829Y-52061171D01*
X46259022Y-52073087D01*
X46259134Y-52073947D01*
X46262312Y-52090009D01*
X46265764Y-52099165D01*
X46266978Y-52100013D01*
X46273273Y-52096861D01*
X46288841Y-52088273D01*
X46312156Y-52075114D01*
X46341693Y-52058249D01*
X46375925Y-52038544D01*
X46402239Y-52023307D01*
X46443483Y-51999271D01*
X46475137Y-51980497D01*
X46498483Y-51966072D01*
X46514801Y-51955083D01*
X46525374Y-51946617D01*
X46531482Y-51939761D01*
X46534407Y-51933601D01*
X46535326Y-51928474D01*
X46535010Y-51920737D01*
X46533781Y-51901041D01*
X46531677Y-51869893D01*
X46528734Y-51827801D01*
X46524990Y-51775271D01*
X46520483Y-51712812D01*
X46515250Y-51640930D01*
X46509330Y-51560134D01*
X46502759Y-51470930D01*
X46495575Y-51373826D01*
X46487815Y-51269330D01*
X46479518Y-51157948D01*
X46470721Y-51040189D01*
X46461461Y-50916560D01*
X46451776Y-50787568D01*
X46441704Y-50653721D01*
X46431281Y-50515525D01*
X46420547Y-50373490D01*
X46409537Y-50228121D01*
X46405512Y-50175042D01*
X46391334Y-49987999D01*
X46378095Y-49812961D01*
X46365766Y-49649469D01*
X46354313Y-49497062D01*
X46343708Y-49355282D01*
X46333917Y-49223667D01*
X46324912Y-49101759D01*
X46316661Y-48989096D01*
X46309132Y-48885221D01*
X46302295Y-48789672D01*
X46296119Y-48701989D01*
X46290572Y-48621714D01*
X46285625Y-48548385D01*
X46281246Y-48481544D01*
X46277404Y-48420730D01*
X46274068Y-48365483D01*
X46271207Y-48315344D01*
X46268790Y-48269852D01*
X46266787Y-48228548D01*
X46265166Y-48190973D01*
X46263896Y-48156665D01*
X46262947Y-48125165D01*
X46262287Y-48096014D01*
X46261885Y-48068751D01*
X46261711Y-48042917D01*
X46261702Y-48038579D01*
X46261445Y-48008036D01*
X46260826Y-47982571D01*
X46259933Y-47964483D01*
X46258852Y-47956071D01*
X46258586Y-47955746D01*
X46251925Y-47958349D01*
X46235895Y-47965562D01*
X46212357Y-47976491D01*
X46183170Y-47990244D01*
X46150191Y-48005927D01*
X46115282Y-48022646D01*
X46080299Y-48039509D01*
X46047103Y-48055623D01*
X46017553Y-48070093D01*
X45993507Y-48082026D01*
X45976825Y-48090530D01*
X45969365Y-48094710D01*
X45969320Y-48094746D01*
X45966783Y-48102980D01*
X45964736Y-48122152D01*
X45963183Y-48150704D01*
X45962130Y-48187079D01*
X45961582Y-48229722D01*
X45961545Y-48277074D01*
X45879453Y-48277074D01*
X45879006Y-48232289D01*
X45878440Y-48093104D01*
X45805882Y-48050324D01*
X45735929Y-48009137D01*
X45676092Y-47974039D01*
X45625765Y-47944686D01*
X45584342Y-47920735D01*
X45551219Y-47901840D01*
X45525790Y-47887657D01*
X45507449Y-47877844D01*
X45495591Y-47872055D01*
X45489611Y-47869946D01*
X45488694Y-47870087D01*
X45400287Y-47870087D01*
X45395983Y-47847583D01*
X45388159Y-47810137D01*
X45387190Y-47805844D01*
X45384432Y-47793101D01*
X45383385Y-47783982D01*
X45520772Y-47783982D01*
X45525985Y-47788696D01*
X45540645Y-47798656D01*
X45563286Y-47813008D01*
X45592440Y-47830898D01*
X45626639Y-47851474D01*
X45664416Y-47873883D01*
X45704304Y-47897271D01*
X45744835Y-47920785D01*
X45784543Y-47943572D01*
X45821959Y-47964778D01*
X45855617Y-47983551D01*
X45884048Y-47999037D01*
X45905787Y-48010383D01*
X45919364Y-48016736D01*
X45922887Y-48017795D01*
X45932510Y-48015320D01*
X45951586Y-48008124D01*
X45978332Y-47996966D01*
X46010962Y-47982602D01*
X46047691Y-47965792D01*
X46069798Y-47955397D01*
X46107512Y-47937379D01*
X46141487Y-47920937D01*
X46170074Y-47906887D01*
X46191627Y-47896042D01*
X46204497Y-47889218D01*
X46207360Y-47887398D01*
X46206327Y-47880922D01*
X46197081Y-47871665D01*
X46194857Y-47870057D01*
X46181661Y-47861608D01*
X46160148Y-47848616D01*
X46131832Y-47831939D01*
X46098228Y-47812431D01*
X46060853Y-47790950D01*
X46021222Y-47768352D01*
X45980850Y-47745493D01*
X45941252Y-47723229D01*
X45903944Y-47702415D01*
X45870441Y-47683910D01*
X45842259Y-47668567D01*
X45820913Y-47657245D01*
X45807918Y-47650798D01*
X45804706Y-47649626D01*
X45796157Y-47652249D01*
X45778649Y-47659372D01*
X45754046Y-47670112D01*
X45724212Y-47683589D01*
X45691009Y-47698919D01*
X45656301Y-47715222D01*
X45621952Y-47731616D01*
X45589825Y-47747219D01*
X45561783Y-47761149D01*
X45539690Y-47772524D01*
X45525409Y-47780463D01*
X45520772Y-47783982D01*
X45383385Y-47783982D01*
X45383187Y-47782259D01*
X45384456Y-47772582D01*
X45389239Y-47763331D01*
X45398536Y-47753770D01*
X45413348Y-47743162D01*
X45434675Y-47730771D01*
X45463518Y-47715859D01*
X45500877Y-47697689D01*
X45547751Y-47675524D01*
X45592665Y-47654473D01*
X45639486Y-47632776D01*
X45683358Y-47612885D01*
X45722845Y-47595420D01*
X45756507Y-47580998D01*
X45782907Y-47570238D01*
X45800608Y-47563758D01*
X45807518Y-47562072D01*
X45816667Y-47565089D01*
X45835224Y-47573707D01*
X45861838Y-47587165D01*
X45895156Y-47604698D01*
X45933823Y-47625543D01*
X45976489Y-47648936D01*
X46021800Y-47674115D01*
X46068404Y-47700316D01*
X46114947Y-47726776D01*
X46160078Y-47752731D01*
X46202443Y-47777419D01*
X46240689Y-47800075D01*
X46273465Y-47819937D01*
X46299417Y-47836242D01*
X46317192Y-47848225D01*
X46323758Y-47853370D01*
X46345303Y-47872899D01*
X46346836Y-48106558D01*
X46347716Y-48191891D01*
X46349261Y-48268510D01*
X46351619Y-48340193D01*
X46354935Y-48410719D01*
X46359359Y-48483864D01*
X46364237Y-48552768D01*
X46366130Y-48578198D01*
X46368896Y-48615473D01*
X46372490Y-48663968D01*
X46376865Y-48723058D01*
X46381975Y-48792119D01*
X46387774Y-48870526D01*
X46394216Y-48957654D01*
X46401254Y-49052880D01*
X46408844Y-49155577D01*
X46416937Y-49265123D01*
X46425488Y-49380892D01*
X46434452Y-49502259D01*
X46443782Y-49628600D01*
X46453431Y-49759290D01*
X46463354Y-49893705D01*
X46473504Y-50031220D01*
X46483835Y-50171211D01*
X46494302Y-50313052D01*
X46496112Y-50337582D01*
X46506398Y-50476891D01*
X46516462Y-50612997D01*
X46526263Y-50745368D01*
X46535762Y-50873475D01*
X46544920Y-50996784D01*
X46553696Y-51114764D01*
X46562050Y-51226884D01*
X46569943Y-51332612D01*
X46577335Y-51431417D01*
X46584186Y-51522767D01*
X46590456Y-51606130D01*
X46596105Y-51680976D01*
X46601094Y-51746772D01*
X46605382Y-51802986D01*
X46608931Y-51849089D01*
X46611699Y-51884546D01*
X46613647Y-51908829D01*
X46614736Y-51921404D01*
X46614930Y-51923084D01*
X46617865Y-51928685D01*
X46625294Y-51934552D01*
X46638791Y-51941406D01*
X46659931Y-51949968D01*
X46690286Y-51960962D01*
X46719416Y-51971022D01*
X46899493Y-52027126D01*
X47081790Y-52073478D01*
X47265317Y-52110027D01*
X47449089Y-52136723D01*
X47632116Y-52153516D01*
X47813411Y-52160356D01*
X47838817Y-52159906D01*
X48562145Y-52159906D01*
X48565271Y-52163031D01*
X48568397Y-52159906D01*
X48565271Y-52156780D01*
X48562145Y-52159906D01*
X47838817Y-52159906D01*
X47991986Y-52157193D01*
X48166853Y-52143977D01*
X48337024Y-52120658D01*
X48501512Y-52087186D01*
X48585073Y-52065583D01*
X48640499Y-52049340D01*
X48695107Y-52031836D01*
X48747104Y-52013756D01*
X48794699Y-51995787D01*
X48830900Y-51980770D01*
X49004563Y-51980770D01*
X49006239Y-51986974D01*
X49012308Y-52003246D01*
X49022177Y-52028188D01*
X49035254Y-52060404D01*
X49050948Y-52098494D01*
X49068664Y-52141061D01*
X49087812Y-52186707D01*
X49107799Y-52234034D01*
X49128033Y-52281645D01*
X49147920Y-52328141D01*
X49166870Y-52372125D01*
X49184289Y-52412199D01*
X49199586Y-52446964D01*
X49212168Y-52475024D01*
X49221442Y-52494979D01*
X49226817Y-52505433D01*
X49227004Y-52505729D01*
X49236561Y-52511036D01*
X49241894Y-52510298D01*
X49249627Y-52506093D01*
X49266420Y-52496166D01*
X49290746Y-52481447D01*
X49321076Y-52462865D01*
X49355884Y-52441350D01*
X49388233Y-52421213D01*
X49431416Y-52394054D01*
X49464849Y-52372534D01*
X49489544Y-52355926D01*
X49506508Y-52343499D01*
X49516754Y-52334523D01*
X49521290Y-52328271D01*
X49521553Y-52324931D01*
X49517166Y-52313223D01*
X49508603Y-52292226D01*
X49496478Y-52263341D01*
X49481408Y-52227973D01*
X49464006Y-52187522D01*
X49444889Y-52143393D01*
X49424673Y-52096987D01*
X49403971Y-52049706D01*
X49383400Y-52002955D01*
X49363575Y-51958134D01*
X49345112Y-51916646D01*
X49328625Y-51879895D01*
X49314729Y-51849282D01*
X49304041Y-51826210D01*
X49297176Y-51812082D01*
X49294836Y-51808156D01*
X49288529Y-51810831D01*
X49273275Y-51819018D01*
X49250787Y-51831696D01*
X49222780Y-51847848D01*
X49190969Y-51866453D01*
X49157067Y-51886492D01*
X49122789Y-51906945D01*
X49089849Y-51926794D01*
X49059962Y-51945019D01*
X49034841Y-51960599D01*
X49016200Y-51972517D01*
X49005755Y-51979752D01*
X49004563Y-51980770D01*
X48830900Y-51980770D01*
X48836097Y-51978614D01*
X48869507Y-51962923D01*
X48893136Y-51949401D01*
X48898133Y-51945805D01*
X48908554Y-51938619D01*
X48928105Y-51926004D01*
X48955217Y-51908916D01*
X48988322Y-51888309D01*
X49025849Y-51865141D01*
X49066231Y-51840367D01*
X49107898Y-51814943D01*
X49149282Y-51789825D01*
X49188814Y-51765968D01*
X49224925Y-51744328D01*
X49256045Y-51725861D01*
X49280607Y-51711523D01*
X49297041Y-51702270D01*
X49302274Y-51699590D01*
X49318118Y-51696151D01*
X49334476Y-51701300D01*
X49338875Y-51704368D01*
X49343894Y-51710033D01*
X49349970Y-51719216D01*
X49357539Y-51732839D01*
X49367036Y-51751823D01*
X49378899Y-51777090D01*
X49393564Y-51809561D01*
X49411465Y-51850158D01*
X49433041Y-51899804D01*
X49458726Y-51959418D01*
X49479029Y-52006743D01*
X49503975Y-52065017D01*
X49527700Y-52120543D01*
X49549693Y-52172117D01*
X49569443Y-52218538D01*
X49586438Y-52258603D01*
X49600170Y-52291110D01*
X49610127Y-52314858D01*
X49615799Y-52328643D01*
X49616529Y-52330499D01*
X49626788Y-52357307D01*
X49608656Y-52376688D01*
X49595703Y-52388031D01*
X49573193Y-52404944D01*
X49542346Y-52426660D01*
X49504384Y-52452412D01*
X49460527Y-52481433D01*
X49411996Y-52512955D01*
X49360012Y-52546211D01*
X49305794Y-52580434D01*
X49250565Y-52614857D01*
X49195545Y-52648713D01*
X49141955Y-52681233D01*
X49091015Y-52711652D01*
X49043946Y-52739202D01*
X49001969Y-52763116D01*
X48966305Y-52782626D01*
X48946184Y-52793034D01*
X48807340Y-52855681D01*
X48661033Y-52908553D01*
X48507649Y-52951611D01*
X48347574Y-52984814D01*
X48181193Y-53008120D01*
X48008892Y-53021490D01*
X47831057Y-53024880D01*
X47648074Y-53018252D01*
X47460329Y-53001564D01*
X47268207Y-52974774D01*
X47254705Y-52972537D01*
X47152511Y-52954027D01*
X47044546Y-52931913D01*
X46933816Y-52906932D01*
X46823324Y-52879824D01*
X46716073Y-52851327D01*
X46615067Y-52822182D01*
X46523309Y-52793126D01*
X46517035Y-52791022D01*
X46490892Y-52782474D01*
X46469500Y-52775963D01*
X46455376Y-52772224D01*
X46450996Y-52771728D01*
X46455880Y-52775448D01*
X46470626Y-52786094D01*
X46494864Y-52803408D01*
X46528224Y-52827127D01*
X46570336Y-52856992D01*
X46620832Y-52892743D01*
X46679343Y-52934118D01*
X46745498Y-52980857D01*
X46818928Y-53032700D01*
X46899264Y-53089386D01*
X46986137Y-53150655D01*
X47079176Y-53216246D01*
X47178014Y-53285899D01*
X47282279Y-53359353D01*
X47391604Y-53436347D01*
X47505617Y-53516622D01*
X47623951Y-53599916D01*
X47746236Y-53685969D01*
X47872101Y-53774521D01*
X48001178Y-53865311D01*
X48133098Y-53958079D01*
X48200953Y-54005787D01*
X49953113Y-55237642D01*
X49953884Y-54342738D01*
X50660661Y-54342738D01*
X50769501Y-54415850D01*
X50878340Y-54488963D01*
X50882740Y-54390322D01*
X50883474Y-54370299D01*
X50884416Y-54338766D01*
X50885544Y-54296716D01*
X50886836Y-54245140D01*
X50888269Y-54185030D01*
X50889821Y-54117376D01*
X50891469Y-54043172D01*
X50893191Y-53963407D01*
X50894963Y-53879075D01*
X50896765Y-53791166D01*
X50898573Y-53700673D01*
X50899790Y-53638395D01*
X50901593Y-53546031D01*
X50903396Y-53455110D01*
X50905176Y-53366674D01*
X50906912Y-53281763D01*
X50908581Y-53201418D01*
X50910161Y-53126680D01*
X50911631Y-53058590D01*
X50912967Y-52998188D01*
X50914149Y-52946517D01*
X50915152Y-52904615D01*
X50915957Y-52873525D01*
X50916347Y-52860078D01*
X50917313Y-52822446D01*
X50917744Y-52789795D01*
X50917652Y-52763905D01*
X50917048Y-52746559D01*
X50915941Y-52739535D01*
X50915633Y-52739551D01*
X50911841Y-52746416D01*
X50903926Y-52762978D01*
X50892705Y-52787449D01*
X50878996Y-52818040D01*
X50863616Y-52852962D01*
X50859912Y-52861456D01*
X50824631Y-52941745D01*
X50793123Y-53011839D01*
X50765497Y-53071516D01*
X50741862Y-53120555D01*
X50722326Y-53158733D01*
X50706999Y-53185829D01*
X50695988Y-53201619D01*
X50691304Y-53205669D01*
X50677191Y-53212099D01*
X50673074Y-53433061D01*
X50672161Y-53484582D01*
X50671145Y-53546273D01*
X50670060Y-53615803D01*
X50668940Y-53690841D01*
X50667820Y-53769055D01*
X50666733Y-53848113D01*
X50665714Y-53925683D01*
X50664810Y-53998381D01*
X50660661Y-54342738D01*
X49953884Y-54342738D01*
X49955063Y-52973595D01*
X49955200Y-52798643D01*
X49955227Y-52754944D01*
X50320722Y-52754944D01*
X50322560Y-52763103D01*
X50328807Y-52776634D01*
X50332005Y-52782891D01*
X50340224Y-52800190D01*
X50351273Y-52825343D01*
X50363504Y-52854528D01*
X50371954Y-52875484D01*
X50397853Y-52940901D01*
X50488060Y-52998868D01*
X50523114Y-53021276D01*
X50549041Y-53037505D01*
X50567140Y-53048271D01*
X50578712Y-53054292D01*
X50585059Y-53056285D01*
X50587482Y-53054966D01*
X50587644Y-53053762D01*
X50584810Y-53045853D01*
X50577138Y-53029395D01*
X50565869Y-53006761D01*
X50552244Y-52980327D01*
X50537506Y-52952469D01*
X50522896Y-52925560D01*
X50509656Y-52901976D01*
X50499029Y-52884091D01*
X50498418Y-52883120D01*
X50485172Y-52863615D01*
X50471591Y-52847795D01*
X50454765Y-52832971D01*
X50431783Y-52816452D01*
X50412636Y-52803837D01*
X50407405Y-52800478D01*
X50550135Y-52800478D01*
X50553297Y-52808578D01*
X50561574Y-52823757D01*
X50572823Y-52842165D01*
X50584008Y-52861065D01*
X50598772Y-52888020D01*
X50615380Y-52919767D01*
X50632097Y-52953041D01*
X50636017Y-52961066D01*
X50650567Y-52990327D01*
X50663542Y-53015104D01*
X50673859Y-53033426D01*
X50680432Y-53043320D01*
X50681906Y-53044498D01*
X50686463Y-53038913D01*
X50695221Y-53022958D01*
X50707647Y-52997838D01*
X50723212Y-52964757D01*
X50741382Y-52924919D01*
X50761626Y-52879527D01*
X50783413Y-52829786D01*
X50806211Y-52776899D01*
X50829488Y-52722070D01*
X50852712Y-52666504D01*
X50875353Y-52611403D01*
X50896877Y-52557973D01*
X50897928Y-52555334D01*
X50934604Y-52463142D01*
X50960408Y-52463124D01*
X50978202Y-52464886D01*
X50990781Y-52469299D01*
X50992686Y-52470920D01*
X50996026Y-52480562D01*
X50999059Y-52499098D01*
X51001232Y-52522922D01*
X51001552Y-52528746D01*
X51001691Y-52540726D01*
X51001559Y-52564471D01*
X51001169Y-52599245D01*
X51000535Y-52644312D01*
X50999670Y-52698938D01*
X50998588Y-52762388D01*
X50997302Y-52833925D01*
X50995826Y-52912815D01*
X50994173Y-52998322D01*
X50992357Y-53089711D01*
X50990391Y-53186247D01*
X50988290Y-53287194D01*
X50986065Y-53391817D01*
X50983732Y-53499381D01*
X50983494Y-53510238D01*
X50980652Y-53639602D01*
X50978071Y-53757039D01*
X50975739Y-53863121D01*
X50973647Y-53958421D01*
X50971785Y-54043513D01*
X50970141Y-54118969D01*
X50968705Y-54185362D01*
X50967468Y-54243264D01*
X50966418Y-54293249D01*
X50965546Y-54335889D01*
X50964841Y-54371758D01*
X50964293Y-54401427D01*
X50963891Y-54425471D01*
X50963626Y-54444461D01*
X50963486Y-54458970D01*
X50963462Y-54469573D01*
X50963542Y-54476840D01*
X50963718Y-54481345D01*
X50963978Y-54483662D01*
X50964311Y-54484362D01*
X50964709Y-54484018D01*
X50965160Y-54483204D01*
X50965654Y-54482493D01*
X50965947Y-54482352D01*
X50971780Y-54478923D01*
X50986319Y-54469325D01*
X51008050Y-54454587D01*
X51035457Y-54435741D01*
X51067026Y-54413818D01*
X51081575Y-54403652D01*
X51114612Y-54380367D01*
X51144167Y-54359235D01*
X51168702Y-54341382D01*
X51186677Y-54327934D01*
X51196551Y-54320016D01*
X51197904Y-54318623D01*
X51199062Y-54311077D01*
X51200570Y-54292528D01*
X51202346Y-54264466D01*
X51204307Y-54228385D01*
X51206371Y-54185774D01*
X51208455Y-54138128D01*
X51209989Y-54099794D01*
X51212277Y-54041837D01*
X51214293Y-53995096D01*
X51216145Y-53958290D01*
X51217944Y-53930135D01*
X51219799Y-53909352D01*
X51221819Y-53894658D01*
X51224114Y-53884772D01*
X51226794Y-53878412D01*
X51229198Y-53875101D01*
X51235846Y-53869858D01*
X51252068Y-53858046D01*
X51277130Y-53840176D01*
X51310300Y-53816760D01*
X51350847Y-53788309D01*
X51398037Y-53755334D01*
X51451140Y-53718348D01*
X51509421Y-53677861D01*
X51572150Y-53634384D01*
X51638594Y-53588430D01*
X51679884Y-53559931D01*
X52414145Y-53559931D01*
X52420851Y-53561433D01*
X52437072Y-53563996D01*
X52459912Y-53567178D01*
X52472483Y-53568809D01*
X52500130Y-53572691D01*
X52525133Y-53576864D01*
X52543355Y-53580615D01*
X52547501Y-53581738D01*
X52560401Y-53585310D01*
X52570979Y-53586248D01*
X52580450Y-53583298D01*
X52590026Y-53575207D01*
X52600919Y-53560720D01*
X52614343Y-53538584D01*
X52631510Y-53507543D01*
X52646867Y-53478980D01*
X52753360Y-53269222D01*
X52851710Y-53052689D01*
X52942019Y-52829015D01*
X53024389Y-52597834D01*
X53066830Y-52461715D01*
X53713413Y-52461715D01*
X53821252Y-52524766D01*
X53854323Y-52544001D01*
X53883681Y-52560885D01*
X53907638Y-52574461D01*
X53924501Y-52583774D01*
X53932583Y-52587868D01*
X53932972Y-52587977D01*
X53935672Y-52582417D01*
X53938681Y-52567851D01*
X53940423Y-52554901D01*
X54013797Y-52554901D01*
X54014269Y-52565438D01*
X54017504Y-52568530D01*
X54021828Y-52567518D01*
X54029877Y-52562828D01*
X54046375Y-52552028D01*
X54069603Y-52536287D01*
X54097844Y-52516772D01*
X54129377Y-52494649D01*
X54134951Y-52490706D01*
X54172465Y-52463796D01*
X54200598Y-52442750D01*
X54220462Y-52426635D01*
X54233169Y-52414516D01*
X54239832Y-52405459D01*
X54241336Y-52401382D01*
X54242466Y-52392580D01*
X54244656Y-52372165D01*
X54247835Y-52340905D01*
X54251932Y-52299566D01*
X54256876Y-52248915D01*
X54262595Y-52189718D01*
X54269017Y-52122742D01*
X54276072Y-52048754D01*
X54283689Y-51968520D01*
X54291795Y-51882807D01*
X54300320Y-51792381D01*
X54309192Y-51698010D01*
X54318340Y-51600460D01*
X54327692Y-51500497D01*
X54337178Y-51398888D01*
X54346726Y-51296399D01*
X54356265Y-51193798D01*
X54365723Y-51091852D01*
X54375029Y-50991325D01*
X54384111Y-50892986D01*
X54392899Y-50797601D01*
X54401322Y-50705936D01*
X54409307Y-50618758D01*
X54416783Y-50536834D01*
X54423679Y-50460931D01*
X54429925Y-50391814D01*
X54435448Y-50330251D01*
X54440177Y-50277008D01*
X54444041Y-50232852D01*
X54446968Y-50198550D01*
X54448888Y-50174868D01*
X54449728Y-50162573D01*
X54449749Y-50161039D01*
X54448873Y-50155348D01*
X54446705Y-50152105D01*
X54441853Y-50151963D01*
X54432922Y-50155575D01*
X54418518Y-50163593D01*
X54397245Y-50176670D01*
X54367711Y-50195457D01*
X54344818Y-50210145D01*
X54311972Y-50231470D01*
X54282005Y-50251364D01*
X54256814Y-50268534D01*
X54238294Y-50281686D01*
X54228340Y-50289528D01*
X54228069Y-50289789D01*
X54226336Y-50291832D01*
X54224654Y-50294820D01*
X54222967Y-50299302D01*
X54221223Y-50305825D01*
X54219365Y-50314935D01*
X54217339Y-50327181D01*
X54215090Y-50343109D01*
X54212563Y-50363266D01*
X54209705Y-50388200D01*
X54206460Y-50418458D01*
X54202773Y-50454588D01*
X54198590Y-50497135D01*
X54193856Y-50546649D01*
X54188516Y-50603675D01*
X54182515Y-50668762D01*
X54175800Y-50742456D01*
X54168315Y-50825305D01*
X54160005Y-50917856D01*
X54150816Y-51020656D01*
X54140693Y-51134252D01*
X54129581Y-51259192D01*
X54117426Y-51396023D01*
X54117042Y-51400344D01*
X54106690Y-51516873D01*
X54096599Y-51630380D01*
X54086828Y-51740208D01*
X54077434Y-51845701D01*
X54068477Y-51946201D01*
X54060016Y-52041053D01*
X54052110Y-52129600D01*
X54044816Y-52211184D01*
X54038194Y-52285150D01*
X54032303Y-52350841D01*
X54027200Y-52407600D01*
X54022946Y-52454771D01*
X54019598Y-52491697D01*
X54017215Y-52517721D01*
X54015857Y-52532188D01*
X54015628Y-52534458D01*
X54013797Y-52554901D01*
X53940423Y-52554901D01*
X53940788Y-52552190D01*
X53942243Y-52537616D01*
X53944654Y-52511867D01*
X53947954Y-52475711D01*
X53952077Y-52429918D01*
X53956955Y-52375257D01*
X53962522Y-52312496D01*
X53968711Y-52242407D01*
X53975456Y-52165758D01*
X53982691Y-52083317D01*
X53990348Y-51995856D01*
X53998360Y-51904142D01*
X54006662Y-51808946D01*
X54015186Y-51711036D01*
X54023866Y-51611182D01*
X54032636Y-51510153D01*
X54041428Y-51408719D01*
X54050176Y-51307649D01*
X54058813Y-51207712D01*
X54067272Y-51109677D01*
X54075488Y-51014314D01*
X54083393Y-50922393D01*
X54090921Y-50834682D01*
X54098005Y-50751950D01*
X54104578Y-50674968D01*
X54110574Y-50604505D01*
X54115925Y-50541329D01*
X54120567Y-50486210D01*
X54124431Y-50439918D01*
X54127451Y-50403221D01*
X54129561Y-50376890D01*
X54130694Y-50361693D01*
X54130867Y-50358080D01*
X54125344Y-50359063D01*
X54110648Y-50366328D01*
X54087978Y-50379178D01*
X54058538Y-50396919D01*
X54023527Y-50418852D01*
X54000984Y-50433324D01*
X53872827Y-50516272D01*
X53867957Y-50547269D01*
X53866837Y-50557377D01*
X53864788Y-50579071D01*
X53861882Y-50611499D01*
X53858187Y-50653811D01*
X53853774Y-50705155D01*
X53848711Y-50764680D01*
X53843069Y-50831535D01*
X53836918Y-50904867D01*
X53830326Y-50983826D01*
X53823364Y-51067561D01*
X53816102Y-51155220D01*
X53808609Y-51245952D01*
X53800955Y-51338906D01*
X53793209Y-51433229D01*
X53785441Y-51528072D01*
X53777722Y-51622583D01*
X53770120Y-51715909D01*
X53762705Y-51807201D01*
X53755548Y-51895607D01*
X53748717Y-51980275D01*
X53742283Y-52060354D01*
X53736315Y-52134992D01*
X53730882Y-52203340D01*
X53726056Y-52264544D01*
X53721904Y-52317754D01*
X53718497Y-52362119D01*
X53715905Y-52396787D01*
X53714198Y-52420907D01*
X53713444Y-52433627D01*
X53713413Y-52434910D01*
X53713413Y-52461715D01*
X53066830Y-52461715D01*
X53075188Y-52434910D01*
X53098925Y-52358779D01*
X53165728Y-52111485D01*
X53224902Y-51855585D01*
X53276550Y-51590713D01*
X53320774Y-51316503D01*
X53357677Y-51032588D01*
X53372556Y-50895360D01*
X53377333Y-50848809D01*
X53381199Y-50813044D01*
X53384479Y-50786413D01*
X53387503Y-50767260D01*
X53390597Y-50753932D01*
X53394089Y-50744774D01*
X53398306Y-50738132D01*
X53403576Y-50732352D01*
X53405130Y-50730814D01*
X53412367Y-50725457D01*
X53429518Y-50713730D01*
X53455980Y-50696027D01*
X53491150Y-50672740D01*
X53534426Y-50644264D01*
X53585206Y-50610992D01*
X53642886Y-50573315D01*
X53706865Y-50531629D01*
X53776538Y-50486324D01*
X53851305Y-50437796D01*
X53930562Y-50386437D01*
X54013706Y-50332640D01*
X54100135Y-50276798D01*
X54185404Y-50221782D01*
X54274134Y-50164561D01*
X54360002Y-50109169D01*
X54442418Y-50055984D01*
X54520793Y-50005389D01*
X54594539Y-49957764D01*
X54663067Y-49913489D01*
X54725789Y-49872945D01*
X54782114Y-49836514D01*
X54831456Y-49804574D01*
X54873224Y-49777509D01*
X54906830Y-49755697D01*
X54931685Y-49739520D01*
X54947201Y-49729359D01*
X54952782Y-49725600D01*
X54954345Y-49718829D01*
X54956969Y-49701692D01*
X54960413Y-49676256D01*
X54964436Y-49644588D01*
X54968797Y-49608758D01*
X54973255Y-49570834D01*
X54977568Y-49532882D01*
X54981496Y-49496972D01*
X54984797Y-49465172D01*
X54987231Y-49439549D01*
X54988556Y-49422171D01*
X54988727Y-49417296D01*
X54984167Y-49413630D01*
X54979526Y-49414548D01*
X54972361Y-49418594D01*
X54955854Y-49428625D01*
X54931198Y-49443895D01*
X54899588Y-49463656D01*
X54862217Y-49487162D01*
X54820279Y-49513666D01*
X54774968Y-49542421D01*
X54763644Y-49549624D01*
X54705201Y-49586711D01*
X54656385Y-49617258D01*
X54616330Y-49641525D01*
X54584171Y-49659774D01*
X54559044Y-49672265D01*
X54540083Y-49679259D01*
X54526424Y-49681017D01*
X54517201Y-49677800D01*
X54511549Y-49669869D01*
X54508603Y-49657484D01*
X54507499Y-49640907D01*
X54507358Y-49626907D01*
X54507929Y-49616561D01*
X54509583Y-49594692D01*
X54512238Y-49562222D01*
X54513122Y-49551779D01*
X54588628Y-49551779D01*
X54589368Y-49564197D01*
X54593666Y-49566153D01*
X54602694Y-49560948D01*
X54611450Y-49555358D01*
X54629320Y-49544026D01*
X54654840Y-49527877D01*
X54686547Y-49507836D01*
X54722977Y-49484828D01*
X54762668Y-49459778D01*
X54773049Y-49453230D01*
X54813244Y-49427748D01*
X54850420Y-49403939D01*
X54883133Y-49382746D01*
X54909942Y-49365112D01*
X54929404Y-49351979D01*
X54940076Y-49344290D01*
X54941219Y-49343313D01*
X54944802Y-49339316D01*
X54945636Y-49335408D01*
X54942447Y-49330742D01*
X54933964Y-49324470D01*
X54918913Y-49315743D01*
X54896023Y-49303715D01*
X54864020Y-49287537D01*
X54837928Y-49274495D01*
X54722757Y-49217009D01*
X54674473Y-49246806D01*
X54652231Y-49260935D01*
X54633801Y-49273388D01*
X54622024Y-49282214D01*
X54619700Y-49284422D01*
X54617412Y-49292390D01*
X54614240Y-49310548D01*
X54610448Y-49336631D01*
X54606299Y-49368378D01*
X54602056Y-49403528D01*
X54597982Y-49439817D01*
X54594339Y-49474985D01*
X54591391Y-49506768D01*
X54589400Y-49532905D01*
X54588630Y-49551133D01*
X54588628Y-49551779D01*
X54513122Y-49551779D01*
X54515807Y-49520076D01*
X54520207Y-49469177D01*
X54525354Y-49410451D01*
X54531161Y-49344820D01*
X54537546Y-49273208D01*
X54544424Y-49196541D01*
X54551710Y-49115741D01*
X54559319Y-49031733D01*
X54567167Y-48945440D01*
X54575169Y-48857788D01*
X54583241Y-48769699D01*
X54591299Y-48682098D01*
X54599258Y-48595908D01*
X54607032Y-48512055D01*
X54614539Y-48431461D01*
X54621693Y-48355051D01*
X54628409Y-48283749D01*
X54634604Y-48218479D01*
X54640192Y-48160164D01*
X54645089Y-48109730D01*
X54649211Y-48068099D01*
X54652473Y-48036196D01*
X54654791Y-48014945D01*
X54654952Y-48013573D01*
X54656266Y-47993205D01*
X54654526Y-47982173D01*
X54652602Y-47980752D01*
X54644945Y-47983864D01*
X54628711Y-47992436D01*
X54605805Y-48005322D01*
X54578127Y-48021375D01*
X54547581Y-48039451D01*
X54516068Y-48058404D01*
X54485491Y-48077086D01*
X54457752Y-48094353D01*
X54434754Y-48109059D01*
X54418399Y-48120057D01*
X54410588Y-48126202D01*
X54410215Y-48126759D01*
X54409376Y-48133737D01*
X54407505Y-48152448D01*
X54404668Y-48182170D01*
X54400929Y-48222183D01*
X54396355Y-48271764D01*
X54391010Y-48330192D01*
X54384961Y-48396746D01*
X54378272Y-48470703D01*
X54371010Y-48551343D01*
X54363239Y-48637944D01*
X54355025Y-48729783D01*
X54346435Y-48826140D01*
X54337532Y-48926293D01*
X54332403Y-48984124D01*
X54323337Y-49086285D01*
X54314535Y-49185175D01*
X54306063Y-49280061D01*
X54297988Y-49370211D01*
X54290377Y-49454895D01*
X54283295Y-49533379D01*
X54276809Y-49604933D01*
X54270986Y-49668823D01*
X54265892Y-49724319D01*
X54261593Y-49770688D01*
X54258156Y-49807198D01*
X54255648Y-49833118D01*
X54254134Y-49847715D01*
X54253751Y-49850647D01*
X54246921Y-49866058D01*
X54234757Y-49881620D01*
X54233550Y-49882784D01*
X54223500Y-49890601D01*
X54204237Y-49904065D01*
X54176795Y-49922522D01*
X54142210Y-49945323D01*
X54101516Y-49971814D01*
X54055749Y-50001344D01*
X54005944Y-50033260D01*
X53953135Y-50066913D01*
X53898357Y-50101648D01*
X53842647Y-50136816D01*
X53787038Y-50171763D01*
X53732565Y-50205838D01*
X53680264Y-50238389D01*
X53631170Y-50268765D01*
X53586318Y-50296313D01*
X53546742Y-50320382D01*
X53513477Y-50340320D01*
X53487559Y-50355475D01*
X53470023Y-50365196D01*
X53461903Y-50368830D01*
X53461750Y-50368840D01*
X53443582Y-50365094D01*
X53432165Y-50353008D01*
X53426672Y-50331314D01*
X53425876Y-50313693D01*
X53426328Y-50303165D01*
X53427638Y-50280939D01*
X53429754Y-50247785D01*
X53430710Y-50233354D01*
X53508465Y-50233354D01*
X53509311Y-50246398D01*
X53511311Y-50250061D01*
X53517443Y-50246801D01*
X53533166Y-50237416D01*
X53557527Y-50222502D01*
X53589573Y-50202653D01*
X53628350Y-50178463D01*
X53672905Y-50150526D01*
X53722284Y-50119436D01*
X53775535Y-50085789D01*
X53819813Y-50057727D01*
X53880653Y-50018959D01*
X53936382Y-49983131D01*
X53986260Y-49950738D01*
X54029545Y-49922271D01*
X54065495Y-49898225D01*
X54093370Y-49879092D01*
X54112428Y-49865366D01*
X54121927Y-49857539D01*
X54122889Y-49856115D01*
X54117559Y-49850233D01*
X54102953Y-49840190D01*
X54081149Y-49827064D01*
X54054222Y-49811934D01*
X54024249Y-49795879D01*
X53993307Y-49779978D01*
X53963472Y-49765308D01*
X53936821Y-49752948D01*
X53915431Y-49743977D01*
X53901378Y-49739474D01*
X53897833Y-49739219D01*
X53889685Y-49743005D01*
X53872327Y-49752698D01*
X53847099Y-49767495D01*
X53815343Y-49786591D01*
X53778398Y-49809185D01*
X53737604Y-49834473D01*
X53709156Y-49852290D01*
X53660105Y-49883256D01*
X53620708Y-49908444D01*
X53589945Y-49928581D01*
X53566791Y-49944394D01*
X53550226Y-49956610D01*
X53539226Y-49965956D01*
X53532769Y-49973159D01*
X53529833Y-49978946D01*
X53529582Y-49979977D01*
X53527924Y-49992183D01*
X53525705Y-50014096D01*
X53523178Y-50042946D01*
X53520596Y-50075963D01*
X53519759Y-50087521D01*
X53517127Y-50123489D01*
X53514430Y-50158328D01*
X53511949Y-50188527D01*
X53509966Y-50210571D01*
X53509610Y-50214114D01*
X53508465Y-50233354D01*
X53430710Y-50233354D01*
X53432622Y-50204476D01*
X53436189Y-50151782D01*
X53440399Y-50090475D01*
X53445201Y-50021326D01*
X53450540Y-49945106D01*
X53456363Y-49862586D01*
X53462616Y-49774539D01*
X53469246Y-49681734D01*
X53471357Y-49652340D01*
X53945172Y-49652340D01*
X53945551Y-49662296D01*
X53946539Y-49666634D01*
X53946642Y-49666753D01*
X53953942Y-49671505D01*
X53970163Y-49680734D01*
X53993241Y-49693358D01*
X54021112Y-49708297D01*
X54051712Y-49724472D01*
X54082977Y-49740803D01*
X54112843Y-49756208D01*
X54139247Y-49769608D01*
X54160125Y-49779922D01*
X54173412Y-49786071D01*
X54177003Y-49787322D01*
X54180105Y-49781813D01*
X54183404Y-49767652D01*
X54184909Y-49757752D01*
X54186133Y-49746208D01*
X54188320Y-49723361D01*
X54191389Y-49690142D01*
X54195259Y-49647483D01*
X54199850Y-49596315D01*
X54205082Y-49537569D01*
X54210872Y-49472176D01*
X54217141Y-49401069D01*
X54223807Y-49325178D01*
X54230790Y-49245434D01*
X54238009Y-49162769D01*
X54245383Y-49078115D01*
X54252831Y-48992402D01*
X54260274Y-48906563D01*
X54267629Y-48821527D01*
X54274815Y-48738227D01*
X54281754Y-48657595D01*
X54288362Y-48580560D01*
X54294561Y-48508056D01*
X54300268Y-48441012D01*
X54305403Y-48380361D01*
X54309885Y-48327034D01*
X54313634Y-48281961D01*
X54316569Y-48246075D01*
X54318608Y-48220307D01*
X54319672Y-48205588D01*
X54319812Y-48202638D01*
X54318361Y-48188191D01*
X54314794Y-48180985D01*
X54314047Y-48180802D01*
X54307240Y-48183869D01*
X54291300Y-48192470D01*
X54267811Y-48205706D01*
X54238360Y-48222675D01*
X54204535Y-48242477D01*
X54184328Y-48254435D01*
X54136120Y-48283585D01*
X54098972Y-48307198D01*
X54072771Y-48325350D01*
X54057404Y-48338117D01*
X54053194Y-48343519D01*
X54051707Y-48351764D01*
X54049297Y-48371629D01*
X54046043Y-48402272D01*
X54042020Y-48442849D01*
X54037306Y-48492518D01*
X54031977Y-48550436D01*
X54026109Y-48615760D01*
X54019780Y-48687647D01*
X54013066Y-48765254D01*
X54006044Y-48847738D01*
X53998791Y-48934257D01*
X53992600Y-49009130D01*
X53983649Y-49118485D01*
X53975746Y-49215953D01*
X53968850Y-49302105D01*
X53962921Y-49377512D01*
X53957921Y-49442742D01*
X53953808Y-49498366D01*
X53950544Y-49544954D01*
X53948088Y-49583075D01*
X53946400Y-49613300D01*
X53945442Y-49636199D01*
X53945172Y-49652340D01*
X53471357Y-49652340D01*
X53476198Y-49584944D01*
X53483420Y-49484940D01*
X53485245Y-49459742D01*
X53492473Y-49359750D01*
X53499410Y-49263224D01*
X53506005Y-49170893D01*
X53512207Y-49083491D01*
X53517965Y-49001749D01*
X53523231Y-48926398D01*
X53527952Y-48858170D01*
X53532078Y-48797796D01*
X53535559Y-48746009D01*
X53538344Y-48703540D01*
X53540383Y-48671121D01*
X53541625Y-48649483D01*
X53542019Y-48639358D01*
X53541962Y-48638673D01*
X53536084Y-48640973D01*
X53520990Y-48648843D01*
X53498199Y-48661434D01*
X53469228Y-48677899D01*
X53435593Y-48697392D01*
X53412263Y-48711098D01*
X53285183Y-48786143D01*
X53280400Y-48828870D01*
X53279407Y-48840235D01*
X53277639Y-48863308D01*
X53275149Y-48897318D01*
X53271991Y-48941497D01*
X53268217Y-48995077D01*
X53263880Y-49057288D01*
X53259035Y-49127362D01*
X53253733Y-49204529D01*
X53248028Y-49288022D01*
X53241973Y-49377070D01*
X53235620Y-49470906D01*
X53229024Y-49568760D01*
X53222238Y-49669863D01*
X53219389Y-49712428D01*
X53211323Y-49832864D01*
X53204021Y-49941439D01*
X53197434Y-50038772D01*
X53191514Y-50125479D01*
X53186212Y-50202177D01*
X53181480Y-50269483D01*
X53177267Y-50328015D01*
X53173527Y-50378389D01*
X53170209Y-50421222D01*
X53167266Y-50457130D01*
X53164649Y-50486732D01*
X53162308Y-50510644D01*
X53160196Y-50529483D01*
X53158264Y-50543866D01*
X53156462Y-50554410D01*
X53154743Y-50561732D01*
X53153056Y-50566448D01*
X53151797Y-50568630D01*
X53144337Y-50575022D01*
X53127388Y-50587349D01*
X53102039Y-50604885D01*
X53069380Y-50626899D01*
X53030502Y-50652665D01*
X52986494Y-50681453D01*
X52938446Y-50712537D01*
X52888971Y-50744217D01*
X52838164Y-50776660D01*
X52790393Y-50807302D01*
X52746734Y-50835443D01*
X52708266Y-50860382D01*
X52676066Y-50881417D01*
X52651210Y-50897850D01*
X52634777Y-50908977D01*
X52627872Y-50914070D01*
X52623781Y-50921227D01*
X52620099Y-50934702D01*
X52616722Y-50955491D01*
X52613543Y-50984589D01*
X52610459Y-51022995D01*
X52607364Y-51071702D01*
X52604153Y-51131709D01*
X52603466Y-51145594D01*
X52601965Y-51184489D01*
X52601722Y-51213353D01*
X52602722Y-51231389D01*
X52604953Y-51237799D01*
X52605030Y-51237804D01*
X52611236Y-51234501D01*
X52627003Y-51224985D01*
X52651400Y-51209846D01*
X52683498Y-51189672D01*
X52722367Y-51165052D01*
X52767076Y-51136576D01*
X52816696Y-51104832D01*
X52870295Y-51070411D01*
X52925815Y-51034629D01*
X52991655Y-50992160D01*
X53047862Y-50956012D01*
X53095283Y-50925680D01*
X53134763Y-50900662D01*
X53167147Y-50880456D01*
X53193280Y-50864557D01*
X53214007Y-50852464D01*
X53230175Y-50843672D01*
X53242627Y-50837680D01*
X53252210Y-50833983D01*
X53259769Y-50832080D01*
X53266150Y-50831466D01*
X53267261Y-50831454D01*
X53284170Y-50832166D01*
X53292642Y-50836241D01*
X53296738Y-50846588D01*
X53298145Y-50853584D01*
X53299550Y-50865032D01*
X53298144Y-50875014D01*
X53292607Y-50884887D01*
X53281617Y-50896007D01*
X53263854Y-50909730D01*
X53237996Y-50927413D01*
X53205719Y-50948475D01*
X53172406Y-50970843D01*
X53147975Y-50989060D01*
X53133208Y-51002510D01*
X53128912Y-51009234D01*
X53127470Y-51018933D01*
X53124920Y-51039147D01*
X53121489Y-51067956D01*
X53117402Y-51103444D01*
X53112885Y-51143692D01*
X53110095Y-51169037D01*
X53078043Y-51429851D01*
X53039954Y-51680354D01*
X52995614Y-51921295D01*
X52944813Y-52153425D01*
X52887339Y-52377494D01*
X52822980Y-52594253D01*
X52751525Y-52804453D01*
X52672762Y-53008843D01*
X52586479Y-53208175D01*
X52492466Y-53403198D01*
X52465284Y-53456068D01*
X52448567Y-53488444D01*
X52434228Y-53516781D01*
X52423135Y-53539317D01*
X52416155Y-53554290D01*
X52414145Y-53559931D01*
X51679884Y-53559931D01*
X51708021Y-53540510D01*
X51725876Y-53528201D01*
X51928851Y-53388310D01*
X52102154Y-53388310D01*
X52102186Y-53397161D01*
X52107114Y-53403601D01*
X52116592Y-53410973D01*
X52134029Y-53422868D01*
X52157505Y-53438117D01*
X52185099Y-53455548D01*
X52214891Y-53473989D01*
X52244962Y-53492269D01*
X52273390Y-53509217D01*
X52298256Y-53523663D01*
X52317639Y-53534433D01*
X52329620Y-53540358D01*
X52332497Y-53541079D01*
X52336888Y-53534775D01*
X52345997Y-53519171D01*
X52358814Y-53496082D01*
X52374331Y-53467322D01*
X52390568Y-53436565D01*
X52493622Y-53228071D01*
X52587988Y-53013388D01*
X52673799Y-52792062D01*
X52751185Y-52563638D01*
X52820278Y-52327660D01*
X52881210Y-52083673D01*
X52934110Y-51831223D01*
X52979112Y-51569853D01*
X53016345Y-51299109D01*
X53022825Y-51244198D01*
X53029018Y-51188865D01*
X53033541Y-51144953D01*
X53036454Y-51111499D01*
X53037817Y-51087541D01*
X53037692Y-51072118D01*
X53036139Y-51064267D01*
X53034237Y-51062761D01*
X53026353Y-51066164D01*
X53010041Y-51075586D01*
X52987057Y-51089847D01*
X52959157Y-51107765D01*
X52928098Y-51128160D01*
X52895634Y-51149850D01*
X52863523Y-51171655D01*
X52833521Y-51192395D01*
X52807382Y-51210887D01*
X52786864Y-51225951D01*
X52773722Y-51236406D01*
X52769701Y-51240656D01*
X52767147Y-51251498D01*
X52763538Y-51271950D01*
X52759328Y-51299208D01*
X52754974Y-51330471D01*
X52754418Y-51334703D01*
X52741813Y-51423533D01*
X52726060Y-51521490D01*
X52707683Y-51625748D01*
X52687203Y-51733483D01*
X52665142Y-51841867D01*
X52642022Y-51948076D01*
X52637220Y-51969234D01*
X52593848Y-52144568D01*
X52543484Y-52322764D01*
X52487288Y-52500189D01*
X52426423Y-52673209D01*
X52362051Y-52838188D01*
X52350357Y-52866330D01*
X52305765Y-52972606D01*
X52297329Y-53097636D01*
X52294560Y-53136359D01*
X52291780Y-53171156D01*
X52289175Y-53199970D01*
X52286933Y-53220743D01*
X52285243Y-53231418D01*
X52285040Y-53232045D01*
X52278745Y-53238644D01*
X52263901Y-53250708D01*
X52242390Y-53266811D01*
X52216092Y-53285524D01*
X52199856Y-53296693D01*
X52164744Y-53321159D01*
X52139151Y-53340505D01*
X52121756Y-53355839D01*
X52111238Y-53368267D01*
X52108304Y-53373397D01*
X52102154Y-53388310D01*
X51928851Y-53388310D01*
X52211520Y-53193494D01*
X52215475Y-53145565D01*
X52216159Y-53134814D01*
X52217414Y-53112438D01*
X52219201Y-53079198D01*
X52221482Y-53035858D01*
X52224219Y-52983179D01*
X52227375Y-52921924D01*
X52230911Y-52852855D01*
X52234789Y-52776735D01*
X52238972Y-52694326D01*
X52243421Y-52606390D01*
X52248098Y-52513690D01*
X52252965Y-52416989D01*
X52257984Y-52317047D01*
X52263117Y-52214629D01*
X52268327Y-52110496D01*
X52273574Y-52005411D01*
X52278822Y-51900136D01*
X52284032Y-51795433D01*
X52289166Y-51692065D01*
X52294186Y-51590794D01*
X52299054Y-51492382D01*
X52303732Y-51397592D01*
X52308182Y-51307187D01*
X52312366Y-51221928D01*
X52316246Y-51142579D01*
X52316472Y-51137927D01*
X52401441Y-51137927D01*
X52401676Y-51147157D01*
X52403716Y-51190917D01*
X52453728Y-51220588D01*
X52475963Y-51233541D01*
X52494049Y-51243634D01*
X52505386Y-51249436D01*
X52507751Y-51250283D01*
X52512137Y-51245057D01*
X52515162Y-51236241D01*
X52516442Y-51226178D01*
X52518190Y-51205564D01*
X52520273Y-51176340D01*
X52522559Y-51140444D01*
X52524914Y-51099815D01*
X52526312Y-51073840D01*
X52528710Y-51026668D01*
X52530335Y-50990395D01*
X52531162Y-50963438D01*
X52531165Y-50944215D01*
X52530320Y-50931144D01*
X52528604Y-50922643D01*
X52525990Y-50917129D01*
X52523823Y-50914426D01*
X52514151Y-50906737D01*
X52497743Y-50896258D01*
X52477518Y-50884558D01*
X52456392Y-50873207D01*
X52437284Y-50863776D01*
X52423109Y-50857834D01*
X52416857Y-50856863D01*
X52415258Y-50864172D01*
X52413373Y-50881829D01*
X52411313Y-50907688D01*
X52409190Y-50939600D01*
X52407118Y-50975418D01*
X52405208Y-51012995D01*
X52403574Y-51050181D01*
X52402326Y-51084831D01*
X52401577Y-51114795D01*
X52401441Y-51137927D01*
X52316472Y-51137927D01*
X52319784Y-51069900D01*
X52322942Y-51004656D01*
X52325681Y-50947607D01*
X52327965Y-50899517D01*
X52329755Y-50861148D01*
X52331012Y-50833262D01*
X52331700Y-50816622D01*
X52331823Y-50812261D01*
X52330464Y-50798893D01*
X52325407Y-50795477D01*
X52321909Y-50796411D01*
X52315264Y-50800234D01*
X52298806Y-50810244D01*
X52273300Y-50825966D01*
X52239511Y-50846921D01*
X52198203Y-50872632D01*
X52150142Y-50902622D01*
X52096092Y-50936413D01*
X52036819Y-50973529D01*
X51973088Y-51013491D01*
X51905663Y-51055823D01*
X51835310Y-51100047D01*
X51833244Y-51101346D01*
X51762720Y-51145636D01*
X51695012Y-51188023D01*
X51630891Y-51228032D01*
X51571133Y-51265184D01*
X51516511Y-51299005D01*
X51467799Y-51329016D01*
X51425771Y-51354742D01*
X51391200Y-51375705D01*
X51364860Y-51391429D01*
X51347526Y-51401437D01*
X51339970Y-51405252D01*
X51339921Y-51405263D01*
X51320168Y-51403544D01*
X51303888Y-51392653D01*
X51294835Y-51375596D01*
X51294068Y-51368537D01*
X51295631Y-51357913D01*
X51300061Y-51336854D01*
X51306963Y-51306996D01*
X51315946Y-51269977D01*
X51318021Y-51261705D01*
X51406694Y-51261705D01*
X51407745Y-51262540D01*
X51411477Y-51261509D01*
X51418519Y-51258231D01*
X51429498Y-51252321D01*
X51445043Y-51243400D01*
X51465782Y-51231083D01*
X51492345Y-51214990D01*
X51525358Y-51194737D01*
X51565450Y-51169943D01*
X51613251Y-51140225D01*
X51669387Y-51105201D01*
X51734487Y-51064489D01*
X51809180Y-51017706D01*
X51855882Y-50988431D01*
X51922552Y-50946531D01*
X51986030Y-50906443D01*
X52045535Y-50868672D01*
X52100284Y-50833724D01*
X52149496Y-50802103D01*
X52192391Y-50774314D01*
X52228186Y-50750863D01*
X52256100Y-50732254D01*
X52275352Y-50718994D01*
X52285160Y-50711586D01*
X52286280Y-50710238D01*
X52280341Y-50705132D01*
X52265389Y-50695284D01*
X52243442Y-50681834D01*
X52233992Y-50676250D01*
X52410983Y-50676250D01*
X52412320Y-50692959D01*
X52415583Y-50713895D01*
X52420051Y-50735153D01*
X52424998Y-50752826D01*
X52429701Y-50763011D01*
X52430026Y-50763366D01*
X52438763Y-50769764D01*
X52455412Y-50780169D01*
X52477325Y-50793100D01*
X52501858Y-50807072D01*
X52526365Y-50820602D01*
X52548198Y-50832209D01*
X52564712Y-50840407D01*
X52573260Y-50843716D01*
X52573403Y-50843725D01*
X52580035Y-50840524D01*
X52596083Y-50831277D01*
X52620428Y-50816671D01*
X52651952Y-50797394D01*
X52689534Y-50774133D01*
X52732056Y-50747576D01*
X52778399Y-50718409D01*
X52807835Y-50699775D01*
X52855734Y-50669255D01*
X52900199Y-50640663D01*
X52940149Y-50614714D01*
X52974502Y-50592121D01*
X53002177Y-50573599D01*
X53022093Y-50559864D01*
X53033168Y-50551628D01*
X53035121Y-50549606D01*
X53029882Y-50544793D01*
X53015502Y-50535408D01*
X52993986Y-50522543D01*
X52967340Y-50507289D01*
X52937570Y-50490737D01*
X52906682Y-50473980D01*
X52876682Y-50458108D01*
X52849574Y-50444212D01*
X52827365Y-50433385D01*
X52812060Y-50426718D01*
X52806334Y-50425104D01*
X52799378Y-50428290D01*
X52783316Y-50437246D01*
X52759613Y-50451070D01*
X52729735Y-50468859D01*
X52695149Y-50489710D01*
X52657321Y-50512720D01*
X52617717Y-50536988D01*
X52577803Y-50561610D01*
X52539047Y-50585683D01*
X52502913Y-50608306D01*
X52470869Y-50628574D01*
X52444381Y-50645587D01*
X52424914Y-50658440D01*
X52413936Y-50666232D01*
X52412298Y-50667675D01*
X52410983Y-50676250D01*
X52233992Y-50676250D01*
X52216518Y-50665925D01*
X52186635Y-50648701D01*
X52155810Y-50631303D01*
X52126062Y-50614874D01*
X52099408Y-50600558D01*
X52077866Y-50589496D01*
X52063455Y-50582830D01*
X52058728Y-50581392D01*
X52052303Y-50584569D01*
X52036478Y-50593600D01*
X52012472Y-50607739D01*
X51981503Y-50626240D01*
X51944789Y-50648355D01*
X51903549Y-50673338D01*
X51859001Y-50700441D01*
X51812364Y-50728919D01*
X51764856Y-50758023D01*
X51717696Y-50787008D01*
X51672101Y-50815126D01*
X51629290Y-50841631D01*
X51590482Y-50865776D01*
X51556895Y-50886813D01*
X51529748Y-50903997D01*
X51510258Y-50916580D01*
X51499644Y-50923816D01*
X51498260Y-50924939D01*
X51495834Y-50931571D01*
X51490746Y-50948394D01*
X51483512Y-50973503D01*
X51474651Y-51004996D01*
X51464678Y-51040971D01*
X51454113Y-51079525D01*
X51443471Y-51118756D01*
X51433271Y-51156761D01*
X51424029Y-51191637D01*
X51416264Y-51221483D01*
X51410491Y-51244394D01*
X51407229Y-51258470D01*
X51406694Y-51261705D01*
X51318021Y-51261705D01*
X51326617Y-51227431D01*
X51338583Y-51180995D01*
X51344336Y-51159073D01*
X51385644Y-50998792D01*
X51427250Y-50830106D01*
X51468559Y-50655712D01*
X51508974Y-50478304D01*
X51536935Y-50350642D01*
X52849437Y-50350642D01*
X52849535Y-50351168D01*
X52857352Y-50356490D01*
X52873728Y-50366105D01*
X52896726Y-50378986D01*
X52924409Y-50394110D01*
X52954839Y-50410451D01*
X52986079Y-50426984D01*
X53016190Y-50442685D01*
X53043236Y-50456529D01*
X53065279Y-50467490D01*
X53080381Y-50474543D01*
X53086605Y-50476665D01*
X53086659Y-50476601D01*
X53087247Y-50469911D01*
X53088600Y-50451483D01*
X53090667Y-50422053D01*
X53093399Y-50382359D01*
X53096747Y-50333138D01*
X53100661Y-50275129D01*
X53105092Y-50209068D01*
X53109990Y-50135693D01*
X53115307Y-50055742D01*
X53120991Y-49969953D01*
X53126995Y-49879062D01*
X53133269Y-49783807D01*
X53139762Y-49684927D01*
X53141406Y-49659857D01*
X53147915Y-49560239D01*
X53154159Y-49464093D01*
X53160093Y-49372153D01*
X53165670Y-49285155D01*
X53170846Y-49203833D01*
X53175573Y-49128923D01*
X53179806Y-49061159D01*
X53183500Y-49001276D01*
X53186608Y-48950008D01*
X53189085Y-48908091D01*
X53190885Y-48876259D01*
X53191961Y-48855247D01*
X53192269Y-48845790D01*
X53192220Y-48845317D01*
X53186264Y-48847494D01*
X53171457Y-48855189D01*
X53149579Y-48867343D01*
X53122410Y-48882895D01*
X53091731Y-48900786D01*
X53059323Y-48919956D01*
X53026967Y-48939344D01*
X52996442Y-48957892D01*
X52969531Y-48974538D01*
X52948012Y-48988224D01*
X52933668Y-48997889D01*
X52928297Y-49002410D01*
X52927355Y-49010116D01*
X52925789Y-49029221D01*
X52923655Y-49058742D01*
X52921010Y-49097693D01*
X52917913Y-49145090D01*
X52914421Y-49199949D01*
X52910591Y-49261286D01*
X52906481Y-49328115D01*
X52902148Y-49399452D01*
X52897649Y-49474313D01*
X52893043Y-49551714D01*
X52888387Y-49630669D01*
X52883738Y-49710195D01*
X52879153Y-49789306D01*
X52874691Y-49867019D01*
X52870408Y-49942349D01*
X52866363Y-50014312D01*
X52862612Y-50081922D01*
X52859214Y-50144196D01*
X52856225Y-50200149D01*
X52853703Y-50248796D01*
X52851706Y-50289154D01*
X52850291Y-50320237D01*
X52849515Y-50341061D01*
X52849437Y-50350642D01*
X51536935Y-50350642D01*
X51547900Y-50300577D01*
X51584739Y-50125224D01*
X51618896Y-49954942D01*
X51649774Y-49792424D01*
X51663610Y-49715973D01*
X51671017Y-49677522D01*
X51677756Y-49649929D01*
X51684285Y-49631602D01*
X51690761Y-49621264D01*
X51698156Y-49615882D01*
X51715463Y-49604736D01*
X51741797Y-49588362D01*
X51776270Y-49567294D01*
X51817993Y-49542066D01*
X51866080Y-49513215D01*
X51919643Y-49481273D01*
X51977794Y-49446776D01*
X52039646Y-49410260D01*
X52094265Y-49378150D01*
X52158371Y-49340496D01*
X52219412Y-49304564D01*
X52276515Y-49270874D01*
X52328810Y-49239942D01*
X52375424Y-49212287D01*
X52415486Y-49188425D01*
X52448125Y-49168877D01*
X52472470Y-49154158D01*
X52487648Y-49144787D01*
X52492712Y-49141393D01*
X52494811Y-49133747D01*
X52497375Y-49115666D01*
X52500264Y-49089136D01*
X52503338Y-49056144D01*
X52506457Y-49018674D01*
X52509481Y-48978713D01*
X52512270Y-48938247D01*
X52514684Y-48899262D01*
X52516583Y-48863744D01*
X52517827Y-48833679D01*
X52518276Y-48811053D01*
X52517789Y-48797852D01*
X52517115Y-48795365D01*
X52510122Y-48795772D01*
X52499587Y-48800235D01*
X52490721Y-48805216D01*
X52471931Y-48815968D01*
X52443901Y-48832095D01*
X52407319Y-48853198D01*
X52362870Y-48878878D01*
X52311239Y-48908739D01*
X52253113Y-48942381D01*
X52189176Y-48979406D01*
X52120115Y-49019417D01*
X52046616Y-49062015D01*
X51969365Y-49106803D01*
X51889046Y-49153382D01*
X51806347Y-49201354D01*
X51721952Y-49250321D01*
X51636547Y-49299886D01*
X51550819Y-49349649D01*
X51465452Y-49399213D01*
X51381133Y-49448180D01*
X51298548Y-49496151D01*
X51218382Y-49542729D01*
X51141321Y-49587516D01*
X51068051Y-49630113D01*
X50999257Y-49670123D01*
X50935625Y-49707147D01*
X50877842Y-49740787D01*
X50826592Y-49770645D01*
X50782562Y-49796323D01*
X50746437Y-49817424D01*
X50718904Y-49833548D01*
X50700647Y-49844298D01*
X50692353Y-49849276D01*
X50691917Y-49849571D01*
X50690463Y-49856789D01*
X50688984Y-49874377D01*
X50687526Y-49900425D01*
X50686132Y-49933024D01*
X50684846Y-49970266D01*
X50683711Y-50010242D01*
X50682773Y-50051043D01*
X50682075Y-50090761D01*
X50681661Y-50127487D01*
X50681575Y-50159312D01*
X50681861Y-50184328D01*
X50682563Y-50200626D01*
X50683694Y-50206300D01*
X50689605Y-50203202D01*
X50705482Y-50194219D01*
X50730525Y-50179819D01*
X50763931Y-50160470D01*
X50804898Y-50136640D01*
X50852623Y-50108795D01*
X50906306Y-50077404D01*
X50965143Y-50042935D01*
X51028332Y-50005855D01*
X51095072Y-49966632D01*
X51133987Y-49943735D01*
X51215932Y-49895521D01*
X51287812Y-49853307D01*
X51350325Y-49816737D01*
X51404171Y-49785451D01*
X51450052Y-49759092D01*
X51488665Y-49737302D01*
X51520710Y-49719724D01*
X51546889Y-49705999D01*
X51567899Y-49695769D01*
X51584441Y-49688677D01*
X51597214Y-49684364D01*
X51606919Y-49682473D01*
X51614254Y-49682645D01*
X51619920Y-49684524D01*
X51624617Y-49687750D01*
X51628078Y-49690995D01*
X51634963Y-49704625D01*
X51637746Y-49723608D01*
X51635831Y-49741295D01*
X51633118Y-49747302D01*
X51626587Y-49752312D01*
X51610857Y-49762589D01*
X51587545Y-49777131D01*
X51558269Y-49794935D01*
X51524647Y-49814999D01*
X51508671Y-49824415D01*
X51473277Y-49845417D01*
X51441195Y-49864874D01*
X51414123Y-49881720D01*
X51393762Y-49894891D01*
X51381812Y-49903321D01*
X51379708Y-49905195D01*
X51375535Y-49914758D01*
X51370023Y-49934283D01*
X51363746Y-49961379D01*
X51357281Y-49993653D01*
X51353895Y-50012502D01*
X51299636Y-50311252D01*
X51241271Y-50602051D01*
X51178924Y-50884458D01*
X51112719Y-51158032D01*
X51042781Y-51422333D01*
X50969236Y-51676919D01*
X50892208Y-51921349D01*
X50811823Y-52155183D01*
X50728204Y-52377980D01*
X50641476Y-52589299D01*
X50593156Y-52699012D01*
X50578845Y-52731052D01*
X50566550Y-52759257D01*
X50557128Y-52781606D01*
X50551439Y-52796073D01*
X50550135Y-52800478D01*
X50407405Y-52800478D01*
X50377440Y-52781235D01*
X50351650Y-52765304D01*
X50334267Y-52755785D01*
X50324290Y-52752418D01*
X50320722Y-52754944D01*
X49955227Y-52754944D01*
X49955309Y-52623442D01*
X49955326Y-52588341D01*
X50238979Y-52588341D01*
X50238985Y-52589294D01*
X50244576Y-52594207D01*
X50258855Y-52604335D01*
X50280003Y-52618531D01*
X50306202Y-52635649D01*
X50335634Y-52654542D01*
X50366480Y-52674064D01*
X50396924Y-52693068D01*
X50425146Y-52710408D01*
X50449329Y-52724937D01*
X50467654Y-52735508D01*
X50478303Y-52740976D01*
X50480212Y-52741413D01*
X50483768Y-52734944D01*
X50491362Y-52719428D01*
X50501870Y-52697202D01*
X50513906Y-52671185D01*
X50580683Y-52518987D01*
X50646935Y-52355262D01*
X50712352Y-52180987D01*
X50776625Y-51997135D01*
X50839442Y-51804681D01*
X50900495Y-51604602D01*
X50959472Y-51397871D01*
X51016065Y-51185463D01*
X51069963Y-50968354D01*
X51109775Y-50797070D01*
X51124087Y-50732701D01*
X51138734Y-50665110D01*
X51153514Y-50595347D01*
X51168229Y-50524464D01*
X51182677Y-50453514D01*
X51196659Y-50383547D01*
X51209973Y-50315615D01*
X51222421Y-50250770D01*
X51233801Y-50190063D01*
X51243913Y-50134547D01*
X51252557Y-50085271D01*
X51259533Y-50043289D01*
X51264640Y-50009652D01*
X51267678Y-49985411D01*
X51268447Y-49971617D01*
X51267544Y-49968742D01*
X51261168Y-49971820D01*
X51245812Y-49980379D01*
X51223176Y-49993403D01*
X51194964Y-50009877D01*
X51162877Y-50028787D01*
X51128618Y-50049118D01*
X51093889Y-50069854D01*
X51060392Y-50089982D01*
X51029829Y-50108486D01*
X51003904Y-50124351D01*
X50984318Y-50136563D01*
X50972773Y-50144106D01*
X50970563Y-50145795D01*
X50967482Y-50153627D01*
X50962371Y-50172217D01*
X50955582Y-50200051D01*
X50947463Y-50235612D01*
X50938366Y-50277385D01*
X50928638Y-50323854D01*
X50922633Y-50353422D01*
X50863855Y-50632529D01*
X50801484Y-50902450D01*
X50735634Y-51162807D01*
X50666417Y-51413223D01*
X50593950Y-51653320D01*
X50518344Y-51882721D01*
X50439715Y-52101049D01*
X50358177Y-52307925D01*
X50273843Y-52502973D01*
X50272356Y-52506250D01*
X50259600Y-52535004D01*
X50249183Y-52559770D01*
X50242008Y-52578299D01*
X50238979Y-52588341D01*
X49955326Y-52588341D01*
X49955392Y-52448619D01*
X49955448Y-52274799D01*
X49955479Y-52102606D01*
X49955484Y-51932667D01*
X49955465Y-51765605D01*
X49955421Y-51602048D01*
X49955353Y-51442619D01*
X49955262Y-51287944D01*
X49955149Y-51138649D01*
X49955013Y-50995359D01*
X49954855Y-50858698D01*
X49954677Y-50729293D01*
X49954477Y-50607768D01*
X49954257Y-50494748D01*
X49954017Y-50390860D01*
X49953758Y-50296728D01*
X49953480Y-50212977D01*
X49953184Y-50140233D01*
X49952870Y-50079121D01*
X49952829Y-50072410D01*
X50341962Y-50072410D01*
X50456988Y-50138759D01*
X50491443Y-50158482D01*
X50522422Y-50175929D01*
X50548234Y-50190169D01*
X50567184Y-50200274D01*
X50577581Y-50205312D01*
X50578841Y-50205704D01*
X50581814Y-50199944D01*
X50584492Y-50182047D01*
X50586883Y-50151906D01*
X50588998Y-50109414D01*
X50589763Y-50089084D01*
X50591123Y-50046774D01*
X50592294Y-50003849D01*
X50593195Y-49963817D01*
X50593745Y-49930186D01*
X50593878Y-49911553D01*
X50593895Y-49851239D01*
X50474649Y-49784385D01*
X50439784Y-49764995D01*
X50408728Y-49748026D01*
X50383077Y-49734323D01*
X50364426Y-49724734D01*
X50354369Y-49720104D01*
X50353085Y-49719848D01*
X50352333Y-49726453D01*
X50351364Y-49743949D01*
X50350238Y-49770727D01*
X50349017Y-49805179D01*
X50347761Y-49845696D01*
X50346532Y-49890669D01*
X50346364Y-49897288D01*
X50341962Y-50072410D01*
X49952829Y-50072410D01*
X49952742Y-50058416D01*
X49950002Y-49640804D01*
X50407226Y-49640804D01*
X50407367Y-49640968D01*
X50416381Y-49647516D01*
X50433976Y-49658465D01*
X50458092Y-49672679D01*
X50486671Y-49689020D01*
X50517650Y-49706353D01*
X50548972Y-49723539D01*
X50578574Y-49739442D01*
X50604398Y-49752926D01*
X50624384Y-49762852D01*
X50636470Y-49768085D01*
X50638662Y-49768610D01*
X50645118Y-49765542D01*
X50661828Y-49756536D01*
X50688224Y-49741916D01*
X50723739Y-49722006D01*
X50767804Y-49697130D01*
X50819852Y-49667611D01*
X50879314Y-49633775D01*
X50945623Y-49595944D01*
X51018211Y-49554443D01*
X51096511Y-49509596D01*
X51179953Y-49461727D01*
X51267971Y-49411160D01*
X51359997Y-49358218D01*
X51455462Y-49303227D01*
X51553798Y-49246509D01*
X51556781Y-49244787D01*
X51655085Y-49188019D01*
X51750430Y-49132897D01*
X51842255Y-49079749D01*
X51929999Y-49028901D01*
X52013100Y-48980682D01*
X52090998Y-48935418D01*
X52163132Y-48893435D01*
X52228940Y-48855063D01*
X52287862Y-48820627D01*
X52339337Y-48790454D01*
X52382803Y-48764873D01*
X52417700Y-48744210D01*
X52443466Y-48728791D01*
X52459541Y-48718945D01*
X52465363Y-48714999D01*
X52465375Y-48714969D01*
X52460403Y-48710233D01*
X52446192Y-48701081D01*
X52424750Y-48688569D01*
X52398082Y-48673749D01*
X52368195Y-48657674D01*
X52351156Y-48648758D01*
X52536840Y-48648758D01*
X52560925Y-48661050D01*
X52578409Y-48670560D01*
X52590761Y-48679867D01*
X52598933Y-48691324D01*
X52603876Y-48707283D01*
X52606541Y-48730096D01*
X52607879Y-48762115D01*
X52608257Y-48778099D01*
X52610016Y-48859094D01*
X52691286Y-48901029D01*
X52720348Y-48915885D01*
X52745472Y-48928463D01*
X52764571Y-48937739D01*
X52775554Y-48942687D01*
X52777245Y-48943227D01*
X52780676Y-48938031D01*
X52782032Y-48926298D01*
X52782435Y-48915344D01*
X52782714Y-48909782D01*
X52870620Y-48909782D01*
X52871325Y-48925709D01*
X52872832Y-48930986D01*
X52878870Y-48927932D01*
X52894298Y-48919296D01*
X52917747Y-48905868D01*
X52947847Y-48888439D01*
X52983230Y-48867797D01*
X53022528Y-48844732D01*
X53033809Y-48838088D01*
X53084522Y-48808219D01*
X53125624Y-48784107D01*
X53158260Y-48765136D01*
X53183576Y-48750693D01*
X53202720Y-48740162D01*
X53216838Y-48732929D01*
X53227075Y-48728380D01*
X53234578Y-48725899D01*
X53240494Y-48724873D01*
X53245344Y-48724685D01*
X53254729Y-48721776D01*
X53273238Y-48713633D01*
X53299087Y-48701129D01*
X53330491Y-48685139D01*
X53365667Y-48666538D01*
X53381626Y-48657890D01*
X53428861Y-48632068D01*
X53466294Y-48611435D01*
X53495108Y-48595210D01*
X53516485Y-48582612D01*
X53531611Y-48572859D01*
X53541667Y-48565171D01*
X53547837Y-48558766D01*
X53551305Y-48552864D01*
X53553254Y-48546684D01*
X53553810Y-48544249D01*
X53562934Y-48528037D01*
X53580520Y-48520117D01*
X53605166Y-48521091D01*
X53606726Y-48521420D01*
X53613935Y-48521461D01*
X53624745Y-48518647D01*
X53640372Y-48512404D01*
X53662033Y-48502160D01*
X53690945Y-48487341D01*
X53728326Y-48467372D01*
X53772055Y-48443515D01*
X53823601Y-48415235D01*
X53865282Y-48392341D01*
X53898161Y-48374139D01*
X53923300Y-48359938D01*
X53941761Y-48349047D01*
X53954606Y-48340773D01*
X53962898Y-48334424D01*
X53967698Y-48329308D01*
X53970070Y-48324733D01*
X53971075Y-48320007D01*
X53971776Y-48314439D01*
X53971952Y-48313294D01*
X53976414Y-48296107D01*
X53982475Y-48283663D01*
X53982692Y-48283394D01*
X53995122Y-48276661D01*
X54013582Y-48274848D01*
X54032498Y-48278217D01*
X54038429Y-48280792D01*
X54043811Y-48281689D01*
X54052500Y-48279526D01*
X54065700Y-48273655D01*
X54084619Y-48263426D01*
X54110462Y-48248192D01*
X54144435Y-48227305D01*
X54183366Y-48202880D01*
X54230036Y-48173072D01*
X54266622Y-48148865D01*
X54293915Y-48129692D01*
X54312707Y-48114984D01*
X54323788Y-48104172D01*
X54326799Y-48099838D01*
X54339124Y-48079170D01*
X54350487Y-48067674D01*
X54364340Y-48062821D01*
X54378404Y-48062020D01*
X54387995Y-48061242D01*
X54398892Y-48058384D01*
X54412601Y-48052659D01*
X54430623Y-48043280D01*
X54454464Y-48029459D01*
X54485626Y-48010410D01*
X54525613Y-47985346D01*
X54529239Y-47983057D01*
X54565744Y-47959587D01*
X54599594Y-47937043D01*
X54629025Y-47916663D01*
X54652275Y-47899681D01*
X54667581Y-47887333D01*
X54671916Y-47883035D01*
X54688713Y-47867668D01*
X54704295Y-47861975D01*
X54704518Y-47861973D01*
X54714542Y-47858681D01*
X54732950Y-47849545D01*
X54757734Y-47835679D01*
X54786889Y-47818196D01*
X54811902Y-47802422D01*
X54843361Y-47782192D01*
X54872361Y-47763615D01*
X54896768Y-47748052D01*
X54914448Y-47736865D01*
X54922130Y-47732093D01*
X54959057Y-47709476D01*
X54994054Y-47687573D01*
X55025338Y-47667538D01*
X55051125Y-47650529D01*
X55069633Y-47637703D01*
X55078767Y-47630523D01*
X55082911Y-47624931D01*
X55086564Y-47615773D01*
X55089998Y-47601479D01*
X55093489Y-47580484D01*
X55097311Y-47551219D01*
X55101738Y-47512118D01*
X55105193Y-47479500D01*
X55110899Y-47423388D01*
X55115110Y-47378609D01*
X55117879Y-47344088D01*
X55119255Y-47318752D01*
X55119291Y-47301525D01*
X55118039Y-47291334D01*
X55115549Y-47287103D01*
X55114423Y-47286832D01*
X55108599Y-47289912D01*
X55092583Y-47298914D01*
X55066992Y-47313479D01*
X55032444Y-47333250D01*
X54989559Y-47357868D01*
X54938953Y-47386975D01*
X54881247Y-47420213D01*
X54817057Y-47457223D01*
X54747004Y-47497648D01*
X54671704Y-47541129D01*
X54591776Y-47587307D01*
X54507839Y-47635826D01*
X54420510Y-47686326D01*
X54330410Y-47738449D01*
X54238155Y-47791837D01*
X54144364Y-47846132D01*
X54049655Y-47900976D01*
X53954648Y-47956011D01*
X53859960Y-48010878D01*
X53766209Y-48065219D01*
X53674015Y-48118675D01*
X53583995Y-48170890D01*
X53496768Y-48221504D01*
X53412951Y-48270159D01*
X53333165Y-48316498D01*
X53258026Y-48360161D01*
X53188154Y-48400791D01*
X53124166Y-48438030D01*
X53066682Y-48471518D01*
X53016318Y-48500899D01*
X52973695Y-48525814D01*
X52939430Y-48545905D01*
X52914141Y-48560813D01*
X52898447Y-48570180D01*
X52892990Y-48573620D01*
X52890638Y-48581552D01*
X52888029Y-48599708D01*
X52885269Y-48626188D01*
X52882465Y-48659094D01*
X52879725Y-48696525D01*
X52877156Y-48736582D01*
X52874864Y-48777366D01*
X52872958Y-48816978D01*
X52871544Y-48853517D01*
X52870729Y-48885085D01*
X52870620Y-48909782D01*
X52782714Y-48909782D01*
X52783512Y-48893886D01*
X52785154Y-48863896D01*
X52787250Y-48827348D01*
X52789692Y-48786215D01*
X52791344Y-48759069D01*
X52793943Y-48716086D01*
X52796264Y-48676466D01*
X52798197Y-48642180D01*
X52799633Y-48615198D01*
X52800462Y-48597491D01*
X52800623Y-48592008D01*
X52799962Y-48586043D01*
X52797010Y-48580305D01*
X52790386Y-48573898D01*
X52778708Y-48565925D01*
X52760597Y-48555487D01*
X52734670Y-48541689D01*
X52699548Y-48523632D01*
X52680346Y-48513864D01*
X52644771Y-48495803D01*
X52612992Y-48479686D01*
X52586688Y-48466362D01*
X52567538Y-48456681D01*
X52557220Y-48451492D01*
X52555965Y-48450876D01*
X52553175Y-48455112D01*
X52550284Y-48470576D01*
X52547254Y-48497590D01*
X52544051Y-48536476D01*
X52540787Y-48585134D01*
X52536840Y-48648758D01*
X52351156Y-48648758D01*
X52337093Y-48641399D01*
X52306785Y-48625976D01*
X52279274Y-48612459D01*
X52256569Y-48601901D01*
X52240674Y-48595356D01*
X52234445Y-48593714D01*
X52226926Y-48596692D01*
X52209495Y-48605395D01*
X52183078Y-48619312D01*
X52148601Y-48637936D01*
X52106990Y-48660756D01*
X52059172Y-48687263D01*
X52006072Y-48716948D01*
X51948616Y-48749300D01*
X51887731Y-48783812D01*
X51856227Y-48801755D01*
X51794990Y-48836686D01*
X51724432Y-48876932D01*
X51646093Y-48921613D01*
X51561514Y-48969852D01*
X51472237Y-49020768D01*
X51379801Y-49073484D01*
X51285747Y-49127121D01*
X51191617Y-49180800D01*
X51098950Y-49233642D01*
X51009287Y-49284770D01*
X50945000Y-49321427D01*
X50854041Y-49373327D01*
X50773411Y-49419417D01*
X50702549Y-49460032D01*
X50640894Y-49495505D01*
X50587883Y-49526169D01*
X50542957Y-49552359D01*
X50505553Y-49574407D01*
X50475111Y-49592647D01*
X50451070Y-49607413D01*
X50432868Y-49619039D01*
X50419943Y-49627857D01*
X50411736Y-49634201D01*
X50407684Y-49638406D01*
X50407226Y-49640804D01*
X49950002Y-49640804D01*
X49948470Y-49407283D01*
X47472894Y-48021661D01*
X47309126Y-47930004D01*
X47148117Y-47839904D01*
X46990212Y-47751552D01*
X46835752Y-47665141D01*
X46685081Y-47580862D01*
X46538541Y-47498907D01*
X46396477Y-47419466D01*
X46259232Y-47342733D01*
X46127147Y-47268899D01*
X46000568Y-47198155D01*
X45879836Y-47130692D01*
X45765294Y-47066703D01*
X45657287Y-47006380D01*
X45556156Y-46949913D01*
X45462246Y-46897495D01*
X45375899Y-46849317D01*
X45297459Y-46805571D01*
X45227268Y-46766448D01*
X45165670Y-46732140D01*
X45113007Y-46702839D01*
X45069624Y-46678737D01*
X45035863Y-46660024D01*
X45012067Y-46646893D01*
X44998579Y-46639536D01*
X44995434Y-46637922D01*
X44910874Y-46637922D01*
X44908990Y-46617935D01*
X44906546Y-46591282D01*
X44905289Y-46576461D01*
X44905117Y-46573562D01*
X44905790Y-46560831D01*
X45047206Y-46560831D01*
X45051452Y-46564887D01*
X45066136Y-46574576D01*
X45090703Y-46589578D01*
X45124596Y-46609574D01*
X45167258Y-46634243D01*
X45218132Y-46663266D01*
X45276662Y-46696324D01*
X45342291Y-46733097D01*
X45414464Y-46773266D01*
X45488782Y-46814391D01*
X45513196Y-46827900D01*
X45546167Y-46846196D01*
X45586826Y-46868795D01*
X45634306Y-46895212D01*
X45687739Y-46924964D01*
X45746257Y-46957564D01*
X45808993Y-46992530D01*
X45875079Y-47029376D01*
X45943648Y-47067619D01*
X46013831Y-47106774D01*
X46084761Y-47146357D01*
X46155570Y-47185882D01*
X46225390Y-47224867D01*
X46293354Y-47262826D01*
X46358595Y-47299275D01*
X46420243Y-47333729D01*
X46477432Y-47365705D01*
X46529294Y-47394718D01*
X46574961Y-47420284D01*
X46613566Y-47441917D01*
X46644240Y-47459135D01*
X46666117Y-47471451D01*
X46678328Y-47478383D01*
X46680432Y-47479613D01*
X46696733Y-47489225D01*
X46709670Y-47496212D01*
X46711690Y-47497164D01*
X46718194Y-47500651D01*
X46734603Y-47509663D01*
X46759903Y-47523636D01*
X46793078Y-47542005D01*
X46833115Y-47564205D01*
X46878998Y-47589672D01*
X46929713Y-47617841D01*
X46984245Y-47648148D01*
X47041579Y-47680027D01*
X47100702Y-47712915D01*
X47160598Y-47746246D01*
X47220253Y-47779456D01*
X47278652Y-47811980D01*
X47334781Y-47843254D01*
X47387624Y-47872713D01*
X47436168Y-47899791D01*
X47479398Y-47923926D01*
X47516298Y-47944551D01*
X47545855Y-47961102D01*
X47567054Y-47973015D01*
X47578880Y-47979725D01*
X47580654Y-47980762D01*
X47588340Y-47985142D01*
X47605594Y-47994825D01*
X47631049Y-48009050D01*
X47663339Y-48027059D01*
X47701096Y-48048091D01*
X47742954Y-48071386D01*
X47787545Y-48096186D01*
X47833503Y-48121731D01*
X47879460Y-48147260D01*
X47924050Y-48172015D01*
X47965906Y-48195236D01*
X48003660Y-48216163D01*
X48035946Y-48234037D01*
X48061397Y-48248098D01*
X48078646Y-48257586D01*
X48085887Y-48261514D01*
X48093627Y-48265755D01*
X48111519Y-48275659D01*
X48138795Y-48290799D01*
X48174688Y-48310747D01*
X48218431Y-48335078D01*
X48269255Y-48363362D01*
X48326393Y-48395175D01*
X48389078Y-48430087D01*
X48456542Y-48467671D01*
X48528017Y-48507502D01*
X48602736Y-48549151D01*
X48640290Y-48570087D01*
X48731538Y-48620962D01*
X48812547Y-48666128D01*
X48883999Y-48705964D01*
X48946574Y-48740850D01*
X49000954Y-48771164D01*
X49047822Y-48797286D01*
X49087857Y-48819594D01*
X49121743Y-48838469D01*
X49150160Y-48854288D01*
X49173789Y-48867432D01*
X49193313Y-48878280D01*
X49209413Y-48887210D01*
X49222770Y-48894602D01*
X49234066Y-48900835D01*
X49243982Y-48906288D01*
X49253200Y-48911341D01*
X49262401Y-48916372D01*
X49272267Y-48921760D01*
X49277947Y-48924862D01*
X49306236Y-48940467D01*
X49339855Y-48959233D01*
X49373296Y-48978081D01*
X49387348Y-48986069D01*
X49414755Y-49001640D01*
X49440976Y-49016424D01*
X49462378Y-49028377D01*
X49472077Y-49033711D01*
X49491811Y-49044514D01*
X49519552Y-49059829D01*
X49553914Y-49078880D01*
X49593515Y-49100895D01*
X49636970Y-49125099D01*
X49682896Y-49150719D01*
X49729908Y-49176980D01*
X49776624Y-49203110D01*
X49821658Y-49228332D01*
X49863627Y-49251875D01*
X49901148Y-49272965D01*
X49932836Y-49290826D01*
X49957308Y-49304686D01*
X49973179Y-49313770D01*
X49978359Y-49316829D01*
X49988345Y-49322115D01*
X49997812Y-49323578D01*
X50009662Y-49320534D01*
X50026798Y-49312303D01*
X50048187Y-49300435D01*
X50074828Y-49285427D01*
X50102789Y-49269812D01*
X50125328Y-49257350D01*
X50136523Y-49251164D01*
X50157646Y-49239440D01*
X50187705Y-49222732D01*
X50225709Y-49201592D01*
X50270664Y-49176571D01*
X50321580Y-49148223D01*
X50377464Y-49117098D01*
X50437325Y-49083750D01*
X50500169Y-49048731D01*
X50534506Y-49029593D01*
X50611796Y-48986515D01*
X50696948Y-48939058D01*
X50787467Y-48888614D01*
X50880860Y-48836570D01*
X50974635Y-48784316D01*
X51066299Y-48733242D01*
X51153357Y-48684737D01*
X51233316Y-48640189D01*
X51272187Y-48618535D01*
X51346860Y-48576935D01*
X51428236Y-48531597D01*
X51513959Y-48483834D01*
X51601674Y-48434959D01*
X51689024Y-48386284D01*
X51704383Y-48377725D01*
X52610313Y-48377725D01*
X52615527Y-48382720D01*
X52630062Y-48391951D01*
X52651895Y-48404393D01*
X52679001Y-48419024D01*
X52709358Y-48434821D01*
X52740942Y-48450761D01*
X52771731Y-48465821D01*
X52799701Y-48478978D01*
X52822829Y-48489209D01*
X52839091Y-48495491D01*
X52846108Y-48496943D01*
X52852529Y-48493622D01*
X52869264Y-48484339D01*
X52895801Y-48469388D01*
X52931627Y-48449062D01*
X52976231Y-48423656D01*
X53029100Y-48393463D01*
X53089722Y-48358776D01*
X53157585Y-48319890D01*
X53232178Y-48277098D01*
X53312987Y-48230694D01*
X53399501Y-48180971D01*
X53491209Y-48128223D01*
X53587597Y-48072745D01*
X53688154Y-48014829D01*
X53792367Y-47954769D01*
X53899725Y-47892860D01*
X53970146Y-47852231D01*
X54079058Y-47789346D01*
X54185013Y-47728100D01*
X54287507Y-47668786D01*
X54386038Y-47611697D01*
X54480101Y-47557126D01*
X54569195Y-47505369D01*
X54652816Y-47456718D01*
X54730461Y-47411466D01*
X54801627Y-47369909D01*
X54865811Y-47332339D01*
X54922510Y-47299049D01*
X54971221Y-47270335D01*
X55011440Y-47246489D01*
X55042665Y-47227804D01*
X55064392Y-47214576D01*
X55076119Y-47207096D01*
X55078136Y-47205452D01*
X55071120Y-47201636D01*
X55054470Y-47193623D01*
X55029998Y-47182250D01*
X54999513Y-47168358D01*
X54964825Y-47152785D01*
X54958211Y-47149840D01*
X54843300Y-47098739D01*
X54398699Y-47352128D01*
X54231101Y-47447650D01*
X54074041Y-47537175D01*
X53927190Y-47620892D01*
X53790217Y-47698989D01*
X53662796Y-47771655D01*
X53544597Y-47839078D01*
X53435290Y-47901447D01*
X53334549Y-47958951D01*
X53242042Y-48011778D01*
X53157443Y-48060116D01*
X53080421Y-48104155D01*
X53010649Y-48144083D01*
X52947797Y-48180087D01*
X52891537Y-48212358D01*
X52841539Y-48241083D01*
X52797476Y-48266451D01*
X52759018Y-48288650D01*
X52725836Y-48307870D01*
X52697602Y-48324298D01*
X52673987Y-48338123D01*
X52654662Y-48349534D01*
X52639298Y-48358720D01*
X52627567Y-48365868D01*
X52619139Y-48371168D01*
X52613686Y-48374807D01*
X52610880Y-48376975D01*
X52610313Y-48377725D01*
X51704383Y-48377725D01*
X51773654Y-48339122D01*
X51853207Y-48294786D01*
X51925329Y-48254588D01*
X51956731Y-48237085D01*
X52016396Y-48203836D01*
X52073864Y-48171828D01*
X52128016Y-48141684D01*
X52177734Y-48114026D01*
X52221897Y-48089475D01*
X52259389Y-48068654D01*
X52289090Y-48052184D01*
X52309881Y-48040688D01*
X52319320Y-48035505D01*
X52336975Y-48025792D01*
X52363237Y-48011207D01*
X52395827Y-47993024D01*
X52432462Y-47972517D01*
X52470862Y-47950958D01*
X52483352Y-47943932D01*
X52518953Y-47923983D01*
X52550866Y-47906274D01*
X52577498Y-47891673D01*
X52597256Y-47881051D01*
X52608550Y-47875275D01*
X52610543Y-47874476D01*
X52617803Y-47871238D01*
X52630199Y-47863394D01*
X52630932Y-47862884D01*
X52644258Y-47854467D01*
X52664759Y-47842512D01*
X52688534Y-47829279D01*
X52694412Y-47826101D01*
X52718502Y-47813005D01*
X52749481Y-47795942D01*
X52783363Y-47777119D01*
X52816164Y-47758739D01*
X52816317Y-47758653D01*
X52847072Y-47741368D01*
X52876942Y-47724647D01*
X52902711Y-47710288D01*
X52921161Y-47700086D01*
X52922593Y-47699302D01*
X52940227Y-47689575D01*
X52965453Y-47675551D01*
X52994972Y-47659070D01*
X53025482Y-47641970D01*
X53026957Y-47641142D01*
X53058503Y-47623467D01*
X53090262Y-47605752D01*
X53118526Y-47590060D01*
X53139485Y-47578511D01*
X53150651Y-47572345D01*
X53171899Y-47560555D01*
X53202393Y-47543606D01*
X53241297Y-47521965D01*
X53287773Y-47496096D01*
X53340986Y-47466466D01*
X53400097Y-47433541D01*
X53464271Y-47397786D01*
X53532671Y-47359668D01*
X53604460Y-47319653D01*
X53678801Y-47278205D01*
X53688407Y-47272850D01*
X53762411Y-47231592D01*
X53833546Y-47191946D01*
X53901022Y-47154354D01*
X53964048Y-47119253D01*
X54021833Y-47087085D01*
X54073587Y-47058288D01*
X54118520Y-47033304D01*
X54155840Y-47012571D01*
X54184758Y-46996529D01*
X54204482Y-46985619D01*
X54214223Y-46980280D01*
X54214862Y-46979941D01*
X54237275Y-46968039D01*
X54267531Y-46951590D01*
X54304567Y-46931196D01*
X54347321Y-46907462D01*
X54394728Y-46880990D01*
X54445728Y-46852385D01*
X54499255Y-46822250D01*
X54554249Y-46791189D01*
X54609645Y-46759806D01*
X54664381Y-46728704D01*
X54717394Y-46698486D01*
X54767621Y-46669757D01*
X54813999Y-46643121D01*
X54855465Y-46619180D01*
X54890957Y-46598538D01*
X54919410Y-46581800D01*
X54939763Y-46569568D01*
X54950953Y-46562447D01*
X54952812Y-46560847D01*
X54946258Y-46557453D01*
X54929424Y-46549618D01*
X54903504Y-46537872D01*
X54869690Y-46522749D01*
X54829175Y-46504780D01*
X54783150Y-46484495D01*
X54732808Y-46462427D01*
X54698030Y-46447246D01*
X54619528Y-46413032D01*
X54533990Y-46375750D01*
X54442197Y-46335740D01*
X54344926Y-46293341D01*
X54242957Y-46248892D01*
X54137066Y-46202733D01*
X54028034Y-46155203D01*
X53916638Y-46106641D01*
X53803657Y-46057388D01*
X53689870Y-46007782D01*
X53576055Y-45958163D01*
X53462990Y-45908870D01*
X53351454Y-45860242D01*
X53242226Y-45812620D01*
X53136084Y-45766342D01*
X53033806Y-45721748D01*
X52936172Y-45679177D01*
X52843959Y-45638969D01*
X52757946Y-45601463D01*
X52678911Y-45566999D01*
X52607634Y-45535915D01*
X52544892Y-45508552D01*
X52491464Y-45485249D01*
X52448129Y-45466344D01*
X52422470Y-45455149D01*
X52378822Y-45436104D01*
X52324916Y-45412589D01*
X52261956Y-45385129D01*
X52191146Y-45354249D01*
X52113691Y-45320474D01*
X52030794Y-45284328D01*
X51943659Y-45246338D01*
X51853491Y-45207027D01*
X51761494Y-45166921D01*
X51668871Y-45126544D01*
X51576826Y-45086423D01*
X51519123Y-45061271D01*
X51434293Y-45024294D01*
X51352345Y-44988565D01*
X51274047Y-44954421D01*
X51200167Y-44922196D01*
X51131473Y-44892226D01*
X51068733Y-44864846D01*
X51012715Y-44840391D01*
X50964187Y-44819196D01*
X50923918Y-44801597D01*
X50892674Y-44787930D01*
X50871225Y-44778528D01*
X50860338Y-44773728D01*
X50859586Y-44773390D01*
X50849825Y-44769072D01*
X50829570Y-44760193D01*
X50799795Y-44747177D01*
X50761473Y-44730449D01*
X50715576Y-44710432D01*
X50663078Y-44687550D01*
X50604951Y-44662229D01*
X50542168Y-44634891D01*
X50475703Y-44605962D01*
X50417267Y-44580537D01*
X49999954Y-44398999D01*
X49001294Y-44833959D01*
X48894789Y-44880350D01*
X48791158Y-44925495D01*
X48691002Y-44969134D01*
X48594922Y-45011002D01*
X48503519Y-45050840D01*
X48417394Y-45088384D01*
X48337147Y-45123372D01*
X48263379Y-45155543D01*
X48196692Y-45184634D01*
X48137687Y-45210383D01*
X48086964Y-45232528D01*
X48045124Y-45250808D01*
X48012768Y-45264959D01*
X47990497Y-45274720D01*
X47978912Y-45279829D01*
X47977627Y-45280407D01*
X47969741Y-45283897D01*
X47950887Y-45292165D01*
X47921559Y-45304998D01*
X47882248Y-45322181D01*
X47833449Y-45343497D01*
X47775656Y-45368731D01*
X47709361Y-45397669D01*
X47635059Y-45430094D01*
X47553242Y-45465793D01*
X47464404Y-45504548D01*
X47369039Y-45546146D01*
X47267640Y-45590371D01*
X47160700Y-45637007D01*
X47048714Y-45685839D01*
X46932174Y-45736653D01*
X46811573Y-45789232D01*
X46687407Y-45843361D01*
X46560167Y-45898826D01*
X46502264Y-45924065D01*
X46374076Y-45979948D01*
X46248886Y-46034544D01*
X46127176Y-46087641D01*
X46009432Y-46139028D01*
X45896137Y-46188492D01*
X45787778Y-46235821D01*
X45684837Y-46280803D01*
X45587799Y-46323226D01*
X45497149Y-46362878D01*
X45413372Y-46399547D01*
X45336952Y-46433022D01*
X45268372Y-46463089D01*
X45208119Y-46489537D01*
X45156676Y-46512155D01*
X45114528Y-46530729D01*
X45082158Y-46545048D01*
X45060053Y-46554901D01*
X45048695Y-46560074D01*
X45047206Y-46560831D01*
X44905790Y-46560831D01*
X44906361Y-46550036D01*
X44910897Y-46535234D01*
X44916715Y-46527979D01*
X44923416Y-46524591D01*
X44941138Y-46516444D01*
X44969433Y-46503731D01*
X45007854Y-46486645D01*
X45055954Y-46465381D01*
X45113287Y-46440133D01*
X45179404Y-46411095D01*
X45253859Y-46378459D01*
X45336206Y-46342421D01*
X45425996Y-46303175D01*
X45522783Y-46260913D01*
X45626119Y-46215830D01*
X45735558Y-46168120D01*
X45850653Y-46117976D01*
X45970956Y-46065593D01*
X46096020Y-46011164D01*
X46225399Y-45954884D01*
X46358645Y-45896945D01*
X46495311Y-45837543D01*
X46634950Y-45776870D01*
X46777115Y-45715122D01*
X46921359Y-45652491D01*
X47067235Y-45589171D01*
X47214296Y-45525357D01*
X47362094Y-45461242D01*
X47510183Y-45397020D01*
X47658116Y-45332885D01*
X47805445Y-45269031D01*
X47951724Y-45205651D01*
X48096505Y-45142941D01*
X48239341Y-45081092D01*
X48379785Y-45020300D01*
X48517391Y-44960759D01*
X48651710Y-44902661D01*
X48782297Y-44846202D01*
X48908703Y-44791574D01*
X49030483Y-44738972D01*
X49147188Y-44688590D01*
X49258372Y-44640621D01*
X49363587Y-44595259D01*
X49462387Y-44552699D01*
X49554324Y-44513133D01*
X49638952Y-44476757D01*
X49715823Y-44443764D01*
X49784491Y-44414347D01*
X49844507Y-44388701D01*
X49895426Y-44367019D01*
X49936800Y-44349496D01*
X49968181Y-44336325D01*
X49989124Y-44327700D01*
X49999180Y-44323815D01*
X49999999Y-44323602D01*
X50006789Y-44326065D01*
G37*
%TD*%
%LPC*%
D11*
%TO.C,J8*%
X57040000Y-64500000D03*
D12*
X54500000Y-64500000D03*
X51960000Y-64500000D03*
%TD*%
D11*
%TO.C,J4*%
X64500000Y-42960000D03*
D12*
X64500000Y-45500000D03*
X64500000Y-48040000D03*
%TD*%
D11*
%TO.C,J1*%
X29500000Y-42960000D03*
D12*
X29500000Y-45500000D03*
X29500000Y-48040000D03*
%TD*%
D11*
%TO.C,J5*%
X57040000Y-29500000D03*
D12*
X54500000Y-29500000D03*
X51960000Y-29500000D03*
%TD*%
D11*
%TO.C,J3*%
X70500000Y-57040000D03*
D12*
X70500000Y-54500000D03*
X70500000Y-51960000D03*
%TD*%
D11*
%TO.C,J7*%
X42960000Y-70500000D03*
D12*
X45500000Y-70500000D03*
X48040000Y-70500000D03*
%TD*%
D11*
%TO.C,J2*%
X35500000Y-57040000D03*
D12*
X35500000Y-54500000D03*
X35500000Y-51960000D03*
%TD*%
D11*
%TO.C,J6*%
X42960000Y-35500000D03*
D12*
X45500000Y-35500000D03*
X48040000Y-35500000D03*
%TD*%
%LPD*%
M02*
