%TF.GenerationSoftware,KiCad,Pcbnew,10.0.3*%
%TF.CreationDate,2026-05-25T20:12:56+09:00*%
%TF.ProjectId,rs_dust_4way,72735f64-7573-4745-9f34-7761792e6b69,rev?*%
%TF.SameCoordinates,Original*%
%TF.FileFunction,Copper,L1,Top*%
%TF.FilePolarity,Positive*%
%FSLAX46Y46*%
G04 Gerber Fmt 4.6, Leading zero omitted, Abs format (unit mm)*
G04 Created by KiCad (PCBNEW 10.0.3) date 2026-05-25 20:12:56*
%MOMM*%
%LPD*%
G01*
G04 APERTURE LIST*
%TA.AperFunction,ComponentPad*%
%ADD10R,1.700000X1.700000*%
%TD*%
%TA.AperFunction,ComponentPad*%
%ADD11C,1.700000*%
%TD*%
%TA.AperFunction,Conductor*%
%ADD12C,0.500000*%
%TD*%
G04 APERTURE END LIST*
D10*
%TO.P,J8,1,Pin_1_1*%
%TO.N,GND*%
X57040000Y-64500000D03*
D11*
%TO.P,J8,2,Pin_2_2*%
%TO.N,/SIG*%
X54500000Y-64500000D03*
%TO.P,J8,3,Pin_3_3*%
%TO.N,+5V*%
X51960000Y-64500000D03*
%TD*%
D10*
%TO.P,J4,1,Pin_1_1*%
%TO.N,GND*%
X64500000Y-42960000D03*
D11*
%TO.P,J4,2,Pin_2_2*%
%TO.N,/SIG*%
X64500000Y-45500000D03*
%TO.P,J4,3,Pin_3_3*%
%TO.N,+5V*%
X64500000Y-48040000D03*
%TD*%
D10*
%TO.P,J1,1,Pin_1_1*%
%TO.N,GND*%
X29500000Y-42960000D03*
D11*
%TO.P,J1,2,Pin_2_2*%
%TO.N,/SIG*%
X29500000Y-45500000D03*
%TO.P,J1,3,Pin_3_3*%
%TO.N,+5V*%
X29500000Y-48040000D03*
%TD*%
D10*
%TO.P,J5,1,Pin_1_1*%
%TO.N,GND*%
X57040000Y-29500000D03*
D11*
%TO.P,J5,2,Pin_2_2*%
%TO.N,/SIG*%
X54500000Y-29500000D03*
%TO.P,J5,3,Pin_3_3*%
%TO.N,+5V*%
X51960000Y-29500000D03*
%TD*%
D10*
%TO.P,J3,1,Pin_1_1*%
%TO.N,GND*%
X70500000Y-57040000D03*
D11*
%TO.P,J3,2,Pin_2_2*%
%TO.N,/SIG*%
X70500000Y-54500000D03*
%TO.P,J3,3,Pin_3_3*%
%TO.N,+5V*%
X70500000Y-51960000D03*
%TD*%
D10*
%TO.P,J7,1,Pin_1_1*%
%TO.N,GND*%
X42960000Y-70500000D03*
D11*
%TO.P,J7,2,Pin_2_2*%
%TO.N,/SIG*%
X45500000Y-70500000D03*
%TO.P,J7,3,Pin_3_3*%
%TO.N,+5V*%
X48040000Y-70500000D03*
%TD*%
D10*
%TO.P,J2,1,Pin_1_1*%
%TO.N,GND*%
X35500000Y-57040000D03*
D11*
%TO.P,J2,2,Pin_2_2*%
%TO.N,/SIG*%
X35500000Y-54500000D03*
%TO.P,J2,3,Pin_3_3*%
%TO.N,+5V*%
X35500000Y-51960000D03*
%TD*%
D10*
%TO.P,J6,1,Pin_1_1*%
%TO.N,GND*%
X42960000Y-35500000D03*
D11*
%TO.P,J6,2,Pin_2_2*%
%TO.N,/SIG*%
X45500000Y-35500000D03*
%TO.P,J6,3,Pin_3_3*%
%TO.N,+5V*%
X48040000Y-35500000D03*
%TD*%
%TO.N,GND*%
D12*
X57040000Y-29500000D02*
X55740000Y-28200000D01*
X50260000Y-28200000D02*
X42960000Y-35500000D01*
X64500000Y-42960000D02*
X59899340Y-42960000D01*
X50260000Y-63200000D02*
X42960000Y-70500000D01*
X55740000Y-28200000D02*
X50260000Y-28200000D01*
X59899340Y-57040000D02*
X70500000Y-57040000D01*
X36800000Y-50260000D02*
X29500000Y-42960000D01*
X57040000Y-40100660D02*
X57040000Y-29500000D01*
X40100660Y-42960000D02*
X29500000Y-42960000D01*
X71800000Y-55740000D02*
X71800000Y-50260000D01*
X57040000Y-64500000D02*
X57040000Y-59899340D01*
X36800000Y-55740000D02*
X36800000Y-50260000D01*
X35500000Y-57040000D02*
X36800000Y-55740000D01*
X42960000Y-35500000D02*
X42960000Y-40100660D01*
X55740000Y-63200000D02*
X50260000Y-63200000D01*
X42960000Y-40100660D02*
X40100660Y-42960000D01*
X59899340Y-42960000D02*
X57040000Y-40100660D01*
X70500000Y-57040000D02*
X71800000Y-55740000D01*
X57040000Y-64500000D02*
X55740000Y-63200000D01*
X71800000Y-50260000D02*
X64500000Y-42960000D01*
X57040000Y-59899340D02*
X59899340Y-57040000D01*
%TO.N,/SIG*%
X54500000Y-65878478D02*
X48578478Y-71800000D01*
X35500000Y-54500000D02*
X34121522Y-54500000D01*
X70500000Y-54500000D02*
X69121522Y-54500000D01*
X54500000Y-64500000D02*
X54500000Y-65878478D01*
X34121522Y-54500000D02*
X28200000Y-48578478D01*
X46800000Y-71800000D02*
X45500000Y-70500000D01*
X54500000Y-29500000D02*
X54500000Y-30878478D01*
X63200000Y-46800000D02*
X64500000Y-45500000D01*
X48578478Y-36800000D02*
X46800000Y-36800000D01*
X48578478Y-71800000D02*
X46800000Y-71800000D01*
X54500000Y-30878478D02*
X48578478Y-36800000D01*
X28200000Y-46800000D02*
X29500000Y-45500000D01*
X69121522Y-54500000D02*
X63200000Y-48578478D01*
X28200000Y-48578478D02*
X28200000Y-46800000D01*
X63200000Y-48578478D02*
X63200000Y-46800000D01*
X46800000Y-36800000D02*
X45500000Y-35500000D01*
%TO.N,+5V*%
X66580000Y-48040000D02*
X64500000Y-48040000D01*
X51960000Y-64500000D02*
X48040000Y-68420000D01*
X70500000Y-51960000D02*
X66580000Y-48040000D01*
X35500000Y-51960000D02*
X31580000Y-48040000D01*
X48040000Y-68420000D02*
X48040000Y-70500000D01*
X48040000Y-33420000D02*
X48040000Y-35500000D01*
X51960000Y-29500000D02*
X48040000Y-33420000D01*
X31580000Y-48040000D02*
X29500000Y-48040000D01*
%TD*%
%TA.AperFunction,Conductor*%
%TO.N,GND*%
G36*
X57290000Y-65850000D02*
G01*
X57937828Y-65850000D01*
X57937844Y-65849999D01*
X57997372Y-65843598D01*
X57997379Y-65843596D01*
X58132086Y-65793354D01*
X58132093Y-65793350D01*
X58247186Y-65707191D01*
X58276233Y-65668390D01*
X58332167Y-65626519D01*
X58401858Y-65621535D01*
X58463181Y-65655020D01*
X58496666Y-65716343D01*
X58499500Y-65742701D01*
X58499500Y-74375500D01*
X58479815Y-74442539D01*
X58427011Y-74488294D01*
X58375500Y-74499500D01*
X41624500Y-74499500D01*
X41557461Y-74479815D01*
X41511706Y-74427011D01*
X41500500Y-74375500D01*
X41500500Y-71742701D01*
X41520185Y-71675662D01*
X41572989Y-71629907D01*
X41642147Y-71619963D01*
X41705703Y-71648988D01*
X41723767Y-71668390D01*
X41752813Y-71707191D01*
X41867906Y-71793350D01*
X41867913Y-71793354D01*
X42002620Y-71843596D01*
X42002627Y-71843598D01*
X42062155Y-71849999D01*
X42062172Y-71850000D01*
X42710000Y-71850000D01*
X42710000Y-70933012D01*
X42767007Y-70965925D01*
X42894174Y-71000000D01*
X43025826Y-71000000D01*
X43152993Y-70965925D01*
X43210000Y-70933012D01*
X43210000Y-71850000D01*
X43857828Y-71850000D01*
X43857844Y-71849999D01*
X43917372Y-71843598D01*
X43917379Y-71843596D01*
X44052086Y-71793354D01*
X44052093Y-71793350D01*
X44167187Y-71707190D01*
X44167190Y-71707187D01*
X44253350Y-71592093D01*
X44253354Y-71592086D01*
X44302422Y-71460529D01*
X44344293Y-71404595D01*
X44409757Y-71380178D01*
X44478030Y-71395030D01*
X44506285Y-71416181D01*
X44620213Y-71530109D01*
X44792179Y-71655048D01*
X44792181Y-71655049D01*
X44792184Y-71655051D01*
X44981588Y-71751557D01*
X45183757Y-71817246D01*
X45393713Y-71850500D01*
X45393714Y-71850500D01*
X45606284Y-71850500D01*
X45606287Y-71850500D01*
X45701731Y-71835382D01*
X45771020Y-71844336D01*
X45808807Y-71870174D01*
X46217049Y-72278416D01*
X46321584Y-72382951D01*
X46321587Y-72382953D01*
X46321588Y-72382954D01*
X46444503Y-72465083D01*
X46444506Y-72465085D01*
X46494665Y-72485861D01*
X46501080Y-72488518D01*
X46581088Y-72521659D01*
X46697241Y-72544763D01*
X46720380Y-72549365D01*
X46726081Y-72550500D01*
X46726082Y-72550500D01*
X48652398Y-72550500D01*
X48749940Y-72531096D01*
X48797391Y-72521658D01*
X48933973Y-72465084D01*
X48983207Y-72432186D01*
X49056894Y-72382952D01*
X55082952Y-66356894D01*
X55132186Y-66283207D01*
X55165084Y-66233973D01*
X55188518Y-66177398D01*
X55221659Y-66097390D01*
X55250500Y-65952395D01*
X55250500Y-65804560D01*
X55250500Y-65687220D01*
X55270185Y-65620181D01*
X55301614Y-65586902D01*
X55379792Y-65530104D01*
X55493717Y-65416178D01*
X55555036Y-65382696D01*
X55624728Y-65387680D01*
X55680662Y-65429551D01*
X55697577Y-65460528D01*
X55746646Y-65592088D01*
X55746649Y-65592093D01*
X55832809Y-65707187D01*
X55832812Y-65707190D01*
X55947906Y-65793350D01*
X55947913Y-65793354D01*
X56082620Y-65843596D01*
X56082627Y-65843598D01*
X56142155Y-65849999D01*
X56142172Y-65850000D01*
X56790000Y-65850000D01*
X56790000Y-64933012D01*
X56847007Y-64965925D01*
X56974174Y-65000000D01*
X57105826Y-65000000D01*
X57232993Y-64965925D01*
X57290000Y-64933012D01*
X57290000Y-65850000D01*
G37*
%TD.AperFunction*%
%TA.AperFunction,Conductor*%
G36*
X57290000Y-30850000D02*
G01*
X57937828Y-30850000D01*
X57937844Y-30849999D01*
X57997372Y-30843598D01*
X57997379Y-30843596D01*
X58132086Y-30793354D01*
X58132093Y-30793350D01*
X58247186Y-30707191D01*
X58276233Y-30668390D01*
X58332167Y-30626519D01*
X58401858Y-30621535D01*
X58463181Y-30655020D01*
X58496666Y-30716343D01*
X58499500Y-30742701D01*
X58499500Y-41065891D01*
X58533608Y-41193187D01*
X58566554Y-41250250D01*
X58599500Y-41307314D01*
X58692686Y-41400500D01*
X58806814Y-41466392D01*
X58934108Y-41500500D01*
X63257298Y-41500500D01*
X63324337Y-41520185D01*
X63370092Y-41572989D01*
X63380036Y-41642147D01*
X63351011Y-41705703D01*
X63331610Y-41723766D01*
X63292809Y-41752812D01*
X63206649Y-41867906D01*
X63206645Y-41867913D01*
X63156403Y-42002620D01*
X63156401Y-42002627D01*
X63150000Y-42062155D01*
X63150000Y-42710000D01*
X64066988Y-42710000D01*
X64034075Y-42767007D01*
X64000000Y-42894174D01*
X64000000Y-43025826D01*
X64034075Y-43152993D01*
X64066988Y-43210000D01*
X63150000Y-43210000D01*
X63150000Y-43857844D01*
X63156401Y-43917372D01*
X63156403Y-43917379D01*
X63206645Y-44052086D01*
X63206649Y-44052093D01*
X63292809Y-44167187D01*
X63292812Y-44167190D01*
X63407906Y-44253350D01*
X63407913Y-44253354D01*
X63539470Y-44302422D01*
X63595404Y-44344293D01*
X63619821Y-44409758D01*
X63604969Y-44478031D01*
X63583819Y-44506285D01*
X63469889Y-44620215D01*
X63344951Y-44792179D01*
X63248444Y-44981585D01*
X63182753Y-45183760D01*
X63149500Y-45393713D01*
X63149500Y-45606292D01*
X63164616Y-45701728D01*
X63155662Y-45771021D01*
X63129824Y-45808807D01*
X62617045Y-46321586D01*
X62578160Y-46379786D01*
X62578156Y-46379792D01*
X62556536Y-46412148D01*
X62534916Y-46444504D01*
X62534912Y-46444511D01*
X62478343Y-46581082D01*
X62478340Y-46581092D01*
X62449500Y-46726079D01*
X62449500Y-46726082D01*
X62449500Y-48652396D01*
X62449500Y-48652398D01*
X62449499Y-48652398D01*
X62478340Y-48797385D01*
X62478343Y-48797395D01*
X62534914Y-48933970D01*
X62567812Y-48983205D01*
X62567813Y-48983208D01*
X62617046Y-49056892D01*
X62617052Y-49056899D01*
X68643106Y-55082952D01*
X68643108Y-55082954D01*
X68665944Y-55098211D01*
X68716792Y-55132186D01*
X68766027Y-55165084D01*
X68822602Y-55188518D01*
X68902610Y-55221659D01*
X69018763Y-55244763D01*
X69037990Y-55248587D01*
X69047603Y-55250500D01*
X69047604Y-55250500D01*
X69047605Y-55250500D01*
X69195440Y-55250500D01*
X69312779Y-55250500D01*
X69379818Y-55270185D01*
X69413097Y-55301615D01*
X69469892Y-55379788D01*
X69583818Y-55493714D01*
X69617303Y-55555037D01*
X69612319Y-55624729D01*
X69570447Y-55680662D01*
X69539471Y-55697577D01*
X69407912Y-55746646D01*
X69407906Y-55746649D01*
X69292812Y-55832809D01*
X69292809Y-55832812D01*
X69206649Y-55947906D01*
X69206645Y-55947913D01*
X69156403Y-56082620D01*
X69156401Y-56082627D01*
X69150000Y-56142155D01*
X69150000Y-56790000D01*
X70066988Y-56790000D01*
X70034075Y-56847007D01*
X70000000Y-56974174D01*
X70000000Y-57105826D01*
X70034075Y-57232993D01*
X70066988Y-57290000D01*
X69150000Y-57290000D01*
X69150000Y-57937844D01*
X69156401Y-57997372D01*
X69156403Y-57997379D01*
X69206645Y-58132086D01*
X69206649Y-58132093D01*
X69292809Y-58247187D01*
X69331610Y-58276234D01*
X69373480Y-58332168D01*
X69378464Y-58401860D01*
X69344978Y-58463182D01*
X69283655Y-58496667D01*
X69257298Y-58499500D01*
X58934108Y-58499500D01*
X58806812Y-58533608D01*
X58692686Y-58599500D01*
X58692683Y-58599502D01*
X58599502Y-58692683D01*
X58599500Y-58692686D01*
X58533608Y-58806812D01*
X58499500Y-58934108D01*
X58499500Y-63257298D01*
X58479815Y-63324337D01*
X58427011Y-63370092D01*
X58357853Y-63380036D01*
X58294297Y-63351011D01*
X58276234Y-63331610D01*
X58247187Y-63292809D01*
X58132093Y-63206649D01*
X58132086Y-63206645D01*
X57997379Y-63156403D01*
X57997372Y-63156401D01*
X57937844Y-63150000D01*
X57290000Y-63150000D01*
X57290000Y-64066988D01*
X57232993Y-64034075D01*
X57105826Y-64000000D01*
X56974174Y-64000000D01*
X56847007Y-64034075D01*
X56790000Y-64066988D01*
X56790000Y-63150000D01*
X56142155Y-63150000D01*
X56082627Y-63156401D01*
X56082620Y-63156403D01*
X55947913Y-63206645D01*
X55947906Y-63206649D01*
X55832812Y-63292809D01*
X55832809Y-63292812D01*
X55746649Y-63407906D01*
X55746646Y-63407912D01*
X55697577Y-63539471D01*
X55655705Y-63595404D01*
X55590241Y-63619821D01*
X55521968Y-63604969D01*
X55493714Y-63583818D01*
X55379786Y-63469890D01*
X55207820Y-63344951D01*
X55018414Y-63248444D01*
X55018413Y-63248443D01*
X55018412Y-63248443D01*
X54816243Y-63182754D01*
X54816241Y-63182753D01*
X54816240Y-63182753D01*
X54654957Y-63157208D01*
X54606287Y-63149500D01*
X54393713Y-63149500D01*
X54345042Y-63157208D01*
X54183760Y-63182753D01*
X53981585Y-63248444D01*
X53792179Y-63344951D01*
X53620213Y-63469890D01*
X53469890Y-63620213D01*
X53344949Y-63792182D01*
X53340484Y-63800946D01*
X53292509Y-63851742D01*
X53224688Y-63868536D01*
X53158553Y-63845998D01*
X53119516Y-63800946D01*
X53115050Y-63792182D01*
X52990109Y-63620213D01*
X52839786Y-63469890D01*
X52667820Y-63344951D01*
X52478414Y-63248444D01*
X52478413Y-63248443D01*
X52478412Y-63248443D01*
X52276243Y-63182754D01*
X52276241Y-63182753D01*
X52276240Y-63182753D01*
X52114957Y-63157208D01*
X52066287Y-63149500D01*
X51853713Y-63149500D01*
X51805042Y-63157208D01*
X51643760Y-63182753D01*
X51441585Y-63248444D01*
X51252179Y-63344951D01*
X51080213Y-63469890D01*
X50929890Y-63620213D01*
X50804951Y-63792179D01*
X50708444Y-63981585D01*
X50642753Y-64183760D01*
X50609500Y-64393713D01*
X50609500Y-64606292D01*
X50624616Y-64701728D01*
X50615662Y-64771021D01*
X50589824Y-64808807D01*
X47457050Y-67941580D01*
X47457044Y-67941588D01*
X47407812Y-68015268D01*
X47407813Y-68015269D01*
X47374921Y-68064496D01*
X47374914Y-68064508D01*
X47318342Y-68201086D01*
X47318340Y-68201092D01*
X47289500Y-68346079D01*
X47289500Y-69312779D01*
X47269815Y-69379818D01*
X47238385Y-69413097D01*
X47160211Y-69469893D01*
X47160205Y-69469898D01*
X47009890Y-69620213D01*
X46884949Y-69792182D01*
X46880484Y-69800946D01*
X46832509Y-69851742D01*
X46764688Y-69868536D01*
X46698553Y-69845998D01*
X46659516Y-69800946D01*
X46655050Y-69792182D01*
X46530109Y-69620213D01*
X46379786Y-69469890D01*
X46207820Y-69344951D01*
X46018414Y-69248444D01*
X46018413Y-69248443D01*
X46018412Y-69248443D01*
X45816243Y-69182754D01*
X45816241Y-69182753D01*
X45816240Y-69182753D01*
X45654957Y-69157208D01*
X45606287Y-69149500D01*
X45393713Y-69149500D01*
X45345042Y-69157208D01*
X45183760Y-69182753D01*
X44981585Y-69248444D01*
X44792179Y-69344951D01*
X44620215Y-69469889D01*
X44506285Y-69583819D01*
X44444962Y-69617303D01*
X44375270Y-69612319D01*
X44319337Y-69570447D01*
X44302422Y-69539470D01*
X44253354Y-69407913D01*
X44253350Y-69407906D01*
X44167190Y-69292812D01*
X44167187Y-69292809D01*
X44052093Y-69206649D01*
X44052086Y-69206645D01*
X43917379Y-69156403D01*
X43917372Y-69156401D01*
X43857844Y-69150000D01*
X43210000Y-69150000D01*
X43210000Y-70066988D01*
X43152993Y-70034075D01*
X43025826Y-70000000D01*
X42894174Y-70000000D01*
X42767007Y-70034075D01*
X42710000Y-70066988D01*
X42710000Y-69150000D01*
X42062155Y-69150000D01*
X42002627Y-69156401D01*
X42002620Y-69156403D01*
X41867913Y-69206645D01*
X41867906Y-69206649D01*
X41752812Y-69292809D01*
X41723766Y-69331610D01*
X41667832Y-69373480D01*
X41598140Y-69378464D01*
X41536818Y-69344978D01*
X41503333Y-69283655D01*
X41500500Y-69257298D01*
X41500500Y-58934110D01*
X41500500Y-58934108D01*
X41466392Y-58806814D01*
X41400500Y-58692686D01*
X41307314Y-58599500D01*
X41250250Y-58566554D01*
X41193187Y-58533608D01*
X41129539Y-58516554D01*
X41065892Y-58499500D01*
X41065891Y-58499500D01*
X36742702Y-58499500D01*
X36675663Y-58479815D01*
X36629908Y-58427011D01*
X36619964Y-58357853D01*
X36648989Y-58294297D01*
X36668390Y-58276234D01*
X36707190Y-58247187D01*
X36793350Y-58132093D01*
X36793354Y-58132086D01*
X36843596Y-57997379D01*
X36843598Y-57997372D01*
X36849999Y-57937844D01*
X36850000Y-57937827D01*
X36850000Y-57290000D01*
X35933012Y-57290000D01*
X35965925Y-57232993D01*
X36000000Y-57105826D01*
X36000000Y-56974174D01*
X35965925Y-56847007D01*
X35933012Y-56790000D01*
X36850000Y-56790000D01*
X36850000Y-56142172D01*
X36849999Y-56142155D01*
X36843598Y-56082627D01*
X36843596Y-56082620D01*
X36793354Y-55947913D01*
X36793350Y-55947906D01*
X36707190Y-55832812D01*
X36707187Y-55832809D01*
X36592093Y-55746649D01*
X36592088Y-55746646D01*
X36460528Y-55697577D01*
X36404595Y-55655705D01*
X36380178Y-55590241D01*
X36395030Y-55521968D01*
X36416175Y-55493720D01*
X36530104Y-55379792D01*
X36655051Y-55207816D01*
X36751557Y-55018412D01*
X36817246Y-54816243D01*
X36850500Y-54606287D01*
X36850500Y-54393713D01*
X36817246Y-54183757D01*
X36751557Y-53981588D01*
X36655051Y-53792184D01*
X36655049Y-53792181D01*
X36655048Y-53792179D01*
X36530109Y-53620213D01*
X36379786Y-53469890D01*
X36207820Y-53344951D01*
X36207115Y-53344591D01*
X36199054Y-53340485D01*
X36148259Y-53292512D01*
X36131463Y-53224692D01*
X36153999Y-53158556D01*
X36199054Y-53119515D01*
X36207816Y-53115051D01*
X36229789Y-53099086D01*
X36379786Y-52990109D01*
X36379788Y-52990106D01*
X36379792Y-52990104D01*
X36530104Y-52839792D01*
X36530106Y-52839788D01*
X36530109Y-52839786D01*
X36655048Y-52667820D01*
X36655047Y-52667820D01*
X36655051Y-52667816D01*
X36751557Y-52478412D01*
X36817246Y-52276243D01*
X36850500Y-52066287D01*
X36850500Y-51853713D01*
X36817246Y-51643757D01*
X36751557Y-51441588D01*
X36655051Y-51252184D01*
X36655049Y-51252181D01*
X36655048Y-51252179D01*
X36530109Y-51080213D01*
X36379786Y-50929890D01*
X36207820Y-50804951D01*
X36018414Y-50708444D01*
X36018413Y-50708443D01*
X36018412Y-50708443D01*
X35816243Y-50642754D01*
X35816241Y-50642753D01*
X35816240Y-50642753D01*
X35645192Y-50615662D01*
X35606287Y-50609500D01*
X35393713Y-50609500D01*
X35393708Y-50609500D01*
X35298270Y-50624616D01*
X35228977Y-50615662D01*
X35191191Y-50589824D01*
X32058415Y-47457047D01*
X32058413Y-47457045D01*
X32009179Y-47424150D01*
X31976355Y-47402218D01*
X31935495Y-47374916D01*
X31935494Y-47374915D01*
X31935492Y-47374914D01*
X31935490Y-47374913D01*
X31798917Y-47318343D01*
X31798907Y-47318340D01*
X31653920Y-47289500D01*
X31653918Y-47289500D01*
X30687221Y-47289500D01*
X30620182Y-47269815D01*
X30586903Y-47238385D01*
X30530107Y-47160211D01*
X30379786Y-47009890D01*
X30207820Y-46884951D01*
X30207115Y-46884591D01*
X30199054Y-46880485D01*
X30195468Y-46877098D01*
X30190706Y-46875817D01*
X30170321Y-46853348D01*
X30148259Y-46832512D01*
X30147072Y-46827722D01*
X30143759Y-46824070D01*
X30138757Y-46794147D01*
X30131463Y-46764692D01*
X30133054Y-46760022D01*
X30132241Y-46755157D01*
X30144210Y-46727282D01*
X30153999Y-46698556D01*
X30158396Y-46694245D01*
X30159809Y-46690956D01*
X30170451Y-46682429D01*
X30185948Y-46667241D01*
X30192264Y-46662974D01*
X30207816Y-46655051D01*
X30379792Y-46530104D01*
X30530104Y-46379792D01*
X30530104Y-46379791D01*
X30530107Y-46379789D01*
X30530109Y-46379786D01*
X30655048Y-46207820D01*
X30655047Y-46207820D01*
X30655051Y-46207816D01*
X30751557Y-46018412D01*
X30817246Y-45816243D01*
X30850500Y-45606287D01*
X30850500Y-45393713D01*
X30817246Y-45183757D01*
X30751557Y-44981588D01*
X30655051Y-44792184D01*
X30655049Y-44792181D01*
X30655048Y-44792179D01*
X30530109Y-44620213D01*
X30416181Y-44506285D01*
X30382696Y-44444962D01*
X30387680Y-44375270D01*
X30429552Y-44319337D01*
X30460529Y-44302422D01*
X30592086Y-44253354D01*
X30592093Y-44253350D01*
X30707187Y-44167190D01*
X30707190Y-44167187D01*
X30793350Y-44052093D01*
X30793354Y-44052086D01*
X30843596Y-43917379D01*
X30843598Y-43917372D01*
X30849999Y-43857844D01*
X30850000Y-43857827D01*
X30850000Y-43210000D01*
X29933012Y-43210000D01*
X29965925Y-43152993D01*
X30000000Y-43025826D01*
X30000000Y-42894174D01*
X29965925Y-42767007D01*
X29933012Y-42710000D01*
X30850000Y-42710000D01*
X30850000Y-42062172D01*
X30849999Y-42062155D01*
X30843598Y-42002627D01*
X30843596Y-42002620D01*
X30793354Y-41867913D01*
X30793350Y-41867906D01*
X30707190Y-41752812D01*
X30668390Y-41723766D01*
X30626520Y-41667832D01*
X30621536Y-41598140D01*
X30655022Y-41536818D01*
X30716345Y-41503333D01*
X30742702Y-41500500D01*
X41065890Y-41500500D01*
X41065892Y-41500500D01*
X41193186Y-41466392D01*
X41307314Y-41400500D01*
X41400500Y-41307314D01*
X41466392Y-41193186D01*
X41500500Y-41065892D01*
X41500500Y-36742701D01*
X41520185Y-36675662D01*
X41572989Y-36629907D01*
X41642147Y-36619963D01*
X41705703Y-36648988D01*
X41723767Y-36668390D01*
X41752813Y-36707191D01*
X41867906Y-36793350D01*
X41867913Y-36793354D01*
X42002620Y-36843596D01*
X42002627Y-36843598D01*
X42062155Y-36849999D01*
X42062172Y-36850000D01*
X42710000Y-36850000D01*
X42710000Y-35933012D01*
X42767007Y-35965925D01*
X42894174Y-36000000D01*
X43025826Y-36000000D01*
X43152993Y-35965925D01*
X43210000Y-35933012D01*
X43210000Y-36850000D01*
X43857828Y-36850000D01*
X43857844Y-36849999D01*
X43917372Y-36843598D01*
X43917379Y-36843596D01*
X44052086Y-36793354D01*
X44052093Y-36793350D01*
X44167187Y-36707190D01*
X44167190Y-36707187D01*
X44253350Y-36592093D01*
X44253354Y-36592086D01*
X44302422Y-36460529D01*
X44344293Y-36404595D01*
X44409757Y-36380178D01*
X44478030Y-36395030D01*
X44506285Y-36416181D01*
X44620213Y-36530109D01*
X44792179Y-36655048D01*
X44792181Y-36655049D01*
X44792184Y-36655051D01*
X44981588Y-36751557D01*
X45183757Y-36817246D01*
X45393713Y-36850500D01*
X45393714Y-36850500D01*
X45606284Y-36850500D01*
X45606287Y-36850500D01*
X45701731Y-36835382D01*
X45771020Y-36844336D01*
X45808807Y-36870174D01*
X46217049Y-37278416D01*
X46321584Y-37382951D01*
X46321587Y-37382953D01*
X46321588Y-37382954D01*
X46444503Y-37465083D01*
X46444506Y-37465085D01*
X46494665Y-37485861D01*
X46501080Y-37488518D01*
X46581088Y-37521659D01*
X46697241Y-37544763D01*
X46720380Y-37549365D01*
X46726081Y-37550500D01*
X46726082Y-37550500D01*
X48652398Y-37550500D01*
X48749940Y-37531096D01*
X48797391Y-37521658D01*
X48933973Y-37465084D01*
X48983207Y-37432186D01*
X49056894Y-37382952D01*
X55082952Y-31356894D01*
X55132186Y-31283207D01*
X55165084Y-31233973D01*
X55188518Y-31177398D01*
X55221659Y-31097390D01*
X55250500Y-30952395D01*
X55250500Y-30804560D01*
X55250500Y-30687220D01*
X55270185Y-30620181D01*
X55301614Y-30586902D01*
X55379792Y-30530104D01*
X55493717Y-30416178D01*
X55555036Y-30382696D01*
X55624728Y-30387680D01*
X55680662Y-30429551D01*
X55697577Y-30460528D01*
X55746646Y-30592088D01*
X55746649Y-30592093D01*
X55832809Y-30707187D01*
X55832812Y-30707190D01*
X55947906Y-30793350D01*
X55947913Y-30793354D01*
X56082620Y-30843596D01*
X56082627Y-30843598D01*
X56142155Y-30849999D01*
X56142172Y-30850000D01*
X56790000Y-30850000D01*
X56790000Y-29933012D01*
X56847007Y-29965925D01*
X56974174Y-30000000D01*
X57105826Y-30000000D01*
X57232993Y-29965925D01*
X57290000Y-29933012D01*
X57290000Y-30850000D01*
G37*
%TD.AperFunction*%
%TA.AperFunction,Conductor*%
G36*
X28324337Y-41520185D02*
G01*
X28370092Y-41572989D01*
X28380036Y-41642147D01*
X28351011Y-41705703D01*
X28331610Y-41723766D01*
X28292809Y-41752812D01*
X28206649Y-41867906D01*
X28206645Y-41867913D01*
X28156403Y-42002620D01*
X28156401Y-42002627D01*
X28150000Y-42062155D01*
X28150000Y-42710000D01*
X29066988Y-42710000D01*
X29034075Y-42767007D01*
X29000000Y-42894174D01*
X29000000Y-43025826D01*
X29034075Y-43152993D01*
X29066988Y-43210000D01*
X28150000Y-43210000D01*
X28150000Y-43857844D01*
X28156401Y-43917372D01*
X28156403Y-43917379D01*
X28206645Y-44052086D01*
X28206649Y-44052093D01*
X28292809Y-44167187D01*
X28292812Y-44167190D01*
X28407906Y-44253350D01*
X28407913Y-44253354D01*
X28539470Y-44302422D01*
X28595404Y-44344293D01*
X28619821Y-44409758D01*
X28604969Y-44478031D01*
X28583819Y-44506285D01*
X28469889Y-44620215D01*
X28344951Y-44792179D01*
X28248444Y-44981585D01*
X28182753Y-45183760D01*
X28149500Y-45393713D01*
X28149500Y-45606292D01*
X28164616Y-45701728D01*
X28155662Y-45771021D01*
X28129824Y-45808807D01*
X27617045Y-46321586D01*
X27578160Y-46379786D01*
X27578156Y-46379792D01*
X27556536Y-46412148D01*
X27534916Y-46444504D01*
X27534912Y-46444511D01*
X27478343Y-46581082D01*
X27478340Y-46581092D01*
X27449500Y-46726079D01*
X27449500Y-46726082D01*
X27449500Y-48652396D01*
X27449500Y-48652398D01*
X27449499Y-48652398D01*
X27478340Y-48797385D01*
X27478343Y-48797395D01*
X27534914Y-48933970D01*
X27567812Y-48983205D01*
X27567813Y-48983208D01*
X27617046Y-49056892D01*
X27617052Y-49056899D01*
X33643106Y-55082952D01*
X33643108Y-55082954D01*
X33665944Y-55098211D01*
X33716792Y-55132186D01*
X33766027Y-55165084D01*
X33822602Y-55188518D01*
X33902610Y-55221659D01*
X34018763Y-55244763D01*
X34037990Y-55248587D01*
X34047603Y-55250500D01*
X34047604Y-55250500D01*
X34047605Y-55250500D01*
X34195440Y-55250500D01*
X34312779Y-55250500D01*
X34379818Y-55270185D01*
X34413097Y-55301615D01*
X34469892Y-55379788D01*
X34583818Y-55493714D01*
X34617303Y-55555037D01*
X34612319Y-55624729D01*
X34570447Y-55680662D01*
X34539471Y-55697577D01*
X34407912Y-55746646D01*
X34407906Y-55746649D01*
X34292812Y-55832809D01*
X34292809Y-55832812D01*
X34206649Y-55947906D01*
X34206645Y-55947913D01*
X34156403Y-56082620D01*
X34156401Y-56082627D01*
X34150000Y-56142155D01*
X34150000Y-56790000D01*
X35066988Y-56790000D01*
X35034075Y-56847007D01*
X35000000Y-56974174D01*
X35000000Y-57105826D01*
X35034075Y-57232993D01*
X35066988Y-57290000D01*
X34150000Y-57290000D01*
X34150000Y-57937844D01*
X34156401Y-57997372D01*
X34156403Y-57997379D01*
X34206645Y-58132086D01*
X34206649Y-58132093D01*
X34292809Y-58247187D01*
X34331610Y-58276234D01*
X34373480Y-58332168D01*
X34378464Y-58401860D01*
X34344978Y-58463182D01*
X34283655Y-58496667D01*
X34257298Y-58499500D01*
X25624500Y-58499500D01*
X25557461Y-58479815D01*
X25511706Y-58427011D01*
X25500500Y-58375500D01*
X25500500Y-41624500D01*
X25520185Y-41557461D01*
X25572989Y-41511706D01*
X25624500Y-41500500D01*
X28257298Y-41500500D01*
X28324337Y-41520185D01*
G37*
%TD.AperFunction*%
%TA.AperFunction,Conductor*%
G36*
X74442539Y-41520185D02*
G01*
X74488294Y-41572989D01*
X74499500Y-41624500D01*
X74499500Y-58375500D01*
X74479815Y-58442539D01*
X74427011Y-58488294D01*
X74375500Y-58499500D01*
X71742702Y-58499500D01*
X71675663Y-58479815D01*
X71629908Y-58427011D01*
X71619964Y-58357853D01*
X71648989Y-58294297D01*
X71668390Y-58276234D01*
X71707190Y-58247187D01*
X71793350Y-58132093D01*
X71793354Y-58132086D01*
X71843596Y-57997379D01*
X71843598Y-57997372D01*
X71849999Y-57937844D01*
X71850000Y-57937827D01*
X71850000Y-57290000D01*
X70933012Y-57290000D01*
X70965925Y-57232993D01*
X71000000Y-57105826D01*
X71000000Y-56974174D01*
X70965925Y-56847007D01*
X70933012Y-56790000D01*
X71850000Y-56790000D01*
X71850000Y-56142172D01*
X71849999Y-56142155D01*
X71843598Y-56082627D01*
X71843596Y-56082620D01*
X71793354Y-55947913D01*
X71793350Y-55947906D01*
X71707190Y-55832812D01*
X71707187Y-55832809D01*
X71592093Y-55746649D01*
X71592088Y-55746646D01*
X71460528Y-55697577D01*
X71404595Y-55655705D01*
X71380178Y-55590241D01*
X71395030Y-55521968D01*
X71416175Y-55493720D01*
X71530104Y-55379792D01*
X71655051Y-55207816D01*
X71751557Y-55018412D01*
X71817246Y-54816243D01*
X71850500Y-54606287D01*
X71850500Y-54393713D01*
X71817246Y-54183757D01*
X71751557Y-53981588D01*
X71655051Y-53792184D01*
X71655049Y-53792181D01*
X71655048Y-53792179D01*
X71530109Y-53620213D01*
X71379786Y-53469890D01*
X71207820Y-53344951D01*
X71207115Y-53344591D01*
X71199054Y-53340485D01*
X71148259Y-53292512D01*
X71131463Y-53224692D01*
X71153999Y-53158556D01*
X71199054Y-53119515D01*
X71207816Y-53115051D01*
X71229789Y-53099086D01*
X71379786Y-52990109D01*
X71379788Y-52990106D01*
X71379792Y-52990104D01*
X71530104Y-52839792D01*
X71530106Y-52839788D01*
X71530109Y-52839786D01*
X71655048Y-52667820D01*
X71655047Y-52667820D01*
X71655051Y-52667816D01*
X71751557Y-52478412D01*
X71817246Y-52276243D01*
X71850500Y-52066287D01*
X71850500Y-51853713D01*
X71817246Y-51643757D01*
X71751557Y-51441588D01*
X71655051Y-51252184D01*
X71655049Y-51252181D01*
X71655048Y-51252179D01*
X71530109Y-51080213D01*
X71379786Y-50929890D01*
X71207820Y-50804951D01*
X71018414Y-50708444D01*
X71018413Y-50708443D01*
X71018412Y-50708443D01*
X70816243Y-50642754D01*
X70816241Y-50642753D01*
X70816240Y-50642753D01*
X70645192Y-50615662D01*
X70606287Y-50609500D01*
X70393713Y-50609500D01*
X70393708Y-50609500D01*
X70298270Y-50624616D01*
X70228977Y-50615662D01*
X70191191Y-50589824D01*
X67058415Y-47457047D01*
X67058413Y-47457045D01*
X67009179Y-47424150D01*
X66976355Y-47402218D01*
X66935495Y-47374916D01*
X66935494Y-47374915D01*
X66935492Y-47374914D01*
X66935490Y-47374913D01*
X66798917Y-47318343D01*
X66798907Y-47318340D01*
X66653920Y-47289500D01*
X66653918Y-47289500D01*
X65687221Y-47289500D01*
X65620182Y-47269815D01*
X65586903Y-47238385D01*
X65530107Y-47160211D01*
X65379786Y-47009890D01*
X65207820Y-46884951D01*
X65207115Y-46884591D01*
X65199054Y-46880485D01*
X65148259Y-46832512D01*
X65131463Y-46764692D01*
X65153999Y-46698556D01*
X65199054Y-46659515D01*
X65207816Y-46655051D01*
X65309613Y-46581092D01*
X65379786Y-46530109D01*
X65379788Y-46530106D01*
X65379792Y-46530104D01*
X65530104Y-46379792D01*
X65530104Y-46379791D01*
X65530107Y-46379789D01*
X65530109Y-46379786D01*
X65655048Y-46207820D01*
X65655047Y-46207820D01*
X65655051Y-46207816D01*
X65751557Y-46018412D01*
X65817246Y-45816243D01*
X65850500Y-45606287D01*
X65850500Y-45393713D01*
X65817246Y-45183757D01*
X65751557Y-44981588D01*
X65655051Y-44792184D01*
X65655049Y-44792181D01*
X65655048Y-44792179D01*
X65530109Y-44620213D01*
X65416181Y-44506285D01*
X65382696Y-44444962D01*
X65387680Y-44375270D01*
X65429552Y-44319337D01*
X65460529Y-44302422D01*
X65592086Y-44253354D01*
X65592093Y-44253350D01*
X65707187Y-44167190D01*
X65707190Y-44167187D01*
X65793350Y-44052093D01*
X65793354Y-44052086D01*
X65843596Y-43917379D01*
X65843598Y-43917372D01*
X65849999Y-43857844D01*
X65850000Y-43857827D01*
X65850000Y-43210000D01*
X64933012Y-43210000D01*
X64965925Y-43152993D01*
X65000000Y-43025826D01*
X65000000Y-42894174D01*
X64965925Y-42767007D01*
X64933012Y-42710000D01*
X65850000Y-42710000D01*
X65850000Y-42062172D01*
X65849999Y-42062155D01*
X65843598Y-42002627D01*
X65843596Y-42002620D01*
X65793354Y-41867913D01*
X65793350Y-41867906D01*
X65707190Y-41752812D01*
X65668390Y-41723766D01*
X65626520Y-41667832D01*
X65621536Y-41598140D01*
X65655022Y-41536818D01*
X65716345Y-41503333D01*
X65742702Y-41500500D01*
X74375500Y-41500500D01*
X74442539Y-41520185D01*
G37*
%TD.AperFunction*%
%TA.AperFunction,Conductor*%
G36*
X58442539Y-25520185D02*
G01*
X58488294Y-25572989D01*
X58499500Y-25624500D01*
X58499500Y-28257298D01*
X58479815Y-28324337D01*
X58427011Y-28370092D01*
X58357853Y-28380036D01*
X58294297Y-28351011D01*
X58276234Y-28331610D01*
X58247187Y-28292809D01*
X58132093Y-28206649D01*
X58132086Y-28206645D01*
X57997379Y-28156403D01*
X57997372Y-28156401D01*
X57937844Y-28150000D01*
X57290000Y-28150000D01*
X57290000Y-29066988D01*
X57232993Y-29034075D01*
X57105826Y-29000000D01*
X56974174Y-29000000D01*
X56847007Y-29034075D01*
X56790000Y-29066988D01*
X56790000Y-28150000D01*
X56142155Y-28150000D01*
X56082627Y-28156401D01*
X56082620Y-28156403D01*
X55947913Y-28206645D01*
X55947906Y-28206649D01*
X55832812Y-28292809D01*
X55832809Y-28292812D01*
X55746649Y-28407906D01*
X55746646Y-28407912D01*
X55697577Y-28539471D01*
X55655705Y-28595404D01*
X55590241Y-28619821D01*
X55521968Y-28604969D01*
X55493714Y-28583818D01*
X55379786Y-28469890D01*
X55207820Y-28344951D01*
X55018414Y-28248444D01*
X55018413Y-28248443D01*
X55018412Y-28248443D01*
X54816243Y-28182754D01*
X54816241Y-28182753D01*
X54816240Y-28182753D01*
X54654957Y-28157208D01*
X54606287Y-28149500D01*
X54393713Y-28149500D01*
X54345042Y-28157208D01*
X54183760Y-28182753D01*
X53981585Y-28248444D01*
X53792179Y-28344951D01*
X53620213Y-28469890D01*
X53469890Y-28620213D01*
X53344949Y-28792182D01*
X53340484Y-28800946D01*
X53292509Y-28851742D01*
X53224688Y-28868536D01*
X53158553Y-28845998D01*
X53119516Y-28800946D01*
X53115050Y-28792182D01*
X52990109Y-28620213D01*
X52839786Y-28469890D01*
X52667820Y-28344951D01*
X52478414Y-28248444D01*
X52478413Y-28248443D01*
X52478412Y-28248443D01*
X52276243Y-28182754D01*
X52276241Y-28182753D01*
X52276240Y-28182753D01*
X52114957Y-28157208D01*
X52066287Y-28149500D01*
X51853713Y-28149500D01*
X51805042Y-28157208D01*
X51643760Y-28182753D01*
X51441585Y-28248444D01*
X51252179Y-28344951D01*
X51080213Y-28469890D01*
X50929890Y-28620213D01*
X50804951Y-28792179D01*
X50708444Y-28981585D01*
X50642753Y-29183760D01*
X50609500Y-29393713D01*
X50609500Y-29606292D01*
X50624616Y-29701728D01*
X50615662Y-29771021D01*
X50589824Y-29808807D01*
X47457050Y-32941580D01*
X47457044Y-32941588D01*
X47407812Y-33015268D01*
X47407813Y-33015269D01*
X47374921Y-33064496D01*
X47374914Y-33064508D01*
X47318342Y-33201086D01*
X47318340Y-33201092D01*
X47289500Y-33346079D01*
X47289500Y-34312779D01*
X47269815Y-34379818D01*
X47238385Y-34413097D01*
X47160211Y-34469893D01*
X47160205Y-34469898D01*
X47009890Y-34620213D01*
X46884949Y-34792182D01*
X46880484Y-34800946D01*
X46832509Y-34851742D01*
X46764688Y-34868536D01*
X46698553Y-34845998D01*
X46659516Y-34800946D01*
X46655050Y-34792182D01*
X46530109Y-34620213D01*
X46379786Y-34469890D01*
X46207820Y-34344951D01*
X46018414Y-34248444D01*
X46018413Y-34248443D01*
X46018412Y-34248443D01*
X45816243Y-34182754D01*
X45816241Y-34182753D01*
X45816240Y-34182753D01*
X45654957Y-34157208D01*
X45606287Y-34149500D01*
X45393713Y-34149500D01*
X45345042Y-34157208D01*
X45183760Y-34182753D01*
X44981585Y-34248444D01*
X44792179Y-34344951D01*
X44620215Y-34469889D01*
X44506285Y-34583819D01*
X44444962Y-34617303D01*
X44375270Y-34612319D01*
X44319337Y-34570447D01*
X44302422Y-34539470D01*
X44253354Y-34407913D01*
X44253350Y-34407906D01*
X44167190Y-34292812D01*
X44167187Y-34292809D01*
X44052093Y-34206649D01*
X44052086Y-34206645D01*
X43917379Y-34156403D01*
X43917372Y-34156401D01*
X43857844Y-34150000D01*
X43210000Y-34150000D01*
X43210000Y-35066988D01*
X43152993Y-35034075D01*
X43025826Y-35000000D01*
X42894174Y-35000000D01*
X42767007Y-35034075D01*
X42710000Y-35066988D01*
X42710000Y-34150000D01*
X42062155Y-34150000D01*
X42002627Y-34156401D01*
X42002620Y-34156403D01*
X41867913Y-34206645D01*
X41867906Y-34206649D01*
X41752812Y-34292809D01*
X41723766Y-34331610D01*
X41667832Y-34373480D01*
X41598140Y-34378464D01*
X41536818Y-34344978D01*
X41503333Y-34283655D01*
X41500500Y-34257298D01*
X41500500Y-25624500D01*
X41520185Y-25557461D01*
X41572989Y-25511706D01*
X41624500Y-25500500D01*
X58375500Y-25500500D01*
X58442539Y-25520185D01*
G37*
%TD.AperFunction*%
%TD*%
M02*
