%TF.GenerationSoftware,KiCad,Pcbnew,10.0.3*%
%TF.CreationDate,2026-05-25T20:12:56+09:00*%
%TF.ProjectId,rs_dust_4way,72735f64-7573-4745-9f34-7761792e6b69,rev?*%
%TF.SameCoordinates,Original*%
%TF.FileFunction,Legend,Bot*%
%TF.FilePolarity,Positive*%
%FSLAX46Y46*%
G04 Gerber Fmt 4.6, Leading zero omitted, Abs format (unit mm)*
G04 Created by KiCad (PCBNEW 10.0.3) date 2026-05-25 20:12:56*
%MOMM*%
%LPD*%
G01*
G04 APERTURE LIST*
%ADD10C,0.150000*%
%ADD11C,0.120000*%
%ADD12R,1.700000X1.700000*%
%ADD13C,1.700000*%
G04 APERTURE END LIST*
D10*
X59264819Y-68546666D02*
X59979104Y-68546666D01*
X59979104Y-68546666D02*
X60121961Y-68499047D01*
X60121961Y-68499047D02*
X60217200Y-68403809D01*
X60217200Y-68403809D02*
X60264819Y-68260952D01*
X60264819Y-68260952D02*
X60264819Y-68165714D01*
X59693390Y-69165714D02*
X59645771Y-69070476D01*
X59645771Y-69070476D02*
X59598152Y-69022857D01*
X59598152Y-69022857D02*
X59502914Y-68975238D01*
X59502914Y-68975238D02*
X59455295Y-68975238D01*
X59455295Y-68975238D02*
X59360057Y-69022857D01*
X59360057Y-69022857D02*
X59312438Y-69070476D01*
X59312438Y-69070476D02*
X59264819Y-69165714D01*
X59264819Y-69165714D02*
X59264819Y-69356190D01*
X59264819Y-69356190D02*
X59312438Y-69451428D01*
X59312438Y-69451428D02*
X59360057Y-69499047D01*
X59360057Y-69499047D02*
X59455295Y-69546666D01*
X59455295Y-69546666D02*
X59502914Y-69546666D01*
X59502914Y-69546666D02*
X59598152Y-69499047D01*
X59598152Y-69499047D02*
X59645771Y-69451428D01*
X59645771Y-69451428D02*
X59693390Y-69356190D01*
X59693390Y-69356190D02*
X59693390Y-69165714D01*
X59693390Y-69165714D02*
X59741009Y-69070476D01*
X59741009Y-69070476D02*
X59788628Y-69022857D01*
X59788628Y-69022857D02*
X59883866Y-68975238D01*
X59883866Y-68975238D02*
X60074342Y-68975238D01*
X60074342Y-68975238D02*
X60169580Y-69022857D01*
X60169580Y-69022857D02*
X60217200Y-69070476D01*
X60217200Y-69070476D02*
X60264819Y-69165714D01*
X60264819Y-69165714D02*
X60264819Y-69356190D01*
X60264819Y-69356190D02*
X60217200Y-69451428D01*
X60217200Y-69451428D02*
X60169580Y-69499047D01*
X60169580Y-69499047D02*
X60074342Y-69546666D01*
X60074342Y-69546666D02*
X59883866Y-69546666D01*
X59883866Y-69546666D02*
X59788628Y-69499047D01*
X59788628Y-69499047D02*
X59741009Y-69451428D01*
X59741009Y-69451428D02*
X59693390Y-69356190D01*
X69213333Y-39644819D02*
X69213333Y-40359104D01*
X69213333Y-40359104D02*
X69260952Y-40501961D01*
X69260952Y-40501961D02*
X69356190Y-40597200D01*
X69356190Y-40597200D02*
X69499047Y-40644819D01*
X69499047Y-40644819D02*
X69594285Y-40644819D01*
X68308571Y-39978152D02*
X68308571Y-40644819D01*
X68546666Y-39597200D02*
X68784761Y-40311485D01*
X68784761Y-40311485D02*
X68165714Y-40311485D01*
X25448333Y-40144819D02*
X25448333Y-40859104D01*
X25448333Y-40859104D02*
X25495952Y-41001961D01*
X25495952Y-41001961D02*
X25591190Y-41097200D01*
X25591190Y-41097200D02*
X25734047Y-41144819D01*
X25734047Y-41144819D02*
X25829285Y-41144819D01*
X24448333Y-41144819D02*
X25019761Y-41144819D01*
X24734047Y-41144819D02*
X24734047Y-40144819D01*
X24734047Y-40144819D02*
X24829285Y-40287676D01*
X24829285Y-40287676D02*
X24924523Y-40382914D01*
X24924523Y-40382914D02*
X25019761Y-40430533D01*
X58764819Y-24781666D02*
X59479104Y-24781666D01*
X59479104Y-24781666D02*
X59621961Y-24734047D01*
X59621961Y-24734047D02*
X59717200Y-24638809D01*
X59717200Y-24638809D02*
X59764819Y-24495952D01*
X59764819Y-24495952D02*
X59764819Y-24400714D01*
X58764819Y-25734047D02*
X58764819Y-25257857D01*
X58764819Y-25257857D02*
X59241009Y-25210238D01*
X59241009Y-25210238D02*
X59193390Y-25257857D01*
X59193390Y-25257857D02*
X59145771Y-25353095D01*
X59145771Y-25353095D02*
X59145771Y-25591190D01*
X59145771Y-25591190D02*
X59193390Y-25686428D01*
X59193390Y-25686428D02*
X59241009Y-25734047D01*
X59241009Y-25734047D02*
X59336247Y-25781666D01*
X59336247Y-25781666D02*
X59574342Y-25781666D01*
X59574342Y-25781666D02*
X59669580Y-25734047D01*
X59669580Y-25734047D02*
X59717200Y-25686428D01*
X59717200Y-25686428D02*
X59764819Y-25591190D01*
X59764819Y-25591190D02*
X59764819Y-25353095D01*
X59764819Y-25353095D02*
X59717200Y-25257857D01*
X59717200Y-25257857D02*
X59669580Y-25210238D01*
X75218333Y-58764819D02*
X75218333Y-59479104D01*
X75218333Y-59479104D02*
X75265952Y-59621961D01*
X75265952Y-59621961D02*
X75361190Y-59717200D01*
X75361190Y-59717200D02*
X75504047Y-59764819D01*
X75504047Y-59764819D02*
X75599285Y-59764819D01*
X74837380Y-58764819D02*
X74218333Y-58764819D01*
X74218333Y-58764819D02*
X74551666Y-59145771D01*
X74551666Y-59145771D02*
X74408809Y-59145771D01*
X74408809Y-59145771D02*
X74313571Y-59193390D01*
X74313571Y-59193390D02*
X74265952Y-59241009D01*
X74265952Y-59241009D02*
X74218333Y-59336247D01*
X74218333Y-59336247D02*
X74218333Y-59574342D01*
X74218333Y-59574342D02*
X74265952Y-59669580D01*
X74265952Y-59669580D02*
X74313571Y-59717200D01*
X74313571Y-59717200D02*
X74408809Y-59764819D01*
X74408809Y-59764819D02*
X74694523Y-59764819D01*
X74694523Y-59764819D02*
X74789761Y-59717200D01*
X74789761Y-59717200D02*
X74837380Y-59669580D01*
X40144819Y-74551666D02*
X40859104Y-74551666D01*
X40859104Y-74551666D02*
X41001961Y-74504047D01*
X41001961Y-74504047D02*
X41097200Y-74408809D01*
X41097200Y-74408809D02*
X41144819Y-74265952D01*
X41144819Y-74265952D02*
X41144819Y-74170714D01*
X40144819Y-74932619D02*
X40144819Y-75599285D01*
X40144819Y-75599285D02*
X41144819Y-75170714D01*
X31453333Y-59264819D02*
X31453333Y-59979104D01*
X31453333Y-59979104D02*
X31500952Y-60121961D01*
X31500952Y-60121961D02*
X31596190Y-60217200D01*
X31596190Y-60217200D02*
X31739047Y-60264819D01*
X31739047Y-60264819D02*
X31834285Y-60264819D01*
X31024761Y-59360057D02*
X30977142Y-59312438D01*
X30977142Y-59312438D02*
X30881904Y-59264819D01*
X30881904Y-59264819D02*
X30643809Y-59264819D01*
X30643809Y-59264819D02*
X30548571Y-59312438D01*
X30548571Y-59312438D02*
X30500952Y-59360057D01*
X30500952Y-59360057D02*
X30453333Y-59455295D01*
X30453333Y-59455295D02*
X30453333Y-59550533D01*
X30453333Y-59550533D02*
X30500952Y-59693390D01*
X30500952Y-59693390D02*
X31072380Y-60264819D01*
X31072380Y-60264819D02*
X30453333Y-60264819D01*
X39644819Y-30786666D02*
X40359104Y-30786666D01*
X40359104Y-30786666D02*
X40501961Y-30739047D01*
X40501961Y-30739047D02*
X40597200Y-30643809D01*
X40597200Y-30643809D02*
X40644819Y-30500952D01*
X40644819Y-30500952D02*
X40644819Y-30405714D01*
X39644819Y-31691428D02*
X39644819Y-31500952D01*
X39644819Y-31500952D02*
X39692438Y-31405714D01*
X39692438Y-31405714D02*
X39740057Y-31358095D01*
X39740057Y-31358095D02*
X39882914Y-31262857D01*
X39882914Y-31262857D02*
X40073390Y-31215238D01*
X40073390Y-31215238D02*
X40454342Y-31215238D01*
X40454342Y-31215238D02*
X40549580Y-31262857D01*
X40549580Y-31262857D02*
X40597200Y-31310476D01*
X40597200Y-31310476D02*
X40644819Y-31405714D01*
X40644819Y-31405714D02*
X40644819Y-31596190D01*
X40644819Y-31596190D02*
X40597200Y-31691428D01*
X40597200Y-31691428D02*
X40549580Y-31739047D01*
X40549580Y-31739047D02*
X40454342Y-31786666D01*
X40454342Y-31786666D02*
X40216247Y-31786666D01*
X40216247Y-31786666D02*
X40121009Y-31739047D01*
X40121009Y-31739047D02*
X40073390Y-31691428D01*
X40073390Y-31691428D02*
X40025771Y-31596190D01*
X40025771Y-31596190D02*
X40025771Y-31405714D01*
X40025771Y-31405714D02*
X40073390Y-31310476D01*
X40073390Y-31310476D02*
X40121009Y-31262857D01*
X40121009Y-31262857D02*
X40216247Y-31215238D01*
%TO.C,J8*%
D11*
X50630000Y-74590000D02*
X50630000Y-65960000D01*
X51600000Y-65960000D02*
X51600000Y-65550000D01*
X52320000Y-65960000D02*
X52320000Y-65550000D01*
X53230000Y-74590000D02*
X53230000Y-65960000D01*
X54140000Y-65960000D02*
X54140000Y-65550000D01*
X54860000Y-65960000D02*
X54860000Y-65550000D01*
X55770000Y-74590000D02*
X55770000Y-65960000D01*
X55888095Y-74590000D02*
X55888095Y-65960000D01*
X56006190Y-74590000D02*
X56006190Y-65960000D01*
X56124286Y-74590000D02*
X56124286Y-65960000D01*
X56242381Y-74590000D02*
X56242381Y-65960000D01*
X56360476Y-74590000D02*
X56360476Y-65960000D01*
X56478571Y-74590000D02*
X56478571Y-65960000D01*
X56596667Y-74590000D02*
X56596667Y-65960000D01*
X56680000Y-65960000D02*
X56680000Y-65610000D01*
X56714762Y-74590000D02*
X56714762Y-65960000D01*
X56832857Y-74590000D02*
X56832857Y-65960000D01*
X56950952Y-74590000D02*
X56950952Y-65960000D01*
X57069048Y-74590000D02*
X57069048Y-65960000D01*
X57187143Y-74590000D02*
X57187143Y-65960000D01*
X57305238Y-74590000D02*
X57305238Y-65960000D01*
X57400000Y-65960000D02*
X57400000Y-65610000D01*
X57423333Y-74590000D02*
X57423333Y-65960000D01*
X57541429Y-74590000D02*
X57541429Y-65960000D01*
X57659524Y-74590000D02*
X57659524Y-65960000D01*
X57777619Y-74590000D02*
X57777619Y-65960000D01*
X57895714Y-74590000D02*
X57895714Y-65960000D01*
X58013810Y-74590000D02*
X58013810Y-65960000D01*
X58131905Y-74590000D02*
X58131905Y-65960000D01*
X58250000Y-74590000D02*
X58250000Y-65960000D01*
X58370000Y-63390000D02*
X57040000Y-63390000D01*
X58370000Y-64500000D02*
X58370000Y-63390000D01*
X58370000Y-65960000D02*
X50630000Y-65960000D01*
X58370000Y-74590000D02*
X50630000Y-74590000D01*
X58370000Y-74590000D02*
X58370000Y-65960000D01*
%TO.C,J4*%
X63390000Y-41630000D02*
X63390000Y-42960000D01*
X64500000Y-41630000D02*
X63390000Y-41630000D01*
X65960000Y-41630000D02*
X65960000Y-49370000D01*
X65960000Y-42600000D02*
X65610000Y-42600000D01*
X65960000Y-43320000D02*
X65610000Y-43320000D01*
X65960000Y-45140000D02*
X65550000Y-45140000D01*
X65960000Y-45860000D02*
X65550000Y-45860000D01*
X65960000Y-47680000D02*
X65550000Y-47680000D01*
X65960000Y-48400000D02*
X65550000Y-48400000D01*
X74590000Y-41630000D02*
X65960000Y-41630000D01*
X74590000Y-41630000D02*
X74590000Y-49370000D01*
X74590000Y-41750000D02*
X65960000Y-41750000D01*
X74590000Y-41868095D02*
X65960000Y-41868095D01*
X74590000Y-41986190D02*
X65960000Y-41986190D01*
X74590000Y-42104286D02*
X65960000Y-42104286D01*
X74590000Y-42222381D02*
X65960000Y-42222381D01*
X74590000Y-42340476D02*
X65960000Y-42340476D01*
X74590000Y-42458571D02*
X65960000Y-42458571D01*
X74590000Y-42576667D02*
X65960000Y-42576667D01*
X74590000Y-42694762D02*
X65960000Y-42694762D01*
X74590000Y-42812857D02*
X65960000Y-42812857D01*
X74590000Y-42930952D02*
X65960000Y-42930952D01*
X74590000Y-43049048D02*
X65960000Y-43049048D01*
X74590000Y-43167143D02*
X65960000Y-43167143D01*
X74590000Y-43285238D02*
X65960000Y-43285238D01*
X74590000Y-43403333D02*
X65960000Y-43403333D01*
X74590000Y-43521429D02*
X65960000Y-43521429D01*
X74590000Y-43639524D02*
X65960000Y-43639524D01*
X74590000Y-43757619D02*
X65960000Y-43757619D01*
X74590000Y-43875714D02*
X65960000Y-43875714D01*
X74590000Y-43993810D02*
X65960000Y-43993810D01*
X74590000Y-44111905D02*
X65960000Y-44111905D01*
X74590000Y-44230000D02*
X65960000Y-44230000D01*
X74590000Y-46770000D02*
X65960000Y-46770000D01*
X74590000Y-49370000D02*
X65960000Y-49370000D01*
%TO.C,J1*%
X19350000Y-45070000D02*
X19350000Y-45930000D01*
X19350000Y-45930000D02*
X25350000Y-45930000D01*
X19350000Y-47610000D02*
X19350000Y-48470000D01*
X19350000Y-48470000D02*
X25350000Y-48470000D01*
X25350000Y-45070000D02*
X19350000Y-45070000D01*
X25350000Y-47610000D02*
X19350000Y-47610000D01*
X28110000Y-44230000D02*
X25350000Y-44230000D01*
X28110000Y-46770000D02*
X25350000Y-46770000D01*
X28340000Y-42530000D02*
X28110000Y-42530000D01*
X28340000Y-43390000D02*
X28110000Y-43390000D01*
X28422642Y-45070000D02*
X28110000Y-45070000D01*
X28422642Y-45930000D02*
X28110000Y-45930000D01*
X28422642Y-47610000D02*
X28110000Y-47610000D01*
X28422642Y-48470000D02*
X28110000Y-48470000D01*
X30770000Y-41690000D02*
X29500000Y-41690000D01*
X30770000Y-42960000D02*
X30770000Y-41690000D01*
X19350000Y-42530000D02*
X25350000Y-42530000D01*
X25350000Y-43390000D01*
X19350000Y-43390000D01*
X19350000Y-42530000D01*
G36*
X19350000Y-42530000D02*
G01*
X25350000Y-42530000D01*
X25350000Y-43390000D01*
X19350000Y-43390000D01*
X19350000Y-42530000D01*
G37*
X25350000Y-41580000D02*
X28110000Y-41580000D01*
X28110000Y-49420000D01*
X25350000Y-49420000D01*
X25350000Y-41580000D01*
%TO.C,J5*%
X51530000Y-19350000D02*
X51530000Y-25350000D01*
X51530000Y-28422642D02*
X51530000Y-28110000D01*
X52390000Y-19350000D02*
X51530000Y-19350000D01*
X52390000Y-25350000D02*
X52390000Y-19350000D01*
X52390000Y-28422642D02*
X52390000Y-28110000D01*
X53230000Y-28110000D02*
X53230000Y-25350000D01*
X54070000Y-19350000D02*
X54070000Y-25350000D01*
X54070000Y-28422642D02*
X54070000Y-28110000D01*
X54930000Y-19350000D02*
X54070000Y-19350000D01*
X54930000Y-25350000D02*
X54930000Y-19350000D01*
X54930000Y-28422642D02*
X54930000Y-28110000D01*
X55770000Y-28110000D02*
X55770000Y-25350000D01*
X56610000Y-28340000D02*
X56610000Y-28110000D01*
X57040000Y-30770000D02*
X58310000Y-30770000D01*
X57470000Y-28340000D02*
X57470000Y-28110000D01*
X58310000Y-30770000D02*
X58310000Y-29500000D01*
X56610000Y-19350000D02*
X57470000Y-19350000D01*
X57470000Y-25350000D01*
X56610000Y-25350000D01*
X56610000Y-19350000D01*
G36*
X56610000Y-19350000D02*
G01*
X57470000Y-19350000D01*
X57470000Y-25350000D01*
X56610000Y-25350000D01*
X56610000Y-19350000D01*
G37*
X50580000Y-25350000D02*
X58420000Y-25350000D01*
X58420000Y-28110000D01*
X50580000Y-28110000D01*
X50580000Y-25350000D01*
%TO.C,J3*%
X69230000Y-57040000D02*
X69230000Y-58310000D01*
X69230000Y-58310000D02*
X70500000Y-58310000D01*
X71577358Y-51530000D02*
X71890000Y-51530000D01*
X71577358Y-52390000D02*
X71890000Y-52390000D01*
X71577358Y-54070000D02*
X71890000Y-54070000D01*
X71577358Y-54930000D02*
X71890000Y-54930000D01*
X71660000Y-56610000D02*
X71890000Y-56610000D01*
X71660000Y-57470000D02*
X71890000Y-57470000D01*
X71890000Y-53230000D02*
X74650000Y-53230000D01*
X71890000Y-55770000D02*
X74650000Y-55770000D01*
X74650000Y-52390000D02*
X80650000Y-52390000D01*
X74650000Y-54930000D02*
X80650000Y-54930000D01*
X80650000Y-51530000D02*
X74650000Y-51530000D01*
X80650000Y-52390000D02*
X80650000Y-51530000D01*
X80650000Y-54070000D02*
X74650000Y-54070000D01*
X80650000Y-54930000D02*
X80650000Y-54070000D01*
X71890000Y-50580000D02*
X74650000Y-50580000D01*
X74650000Y-58420000D01*
X71890000Y-58420000D01*
X71890000Y-50580000D01*
X74650000Y-56610000D02*
X80650000Y-56610000D01*
X80650000Y-57470000D01*
X74650000Y-57470000D01*
X74650000Y-56610000D01*
G36*
X74650000Y-56610000D02*
G01*
X80650000Y-56610000D01*
X80650000Y-57470000D01*
X74650000Y-57470000D01*
X74650000Y-56610000D01*
G37*
%TO.C,J7*%
X41690000Y-69230000D02*
X41690000Y-70500000D01*
X42530000Y-71660000D02*
X42530000Y-71890000D01*
X42960000Y-69230000D02*
X41690000Y-69230000D01*
X43390000Y-71660000D02*
X43390000Y-71890000D01*
X44230000Y-71890000D02*
X44230000Y-74650000D01*
X45070000Y-71577358D02*
X45070000Y-71890000D01*
X45070000Y-74650000D02*
X45070000Y-80650000D01*
X45070000Y-80650000D02*
X45930000Y-80650000D01*
X45930000Y-71577358D02*
X45930000Y-71890000D01*
X45930000Y-80650000D02*
X45930000Y-74650000D01*
X46770000Y-71890000D02*
X46770000Y-74650000D01*
X47610000Y-71577358D02*
X47610000Y-71890000D01*
X47610000Y-74650000D02*
X47610000Y-80650000D01*
X47610000Y-80650000D02*
X48470000Y-80650000D01*
X48470000Y-71577358D02*
X48470000Y-71890000D01*
X48470000Y-80650000D02*
X48470000Y-74650000D01*
X41580000Y-71890000D02*
X49420000Y-71890000D01*
X49420000Y-74650000D01*
X41580000Y-74650000D01*
X41580000Y-71890000D01*
X42530000Y-74650000D02*
X43390000Y-74650000D01*
X43390000Y-80650000D01*
X42530000Y-80650000D01*
X42530000Y-74650000D01*
G36*
X42530000Y-74650000D02*
G01*
X43390000Y-74650000D01*
X43390000Y-80650000D01*
X42530000Y-80650000D01*
X42530000Y-74650000D01*
G37*
%TO.C,J2*%
X25410000Y-50630000D02*
X34040000Y-50630000D01*
X25410000Y-53230000D02*
X34040000Y-53230000D01*
X25410000Y-55770000D02*
X34040000Y-55770000D01*
X25410000Y-55888095D02*
X34040000Y-55888095D01*
X25410000Y-56006190D02*
X34040000Y-56006190D01*
X25410000Y-56124286D02*
X34040000Y-56124286D01*
X25410000Y-56242381D02*
X34040000Y-56242381D01*
X25410000Y-56360476D02*
X34040000Y-56360476D01*
X25410000Y-56478571D02*
X34040000Y-56478571D01*
X25410000Y-56596667D02*
X34040000Y-56596667D01*
X25410000Y-56714762D02*
X34040000Y-56714762D01*
X25410000Y-56832857D02*
X34040000Y-56832857D01*
X25410000Y-56950952D02*
X34040000Y-56950952D01*
X25410000Y-57069048D02*
X34040000Y-57069048D01*
X25410000Y-57187143D02*
X34040000Y-57187143D01*
X25410000Y-57305238D02*
X34040000Y-57305238D01*
X25410000Y-57423333D02*
X34040000Y-57423333D01*
X25410000Y-57541429D02*
X34040000Y-57541429D01*
X25410000Y-57659524D02*
X34040000Y-57659524D01*
X25410000Y-57777619D02*
X34040000Y-57777619D01*
X25410000Y-57895714D02*
X34040000Y-57895714D01*
X25410000Y-58013810D02*
X34040000Y-58013810D01*
X25410000Y-58131905D02*
X34040000Y-58131905D01*
X25410000Y-58250000D02*
X34040000Y-58250000D01*
X25410000Y-58370000D02*
X25410000Y-50630000D01*
X25410000Y-58370000D02*
X34040000Y-58370000D01*
X34040000Y-51600000D02*
X34450000Y-51600000D01*
X34040000Y-52320000D02*
X34450000Y-52320000D01*
X34040000Y-54140000D02*
X34450000Y-54140000D01*
X34040000Y-54860000D02*
X34450000Y-54860000D01*
X34040000Y-56680000D02*
X34390000Y-56680000D01*
X34040000Y-57400000D02*
X34390000Y-57400000D01*
X34040000Y-58370000D02*
X34040000Y-50630000D01*
X35500000Y-58370000D02*
X36610000Y-58370000D01*
X36610000Y-58370000D02*
X36610000Y-57040000D01*
%TO.C,J6*%
X41630000Y-25410000D02*
X41630000Y-34040000D01*
X41630000Y-25410000D02*
X49370000Y-25410000D01*
X41630000Y-34040000D02*
X49370000Y-34040000D01*
X41630000Y-35500000D02*
X41630000Y-36610000D01*
X41630000Y-36610000D02*
X42960000Y-36610000D01*
X41750000Y-25410000D02*
X41750000Y-34040000D01*
X41868095Y-25410000D02*
X41868095Y-34040000D01*
X41986190Y-25410000D02*
X41986190Y-34040000D01*
X42104286Y-25410000D02*
X42104286Y-34040000D01*
X42222381Y-25410000D02*
X42222381Y-34040000D01*
X42340476Y-25410000D02*
X42340476Y-34040000D01*
X42458571Y-25410000D02*
X42458571Y-34040000D01*
X42576667Y-25410000D02*
X42576667Y-34040000D01*
X42600000Y-34040000D02*
X42600000Y-34390000D01*
X42694762Y-25410000D02*
X42694762Y-34040000D01*
X42812857Y-25410000D02*
X42812857Y-34040000D01*
X42930952Y-25410000D02*
X42930952Y-34040000D01*
X43049048Y-25410000D02*
X43049048Y-34040000D01*
X43167143Y-25410000D02*
X43167143Y-34040000D01*
X43285238Y-25410000D02*
X43285238Y-34040000D01*
X43320000Y-34040000D02*
X43320000Y-34390000D01*
X43403333Y-25410000D02*
X43403333Y-34040000D01*
X43521429Y-25410000D02*
X43521429Y-34040000D01*
X43639524Y-25410000D02*
X43639524Y-34040000D01*
X43757619Y-25410000D02*
X43757619Y-34040000D01*
X43875714Y-25410000D02*
X43875714Y-34040000D01*
X43993810Y-25410000D02*
X43993810Y-34040000D01*
X44111905Y-25410000D02*
X44111905Y-34040000D01*
X44230000Y-25410000D02*
X44230000Y-34040000D01*
X45140000Y-34040000D02*
X45140000Y-34450000D01*
X45860000Y-34040000D02*
X45860000Y-34450000D01*
X46770000Y-25410000D02*
X46770000Y-34040000D01*
X47680000Y-34040000D02*
X47680000Y-34450000D01*
X48400000Y-34040000D02*
X48400000Y-34450000D01*
X49370000Y-25410000D02*
X49370000Y-34040000D01*
%TD*%
%LPC*%
D12*
%TO.C,J8*%
X57040000Y-64500000D03*
D13*
X54500000Y-64500000D03*
X51960000Y-64500000D03*
%TD*%
D12*
%TO.C,J4*%
X64500000Y-42960000D03*
D13*
X64500000Y-45500000D03*
X64500000Y-48040000D03*
%TD*%
D12*
%TO.C,J1*%
X29500000Y-42960000D03*
D13*
X29500000Y-45500000D03*
X29500000Y-48040000D03*
%TD*%
D12*
%TO.C,J5*%
X57040000Y-29500000D03*
D13*
X54500000Y-29500000D03*
X51960000Y-29500000D03*
%TD*%
D12*
%TO.C,J3*%
X70500000Y-57040000D03*
D13*
X70500000Y-54500000D03*
X70500000Y-51960000D03*
%TD*%
D12*
%TO.C,J7*%
X42960000Y-70500000D03*
D13*
X45500000Y-70500000D03*
X48040000Y-70500000D03*
%TD*%
D12*
%TO.C,J2*%
X35500000Y-57040000D03*
D13*
X35500000Y-54500000D03*
X35500000Y-51960000D03*
%TD*%
D12*
%TO.C,J6*%
X42960000Y-35500000D03*
D13*
X45500000Y-35500000D03*
X48040000Y-35500000D03*
%TD*%
%LPD*%
M02*
