%TF.GenerationSoftware,KiCad,Pcbnew,10.0.3*%
%TF.CreationDate,2026-05-25T20:13:23+09:00*%
%TF.ProjectId,rs_dust_2way,72735f64-7573-4745-9f32-7761792e6b69,rev?*%
%TF.SameCoordinates,Original*%
%TF.FileFunction,Legend,Bot*%
%TF.FilePolarity,Positive*%
%FSLAX46Y46*%
G04 Gerber Fmt 4.6, Leading zero omitted, Abs format (unit mm)*
G04 Created by KiCad (PCBNEW 10.0.3) date 2026-05-25 20:13:23*
%MOMM*%
%LPD*%
G01*
G04 APERTURE LIST*
%ADD10C,0.150000*%
%ADD11C,0.120000*%
%ADD12R,1.700000X1.700000*%
%ADD13C,1.700000*%
G04 APERTURE END LIST*
D10*
X69213333Y-39644819D02*
X69213333Y-40359104D01*
X69213333Y-40359104D02*
X69260952Y-40501961D01*
X69260952Y-40501961D02*
X69356190Y-40597200D01*
X69356190Y-40597200D02*
X69499047Y-40644819D01*
X69499047Y-40644819D02*
X69594285Y-40644819D01*
X68308571Y-39978152D02*
X68308571Y-40644819D01*
X68546666Y-39597200D02*
X68784761Y-40311485D01*
X68784761Y-40311485D02*
X68165714Y-40311485D01*
X25448333Y-40144819D02*
X25448333Y-40859104D01*
X25448333Y-40859104D02*
X25495952Y-41001961D01*
X25495952Y-41001961D02*
X25591190Y-41097200D01*
X25591190Y-41097200D02*
X25734047Y-41144819D01*
X25734047Y-41144819D02*
X25829285Y-41144819D01*
X24448333Y-41144819D02*
X25019761Y-41144819D01*
X24734047Y-41144819D02*
X24734047Y-40144819D01*
X24734047Y-40144819D02*
X24829285Y-40287676D01*
X24829285Y-40287676D02*
X24924523Y-40382914D01*
X24924523Y-40382914D02*
X25019761Y-40430533D01*
X75218333Y-58764819D02*
X75218333Y-59479104D01*
X75218333Y-59479104D02*
X75265952Y-59621961D01*
X75265952Y-59621961D02*
X75361190Y-59717200D01*
X75361190Y-59717200D02*
X75504047Y-59764819D01*
X75504047Y-59764819D02*
X75599285Y-59764819D01*
X74837380Y-58764819D02*
X74218333Y-58764819D01*
X74218333Y-58764819D02*
X74551666Y-59145771D01*
X74551666Y-59145771D02*
X74408809Y-59145771D01*
X74408809Y-59145771D02*
X74313571Y-59193390D01*
X74313571Y-59193390D02*
X74265952Y-59241009D01*
X74265952Y-59241009D02*
X74218333Y-59336247D01*
X74218333Y-59336247D02*
X74218333Y-59574342D01*
X74218333Y-59574342D02*
X74265952Y-59669580D01*
X74265952Y-59669580D02*
X74313571Y-59717200D01*
X74313571Y-59717200D02*
X74408809Y-59764819D01*
X74408809Y-59764819D02*
X74694523Y-59764819D01*
X74694523Y-59764819D02*
X74789761Y-59717200D01*
X74789761Y-59717200D02*
X74837380Y-59669580D01*
X31453333Y-59264819D02*
X31453333Y-59979104D01*
X31453333Y-59979104D02*
X31500952Y-60121961D01*
X31500952Y-60121961D02*
X31596190Y-60217200D01*
X31596190Y-60217200D02*
X31739047Y-60264819D01*
X31739047Y-60264819D02*
X31834285Y-60264819D01*
X31024761Y-59360057D02*
X30977142Y-59312438D01*
X30977142Y-59312438D02*
X30881904Y-59264819D01*
X30881904Y-59264819D02*
X30643809Y-59264819D01*
X30643809Y-59264819D02*
X30548571Y-59312438D01*
X30548571Y-59312438D02*
X30500952Y-59360057D01*
X30500952Y-59360057D02*
X30453333Y-59455295D01*
X30453333Y-59455295D02*
X30453333Y-59550533D01*
X30453333Y-59550533D02*
X30500952Y-59693390D01*
X30500952Y-59693390D02*
X31072380Y-60264819D01*
X31072380Y-60264819D02*
X30453333Y-60264819D01*
%TO.C,J4*%
D11*
X63390000Y-41630000D02*
X63390000Y-42960000D01*
X64500000Y-41630000D02*
X63390000Y-41630000D01*
X65960000Y-41630000D02*
X65960000Y-49370000D01*
X65960000Y-42600000D02*
X65610000Y-42600000D01*
X65960000Y-43320000D02*
X65610000Y-43320000D01*
X65960000Y-45140000D02*
X65550000Y-45140000D01*
X65960000Y-45860000D02*
X65550000Y-45860000D01*
X65960000Y-47680000D02*
X65550000Y-47680000D01*
X65960000Y-48400000D02*
X65550000Y-48400000D01*
X74590000Y-41630000D02*
X65960000Y-41630000D01*
X74590000Y-41630000D02*
X74590000Y-49370000D01*
X74590000Y-41750000D02*
X65960000Y-41750000D01*
X74590000Y-41868095D02*
X65960000Y-41868095D01*
X74590000Y-41986190D02*
X65960000Y-41986190D01*
X74590000Y-42104286D02*
X65960000Y-42104286D01*
X74590000Y-42222381D02*
X65960000Y-42222381D01*
X74590000Y-42340476D02*
X65960000Y-42340476D01*
X74590000Y-42458571D02*
X65960000Y-42458571D01*
X74590000Y-42576667D02*
X65960000Y-42576667D01*
X74590000Y-42694762D02*
X65960000Y-42694762D01*
X74590000Y-42812857D02*
X65960000Y-42812857D01*
X74590000Y-42930952D02*
X65960000Y-42930952D01*
X74590000Y-43049048D02*
X65960000Y-43049048D01*
X74590000Y-43167143D02*
X65960000Y-43167143D01*
X74590000Y-43285238D02*
X65960000Y-43285238D01*
X74590000Y-43403333D02*
X65960000Y-43403333D01*
X74590000Y-43521429D02*
X65960000Y-43521429D01*
X74590000Y-43639524D02*
X65960000Y-43639524D01*
X74590000Y-43757619D02*
X65960000Y-43757619D01*
X74590000Y-43875714D02*
X65960000Y-43875714D01*
X74590000Y-43993810D02*
X65960000Y-43993810D01*
X74590000Y-44111905D02*
X65960000Y-44111905D01*
X74590000Y-44230000D02*
X65960000Y-44230000D01*
X74590000Y-46770000D02*
X65960000Y-46770000D01*
X74590000Y-49370000D02*
X65960000Y-49370000D01*
%TO.C,J1*%
X19350000Y-45070000D02*
X19350000Y-45930000D01*
X19350000Y-45930000D02*
X25350000Y-45930000D01*
X19350000Y-47610000D02*
X19350000Y-48470000D01*
X19350000Y-48470000D02*
X25350000Y-48470000D01*
X25350000Y-45070000D02*
X19350000Y-45070000D01*
X25350000Y-47610000D02*
X19350000Y-47610000D01*
X28110000Y-44230000D02*
X25350000Y-44230000D01*
X28110000Y-46770000D02*
X25350000Y-46770000D01*
X28340000Y-42530000D02*
X28110000Y-42530000D01*
X28340000Y-43390000D02*
X28110000Y-43390000D01*
X28422642Y-45070000D02*
X28110000Y-45070000D01*
X28422642Y-45930000D02*
X28110000Y-45930000D01*
X28422642Y-47610000D02*
X28110000Y-47610000D01*
X28422642Y-48470000D02*
X28110000Y-48470000D01*
X30770000Y-41690000D02*
X29500000Y-41690000D01*
X30770000Y-42960000D02*
X30770000Y-41690000D01*
X19350000Y-42530000D02*
X25350000Y-42530000D01*
X25350000Y-43390000D01*
X19350000Y-43390000D01*
X19350000Y-42530000D01*
G36*
X19350000Y-42530000D02*
G01*
X25350000Y-42530000D01*
X25350000Y-43390000D01*
X19350000Y-43390000D01*
X19350000Y-42530000D01*
G37*
X25350000Y-41580000D02*
X28110000Y-41580000D01*
X28110000Y-49420000D01*
X25350000Y-49420000D01*
X25350000Y-41580000D01*
%TO.C,J3*%
X69230000Y-57040000D02*
X69230000Y-58310000D01*
X69230000Y-58310000D02*
X70500000Y-58310000D01*
X71577358Y-51530000D02*
X71890000Y-51530000D01*
X71577358Y-52390000D02*
X71890000Y-52390000D01*
X71577358Y-54070000D02*
X71890000Y-54070000D01*
X71577358Y-54930000D02*
X71890000Y-54930000D01*
X71660000Y-56610000D02*
X71890000Y-56610000D01*
X71660000Y-57470000D02*
X71890000Y-57470000D01*
X71890000Y-53230000D02*
X74650000Y-53230000D01*
X71890000Y-55770000D02*
X74650000Y-55770000D01*
X74650000Y-52390000D02*
X80650000Y-52390000D01*
X74650000Y-54930000D02*
X80650000Y-54930000D01*
X80650000Y-51530000D02*
X74650000Y-51530000D01*
X80650000Y-52390000D02*
X80650000Y-51530000D01*
X80650000Y-54070000D02*
X74650000Y-54070000D01*
X80650000Y-54930000D02*
X80650000Y-54070000D01*
X71890000Y-50580000D02*
X74650000Y-50580000D01*
X74650000Y-58420000D01*
X71890000Y-58420000D01*
X71890000Y-50580000D01*
X74650000Y-56610000D02*
X80650000Y-56610000D01*
X80650000Y-57470000D01*
X74650000Y-57470000D01*
X74650000Y-56610000D01*
G36*
X74650000Y-56610000D02*
G01*
X80650000Y-56610000D01*
X80650000Y-57470000D01*
X74650000Y-57470000D01*
X74650000Y-56610000D01*
G37*
%TO.C,J2*%
X25410000Y-50630000D02*
X34040000Y-50630000D01*
X25410000Y-53230000D02*
X34040000Y-53230000D01*
X25410000Y-55770000D02*
X34040000Y-55770000D01*
X25410000Y-55888095D02*
X34040000Y-55888095D01*
X25410000Y-56006190D02*
X34040000Y-56006190D01*
X25410000Y-56124286D02*
X34040000Y-56124286D01*
X25410000Y-56242381D02*
X34040000Y-56242381D01*
X25410000Y-56360476D02*
X34040000Y-56360476D01*
X25410000Y-56478571D02*
X34040000Y-56478571D01*
X25410000Y-56596667D02*
X34040000Y-56596667D01*
X25410000Y-56714762D02*
X34040000Y-56714762D01*
X25410000Y-56832857D02*
X34040000Y-56832857D01*
X25410000Y-56950952D02*
X34040000Y-56950952D01*
X25410000Y-57069048D02*
X34040000Y-57069048D01*
X25410000Y-57187143D02*
X34040000Y-57187143D01*
X25410000Y-57305238D02*
X34040000Y-57305238D01*
X25410000Y-57423333D02*
X34040000Y-57423333D01*
X25410000Y-57541429D02*
X34040000Y-57541429D01*
X25410000Y-57659524D02*
X34040000Y-57659524D01*
X25410000Y-57777619D02*
X34040000Y-57777619D01*
X25410000Y-57895714D02*
X34040000Y-57895714D01*
X25410000Y-58013810D02*
X34040000Y-58013810D01*
X25410000Y-58131905D02*
X34040000Y-58131905D01*
X25410000Y-58250000D02*
X34040000Y-58250000D01*
X25410000Y-58370000D02*
X25410000Y-50630000D01*
X25410000Y-58370000D02*
X34040000Y-58370000D01*
X34040000Y-51600000D02*
X34450000Y-51600000D01*
X34040000Y-52320000D02*
X34450000Y-52320000D01*
X34040000Y-54140000D02*
X34450000Y-54140000D01*
X34040000Y-54860000D02*
X34450000Y-54860000D01*
X34040000Y-56680000D02*
X34390000Y-56680000D01*
X34040000Y-57400000D02*
X34390000Y-57400000D01*
X34040000Y-58370000D02*
X34040000Y-50630000D01*
X35500000Y-58370000D02*
X36610000Y-58370000D01*
X36610000Y-58370000D02*
X36610000Y-57040000D01*
%TD*%
%LPC*%
D12*
%TO.C,J4*%
X64500000Y-42960000D03*
D13*
X64500000Y-45500000D03*
X64500000Y-48040000D03*
%TD*%
D12*
%TO.C,J1*%
X29500000Y-42960000D03*
D13*
X29500000Y-45500000D03*
X29500000Y-48040000D03*
%TD*%
D12*
%TO.C,J3*%
X70500000Y-57040000D03*
D13*
X70500000Y-54500000D03*
X70500000Y-51960000D03*
%TD*%
D12*
%TO.C,J2*%
X35500000Y-57040000D03*
D13*
X35500000Y-54500000D03*
X35500000Y-51960000D03*
%TD*%
%LPD*%
M02*
