%TF.GenerationSoftware,KiCad,Pcbnew,10.0.3*%
%TF.CreationDate,2026-05-25T20:08:36+09:00*%
%TF.ProjectId,rs_lamp,72735f6c-616d-4702-9e6b-696361645f70,rev?*%
%TF.SameCoordinates,Original*%
%TF.FileFunction,Copper,L2,Bot*%
%TF.FilePolarity,Positive*%
%FSLAX46Y46*%
G04 Gerber Fmt 4.6, Leading zero omitted, Abs format (unit mm)*
G04 Created by KiCad (PCBNEW 10.0.3) date 2026-05-25 20:08:36*
%MOMM*%
%LPD*%
G01*
G04 APERTURE LIST*
%TA.AperFunction,ComponentPad*%
%ADD10C,1.600000*%
%TD*%
%TA.AperFunction,ComponentPad*%
%ADD11R,1.500000X1.050000*%
%TD*%
%TA.AperFunction,ComponentPad*%
%ADD12O,1.500000X1.050000*%
%TD*%
%TA.AperFunction,ComponentPad*%
%ADD13R,1.800000X1.800000*%
%TD*%
%TA.AperFunction,ComponentPad*%
%ADD14C,1.800000*%
%TD*%
%TA.AperFunction,ComponentPad*%
%ADD15R,1.700000X1.700000*%
%TD*%
%TA.AperFunction,ComponentPad*%
%ADD16C,1.700000*%
%TD*%
G04 APERTURE END LIST*
D10*
%TO.P,R2,1*%
%TO.N,Net-(Q1-D)*%
X62000000Y-40500000D03*
%TO.P,R2,2*%
%TO.N,Net-(D1-K)*%
X62000000Y-48120000D03*
%TD*%
%TO.P,R4,1*%
%TO.N,/IN*%
X39000000Y-43500000D03*
%TO.P,R4,2*%
%TO.N,GND*%
X39000000Y-35880000D03*
%TD*%
D11*
%TO.P,Q1,1,S_1*%
%TO.N,GND*%
X49640000Y-37730000D03*
D12*
%TO.P,Q1,2,G_2*%
%TO.N,/IN*%
X49640000Y-39000000D03*
%TO.P,Q1,3,D_3*%
%TO.N,Net-(Q1-D)*%
X49640000Y-40270000D03*
%TD*%
D13*
%TO.P,D1,1,K_1*%
%TO.N,Net-(D1-K)*%
X50000000Y-48230000D03*
D14*
%TO.P,D1,2,A_2*%
%TO.N,+5V*%
X50000000Y-50770000D03*
%TD*%
D15*
%TO.P,J1,1,Pin_1_1*%
%TO.N,GND*%
X35500000Y-57040000D03*
D16*
%TO.P,J1,2,Pin_2_2*%
%TO.N,/IN*%
X35500000Y-54500000D03*
%TO.P,J1,3,Pin_3_3*%
%TO.N,+5V*%
X35500000Y-51960000D03*
%TD*%
D15*
%TO.P,J2,1,Pin_1_1*%
%TO.N,GND*%
X29500000Y-42960000D03*
D16*
%TO.P,J2,2,Pin_2_2*%
%TO.N,/IN*%
X29500000Y-45500000D03*
%TO.P,J2,3,Pin_3_3*%
%TO.N,+5V*%
X29500000Y-48040000D03*
%TD*%
%TA.AperFunction,Conductor*%
%TO.N,GND*%
G36*
X71442539Y-28520185D02*
G01*
X71488294Y-28572989D01*
X71499500Y-28624500D01*
X71499500Y-71375500D01*
X71479815Y-71442539D01*
X71427011Y-71488294D01*
X71375500Y-71499500D01*
X28624500Y-71499500D01*
X28557461Y-71479815D01*
X28511706Y-71427011D01*
X28500500Y-71375500D01*
X28500500Y-58934110D01*
X28500500Y-58934108D01*
X28466392Y-58806814D01*
X28400500Y-58692686D01*
X28307314Y-58599500D01*
X28250250Y-58566554D01*
X28193187Y-58533608D01*
X28129539Y-58516554D01*
X28065892Y-58499500D01*
X28065891Y-58499500D01*
X25624500Y-58499500D01*
X25557461Y-58479815D01*
X25511706Y-58427011D01*
X25500500Y-58375500D01*
X25500500Y-51853713D01*
X34149500Y-51853713D01*
X34149500Y-52066286D01*
X34182753Y-52276239D01*
X34248444Y-52478414D01*
X34344951Y-52667820D01*
X34469890Y-52839786D01*
X34620213Y-52990109D01*
X34792182Y-53115050D01*
X34800946Y-53119516D01*
X34851742Y-53167491D01*
X34868536Y-53235312D01*
X34845998Y-53301447D01*
X34800946Y-53340484D01*
X34792182Y-53344949D01*
X34620213Y-53469890D01*
X34469890Y-53620213D01*
X34344951Y-53792179D01*
X34248444Y-53981585D01*
X34182753Y-54183760D01*
X34149500Y-54393713D01*
X34149500Y-54606286D01*
X34182753Y-54816239D01*
X34248444Y-55018414D01*
X34344951Y-55207820D01*
X34469890Y-55379786D01*
X34583818Y-55493714D01*
X34617303Y-55555037D01*
X34612319Y-55624729D01*
X34570447Y-55680662D01*
X34539471Y-55697577D01*
X34407912Y-55746646D01*
X34407906Y-55746649D01*
X34292812Y-55832809D01*
X34292809Y-55832812D01*
X34206649Y-55947906D01*
X34206645Y-55947913D01*
X34156403Y-56082620D01*
X34156401Y-56082627D01*
X34150000Y-56142155D01*
X34150000Y-56790000D01*
X35066988Y-56790000D01*
X35034075Y-56847007D01*
X35000000Y-56974174D01*
X35000000Y-57105826D01*
X35034075Y-57232993D01*
X35066988Y-57290000D01*
X34150000Y-57290000D01*
X34150000Y-57937844D01*
X34156401Y-57997372D01*
X34156403Y-57997379D01*
X34206645Y-58132086D01*
X34206649Y-58132093D01*
X34292809Y-58247187D01*
X34292812Y-58247190D01*
X34407906Y-58333350D01*
X34407913Y-58333354D01*
X34542620Y-58383596D01*
X34542627Y-58383598D01*
X34602155Y-58389999D01*
X34602172Y-58390000D01*
X35250000Y-58390000D01*
X35250000Y-57473012D01*
X35307007Y-57505925D01*
X35434174Y-57540000D01*
X35565826Y-57540000D01*
X35692993Y-57505925D01*
X35750000Y-57473012D01*
X35750000Y-58390000D01*
X36397828Y-58390000D01*
X36397844Y-58389999D01*
X36457372Y-58383598D01*
X36457379Y-58383596D01*
X36592086Y-58333354D01*
X36592093Y-58333350D01*
X36707187Y-58247190D01*
X36707190Y-58247187D01*
X36793350Y-58132093D01*
X36793354Y-58132086D01*
X36843596Y-57997379D01*
X36843598Y-57997372D01*
X36849999Y-57937844D01*
X36850000Y-57937827D01*
X36850000Y-57290000D01*
X35933012Y-57290000D01*
X35965925Y-57232993D01*
X36000000Y-57105826D01*
X36000000Y-56974174D01*
X35965925Y-56847007D01*
X35933012Y-56790000D01*
X36850000Y-56790000D01*
X36850000Y-56142172D01*
X36849999Y-56142155D01*
X36843598Y-56082627D01*
X36843596Y-56082620D01*
X36793354Y-55947913D01*
X36793350Y-55947906D01*
X36707190Y-55832812D01*
X36707187Y-55832809D01*
X36592093Y-55746649D01*
X36592088Y-55746646D01*
X36460528Y-55697577D01*
X36404595Y-55655705D01*
X36380178Y-55590241D01*
X36395030Y-55521968D01*
X36416175Y-55493720D01*
X36530104Y-55379792D01*
X36655051Y-55207816D01*
X36751557Y-55018412D01*
X36817246Y-54816243D01*
X36850500Y-54606287D01*
X36850500Y-54393713D01*
X36817246Y-54183757D01*
X36751557Y-53981588D01*
X36655051Y-53792184D01*
X36655049Y-53792181D01*
X36655048Y-53792179D01*
X36530109Y-53620213D01*
X36379786Y-53469890D01*
X36207820Y-53344951D01*
X36207115Y-53344591D01*
X36199054Y-53340485D01*
X36148259Y-53292512D01*
X36131463Y-53224692D01*
X36153999Y-53158556D01*
X36199054Y-53119515D01*
X36207816Y-53115051D01*
X36229789Y-53099086D01*
X36379786Y-52990109D01*
X36379788Y-52990106D01*
X36379792Y-52990104D01*
X36530104Y-52839792D01*
X36530106Y-52839788D01*
X36530109Y-52839786D01*
X36655048Y-52667820D01*
X36655047Y-52667820D01*
X36655051Y-52667816D01*
X36751557Y-52478412D01*
X36817246Y-52276243D01*
X36850500Y-52066287D01*
X36850500Y-51853713D01*
X36817246Y-51643757D01*
X36751557Y-51441588D01*
X36655051Y-51252184D01*
X36655049Y-51252181D01*
X36655048Y-51252179D01*
X36530109Y-51080213D01*
X36379786Y-50929890D01*
X36207820Y-50804951D01*
X36018414Y-50708444D01*
X36018413Y-50708443D01*
X36018412Y-50708443D01*
X35816243Y-50642754D01*
X35816241Y-50642753D01*
X35816240Y-50642753D01*
X35654957Y-50617208D01*
X35606287Y-50609500D01*
X35393713Y-50609500D01*
X35345042Y-50617208D01*
X35183760Y-50642753D01*
X34981585Y-50708444D01*
X34792179Y-50804951D01*
X34620213Y-50929890D01*
X34469890Y-51080213D01*
X34344951Y-51252179D01*
X34248444Y-51441585D01*
X34182753Y-51643760D01*
X34149500Y-51853713D01*
X25500500Y-51853713D01*
X25500500Y-45393713D01*
X28149500Y-45393713D01*
X28149500Y-45606286D01*
X28182753Y-45816239D01*
X28248444Y-46018414D01*
X28344951Y-46207820D01*
X28469890Y-46379786D01*
X28620213Y-46530109D01*
X28792182Y-46655050D01*
X28800946Y-46659516D01*
X28851742Y-46707491D01*
X28868536Y-46775312D01*
X28845998Y-46841447D01*
X28800946Y-46880484D01*
X28792182Y-46884949D01*
X28620213Y-47009890D01*
X28469890Y-47160213D01*
X28344951Y-47332179D01*
X28248444Y-47521585D01*
X28182753Y-47723760D01*
X28149500Y-47933713D01*
X28149500Y-48146287D01*
X28182754Y-48356243D01*
X28204943Y-48424534D01*
X28248444Y-48558414D01*
X28344951Y-48747820D01*
X28469890Y-48919786D01*
X28620213Y-49070109D01*
X28792179Y-49195048D01*
X28792181Y-49195049D01*
X28792184Y-49195051D01*
X28981588Y-49291557D01*
X29183757Y-49357246D01*
X29393713Y-49390500D01*
X29393714Y-49390500D01*
X29606286Y-49390500D01*
X29606287Y-49390500D01*
X29816243Y-49357246D01*
X30018412Y-49291557D01*
X30207816Y-49195051D01*
X30322167Y-49111971D01*
X30379786Y-49070109D01*
X30379788Y-49070106D01*
X30379792Y-49070104D01*
X30530104Y-48919792D01*
X30530106Y-48919788D01*
X30530109Y-48919786D01*
X30655048Y-48747820D01*
X30655047Y-48747820D01*
X30655051Y-48747816D01*
X30751557Y-48558412D01*
X30817246Y-48356243D01*
X30850500Y-48146287D01*
X30850500Y-47933713D01*
X30817246Y-47723757D01*
X30751557Y-47521588D01*
X30655051Y-47332184D01*
X30655049Y-47332181D01*
X30655048Y-47332179D01*
X30618689Y-47282135D01*
X48599500Y-47282135D01*
X48599500Y-49177870D01*
X48599501Y-49177876D01*
X48605908Y-49237483D01*
X48656202Y-49372328D01*
X48656206Y-49372335D01*
X48742452Y-49487544D01*
X48742455Y-49487547D01*
X48857664Y-49573793D01*
X48857671Y-49573797D01*
X48937580Y-49603601D01*
X48993514Y-49645472D01*
X49017931Y-49710936D01*
X49003080Y-49779209D01*
X48981929Y-49807463D01*
X48931756Y-49857636D01*
X48931752Y-49857641D01*
X48802187Y-50035974D01*
X48702104Y-50232393D01*
X48702103Y-50232396D01*
X48633985Y-50442047D01*
X48599500Y-50659778D01*
X48599500Y-50880221D01*
X48633985Y-51097952D01*
X48702103Y-51307603D01*
X48702104Y-51307606D01*
X48802187Y-51504025D01*
X48931752Y-51682358D01*
X48931756Y-51682363D01*
X49087636Y-51838243D01*
X49087641Y-51838247D01*
X49243192Y-51951260D01*
X49265978Y-51967815D01*
X49394375Y-52033237D01*
X49462393Y-52067895D01*
X49462396Y-52067896D01*
X49567221Y-52101955D01*
X49672049Y-52136015D01*
X49889778Y-52170500D01*
X49889779Y-52170500D01*
X50110221Y-52170500D01*
X50110222Y-52170500D01*
X50327951Y-52136015D01*
X50537606Y-52067895D01*
X50734022Y-51967815D01*
X50912365Y-51838242D01*
X51068242Y-51682365D01*
X51197815Y-51504022D01*
X51297895Y-51307606D01*
X51366015Y-51097951D01*
X51400500Y-50880222D01*
X51400500Y-50659778D01*
X51366015Y-50442049D01*
X51297895Y-50232394D01*
X51297895Y-50232393D01*
X51263237Y-50164375D01*
X51197815Y-50035978D01*
X51181260Y-50013192D01*
X51068247Y-49857641D01*
X51068243Y-49857636D01*
X51018071Y-49807464D01*
X50984586Y-49746141D01*
X50989570Y-49676449D01*
X51031442Y-49620516D01*
X51062420Y-49603601D01*
X51142326Y-49573798D01*
X51142326Y-49573797D01*
X51142331Y-49573796D01*
X51257546Y-49487546D01*
X51343796Y-49372331D01*
X51394091Y-49237483D01*
X51400500Y-49177873D01*
X51400499Y-48017648D01*
X60699500Y-48017648D01*
X60699500Y-48222351D01*
X60731522Y-48424534D01*
X60794781Y-48619223D01*
X60887715Y-48801613D01*
X61008028Y-48967213D01*
X61152786Y-49111971D01*
X61307749Y-49224556D01*
X61318390Y-49232287D01*
X61434607Y-49291503D01*
X61500776Y-49325218D01*
X61500778Y-49325218D01*
X61500781Y-49325220D01*
X61599347Y-49357246D01*
X61695465Y-49388477D01*
X61796557Y-49404488D01*
X61897648Y-49420500D01*
X61897649Y-49420500D01*
X62102351Y-49420500D01*
X62102352Y-49420500D01*
X62304534Y-49388477D01*
X62499219Y-49325220D01*
X62681610Y-49232287D01*
X62774590Y-49164732D01*
X62847213Y-49111971D01*
X62847215Y-49111968D01*
X62847219Y-49111966D01*
X62991966Y-48967219D01*
X62991968Y-48967215D01*
X62991971Y-48967213D01*
X63044732Y-48894590D01*
X63112287Y-48801610D01*
X63205220Y-48619219D01*
X63268477Y-48424534D01*
X63300500Y-48222352D01*
X63300500Y-48017648D01*
X63268477Y-47815466D01*
X63205220Y-47620781D01*
X63205218Y-47620778D01*
X63205218Y-47620776D01*
X63171503Y-47554607D01*
X63112287Y-47438390D01*
X63104556Y-47427749D01*
X62991971Y-47272786D01*
X62847213Y-47128028D01*
X62681613Y-47007715D01*
X62681612Y-47007714D01*
X62681610Y-47007713D01*
X62624653Y-46978691D01*
X62499223Y-46914781D01*
X62304534Y-46851522D01*
X62129995Y-46823878D01*
X62102352Y-46819500D01*
X61897648Y-46819500D01*
X61873329Y-46823351D01*
X61695465Y-46851522D01*
X61500776Y-46914781D01*
X61318386Y-47007715D01*
X61152786Y-47128028D01*
X61008028Y-47272786D01*
X60887715Y-47438386D01*
X60794781Y-47620776D01*
X60731522Y-47815465D01*
X60699500Y-48017648D01*
X51400499Y-48017648D01*
X51400499Y-47282128D01*
X51394091Y-47222517D01*
X51370851Y-47160208D01*
X51343797Y-47087671D01*
X51343793Y-47087664D01*
X51257547Y-46972455D01*
X51257544Y-46972452D01*
X51142335Y-46886206D01*
X51142328Y-46886202D01*
X51007482Y-46835908D01*
X51007483Y-46835908D01*
X50947883Y-46829501D01*
X50947881Y-46829500D01*
X50947873Y-46829500D01*
X50947864Y-46829500D01*
X49052129Y-46829500D01*
X49052123Y-46829501D01*
X48992516Y-46835908D01*
X48857671Y-46886202D01*
X48857664Y-46886206D01*
X48742455Y-46972452D01*
X48742452Y-46972455D01*
X48656206Y-47087664D01*
X48656202Y-47087671D01*
X48605908Y-47222517D01*
X48600505Y-47272781D01*
X48599501Y-47282123D01*
X48599500Y-47282135D01*
X30618689Y-47282135D01*
X30530109Y-47160213D01*
X30379786Y-47009890D01*
X30207820Y-46884951D01*
X30207115Y-46884591D01*
X30199054Y-46880485D01*
X30148259Y-46832512D01*
X30131463Y-46764692D01*
X30153999Y-46698556D01*
X30199054Y-46659515D01*
X30207816Y-46655051D01*
X30229789Y-46639086D01*
X30379786Y-46530109D01*
X30379788Y-46530106D01*
X30379792Y-46530104D01*
X30530104Y-46379792D01*
X30530106Y-46379788D01*
X30530109Y-46379786D01*
X30655048Y-46207820D01*
X30655047Y-46207820D01*
X30655051Y-46207816D01*
X30751557Y-46018412D01*
X30817246Y-45816243D01*
X30850500Y-45606287D01*
X30850500Y-45393713D01*
X30817246Y-45183757D01*
X30751557Y-44981588D01*
X30655051Y-44792184D01*
X30655049Y-44792181D01*
X30655048Y-44792179D01*
X30530109Y-44620213D01*
X30416181Y-44506285D01*
X30382696Y-44444962D01*
X30387680Y-44375270D01*
X30429552Y-44319337D01*
X30460529Y-44302422D01*
X30592086Y-44253354D01*
X30592093Y-44253350D01*
X30707187Y-44167190D01*
X30707190Y-44167187D01*
X30793350Y-44052093D01*
X30793354Y-44052086D01*
X30843596Y-43917379D01*
X30843598Y-43917372D01*
X30849999Y-43857844D01*
X30850000Y-43857827D01*
X30850000Y-43397648D01*
X37699500Y-43397648D01*
X37699500Y-43602351D01*
X37731522Y-43804534D01*
X37794781Y-43999223D01*
X37887715Y-44181613D01*
X38008028Y-44347213D01*
X38152786Y-44491971D01*
X38307749Y-44604556D01*
X38318390Y-44612287D01*
X38434607Y-44671503D01*
X38500776Y-44705218D01*
X38500778Y-44705218D01*
X38500781Y-44705220D01*
X38605137Y-44739127D01*
X38695465Y-44768477D01*
X38796557Y-44784488D01*
X38897648Y-44800500D01*
X38897649Y-44800500D01*
X39102351Y-44800500D01*
X39102352Y-44800500D01*
X39304534Y-44768477D01*
X39499219Y-44705220D01*
X39681610Y-44612287D01*
X39774590Y-44544732D01*
X39847213Y-44491971D01*
X39847215Y-44491968D01*
X39847219Y-44491966D01*
X39991966Y-44347219D01*
X39991968Y-44347215D01*
X39991971Y-44347213D01*
X40063730Y-44248443D01*
X40112287Y-44181610D01*
X40205220Y-43999219D01*
X40268477Y-43804534D01*
X40300500Y-43602352D01*
X40300500Y-43397648D01*
X40268477Y-43195466D01*
X40205220Y-43000781D01*
X40205218Y-43000778D01*
X40205218Y-43000776D01*
X40150901Y-42894174D01*
X40112287Y-42818390D01*
X40104556Y-42807749D01*
X39991971Y-42652786D01*
X39847213Y-42508028D01*
X39681613Y-42387715D01*
X39681612Y-42387714D01*
X39681610Y-42387713D01*
X39624653Y-42358691D01*
X39499223Y-42294781D01*
X39304534Y-42231522D01*
X39129995Y-42203878D01*
X39102352Y-42199500D01*
X38897648Y-42199500D01*
X38873329Y-42203351D01*
X38695465Y-42231522D01*
X38500776Y-42294781D01*
X38318386Y-42387715D01*
X38152786Y-42508028D01*
X38008028Y-42652786D01*
X37887715Y-42818386D01*
X37794781Y-43000776D01*
X37731522Y-43195465D01*
X37699500Y-43397648D01*
X30850000Y-43397648D01*
X30850000Y-43210000D01*
X29933012Y-43210000D01*
X29965925Y-43152993D01*
X30000000Y-43025826D01*
X30000000Y-42894174D01*
X29965925Y-42767007D01*
X29933012Y-42710000D01*
X30850000Y-42710000D01*
X30850000Y-42062172D01*
X30849999Y-42062155D01*
X30843598Y-42002627D01*
X30843596Y-42002620D01*
X30793354Y-41867913D01*
X30793350Y-41867906D01*
X30707190Y-41752812D01*
X30707187Y-41752809D01*
X30592093Y-41666649D01*
X30592086Y-41666645D01*
X30457379Y-41616403D01*
X30457372Y-41616401D01*
X30397844Y-41610000D01*
X29750000Y-41610000D01*
X29750000Y-42526988D01*
X29692993Y-42494075D01*
X29565826Y-42460000D01*
X29434174Y-42460000D01*
X29307007Y-42494075D01*
X29250000Y-42526988D01*
X29250000Y-41610000D01*
X28602155Y-41610000D01*
X28542627Y-41616401D01*
X28542620Y-41616403D01*
X28407913Y-41666645D01*
X28407906Y-41666649D01*
X28292812Y-41752809D01*
X28292809Y-41752812D01*
X28206649Y-41867906D01*
X28206645Y-41867913D01*
X28156403Y-42002620D01*
X28156401Y-42002627D01*
X28150000Y-42062155D01*
X28150000Y-42710000D01*
X29066988Y-42710000D01*
X29034075Y-42767007D01*
X29000000Y-42894174D01*
X29000000Y-43025826D01*
X29034075Y-43152993D01*
X29066988Y-43210000D01*
X28150000Y-43210000D01*
X28150000Y-43857844D01*
X28156401Y-43917372D01*
X28156403Y-43917379D01*
X28206645Y-44052086D01*
X28206649Y-44052093D01*
X28292809Y-44167187D01*
X28292812Y-44167190D01*
X28407906Y-44253350D01*
X28407913Y-44253354D01*
X28539470Y-44302422D01*
X28595404Y-44344293D01*
X28619821Y-44409758D01*
X28604969Y-44478031D01*
X28583819Y-44506285D01*
X28469889Y-44620215D01*
X28344951Y-44792179D01*
X28248444Y-44981585D01*
X28182753Y-45183760D01*
X28149500Y-45393713D01*
X25500500Y-45393713D01*
X25500500Y-41624500D01*
X25520185Y-41557461D01*
X25572989Y-41511706D01*
X25624500Y-41500500D01*
X28065890Y-41500500D01*
X28065892Y-41500500D01*
X28193186Y-41466392D01*
X28307314Y-41400500D01*
X28400500Y-41307314D01*
X28466392Y-41193186D01*
X28500500Y-41065892D01*
X28500500Y-38898992D01*
X48389500Y-38898992D01*
X48389500Y-39101007D01*
X48428907Y-39299119D01*
X48428909Y-39299127D01*
X48506213Y-39485755D01*
X48559904Y-39566109D01*
X48580782Y-39632787D01*
X48562297Y-39700167D01*
X48559904Y-39703891D01*
X48506213Y-39784244D01*
X48428909Y-39970872D01*
X48428907Y-39970880D01*
X48389500Y-40168992D01*
X48389500Y-40371007D01*
X48428907Y-40569119D01*
X48428909Y-40569127D01*
X48506212Y-40755752D01*
X48506217Y-40755762D01*
X48618441Y-40923718D01*
X48761281Y-41066558D01*
X48929237Y-41178782D01*
X48929241Y-41178784D01*
X48929244Y-41178786D01*
X49115873Y-41256091D01*
X49313992Y-41295499D01*
X49313996Y-41295500D01*
X49313997Y-41295500D01*
X49966004Y-41295500D01*
X49966005Y-41295499D01*
X50164127Y-41256091D01*
X50350756Y-41178786D01*
X50518718Y-41066558D01*
X50661558Y-40923718D01*
X50773786Y-40755756D01*
X50851091Y-40569127D01*
X50885200Y-40397648D01*
X60699500Y-40397648D01*
X60699500Y-40602351D01*
X60731522Y-40804534D01*
X60794781Y-40999223D01*
X60829091Y-41066558D01*
X60886274Y-41178786D01*
X60887715Y-41181613D01*
X61008028Y-41347213D01*
X61152786Y-41491971D01*
X61307749Y-41604556D01*
X61318390Y-41612287D01*
X61425081Y-41666649D01*
X61500776Y-41705218D01*
X61500778Y-41705218D01*
X61500781Y-41705220D01*
X61605137Y-41739127D01*
X61695465Y-41768477D01*
X61796557Y-41784488D01*
X61897648Y-41800500D01*
X61897649Y-41800500D01*
X62102351Y-41800500D01*
X62102352Y-41800500D01*
X62304534Y-41768477D01*
X62499219Y-41705220D01*
X62681610Y-41612287D01*
X62774590Y-41544732D01*
X62847213Y-41491971D01*
X62847215Y-41491968D01*
X62847219Y-41491966D01*
X62991966Y-41347219D01*
X62991968Y-41347215D01*
X62991971Y-41347213D01*
X63058174Y-41256091D01*
X63112287Y-41181610D01*
X63205220Y-40999219D01*
X63268477Y-40804534D01*
X63300500Y-40602352D01*
X63300500Y-40397648D01*
X63268477Y-40195466D01*
X63259876Y-40168996D01*
X63205218Y-40000776D01*
X63171503Y-39934607D01*
X63112287Y-39818390D01*
X63087479Y-39784244D01*
X62991971Y-39652786D01*
X62847213Y-39508028D01*
X62681613Y-39387715D01*
X62681612Y-39387714D01*
X62681610Y-39387713D01*
X62624653Y-39358691D01*
X62499223Y-39294781D01*
X62304534Y-39231522D01*
X62129995Y-39203878D01*
X62102352Y-39199500D01*
X61897648Y-39199500D01*
X61873329Y-39203351D01*
X61695465Y-39231522D01*
X61500776Y-39294781D01*
X61318386Y-39387715D01*
X61152786Y-39508028D01*
X61008028Y-39652786D01*
X60887715Y-39818386D01*
X60794781Y-40000776D01*
X60731522Y-40195465D01*
X60699500Y-40397648D01*
X50885200Y-40397648D01*
X50890500Y-40371003D01*
X50890500Y-40168997D01*
X50851091Y-39970873D01*
X50773786Y-39784244D01*
X50720094Y-39703889D01*
X50699217Y-39637214D01*
X50717701Y-39569834D01*
X50720078Y-39566134D01*
X50773786Y-39485756D01*
X50851091Y-39299127D01*
X50890500Y-39101003D01*
X50890500Y-38898997D01*
X50851091Y-38700873D01*
X50817451Y-38619661D01*
X50809983Y-38550194D01*
X50829592Y-38505144D01*
X50829101Y-38504876D01*
X50832102Y-38499379D01*
X50832748Y-38497896D01*
X50833352Y-38497089D01*
X50883597Y-38362376D01*
X50883598Y-38362372D01*
X50889999Y-38302844D01*
X50890000Y-38302827D01*
X50890000Y-37980000D01*
X50005866Y-37980000D01*
X49981674Y-37977617D01*
X49966004Y-37974500D01*
X49966003Y-37974500D01*
X49925830Y-37974500D01*
X49940075Y-37960255D01*
X49989444Y-37874745D01*
X50015000Y-37779370D01*
X50015000Y-37680630D01*
X49989444Y-37585255D01*
X49940075Y-37499745D01*
X49920330Y-37480000D01*
X50890000Y-37480000D01*
X50890000Y-37157172D01*
X50889999Y-37157155D01*
X50883598Y-37097627D01*
X50883596Y-37097620D01*
X50833354Y-36962913D01*
X50833350Y-36962906D01*
X50747190Y-36847812D01*
X50747187Y-36847809D01*
X50632093Y-36761649D01*
X50632086Y-36761645D01*
X50497379Y-36711403D01*
X50497372Y-36711401D01*
X50437844Y-36705000D01*
X49890000Y-36705000D01*
X49890000Y-37449670D01*
X49870255Y-37429925D01*
X49784745Y-37380556D01*
X49689370Y-37355000D01*
X49590630Y-37355000D01*
X49495255Y-37380556D01*
X49409745Y-37429925D01*
X49390000Y-37449670D01*
X49390000Y-36705000D01*
X48842155Y-36705000D01*
X48782627Y-36711401D01*
X48782620Y-36711403D01*
X48647913Y-36761645D01*
X48647906Y-36761649D01*
X48532812Y-36847809D01*
X48532809Y-36847812D01*
X48446649Y-36962906D01*
X48446645Y-36962913D01*
X48396403Y-37097620D01*
X48396401Y-37097627D01*
X48390000Y-37157155D01*
X48390000Y-37480000D01*
X49359670Y-37480000D01*
X49339925Y-37499745D01*
X49290556Y-37585255D01*
X49265000Y-37680630D01*
X49265000Y-37779370D01*
X49290556Y-37874745D01*
X49339925Y-37960255D01*
X49354170Y-37974500D01*
X49313997Y-37974500D01*
X49313996Y-37974500D01*
X49298326Y-37977617D01*
X49274134Y-37980000D01*
X48390000Y-37980000D01*
X48390000Y-38302844D01*
X48396401Y-38362372D01*
X48396403Y-38362379D01*
X48446645Y-38497086D01*
X48447251Y-38497895D01*
X48447604Y-38498841D01*
X48450897Y-38504872D01*
X48450030Y-38505345D01*
X48471670Y-38563359D01*
X48462547Y-38619661D01*
X48428910Y-38700868D01*
X48428907Y-38700880D01*
X48389500Y-38898992D01*
X28500500Y-38898992D01*
X28500500Y-35777682D01*
X37700000Y-35777682D01*
X37700000Y-35982317D01*
X37732009Y-36184417D01*
X37795244Y-36379031D01*
X37888141Y-36561350D01*
X37888147Y-36561359D01*
X37920523Y-36605921D01*
X37920524Y-36605922D01*
X38600000Y-35926446D01*
X38600000Y-35932661D01*
X38627259Y-36034394D01*
X38679920Y-36125606D01*
X38754394Y-36200080D01*
X38845606Y-36252741D01*
X38947339Y-36280000D01*
X38953553Y-36280000D01*
X38274076Y-36959474D01*
X38318650Y-36991859D01*
X38500968Y-37084755D01*
X38695582Y-37147990D01*
X38897683Y-37180000D01*
X39102317Y-37180000D01*
X39304417Y-37147990D01*
X39499031Y-37084755D01*
X39580262Y-37043366D01*
X39681349Y-36991859D01*
X39725921Y-36959474D01*
X39046447Y-36280000D01*
X39052661Y-36280000D01*
X39154394Y-36252741D01*
X39245606Y-36200080D01*
X39320080Y-36125606D01*
X39372741Y-36034394D01*
X39400000Y-35932661D01*
X39400000Y-35926447D01*
X40079474Y-36605921D01*
X40111859Y-36561349D01*
X40204755Y-36379031D01*
X40267990Y-36184417D01*
X40300000Y-35982317D01*
X40300000Y-35777682D01*
X40267990Y-35575582D01*
X40204755Y-35380968D01*
X40111859Y-35198650D01*
X40079474Y-35154077D01*
X40079474Y-35154076D01*
X39400000Y-35833551D01*
X39400000Y-35827339D01*
X39372741Y-35725606D01*
X39320080Y-35634394D01*
X39245606Y-35559920D01*
X39154394Y-35507259D01*
X39052661Y-35480000D01*
X39046446Y-35480000D01*
X39725922Y-34800524D01*
X39725921Y-34800523D01*
X39681359Y-34768147D01*
X39681350Y-34768141D01*
X39499031Y-34675244D01*
X39304417Y-34612009D01*
X39102317Y-34580000D01*
X38897683Y-34580000D01*
X38695582Y-34612009D01*
X38500968Y-34675244D01*
X38318644Y-34768143D01*
X38274077Y-34800523D01*
X38274077Y-34800524D01*
X38953554Y-35480000D01*
X38947339Y-35480000D01*
X38845606Y-35507259D01*
X38754394Y-35559920D01*
X38679920Y-35634394D01*
X38627259Y-35725606D01*
X38600000Y-35827339D01*
X38600000Y-35833553D01*
X37920524Y-35154077D01*
X37920523Y-35154077D01*
X37888143Y-35198644D01*
X37795244Y-35380968D01*
X37732009Y-35575582D01*
X37700000Y-35777682D01*
X28500500Y-35777682D01*
X28500500Y-28624500D01*
X28520185Y-28557461D01*
X28572989Y-28511706D01*
X28624500Y-28500500D01*
X40934108Y-28500500D01*
X58934108Y-28500500D01*
X71375500Y-28500500D01*
X71442539Y-28520185D01*
G37*
%TD.AperFunction*%
%TD*%
M02*
