%TF.GenerationSoftware,KiCad,Pcbnew,10.0.3*%
%TF.CreationDate,2026-05-25T20:08:36+09:00*%
%TF.ProjectId,rs_lamp,72735f6c-616d-4702-9e6b-696361645f70,rev?*%
%TF.SameCoordinates,Original*%
%TF.FileFunction,Legend,Top*%
%TF.FilePolarity,Positive*%
%FSLAX46Y46*%
G04 Gerber Fmt 4.6, Leading zero omitted, Abs format (unit mm)*
G04 Created by KiCad (PCBNEW 10.0.3) date 2026-05-25 20:08:36*
%MOMM*%
%LPD*%
G01*
G04 APERTURE LIST*
%ADD10C,0.150000*%
%ADD11C,0.000000*%
%ADD12C,0.120000*%
%ADD13C,1.600000*%
%ADD14R,1.500000X1.050000*%
%ADD15O,1.500000X1.050000*%
%ADD16R,1.800000X1.800000*%
%ADD17C,1.800000*%
%ADD18R,1.700000X1.700000*%
%ADD19C,1.700000*%
G04 APERTURE END LIST*
D10*
X64824819Y-44476666D02*
X64348628Y-44809999D01*
X64824819Y-45048094D02*
X63824819Y-45048094D01*
X63824819Y-45048094D02*
X63824819Y-44667142D01*
X63824819Y-44667142D02*
X63872438Y-44571904D01*
X63872438Y-44571904D02*
X63920057Y-44524285D01*
X63920057Y-44524285D02*
X64015295Y-44476666D01*
X64015295Y-44476666D02*
X64158152Y-44476666D01*
X64158152Y-44476666D02*
X64253390Y-44524285D01*
X64253390Y-44524285D02*
X64301009Y-44571904D01*
X64301009Y-44571904D02*
X64348628Y-44667142D01*
X64348628Y-44667142D02*
X64348628Y-45048094D01*
X63920057Y-44095713D02*
X63872438Y-44048094D01*
X63872438Y-44048094D02*
X63824819Y-43952856D01*
X63824819Y-43952856D02*
X63824819Y-43714761D01*
X63824819Y-43714761D02*
X63872438Y-43619523D01*
X63872438Y-43619523D02*
X63920057Y-43571904D01*
X63920057Y-43571904D02*
X64015295Y-43524285D01*
X64015295Y-43524285D02*
X64110533Y-43524285D01*
X64110533Y-43524285D02*
X64253390Y-43571904D01*
X64253390Y-43571904D02*
X64824819Y-44143332D01*
X64824819Y-44143332D02*
X64824819Y-43524285D01*
X39454819Y-40166666D02*
X38978628Y-40499999D01*
X39454819Y-40738094D02*
X38454819Y-40738094D01*
X38454819Y-40738094D02*
X38454819Y-40357142D01*
X38454819Y-40357142D02*
X38502438Y-40261904D01*
X38502438Y-40261904D02*
X38550057Y-40214285D01*
X38550057Y-40214285D02*
X38645295Y-40166666D01*
X38645295Y-40166666D02*
X38788152Y-40166666D01*
X38788152Y-40166666D02*
X38883390Y-40214285D01*
X38883390Y-40214285D02*
X38931009Y-40261904D01*
X38931009Y-40261904D02*
X38978628Y-40357142D01*
X38978628Y-40357142D02*
X38978628Y-40738094D01*
X38788152Y-39309523D02*
X39454819Y-39309523D01*
X38407200Y-39547618D02*
X39121485Y-39785713D01*
X39121485Y-39785713D02*
X39121485Y-39166666D01*
X53750057Y-39095238D02*
X53702438Y-39190476D01*
X53702438Y-39190476D02*
X53607200Y-39285714D01*
X53607200Y-39285714D02*
X53464342Y-39428571D01*
X53464342Y-39428571D02*
X53416723Y-39523809D01*
X53416723Y-39523809D02*
X53416723Y-39619047D01*
X53654819Y-39571428D02*
X53607200Y-39666666D01*
X53607200Y-39666666D02*
X53511961Y-39761904D01*
X53511961Y-39761904D02*
X53321485Y-39809523D01*
X53321485Y-39809523D02*
X52988152Y-39809523D01*
X52988152Y-39809523D02*
X52797676Y-39761904D01*
X52797676Y-39761904D02*
X52702438Y-39666666D01*
X52702438Y-39666666D02*
X52654819Y-39571428D01*
X52654819Y-39571428D02*
X52654819Y-39380952D01*
X52654819Y-39380952D02*
X52702438Y-39285714D01*
X52702438Y-39285714D02*
X52797676Y-39190476D01*
X52797676Y-39190476D02*
X52988152Y-39142857D01*
X52988152Y-39142857D02*
X53321485Y-39142857D01*
X53321485Y-39142857D02*
X53511961Y-39190476D01*
X53511961Y-39190476D02*
X53607200Y-39285714D01*
X53607200Y-39285714D02*
X53654819Y-39380952D01*
X53654819Y-39380952D02*
X53654819Y-39571428D01*
X53654819Y-38190476D02*
X53654819Y-38761904D01*
X53654819Y-38476190D02*
X52654819Y-38476190D01*
X52654819Y-38476190D02*
X52797676Y-38571428D01*
X52797676Y-38571428D02*
X52892914Y-38666666D01*
X52892914Y-38666666D02*
X52940533Y-38761904D01*
X53414819Y-50238094D02*
X52414819Y-50238094D01*
X52414819Y-50238094D02*
X52414819Y-49999999D01*
X52414819Y-49999999D02*
X52462438Y-49857142D01*
X52462438Y-49857142D02*
X52557676Y-49761904D01*
X52557676Y-49761904D02*
X52652914Y-49714285D01*
X52652914Y-49714285D02*
X52843390Y-49666666D01*
X52843390Y-49666666D02*
X52986247Y-49666666D01*
X52986247Y-49666666D02*
X53176723Y-49714285D01*
X53176723Y-49714285D02*
X53271961Y-49761904D01*
X53271961Y-49761904D02*
X53367200Y-49857142D01*
X53367200Y-49857142D02*
X53414819Y-49999999D01*
X53414819Y-49999999D02*
X53414819Y-50238094D01*
X53414819Y-48714285D02*
X53414819Y-49285713D01*
X53414819Y-48999999D02*
X52414819Y-48999999D01*
X52414819Y-48999999D02*
X52557676Y-49095237D01*
X52557676Y-49095237D02*
X52652914Y-49190475D01*
X52652914Y-49190475D02*
X52700533Y-49285713D01*
D11*
%TO.C,G\u002A\u002A\u002A*%
G36*
X49536932Y-63801798D02*
G01*
X49547589Y-63807507D01*
X49554085Y-63819353D01*
X49557297Y-63839246D01*
X49558100Y-63869093D01*
X49558002Y-63880351D01*
X49557604Y-63895257D01*
X49556682Y-63921546D01*
X49555276Y-63958282D01*
X49553428Y-64004528D01*
X49551179Y-64059346D01*
X49548571Y-64121800D01*
X49545645Y-64190952D01*
X49542443Y-64265866D01*
X49539007Y-64345604D01*
X49535378Y-64429230D01*
X49531598Y-64515807D01*
X49527707Y-64604397D01*
X49523748Y-64694063D01*
X49519763Y-64783869D01*
X49515792Y-64872877D01*
X49511877Y-64960151D01*
X49508060Y-65044753D01*
X49504382Y-65125747D01*
X49500885Y-65202195D01*
X49497610Y-65273161D01*
X49494599Y-65337707D01*
X49491894Y-65394896D01*
X49489535Y-65443792D01*
X49487565Y-65483458D01*
X49486025Y-65512955D01*
X49484956Y-65531349D01*
X49484622Y-65535960D01*
X49481767Y-65561073D01*
X49477584Y-65577544D01*
X49470757Y-65589233D01*
X49464080Y-65596282D01*
X49456076Y-65602494D01*
X49438653Y-65615088D01*
X49412736Y-65633420D01*
X49379250Y-65656850D01*
X49339120Y-65684734D01*
X49293271Y-65716432D01*
X49242627Y-65751299D01*
X49188114Y-65788695D01*
X49130656Y-65827977D01*
X49116419Y-65837690D01*
X49047079Y-65884941D01*
X48987286Y-65925552D01*
X48936278Y-65959957D01*
X48893293Y-65988590D01*
X48857568Y-66011886D01*
X48828341Y-66030279D01*
X48804851Y-66044203D01*
X48786334Y-66054093D01*
X48772028Y-66060382D01*
X48761172Y-66063505D01*
X48753003Y-66063897D01*
X48746759Y-66061991D01*
X48741678Y-66058221D01*
X48737471Y-66053598D01*
X48735826Y-66050701D01*
X48734394Y-66045846D01*
X48733182Y-66038463D01*
X48732200Y-66027984D01*
X48731456Y-66013843D01*
X48730960Y-65995471D01*
X48730719Y-65972299D01*
X48730743Y-65943761D01*
X48731039Y-65909288D01*
X48731418Y-65882433D01*
X48813401Y-65882433D01*
X48813891Y-65910360D01*
X48815014Y-65928531D01*
X48816872Y-65938313D01*
X48819565Y-65941076D01*
X48820637Y-65940692D01*
X48827180Y-65936374D01*
X48843068Y-65925699D01*
X48867307Y-65909340D01*
X48898903Y-65887969D01*
X48936860Y-65862261D01*
X48980186Y-65832887D01*
X49027885Y-65800522D01*
X49078964Y-65765839D01*
X49098830Y-65752343D01*
X49150640Y-65717103D01*
X49199192Y-65684006D01*
X49243527Y-65653710D01*
X49282686Y-65626874D01*
X49315711Y-65604156D01*
X49341644Y-65586215D01*
X49359525Y-65573710D01*
X49368398Y-65567298D01*
X49369209Y-65566587D01*
X49364122Y-65562297D01*
X49350130Y-65552869D01*
X49329134Y-65539453D01*
X49303037Y-65523196D01*
X49273741Y-65505248D01*
X49243149Y-65486756D01*
X49213164Y-65468871D01*
X49185687Y-65452739D01*
X49162620Y-65439511D01*
X49145867Y-65430333D01*
X49137330Y-65426356D01*
X49136822Y-65426280D01*
X49129723Y-65429822D01*
X49113678Y-65439566D01*
X49090046Y-65454632D01*
X49060184Y-65474140D01*
X49025451Y-65497208D01*
X48987203Y-65522956D01*
X48975362Y-65530993D01*
X48822200Y-65635146D01*
X48818131Y-65688284D01*
X48816649Y-65713775D01*
X48815320Y-65747978D01*
X48814260Y-65787099D01*
X48813583Y-65827348D01*
X48813443Y-65843378D01*
X48813401Y-65882433D01*
X48731418Y-65882433D01*
X48731618Y-65868312D01*
X48732488Y-65820265D01*
X48733657Y-65764580D01*
X48735135Y-65700688D01*
X48736929Y-65628021D01*
X48739048Y-65546012D01*
X48741503Y-65454093D01*
X48744191Y-65355691D01*
X49181663Y-65355691D01*
X49286376Y-65421359D01*
X49318899Y-65441566D01*
X49348041Y-65459315D01*
X49372068Y-65473579D01*
X49389245Y-65483330D01*
X49397841Y-65487542D01*
X49398253Y-65487631D01*
X49402664Y-65481973D01*
X49406508Y-65465044D01*
X49409364Y-65439785D01*
X49410348Y-65424732D01*
X49411758Y-65398797D01*
X49413556Y-65362907D01*
X49415703Y-65317988D01*
X49418160Y-65264967D01*
X49420889Y-65204771D01*
X49423851Y-65138326D01*
X49427006Y-65066559D01*
X49430318Y-64990396D01*
X49433746Y-64910764D01*
X49437252Y-64828590D01*
X49440797Y-64744800D01*
X49444343Y-64660321D01*
X49447851Y-64576079D01*
X49451282Y-64493002D01*
X49454598Y-64412015D01*
X49457759Y-64334046D01*
X49460728Y-64260020D01*
X49463465Y-64190866D01*
X49465931Y-64127508D01*
X49468089Y-64070874D01*
X49469899Y-64021891D01*
X49471322Y-63981484D01*
X49472320Y-63950581D01*
X49472855Y-63930109D01*
X49472887Y-63920993D01*
X49472821Y-63920602D01*
X49467101Y-63923046D01*
X49452722Y-63931196D01*
X49431485Y-63943910D01*
X49405193Y-63960048D01*
X49375648Y-63978469D01*
X49344652Y-63998031D01*
X49314008Y-64017594D01*
X49285517Y-64036016D01*
X49260981Y-64052157D01*
X49242204Y-64064875D01*
X49230987Y-64073030D01*
X49228679Y-64075178D01*
X49228016Y-64081976D01*
X49226949Y-64100232D01*
X49225516Y-64128910D01*
X49223759Y-64166972D01*
X49221717Y-64213381D01*
X49219429Y-64267101D01*
X49216937Y-64327095D01*
X49214278Y-64392326D01*
X49211494Y-64461757D01*
X49208625Y-64534350D01*
X49205710Y-64609070D01*
X49202789Y-64684879D01*
X49199902Y-64760740D01*
X49197089Y-64835617D01*
X49194389Y-64908472D01*
X49191844Y-64978269D01*
X49189492Y-65043970D01*
X49187373Y-65104539D01*
X49185528Y-65158939D01*
X49183996Y-65206133D01*
X49182817Y-65245085D01*
X49182032Y-65274756D01*
X49181679Y-65294110D01*
X49181663Y-65297296D01*
X49181663Y-65355691D01*
X48744191Y-65355691D01*
X48744300Y-65351695D01*
X48745810Y-65297296D01*
X48747449Y-65238250D01*
X48750958Y-65113192D01*
X48753065Y-65038548D01*
X48774705Y-64273159D01*
X48792201Y-64256283D01*
X48800420Y-64250060D01*
X48818270Y-64237764D01*
X48844816Y-64220003D01*
X48879123Y-64197388D01*
X48920254Y-64170530D01*
X48967274Y-64140037D01*
X49019249Y-64106521D01*
X49075241Y-64070591D01*
X49134317Y-64032858D01*
X49154724Y-64019863D01*
X49225947Y-63974609D01*
X49287405Y-63935720D01*
X49339824Y-63902761D01*
X49383930Y-63875296D01*
X49420451Y-63852890D01*
X49450113Y-63835108D01*
X49473642Y-63821515D01*
X49491765Y-63811675D01*
X49505208Y-63805153D01*
X49514699Y-63801514D01*
X49520964Y-63800322D01*
X49521236Y-63800319D01*
X49536932Y-63801798D01*
G37*
G36*
X47440146Y-57314558D02*
G01*
X47462173Y-57323258D01*
X47475988Y-57330563D01*
X47508921Y-57349207D01*
X47550781Y-57371706D01*
X47599081Y-57396807D01*
X47651336Y-57423258D01*
X47705061Y-57449804D01*
X47757768Y-57475193D01*
X47806974Y-57498171D01*
X47821953Y-57504982D01*
X47858463Y-57521464D01*
X47892708Y-57536948D01*
X47922423Y-57550408D01*
X47945344Y-57560819D01*
X47959206Y-57567154D01*
X47959487Y-57567283D01*
X47968675Y-57571439D01*
X47988459Y-57580323D01*
X48018017Y-57593569D01*
X48056528Y-57610810D01*
X48103171Y-57631677D01*
X48157124Y-57655803D01*
X48217566Y-57682822D01*
X48283676Y-57712366D01*
X48354631Y-57744067D01*
X48429611Y-57777559D01*
X48507794Y-57812474D01*
X48540638Y-57827140D01*
X48619505Y-57862361D01*
X48695231Y-57896195D01*
X48767023Y-57928288D01*
X48834089Y-57958283D01*
X48895636Y-57985826D01*
X48950873Y-58010563D01*
X48999006Y-58032138D01*
X49039244Y-58050196D01*
X49070795Y-58064383D01*
X49092865Y-58074343D01*
X49104662Y-58079722D01*
X49106403Y-58080550D01*
X49113371Y-58083772D01*
X49130965Y-58091726D01*
X49158391Y-58104059D01*
X49194853Y-58120413D01*
X49239556Y-58140433D01*
X49291706Y-58163765D01*
X49350508Y-58190052D01*
X49415167Y-58218939D01*
X49484889Y-58250070D01*
X49558878Y-58283090D01*
X49636340Y-58317644D01*
X49669283Y-58332334D01*
X49748590Y-58367699D01*
X49825202Y-58401869D01*
X49898275Y-58434467D01*
X49966968Y-58465117D01*
X50030438Y-58493444D01*
X50087844Y-58519072D01*
X50138342Y-58541624D01*
X50181090Y-58560724D01*
X50215247Y-58575996D01*
X50239969Y-58587065D01*
X50254416Y-58593554D01*
X50256928Y-58594691D01*
X50393859Y-58656347D01*
X50522162Y-58712587D01*
X50641381Y-58763220D01*
X50751058Y-58808056D01*
X50850735Y-58846901D01*
X50916465Y-58871200D01*
X50947573Y-58882975D01*
X50975486Y-58894601D01*
X50997513Y-58904884D01*
X51010963Y-58912628D01*
X51012479Y-58913850D01*
X51018376Y-58919638D01*
X51022322Y-58925884D01*
X51024558Y-58934867D01*
X51025328Y-58948866D01*
X51024875Y-58970159D01*
X51023442Y-59001024D01*
X51022900Y-59011641D01*
X51019529Y-59068557D01*
X51015743Y-59116475D01*
X51011633Y-59154610D01*
X51007291Y-59182178D01*
X51002809Y-59198393D01*
X51000697Y-59201852D01*
X50992935Y-59207097D01*
X50976300Y-59216826D01*
X50953024Y-59229780D01*
X50925339Y-59244699D01*
X50916831Y-59249199D01*
X50887078Y-59264944D01*
X50849451Y-59284969D01*
X50807076Y-59307604D01*
X50763077Y-59331180D01*
X50720578Y-59354028D01*
X50714992Y-59357038D01*
X50668774Y-59381582D01*
X50632272Y-59400101D01*
X50604506Y-59413046D01*
X50584496Y-59420867D01*
X50571262Y-59424014D01*
X50568966Y-59424124D01*
X50550409Y-59420164D01*
X50522096Y-59408449D01*
X50484065Y-59388993D01*
X50478857Y-59386143D01*
X50444815Y-59367897D01*
X50401716Y-59345578D01*
X50351868Y-59320326D01*
X50297579Y-59293282D01*
X50241154Y-59265590D01*
X50184902Y-59238389D01*
X50131129Y-59212823D01*
X50088136Y-59192787D01*
X50053771Y-59176936D01*
X50018105Y-59160449D01*
X49985371Y-59145282D01*
X49959980Y-59133479D01*
X49940891Y-59124612D01*
X49912512Y-59111472D01*
X49876908Y-59095014D01*
X49836147Y-59076193D01*
X49792294Y-59055964D01*
X49747427Y-59035285D01*
X49704804Y-59015611D01*
X49665255Y-58997281D01*
X49630390Y-58981049D01*
X49601820Y-58967665D01*
X49581154Y-58957882D01*
X49570002Y-58952452D01*
X49569258Y-58952064D01*
X49559431Y-58947252D01*
X49539938Y-58938071D01*
X49512501Y-58925318D01*
X49478840Y-58909789D01*
X49440675Y-58892280D01*
X49406718Y-58876775D01*
X49362696Y-58856673D01*
X49318599Y-58836461D01*
X49276910Y-58817284D01*
X49240110Y-58800284D01*
X49210684Y-58786604D01*
X49197292Y-58780320D01*
X49169769Y-58767407D01*
X49137295Y-58752297D01*
X49101634Y-58735797D01*
X49064549Y-58718716D01*
X49027804Y-58701858D01*
X48993164Y-58686033D01*
X48962393Y-58672048D01*
X48937254Y-58660708D01*
X48919512Y-58652823D01*
X48910930Y-58649198D01*
X48910432Y-58649052D01*
X48904250Y-58651757D01*
X48887779Y-58659574D01*
X48861928Y-58672056D01*
X48827606Y-58688754D01*
X48785723Y-58709221D01*
X48737188Y-58733009D01*
X48682910Y-58759671D01*
X48623800Y-58788759D01*
X48560766Y-58819826D01*
X48494718Y-58852423D01*
X48426566Y-58886103D01*
X48357218Y-58920418D01*
X48287584Y-58954921D01*
X48218574Y-58989163D01*
X48151097Y-59022698D01*
X48125153Y-59035608D01*
X48059693Y-59068189D01*
X47985163Y-59105279D01*
X47903690Y-59145819D01*
X47817401Y-59188751D01*
X47728422Y-59233018D01*
X47638880Y-59277561D01*
X47550901Y-59321323D01*
X47466611Y-59363246D01*
X47388653Y-59402015D01*
X46980358Y-59605050D01*
X47051069Y-59640374D01*
X47078810Y-59654300D01*
X47117078Y-59673619D01*
X47165273Y-59698025D01*
X47222794Y-59727212D01*
X47289039Y-59760874D01*
X47363408Y-59798707D01*
X47445300Y-59840403D01*
X47534113Y-59885657D01*
X47629246Y-59934164D01*
X47730099Y-59985617D01*
X47800073Y-60021334D01*
X47892718Y-60068601D01*
X47975314Y-60110654D01*
X48048931Y-60147999D01*
X48114639Y-60181140D01*
X48173507Y-60210584D01*
X48226604Y-60236836D01*
X48275001Y-60260401D01*
X48319766Y-60281786D01*
X48361970Y-60301496D01*
X48402681Y-60320036D01*
X48442970Y-60337913D01*
X48483905Y-60355631D01*
X48526556Y-60373697D01*
X48571993Y-60392616D01*
X48621286Y-60412894D01*
X48673072Y-60434045D01*
X48692736Y-60442059D01*
X48697017Y-60512981D01*
X48698095Y-60542836D01*
X48698172Y-60577175D01*
X48697379Y-60613683D01*
X48695844Y-60650045D01*
X48693699Y-60683946D01*
X48691071Y-60713069D01*
X48688092Y-60735101D01*
X48684889Y-60747725D01*
X48683783Y-60749454D01*
X48677328Y-60753404D01*
X48661027Y-60762690D01*
X48636021Y-60776681D01*
X48603451Y-60794746D01*
X48564457Y-60816253D01*
X48520180Y-60840570D01*
X48471761Y-60867067D01*
X48436301Y-60886417D01*
X48373038Y-60920750D01*
X48319901Y-60949244D01*
X48276162Y-60972262D01*
X48241092Y-60990171D01*
X48213963Y-61003337D01*
X48194047Y-61012123D01*
X48180614Y-61016896D01*
X48173737Y-61018070D01*
X48154778Y-61013556D01*
X48128531Y-61000286D01*
X48106398Y-60986245D01*
X48089398Y-60975069D01*
X48069986Y-60962815D01*
X48047643Y-60949201D01*
X48021851Y-60933945D01*
X47992093Y-60916767D01*
X47957850Y-60897385D01*
X47918605Y-60875517D01*
X47873838Y-60850881D01*
X47823032Y-60823198D01*
X47765670Y-60792185D01*
X47701232Y-60757560D01*
X47629201Y-60719042D01*
X47549059Y-60676351D01*
X47460287Y-60629203D01*
X47362368Y-60577319D01*
X47254783Y-60520416D01*
X47137015Y-60458214D01*
X47043637Y-60408939D01*
X46950498Y-60359796D01*
X46860088Y-60312072D01*
X46773057Y-60266111D01*
X46690054Y-60222256D01*
X46611727Y-60180851D01*
X46538725Y-60142239D01*
X46471698Y-60106764D01*
X46411293Y-60074770D01*
X46358161Y-60046599D01*
X46312950Y-60022596D01*
X46276308Y-60003104D01*
X46248884Y-59988466D01*
X46231329Y-59979026D01*
X46224685Y-59975368D01*
X46203185Y-59963368D01*
X46181873Y-59952294D01*
X46174673Y-59948824D01*
X46164313Y-59943663D01*
X46144271Y-59933348D01*
X46115907Y-59918591D01*
X46080583Y-59900106D01*
X46039658Y-59878604D01*
X45994493Y-59854796D01*
X45946447Y-59829396D01*
X45940240Y-59826109D01*
X45889767Y-59799383D01*
X45840152Y-59773123D01*
X45793102Y-59748232D01*
X45750324Y-59725613D01*
X45713527Y-59706168D01*
X45684417Y-59690801D01*
X45665173Y-59680662D01*
X45633034Y-59663732D01*
X45598441Y-59645460D01*
X45566717Y-59628660D01*
X45552645Y-59621186D01*
X45534380Y-59611497D01*
X45506921Y-59596966D01*
X45472135Y-59578579D01*
X45431889Y-59557323D01*
X45388051Y-59534184D01*
X45342487Y-59510148D01*
X45327590Y-59502292D01*
X45274088Y-59474071D01*
X45214715Y-59442728D01*
X45152963Y-59410112D01*
X45092328Y-59378067D01*
X45036304Y-59348440D01*
X44995074Y-59326620D01*
X44948773Y-59302137D01*
X44900976Y-59276924D01*
X44854287Y-59252349D01*
X44811312Y-59229783D01*
X44774653Y-59210595D01*
X44751264Y-59198409D01*
X44721096Y-59182650D01*
X44694694Y-59168678D01*
X44674134Y-59157606D01*
X44661488Y-59150544D01*
X44658675Y-59148785D01*
X44648775Y-59142694D01*
X44629050Y-59131823D01*
X44600906Y-59116881D01*
X44565752Y-59098578D01*
X44524997Y-59077621D01*
X44480048Y-59054721D01*
X44432314Y-59030585D01*
X44383201Y-59005922D01*
X44334120Y-58981442D01*
X44286477Y-58957854D01*
X44241681Y-58935865D01*
X44201139Y-58916185D01*
X44166261Y-58899523D01*
X44138453Y-58886587D01*
X44132354Y-58883832D01*
X44100396Y-58869035D01*
X44072523Y-58855218D01*
X44050737Y-58843444D01*
X44037041Y-58834780D01*
X44033337Y-58831133D01*
X44031283Y-58820725D01*
X44028875Y-58800305D01*
X44026279Y-58772352D01*
X44023657Y-58739348D01*
X44021175Y-58703771D01*
X44019263Y-58672503D01*
X44099498Y-58672503D01*
X44099974Y-58700488D01*
X44102659Y-58738134D01*
X44103187Y-58743854D01*
X44107122Y-58785518D01*
X44179724Y-58818237D01*
X44195670Y-58825484D01*
X44212518Y-58833276D01*
X44230645Y-58841810D01*
X44250424Y-58851279D01*
X44272231Y-58861878D01*
X44296441Y-58873803D01*
X44323429Y-58887247D01*
X44353569Y-58902407D01*
X44387238Y-58919476D01*
X44424809Y-58938650D01*
X44466658Y-58960123D01*
X44513161Y-58984091D01*
X44564691Y-59010749D01*
X44621624Y-59040290D01*
X44684336Y-59072911D01*
X44753200Y-59108805D01*
X44828593Y-59148168D01*
X44910889Y-59191195D01*
X45000463Y-59238080D01*
X45097690Y-59289019D01*
X45202945Y-59344206D01*
X45316604Y-59403836D01*
X45439041Y-59468104D01*
X45570631Y-59537205D01*
X45711750Y-59611333D01*
X45862772Y-59690684D01*
X46024072Y-59775453D01*
X46196026Y-59865834D01*
X46212489Y-59874488D01*
X46380097Y-59962595D01*
X46537012Y-60045089D01*
X46683609Y-60122172D01*
X46820265Y-60194041D01*
X46947357Y-60260897D01*
X47065260Y-60322939D01*
X47174352Y-60380368D01*
X47275009Y-60433382D01*
X47367607Y-60482181D01*
X47452522Y-60526965D01*
X47530131Y-60567933D01*
X47600810Y-60605286D01*
X47664937Y-60639222D01*
X47722886Y-60669942D01*
X47775035Y-60697644D01*
X47821760Y-60722530D01*
X47863437Y-60744797D01*
X47900444Y-60764647D01*
X47933155Y-60782278D01*
X47961948Y-60797890D01*
X47987199Y-60811683D01*
X48009285Y-60823857D01*
X48028581Y-60834611D01*
X48045465Y-60844144D01*
X48060313Y-60852657D01*
X48073500Y-60860348D01*
X48085404Y-60867419D01*
X48090770Y-60870648D01*
X48109509Y-60881854D01*
X48123455Y-60889963D01*
X48129763Y-60893323D01*
X48129842Y-60893338D01*
X48130469Y-60887513D01*
X48130662Y-60881482D01*
X48219960Y-60881482D01*
X48221397Y-60895741D01*
X48223615Y-60899492D01*
X48230019Y-60896570D01*
X48246085Y-60888318D01*
X48270518Y-60875430D01*
X48302021Y-60858596D01*
X48339298Y-60838507D01*
X48381054Y-60815857D01*
X48415850Y-60796884D01*
X48603396Y-60694388D01*
X48608161Y-60629768D01*
X48610002Y-60602033D01*
X48611178Y-60578619D01*
X48611558Y-60562551D01*
X48611287Y-60557324D01*
X48605496Y-60558088D01*
X48589554Y-60564650D01*
X48564194Y-60576649D01*
X48530144Y-60593724D01*
X48488137Y-60615514D01*
X48438902Y-60641657D01*
X48418975Y-60652374D01*
X48228303Y-60755248D01*
X48224346Y-60794606D01*
X48221448Y-60828863D01*
X48219981Y-60858505D01*
X48219960Y-60881482D01*
X48130662Y-60881482D01*
X48130976Y-60871706D01*
X48131306Y-60848436D01*
X48131405Y-60824447D01*
X48131405Y-60755540D01*
X48079516Y-60721717D01*
X48057277Y-60707787D01*
X48026852Y-60689527D01*
X47991039Y-60668576D01*
X47952640Y-60646573D01*
X47915413Y-60625688D01*
X47902558Y-60618740D01*
X47879143Y-60606284D01*
X47845698Y-60588597D01*
X47802748Y-60565954D01*
X47750820Y-60538629D01*
X47690442Y-60506899D01*
X47622141Y-60471039D01*
X47546443Y-60431325D01*
X47463875Y-60388031D01*
X47374965Y-60341433D01*
X47280239Y-60291807D01*
X47180225Y-60239429D01*
X47075449Y-60184572D01*
X46966439Y-60127514D01*
X46853721Y-60068529D01*
X46737822Y-60007893D01*
X46619270Y-59945882D01*
X46498591Y-59882770D01*
X46376313Y-59818833D01*
X46252961Y-59754347D01*
X46129065Y-59689586D01*
X46005149Y-59624828D01*
X45881742Y-59560346D01*
X45759370Y-59496417D01*
X45638561Y-59433315D01*
X45519840Y-59371317D01*
X45403737Y-59310697D01*
X45290776Y-59251731D01*
X45181486Y-59194695D01*
X45076392Y-59139864D01*
X44976024Y-59087514D01*
X44880906Y-59037919D01*
X44791567Y-58991355D01*
X44708532Y-58948098D01*
X44632331Y-58908424D01*
X44563488Y-58872607D01*
X44502531Y-58840922D01*
X44449988Y-58813647D01*
X44406385Y-58791055D01*
X44372249Y-58773423D01*
X44348107Y-58761025D01*
X44336721Y-58755250D01*
X44304722Y-58739461D01*
X44269849Y-58722656D01*
X44234009Y-58705710D01*
X44199111Y-58689497D01*
X44167063Y-58674893D01*
X44139774Y-58662773D01*
X44119150Y-58654011D01*
X44107101Y-58649482D01*
X44105106Y-58649052D01*
X44101215Y-58655062D01*
X44099498Y-58672503D01*
X44019263Y-58672503D01*
X44018994Y-58668103D01*
X44017280Y-58634823D01*
X44016196Y-58606412D01*
X44015906Y-58585349D01*
X44016012Y-58583212D01*
X44164620Y-58583212D01*
X44168134Y-58588567D01*
X44180698Y-58595469D01*
X44190200Y-58599755D01*
X44203834Y-58605853D01*
X44219695Y-58613171D01*
X44238138Y-58621891D01*
X44259518Y-58632197D01*
X44284192Y-58644272D01*
X44312515Y-58658298D01*
X44344842Y-58674459D01*
X44381530Y-58692937D01*
X44422933Y-58713916D01*
X44469408Y-58737578D01*
X44521309Y-58764108D01*
X44578994Y-58793686D01*
X44642816Y-58826498D01*
X44713133Y-58862725D01*
X44790299Y-58902551D01*
X44874670Y-58946158D01*
X44966601Y-58993731D01*
X45066449Y-59045450D01*
X45174569Y-59101501D01*
X45291316Y-59162065D01*
X45417047Y-59227326D01*
X45552116Y-59297467D01*
X45696879Y-59372670D01*
X45851693Y-59453120D01*
X46016912Y-59538998D01*
X46177799Y-59622640D01*
X46347784Y-59711022D01*
X46507047Y-59793837D01*
X46655963Y-59871282D01*
X46794904Y-59943553D01*
X46924244Y-60010846D01*
X47044358Y-60073359D01*
X47155619Y-60131287D01*
X47258400Y-60184828D01*
X47353076Y-60234178D01*
X47440020Y-60279534D01*
X47519605Y-60321092D01*
X47592206Y-60359048D01*
X47658197Y-60393601D01*
X47717950Y-60424945D01*
X47771839Y-60453277D01*
X47820239Y-60478795D01*
X47863523Y-60501695D01*
X47902065Y-60522173D01*
X47936238Y-60540426D01*
X47966416Y-60556651D01*
X47992974Y-60571043D01*
X48016283Y-60583801D01*
X48036720Y-60595120D01*
X48054656Y-60605196D01*
X48070465Y-60614228D01*
X48084523Y-60622410D01*
X48097201Y-60629940D01*
X48108874Y-60637014D01*
X48119916Y-60643829D01*
X48124623Y-60646766D01*
X48147412Y-60660865D01*
X48166052Y-60672090D01*
X48178150Y-60679018D01*
X48181417Y-60680547D01*
X48187477Y-60677739D01*
X48203210Y-60669683D01*
X48227291Y-60657080D01*
X48258394Y-60640628D01*
X48295193Y-60621029D01*
X48336364Y-60598981D01*
X48362328Y-60585022D01*
X48405494Y-60561620D01*
X48445013Y-60539885D01*
X48479561Y-60520570D01*
X48507814Y-60504427D01*
X48528449Y-60492208D01*
X48540142Y-60484666D01*
X48542308Y-60482722D01*
X48537580Y-60478243D01*
X48523107Y-60469932D01*
X48500705Y-60458709D01*
X48472195Y-60445492D01*
X48445792Y-60433922D01*
X48404821Y-60416135D01*
X48359971Y-60396229D01*
X48315853Y-60376276D01*
X48277078Y-60358349D01*
X48265813Y-60353027D01*
X48246990Y-60343873D01*
X48218708Y-60329842D01*
X48181716Y-60311317D01*
X48136763Y-60288682D01*
X48084599Y-60262322D01*
X48025975Y-60232618D01*
X47961638Y-60199956D01*
X47892339Y-60164719D01*
X47818828Y-60127291D01*
X47741853Y-60088055D01*
X47662165Y-60047395D01*
X47580513Y-60005695D01*
X47497647Y-59963338D01*
X47414316Y-59920708D01*
X47331269Y-59878189D01*
X47249257Y-59836164D01*
X47169029Y-59795018D01*
X47091334Y-59755133D01*
X47016923Y-59716894D01*
X46946544Y-59680684D01*
X46880947Y-59646887D01*
X46820881Y-59615887D01*
X46767097Y-59588067D01*
X46720344Y-59563811D01*
X46681371Y-59543502D01*
X46650929Y-59527525D01*
X46629765Y-59516263D01*
X46618631Y-59510100D01*
X46617065Y-59509060D01*
X46613736Y-59498355D01*
X46612472Y-59483632D01*
X46612704Y-59481095D01*
X46747456Y-59481095D01*
X46750818Y-59485203D01*
X46762964Y-59493424D01*
X46781423Y-59504428D01*
X46803726Y-59516883D01*
X46827400Y-59529459D01*
X46849975Y-59540824D01*
X46868981Y-59549647D01*
X46881946Y-59554597D01*
X46885019Y-59555203D01*
X46891282Y-59552512D01*
X46908182Y-59544558D01*
X46935148Y-59531621D01*
X46971608Y-59513979D01*
X47016994Y-59491912D01*
X47070733Y-59465701D01*
X47132255Y-59435624D01*
X47200990Y-59401961D01*
X47276366Y-59364992D01*
X47357813Y-59324996D01*
X47444761Y-59282253D01*
X47536639Y-59237042D01*
X47632875Y-59189643D01*
X47732900Y-59140336D01*
X47836142Y-59089400D01*
X47879013Y-59068237D01*
X48865960Y-58580949D01*
X48867735Y-58511100D01*
X48868304Y-58480535D01*
X48868288Y-58479437D01*
X48951113Y-58479437D01*
X48951634Y-58508841D01*
X48951714Y-58512024D01*
X48953482Y-58581296D01*
X49603642Y-58880656D01*
X49691774Y-58921293D01*
X49778801Y-58961530D01*
X49863800Y-59000936D01*
X49945852Y-59039080D01*
X50024033Y-59075528D01*
X50097424Y-59109851D01*
X50165103Y-59141615D01*
X50226149Y-59170389D01*
X50279640Y-59195743D01*
X50324655Y-59217243D01*
X50360274Y-59234459D01*
X50385574Y-59246958D01*
X50388210Y-59248291D01*
X50425858Y-59267360D01*
X50459781Y-59284434D01*
X50488397Y-59298726D01*
X50510126Y-59309451D01*
X50523388Y-59315822D01*
X50526773Y-59317267D01*
X50529309Y-59311904D01*
X50532170Y-59297104D01*
X50534789Y-59275898D01*
X50535099Y-59272643D01*
X50535636Y-59264692D01*
X50619568Y-59264692D01*
X50619797Y-59286598D01*
X50621068Y-59303180D01*
X50623464Y-59311255D01*
X50624205Y-59311574D01*
X50630738Y-59308688D01*
X50646798Y-59300618D01*
X50670917Y-59288131D01*
X50701628Y-59271994D01*
X50737461Y-59252973D01*
X50776948Y-59231836D01*
X50778931Y-59230770D01*
X50928968Y-59150107D01*
X50933296Y-59126197D01*
X50936476Y-59102145D01*
X50937990Y-59076583D01*
X50937917Y-59052499D01*
X50936331Y-59032881D01*
X50933310Y-59020715D01*
X50930531Y-59018220D01*
X50923109Y-59021158D01*
X50906238Y-59029264D01*
X50881464Y-59041749D01*
X50850331Y-59057825D01*
X50814385Y-59076703D01*
X50778931Y-59095579D01*
X50726660Y-59123998D01*
X50685559Y-59147272D01*
X50655452Y-59165509D01*
X50636161Y-59178816D01*
X50627510Y-59187300D01*
X50627423Y-59187461D01*
X50624309Y-59198846D01*
X50621906Y-59217634D01*
X50620299Y-59240643D01*
X50619568Y-59264692D01*
X50535636Y-59264692D01*
X50536954Y-59245155D01*
X50537677Y-59218157D01*
X50537196Y-59199187D01*
X50535121Y-59171055D01*
X50385084Y-59095782D01*
X50360116Y-59083499D01*
X50326080Y-59067127D01*
X50283812Y-59047049D01*
X50234146Y-59023650D01*
X50177919Y-58997312D01*
X50115966Y-58968417D01*
X50049124Y-58937349D01*
X49978226Y-58904492D01*
X49904110Y-58870227D01*
X49827610Y-58834939D01*
X49749563Y-58799009D01*
X49670804Y-58762822D01*
X49592168Y-58726760D01*
X49514491Y-58691207D01*
X49438609Y-58656545D01*
X49365357Y-58623157D01*
X49295571Y-58591426D01*
X49230086Y-58561737D01*
X49169739Y-58534470D01*
X49115365Y-58510010D01*
X49067798Y-58488740D01*
X49027876Y-58471043D01*
X48996433Y-58457301D01*
X48974306Y-58447898D01*
X48962329Y-58443217D01*
X48960521Y-58442751D01*
X48955910Y-58443992D01*
X48952983Y-58449116D01*
X48951474Y-58460230D01*
X48951113Y-58479437D01*
X48868288Y-58479437D01*
X48868013Y-58460548D01*
X48866641Y-58449234D01*
X48863973Y-58444683D01*
X48860151Y-58444842D01*
X48852997Y-58448176D01*
X48835357Y-58456664D01*
X48807902Y-58469978D01*
X48771303Y-58487787D01*
X48726230Y-58509763D01*
X48673355Y-58535577D01*
X48613349Y-58564900D01*
X48546883Y-58597402D01*
X48474627Y-58632754D01*
X48397253Y-58670627D01*
X48315432Y-58710693D01*
X48229835Y-58752621D01*
X48141133Y-58796084D01*
X48049996Y-58840751D01*
X47957097Y-58886293D01*
X47863105Y-58932383D01*
X47768692Y-58978689D01*
X47674529Y-59024884D01*
X47581288Y-59070637D01*
X47489637Y-59115621D01*
X47400250Y-59159506D01*
X47313797Y-59201962D01*
X47230949Y-59242661D01*
X47152377Y-59281273D01*
X47078752Y-59317470D01*
X47010745Y-59350922D01*
X46949027Y-59381300D01*
X46894269Y-59408275D01*
X46847142Y-59431518D01*
X46808317Y-59450699D01*
X46778465Y-59465490D01*
X46758257Y-59475562D01*
X46748365Y-59480585D01*
X46747456Y-59481095D01*
X46612704Y-59481095D01*
X46613913Y-59467862D01*
X46617065Y-59457987D01*
X46623056Y-59454605D01*
X46639755Y-59446010D01*
X46666631Y-59432463D01*
X46703151Y-59414228D01*
X46748783Y-59391566D01*
X46802994Y-59364738D01*
X46865254Y-59334006D01*
X46935029Y-59299633D01*
X47011787Y-59261880D01*
X47094996Y-59221008D01*
X47184124Y-59177281D01*
X47278638Y-59130959D01*
X47378008Y-59082305D01*
X47481699Y-59031580D01*
X47589181Y-58979047D01*
X47699920Y-58924966D01*
X47757403Y-58896912D01*
X47900528Y-58827103D01*
X48032745Y-58762679D01*
X48154360Y-58703491D01*
X48265678Y-58649394D01*
X48367006Y-58600241D01*
X48458650Y-58555886D01*
X48540914Y-58516181D01*
X48614106Y-58480982D01*
X48678530Y-58450141D01*
X48734493Y-58423512D01*
X48782300Y-58400948D01*
X48822257Y-58382303D01*
X48854671Y-58367432D01*
X48879846Y-58356186D01*
X48898089Y-58348420D01*
X48909705Y-58343987D01*
X48914753Y-58342726D01*
X48923446Y-58345292D01*
X48942669Y-58352742D01*
X48971604Y-58364706D01*
X49009436Y-58380816D01*
X49055349Y-58400701D01*
X49108525Y-58423992D01*
X49168148Y-58450318D01*
X49233403Y-58479311D01*
X49303472Y-58510601D01*
X49377540Y-58543817D01*
X49454790Y-58578591D01*
X49534406Y-58614552D01*
X49615571Y-58651331D01*
X49697469Y-58688558D01*
X49779284Y-58725864D01*
X49860199Y-58762878D01*
X49939399Y-58799232D01*
X50016066Y-58834554D01*
X50089384Y-58868477D01*
X50158537Y-58900629D01*
X50222710Y-58930642D01*
X50281084Y-58958146D01*
X50332844Y-58982770D01*
X50377174Y-59004146D01*
X50400344Y-59015493D01*
X50451069Y-59040461D01*
X50491841Y-59060319D01*
X50523877Y-59075576D01*
X50548393Y-59086741D01*
X50566607Y-59094322D01*
X50579734Y-59098830D01*
X50588992Y-59100773D01*
X50595597Y-59100659D01*
X50600393Y-59099169D01*
X50614625Y-59092324D01*
X50636670Y-59081148D01*
X50664636Y-59066651D01*
X50696634Y-59049845D01*
X50730772Y-59031741D01*
X50765159Y-59013350D01*
X50797904Y-58995684D01*
X50827118Y-58979754D01*
X50850907Y-58966570D01*
X50867383Y-58957145D01*
X50874646Y-58952497D01*
X50875893Y-58948550D01*
X50870875Y-58943590D01*
X50858207Y-58936892D01*
X50836504Y-58927728D01*
X50804382Y-58915373D01*
X50802754Y-58914761D01*
X50784818Y-58907992D01*
X50766691Y-58901045D01*
X50747920Y-58893718D01*
X50728049Y-58885812D01*
X50706626Y-58877126D01*
X50683196Y-58867459D01*
X50657306Y-58856611D01*
X50628501Y-58844381D01*
X50596328Y-58830569D01*
X50560333Y-58814973D01*
X50520062Y-58797393D01*
X50475062Y-58777629D01*
X50424877Y-58755480D01*
X50369055Y-58730745D01*
X50307142Y-58703224D01*
X50238683Y-58672717D01*
X50163225Y-58639021D01*
X50080315Y-58601938D01*
X49989497Y-58561266D01*
X49890318Y-58516805D01*
X49782325Y-58468354D01*
X49665064Y-58415712D01*
X49538080Y-58358679D01*
X49400920Y-58297054D01*
X49253130Y-58230637D01*
X49143404Y-58181319D01*
X48989262Y-58112036D01*
X48846085Y-58047681D01*
X48713434Y-57988055D01*
X48590870Y-57932958D01*
X48477955Y-57882188D01*
X48374251Y-57835547D01*
X48279320Y-57792833D01*
X48192723Y-57753847D01*
X48114021Y-57718389D01*
X48042777Y-57686258D01*
X47978552Y-57657253D01*
X47920907Y-57631176D01*
X47869405Y-57607825D01*
X47823607Y-57587001D01*
X47783074Y-57568503D01*
X47747369Y-57552131D01*
X47716052Y-57537685D01*
X47688686Y-57524965D01*
X47664832Y-57513770D01*
X47644052Y-57503901D01*
X47625907Y-57495156D01*
X47609959Y-57487337D01*
X47595769Y-57480242D01*
X47582901Y-57473672D01*
X47570913Y-57467426D01*
X47559370Y-57461304D01*
X47547832Y-57455106D01*
X47535860Y-57448632D01*
X47523017Y-57441681D01*
X47518625Y-57439309D01*
X47418727Y-57385406D01*
X47314015Y-57432259D01*
X47276909Y-57448866D01*
X47240349Y-57465234D01*
X47207237Y-57480065D01*
X47180474Y-57492059D01*
X47166389Y-57498377D01*
X47142855Y-57509980D01*
X47131111Y-57519113D01*
X47130995Y-57526973D01*
X47142345Y-57534760D01*
X47160458Y-57542061D01*
X47177637Y-57548773D01*
X47204613Y-57560017D01*
X47240512Y-57575394D01*
X47284458Y-57594509D01*
X47335576Y-57616964D01*
X47392991Y-57642363D01*
X47455829Y-57670310D01*
X47523213Y-57700406D01*
X47594269Y-57732256D01*
X47668121Y-57765462D01*
X47743896Y-57799629D01*
X47820717Y-57834359D01*
X47897709Y-57869255D01*
X47973998Y-57903921D01*
X48048708Y-57937960D01*
X48120964Y-57970976D01*
X48189892Y-58002570D01*
X48254615Y-58032348D01*
X48314260Y-58059912D01*
X48367950Y-58084864D01*
X48414812Y-58106810D01*
X48453969Y-58125351D01*
X48484546Y-58140091D01*
X48505670Y-58150633D01*
X48516463Y-58156581D01*
X48517437Y-58157296D01*
X48528903Y-58173904D01*
X48530589Y-58192013D01*
X48522858Y-58206693D01*
X48515958Y-58210692D01*
X48498442Y-58219733D01*
X48470962Y-58233503D01*
X48434167Y-58251692D01*
X48388711Y-58273986D01*
X48335243Y-58300075D01*
X48274417Y-58329646D01*
X48206883Y-58362387D01*
X48133293Y-58397986D01*
X48054298Y-58436132D01*
X47970550Y-58476513D01*
X47882700Y-58518815D01*
X47791399Y-58562729D01*
X47697300Y-58607941D01*
X47601053Y-58654140D01*
X47503310Y-58701014D01*
X47404723Y-58748251D01*
X47305943Y-58795539D01*
X47207621Y-58842566D01*
X47110409Y-58889020D01*
X47014958Y-58934589D01*
X46921920Y-58978962D01*
X46831946Y-59021826D01*
X46745688Y-59062869D01*
X46663797Y-59101781D01*
X46586925Y-59138247D01*
X46515723Y-59171958D01*
X46450842Y-59202600D01*
X46392934Y-59229862D01*
X46342651Y-59253432D01*
X46300644Y-59272998D01*
X46267564Y-59288249D01*
X46244064Y-59298871D01*
X46230793Y-59304554D01*
X46228038Y-59305463D01*
X46220582Y-59302663D01*
X46202808Y-59294530D01*
X46175507Y-59281467D01*
X46139471Y-59263879D01*
X46095491Y-59242167D01*
X46044360Y-59216736D01*
X45986868Y-59187988D01*
X45923808Y-59156327D01*
X45855971Y-59122155D01*
X45784148Y-59085876D01*
X45709131Y-59047893D01*
X45631712Y-59008610D01*
X45552682Y-58968428D01*
X45472833Y-58927752D01*
X45392957Y-58886985D01*
X45313845Y-58846530D01*
X45236288Y-58806789D01*
X45161079Y-58768167D01*
X45089009Y-58731066D01*
X45020869Y-58695889D01*
X44957452Y-58663040D01*
X44899548Y-58632922D01*
X44847949Y-58605937D01*
X44803448Y-58582490D01*
X44766834Y-58562983D01*
X44738901Y-58547819D01*
X44723889Y-58539404D01*
X44688553Y-58518831D01*
X44650974Y-58496501D01*
X44615332Y-58474926D01*
X44585808Y-58456615D01*
X44582329Y-58454409D01*
X44523181Y-58416768D01*
X44350244Y-58492822D01*
X44306496Y-58512213D01*
X44266221Y-58530355D01*
X44230916Y-58546549D01*
X44202077Y-58560099D01*
X44181202Y-58570308D01*
X44169787Y-58576478D01*
X44168320Y-58577540D01*
X44164620Y-58583212D01*
X44016012Y-58583212D01*
X44016420Y-58574978D01*
X44017076Y-58569601D01*
X44017951Y-58564982D01*
X44020018Y-58560619D01*
X44024246Y-58556005D01*
X44031609Y-58550639D01*
X44043077Y-58544015D01*
X44059622Y-58535629D01*
X44082214Y-58524978D01*
X44111826Y-58511558D01*
X44149429Y-58494864D01*
X44195993Y-58474393D01*
X44252492Y-58449640D01*
X44287761Y-58434189D01*
X44341753Y-58410744D01*
X44391230Y-58389682D01*
X44435032Y-58371469D01*
X44471997Y-58356576D01*
X44500966Y-58345469D01*
X44520778Y-58338618D01*
X44529943Y-58336475D01*
X44543230Y-58339428D01*
X44563221Y-58348647D01*
X44590942Y-58364673D01*
X44625059Y-58386487D01*
X44652028Y-58404176D01*
X44675029Y-58419117D01*
X44692177Y-58430096D01*
X44701585Y-58435898D01*
X44702776Y-58436499D01*
X44708578Y-58439440D01*
X44722809Y-58447377D01*
X44743115Y-58458982D01*
X44759770Y-58468628D01*
X44775457Y-58477343D01*
X44801506Y-58491292D01*
X44837120Y-58510068D01*
X44881503Y-58533262D01*
X44933858Y-58560467D01*
X44993390Y-58591274D01*
X45059301Y-58625275D01*
X45130797Y-58662063D01*
X45207080Y-58701230D01*
X45287355Y-58742367D01*
X45370825Y-58785067D01*
X45456694Y-58828922D01*
X45544165Y-58873524D01*
X45632443Y-58918464D01*
X45720731Y-58963335D01*
X45808233Y-59007728D01*
X45894153Y-59051237D01*
X45977695Y-59093452D01*
X46058061Y-59133967D01*
X46072505Y-59141237D01*
X46229777Y-59220374D01*
X46294435Y-59189984D01*
X46322592Y-59176685D01*
X46358422Y-59159665D01*
X46398337Y-59140632D01*
X46438749Y-59121298D01*
X46462244Y-59110022D01*
X46502188Y-59090852D01*
X46549319Y-59068274D01*
X46599532Y-59044252D01*
X46648725Y-59020750D01*
X46687299Y-59002348D01*
X46730030Y-58981971D01*
X46775203Y-58960409D01*
X46819373Y-58939309D01*
X46859091Y-58920318D01*
X46890474Y-58905292D01*
X46943712Y-58879783D01*
X47001067Y-58852321D01*
X47061378Y-58823458D01*
X47123485Y-58793750D01*
X47186228Y-58763750D01*
X47248447Y-58734013D01*
X47308982Y-58705092D01*
X47366671Y-58677542D01*
X47420356Y-58651917D01*
X47468876Y-58628771D01*
X47511071Y-58608658D01*
X47545780Y-58592133D01*
X47571843Y-58579749D01*
X47588101Y-58572061D01*
X47590647Y-58570868D01*
X47612108Y-58560756D01*
X47641522Y-58546766D01*
X47675591Y-58530473D01*
X47711016Y-58513453D01*
X47725055Y-58506684D01*
X47796412Y-58472293D01*
X47869087Y-58437365D01*
X47940103Y-58403326D01*
X48006483Y-58371604D01*
X48065248Y-58343626D01*
X48076704Y-58338188D01*
X48104092Y-58324867D01*
X48126843Y-58313173D01*
X48142843Y-58304240D01*
X48149979Y-58299203D01*
X48150159Y-58298798D01*
X48144922Y-58293973D01*
X48131504Y-58286545D01*
X48120464Y-58281462D01*
X48102408Y-58273449D01*
X48076834Y-58261797D01*
X48047516Y-58248236D01*
X48025128Y-58237753D01*
X47987022Y-58219840D01*
X47953349Y-58204109D01*
X47919865Y-58188587D01*
X47882323Y-58171306D01*
X47850085Y-58156524D01*
X47835845Y-58149979D01*
X47811650Y-58138833D01*
X47778892Y-58123727D01*
X47738966Y-58105306D01*
X47693266Y-58084212D01*
X47643187Y-58061090D01*
X47590120Y-58036581D01*
X47556263Y-58020941D01*
X47468733Y-57980648D01*
X47390995Y-57945192D01*
X47321600Y-57913937D01*
X47259097Y-57886247D01*
X47202038Y-57861484D01*
X47148973Y-57839014D01*
X47098453Y-57818198D01*
X47053014Y-57799978D01*
X46990499Y-57775228D01*
X46986200Y-57741712D01*
X46984556Y-57723328D01*
X46982972Y-57695706D01*
X46981597Y-57662112D01*
X46980580Y-57625812D01*
X46980564Y-57624996D01*
X47057067Y-57624996D01*
X47057498Y-57649702D01*
X47058701Y-57682045D01*
X47060560Y-57703842D01*
X47063367Y-57717043D01*
X47067412Y-57723600D01*
X47068643Y-57724425D01*
X47076881Y-57728176D01*
X47094941Y-57735973D01*
X47121089Y-57747081D01*
X47153595Y-57760767D01*
X47190724Y-57776299D01*
X47215554Y-57786636D01*
X47243884Y-57798684D01*
X47282298Y-57815447D01*
X47329547Y-57836360D01*
X47384381Y-57860860D01*
X47445550Y-57888382D01*
X47511805Y-57918363D01*
X47581895Y-57950238D01*
X47654570Y-57983444D01*
X47728581Y-58017417D01*
X47796947Y-58048944D01*
X47867001Y-58081290D01*
X47933825Y-58112082D01*
X47996545Y-58140919D01*
X48054283Y-58167401D01*
X48106163Y-58191129D01*
X48151309Y-58211702D01*
X48188845Y-58228721D01*
X48217895Y-58241786D01*
X48237582Y-58250496D01*
X48247030Y-58254452D01*
X48247702Y-58254653D01*
X48255665Y-58252316D01*
X48272546Y-58245533D01*
X48296005Y-58235296D01*
X48323702Y-58222600D01*
X48328843Y-58220184D01*
X48358884Y-58205936D01*
X48379001Y-58195943D01*
X48390589Y-58189145D01*
X48395042Y-58184483D01*
X48393753Y-58180896D01*
X48388116Y-58177325D01*
X48386392Y-58176416D01*
X48373219Y-58169925D01*
X48349627Y-58158753D01*
X48316600Y-58143345D01*
X48275121Y-58124148D01*
X48226174Y-58101609D01*
X48170743Y-58076174D01*
X48109812Y-58048290D01*
X48044364Y-58018403D01*
X47975383Y-57986960D01*
X47903854Y-57954407D01*
X47830759Y-57921191D01*
X47757082Y-57887758D01*
X47683808Y-57854556D01*
X47611920Y-57822030D01*
X47542402Y-57790627D01*
X47476237Y-57760794D01*
X47414409Y-57732976D01*
X47357902Y-57707622D01*
X47307700Y-57685177D01*
X47264787Y-57666087D01*
X47230146Y-57650800D01*
X47204761Y-57639762D01*
X47194900Y-57635580D01*
X47156883Y-57619777D01*
X47122835Y-57605724D01*
X47094412Y-57594093D01*
X47073266Y-57585562D01*
X47061054Y-57580804D01*
X47058724Y-57580039D01*
X47057677Y-57585869D01*
X47057110Y-57601690D01*
X47057067Y-57624996D01*
X46980564Y-57624996D01*
X46980329Y-57612621D01*
X46979796Y-57576117D01*
X46979768Y-57549965D01*
X46980512Y-57532016D01*
X46982293Y-57520123D01*
X46985378Y-57512135D01*
X46990032Y-57505905D01*
X46994043Y-57501761D01*
X47004063Y-57494953D01*
X47023881Y-57484162D01*
X47051843Y-57470122D01*
X47086295Y-57453568D01*
X47125583Y-57435234D01*
X47168054Y-57415856D01*
X47212054Y-57396167D01*
X47255929Y-57376904D01*
X47298025Y-57358800D01*
X47336690Y-57342591D01*
X47370268Y-57329011D01*
X47397106Y-57318795D01*
X47415551Y-57312678D01*
X47422871Y-57311222D01*
X47440146Y-57314558D01*
G37*
G36*
X47506789Y-56826065D02*
G01*
X47524596Y-56833325D01*
X47552973Y-56845187D01*
X47591472Y-56861459D01*
X47639647Y-56881945D01*
X47697051Y-56906452D01*
X47763236Y-56934787D01*
X47837755Y-56966755D01*
X47920162Y-57002162D01*
X48010009Y-57040816D01*
X48106849Y-57082520D01*
X48210236Y-57127083D01*
X48319721Y-57174310D01*
X48434859Y-57224007D01*
X48555201Y-57275980D01*
X48680301Y-57330036D01*
X48809712Y-57385980D01*
X48942987Y-57443619D01*
X49079678Y-57502759D01*
X49219339Y-57563205D01*
X49361522Y-57624765D01*
X49505781Y-57687243D01*
X49651668Y-57750447D01*
X49798736Y-57814183D01*
X49946539Y-57878256D01*
X50094628Y-57942472D01*
X50242558Y-58006639D01*
X50389881Y-58070561D01*
X50536149Y-58134045D01*
X50680916Y-58196897D01*
X50823736Y-58258924D01*
X50964159Y-58319931D01*
X51101741Y-58379725D01*
X51236032Y-58438111D01*
X51366588Y-58494896D01*
X51492959Y-58549887D01*
X51614700Y-58602888D01*
X51731364Y-58653706D01*
X51842502Y-58702147D01*
X51947669Y-58748018D01*
X52046416Y-58791125D01*
X52138298Y-58831273D01*
X52222866Y-58868269D01*
X52299674Y-58901919D01*
X52368275Y-58932029D01*
X52428221Y-58958405D01*
X52479066Y-58980853D01*
X52520363Y-58999180D01*
X52551664Y-59013192D01*
X52572522Y-59022694D01*
X52582491Y-59027492D01*
X52583284Y-59027979D01*
X52587424Y-59032758D01*
X52590607Y-59039472D01*
X52592791Y-59049194D01*
X52593936Y-59062996D01*
X52593999Y-59081952D01*
X52592941Y-59107133D01*
X52590719Y-59139612D01*
X52587294Y-59180461D01*
X52582623Y-59230754D01*
X52576667Y-59291562D01*
X52571070Y-59347293D01*
X52565859Y-59400262D01*
X52561279Y-59449616D01*
X52557443Y-59493901D01*
X52554466Y-59531664D01*
X52552462Y-59561450D01*
X52551545Y-59581806D01*
X52551829Y-59591279D01*
X52551893Y-59591486D01*
X52559844Y-59599527D01*
X52578251Y-59610860D01*
X52605747Y-59624699D01*
X52624060Y-59633010D01*
X52651821Y-59645630D01*
X52676100Y-59657426D01*
X52694140Y-59667011D01*
X52702842Y-59672668D01*
X52706756Y-59676936D01*
X52709746Y-59682677D01*
X52711764Y-59691051D01*
X52712763Y-59703213D01*
X52712695Y-59720322D01*
X52711514Y-59743534D01*
X52709171Y-59774008D01*
X52705619Y-59812902D01*
X52700811Y-59861371D01*
X52694700Y-59920575D01*
X52691415Y-59951955D01*
X52685269Y-60009916D01*
X52680126Y-60056716D01*
X52675788Y-60093636D01*
X52672056Y-60121959D01*
X52668731Y-60142969D01*
X52665614Y-60157949D01*
X52662507Y-60168181D01*
X52659211Y-60174948D01*
X52656271Y-60178766D01*
X52646412Y-60186775D01*
X52628011Y-60199458D01*
X52603385Y-60215294D01*
X52574855Y-60232767D01*
X52563478Y-60239516D01*
X52535041Y-60256490D01*
X52510517Y-60271615D01*
X52491915Y-60283615D01*
X52481246Y-60291211D01*
X52479580Y-60292834D01*
X52478591Y-60299514D01*
X52476459Y-60317666D01*
X52473282Y-60346321D01*
X52469158Y-60384509D01*
X52464187Y-60431261D01*
X52458467Y-60485609D01*
X52452098Y-60546583D01*
X52445177Y-60613213D01*
X52437804Y-60684530D01*
X52430077Y-60759566D01*
X52422095Y-60837351D01*
X52413957Y-60916915D01*
X52405762Y-60997290D01*
X52397608Y-61077506D01*
X52389594Y-61156595D01*
X52381819Y-61233586D01*
X52374382Y-61307511D01*
X52367381Y-61377400D01*
X52360915Y-61442284D01*
X52355083Y-61501195D01*
X52349984Y-61553162D01*
X52345716Y-61597216D01*
X52342379Y-61632389D01*
X52340070Y-61657711D01*
X52338889Y-61672213D01*
X52338752Y-61674952D01*
X52344399Y-61681539D01*
X52361026Y-61692628D01*
X52388078Y-61707891D01*
X52425002Y-61727004D01*
X52439748Y-61734342D01*
X52483311Y-61756132D01*
X52516736Y-61773700D01*
X52541293Y-61787944D01*
X52558251Y-61799764D01*
X52568881Y-61810058D01*
X52574450Y-61819725D01*
X52576229Y-61829663D01*
X52576248Y-61830975D01*
X52575604Y-61841297D01*
X52573777Y-61862432D01*
X52570923Y-61892761D01*
X52567203Y-61930666D01*
X52562772Y-61974528D01*
X52557789Y-62022729D01*
X52554543Y-62053595D01*
X52548573Y-62109662D01*
X52543648Y-62154638D01*
X52539543Y-62189868D01*
X52536030Y-62216700D01*
X52532885Y-62236479D01*
X52529879Y-62250552D01*
X52526788Y-62260266D01*
X52523386Y-62266968D01*
X52519445Y-62272002D01*
X52517511Y-62274007D01*
X52507853Y-62281835D01*
X52489410Y-62295158D01*
X52463949Y-62312761D01*
X52433234Y-62333431D01*
X52399034Y-62355955D01*
X52384493Y-62365393D01*
X52341388Y-62393649D01*
X52308388Y-62416221D01*
X52284763Y-62433656D01*
X52269777Y-62446501D01*
X52262699Y-62455302D01*
X52262157Y-62456659D01*
X52261056Y-62464404D01*
X52258793Y-62483952D01*
X52255432Y-62514664D01*
X52251039Y-62555901D01*
X52245680Y-62607023D01*
X52239419Y-62667392D01*
X52232323Y-62736368D01*
X52224455Y-62813312D01*
X52215882Y-62897584D01*
X52206669Y-62988545D01*
X52196880Y-63085556D01*
X52186583Y-63187978D01*
X52175841Y-63295171D01*
X52164719Y-63406497D01*
X52153285Y-63521315D01*
X52148682Y-63567627D01*
X52133259Y-63722519D01*
X52118885Y-63866069D01*
X52105569Y-63998187D01*
X52093320Y-64118784D01*
X52082147Y-64227771D01*
X52072061Y-64325059D01*
X52063071Y-64410559D01*
X52055185Y-64484182D01*
X52048414Y-64545840D01*
X52042766Y-64595443D01*
X52038252Y-64632903D01*
X52034879Y-64658130D01*
X52032659Y-64671036D01*
X52032061Y-64672774D01*
X52024624Y-64679261D01*
X52008707Y-64691566D01*
X51986092Y-64708363D01*
X51958563Y-64728327D01*
X51929856Y-64748755D01*
X51899669Y-64770212D01*
X51873028Y-64789463D01*
X51851625Y-64805260D01*
X51837154Y-64816352D01*
X51831353Y-64821420D01*
X51828419Y-64830625D01*
X51825192Y-64847903D01*
X51823219Y-64862478D01*
X51820096Y-64889177D01*
X51816817Y-64916728D01*
X51815502Y-64927612D01*
X51811830Y-64957759D01*
X51649883Y-65072960D01*
X51601693Y-65107040D01*
X51562555Y-65134232D01*
X51531515Y-65155145D01*
X51507618Y-65170386D01*
X51489910Y-65180563D01*
X51477435Y-65186284D01*
X51469239Y-65188157D01*
X51468943Y-65188161D01*
X51453809Y-65185007D01*
X51432880Y-65176752D01*
X51412059Y-65165954D01*
X51392304Y-65155317D01*
X51376317Y-65148420D01*
X51367428Y-65146689D01*
X51367246Y-65146757D01*
X51361305Y-65150703D01*
X51345829Y-65161402D01*
X51321491Y-65178379D01*
X51288962Y-65201164D01*
X51248912Y-65229283D01*
X51202014Y-65262264D01*
X51148938Y-65299634D01*
X51090356Y-65340922D01*
X51026939Y-65385656D01*
X50959358Y-65433362D01*
X50888284Y-65483568D01*
X50814389Y-65535802D01*
X50813768Y-65536241D01*
X50267212Y-65922716D01*
X50205876Y-66037800D01*
X50186888Y-66073050D01*
X50169266Y-66105067D01*
X50154056Y-66132001D01*
X50142307Y-66152001D01*
X50135068Y-66163220D01*
X50134124Y-66164394D01*
X50117447Y-66173776D01*
X50092764Y-66174990D01*
X50061561Y-66168003D01*
X50056101Y-66166136D01*
X50034712Y-66160293D01*
X50007625Y-66155266D01*
X49987081Y-66152771D01*
X49945417Y-66149174D01*
X48733648Y-67004540D01*
X48584106Y-67110059D01*
X48444653Y-67208373D01*
X48315204Y-67299543D01*
X48195671Y-67383629D01*
X48085968Y-67460692D01*
X47986008Y-67530792D01*
X47895706Y-67593988D01*
X47814973Y-67650343D01*
X47743725Y-67699915D01*
X47681874Y-67742765D01*
X47629334Y-67778953D01*
X47586019Y-67808540D01*
X47551841Y-67831586D01*
X47526714Y-67848152D01*
X47510552Y-67858296D01*
X47503269Y-67862081D01*
X47503125Y-67862106D01*
X47500526Y-67861634D01*
X47495942Y-67859680D01*
X47489077Y-67856038D01*
X47479634Y-67850500D01*
X47467315Y-67842860D01*
X47451825Y-67832909D01*
X47432867Y-67820442D01*
X47410144Y-67805251D01*
X47383358Y-67787129D01*
X47352215Y-67765870D01*
X47316416Y-67741265D01*
X47275665Y-67713109D01*
X47229665Y-67681193D01*
X47178120Y-67645312D01*
X47120732Y-67605257D01*
X47057206Y-67560822D01*
X46987244Y-67511800D01*
X46910550Y-67457985D01*
X46826827Y-67399167D01*
X46735778Y-67335142D01*
X46637107Y-67265702D01*
X46530516Y-67190639D01*
X46415709Y-67109747D01*
X46292390Y-67022818D01*
X46160262Y-66929646D01*
X46019027Y-66830024D01*
X45868389Y-66723745D01*
X45708052Y-66610601D01*
X45587425Y-66525468D01*
X43803367Y-65266305D01*
X43936622Y-65266305D01*
X43939748Y-65269431D01*
X43942874Y-65266305D01*
X43939748Y-65263179D01*
X43936622Y-65266305D01*
X43803367Y-65266305D01*
X43690480Y-65186631D01*
X43640071Y-65179581D01*
X43589662Y-65172532D01*
X43557229Y-65122520D01*
X43542224Y-65099906D01*
X43528967Y-65080866D01*
X43519421Y-65068179D01*
X43516594Y-65065031D01*
X43510001Y-65060063D01*
X43494175Y-65048628D01*
X43470119Y-65031438D01*
X43438838Y-65009203D01*
X43401333Y-64982635D01*
X43358609Y-64952447D01*
X43311669Y-64919350D01*
X43261517Y-64884055D01*
X43248953Y-64875223D01*
X43197889Y-64839262D01*
X43149584Y-64805103D01*
X43105075Y-64773490D01*
X43065399Y-64745165D01*
X43031594Y-64720871D01*
X43004698Y-64701353D01*
X42985747Y-64687354D01*
X42975779Y-64679617D01*
X42974904Y-64678838D01*
X42973722Y-64677550D01*
X42972548Y-64675766D01*
X42971346Y-64673141D01*
X42970080Y-64669336D01*
X42968715Y-64664009D01*
X42967215Y-64656817D01*
X42965544Y-64647421D01*
X42963666Y-64635477D01*
X42961546Y-64620646D01*
X42959148Y-64602584D01*
X42956436Y-64580951D01*
X42953375Y-64555405D01*
X42949929Y-64525605D01*
X42946061Y-64491209D01*
X42941737Y-64451876D01*
X42936920Y-64407264D01*
X42931576Y-64357031D01*
X42925667Y-64300837D01*
X42919159Y-64238339D01*
X42912015Y-64169196D01*
X42904201Y-64093067D01*
X42895679Y-64009610D01*
X42886415Y-63918484D01*
X42876373Y-63819347D01*
X42865517Y-63711857D01*
X42853811Y-63595674D01*
X42841219Y-63470455D01*
X42827707Y-63335859D01*
X42813237Y-63191545D01*
X42797775Y-63037171D01*
X42781284Y-62872396D01*
X42763729Y-62696878D01*
X42745075Y-62510275D01*
X42725285Y-62312246D01*
X42704323Y-62102450D01*
X42682766Y-61886662D01*
X42664235Y-61701093D01*
X42646021Y-61518539D01*
X42628162Y-61339403D01*
X42610698Y-61164084D01*
X42593669Y-60992983D01*
X42577114Y-60826501D01*
X42561072Y-60665039D01*
X42545584Y-60508997D01*
X42530689Y-60358776D01*
X42516426Y-60214776D01*
X42502835Y-60077399D01*
X42489955Y-59947045D01*
X42477827Y-59824115D01*
X42466488Y-59709010D01*
X42455980Y-59602130D01*
X42446342Y-59503875D01*
X42437613Y-59414648D01*
X42429833Y-59334847D01*
X42423041Y-59264875D01*
X42417276Y-59205132D01*
X42412580Y-59156018D01*
X42410874Y-59137922D01*
X42495434Y-59137922D01*
X42495912Y-59144205D01*
X42497575Y-59162533D01*
X42500385Y-59192508D01*
X42504302Y-59233733D01*
X42509289Y-59285809D01*
X42515305Y-59348339D01*
X42522313Y-59420925D01*
X42530273Y-59503169D01*
X42539148Y-59594673D01*
X42548897Y-59695040D01*
X42559483Y-59803871D01*
X42570866Y-59920768D01*
X42583008Y-60045334D01*
X42595870Y-60177171D01*
X42609413Y-60315881D01*
X42623599Y-60461067D01*
X42638389Y-60612329D01*
X42653743Y-60769271D01*
X42669624Y-60931495D01*
X42685992Y-61098602D01*
X42702808Y-61270195D01*
X42720035Y-61445876D01*
X42737632Y-61625247D01*
X42755562Y-61807911D01*
X42761828Y-61871724D01*
X42779876Y-62055536D01*
X42797614Y-62236237D01*
X42815002Y-62413428D01*
X42832002Y-62586707D01*
X42848574Y-62755676D01*
X42864679Y-62919935D01*
X42880278Y-63079083D01*
X42895333Y-63232721D01*
X42909803Y-63380448D01*
X42923650Y-63521865D01*
X42936834Y-63656572D01*
X42949317Y-63784169D01*
X42961060Y-63904255D01*
X42972023Y-64016432D01*
X42982167Y-64120299D01*
X42991453Y-64215455D01*
X42999842Y-64301503D01*
X43007295Y-64378040D01*
X43013772Y-64444668D01*
X43019235Y-64500986D01*
X43023645Y-64546595D01*
X43026962Y-64581094D01*
X43029148Y-64604085D01*
X43030163Y-64615166D01*
X43030234Y-64616145D01*
X43033370Y-64622217D01*
X43043162Y-64632162D01*
X43060318Y-64646536D01*
X43085544Y-64665893D01*
X43119550Y-64690789D01*
X43163043Y-64721778D01*
X43181717Y-64734924D01*
X43222575Y-64763618D01*
X43262316Y-64791536D01*
X43299158Y-64817424D01*
X43331319Y-64840032D01*
X43357018Y-64858108D01*
X43374474Y-64870398D01*
X43375900Y-64871403D01*
X43395041Y-64884166D01*
X43407941Y-64891253D01*
X43413051Y-64891876D01*
X43412579Y-64890158D01*
X43407387Y-64881315D01*
X43396757Y-64863809D01*
X43381881Y-64839579D01*
X43363947Y-64810565D01*
X43346446Y-64782399D01*
X43327222Y-64751053D01*
X43310552Y-64722953D01*
X43297498Y-64699967D01*
X43289122Y-64683960D01*
X43286462Y-64677025D01*
X43288044Y-64666502D01*
X43292157Y-64648229D01*
X43297002Y-64629550D01*
X43302491Y-64603037D01*
X43305783Y-64570324D01*
X43307096Y-64528815D01*
X43307121Y-64509869D01*
X43306522Y-64498010D01*
X43304822Y-64474311D01*
X43302076Y-64439380D01*
X43298340Y-64393824D01*
X43293668Y-64338254D01*
X43288117Y-64273278D01*
X43281741Y-64199504D01*
X43274595Y-64117541D01*
X43266736Y-64027997D01*
X43258219Y-63931481D01*
X43249098Y-63828603D01*
X43239430Y-63719969D01*
X43229269Y-63606190D01*
X43218671Y-63487873D01*
X43207692Y-63365628D01*
X43196386Y-63240063D01*
X43184809Y-63111786D01*
X43173016Y-62981406D01*
X43161063Y-62849532D01*
X43149005Y-62716772D01*
X43136897Y-62583736D01*
X43124796Y-62451031D01*
X43112755Y-62319266D01*
X43100830Y-62189050D01*
X43089078Y-62060992D01*
X43077552Y-61935700D01*
X43066309Y-61813783D01*
X43055404Y-61695849D01*
X43044892Y-61582507D01*
X43034828Y-61474366D01*
X43025269Y-61372034D01*
X43016268Y-61276120D01*
X43007883Y-61187233D01*
X43000167Y-61105981D01*
X42993176Y-61032972D01*
X42986966Y-60968816D01*
X42981592Y-60914121D01*
X42977109Y-60869496D01*
X42973573Y-60835548D01*
X42971038Y-60812888D01*
X42970555Y-60808958D01*
X42963588Y-60756790D01*
X42955194Y-60698500D01*
X42945750Y-60636361D01*
X42935634Y-60572649D01*
X42925222Y-60509640D01*
X42914892Y-60449610D01*
X42905020Y-60394832D01*
X42900287Y-60370087D01*
X42988694Y-60370087D01*
X42988728Y-60376955D01*
X42990621Y-60394554D01*
X42994149Y-60421286D01*
X42999089Y-60455556D01*
X43005219Y-60495764D01*
X43012314Y-60540314D01*
X43013497Y-60547571D01*
X43021570Y-60597693D01*
X43029503Y-60648290D01*
X43036899Y-60696724D01*
X43043359Y-60740356D01*
X43048486Y-60776549D01*
X43051508Y-60799581D01*
X43053710Y-60819236D01*
X43056907Y-60850326D01*
X43061045Y-60892244D01*
X43066071Y-60944382D01*
X43071930Y-61006133D01*
X43078568Y-61076889D01*
X43085931Y-61156044D01*
X43093965Y-61242990D01*
X43102615Y-61337120D01*
X43111829Y-61437825D01*
X43121551Y-61544499D01*
X43131728Y-61656534D01*
X43142305Y-61773324D01*
X43153228Y-61894260D01*
X43164444Y-62018735D01*
X43175898Y-62146142D01*
X43187535Y-62275874D01*
X43199303Y-62407322D01*
X43211147Y-62539881D01*
X43223013Y-62672941D01*
X43234846Y-62805897D01*
X43246593Y-62938140D01*
X43258199Y-63069063D01*
X43269611Y-63198059D01*
X43280774Y-63324521D01*
X43291635Y-63447840D01*
X43302138Y-63567411D01*
X43312231Y-63682624D01*
X43321858Y-63792874D01*
X43330967Y-63897552D01*
X43339502Y-63996051D01*
X43347410Y-64087764D01*
X43354636Y-64172084D01*
X43361127Y-64248402D01*
X43366829Y-64316112D01*
X43371686Y-64374607D01*
X43375646Y-64423278D01*
X43378654Y-64461519D01*
X43380656Y-64488722D01*
X43381598Y-64504280D01*
X43381667Y-64506743D01*
X43381151Y-64541939D01*
X43379471Y-64577452D01*
X43376902Y-64608777D01*
X43374241Y-64628648D01*
X43366449Y-64672409D01*
X43492836Y-64875584D01*
X43521390Y-64921380D01*
X43548149Y-64964093D01*
X43572334Y-65002497D01*
X43593166Y-65035361D01*
X43609865Y-65061457D01*
X43621653Y-65079557D01*
X43627749Y-65088432D01*
X43628112Y-65088878D01*
X43639149Y-65095225D01*
X43659597Y-65101536D01*
X43685224Y-65106673D01*
X43703764Y-65110701D01*
X43732072Y-65118246D01*
X43768114Y-65128699D01*
X43809857Y-65141451D01*
X43855265Y-65155894D01*
X43902304Y-65171419D01*
X43908491Y-65173505D01*
X44108945Y-65238009D01*
X44301992Y-65293453D01*
X44488616Y-65340047D01*
X44669801Y-65378001D01*
X44846529Y-65407524D01*
X45019784Y-65428826D01*
X45158798Y-65440233D01*
X45190055Y-65441629D01*
X45231078Y-65442589D01*
X45279138Y-65443127D01*
X45331507Y-65443258D01*
X45385455Y-65442995D01*
X45438255Y-65442353D01*
X45487176Y-65441347D01*
X45529490Y-65439990D01*
X45562469Y-65438297D01*
X45565148Y-65438109D01*
X45697795Y-65424703D01*
X45830953Y-65403850D01*
X45962474Y-65376106D01*
X46090213Y-65342025D01*
X46212022Y-65302164D01*
X46325755Y-65257076D01*
X46400510Y-65222153D01*
X46427605Y-65207949D01*
X46458904Y-65190524D01*
X46492702Y-65170940D01*
X46527290Y-65150259D01*
X46560965Y-65129545D01*
X46592018Y-65109859D01*
X46618744Y-65092263D01*
X46639437Y-65077821D01*
X46652390Y-65067594D01*
X46656042Y-65063044D01*
X46653617Y-65055573D01*
X46646750Y-65038216D01*
X46636055Y-65012374D01*
X46622142Y-64979443D01*
X46605626Y-64940821D01*
X46587119Y-64897908D01*
X46567233Y-64852101D01*
X46546580Y-64804798D01*
X46525774Y-64757398D01*
X46505426Y-64711298D01*
X46486149Y-64667896D01*
X46468557Y-64628591D01*
X46453260Y-64594780D01*
X46440873Y-64567863D01*
X46432007Y-64549236D01*
X46427275Y-64540299D01*
X46426763Y-64539719D01*
X46419683Y-64542450D01*
X46404679Y-64551384D01*
X46383811Y-64565199D01*
X46359141Y-64582576D01*
X46353835Y-64586433D01*
X46276372Y-64638417D01*
X46188823Y-64688943D01*
X46093597Y-64736905D01*
X45993105Y-64781195D01*
X45889758Y-64820705D01*
X45785968Y-64854328D01*
X45746443Y-64865457D01*
X45633795Y-64893125D01*
X45521667Y-64915081D01*
X45407595Y-64931623D01*
X45289118Y-64943046D01*
X45163773Y-64949649D01*
X45030642Y-64951727D01*
X44832074Y-64946430D01*
X44637918Y-64930456D01*
X44446137Y-64903513D01*
X44254698Y-64865310D01*
X44061563Y-64815554D01*
X44043066Y-64810220D01*
X43999452Y-64797155D01*
X43953490Y-64782730D01*
X43906848Y-64767531D01*
X43861196Y-64752146D01*
X43818203Y-64737164D01*
X43779540Y-64723171D01*
X43746875Y-64710756D01*
X43721879Y-64700506D01*
X43706220Y-64693009D01*
X43702130Y-64690211D01*
X43695914Y-64678842D01*
X43690920Y-64660996D01*
X43690247Y-64656921D01*
X43827308Y-64656921D01*
X43835826Y-64662684D01*
X43855032Y-64670987D01*
X43883468Y-64681403D01*
X43919674Y-64693504D01*
X43962193Y-64706863D01*
X44009567Y-64721052D01*
X44060337Y-64735645D01*
X44113045Y-64750213D01*
X44166233Y-64764329D01*
X44218442Y-64777566D01*
X44268214Y-64789496D01*
X44314092Y-64799692D01*
X44315187Y-64799923D01*
X44481437Y-64830699D01*
X44649768Y-64853573D01*
X44817855Y-64868385D01*
X44983375Y-64874971D01*
X45144004Y-64873170D01*
X45262923Y-64865963D01*
X45421438Y-64847905D01*
X45576659Y-64820775D01*
X45726699Y-64784994D01*
X45869668Y-64740984D01*
X45940240Y-64715122D01*
X45984260Y-64697736D01*
X46018474Y-64683584D01*
X46042573Y-64672832D01*
X46056247Y-64665651D01*
X46059187Y-64662209D01*
X46051083Y-64662675D01*
X46031625Y-64667217D01*
X46024636Y-64669096D01*
X46001830Y-64674425D01*
X45968895Y-64680873D01*
X45928118Y-64688089D01*
X45881785Y-64695722D01*
X45832185Y-64703422D01*
X45781603Y-64710835D01*
X45732327Y-64717612D01*
X45686645Y-64723402D01*
X45646843Y-64727851D01*
X45633915Y-64729102D01*
X45571692Y-64733624D01*
X45500367Y-64736836D01*
X45423276Y-64738718D01*
X45343755Y-64739247D01*
X45265137Y-64738404D01*
X45190759Y-64736167D01*
X45123956Y-64732515D01*
X45121289Y-64732325D01*
X44948942Y-64715321D01*
X44772380Y-64689155D01*
X44595043Y-64654531D01*
X44420368Y-64612155D01*
X44251797Y-64562729D01*
X44185936Y-64540829D01*
X44082038Y-64505012D01*
X43953149Y-64578501D01*
X43917162Y-64599288D01*
X43885301Y-64618207D01*
X43859022Y-64634351D01*
X43839782Y-64646811D01*
X43829037Y-64654681D01*
X43827308Y-64656921D01*
X43690247Y-64656921D01*
X43689953Y-64655142D01*
X43688825Y-64644415D01*
X43686725Y-64621836D01*
X43683704Y-64588014D01*
X43679813Y-64543560D01*
X43675102Y-64489083D01*
X43669622Y-64425192D01*
X43663423Y-64352496D01*
X43656556Y-64271606D01*
X43649072Y-64183131D01*
X43641021Y-64087679D01*
X43632453Y-63985862D01*
X43623420Y-63878287D01*
X43613971Y-63765566D01*
X43604158Y-63648306D01*
X43594031Y-63527118D01*
X43583640Y-63402612D01*
X43573037Y-63275396D01*
X43562271Y-63146080D01*
X43551394Y-63015273D01*
X43540455Y-62883586D01*
X43529506Y-62751628D01*
X43518597Y-62620007D01*
X43507779Y-62489334D01*
X43497102Y-62360218D01*
X43486617Y-62233269D01*
X43476374Y-62109096D01*
X43466424Y-61988309D01*
X43456818Y-61871516D01*
X43447606Y-61759328D01*
X43438839Y-61652354D01*
X43430567Y-61551204D01*
X43422841Y-61456486D01*
X43415711Y-61368812D01*
X43409229Y-61288789D01*
X43403444Y-61217027D01*
X43398407Y-61154137D01*
X43394169Y-61100727D01*
X43390781Y-61057407D01*
X43388292Y-61024787D01*
X43386754Y-61003476D01*
X43386316Y-60996504D01*
X43384121Y-60948976D01*
X43382162Y-60893647D01*
X43380567Y-60835220D01*
X43379466Y-60778398D01*
X43379453Y-60777074D01*
X43461545Y-60777074D01*
X43462022Y-60827580D01*
X43463020Y-60879682D01*
X43464544Y-60931825D01*
X43466598Y-60982451D01*
X43467952Y-61009007D01*
X43468923Y-61023621D01*
X43470852Y-61049832D01*
X43473691Y-61087028D01*
X43477387Y-61134593D01*
X43481892Y-61191914D01*
X43487155Y-61258378D01*
X43493126Y-61333369D01*
X43499754Y-61416273D01*
X43506990Y-61506478D01*
X43514784Y-61603367D01*
X43523084Y-61706329D01*
X43531842Y-61814748D01*
X43541007Y-61928010D01*
X43550529Y-62045501D01*
X43560357Y-62166608D01*
X43570442Y-62290716D01*
X43580733Y-62417211D01*
X43591181Y-62545479D01*
X43601734Y-62674906D01*
X43612344Y-62804878D01*
X43622959Y-62934781D01*
X43633529Y-63064001D01*
X43644005Y-63191923D01*
X43654337Y-63317934D01*
X43664473Y-63441419D01*
X43674364Y-63561766D01*
X43683960Y-63678358D01*
X43693211Y-63790583D01*
X43702066Y-63897826D01*
X43710475Y-63999474D01*
X43718389Y-64094911D01*
X43725757Y-64183525D01*
X43732528Y-64264701D01*
X43738653Y-64337825D01*
X43744082Y-64402282D01*
X43748764Y-64457460D01*
X43752649Y-64502743D01*
X43755687Y-64537518D01*
X43757829Y-64561171D01*
X43759022Y-64573087D01*
X43759134Y-64573947D01*
X43762312Y-64590009D01*
X43765764Y-64599165D01*
X43766978Y-64600013D01*
X43773273Y-64596861D01*
X43788841Y-64588273D01*
X43812156Y-64575114D01*
X43841693Y-64558249D01*
X43875925Y-64538544D01*
X43902239Y-64523307D01*
X43943483Y-64499271D01*
X43975137Y-64480497D01*
X43998483Y-64466072D01*
X44014801Y-64455083D01*
X44025374Y-64446617D01*
X44031482Y-64439761D01*
X44034407Y-64433601D01*
X44035326Y-64428474D01*
X44035010Y-64420737D01*
X44033781Y-64401041D01*
X44031677Y-64369893D01*
X44028734Y-64327801D01*
X44024990Y-64275271D01*
X44020483Y-64212812D01*
X44015250Y-64140930D01*
X44009330Y-64060134D01*
X44002759Y-63970930D01*
X43995575Y-63873826D01*
X43987815Y-63769330D01*
X43979518Y-63657948D01*
X43970721Y-63540189D01*
X43961461Y-63416560D01*
X43951776Y-63287568D01*
X43941704Y-63153721D01*
X43931281Y-63015525D01*
X43920547Y-62873490D01*
X43909537Y-62728121D01*
X43905512Y-62675042D01*
X43891334Y-62487999D01*
X43878095Y-62312961D01*
X43865766Y-62149469D01*
X43854313Y-61997062D01*
X43843708Y-61855282D01*
X43833917Y-61723667D01*
X43824912Y-61601759D01*
X43816661Y-61489096D01*
X43809132Y-61385221D01*
X43802295Y-61289672D01*
X43796119Y-61201989D01*
X43790572Y-61121714D01*
X43785625Y-61048385D01*
X43781246Y-60981544D01*
X43777404Y-60920730D01*
X43774068Y-60865483D01*
X43771207Y-60815344D01*
X43768790Y-60769852D01*
X43766787Y-60728548D01*
X43765166Y-60690973D01*
X43763896Y-60656665D01*
X43762947Y-60625165D01*
X43762287Y-60596014D01*
X43761885Y-60568751D01*
X43761711Y-60542917D01*
X43761702Y-60538579D01*
X43761445Y-60508036D01*
X43760826Y-60482571D01*
X43759933Y-60464483D01*
X43758852Y-60456071D01*
X43758586Y-60455746D01*
X43751925Y-60458349D01*
X43735895Y-60465562D01*
X43712357Y-60476491D01*
X43683170Y-60490244D01*
X43650191Y-60505927D01*
X43615282Y-60522646D01*
X43580299Y-60539509D01*
X43547103Y-60555623D01*
X43517553Y-60570093D01*
X43493507Y-60582026D01*
X43476825Y-60590530D01*
X43469365Y-60594710D01*
X43469320Y-60594746D01*
X43466783Y-60602980D01*
X43464736Y-60622152D01*
X43463183Y-60650704D01*
X43462130Y-60687079D01*
X43461582Y-60729722D01*
X43461545Y-60777074D01*
X43379453Y-60777074D01*
X43379006Y-60732289D01*
X43378440Y-60593104D01*
X43305882Y-60550324D01*
X43235929Y-60509137D01*
X43176092Y-60474039D01*
X43125765Y-60444686D01*
X43084342Y-60420735D01*
X43051219Y-60401840D01*
X43025790Y-60387657D01*
X43007449Y-60377844D01*
X42995591Y-60372055D01*
X42989611Y-60369946D01*
X42988694Y-60370087D01*
X42900287Y-60370087D01*
X42895983Y-60347583D01*
X42888159Y-60310137D01*
X42887190Y-60305844D01*
X42884432Y-60293101D01*
X42883385Y-60283982D01*
X43020772Y-60283982D01*
X43025985Y-60288696D01*
X43040645Y-60298656D01*
X43063286Y-60313008D01*
X43092440Y-60330898D01*
X43126639Y-60351474D01*
X43164416Y-60373883D01*
X43204304Y-60397271D01*
X43244835Y-60420785D01*
X43284543Y-60443572D01*
X43321959Y-60464778D01*
X43355617Y-60483551D01*
X43384048Y-60499037D01*
X43405787Y-60510383D01*
X43419364Y-60516736D01*
X43422887Y-60517795D01*
X43432510Y-60515320D01*
X43451586Y-60508124D01*
X43478332Y-60496966D01*
X43510962Y-60482602D01*
X43547691Y-60465792D01*
X43569798Y-60455397D01*
X43607512Y-60437379D01*
X43641487Y-60420937D01*
X43670074Y-60406887D01*
X43691627Y-60396042D01*
X43704497Y-60389218D01*
X43707360Y-60387398D01*
X43706327Y-60380922D01*
X43697081Y-60371665D01*
X43694857Y-60370057D01*
X43681661Y-60361608D01*
X43660148Y-60348616D01*
X43631832Y-60331939D01*
X43598228Y-60312431D01*
X43560853Y-60290950D01*
X43521222Y-60268352D01*
X43480850Y-60245493D01*
X43441252Y-60223229D01*
X43403944Y-60202415D01*
X43370441Y-60183910D01*
X43342259Y-60168567D01*
X43320913Y-60157245D01*
X43307918Y-60150798D01*
X43304706Y-60149626D01*
X43296157Y-60152249D01*
X43278649Y-60159372D01*
X43254046Y-60170112D01*
X43224212Y-60183589D01*
X43191009Y-60198919D01*
X43156301Y-60215222D01*
X43121952Y-60231616D01*
X43089825Y-60247219D01*
X43061783Y-60261149D01*
X43039690Y-60272524D01*
X43025409Y-60280463D01*
X43020772Y-60283982D01*
X42883385Y-60283982D01*
X42883187Y-60282259D01*
X42884456Y-60272582D01*
X42889239Y-60263331D01*
X42898536Y-60253770D01*
X42913348Y-60243162D01*
X42934675Y-60230771D01*
X42963518Y-60215859D01*
X43000877Y-60197689D01*
X43047751Y-60175524D01*
X43092665Y-60154473D01*
X43139486Y-60132776D01*
X43183358Y-60112885D01*
X43222845Y-60095420D01*
X43256507Y-60080998D01*
X43282907Y-60070238D01*
X43300608Y-60063758D01*
X43307518Y-60062072D01*
X43316667Y-60065089D01*
X43335224Y-60073707D01*
X43361838Y-60087165D01*
X43395156Y-60104698D01*
X43433823Y-60125543D01*
X43476489Y-60148936D01*
X43521800Y-60174115D01*
X43568404Y-60200316D01*
X43614947Y-60226776D01*
X43660078Y-60252731D01*
X43702443Y-60277419D01*
X43740689Y-60300075D01*
X43773465Y-60319937D01*
X43799417Y-60336242D01*
X43817192Y-60348225D01*
X43823758Y-60353370D01*
X43845303Y-60372899D01*
X43846836Y-60606558D01*
X43847716Y-60691891D01*
X43849261Y-60768510D01*
X43851619Y-60840193D01*
X43854935Y-60910719D01*
X43859359Y-60983864D01*
X43864237Y-61052768D01*
X43866130Y-61078198D01*
X43868896Y-61115473D01*
X43872490Y-61163968D01*
X43876865Y-61223058D01*
X43881975Y-61292119D01*
X43887774Y-61370526D01*
X43894216Y-61457654D01*
X43901254Y-61552880D01*
X43908844Y-61655577D01*
X43916937Y-61765123D01*
X43925488Y-61880892D01*
X43934452Y-62002259D01*
X43943782Y-62128600D01*
X43953431Y-62259290D01*
X43963354Y-62393705D01*
X43973504Y-62531220D01*
X43983835Y-62671211D01*
X43994302Y-62813052D01*
X43996112Y-62837582D01*
X44006398Y-62976891D01*
X44016462Y-63112997D01*
X44026263Y-63245368D01*
X44035762Y-63373475D01*
X44044920Y-63496784D01*
X44053696Y-63614764D01*
X44062050Y-63726884D01*
X44069943Y-63832612D01*
X44077335Y-63931417D01*
X44084186Y-64022767D01*
X44090456Y-64106130D01*
X44096105Y-64180976D01*
X44101094Y-64246772D01*
X44105382Y-64302986D01*
X44108931Y-64349089D01*
X44111699Y-64384546D01*
X44113647Y-64408829D01*
X44114736Y-64421404D01*
X44114930Y-64423084D01*
X44117865Y-64428685D01*
X44125294Y-64434552D01*
X44138791Y-64441406D01*
X44159931Y-64449968D01*
X44190286Y-64460962D01*
X44219416Y-64471022D01*
X44399493Y-64527126D01*
X44581790Y-64573478D01*
X44765317Y-64610027D01*
X44949089Y-64636723D01*
X45132116Y-64653516D01*
X45313411Y-64660356D01*
X45338817Y-64659906D01*
X46062145Y-64659906D01*
X46065271Y-64663031D01*
X46068397Y-64659906D01*
X46065271Y-64656780D01*
X46062145Y-64659906D01*
X45338817Y-64659906D01*
X45491986Y-64657193D01*
X45666853Y-64643977D01*
X45837024Y-64620658D01*
X46001512Y-64587186D01*
X46085073Y-64565583D01*
X46140499Y-64549340D01*
X46195107Y-64531836D01*
X46247104Y-64513756D01*
X46294699Y-64495787D01*
X46330900Y-64480770D01*
X46504563Y-64480770D01*
X46506239Y-64486974D01*
X46512308Y-64503246D01*
X46522177Y-64528188D01*
X46535254Y-64560404D01*
X46550948Y-64598494D01*
X46568664Y-64641061D01*
X46587812Y-64686707D01*
X46607799Y-64734034D01*
X46628033Y-64781645D01*
X46647920Y-64828141D01*
X46666870Y-64872125D01*
X46684289Y-64912199D01*
X46699586Y-64946964D01*
X46712168Y-64975024D01*
X46721442Y-64994979D01*
X46726817Y-65005433D01*
X46727004Y-65005729D01*
X46736561Y-65011036D01*
X46741894Y-65010298D01*
X46749627Y-65006093D01*
X46766420Y-64996166D01*
X46790746Y-64981447D01*
X46821076Y-64962865D01*
X46855884Y-64941350D01*
X46888233Y-64921213D01*
X46931416Y-64894054D01*
X46964849Y-64872534D01*
X46989544Y-64855926D01*
X47006508Y-64843499D01*
X47016754Y-64834523D01*
X47021290Y-64828271D01*
X47021553Y-64824931D01*
X47017166Y-64813223D01*
X47008603Y-64792226D01*
X46996478Y-64763341D01*
X46981408Y-64727973D01*
X46964006Y-64687522D01*
X46944889Y-64643393D01*
X46924673Y-64596987D01*
X46903971Y-64549706D01*
X46883400Y-64502955D01*
X46863575Y-64458134D01*
X46845112Y-64416646D01*
X46828625Y-64379895D01*
X46814729Y-64349282D01*
X46804041Y-64326210D01*
X46797176Y-64312082D01*
X46794836Y-64308156D01*
X46788529Y-64310831D01*
X46773275Y-64319018D01*
X46750787Y-64331696D01*
X46722780Y-64347848D01*
X46690969Y-64366453D01*
X46657067Y-64386492D01*
X46622789Y-64406945D01*
X46589849Y-64426794D01*
X46559962Y-64445019D01*
X46534841Y-64460599D01*
X46516200Y-64472517D01*
X46505755Y-64479752D01*
X46504563Y-64480770D01*
X46330900Y-64480770D01*
X46336097Y-64478614D01*
X46369507Y-64462923D01*
X46393136Y-64449401D01*
X46398133Y-64445805D01*
X46408554Y-64438619D01*
X46428105Y-64426004D01*
X46455217Y-64408916D01*
X46488322Y-64388309D01*
X46525849Y-64365141D01*
X46566231Y-64340367D01*
X46607898Y-64314943D01*
X46649282Y-64289825D01*
X46688814Y-64265968D01*
X46724925Y-64244328D01*
X46756045Y-64225861D01*
X46780607Y-64211523D01*
X46797041Y-64202270D01*
X46802274Y-64199590D01*
X46818118Y-64196151D01*
X46834476Y-64201300D01*
X46838875Y-64204368D01*
X46843894Y-64210033D01*
X46849970Y-64219216D01*
X46857539Y-64232839D01*
X46867036Y-64251823D01*
X46878899Y-64277090D01*
X46893564Y-64309561D01*
X46911465Y-64350158D01*
X46933041Y-64399804D01*
X46958726Y-64459418D01*
X46979029Y-64506743D01*
X47003975Y-64565017D01*
X47027700Y-64620543D01*
X47049693Y-64672117D01*
X47069443Y-64718538D01*
X47086438Y-64758603D01*
X47100170Y-64791110D01*
X47110127Y-64814858D01*
X47115799Y-64828643D01*
X47116529Y-64830499D01*
X47126788Y-64857307D01*
X47108656Y-64876688D01*
X47095703Y-64888031D01*
X47073193Y-64904944D01*
X47042346Y-64926660D01*
X47004384Y-64952412D01*
X46960527Y-64981433D01*
X46911996Y-65012955D01*
X46860012Y-65046211D01*
X46805794Y-65080434D01*
X46750565Y-65114857D01*
X46695545Y-65148713D01*
X46641955Y-65181233D01*
X46591015Y-65211652D01*
X46543946Y-65239202D01*
X46501969Y-65263116D01*
X46466305Y-65282626D01*
X46446184Y-65293034D01*
X46307340Y-65355681D01*
X46161033Y-65408553D01*
X46007649Y-65451611D01*
X45847574Y-65484814D01*
X45681193Y-65508120D01*
X45508892Y-65521490D01*
X45331057Y-65524880D01*
X45148074Y-65518252D01*
X44960329Y-65501564D01*
X44768207Y-65474774D01*
X44754705Y-65472537D01*
X44652511Y-65454027D01*
X44544546Y-65431913D01*
X44433816Y-65406932D01*
X44323324Y-65379824D01*
X44216073Y-65351327D01*
X44115067Y-65322182D01*
X44023309Y-65293126D01*
X44017035Y-65291022D01*
X43990892Y-65282474D01*
X43969500Y-65275963D01*
X43955376Y-65272224D01*
X43950996Y-65271728D01*
X43955880Y-65275448D01*
X43970626Y-65286094D01*
X43994864Y-65303408D01*
X44028224Y-65327127D01*
X44070336Y-65356992D01*
X44120832Y-65392743D01*
X44179343Y-65434118D01*
X44245498Y-65480857D01*
X44318928Y-65532700D01*
X44399264Y-65589386D01*
X44486137Y-65650655D01*
X44579176Y-65716246D01*
X44678014Y-65785899D01*
X44782279Y-65859353D01*
X44891604Y-65936347D01*
X45005617Y-66016622D01*
X45123951Y-66099916D01*
X45246236Y-66185969D01*
X45372101Y-66274521D01*
X45501178Y-66365311D01*
X45633098Y-66458079D01*
X45700953Y-66505787D01*
X47453113Y-67737642D01*
X47453884Y-66842738D01*
X48160661Y-66842738D01*
X48269501Y-66915850D01*
X48378340Y-66988963D01*
X48382740Y-66890322D01*
X48383474Y-66870299D01*
X48384416Y-66838766D01*
X48385544Y-66796716D01*
X48386836Y-66745140D01*
X48388269Y-66685030D01*
X48389821Y-66617376D01*
X48391469Y-66543172D01*
X48393191Y-66463407D01*
X48394963Y-66379075D01*
X48396765Y-66291166D01*
X48398573Y-66200673D01*
X48399790Y-66138395D01*
X48401593Y-66046031D01*
X48403396Y-65955110D01*
X48405176Y-65866674D01*
X48406912Y-65781763D01*
X48408581Y-65701418D01*
X48410161Y-65626680D01*
X48411631Y-65558590D01*
X48412967Y-65498188D01*
X48414149Y-65446517D01*
X48415152Y-65404615D01*
X48415957Y-65373525D01*
X48416347Y-65360078D01*
X48417313Y-65322446D01*
X48417744Y-65289795D01*
X48417652Y-65263905D01*
X48417048Y-65246559D01*
X48415941Y-65239535D01*
X48415633Y-65239551D01*
X48411841Y-65246416D01*
X48403926Y-65262978D01*
X48392705Y-65287449D01*
X48378996Y-65318040D01*
X48363616Y-65352962D01*
X48359912Y-65361456D01*
X48324631Y-65441745D01*
X48293123Y-65511839D01*
X48265497Y-65571516D01*
X48241862Y-65620555D01*
X48222326Y-65658733D01*
X48206999Y-65685829D01*
X48195988Y-65701619D01*
X48191304Y-65705669D01*
X48177191Y-65712099D01*
X48173074Y-65933061D01*
X48172161Y-65984582D01*
X48171145Y-66046273D01*
X48170060Y-66115803D01*
X48168940Y-66190841D01*
X48167820Y-66269055D01*
X48166733Y-66348113D01*
X48165714Y-66425683D01*
X48164810Y-66498381D01*
X48160661Y-66842738D01*
X47453884Y-66842738D01*
X47455063Y-65473595D01*
X47455200Y-65298643D01*
X47455227Y-65254944D01*
X47820722Y-65254944D01*
X47822560Y-65263103D01*
X47828807Y-65276634D01*
X47832005Y-65282891D01*
X47840224Y-65300190D01*
X47851273Y-65325343D01*
X47863504Y-65354528D01*
X47871954Y-65375484D01*
X47897853Y-65440901D01*
X47988060Y-65498868D01*
X48023114Y-65521276D01*
X48049041Y-65537505D01*
X48067140Y-65548271D01*
X48078712Y-65554292D01*
X48085059Y-65556285D01*
X48087482Y-65554966D01*
X48087644Y-65553762D01*
X48084810Y-65545853D01*
X48077138Y-65529395D01*
X48065869Y-65506761D01*
X48052244Y-65480327D01*
X48037506Y-65452469D01*
X48022896Y-65425560D01*
X48009656Y-65401976D01*
X47999029Y-65384091D01*
X47998418Y-65383120D01*
X47985172Y-65363615D01*
X47971591Y-65347795D01*
X47954765Y-65332971D01*
X47931783Y-65316452D01*
X47912636Y-65303837D01*
X47907405Y-65300478D01*
X48050135Y-65300478D01*
X48053297Y-65308578D01*
X48061574Y-65323757D01*
X48072823Y-65342165D01*
X48084008Y-65361065D01*
X48098772Y-65388020D01*
X48115380Y-65419767D01*
X48132097Y-65453041D01*
X48136017Y-65461066D01*
X48150567Y-65490327D01*
X48163542Y-65515104D01*
X48173859Y-65533426D01*
X48180432Y-65543320D01*
X48181906Y-65544498D01*
X48186463Y-65538913D01*
X48195221Y-65522958D01*
X48207647Y-65497838D01*
X48223212Y-65464757D01*
X48241382Y-65424919D01*
X48261626Y-65379527D01*
X48283413Y-65329786D01*
X48306211Y-65276899D01*
X48329488Y-65222070D01*
X48352712Y-65166504D01*
X48375353Y-65111403D01*
X48396877Y-65057973D01*
X48397928Y-65055334D01*
X48434604Y-64963142D01*
X48460408Y-64963124D01*
X48478202Y-64964886D01*
X48490781Y-64969299D01*
X48492686Y-64970920D01*
X48496026Y-64980562D01*
X48499059Y-64999098D01*
X48501232Y-65022922D01*
X48501552Y-65028746D01*
X48501691Y-65040726D01*
X48501559Y-65064471D01*
X48501169Y-65099245D01*
X48500535Y-65144312D01*
X48499670Y-65198938D01*
X48498588Y-65262388D01*
X48497302Y-65333925D01*
X48495826Y-65412815D01*
X48494173Y-65498322D01*
X48492357Y-65589711D01*
X48490391Y-65686247D01*
X48488290Y-65787194D01*
X48486065Y-65891817D01*
X48483732Y-65999381D01*
X48483494Y-66010238D01*
X48480652Y-66139602D01*
X48478071Y-66257039D01*
X48475739Y-66363121D01*
X48473647Y-66458421D01*
X48471785Y-66543513D01*
X48470141Y-66618969D01*
X48468705Y-66685362D01*
X48467468Y-66743264D01*
X48466418Y-66793249D01*
X48465546Y-66835889D01*
X48464841Y-66871758D01*
X48464293Y-66901427D01*
X48463891Y-66925471D01*
X48463626Y-66944461D01*
X48463486Y-66958970D01*
X48463462Y-66969573D01*
X48463542Y-66976840D01*
X48463718Y-66981345D01*
X48463978Y-66983662D01*
X48464311Y-66984362D01*
X48464709Y-66984018D01*
X48465160Y-66983204D01*
X48465654Y-66982493D01*
X48465947Y-66982352D01*
X48471780Y-66978923D01*
X48486319Y-66969325D01*
X48508050Y-66954587D01*
X48535457Y-66935741D01*
X48567026Y-66913818D01*
X48581575Y-66903652D01*
X48614612Y-66880367D01*
X48644167Y-66859235D01*
X48668702Y-66841382D01*
X48686677Y-66827934D01*
X48696551Y-66820016D01*
X48697904Y-66818623D01*
X48699062Y-66811077D01*
X48700570Y-66792528D01*
X48702346Y-66764466D01*
X48704307Y-66728385D01*
X48706371Y-66685774D01*
X48708455Y-66638128D01*
X48709989Y-66599794D01*
X48712277Y-66541837D01*
X48714293Y-66495096D01*
X48716145Y-66458290D01*
X48717944Y-66430135D01*
X48719799Y-66409352D01*
X48721819Y-66394658D01*
X48724114Y-66384772D01*
X48726794Y-66378412D01*
X48729198Y-66375101D01*
X48735846Y-66369858D01*
X48752068Y-66358046D01*
X48777130Y-66340176D01*
X48810300Y-66316760D01*
X48850847Y-66288309D01*
X48898037Y-66255334D01*
X48951140Y-66218348D01*
X49009421Y-66177861D01*
X49072150Y-66134384D01*
X49138594Y-66088430D01*
X49179884Y-66059931D01*
X49914145Y-66059931D01*
X49920851Y-66061433D01*
X49937072Y-66063996D01*
X49959912Y-66067178D01*
X49972483Y-66068809D01*
X50000130Y-66072691D01*
X50025133Y-66076864D01*
X50043355Y-66080615D01*
X50047501Y-66081738D01*
X50060401Y-66085310D01*
X50070979Y-66086248D01*
X50080450Y-66083298D01*
X50090026Y-66075207D01*
X50100919Y-66060720D01*
X50114343Y-66038584D01*
X50131510Y-66007543D01*
X50146867Y-65978980D01*
X50253360Y-65769222D01*
X50351710Y-65552689D01*
X50442019Y-65329015D01*
X50524389Y-65097834D01*
X50566830Y-64961715D01*
X51213413Y-64961715D01*
X51321252Y-65024766D01*
X51354323Y-65044001D01*
X51383681Y-65060885D01*
X51407638Y-65074461D01*
X51424501Y-65083774D01*
X51432583Y-65087868D01*
X51432972Y-65087977D01*
X51435672Y-65082417D01*
X51438681Y-65067851D01*
X51440423Y-65054901D01*
X51513797Y-65054901D01*
X51514269Y-65065438D01*
X51517504Y-65068530D01*
X51521828Y-65067518D01*
X51529877Y-65062828D01*
X51546375Y-65052028D01*
X51569603Y-65036287D01*
X51597844Y-65016772D01*
X51629377Y-64994649D01*
X51634951Y-64990706D01*
X51672465Y-64963796D01*
X51700598Y-64942750D01*
X51720462Y-64926635D01*
X51733169Y-64914516D01*
X51739832Y-64905459D01*
X51741336Y-64901382D01*
X51742466Y-64892580D01*
X51744656Y-64872165D01*
X51747835Y-64840905D01*
X51751932Y-64799566D01*
X51756876Y-64748915D01*
X51762595Y-64689718D01*
X51769017Y-64622742D01*
X51776072Y-64548754D01*
X51783689Y-64468520D01*
X51791795Y-64382807D01*
X51800320Y-64292381D01*
X51809192Y-64198010D01*
X51818340Y-64100460D01*
X51827692Y-64000497D01*
X51837178Y-63898888D01*
X51846726Y-63796399D01*
X51856265Y-63693798D01*
X51865723Y-63591852D01*
X51875029Y-63491325D01*
X51884111Y-63392986D01*
X51892899Y-63297601D01*
X51901322Y-63205936D01*
X51909307Y-63118758D01*
X51916783Y-63036834D01*
X51923679Y-62960931D01*
X51929925Y-62891814D01*
X51935448Y-62830251D01*
X51940177Y-62777008D01*
X51944041Y-62732852D01*
X51946968Y-62698550D01*
X51948888Y-62674868D01*
X51949728Y-62662573D01*
X51949749Y-62661039D01*
X51948873Y-62655348D01*
X51946705Y-62652105D01*
X51941853Y-62651963D01*
X51932922Y-62655575D01*
X51918518Y-62663593D01*
X51897245Y-62676670D01*
X51867711Y-62695457D01*
X51844818Y-62710145D01*
X51811972Y-62731470D01*
X51782005Y-62751364D01*
X51756814Y-62768534D01*
X51738294Y-62781686D01*
X51728340Y-62789528D01*
X51728069Y-62789789D01*
X51726336Y-62791832D01*
X51724654Y-62794820D01*
X51722967Y-62799302D01*
X51721223Y-62805825D01*
X51719365Y-62814935D01*
X51717339Y-62827181D01*
X51715090Y-62843109D01*
X51712563Y-62863266D01*
X51709705Y-62888200D01*
X51706460Y-62918458D01*
X51702773Y-62954588D01*
X51698590Y-62997135D01*
X51693856Y-63046649D01*
X51688516Y-63103675D01*
X51682515Y-63168762D01*
X51675800Y-63242456D01*
X51668315Y-63325305D01*
X51660005Y-63417856D01*
X51650816Y-63520656D01*
X51640693Y-63634252D01*
X51629581Y-63759192D01*
X51617426Y-63896023D01*
X51617042Y-63900344D01*
X51606690Y-64016873D01*
X51596599Y-64130380D01*
X51586828Y-64240208D01*
X51577434Y-64345701D01*
X51568477Y-64446201D01*
X51560016Y-64541053D01*
X51552110Y-64629600D01*
X51544816Y-64711184D01*
X51538194Y-64785150D01*
X51532303Y-64850841D01*
X51527200Y-64907600D01*
X51522946Y-64954771D01*
X51519598Y-64991697D01*
X51517215Y-65017721D01*
X51515857Y-65032188D01*
X51515628Y-65034458D01*
X51513797Y-65054901D01*
X51440423Y-65054901D01*
X51440788Y-65052190D01*
X51442243Y-65037616D01*
X51444654Y-65011867D01*
X51447954Y-64975711D01*
X51452077Y-64929918D01*
X51456955Y-64875257D01*
X51462522Y-64812496D01*
X51468711Y-64742407D01*
X51475456Y-64665758D01*
X51482691Y-64583317D01*
X51490348Y-64495856D01*
X51498360Y-64404142D01*
X51506662Y-64308946D01*
X51515186Y-64211036D01*
X51523866Y-64111182D01*
X51532636Y-64010153D01*
X51541428Y-63908719D01*
X51550176Y-63807649D01*
X51558813Y-63707712D01*
X51567272Y-63609677D01*
X51575488Y-63514314D01*
X51583393Y-63422393D01*
X51590921Y-63334682D01*
X51598005Y-63251950D01*
X51604578Y-63174968D01*
X51610574Y-63104505D01*
X51615925Y-63041329D01*
X51620567Y-62986210D01*
X51624431Y-62939918D01*
X51627451Y-62903221D01*
X51629561Y-62876890D01*
X51630694Y-62861693D01*
X51630867Y-62858080D01*
X51625344Y-62859063D01*
X51610648Y-62866328D01*
X51587978Y-62879178D01*
X51558538Y-62896919D01*
X51523527Y-62918852D01*
X51500984Y-62933324D01*
X51372827Y-63016272D01*
X51367957Y-63047269D01*
X51366837Y-63057377D01*
X51364788Y-63079071D01*
X51361882Y-63111499D01*
X51358187Y-63153811D01*
X51353774Y-63205155D01*
X51348711Y-63264680D01*
X51343069Y-63331535D01*
X51336918Y-63404867D01*
X51330326Y-63483826D01*
X51323364Y-63567561D01*
X51316102Y-63655220D01*
X51308609Y-63745952D01*
X51300955Y-63838906D01*
X51293209Y-63933229D01*
X51285441Y-64028072D01*
X51277722Y-64122583D01*
X51270120Y-64215909D01*
X51262705Y-64307201D01*
X51255548Y-64395607D01*
X51248717Y-64480275D01*
X51242283Y-64560354D01*
X51236315Y-64634992D01*
X51230882Y-64703340D01*
X51226056Y-64764544D01*
X51221904Y-64817754D01*
X51218497Y-64862119D01*
X51215905Y-64896787D01*
X51214198Y-64920907D01*
X51213444Y-64933627D01*
X51213413Y-64934910D01*
X51213413Y-64961715D01*
X50566830Y-64961715D01*
X50575188Y-64934910D01*
X50598925Y-64858779D01*
X50665728Y-64611485D01*
X50724902Y-64355585D01*
X50776550Y-64090713D01*
X50820774Y-63816503D01*
X50857677Y-63532588D01*
X50872556Y-63395360D01*
X50877333Y-63348809D01*
X50881199Y-63313044D01*
X50884479Y-63286413D01*
X50887503Y-63267260D01*
X50890597Y-63253932D01*
X50894089Y-63244774D01*
X50898306Y-63238132D01*
X50903576Y-63232352D01*
X50905130Y-63230814D01*
X50912367Y-63225457D01*
X50929518Y-63213730D01*
X50955980Y-63196027D01*
X50991150Y-63172740D01*
X51034426Y-63144264D01*
X51085206Y-63110992D01*
X51142886Y-63073315D01*
X51206865Y-63031629D01*
X51276538Y-62986324D01*
X51351305Y-62937796D01*
X51430562Y-62886437D01*
X51513706Y-62832640D01*
X51600135Y-62776798D01*
X51685404Y-62721782D01*
X51774134Y-62664561D01*
X51860002Y-62609169D01*
X51942418Y-62555984D01*
X52020793Y-62505389D01*
X52094539Y-62457764D01*
X52163067Y-62413489D01*
X52225789Y-62372945D01*
X52282114Y-62336514D01*
X52331456Y-62304574D01*
X52373224Y-62277509D01*
X52406830Y-62255697D01*
X52431685Y-62239520D01*
X52447201Y-62229359D01*
X52452782Y-62225600D01*
X52454345Y-62218829D01*
X52456969Y-62201692D01*
X52460413Y-62176256D01*
X52464436Y-62144588D01*
X52468797Y-62108758D01*
X52473255Y-62070834D01*
X52477568Y-62032882D01*
X52481496Y-61996972D01*
X52484797Y-61965172D01*
X52487231Y-61939549D01*
X52488556Y-61922171D01*
X52488727Y-61917296D01*
X52484167Y-61913630D01*
X52479526Y-61914548D01*
X52472361Y-61918594D01*
X52455854Y-61928625D01*
X52431198Y-61943895D01*
X52399588Y-61963656D01*
X52362217Y-61987162D01*
X52320279Y-62013666D01*
X52274968Y-62042421D01*
X52263644Y-62049624D01*
X52205201Y-62086711D01*
X52156385Y-62117258D01*
X52116330Y-62141525D01*
X52084171Y-62159774D01*
X52059044Y-62172265D01*
X52040083Y-62179259D01*
X52026424Y-62181017D01*
X52017201Y-62177800D01*
X52011549Y-62169869D01*
X52008603Y-62157484D01*
X52007499Y-62140907D01*
X52007358Y-62126907D01*
X52007929Y-62116561D01*
X52009583Y-62094692D01*
X52012238Y-62062222D01*
X52013122Y-62051779D01*
X52088628Y-62051779D01*
X52089368Y-62064197D01*
X52093666Y-62066153D01*
X52102694Y-62060948D01*
X52111450Y-62055358D01*
X52129320Y-62044026D01*
X52154840Y-62027877D01*
X52186547Y-62007836D01*
X52222977Y-61984828D01*
X52262668Y-61959778D01*
X52273049Y-61953230D01*
X52313244Y-61927748D01*
X52350420Y-61903939D01*
X52383133Y-61882746D01*
X52409942Y-61865112D01*
X52429404Y-61851979D01*
X52440076Y-61844290D01*
X52441219Y-61843313D01*
X52444802Y-61839316D01*
X52445636Y-61835408D01*
X52442447Y-61830742D01*
X52433964Y-61824470D01*
X52418913Y-61815743D01*
X52396023Y-61803715D01*
X52364020Y-61787537D01*
X52337928Y-61774495D01*
X52222757Y-61717009D01*
X52174473Y-61746806D01*
X52152231Y-61760935D01*
X52133801Y-61773388D01*
X52122024Y-61782214D01*
X52119700Y-61784422D01*
X52117412Y-61792390D01*
X52114240Y-61810548D01*
X52110448Y-61836631D01*
X52106299Y-61868378D01*
X52102056Y-61903528D01*
X52097982Y-61939817D01*
X52094339Y-61974985D01*
X52091391Y-62006768D01*
X52089400Y-62032905D01*
X52088630Y-62051133D01*
X52088628Y-62051779D01*
X52013122Y-62051779D01*
X52015807Y-62020076D01*
X52020207Y-61969177D01*
X52025354Y-61910451D01*
X52031161Y-61844820D01*
X52037546Y-61773208D01*
X52044424Y-61696541D01*
X52051710Y-61615741D01*
X52059319Y-61531733D01*
X52067167Y-61445440D01*
X52075169Y-61357788D01*
X52083241Y-61269699D01*
X52091299Y-61182098D01*
X52099258Y-61095908D01*
X52107032Y-61012055D01*
X52114539Y-60931461D01*
X52121693Y-60855051D01*
X52128409Y-60783749D01*
X52134604Y-60718479D01*
X52140192Y-60660164D01*
X52145089Y-60609730D01*
X52149211Y-60568099D01*
X52152473Y-60536196D01*
X52154791Y-60514945D01*
X52154952Y-60513573D01*
X52156266Y-60493205D01*
X52154526Y-60482173D01*
X52152602Y-60480752D01*
X52144945Y-60483864D01*
X52128711Y-60492436D01*
X52105805Y-60505322D01*
X52078127Y-60521375D01*
X52047581Y-60539451D01*
X52016068Y-60558404D01*
X51985491Y-60577086D01*
X51957752Y-60594353D01*
X51934754Y-60609059D01*
X51918399Y-60620057D01*
X51910588Y-60626202D01*
X51910215Y-60626759D01*
X51909376Y-60633737D01*
X51907505Y-60652448D01*
X51904668Y-60682170D01*
X51900929Y-60722183D01*
X51896355Y-60771764D01*
X51891010Y-60830192D01*
X51884961Y-60896746D01*
X51878272Y-60970703D01*
X51871010Y-61051343D01*
X51863239Y-61137944D01*
X51855025Y-61229783D01*
X51846435Y-61326140D01*
X51837532Y-61426293D01*
X51832403Y-61484124D01*
X51823337Y-61586285D01*
X51814535Y-61685175D01*
X51806063Y-61780061D01*
X51797988Y-61870211D01*
X51790377Y-61954895D01*
X51783295Y-62033379D01*
X51776809Y-62104933D01*
X51770986Y-62168823D01*
X51765892Y-62224319D01*
X51761593Y-62270688D01*
X51758156Y-62307198D01*
X51755648Y-62333118D01*
X51754134Y-62347715D01*
X51753751Y-62350647D01*
X51746921Y-62366058D01*
X51734757Y-62381620D01*
X51733550Y-62382784D01*
X51723500Y-62390601D01*
X51704237Y-62404065D01*
X51676795Y-62422522D01*
X51642210Y-62445323D01*
X51601516Y-62471814D01*
X51555749Y-62501344D01*
X51505944Y-62533260D01*
X51453135Y-62566913D01*
X51398357Y-62601648D01*
X51342647Y-62636816D01*
X51287038Y-62671763D01*
X51232565Y-62705838D01*
X51180264Y-62738389D01*
X51131170Y-62768765D01*
X51086318Y-62796313D01*
X51046742Y-62820382D01*
X51013477Y-62840320D01*
X50987559Y-62855475D01*
X50970023Y-62865196D01*
X50961903Y-62868830D01*
X50961750Y-62868840D01*
X50943582Y-62865094D01*
X50932165Y-62853008D01*
X50926672Y-62831314D01*
X50925876Y-62813693D01*
X50926328Y-62803165D01*
X50927638Y-62780939D01*
X50929754Y-62747785D01*
X50930710Y-62733354D01*
X51008465Y-62733354D01*
X51009311Y-62746398D01*
X51011311Y-62750061D01*
X51017443Y-62746801D01*
X51033166Y-62737416D01*
X51057527Y-62722502D01*
X51089573Y-62702653D01*
X51128350Y-62678463D01*
X51172905Y-62650526D01*
X51222284Y-62619436D01*
X51275535Y-62585789D01*
X51319813Y-62557727D01*
X51380653Y-62518959D01*
X51436382Y-62483131D01*
X51486260Y-62450738D01*
X51529545Y-62422271D01*
X51565495Y-62398225D01*
X51593370Y-62379092D01*
X51612428Y-62365366D01*
X51621927Y-62357539D01*
X51622889Y-62356115D01*
X51617559Y-62350233D01*
X51602953Y-62340190D01*
X51581149Y-62327064D01*
X51554222Y-62311934D01*
X51524249Y-62295879D01*
X51493307Y-62279978D01*
X51463472Y-62265308D01*
X51436821Y-62252948D01*
X51415431Y-62243977D01*
X51401378Y-62239474D01*
X51397833Y-62239219D01*
X51389685Y-62243005D01*
X51372327Y-62252698D01*
X51347099Y-62267495D01*
X51315343Y-62286591D01*
X51278398Y-62309185D01*
X51237604Y-62334473D01*
X51209156Y-62352290D01*
X51160105Y-62383256D01*
X51120708Y-62408444D01*
X51089945Y-62428581D01*
X51066791Y-62444394D01*
X51050226Y-62456610D01*
X51039226Y-62465956D01*
X51032769Y-62473159D01*
X51029833Y-62478946D01*
X51029582Y-62479977D01*
X51027924Y-62492183D01*
X51025705Y-62514096D01*
X51023178Y-62542946D01*
X51020596Y-62575963D01*
X51019759Y-62587521D01*
X51017127Y-62623489D01*
X51014430Y-62658328D01*
X51011949Y-62688527D01*
X51009966Y-62710571D01*
X51009610Y-62714114D01*
X51008465Y-62733354D01*
X50930710Y-62733354D01*
X50932622Y-62704476D01*
X50936189Y-62651782D01*
X50940399Y-62590475D01*
X50945201Y-62521326D01*
X50950540Y-62445106D01*
X50956363Y-62362586D01*
X50962616Y-62274539D01*
X50969246Y-62181734D01*
X50971357Y-62152340D01*
X51445172Y-62152340D01*
X51445551Y-62162296D01*
X51446539Y-62166634D01*
X51446642Y-62166753D01*
X51453942Y-62171505D01*
X51470163Y-62180734D01*
X51493241Y-62193358D01*
X51521112Y-62208297D01*
X51551712Y-62224472D01*
X51582977Y-62240803D01*
X51612843Y-62256208D01*
X51639247Y-62269608D01*
X51660125Y-62279922D01*
X51673412Y-62286071D01*
X51677003Y-62287322D01*
X51680105Y-62281813D01*
X51683404Y-62267652D01*
X51684909Y-62257752D01*
X51686133Y-62246208D01*
X51688320Y-62223361D01*
X51691389Y-62190142D01*
X51695259Y-62147483D01*
X51699850Y-62096315D01*
X51705082Y-62037569D01*
X51710872Y-61972176D01*
X51717141Y-61901069D01*
X51723807Y-61825178D01*
X51730790Y-61745434D01*
X51738009Y-61662769D01*
X51745383Y-61578115D01*
X51752831Y-61492402D01*
X51760274Y-61406563D01*
X51767629Y-61321527D01*
X51774815Y-61238227D01*
X51781754Y-61157595D01*
X51788362Y-61080560D01*
X51794561Y-61008056D01*
X51800268Y-60941012D01*
X51805403Y-60880361D01*
X51809885Y-60827034D01*
X51813634Y-60781961D01*
X51816569Y-60746075D01*
X51818608Y-60720307D01*
X51819672Y-60705588D01*
X51819812Y-60702638D01*
X51818361Y-60688191D01*
X51814794Y-60680985D01*
X51814047Y-60680802D01*
X51807240Y-60683869D01*
X51791300Y-60692470D01*
X51767811Y-60705706D01*
X51738360Y-60722675D01*
X51704535Y-60742477D01*
X51684328Y-60754435D01*
X51636120Y-60783585D01*
X51598972Y-60807198D01*
X51572771Y-60825350D01*
X51557404Y-60838117D01*
X51553194Y-60843519D01*
X51551707Y-60851764D01*
X51549297Y-60871629D01*
X51546043Y-60902272D01*
X51542020Y-60942849D01*
X51537306Y-60992518D01*
X51531977Y-61050436D01*
X51526109Y-61115760D01*
X51519780Y-61187647D01*
X51513066Y-61265254D01*
X51506044Y-61347738D01*
X51498791Y-61434257D01*
X51492600Y-61509130D01*
X51483649Y-61618485D01*
X51475746Y-61715953D01*
X51468850Y-61802105D01*
X51462921Y-61877512D01*
X51457921Y-61942742D01*
X51453808Y-61998366D01*
X51450544Y-62044954D01*
X51448088Y-62083075D01*
X51446400Y-62113300D01*
X51445442Y-62136199D01*
X51445172Y-62152340D01*
X50971357Y-62152340D01*
X50976198Y-62084944D01*
X50983420Y-61984940D01*
X50985245Y-61959742D01*
X50992473Y-61859750D01*
X50999410Y-61763224D01*
X51006005Y-61670893D01*
X51012207Y-61583491D01*
X51017965Y-61501749D01*
X51023231Y-61426398D01*
X51027952Y-61358170D01*
X51032078Y-61297796D01*
X51035559Y-61246009D01*
X51038344Y-61203540D01*
X51040383Y-61171121D01*
X51041625Y-61149483D01*
X51042019Y-61139358D01*
X51041962Y-61138673D01*
X51036084Y-61140973D01*
X51020990Y-61148843D01*
X50998199Y-61161434D01*
X50969228Y-61177899D01*
X50935593Y-61197392D01*
X50912263Y-61211098D01*
X50785183Y-61286143D01*
X50780400Y-61328870D01*
X50779407Y-61340235D01*
X50777639Y-61363308D01*
X50775149Y-61397318D01*
X50771991Y-61441497D01*
X50768217Y-61495077D01*
X50763880Y-61557288D01*
X50759035Y-61627362D01*
X50753733Y-61704529D01*
X50748028Y-61788022D01*
X50741973Y-61877070D01*
X50735620Y-61970906D01*
X50729024Y-62068760D01*
X50722238Y-62169863D01*
X50719389Y-62212428D01*
X50711323Y-62332864D01*
X50704021Y-62441439D01*
X50697434Y-62538772D01*
X50691514Y-62625479D01*
X50686212Y-62702177D01*
X50681480Y-62769483D01*
X50677267Y-62828015D01*
X50673527Y-62878389D01*
X50670209Y-62921222D01*
X50667266Y-62957130D01*
X50664649Y-62986732D01*
X50662308Y-63010644D01*
X50660196Y-63029483D01*
X50658264Y-63043866D01*
X50656462Y-63054410D01*
X50654743Y-63061732D01*
X50653056Y-63066448D01*
X50651797Y-63068630D01*
X50644337Y-63075022D01*
X50627388Y-63087349D01*
X50602039Y-63104885D01*
X50569380Y-63126899D01*
X50530502Y-63152665D01*
X50486494Y-63181453D01*
X50438446Y-63212537D01*
X50388971Y-63244217D01*
X50338164Y-63276660D01*
X50290393Y-63307302D01*
X50246734Y-63335443D01*
X50208266Y-63360382D01*
X50176066Y-63381417D01*
X50151210Y-63397850D01*
X50134777Y-63408977D01*
X50127872Y-63414070D01*
X50123781Y-63421227D01*
X50120099Y-63434702D01*
X50116722Y-63455491D01*
X50113543Y-63484589D01*
X50110459Y-63522995D01*
X50107364Y-63571702D01*
X50104153Y-63631709D01*
X50103466Y-63645594D01*
X50101965Y-63684489D01*
X50101722Y-63713353D01*
X50102722Y-63731389D01*
X50104953Y-63737799D01*
X50105030Y-63737804D01*
X50111236Y-63734501D01*
X50127003Y-63724985D01*
X50151400Y-63709846D01*
X50183498Y-63689672D01*
X50222367Y-63665052D01*
X50267076Y-63636576D01*
X50316696Y-63604832D01*
X50370295Y-63570411D01*
X50425815Y-63534629D01*
X50491655Y-63492160D01*
X50547862Y-63456012D01*
X50595283Y-63425680D01*
X50634763Y-63400662D01*
X50667147Y-63380456D01*
X50693280Y-63364557D01*
X50714007Y-63352464D01*
X50730175Y-63343672D01*
X50742627Y-63337680D01*
X50752210Y-63333983D01*
X50759769Y-63332080D01*
X50766150Y-63331466D01*
X50767261Y-63331454D01*
X50784170Y-63332166D01*
X50792642Y-63336241D01*
X50796738Y-63346588D01*
X50798145Y-63353584D01*
X50799550Y-63365032D01*
X50798144Y-63375014D01*
X50792607Y-63384887D01*
X50781617Y-63396007D01*
X50763854Y-63409730D01*
X50737996Y-63427413D01*
X50705719Y-63448475D01*
X50672406Y-63470843D01*
X50647975Y-63489060D01*
X50633208Y-63502510D01*
X50628912Y-63509234D01*
X50627470Y-63518933D01*
X50624920Y-63539147D01*
X50621489Y-63567956D01*
X50617402Y-63603444D01*
X50612885Y-63643692D01*
X50610095Y-63669037D01*
X50578043Y-63929851D01*
X50539954Y-64180354D01*
X50495614Y-64421295D01*
X50444813Y-64653425D01*
X50387339Y-64877494D01*
X50322980Y-65094253D01*
X50251525Y-65304453D01*
X50172762Y-65508843D01*
X50086479Y-65708175D01*
X49992466Y-65903198D01*
X49965284Y-65956068D01*
X49948567Y-65988444D01*
X49934228Y-66016781D01*
X49923135Y-66039317D01*
X49916155Y-66054290D01*
X49914145Y-66059931D01*
X49179884Y-66059931D01*
X49208021Y-66040510D01*
X49225876Y-66028201D01*
X49428851Y-65888310D01*
X49602154Y-65888310D01*
X49602186Y-65897161D01*
X49607114Y-65903601D01*
X49616592Y-65910973D01*
X49634029Y-65922868D01*
X49657505Y-65938117D01*
X49685099Y-65955548D01*
X49714891Y-65973989D01*
X49744962Y-65992269D01*
X49773390Y-66009217D01*
X49798256Y-66023663D01*
X49817639Y-66034433D01*
X49829620Y-66040358D01*
X49832497Y-66041079D01*
X49836888Y-66034775D01*
X49845997Y-66019171D01*
X49858814Y-65996082D01*
X49874331Y-65967322D01*
X49890568Y-65936565D01*
X49993622Y-65728071D01*
X50087988Y-65513388D01*
X50173799Y-65292062D01*
X50251185Y-65063638D01*
X50320278Y-64827660D01*
X50381210Y-64583673D01*
X50434110Y-64331223D01*
X50479112Y-64069853D01*
X50516345Y-63799109D01*
X50522825Y-63744198D01*
X50529018Y-63688865D01*
X50533541Y-63644953D01*
X50536454Y-63611499D01*
X50537817Y-63587541D01*
X50537692Y-63572118D01*
X50536139Y-63564267D01*
X50534237Y-63562761D01*
X50526353Y-63566164D01*
X50510041Y-63575586D01*
X50487057Y-63589847D01*
X50459157Y-63607765D01*
X50428098Y-63628160D01*
X50395634Y-63649850D01*
X50363523Y-63671655D01*
X50333521Y-63692395D01*
X50307382Y-63710887D01*
X50286864Y-63725951D01*
X50273722Y-63736406D01*
X50269701Y-63740656D01*
X50267147Y-63751498D01*
X50263538Y-63771950D01*
X50259328Y-63799208D01*
X50254974Y-63830471D01*
X50254418Y-63834703D01*
X50241813Y-63923533D01*
X50226060Y-64021490D01*
X50207683Y-64125748D01*
X50187203Y-64233483D01*
X50165142Y-64341867D01*
X50142022Y-64448076D01*
X50137220Y-64469234D01*
X50093848Y-64644568D01*
X50043484Y-64822764D01*
X49987288Y-65000189D01*
X49926423Y-65173209D01*
X49862051Y-65338188D01*
X49850357Y-65366330D01*
X49805765Y-65472606D01*
X49797329Y-65597636D01*
X49794560Y-65636359D01*
X49791780Y-65671156D01*
X49789175Y-65699970D01*
X49786933Y-65720743D01*
X49785243Y-65731418D01*
X49785040Y-65732045D01*
X49778745Y-65738644D01*
X49763901Y-65750708D01*
X49742390Y-65766811D01*
X49716092Y-65785524D01*
X49699856Y-65796693D01*
X49664744Y-65821159D01*
X49639151Y-65840505D01*
X49621756Y-65855839D01*
X49611238Y-65868267D01*
X49608304Y-65873397D01*
X49602154Y-65888310D01*
X49428851Y-65888310D01*
X49711520Y-65693494D01*
X49715475Y-65645565D01*
X49716159Y-65634814D01*
X49717414Y-65612438D01*
X49719201Y-65579198D01*
X49721482Y-65535858D01*
X49724219Y-65483179D01*
X49727375Y-65421924D01*
X49730911Y-65352855D01*
X49734789Y-65276735D01*
X49738972Y-65194326D01*
X49743421Y-65106390D01*
X49748098Y-65013690D01*
X49752965Y-64916989D01*
X49757984Y-64817047D01*
X49763117Y-64714629D01*
X49768327Y-64610496D01*
X49773574Y-64505411D01*
X49778822Y-64400136D01*
X49784032Y-64295433D01*
X49789166Y-64192065D01*
X49794186Y-64090794D01*
X49799054Y-63992382D01*
X49803732Y-63897592D01*
X49808182Y-63807187D01*
X49812366Y-63721928D01*
X49816246Y-63642579D01*
X49816472Y-63637927D01*
X49901441Y-63637927D01*
X49901676Y-63647157D01*
X49903716Y-63690917D01*
X49953728Y-63720588D01*
X49975963Y-63733541D01*
X49994049Y-63743634D01*
X50005386Y-63749436D01*
X50007751Y-63750283D01*
X50012137Y-63745057D01*
X50015162Y-63736241D01*
X50016442Y-63726178D01*
X50018190Y-63705564D01*
X50020273Y-63676340D01*
X50022559Y-63640444D01*
X50024914Y-63599815D01*
X50026312Y-63573840D01*
X50028710Y-63526668D01*
X50030335Y-63490395D01*
X50031162Y-63463438D01*
X50031165Y-63444215D01*
X50030320Y-63431144D01*
X50028604Y-63422643D01*
X50025990Y-63417129D01*
X50023823Y-63414426D01*
X50014151Y-63406737D01*
X49997743Y-63396258D01*
X49977518Y-63384558D01*
X49956392Y-63373207D01*
X49937284Y-63363776D01*
X49923109Y-63357834D01*
X49916857Y-63356863D01*
X49915258Y-63364172D01*
X49913373Y-63381829D01*
X49911313Y-63407688D01*
X49909190Y-63439600D01*
X49907118Y-63475418D01*
X49905208Y-63512995D01*
X49903574Y-63550181D01*
X49902326Y-63584831D01*
X49901577Y-63614795D01*
X49901441Y-63637927D01*
X49816472Y-63637927D01*
X49819784Y-63569900D01*
X49822942Y-63504656D01*
X49825681Y-63447607D01*
X49827965Y-63399517D01*
X49829755Y-63361148D01*
X49831012Y-63333262D01*
X49831700Y-63316622D01*
X49831823Y-63312261D01*
X49830464Y-63298893D01*
X49825407Y-63295477D01*
X49821909Y-63296411D01*
X49815264Y-63300234D01*
X49798806Y-63310244D01*
X49773300Y-63325966D01*
X49739511Y-63346921D01*
X49698203Y-63372632D01*
X49650142Y-63402622D01*
X49596092Y-63436413D01*
X49536819Y-63473529D01*
X49473088Y-63513491D01*
X49405663Y-63555823D01*
X49335310Y-63600047D01*
X49333244Y-63601346D01*
X49262720Y-63645636D01*
X49195012Y-63688023D01*
X49130891Y-63728032D01*
X49071133Y-63765184D01*
X49016511Y-63799005D01*
X48967799Y-63829016D01*
X48925771Y-63854742D01*
X48891200Y-63875705D01*
X48864860Y-63891429D01*
X48847526Y-63901437D01*
X48839970Y-63905252D01*
X48839921Y-63905263D01*
X48820168Y-63903544D01*
X48803888Y-63892653D01*
X48794835Y-63875596D01*
X48794068Y-63868537D01*
X48795631Y-63857913D01*
X48800061Y-63836854D01*
X48806963Y-63806996D01*
X48815946Y-63769977D01*
X48818021Y-63761705D01*
X48906694Y-63761705D01*
X48907745Y-63762540D01*
X48911477Y-63761509D01*
X48918519Y-63758231D01*
X48929498Y-63752321D01*
X48945043Y-63743400D01*
X48965782Y-63731083D01*
X48992345Y-63714990D01*
X49025358Y-63694737D01*
X49065450Y-63669943D01*
X49113251Y-63640225D01*
X49169387Y-63605201D01*
X49234487Y-63564489D01*
X49309180Y-63517706D01*
X49355882Y-63488431D01*
X49422552Y-63446531D01*
X49486030Y-63406443D01*
X49545535Y-63368672D01*
X49600284Y-63333724D01*
X49649496Y-63302103D01*
X49692391Y-63274314D01*
X49728186Y-63250863D01*
X49756100Y-63232254D01*
X49775352Y-63218994D01*
X49785160Y-63211586D01*
X49786280Y-63210238D01*
X49780341Y-63205132D01*
X49765389Y-63195284D01*
X49743442Y-63181834D01*
X49733992Y-63176250D01*
X49910983Y-63176250D01*
X49912320Y-63192959D01*
X49915583Y-63213895D01*
X49920051Y-63235153D01*
X49924998Y-63252826D01*
X49929701Y-63263011D01*
X49930026Y-63263366D01*
X49938763Y-63269764D01*
X49955412Y-63280169D01*
X49977325Y-63293100D01*
X50001858Y-63307072D01*
X50026365Y-63320602D01*
X50048198Y-63332209D01*
X50064712Y-63340407D01*
X50073260Y-63343716D01*
X50073403Y-63343725D01*
X50080035Y-63340524D01*
X50096083Y-63331277D01*
X50120428Y-63316671D01*
X50151952Y-63297394D01*
X50189534Y-63274133D01*
X50232056Y-63247576D01*
X50278399Y-63218409D01*
X50307835Y-63199775D01*
X50355734Y-63169255D01*
X50400199Y-63140663D01*
X50440149Y-63114714D01*
X50474502Y-63092121D01*
X50502177Y-63073599D01*
X50522093Y-63059864D01*
X50533168Y-63051628D01*
X50535121Y-63049606D01*
X50529882Y-63044793D01*
X50515502Y-63035408D01*
X50493986Y-63022543D01*
X50467340Y-63007289D01*
X50437570Y-62990737D01*
X50406682Y-62973980D01*
X50376682Y-62958108D01*
X50349574Y-62944212D01*
X50327365Y-62933385D01*
X50312060Y-62926718D01*
X50306334Y-62925104D01*
X50299378Y-62928290D01*
X50283316Y-62937246D01*
X50259613Y-62951070D01*
X50229735Y-62968859D01*
X50195149Y-62989710D01*
X50157321Y-63012720D01*
X50117717Y-63036988D01*
X50077803Y-63061610D01*
X50039047Y-63085683D01*
X50002913Y-63108306D01*
X49970869Y-63128574D01*
X49944381Y-63145587D01*
X49924914Y-63158440D01*
X49913936Y-63166232D01*
X49912298Y-63167675D01*
X49910983Y-63176250D01*
X49733992Y-63176250D01*
X49716518Y-63165925D01*
X49686635Y-63148701D01*
X49655810Y-63131303D01*
X49626062Y-63114874D01*
X49599408Y-63100558D01*
X49577866Y-63089496D01*
X49563455Y-63082830D01*
X49558728Y-63081392D01*
X49552303Y-63084569D01*
X49536478Y-63093600D01*
X49512472Y-63107739D01*
X49481503Y-63126240D01*
X49444789Y-63148355D01*
X49403549Y-63173338D01*
X49359001Y-63200441D01*
X49312364Y-63228919D01*
X49264856Y-63258023D01*
X49217696Y-63287008D01*
X49172101Y-63315126D01*
X49129290Y-63341631D01*
X49090482Y-63365776D01*
X49056895Y-63386813D01*
X49029748Y-63403997D01*
X49010258Y-63416580D01*
X48999644Y-63423816D01*
X48998260Y-63424939D01*
X48995834Y-63431571D01*
X48990746Y-63448394D01*
X48983512Y-63473503D01*
X48974651Y-63504996D01*
X48964678Y-63540971D01*
X48954113Y-63579525D01*
X48943471Y-63618756D01*
X48933271Y-63656761D01*
X48924029Y-63691637D01*
X48916264Y-63721483D01*
X48910491Y-63744394D01*
X48907229Y-63758470D01*
X48906694Y-63761705D01*
X48818021Y-63761705D01*
X48826617Y-63727431D01*
X48838583Y-63680995D01*
X48844336Y-63659073D01*
X48885644Y-63498792D01*
X48927250Y-63330106D01*
X48968559Y-63155712D01*
X49008974Y-62978304D01*
X49036935Y-62850642D01*
X50349437Y-62850642D01*
X50349535Y-62851168D01*
X50357352Y-62856490D01*
X50373728Y-62866105D01*
X50396726Y-62878986D01*
X50424409Y-62894110D01*
X50454839Y-62910451D01*
X50486079Y-62926984D01*
X50516190Y-62942685D01*
X50543236Y-62956529D01*
X50565279Y-62967490D01*
X50580381Y-62974543D01*
X50586605Y-62976665D01*
X50586659Y-62976601D01*
X50587247Y-62969911D01*
X50588600Y-62951483D01*
X50590667Y-62922053D01*
X50593399Y-62882359D01*
X50596747Y-62833138D01*
X50600661Y-62775129D01*
X50605092Y-62709068D01*
X50609990Y-62635693D01*
X50615307Y-62555742D01*
X50620991Y-62469953D01*
X50626995Y-62379062D01*
X50633269Y-62283807D01*
X50639762Y-62184927D01*
X50641406Y-62159857D01*
X50647915Y-62060239D01*
X50654159Y-61964093D01*
X50660093Y-61872153D01*
X50665670Y-61785155D01*
X50670846Y-61703833D01*
X50675573Y-61628923D01*
X50679806Y-61561159D01*
X50683500Y-61501276D01*
X50686608Y-61450008D01*
X50689085Y-61408091D01*
X50690885Y-61376259D01*
X50691961Y-61355247D01*
X50692269Y-61345790D01*
X50692220Y-61345317D01*
X50686264Y-61347494D01*
X50671457Y-61355189D01*
X50649579Y-61367343D01*
X50622410Y-61382895D01*
X50591731Y-61400786D01*
X50559323Y-61419956D01*
X50526967Y-61439344D01*
X50496442Y-61457892D01*
X50469531Y-61474538D01*
X50448012Y-61488224D01*
X50433668Y-61497889D01*
X50428297Y-61502410D01*
X50427355Y-61510116D01*
X50425789Y-61529221D01*
X50423655Y-61558742D01*
X50421010Y-61597693D01*
X50417913Y-61645090D01*
X50414421Y-61699949D01*
X50410591Y-61761286D01*
X50406481Y-61828115D01*
X50402148Y-61899452D01*
X50397649Y-61974313D01*
X50393043Y-62051714D01*
X50388387Y-62130669D01*
X50383738Y-62210195D01*
X50379153Y-62289306D01*
X50374691Y-62367019D01*
X50370408Y-62442349D01*
X50366363Y-62514312D01*
X50362612Y-62581922D01*
X50359214Y-62644196D01*
X50356225Y-62700149D01*
X50353703Y-62748796D01*
X50351706Y-62789154D01*
X50350291Y-62820237D01*
X50349515Y-62841061D01*
X50349437Y-62850642D01*
X49036935Y-62850642D01*
X49047900Y-62800577D01*
X49084739Y-62625224D01*
X49118896Y-62454942D01*
X49149774Y-62292424D01*
X49163610Y-62215973D01*
X49171017Y-62177522D01*
X49177756Y-62149929D01*
X49184285Y-62131602D01*
X49190761Y-62121264D01*
X49198156Y-62115882D01*
X49215463Y-62104736D01*
X49241797Y-62088362D01*
X49276270Y-62067294D01*
X49317993Y-62042066D01*
X49366080Y-62013215D01*
X49419643Y-61981273D01*
X49477794Y-61946776D01*
X49539646Y-61910260D01*
X49594265Y-61878150D01*
X49658371Y-61840496D01*
X49719412Y-61804564D01*
X49776515Y-61770874D01*
X49828810Y-61739942D01*
X49875424Y-61712287D01*
X49915486Y-61688425D01*
X49948125Y-61668877D01*
X49972470Y-61654158D01*
X49987648Y-61644787D01*
X49992712Y-61641393D01*
X49994811Y-61633747D01*
X49997375Y-61615666D01*
X50000264Y-61589136D01*
X50003338Y-61556144D01*
X50006457Y-61518674D01*
X50009481Y-61478713D01*
X50012270Y-61438247D01*
X50014684Y-61399262D01*
X50016583Y-61363744D01*
X50017827Y-61333679D01*
X50018276Y-61311053D01*
X50017789Y-61297852D01*
X50017115Y-61295365D01*
X50010122Y-61295772D01*
X49999587Y-61300235D01*
X49990721Y-61305216D01*
X49971931Y-61315968D01*
X49943901Y-61332095D01*
X49907319Y-61353198D01*
X49862870Y-61378878D01*
X49811239Y-61408739D01*
X49753113Y-61442381D01*
X49689176Y-61479406D01*
X49620115Y-61519417D01*
X49546616Y-61562015D01*
X49469365Y-61606803D01*
X49389046Y-61653382D01*
X49306347Y-61701354D01*
X49221952Y-61750321D01*
X49136547Y-61799886D01*
X49050819Y-61849649D01*
X48965452Y-61899213D01*
X48881133Y-61948180D01*
X48798548Y-61996151D01*
X48718382Y-62042729D01*
X48641321Y-62087516D01*
X48568051Y-62130113D01*
X48499257Y-62170123D01*
X48435625Y-62207147D01*
X48377842Y-62240787D01*
X48326592Y-62270645D01*
X48282562Y-62296323D01*
X48246437Y-62317424D01*
X48218904Y-62333548D01*
X48200647Y-62344298D01*
X48192353Y-62349276D01*
X48191917Y-62349571D01*
X48190463Y-62356789D01*
X48188984Y-62374377D01*
X48187526Y-62400425D01*
X48186132Y-62433024D01*
X48184846Y-62470266D01*
X48183711Y-62510242D01*
X48182773Y-62551043D01*
X48182075Y-62590761D01*
X48181661Y-62627487D01*
X48181575Y-62659312D01*
X48181861Y-62684328D01*
X48182563Y-62700626D01*
X48183694Y-62706300D01*
X48189605Y-62703202D01*
X48205482Y-62694219D01*
X48230525Y-62679819D01*
X48263931Y-62660470D01*
X48304898Y-62636640D01*
X48352623Y-62608795D01*
X48406306Y-62577404D01*
X48465143Y-62542935D01*
X48528332Y-62505855D01*
X48595072Y-62466632D01*
X48633987Y-62443735D01*
X48715932Y-62395521D01*
X48787812Y-62353307D01*
X48850325Y-62316737D01*
X48904171Y-62285451D01*
X48950052Y-62259092D01*
X48988665Y-62237302D01*
X49020710Y-62219724D01*
X49046889Y-62205999D01*
X49067899Y-62195769D01*
X49084441Y-62188677D01*
X49097214Y-62184364D01*
X49106919Y-62182473D01*
X49114254Y-62182645D01*
X49119920Y-62184524D01*
X49124617Y-62187750D01*
X49128078Y-62190995D01*
X49134963Y-62204625D01*
X49137746Y-62223608D01*
X49135831Y-62241295D01*
X49133118Y-62247302D01*
X49126587Y-62252312D01*
X49110857Y-62262589D01*
X49087545Y-62277131D01*
X49058269Y-62294935D01*
X49024647Y-62314999D01*
X49008671Y-62324415D01*
X48973277Y-62345417D01*
X48941195Y-62364874D01*
X48914123Y-62381720D01*
X48893762Y-62394891D01*
X48881812Y-62403321D01*
X48879708Y-62405195D01*
X48875535Y-62414758D01*
X48870023Y-62434283D01*
X48863746Y-62461379D01*
X48857281Y-62493653D01*
X48853895Y-62512502D01*
X48799636Y-62811252D01*
X48741271Y-63102051D01*
X48678924Y-63384458D01*
X48612719Y-63658032D01*
X48542781Y-63922333D01*
X48469236Y-64176919D01*
X48392208Y-64421349D01*
X48311823Y-64655183D01*
X48228204Y-64877980D01*
X48141476Y-65089299D01*
X48093156Y-65199012D01*
X48078845Y-65231052D01*
X48066550Y-65259257D01*
X48057128Y-65281606D01*
X48051439Y-65296073D01*
X48050135Y-65300478D01*
X47907405Y-65300478D01*
X47877440Y-65281235D01*
X47851650Y-65265304D01*
X47834267Y-65255785D01*
X47824290Y-65252418D01*
X47820722Y-65254944D01*
X47455227Y-65254944D01*
X47455309Y-65123442D01*
X47455326Y-65088341D01*
X47738979Y-65088341D01*
X47738985Y-65089294D01*
X47744576Y-65094207D01*
X47758855Y-65104335D01*
X47780003Y-65118531D01*
X47806202Y-65135649D01*
X47835634Y-65154542D01*
X47866480Y-65174064D01*
X47896924Y-65193068D01*
X47925146Y-65210408D01*
X47949329Y-65224937D01*
X47967654Y-65235508D01*
X47978303Y-65240976D01*
X47980212Y-65241413D01*
X47983768Y-65234944D01*
X47991362Y-65219428D01*
X48001870Y-65197202D01*
X48013906Y-65171185D01*
X48080683Y-65018987D01*
X48146935Y-64855262D01*
X48212352Y-64680987D01*
X48276625Y-64497135D01*
X48339442Y-64304681D01*
X48400495Y-64104602D01*
X48459472Y-63897871D01*
X48516065Y-63685463D01*
X48569963Y-63468354D01*
X48609775Y-63297070D01*
X48624087Y-63232701D01*
X48638734Y-63165110D01*
X48653514Y-63095347D01*
X48668229Y-63024464D01*
X48682677Y-62953514D01*
X48696659Y-62883547D01*
X48709973Y-62815615D01*
X48722421Y-62750770D01*
X48733801Y-62690063D01*
X48743913Y-62634547D01*
X48752557Y-62585271D01*
X48759533Y-62543289D01*
X48764640Y-62509652D01*
X48767678Y-62485411D01*
X48768447Y-62471617D01*
X48767544Y-62468742D01*
X48761168Y-62471820D01*
X48745812Y-62480379D01*
X48723176Y-62493403D01*
X48694964Y-62509877D01*
X48662877Y-62528787D01*
X48628618Y-62549118D01*
X48593889Y-62569854D01*
X48560392Y-62589982D01*
X48529829Y-62608486D01*
X48503904Y-62624351D01*
X48484318Y-62636563D01*
X48472773Y-62644106D01*
X48470563Y-62645795D01*
X48467482Y-62653627D01*
X48462371Y-62672217D01*
X48455582Y-62700051D01*
X48447463Y-62735612D01*
X48438366Y-62777385D01*
X48428638Y-62823854D01*
X48422633Y-62853422D01*
X48363855Y-63132529D01*
X48301484Y-63402450D01*
X48235634Y-63662807D01*
X48166417Y-63913223D01*
X48093950Y-64153320D01*
X48018344Y-64382721D01*
X47939715Y-64601049D01*
X47858177Y-64807925D01*
X47773843Y-65002973D01*
X47772356Y-65006250D01*
X47759600Y-65035004D01*
X47749183Y-65059770D01*
X47742008Y-65078299D01*
X47738979Y-65088341D01*
X47455326Y-65088341D01*
X47455392Y-64948619D01*
X47455448Y-64774799D01*
X47455479Y-64602606D01*
X47455484Y-64432667D01*
X47455465Y-64265605D01*
X47455421Y-64102048D01*
X47455353Y-63942619D01*
X47455262Y-63787944D01*
X47455149Y-63638649D01*
X47455013Y-63495359D01*
X47454855Y-63358698D01*
X47454677Y-63229293D01*
X47454477Y-63107768D01*
X47454257Y-62994748D01*
X47454017Y-62890860D01*
X47453758Y-62796728D01*
X47453480Y-62712977D01*
X47453184Y-62640233D01*
X47452870Y-62579121D01*
X47452829Y-62572410D01*
X47841962Y-62572410D01*
X47956988Y-62638759D01*
X47991443Y-62658482D01*
X48022422Y-62675929D01*
X48048234Y-62690169D01*
X48067184Y-62700274D01*
X48077581Y-62705312D01*
X48078841Y-62705704D01*
X48081814Y-62699944D01*
X48084492Y-62682047D01*
X48086883Y-62651906D01*
X48088998Y-62609414D01*
X48089763Y-62589084D01*
X48091123Y-62546774D01*
X48092294Y-62503849D01*
X48093195Y-62463817D01*
X48093745Y-62430186D01*
X48093878Y-62411553D01*
X48093895Y-62351239D01*
X47974649Y-62284385D01*
X47939784Y-62264995D01*
X47908728Y-62248026D01*
X47883077Y-62234323D01*
X47864426Y-62224734D01*
X47854369Y-62220104D01*
X47853085Y-62219848D01*
X47852333Y-62226453D01*
X47851364Y-62243949D01*
X47850238Y-62270727D01*
X47849017Y-62305179D01*
X47847761Y-62345696D01*
X47846532Y-62390669D01*
X47846364Y-62397288D01*
X47841962Y-62572410D01*
X47452829Y-62572410D01*
X47452742Y-62558416D01*
X47450002Y-62140804D01*
X47907226Y-62140804D01*
X47907367Y-62140968D01*
X47916381Y-62147516D01*
X47933976Y-62158465D01*
X47958092Y-62172679D01*
X47986671Y-62189020D01*
X48017650Y-62206353D01*
X48048972Y-62223539D01*
X48078574Y-62239442D01*
X48104398Y-62252926D01*
X48124384Y-62262852D01*
X48136470Y-62268085D01*
X48138662Y-62268610D01*
X48145118Y-62265542D01*
X48161828Y-62256536D01*
X48188224Y-62241916D01*
X48223739Y-62222006D01*
X48267804Y-62197130D01*
X48319852Y-62167611D01*
X48379314Y-62133775D01*
X48445623Y-62095944D01*
X48518211Y-62054443D01*
X48596511Y-62009596D01*
X48679953Y-61961727D01*
X48767971Y-61911160D01*
X48859997Y-61858218D01*
X48955462Y-61803227D01*
X49053798Y-61746509D01*
X49056781Y-61744787D01*
X49155085Y-61688019D01*
X49250430Y-61632897D01*
X49342255Y-61579749D01*
X49429999Y-61528901D01*
X49513100Y-61480682D01*
X49590998Y-61435418D01*
X49663132Y-61393435D01*
X49728940Y-61355063D01*
X49787862Y-61320627D01*
X49839337Y-61290454D01*
X49882803Y-61264873D01*
X49917700Y-61244210D01*
X49943466Y-61228791D01*
X49959541Y-61218945D01*
X49965363Y-61214999D01*
X49965375Y-61214969D01*
X49960403Y-61210233D01*
X49946192Y-61201081D01*
X49924750Y-61188569D01*
X49898082Y-61173749D01*
X49868195Y-61157674D01*
X49851156Y-61148758D01*
X50036840Y-61148758D01*
X50060925Y-61161050D01*
X50078409Y-61170560D01*
X50090761Y-61179867D01*
X50098933Y-61191324D01*
X50103876Y-61207283D01*
X50106541Y-61230096D01*
X50107879Y-61262115D01*
X50108257Y-61278099D01*
X50110016Y-61359094D01*
X50191286Y-61401029D01*
X50220348Y-61415885D01*
X50245472Y-61428463D01*
X50264571Y-61437739D01*
X50275554Y-61442687D01*
X50277245Y-61443227D01*
X50280676Y-61438031D01*
X50282032Y-61426298D01*
X50282435Y-61415344D01*
X50282714Y-61409782D01*
X50370620Y-61409782D01*
X50371325Y-61425709D01*
X50372832Y-61430986D01*
X50378870Y-61427932D01*
X50394298Y-61419296D01*
X50417747Y-61405868D01*
X50447847Y-61388439D01*
X50483230Y-61367797D01*
X50522528Y-61344732D01*
X50533809Y-61338088D01*
X50584522Y-61308219D01*
X50625624Y-61284107D01*
X50658260Y-61265136D01*
X50683576Y-61250693D01*
X50702720Y-61240162D01*
X50716838Y-61232929D01*
X50727075Y-61228380D01*
X50734578Y-61225899D01*
X50740494Y-61224873D01*
X50745344Y-61224685D01*
X50754729Y-61221776D01*
X50773238Y-61213633D01*
X50799087Y-61201129D01*
X50830491Y-61185139D01*
X50865667Y-61166538D01*
X50881626Y-61157890D01*
X50928861Y-61132068D01*
X50966294Y-61111435D01*
X50995108Y-61095210D01*
X51016485Y-61082612D01*
X51031611Y-61072859D01*
X51041667Y-61065171D01*
X51047837Y-61058766D01*
X51051305Y-61052864D01*
X51053254Y-61046684D01*
X51053810Y-61044249D01*
X51062934Y-61028037D01*
X51080520Y-61020117D01*
X51105166Y-61021091D01*
X51106726Y-61021420D01*
X51113935Y-61021461D01*
X51124745Y-61018647D01*
X51140372Y-61012404D01*
X51162033Y-61002160D01*
X51190945Y-60987341D01*
X51228326Y-60967372D01*
X51272055Y-60943515D01*
X51323601Y-60915235D01*
X51365282Y-60892341D01*
X51398161Y-60874139D01*
X51423300Y-60859938D01*
X51441761Y-60849047D01*
X51454606Y-60840773D01*
X51462898Y-60834424D01*
X51467698Y-60829308D01*
X51470070Y-60824733D01*
X51471075Y-60820007D01*
X51471776Y-60814439D01*
X51471952Y-60813294D01*
X51476414Y-60796107D01*
X51482475Y-60783663D01*
X51482692Y-60783394D01*
X51495122Y-60776661D01*
X51513582Y-60774848D01*
X51532498Y-60778217D01*
X51538429Y-60780792D01*
X51543811Y-60781689D01*
X51552500Y-60779526D01*
X51565700Y-60773655D01*
X51584619Y-60763426D01*
X51610462Y-60748192D01*
X51644435Y-60727305D01*
X51683366Y-60702880D01*
X51730036Y-60673072D01*
X51766622Y-60648865D01*
X51793915Y-60629692D01*
X51812707Y-60614984D01*
X51823788Y-60604172D01*
X51826799Y-60599838D01*
X51839124Y-60579170D01*
X51850487Y-60567674D01*
X51864340Y-60562821D01*
X51878404Y-60562020D01*
X51887995Y-60561242D01*
X51898892Y-60558384D01*
X51912601Y-60552659D01*
X51930623Y-60543280D01*
X51954464Y-60529459D01*
X51985626Y-60510410D01*
X52025613Y-60485346D01*
X52029239Y-60483057D01*
X52065744Y-60459587D01*
X52099594Y-60437043D01*
X52129025Y-60416663D01*
X52152275Y-60399681D01*
X52167581Y-60387333D01*
X52171916Y-60383035D01*
X52188713Y-60367668D01*
X52204295Y-60361975D01*
X52204518Y-60361973D01*
X52214542Y-60358681D01*
X52232950Y-60349545D01*
X52257734Y-60335679D01*
X52286889Y-60318196D01*
X52311902Y-60302422D01*
X52343361Y-60282192D01*
X52372361Y-60263615D01*
X52396768Y-60248052D01*
X52414448Y-60236865D01*
X52422130Y-60232093D01*
X52459057Y-60209476D01*
X52494054Y-60187573D01*
X52525338Y-60167538D01*
X52551125Y-60150529D01*
X52569633Y-60137703D01*
X52578767Y-60130523D01*
X52582911Y-60124931D01*
X52586564Y-60115773D01*
X52589998Y-60101479D01*
X52593489Y-60080484D01*
X52597311Y-60051219D01*
X52601738Y-60012118D01*
X52605193Y-59979500D01*
X52610899Y-59923388D01*
X52615110Y-59878609D01*
X52617879Y-59844088D01*
X52619255Y-59818752D01*
X52619291Y-59801525D01*
X52618039Y-59791334D01*
X52615549Y-59787103D01*
X52614423Y-59786832D01*
X52608599Y-59789912D01*
X52592583Y-59798914D01*
X52566992Y-59813479D01*
X52532444Y-59833250D01*
X52489559Y-59857868D01*
X52438953Y-59886975D01*
X52381247Y-59920213D01*
X52317057Y-59957223D01*
X52247004Y-59997648D01*
X52171704Y-60041129D01*
X52091776Y-60087307D01*
X52007839Y-60135826D01*
X51920510Y-60186326D01*
X51830410Y-60238449D01*
X51738155Y-60291837D01*
X51644364Y-60346132D01*
X51549655Y-60400976D01*
X51454648Y-60456011D01*
X51359960Y-60510878D01*
X51266209Y-60565219D01*
X51174015Y-60618675D01*
X51083995Y-60670890D01*
X50996768Y-60721504D01*
X50912951Y-60770159D01*
X50833165Y-60816498D01*
X50758026Y-60860161D01*
X50688154Y-60900791D01*
X50624166Y-60938030D01*
X50566682Y-60971518D01*
X50516318Y-61000899D01*
X50473695Y-61025814D01*
X50439430Y-61045905D01*
X50414141Y-61060813D01*
X50398447Y-61070180D01*
X50392990Y-61073620D01*
X50390638Y-61081552D01*
X50388029Y-61099708D01*
X50385269Y-61126188D01*
X50382465Y-61159094D01*
X50379725Y-61196525D01*
X50377156Y-61236582D01*
X50374864Y-61277366D01*
X50372958Y-61316978D01*
X50371544Y-61353517D01*
X50370729Y-61385085D01*
X50370620Y-61409782D01*
X50282714Y-61409782D01*
X50283512Y-61393886D01*
X50285154Y-61363896D01*
X50287250Y-61327348D01*
X50289692Y-61286215D01*
X50291344Y-61259069D01*
X50293943Y-61216086D01*
X50296264Y-61176466D01*
X50298197Y-61142180D01*
X50299633Y-61115198D01*
X50300462Y-61097491D01*
X50300623Y-61092008D01*
X50299962Y-61086043D01*
X50297010Y-61080305D01*
X50290386Y-61073898D01*
X50278708Y-61065925D01*
X50260597Y-61055487D01*
X50234670Y-61041689D01*
X50199548Y-61023632D01*
X50180346Y-61013864D01*
X50144771Y-60995803D01*
X50112992Y-60979686D01*
X50086688Y-60966362D01*
X50067538Y-60956681D01*
X50057220Y-60951492D01*
X50055965Y-60950876D01*
X50053175Y-60955112D01*
X50050284Y-60970576D01*
X50047254Y-60997590D01*
X50044051Y-61036476D01*
X50040787Y-61085134D01*
X50036840Y-61148758D01*
X49851156Y-61148758D01*
X49837093Y-61141399D01*
X49806785Y-61125976D01*
X49779274Y-61112459D01*
X49756569Y-61101901D01*
X49740674Y-61095356D01*
X49734445Y-61093714D01*
X49726926Y-61096692D01*
X49709495Y-61105395D01*
X49683078Y-61119312D01*
X49648601Y-61137936D01*
X49606990Y-61160756D01*
X49559172Y-61187263D01*
X49506072Y-61216948D01*
X49448616Y-61249300D01*
X49387731Y-61283812D01*
X49356227Y-61301755D01*
X49294990Y-61336686D01*
X49224432Y-61376932D01*
X49146093Y-61421613D01*
X49061514Y-61469852D01*
X48972237Y-61520768D01*
X48879801Y-61573484D01*
X48785747Y-61627121D01*
X48691617Y-61680800D01*
X48598950Y-61733642D01*
X48509287Y-61784770D01*
X48445000Y-61821427D01*
X48354041Y-61873327D01*
X48273411Y-61919417D01*
X48202549Y-61960032D01*
X48140894Y-61995505D01*
X48087883Y-62026169D01*
X48042957Y-62052359D01*
X48005553Y-62074407D01*
X47975111Y-62092647D01*
X47951070Y-62107413D01*
X47932868Y-62119039D01*
X47919943Y-62127857D01*
X47911736Y-62134201D01*
X47907684Y-62138406D01*
X47907226Y-62140804D01*
X47450002Y-62140804D01*
X47448470Y-61907283D01*
X44972894Y-60521661D01*
X44809126Y-60430004D01*
X44648117Y-60339904D01*
X44490212Y-60251552D01*
X44335752Y-60165141D01*
X44185081Y-60080862D01*
X44038541Y-59998907D01*
X43896477Y-59919466D01*
X43759232Y-59842733D01*
X43627147Y-59768899D01*
X43500568Y-59698155D01*
X43379836Y-59630692D01*
X43265294Y-59566703D01*
X43157287Y-59506380D01*
X43056156Y-59449913D01*
X42962246Y-59397495D01*
X42875899Y-59349317D01*
X42797459Y-59305571D01*
X42727268Y-59266448D01*
X42665670Y-59232140D01*
X42613007Y-59202839D01*
X42569624Y-59178737D01*
X42535863Y-59160024D01*
X42512067Y-59146893D01*
X42498579Y-59139536D01*
X42495434Y-59137922D01*
X42410874Y-59137922D01*
X42408990Y-59117935D01*
X42406546Y-59091282D01*
X42405289Y-59076461D01*
X42405117Y-59073562D01*
X42405790Y-59060831D01*
X42547206Y-59060831D01*
X42551452Y-59064887D01*
X42566136Y-59074576D01*
X42590703Y-59089578D01*
X42624596Y-59109574D01*
X42667258Y-59134243D01*
X42718132Y-59163266D01*
X42776662Y-59196324D01*
X42842291Y-59233097D01*
X42914464Y-59273266D01*
X42988782Y-59314391D01*
X43013196Y-59327900D01*
X43046167Y-59346196D01*
X43086826Y-59368795D01*
X43134306Y-59395212D01*
X43187739Y-59424964D01*
X43246257Y-59457564D01*
X43308993Y-59492530D01*
X43375079Y-59529376D01*
X43443648Y-59567619D01*
X43513831Y-59606774D01*
X43584761Y-59646357D01*
X43655570Y-59685882D01*
X43725390Y-59724867D01*
X43793354Y-59762826D01*
X43858595Y-59799275D01*
X43920243Y-59833729D01*
X43977432Y-59865705D01*
X44029294Y-59894718D01*
X44074961Y-59920284D01*
X44113566Y-59941917D01*
X44144240Y-59959135D01*
X44166117Y-59971451D01*
X44178328Y-59978383D01*
X44180432Y-59979613D01*
X44196733Y-59989225D01*
X44209670Y-59996212D01*
X44211690Y-59997164D01*
X44218194Y-60000651D01*
X44234603Y-60009663D01*
X44259903Y-60023636D01*
X44293078Y-60042005D01*
X44333115Y-60064205D01*
X44378998Y-60089672D01*
X44429713Y-60117841D01*
X44484245Y-60148148D01*
X44541579Y-60180027D01*
X44600702Y-60212915D01*
X44660598Y-60246246D01*
X44720253Y-60279456D01*
X44778652Y-60311980D01*
X44834781Y-60343254D01*
X44887624Y-60372713D01*
X44936168Y-60399791D01*
X44979398Y-60423926D01*
X45016298Y-60444551D01*
X45045855Y-60461102D01*
X45067054Y-60473015D01*
X45078880Y-60479725D01*
X45080654Y-60480762D01*
X45088340Y-60485142D01*
X45105594Y-60494825D01*
X45131049Y-60509050D01*
X45163339Y-60527059D01*
X45201096Y-60548091D01*
X45242954Y-60571386D01*
X45287545Y-60596186D01*
X45333503Y-60621731D01*
X45379460Y-60647260D01*
X45424050Y-60672015D01*
X45465906Y-60695236D01*
X45503660Y-60716163D01*
X45535946Y-60734037D01*
X45561397Y-60748098D01*
X45578646Y-60757586D01*
X45585887Y-60761514D01*
X45593627Y-60765755D01*
X45611519Y-60775659D01*
X45638795Y-60790799D01*
X45674688Y-60810747D01*
X45718431Y-60835078D01*
X45769255Y-60863362D01*
X45826393Y-60895175D01*
X45889078Y-60930087D01*
X45956542Y-60967671D01*
X46028017Y-61007502D01*
X46102736Y-61049151D01*
X46140290Y-61070087D01*
X46231538Y-61120962D01*
X46312547Y-61166128D01*
X46383999Y-61205964D01*
X46446574Y-61240850D01*
X46500954Y-61271164D01*
X46547822Y-61297286D01*
X46587857Y-61319594D01*
X46621743Y-61338469D01*
X46650160Y-61354288D01*
X46673789Y-61367432D01*
X46693313Y-61378280D01*
X46709413Y-61387210D01*
X46722770Y-61394602D01*
X46734066Y-61400835D01*
X46743982Y-61406288D01*
X46753200Y-61411341D01*
X46762401Y-61416372D01*
X46772267Y-61421760D01*
X46777947Y-61424862D01*
X46806236Y-61440467D01*
X46839855Y-61459233D01*
X46873296Y-61478081D01*
X46887348Y-61486069D01*
X46914755Y-61501640D01*
X46940976Y-61516424D01*
X46962378Y-61528377D01*
X46972077Y-61533711D01*
X46991811Y-61544514D01*
X47019552Y-61559829D01*
X47053914Y-61578880D01*
X47093515Y-61600895D01*
X47136970Y-61625099D01*
X47182896Y-61650719D01*
X47229908Y-61676980D01*
X47276624Y-61703110D01*
X47321658Y-61728332D01*
X47363627Y-61751875D01*
X47401148Y-61772965D01*
X47432836Y-61790826D01*
X47457308Y-61804686D01*
X47473179Y-61813770D01*
X47478359Y-61816829D01*
X47488345Y-61822115D01*
X47497812Y-61823578D01*
X47509662Y-61820534D01*
X47526798Y-61812303D01*
X47548187Y-61800435D01*
X47574828Y-61785427D01*
X47602789Y-61769812D01*
X47625328Y-61757350D01*
X47636523Y-61751164D01*
X47657646Y-61739440D01*
X47687705Y-61722732D01*
X47725709Y-61701592D01*
X47770664Y-61676571D01*
X47821580Y-61648223D01*
X47877464Y-61617098D01*
X47937325Y-61583750D01*
X48000169Y-61548731D01*
X48034506Y-61529593D01*
X48111796Y-61486515D01*
X48196948Y-61439058D01*
X48287467Y-61388614D01*
X48380860Y-61336570D01*
X48474635Y-61284316D01*
X48566299Y-61233242D01*
X48653357Y-61184737D01*
X48733316Y-61140189D01*
X48772187Y-61118535D01*
X48846860Y-61076935D01*
X48928236Y-61031597D01*
X49013959Y-60983834D01*
X49101674Y-60934959D01*
X49189024Y-60886284D01*
X49204383Y-60877725D01*
X50110313Y-60877725D01*
X50115527Y-60882720D01*
X50130062Y-60891951D01*
X50151895Y-60904393D01*
X50179001Y-60919024D01*
X50209358Y-60934821D01*
X50240942Y-60950761D01*
X50271731Y-60965821D01*
X50299701Y-60978978D01*
X50322829Y-60989209D01*
X50339091Y-60995491D01*
X50346108Y-60996943D01*
X50352529Y-60993622D01*
X50369264Y-60984339D01*
X50395801Y-60969388D01*
X50431627Y-60949062D01*
X50476231Y-60923656D01*
X50529100Y-60893463D01*
X50589722Y-60858776D01*
X50657585Y-60819890D01*
X50732178Y-60777098D01*
X50812987Y-60730694D01*
X50899501Y-60680971D01*
X50991209Y-60628223D01*
X51087597Y-60572745D01*
X51188154Y-60514829D01*
X51292367Y-60454769D01*
X51399725Y-60392860D01*
X51470146Y-60352231D01*
X51579058Y-60289346D01*
X51685013Y-60228100D01*
X51787507Y-60168786D01*
X51886038Y-60111697D01*
X51980101Y-60057126D01*
X52069195Y-60005369D01*
X52152816Y-59956718D01*
X52230461Y-59911466D01*
X52301627Y-59869909D01*
X52365811Y-59832339D01*
X52422510Y-59799049D01*
X52471221Y-59770335D01*
X52511440Y-59746489D01*
X52542665Y-59727804D01*
X52564392Y-59714576D01*
X52576119Y-59707096D01*
X52578136Y-59705452D01*
X52571120Y-59701636D01*
X52554470Y-59693623D01*
X52529998Y-59682250D01*
X52499513Y-59668358D01*
X52464825Y-59652785D01*
X52458211Y-59649840D01*
X52343300Y-59598739D01*
X51898699Y-59852128D01*
X51731101Y-59947650D01*
X51574041Y-60037175D01*
X51427190Y-60120892D01*
X51290217Y-60198989D01*
X51162796Y-60271655D01*
X51044597Y-60339078D01*
X50935290Y-60401447D01*
X50834549Y-60458951D01*
X50742042Y-60511778D01*
X50657443Y-60560116D01*
X50580421Y-60604155D01*
X50510649Y-60644083D01*
X50447797Y-60680087D01*
X50391537Y-60712358D01*
X50341539Y-60741083D01*
X50297476Y-60766451D01*
X50259018Y-60788650D01*
X50225836Y-60807870D01*
X50197602Y-60824298D01*
X50173987Y-60838123D01*
X50154662Y-60849534D01*
X50139298Y-60858720D01*
X50127567Y-60865868D01*
X50119139Y-60871168D01*
X50113686Y-60874807D01*
X50110880Y-60876975D01*
X50110313Y-60877725D01*
X49204383Y-60877725D01*
X49273654Y-60839122D01*
X49353207Y-60794786D01*
X49425329Y-60754588D01*
X49456731Y-60737085D01*
X49516396Y-60703836D01*
X49573864Y-60671828D01*
X49628016Y-60641684D01*
X49677734Y-60614026D01*
X49721897Y-60589475D01*
X49759389Y-60568654D01*
X49789090Y-60552184D01*
X49809881Y-60540688D01*
X49819320Y-60535505D01*
X49836975Y-60525792D01*
X49863237Y-60511207D01*
X49895827Y-60493024D01*
X49932462Y-60472517D01*
X49970862Y-60450958D01*
X49983352Y-60443932D01*
X50018953Y-60423983D01*
X50050866Y-60406274D01*
X50077498Y-60391673D01*
X50097256Y-60381051D01*
X50108550Y-60375275D01*
X50110543Y-60374476D01*
X50117803Y-60371238D01*
X50130199Y-60363394D01*
X50130932Y-60362884D01*
X50144258Y-60354467D01*
X50164759Y-60342512D01*
X50188534Y-60329279D01*
X50194412Y-60326101D01*
X50218502Y-60313005D01*
X50249481Y-60295942D01*
X50283363Y-60277119D01*
X50316164Y-60258739D01*
X50316317Y-60258653D01*
X50347072Y-60241368D01*
X50376942Y-60224647D01*
X50402711Y-60210288D01*
X50421161Y-60200086D01*
X50422593Y-60199302D01*
X50440227Y-60189575D01*
X50465453Y-60175551D01*
X50494972Y-60159070D01*
X50525482Y-60141970D01*
X50526957Y-60141142D01*
X50558503Y-60123467D01*
X50590262Y-60105752D01*
X50618526Y-60090060D01*
X50639485Y-60078511D01*
X50650651Y-60072345D01*
X50671899Y-60060555D01*
X50702393Y-60043606D01*
X50741297Y-60021965D01*
X50787773Y-59996096D01*
X50840986Y-59966466D01*
X50900097Y-59933541D01*
X50964271Y-59897786D01*
X51032671Y-59859668D01*
X51104460Y-59819653D01*
X51178801Y-59778205D01*
X51188407Y-59772850D01*
X51262411Y-59731592D01*
X51333546Y-59691946D01*
X51401022Y-59654354D01*
X51464048Y-59619253D01*
X51521833Y-59587085D01*
X51573587Y-59558288D01*
X51618520Y-59533304D01*
X51655840Y-59512571D01*
X51684758Y-59496529D01*
X51704482Y-59485619D01*
X51714223Y-59480280D01*
X51714862Y-59479941D01*
X51737275Y-59468039D01*
X51767531Y-59451590D01*
X51804567Y-59431196D01*
X51847321Y-59407462D01*
X51894728Y-59380990D01*
X51945728Y-59352385D01*
X51999255Y-59322250D01*
X52054249Y-59291189D01*
X52109645Y-59259806D01*
X52164381Y-59228704D01*
X52217394Y-59198486D01*
X52267621Y-59169757D01*
X52313999Y-59143121D01*
X52355465Y-59119180D01*
X52390957Y-59098538D01*
X52419410Y-59081800D01*
X52439763Y-59069568D01*
X52450953Y-59062447D01*
X52452812Y-59060847D01*
X52446258Y-59057453D01*
X52429424Y-59049618D01*
X52403504Y-59037872D01*
X52369690Y-59022749D01*
X52329175Y-59004780D01*
X52283150Y-58984495D01*
X52232808Y-58962427D01*
X52198030Y-58947246D01*
X52119528Y-58913032D01*
X52033990Y-58875750D01*
X51942197Y-58835740D01*
X51844926Y-58793341D01*
X51742957Y-58748892D01*
X51637066Y-58702733D01*
X51528034Y-58655203D01*
X51416638Y-58606641D01*
X51303657Y-58557388D01*
X51189870Y-58507782D01*
X51076055Y-58458163D01*
X50962990Y-58408870D01*
X50851454Y-58360242D01*
X50742226Y-58312620D01*
X50636084Y-58266342D01*
X50533806Y-58221748D01*
X50436172Y-58179177D01*
X50343959Y-58138969D01*
X50257946Y-58101463D01*
X50178911Y-58066999D01*
X50107634Y-58035915D01*
X50044892Y-58008552D01*
X49991464Y-57985249D01*
X49948129Y-57966344D01*
X49922470Y-57955149D01*
X49878822Y-57936104D01*
X49824916Y-57912589D01*
X49761956Y-57885129D01*
X49691146Y-57854249D01*
X49613691Y-57820474D01*
X49530794Y-57784328D01*
X49443659Y-57746338D01*
X49353491Y-57707027D01*
X49261494Y-57666921D01*
X49168871Y-57626544D01*
X49076826Y-57586423D01*
X49019123Y-57561271D01*
X48934293Y-57524294D01*
X48852345Y-57488565D01*
X48774047Y-57454421D01*
X48700167Y-57422196D01*
X48631473Y-57392226D01*
X48568733Y-57364846D01*
X48512715Y-57340391D01*
X48464187Y-57319196D01*
X48423918Y-57301597D01*
X48392674Y-57287930D01*
X48371225Y-57278528D01*
X48360338Y-57273728D01*
X48359586Y-57273390D01*
X48349825Y-57269072D01*
X48329570Y-57260193D01*
X48299795Y-57247177D01*
X48261473Y-57230449D01*
X48215576Y-57210432D01*
X48163078Y-57187550D01*
X48104951Y-57162229D01*
X48042168Y-57134891D01*
X47975703Y-57105962D01*
X47917267Y-57080537D01*
X47499954Y-56898999D01*
X46501294Y-57333959D01*
X46394789Y-57380350D01*
X46291158Y-57425495D01*
X46191002Y-57469134D01*
X46094922Y-57511002D01*
X46003519Y-57550840D01*
X45917394Y-57588384D01*
X45837147Y-57623372D01*
X45763379Y-57655543D01*
X45696692Y-57684634D01*
X45637687Y-57710383D01*
X45586964Y-57732528D01*
X45545124Y-57750808D01*
X45512768Y-57764959D01*
X45490497Y-57774720D01*
X45478912Y-57779829D01*
X45477627Y-57780407D01*
X45469741Y-57783897D01*
X45450887Y-57792165D01*
X45421559Y-57804998D01*
X45382248Y-57822181D01*
X45333449Y-57843497D01*
X45275656Y-57868731D01*
X45209361Y-57897669D01*
X45135059Y-57930094D01*
X45053242Y-57965793D01*
X44964404Y-58004548D01*
X44869039Y-58046146D01*
X44767640Y-58090371D01*
X44660700Y-58137007D01*
X44548714Y-58185839D01*
X44432174Y-58236653D01*
X44311573Y-58289232D01*
X44187407Y-58343361D01*
X44060167Y-58398826D01*
X44002264Y-58424065D01*
X43874076Y-58479948D01*
X43748886Y-58534544D01*
X43627176Y-58587641D01*
X43509432Y-58639028D01*
X43396137Y-58688492D01*
X43287778Y-58735821D01*
X43184837Y-58780803D01*
X43087799Y-58823226D01*
X42997149Y-58862878D01*
X42913372Y-58899547D01*
X42836952Y-58933022D01*
X42768372Y-58963089D01*
X42708119Y-58989537D01*
X42656676Y-59012155D01*
X42614528Y-59030729D01*
X42582158Y-59045048D01*
X42560053Y-59054901D01*
X42548695Y-59060074D01*
X42547206Y-59060831D01*
X42405790Y-59060831D01*
X42406361Y-59050036D01*
X42410897Y-59035234D01*
X42416715Y-59027979D01*
X42423416Y-59024591D01*
X42441138Y-59016444D01*
X42469433Y-59003731D01*
X42507854Y-58986645D01*
X42555954Y-58965381D01*
X42613287Y-58940133D01*
X42679404Y-58911095D01*
X42753859Y-58878459D01*
X42836206Y-58842421D01*
X42925996Y-58803175D01*
X43022783Y-58760913D01*
X43126119Y-58715830D01*
X43235558Y-58668120D01*
X43350653Y-58617976D01*
X43470956Y-58565593D01*
X43596020Y-58511164D01*
X43725399Y-58454884D01*
X43858645Y-58396945D01*
X43995311Y-58337543D01*
X44134950Y-58276870D01*
X44277115Y-58215122D01*
X44421359Y-58152491D01*
X44567235Y-58089171D01*
X44714296Y-58025357D01*
X44862094Y-57961242D01*
X45010183Y-57897020D01*
X45158116Y-57832885D01*
X45305445Y-57769031D01*
X45451724Y-57705651D01*
X45596505Y-57642941D01*
X45739341Y-57581092D01*
X45879785Y-57520300D01*
X46017391Y-57460759D01*
X46151710Y-57402661D01*
X46282297Y-57346202D01*
X46408703Y-57291574D01*
X46530483Y-57238972D01*
X46647188Y-57188590D01*
X46758372Y-57140621D01*
X46863587Y-57095259D01*
X46962387Y-57052699D01*
X47054324Y-57013133D01*
X47138952Y-56976757D01*
X47215823Y-56943764D01*
X47284491Y-56914347D01*
X47344507Y-56888701D01*
X47395426Y-56867019D01*
X47436800Y-56849496D01*
X47468181Y-56836325D01*
X47489124Y-56827700D01*
X47499180Y-56823815D01*
X47499999Y-56823602D01*
X47506789Y-56826065D01*
G37*
%TO.C,R2*%
D12*
X60630000Y-41040000D02*
X60630000Y-47580000D01*
X60630000Y-47580000D02*
X60960000Y-47580000D01*
X60960000Y-41040000D02*
X60630000Y-41040000D01*
X63040000Y-41040000D02*
X63370000Y-41040000D01*
X63370000Y-41040000D02*
X63370000Y-47580000D01*
X63370000Y-47580000D02*
X63040000Y-47580000D01*
%TO.C,R4*%
X37630000Y-36420000D02*
X37960000Y-36420000D01*
X37630000Y-42960000D02*
X37630000Y-36420000D01*
X37960000Y-42960000D02*
X37630000Y-42960000D01*
X40040000Y-42960000D02*
X40370000Y-42960000D01*
X40370000Y-36420000D02*
X40040000Y-36420000D01*
X40370000Y-42960000D02*
X40370000Y-36420000D01*
D11*
%TO.C,G\u002A\u002A\u002A*%
G36*
X67085164Y-66054439D02*
G01*
X67099071Y-66115739D01*
X67083030Y-66206276D01*
X67048550Y-66284163D01*
X67015158Y-66309217D01*
X66978741Y-66272784D01*
X66972502Y-66231913D01*
X66990528Y-66140620D01*
X67030755Y-66069646D01*
X67074813Y-66047927D01*
X67085164Y-66054439D01*
G37*
G36*
X63820502Y-65950485D02*
G01*
X63835096Y-66045971D01*
X63835478Y-66066261D01*
X63824383Y-66168453D01*
X63797101Y-66219534D01*
X63791304Y-66220870D01*
X63762106Y-66182037D01*
X63747512Y-66086551D01*
X63747130Y-66066261D01*
X63758225Y-65964069D01*
X63785507Y-65912988D01*
X63791304Y-65911652D01*
X63820502Y-65950485D01*
G37*
G36*
X64044704Y-65937997D02*
G01*
X64038987Y-65981526D01*
X64017413Y-66081327D01*
X64012174Y-66158222D01*
X63996588Y-66239493D01*
X63968000Y-66265043D01*
X63940338Y-66225855D01*
X63924952Y-66127956D01*
X63923826Y-66088348D01*
X63933591Y-65968169D01*
X63967629Y-65916946D01*
X63994813Y-65911652D01*
X64044704Y-65937997D01*
G37*
G36*
X68020048Y-70579532D02*
G01*
X68111212Y-70660434D01*
X68238300Y-70780688D01*
X68388411Y-70928362D01*
X68407478Y-70947478D01*
X68574481Y-71118979D01*
X68680627Y-71237716D01*
X68730773Y-71309976D01*
X68729780Y-71342045D01*
X68714738Y-71345043D01*
X68644674Y-71313877D01*
X68529551Y-71227673D01*
X68383065Y-71097372D01*
X68284963Y-71001718D01*
X68103381Y-70811551D01*
X67989808Y-70674378D01*
X67942987Y-70588350D01*
X67961661Y-70551618D01*
X67977703Y-70549913D01*
X68020048Y-70579532D01*
G37*
G36*
X64134082Y-70176512D02*
G01*
X64177979Y-70216696D01*
X64199266Y-70242566D01*
X64237041Y-70302528D01*
X64259783Y-70381753D01*
X64270003Y-70500144D01*
X64270213Y-70677605D01*
X64267645Y-70784412D01*
X64260036Y-70988195D01*
X64248962Y-71119597D01*
X64231208Y-71194587D01*
X64203563Y-71229131D01*
X64176418Y-71237825D01*
X64094996Y-71212873D01*
X64036298Y-71153602D01*
X63976634Y-71049700D01*
X63908955Y-70917333D01*
X63897762Y-70893855D01*
X63855210Y-70814174D01*
X63804569Y-70760048D01*
X63727626Y-70724384D01*
X63606168Y-70700088D01*
X63421981Y-70680066D01*
X63327478Y-70671735D01*
X63228288Y-70646452D01*
X63195375Y-70584846D01*
X63194956Y-70572862D01*
X63236651Y-70489120D01*
X63353466Y-70400251D01*
X63533001Y-70313176D01*
X63762854Y-70234817D01*
X63836295Y-70214931D01*
X63988037Y-70177518D01*
X64079034Y-70164082D01*
X64134082Y-70176512D01*
G37*
G36*
X64778386Y-68765799D02*
G01*
X64877079Y-68780790D01*
X64941596Y-68817330D01*
X64995294Y-68878771D01*
X65047950Y-68976122D01*
X65109328Y-69130737D01*
X65168342Y-69313781D01*
X65183492Y-69368292D01*
X65230294Y-69549685D01*
X65253853Y-69667250D01*
X65255406Y-69742044D01*
X65236189Y-69795128D01*
X65210668Y-69831119D01*
X65175875Y-69869617D01*
X65140598Y-69880698D01*
X65091382Y-69855974D01*
X65014767Y-69787060D01*
X64897297Y-69665567D01*
X64829391Y-69593495D01*
X64687369Y-69444556D01*
X64583941Y-69347099D01*
X64497707Y-69287748D01*
X64407269Y-69253131D01*
X64291228Y-69229873D01*
X64233043Y-69220785D01*
X64033110Y-69176120D01*
X63906374Y-69116323D01*
X63858074Y-69045059D01*
X63883880Y-68976645D01*
X63985088Y-68904298D01*
X64148744Y-68840099D01*
X64348952Y-68791538D01*
X64559815Y-68766108D01*
X64618505Y-68764138D01*
X64778386Y-68765799D01*
G37*
G36*
X65675086Y-65223296D02*
G01*
X65826454Y-65264403D01*
X66017810Y-65293429D01*
X66217503Y-65308026D01*
X66393881Y-65305847D01*
X66512886Y-65285436D01*
X66629418Y-65256779D01*
X66691036Y-65267737D01*
X66686354Y-65311623D01*
X66637297Y-65358530D01*
X66591648Y-65406957D01*
X66607391Y-65424334D01*
X66656359Y-65461313D01*
X66662608Y-65492000D01*
X66650903Y-65548021D01*
X66602318Y-65548305D01*
X66527183Y-65512533D01*
X66467240Y-65491159D01*
X66444611Y-65528770D01*
X66441739Y-65597674D01*
X66402053Y-65738019D01*
X66325347Y-65820098D01*
X66185861Y-65898790D01*
X66070907Y-65893768D01*
X65976226Y-65804843D01*
X65976022Y-65804531D01*
X65924591Y-65684309D01*
X65900191Y-65555106D01*
X66000000Y-65555106D01*
X66023576Y-65684492D01*
X66083250Y-65769367D01*
X66162445Y-65793150D01*
X66214506Y-65769612D01*
X66290325Y-65701755D01*
X66319584Y-65668696D01*
X66346142Y-65591694D01*
X66352715Y-65525130D01*
X66341508Y-65460776D01*
X66290587Y-65432197D01*
X66176695Y-65425739D01*
X66063352Y-65431067D01*
X66012963Y-65459388D01*
X66000253Y-65529209D01*
X66000000Y-65555106D01*
X65900191Y-65555106D01*
X65897879Y-65542863D01*
X65897699Y-65539623D01*
X65882393Y-65431126D01*
X65834273Y-65378933D01*
X65746000Y-65354697D01*
X65641246Y-65316327D01*
X65602434Y-65261488D01*
X65630209Y-65216185D01*
X65675086Y-65223296D01*
G37*
G36*
X66131958Y-66384851D02*
G01*
X66132521Y-66392156D01*
X66102299Y-66449726D01*
X66066261Y-66485913D01*
X66019062Y-66566878D01*
X66000000Y-66680276D01*
X65973312Y-66851374D01*
X65888836Y-66959238D01*
X65739953Y-67010053D01*
X65640706Y-67016000D01*
X65488973Y-67006124D01*
X65384549Y-66967127D01*
X65297169Y-66894522D01*
X65180596Y-66793771D01*
X65113462Y-66748027D01*
X65370639Y-66748027D01*
X65376410Y-66803463D01*
X65413305Y-66849971D01*
X65517799Y-66909465D01*
X65646364Y-66927652D01*
X65766115Y-66914398D01*
X65834262Y-66862602D01*
X65860387Y-66815139D01*
X65904597Y-66697413D01*
X65895894Y-66641954D01*
X65830753Y-66637778D01*
X65805331Y-66643436D01*
X65682435Y-66643798D01*
X65599652Y-66616946D01*
X65520485Y-66588839D01*
X65460396Y-66621080D01*
X65421649Y-66668030D01*
X65370639Y-66748027D01*
X65113462Y-66748027D01*
X65061026Y-66712298D01*
X65052261Y-66707499D01*
X64946168Y-66631334D01*
X64896787Y-66554050D01*
X64909955Y-66501059D01*
X64957495Y-66508313D01*
X65040818Y-66559209D01*
X65053891Y-66569225D01*
X65178203Y-66646695D01*
X65267455Y-66648948D01*
X65334097Y-66575257D01*
X65345429Y-66552174D01*
X65401103Y-66467744D01*
X65475627Y-66447432D01*
X65591155Y-66487569D01*
X65626968Y-66505542D01*
X65759606Y-66542106D01*
X65876814Y-66497872D01*
X65953824Y-66422064D01*
X66024187Y-66368779D01*
X66094920Y-66354474D01*
X66131958Y-66384851D01*
G37*
G36*
X63165593Y-61405362D02*
G01*
X63234520Y-61439505D01*
X63363739Y-61500989D01*
X63533223Y-61580355D01*
X63680343Y-61648521D01*
X63871198Y-61740694D01*
X64040215Y-61829859D01*
X64165827Y-61904213D01*
X64218210Y-61942814D01*
X64280723Y-61994727D01*
X64339904Y-62011410D01*
X64427425Y-61994922D01*
X64527953Y-61962942D01*
X64734862Y-61907222D01*
X64967651Y-61864746D01*
X65199427Y-61838460D01*
X65403297Y-61831314D01*
X65552365Y-61846255D01*
X65564178Y-61849349D01*
X65720003Y-61880591D01*
X65867186Y-61893268D01*
X65998827Y-61908976D01*
X66165067Y-61947538D01*
X66260725Y-61977105D01*
X66499364Y-62059499D01*
X66790812Y-61948889D01*
X66987352Y-61884219D01*
X67220438Y-61821744D01*
X67435567Y-61775777D01*
X67612390Y-61746221D01*
X67723003Y-61734646D01*
X67787819Y-61741671D01*
X67827252Y-61767913D01*
X67843614Y-61788139D01*
X67905197Y-61936255D01*
X67925543Y-62140396D01*
X67905799Y-62379068D01*
X67847113Y-62630778D01*
X67790282Y-62787281D01*
X67771757Y-62840002D01*
X67766503Y-62894518D01*
X67779131Y-62963925D01*
X67814246Y-63061321D01*
X67876459Y-63199800D01*
X67970375Y-63392461D01*
X68080883Y-63613196D01*
X68206521Y-63855358D01*
X68332115Y-64083899D01*
X68447314Y-64280929D01*
X68541770Y-64428558D01*
X68589466Y-64492298D01*
X68684748Y-64617917D01*
X68709287Y-64698732D01*
X68660740Y-64745856D01*
X68536762Y-64770404D01*
X68530689Y-64771024D01*
X68388856Y-64785217D01*
X68523937Y-65050261D01*
X68764105Y-65448416D01*
X69082598Y-65857117D01*
X69262521Y-66055544D01*
X69389425Y-66195277D01*
X69453976Y-66286702D01*
X69459067Y-66341075D01*
X69407593Y-66369654D01*
X69345854Y-66379655D01*
X69230576Y-66398948D01*
X69106726Y-66427191D01*
X68966669Y-66463826D01*
X69205556Y-66852688D01*
X69322477Y-67060056D01*
X69431923Y-67283775D01*
X69516473Y-67487129D01*
X69540930Y-67559471D01*
X69647583Y-67870954D01*
X69764930Y-68144220D01*
X69885456Y-68364157D01*
X70001650Y-68515651D01*
X70028744Y-68540726D01*
X70110560Y-68625922D01*
X70221921Y-68763616D01*
X70345357Y-68931506D01*
X70418562Y-69038380D01*
X70556130Y-69238066D01*
X70706521Y-69444966D01*
X70845062Y-69625502D01*
X70895569Y-69687529D01*
X71024070Y-69859804D01*
X71080002Y-69984651D01*
X71063422Y-70064951D01*
X70974387Y-70103583D01*
X70903911Y-70108174D01*
X70775105Y-70108174D01*
X71174071Y-70708322D01*
X71306305Y-70910686D01*
X71417085Y-71086870D01*
X71498765Y-71224160D01*
X71543698Y-71309843D01*
X71549293Y-71332214D01*
X71513774Y-71345892D01*
X71464296Y-71320704D01*
X71394576Y-71249221D01*
X71298330Y-71124012D01*
X71169276Y-70937646D01*
X71004720Y-70688210D01*
X70856481Y-70458934D01*
X70752073Y-70292105D01*
X70686194Y-70176745D01*
X70653538Y-70101877D01*
X70648803Y-70056523D01*
X70666683Y-70029707D01*
X70681903Y-70020111D01*
X70797130Y-69982216D01*
X70857780Y-69975652D01*
X70910185Y-69965467D01*
X70918715Y-69928571D01*
X70878553Y-69855449D01*
X70784884Y-69736589D01*
X70669369Y-69603512D01*
X70476701Y-69385981D01*
X70193046Y-69521607D01*
X70000992Y-69619906D01*
X69797674Y-69733859D01*
X69666434Y-69813938D01*
X69528464Y-69893596D01*
X69427183Y-69933723D01*
X69383941Y-69931402D01*
X69393622Y-69884472D01*
X69441694Y-69780189D01*
X69518335Y-69635230D01*
X69613723Y-69466274D01*
X69718036Y-69290000D01*
X69821451Y-69123086D01*
X69914146Y-68982211D01*
X69986300Y-68884053D01*
X70022066Y-68847833D01*
X70059227Y-68803906D01*
X70041596Y-68740114D01*
X69963035Y-68642536D01*
X69905203Y-68582931D01*
X69806787Y-68491677D01*
X69746075Y-68459357D01*
X69703969Y-68477237D01*
X69695377Y-68486953D01*
X69641859Y-68536921D01*
X69533183Y-68627310D01*
X69384872Y-68745533D01*
X69212447Y-68879004D01*
X69202608Y-68886510D01*
X69018235Y-69027649D01*
X68845863Y-69160658D01*
X68705184Y-69270277D01*
X68617911Y-69339600D01*
X68525147Y-69403758D01*
X68469691Y-69411965D01*
X68451773Y-69359685D01*
X68471622Y-69242376D01*
X68529467Y-69055500D01*
X68625537Y-68794518D01*
X68648427Y-68735420D01*
X68728755Y-68526104D01*
X68794642Y-68348287D01*
X68840689Y-68217023D01*
X68861501Y-68147365D01*
X68861764Y-68140257D01*
X68815914Y-68126838D01*
X68700222Y-68099765D01*
X68531463Y-68062797D01*
X68326408Y-68019696D01*
X68296626Y-68013564D01*
X68077899Y-67968093D01*
X67883342Y-67926632D01*
X67733328Y-67893591D01*
X67648232Y-67873379D01*
X67645478Y-67872627D01*
X67575536Y-67864609D01*
X67549259Y-67909379D01*
X67546087Y-67977265D01*
X67525606Y-68090465D01*
X67481168Y-68163408D01*
X67440093Y-68181019D01*
X67399328Y-68150212D01*
X67347245Y-68057827D01*
X67303506Y-67962352D01*
X67220225Y-67779484D01*
X67157766Y-67673455D01*
X67101763Y-67640068D01*
X67037845Y-67675126D01*
X66951645Y-67774431D01*
X66897975Y-67843896D01*
X66696221Y-68102567D01*
X66515222Y-68325716D01*
X66361572Y-68505808D01*
X66241861Y-68635306D01*
X66162683Y-68706676D01*
X66133772Y-68717469D01*
X66100514Y-68738768D01*
X66069177Y-68821963D01*
X66065622Y-68837788D01*
X66033957Y-68928918D01*
X65965923Y-69084668D01*
X65867927Y-69292356D01*
X65746377Y-69539301D01*
X65607680Y-69812821D01*
X65458243Y-70100234D01*
X65304473Y-70388859D01*
X65152779Y-70666015D01*
X65047094Y-70853703D01*
X64912780Y-71081006D01*
X64810341Y-71234861D01*
X64734320Y-71321894D01*
X64679257Y-71348730D01*
X64650285Y-71335271D01*
X64663813Y-71291849D01*
X64714705Y-71185634D01*
X64795946Y-71030223D01*
X64900525Y-70839218D01*
X64966302Y-70722422D01*
X65155551Y-70383199D01*
X65338455Y-70043382D01*
X65509029Y-69715052D01*
X65661287Y-69410287D01*
X65789241Y-69141168D01*
X65886906Y-68919775D01*
X65948294Y-68758187D01*
X65960584Y-68716099D01*
X65988892Y-68589346D01*
X65985812Y-68513851D01*
X65943013Y-68455585D01*
X65884857Y-68406744D01*
X65757043Y-68304240D01*
X65680152Y-68452388D01*
X65599464Y-68584513D01*
X65536677Y-68633219D01*
X65490869Y-68604432D01*
X65495963Y-68542665D01*
X65542201Y-68439832D01*
X65577244Y-68382158D01*
X65692940Y-68207329D01*
X65592470Y-68163944D01*
X65477041Y-68105332D01*
X65412108Y-68065236D01*
X65359891Y-68038352D01*
X65314070Y-68048832D01*
X65261011Y-68108815D01*
X65187083Y-68230440D01*
X65147736Y-68300655D01*
X65084109Y-68392364D01*
X65034617Y-68406042D01*
X65020667Y-68395555D01*
X65004949Y-68336660D01*
X65040827Y-68231554D01*
X65084210Y-68148407D01*
X65151891Y-68014882D01*
X65167364Y-67938757D01*
X65129495Y-67905345D01*
X65064985Y-67899478D01*
X64997267Y-67881792D01*
X64984000Y-67860456D01*
X64947294Y-67819015D01*
X64897373Y-67798781D01*
X64834127Y-67802635D01*
X64775927Y-67861876D01*
X64716855Y-67970080D01*
X64638117Y-68117221D01*
X64579851Y-68186575D01*
X64535708Y-68184535D01*
X64521555Y-68166757D01*
X64523794Y-68104349D01*
X64560785Y-67997728D01*
X64584764Y-67946927D01*
X64639083Y-67835728D01*
X64671126Y-67761002D01*
X64674782Y-67747312D01*
X64635233Y-67737397D01*
X64534090Y-67737413D01*
X64454457Y-67742456D01*
X64295203Y-67768669D01*
X64185025Y-67825605D01*
X64123040Y-67885338D01*
X64038114Y-68003067D01*
X63925968Y-68193496D01*
X63791427Y-68446993D01*
X63639313Y-68753926D01*
X63474450Y-69104664D01*
X63301662Y-69489573D01*
X63186849Y-69754783D01*
X62997804Y-70190828D01*
X62830566Y-70562239D01*
X62686787Y-70865706D01*
X62568119Y-71097924D01*
X62476215Y-71255582D01*
X62412726Y-71335373D01*
X62392662Y-71345043D01*
X62338503Y-71330055D01*
X62333565Y-71320102D01*
X62351600Y-71255466D01*
X62397035Y-71141160D01*
X62456868Y-71006080D01*
X62518093Y-70879123D01*
X62567708Y-70789186D01*
X62580765Y-70770783D01*
X62622639Y-70701312D01*
X62686256Y-70573225D01*
X62760271Y-70409827D01*
X62788384Y-70344227D01*
X62940324Y-69983933D01*
X62738676Y-69953694D01*
X62605376Y-69940867D01*
X62527093Y-69957548D01*
X62477219Y-70004771D01*
X62431751Y-70078235D01*
X62361392Y-70205514D01*
X62273951Y-70371009D01*
X62177241Y-70559118D01*
X62079073Y-70754241D01*
X61987257Y-70940778D01*
X61909604Y-71103128D01*
X61853926Y-71225690D01*
X61828034Y-71292864D01*
X61828273Y-71300870D01*
X61879638Y-71277607D01*
X61968542Y-71220704D01*
X61981297Y-71211722D01*
X62082188Y-71160705D01*
X62137911Y-71175585D01*
X62138008Y-71251932D01*
X62130199Y-71274796D01*
X62085563Y-71319366D01*
X61984085Y-71341006D01*
X61867573Y-71345043D01*
X61631904Y-71345043D01*
X62109393Y-70406348D01*
X62274755Y-70080872D01*
X62403394Y-69825342D01*
X62498658Y-69630969D01*
X62563897Y-69488961D01*
X62602460Y-69390528D01*
X62617698Y-69326881D01*
X62612958Y-69289228D01*
X62591592Y-69268780D01*
X62556948Y-69256747D01*
X62548308Y-69254468D01*
X62451356Y-69229115D01*
X62536874Y-69116701D01*
X62713277Y-69116701D01*
X62759038Y-69154556D01*
X62809761Y-69214023D01*
X62806531Y-69269435D01*
X62818209Y-69356232D01*
X62904531Y-69452235D01*
X62922997Y-69467191D01*
X63017294Y-69536807D01*
X63080757Y-69575082D01*
X63089440Y-69577597D01*
X63117791Y-69540064D01*
X63169364Y-69439841D01*
X63234468Y-69296224D01*
X63255092Y-69247791D01*
X63319670Y-69089946D01*
X63368213Y-68963668D01*
X63392440Y-68890753D01*
X63393739Y-68882938D01*
X63360573Y-68835399D01*
X63304457Y-68792625D01*
X63236877Y-68764704D01*
X63164568Y-68779762D01*
X63056673Y-68844581D01*
X63051246Y-68848260D01*
X62939803Y-68916245D01*
X62853123Y-68955673D01*
X62832865Y-68959652D01*
X62770249Y-68994366D01*
X62733493Y-69043584D01*
X62713277Y-69116701D01*
X62536874Y-69116701D01*
X62562253Y-69083340D01*
X62666870Y-68971240D01*
X62805893Y-68852964D01*
X62874431Y-68803777D01*
X63084756Y-68659865D01*
X63291338Y-68511222D01*
X63337575Y-68476346D01*
X63570434Y-68476346D01*
X63584630Y-68516482D01*
X63617205Y-68481468D01*
X63631463Y-68449358D01*
X63634550Y-68403758D01*
X63614102Y-68407791D01*
X63572004Y-68464348D01*
X63570434Y-68476346D01*
X63337575Y-68476346D01*
X63481527Y-68367765D01*
X63642673Y-68239415D01*
X63762128Y-68136092D01*
X63827240Y-68067713D01*
X63835478Y-68050178D01*
X63805673Y-67977741D01*
X63791304Y-67965739D01*
X63752724Y-67974806D01*
X63747130Y-68002412D01*
X63720765Y-68080669D01*
X63661632Y-68170671D01*
X63596180Y-68238679D01*
X63548672Y-68241044D01*
X63510279Y-68208696D01*
X63453046Y-68117766D01*
X63387083Y-67960439D01*
X63319287Y-67757273D01*
X63256559Y-67528826D01*
X63208254Y-67308744D01*
X63153073Y-67017856D01*
X63009776Y-67156745D01*
X62940246Y-67222037D01*
X62891628Y-67252138D01*
X62857809Y-67236894D01*
X62832673Y-67166149D01*
X62810108Y-67029750D01*
X62783997Y-66817540D01*
X62778749Y-66773043D01*
X62749639Y-66555101D01*
X62709310Y-66290743D01*
X62664077Y-66020146D01*
X62636453Y-65867478D01*
X62595321Y-65622696D01*
X62567415Y-65386209D01*
X62550754Y-65131441D01*
X62543354Y-64831818D01*
X62543281Y-64811536D01*
X62661217Y-64811536D01*
X62700958Y-65355323D01*
X62787788Y-65961816D01*
X62818474Y-66132522D01*
X62858170Y-66352041D01*
X62894398Y-66564594D01*
X62922022Y-66739464D01*
X62932293Y-66813223D01*
X62959527Y-67030097D01*
X63057549Y-66907167D01*
X63155570Y-66784236D01*
X63226107Y-66891890D01*
X63268092Y-66986409D01*
X63314826Y-67138248D01*
X63357309Y-67317452D01*
X63363775Y-67350119D01*
X63405946Y-67543391D01*
X63454648Y-67726652D01*
X63500052Y-67863297D01*
X63504372Y-67873790D01*
X63577839Y-68046884D01*
X63674933Y-67873790D01*
X63762326Y-67750893D01*
X63839008Y-67705585D01*
X63897646Y-67739969D01*
X63921890Y-67802929D01*
X63939856Y-67863893D01*
X63966796Y-67872517D01*
X64022926Y-67824351D01*
X64076616Y-67768855D01*
X64244669Y-67647221D01*
X64376339Y-67605501D01*
X64413541Y-67591965D01*
X64732469Y-67591965D01*
X64778839Y-67632458D01*
X64837194Y-67647253D01*
X65048743Y-67714322D01*
X65292435Y-67829857D01*
X65539925Y-67977931D01*
X65762869Y-68142617D01*
X65840247Y-68210909D01*
X66109271Y-68463774D01*
X66268374Y-68015974D01*
X66354350Y-67752806D01*
X66400513Y-67556844D01*
X66409245Y-67417673D01*
X66408016Y-67405328D01*
X66391014Y-67300437D01*
X66360403Y-67265484D01*
X66294474Y-67282434D01*
X66271581Y-67291968D01*
X66186834Y-67310151D01*
X66032291Y-67326813D01*
X65826508Y-67340546D01*
X65588036Y-67349940D01*
X65476668Y-67352349D01*
X65241869Y-67356985D01*
X65040452Y-67362601D01*
X64887938Y-67368635D01*
X64799846Y-67374523D01*
X64784519Y-67377451D01*
X64764408Y-67426131D01*
X64741393Y-67506877D01*
X64732469Y-67591965D01*
X64413541Y-67591965D01*
X64531362Y-67549096D01*
X64615437Y-67442518D01*
X64630608Y-67350208D01*
X64605274Y-67289621D01*
X64581806Y-67281043D01*
X64488922Y-67256221D01*
X64351294Y-67191345D01*
X64193764Y-67100797D01*
X64041171Y-66998962D01*
X63918355Y-66900223D01*
X63909155Y-66891542D01*
X63764085Y-66734489D01*
X63647445Y-66562667D01*
X63549563Y-66356577D01*
X63460763Y-66096723D01*
X63393808Y-65852886D01*
X63331131Y-65598585D01*
X63297680Y-65412638D01*
X63299384Y-65278177D01*
X63321334Y-65226957D01*
X63428796Y-65226957D01*
X63453343Y-65436636D01*
X63490581Y-65669071D01*
X63546987Y-65920239D01*
X63614262Y-66158698D01*
X63684105Y-66353006D01*
X63710319Y-66410169D01*
X63769738Y-66511246D01*
X63826055Y-66544457D01*
X63901380Y-66511071D01*
X64001715Y-66426918D01*
X64095637Y-66365173D01*
X64150294Y-66375132D01*
X64160887Y-66447149D01*
X64122617Y-66571581D01*
X64098750Y-66621906D01*
X64001474Y-66812585D01*
X64128302Y-66914073D01*
X64219029Y-66980803D01*
X64279483Y-67014719D01*
X64285022Y-67015781D01*
X64317488Y-66978979D01*
X64372336Y-66882871D01*
X64429686Y-66765307D01*
X64507479Y-66619345D01*
X64566878Y-66559357D01*
X64606729Y-66584667D01*
X64625879Y-66694599D01*
X64623724Y-66878956D01*
X64608521Y-67148828D01*
X64763130Y-67173703D01*
X64887141Y-67194574D01*
X64979520Y-67211667D01*
X64984000Y-67212600D01*
X65133932Y-67229248D01*
X65342940Y-67233134D01*
X65582890Y-67225646D01*
X65825651Y-67208174D01*
X66043091Y-67182105D01*
X66191815Y-67152984D01*
X66351638Y-67113624D01*
X66446404Y-67098774D01*
X66495730Y-67107733D01*
X66519233Y-67139800D01*
X66519800Y-67141257D01*
X66548339Y-67181607D01*
X66569684Y-67152971D01*
X66580977Y-67074605D01*
X66579358Y-66965765D01*
X66562985Y-66850407D01*
X66540454Y-66689934D01*
X66550085Y-66585895D01*
X66589188Y-66548625D01*
X66635885Y-66570413D01*
X66681980Y-66593901D01*
X66715361Y-66566359D01*
X66741517Y-66475927D01*
X66765934Y-66310742D01*
X66769436Y-66281735D01*
X66781909Y-66162490D01*
X66779683Y-66122658D01*
X66760868Y-66154236D01*
X66747221Y-66187739D01*
X66699087Y-66272926D01*
X66650281Y-66310910D01*
X66620635Y-66289346D01*
X66618434Y-66267919D01*
X66638021Y-66165499D01*
X66684748Y-66071642D01*
X66740570Y-66016789D01*
X66768773Y-66014336D01*
X66802392Y-66006329D01*
X66827312Y-65943589D01*
X66847203Y-65813152D01*
X66858117Y-65698565D01*
X66876565Y-65481075D01*
X66896390Y-65249465D01*
X66911697Y-65072348D01*
X66936696Y-64785217D01*
X66589826Y-64785217D01*
X66382175Y-64778674D01*
X66222316Y-64753715D01*
X66070309Y-64702351D01*
X65984361Y-64664079D01*
X65843529Y-64602106D01*
X65768634Y-64580844D01*
X65748539Y-64597815D01*
X65752447Y-64612474D01*
X65775867Y-64717761D01*
X65779130Y-64766743D01*
X65807721Y-64836351D01*
X65845391Y-64851478D01*
X65904033Y-64883315D01*
X65911652Y-64910893D01*
X65952678Y-65005392D01*
X66063323Y-65084940D01*
X66224933Y-65138275D01*
X66308770Y-65150670D01*
X66458255Y-65174048D01*
X66521293Y-65202400D01*
X66498968Y-65228708D01*
X66392363Y-65245956D01*
X66293581Y-65249043D01*
X66137385Y-65240413D01*
X66030372Y-65206111D01*
X65934344Y-65133518D01*
X65929146Y-65128657D01*
X65838920Y-65055020D01*
X65772329Y-65020402D01*
X65761687Y-65020355D01*
X65706974Y-65000546D01*
X65622354Y-64936229D01*
X65603656Y-64918910D01*
X65485156Y-64805379D01*
X65542573Y-65250321D01*
X65568853Y-65440916D01*
X65593736Y-65598536D01*
X65613802Y-65702651D01*
X65622813Y-65732192D01*
X65613567Y-65787166D01*
X65584782Y-65819624D01*
X65538374Y-65834336D01*
X65475498Y-65800350D01*
X65381174Y-65707953D01*
X65337040Y-65658977D01*
X65224135Y-65520676D01*
X65126933Y-65383111D01*
X65079918Y-65302033D01*
X65032485Y-65209491D01*
X65004956Y-65189753D01*
X64979684Y-65235652D01*
X64971152Y-65257859D01*
X64945250Y-65315558D01*
X64915349Y-65324162D01*
X64862014Y-65277290D01*
X64792657Y-65199280D01*
X64652695Y-65039083D01*
X64541409Y-65160580D01*
X64430122Y-65282077D01*
X64590854Y-65260518D01*
X64751587Y-65238959D01*
X64782594Y-65445732D01*
X64786423Y-65643559D01*
X64732207Y-65782086D01*
X64622953Y-65856122D01*
X64538338Y-65867478D01*
X64369568Y-65845043D01*
X64270522Y-65773716D01*
X64233672Y-65647468D01*
X64233043Y-65622968D01*
X64228942Y-65548322D01*
X64321391Y-65548322D01*
X64351828Y-65688990D01*
X64441880Y-65765175D01*
X64530432Y-65779130D01*
X64631828Y-65740728D01*
X64669764Y-65680980D01*
X64684817Y-65586631D01*
X64676795Y-65480178D01*
X64651491Y-65395216D01*
X64615325Y-65365212D01*
X64459558Y-65396120D01*
X64371582Y-65424356D01*
X64332073Y-65461955D01*
X64321709Y-65520958D01*
X64321391Y-65548322D01*
X64228942Y-65548322D01*
X64226825Y-65509799D01*
X64198193Y-65477878D01*
X64132180Y-65520417D01*
X64090345Y-65558261D01*
X63996867Y-65623913D01*
X63920772Y-65644734D01*
X63880536Y-65624866D01*
X63894634Y-65568449D01*
X63932661Y-65522922D01*
X63958556Y-65480081D01*
X63910574Y-65469913D01*
X63838474Y-65457166D01*
X63835354Y-65428377D01*
X63887173Y-65397724D01*
X63979892Y-65379385D01*
X64001130Y-65378460D01*
X64136634Y-65366291D01*
X64246772Y-65340723D01*
X64255130Y-65337391D01*
X64287784Y-65314340D01*
X64246378Y-65301414D01*
X64131045Y-65296322D01*
X64003569Y-65286364D01*
X63945688Y-65263248D01*
X63945913Y-65249043D01*
X64003716Y-65221037D01*
X64113945Y-65205798D01*
X64150700Y-65204870D01*
X64295850Y-65186029D01*
X64413872Y-65115911D01*
X64461987Y-65071069D01*
X64546827Y-64973970D01*
X64576463Y-64889297D01*
X64565377Y-64775178D01*
X64565014Y-64773232D01*
X64539571Y-64657234D01*
X64516257Y-64581349D01*
X64512747Y-64574418D01*
X64472595Y-64584761D01*
X64386452Y-64644162D01*
X64271860Y-64740291D01*
X64254995Y-64755568D01*
X64069246Y-64900915D01*
X63852212Y-65035583D01*
X63723766Y-65099226D01*
X63428796Y-65226957D01*
X63321334Y-65226957D01*
X63342172Y-65178333D01*
X63431973Y-65096239D01*
X63574716Y-65015027D01*
X63711686Y-64948541D01*
X63968193Y-64808922D01*
X64185305Y-64656515D01*
X64277217Y-64574234D01*
X64431676Y-64432590D01*
X64542393Y-64364463D01*
X64613384Y-64369041D01*
X64648664Y-64445512D01*
X64653766Y-64498087D01*
X64676339Y-64629616D01*
X64726480Y-64791090D01*
X64760120Y-64873565D01*
X64818090Y-64996017D01*
X64853805Y-65047203D01*
X64878982Y-65037414D01*
X64898466Y-64995043D01*
X64942637Y-64916884D01*
X64993169Y-64908962D01*
X65057131Y-64975512D01*
X65141592Y-65120771D01*
X65156487Y-65149652D01*
X65236426Y-65298274D01*
X65312118Y-65425705D01*
X65357865Y-65492000D01*
X65393629Y-65530560D01*
X65412563Y-65526830D01*
X65417052Y-65467724D01*
X65409478Y-65340157D01*
X65402115Y-65249043D01*
X65382409Y-65059430D01*
X65357206Y-64880600D01*
X65331957Y-64751221D01*
X65331917Y-64751068D01*
X65306912Y-64606382D01*
X65325623Y-64538465D01*
X65388081Y-64547296D01*
X65494314Y-64632853D01*
X65495352Y-64633858D01*
X65643355Y-64777308D01*
X65617242Y-64616393D01*
X65611257Y-64500261D01*
X65646635Y-64440487D01*
X65732731Y-64434666D01*
X65878899Y-64480395D01*
X65980291Y-64523102D01*
X66215034Y-64606640D01*
X66457355Y-64658605D01*
X66677030Y-64674074D01*
X66810633Y-64658295D01*
X66891369Y-64618493D01*
X66928358Y-64534257D01*
X66936039Y-64474902D01*
X66956350Y-64369175D01*
X66988384Y-64311842D01*
X66993913Y-64309425D01*
X67023783Y-64342930D01*
X67042559Y-64451340D01*
X67050908Y-64621998D01*
X67049498Y-64842246D01*
X67038999Y-65099429D01*
X67020077Y-65380888D01*
X66993403Y-65673968D01*
X66959643Y-65966011D01*
X66919466Y-66244360D01*
X66880155Y-66463826D01*
X66835195Y-66657193D01*
X66767402Y-66908697D01*
X66683997Y-67193397D01*
X66592200Y-67486351D01*
X66529345Y-67675566D01*
X66448682Y-67915244D01*
X66381836Y-68120092D01*
X66332577Y-68278013D01*
X66304676Y-68376913D01*
X66301903Y-68404695D01*
X66302136Y-68404435D01*
X66341067Y-68355816D01*
X66422867Y-68251479D01*
X66536431Y-68105654D01*
X66670656Y-67932570D01*
X66704248Y-67889153D01*
X66840970Y-67717890D01*
X66960852Y-67578032D01*
X67012453Y-67524000D01*
X67016000Y-67524000D01*
X67038087Y-67546087D01*
X67060174Y-67524000D01*
X67038087Y-67501913D01*
X67016000Y-67524000D01*
X67012453Y-67524000D01*
X67052926Y-67481620D01*
X67106224Y-67440694D01*
X67112646Y-67440781D01*
X67161600Y-67489614D01*
X67238411Y-67584224D01*
X67280279Y-67640391D01*
X67406202Y-67814222D01*
X67430239Y-67536589D01*
X67443329Y-67379789D01*
X67453048Y-67252982D01*
X67456824Y-67192696D01*
X67466115Y-67065551D01*
X67484409Y-66894543D01*
X67508646Y-66701450D01*
X67535763Y-66508050D01*
X67562701Y-66336122D01*
X67586398Y-66207445D01*
X67603792Y-66143795D01*
X67604405Y-66142765D01*
X67647086Y-66116314D01*
X67720883Y-66145944D01*
X67770057Y-66178904D01*
X67854726Y-66229922D01*
X67900649Y-66239681D01*
X67903096Y-66234921D01*
X67907787Y-66065396D01*
X67897297Y-65826023D01*
X67873517Y-65533640D01*
X67838339Y-65205082D01*
X67793656Y-64857184D01*
X67741359Y-64506781D01*
X67683341Y-64170710D01*
X67654202Y-64020352D01*
X67603139Y-63747239D01*
X67577001Y-63555427D01*
X67575707Y-63441483D01*
X67599174Y-63401974D01*
X67639965Y-63425774D01*
X67674877Y-63498375D01*
X67716415Y-63645357D01*
X67762479Y-63853187D01*
X67810970Y-64108330D01*
X67859787Y-64397251D01*
X67906830Y-64706418D01*
X67950001Y-65022295D01*
X67987197Y-65331348D01*
X68016321Y-65620044D01*
X68035270Y-65874847D01*
X68041005Y-66010474D01*
X68040692Y-66240362D01*
X68023634Y-66388617D01*
X67986420Y-66460945D01*
X67925641Y-66463048D01*
X67837888Y-66400631D01*
X67818559Y-66382596D01*
X67692884Y-66262191D01*
X67639148Y-66848922D01*
X67617161Y-67080233D01*
X67595659Y-67291062D01*
X67576941Y-67459839D01*
X67563304Y-67564993D01*
X67562017Y-67572909D01*
X67538621Y-67710167D01*
X67951654Y-67805610D01*
X68174408Y-67854752D01*
X68404669Y-67901756D01*
X68602124Y-67938494D01*
X68651126Y-67946647D01*
X68862260Y-67987598D01*
X69091196Y-68043735D01*
X69309814Y-68107086D01*
X69489995Y-68169677D01*
X69581283Y-68210407D01*
X69640640Y-68238025D01*
X69647915Y-68217500D01*
X69608869Y-68134380D01*
X69563406Y-68029325D01*
X69504700Y-67873540D01*
X69445458Y-67700746D01*
X69445441Y-67700696D01*
X69330229Y-67386221D01*
X69191031Y-67089238D01*
X69011449Y-66776217D01*
X68930955Y-66648800D01*
X68843834Y-66504274D01*
X68783850Y-66386342D01*
X68760958Y-66315253D01*
X68762638Y-66306356D01*
X68818905Y-66285083D01*
X68925246Y-66285353D01*
X68951275Y-66288575D01*
X69098987Y-66299984D01*
X69176270Y-66277069D01*
X69183881Y-66214111D01*
X69122576Y-66105386D01*
X68996221Y-65948755D01*
X68753257Y-65652109D01*
X68558625Y-65373277D01*
X68389110Y-65078243D01*
X68349631Y-65001337D01*
X68273333Y-64829068D01*
X68252693Y-64716717D01*
X68289504Y-64654170D01*
X68385562Y-64631315D01*
X68415422Y-64630609D01*
X68461217Y-64625961D01*
X68475784Y-64602378D01*
X68454414Y-64545400D01*
X68392402Y-64440568D01*
X68313418Y-64317247D01*
X68207273Y-64140965D01*
X68083917Y-63917409D01*
X67961524Y-63680254D01*
X67890479Y-63533455D01*
X67670254Y-63063025D01*
X67602641Y-63195252D01*
X67490967Y-63372767D01*
X67375271Y-63464552D01*
X67245254Y-63473001D01*
X67090619Y-63400509D01*
X67009252Y-63340851D01*
X67331105Y-63340851D01*
X67337208Y-63349489D01*
X67350060Y-63349565D01*
X67350169Y-63349565D01*
X67378493Y-63312290D01*
X67433831Y-63212272D01*
X67506696Y-63067222D01*
X67549428Y-62977605D01*
X67634596Y-62780368D01*
X67708462Y-62581511D01*
X67758508Y-62415623D01*
X67767432Y-62375228D01*
X67801729Y-62178058D01*
X67814355Y-62061251D01*
X67804813Y-62025541D01*
X67772607Y-62071666D01*
X67717239Y-62200362D01*
X67638213Y-62412365D01*
X67535030Y-62708413D01*
X67527359Y-62730925D01*
X67445915Y-62970220D01*
X67389155Y-63138337D01*
X67353491Y-63247799D01*
X67335337Y-63311129D01*
X67331105Y-63340851D01*
X67009252Y-63340851D01*
X67001347Y-63335055D01*
X66644423Y-63091666D01*
X66229899Y-62888840D01*
X66051242Y-62819483D01*
X65893428Y-62757573D01*
X65771714Y-62701582D01*
X65707035Y-62661401D01*
X65702052Y-62654504D01*
X65725113Y-62601166D01*
X65731259Y-62594374D01*
X65911652Y-62594374D01*
X65949217Y-62632310D01*
X66028036Y-62662415D01*
X66164947Y-62710647D01*
X66349335Y-62793866D01*
X66554890Y-62898465D01*
X66755303Y-63010841D01*
X66924267Y-63117389D01*
X66968086Y-63148541D01*
X67078775Y-63227919D01*
X67156082Y-63278424D01*
X67179722Y-63288915D01*
X67196475Y-63246160D01*
X67236872Y-63133790D01*
X67295982Y-62965792D01*
X67368875Y-62756151D01*
X67427677Y-62585663D01*
X67514869Y-62330528D01*
X67575318Y-62147015D01*
X67611458Y-62023356D01*
X67625725Y-61947784D01*
X67620554Y-61908529D01*
X67598381Y-61893824D01*
X67571259Y-61891826D01*
X67482864Y-61902586D01*
X67345526Y-61929924D01*
X67190012Y-61966421D01*
X67047088Y-62004663D01*
X66947520Y-62037233D01*
X66926238Y-62047309D01*
X66918122Y-62097875D01*
X66935267Y-62203476D01*
X66954939Y-62277238D01*
X66997295Y-62449928D01*
X66997057Y-62545228D01*
X66954133Y-62563199D01*
X66868431Y-62503905D01*
X66770179Y-62402200D01*
X66576309Y-62183704D01*
X66421716Y-62257424D01*
X66264218Y-62339180D01*
X66115564Y-62427609D01*
X65995438Y-62509707D01*
X65923526Y-62572470D01*
X65911652Y-62594374D01*
X65731259Y-62594374D01*
X65802834Y-62515269D01*
X65916529Y-62413501D01*
X66047511Y-62312553D01*
X66177093Y-62229115D01*
X66180441Y-62227237D01*
X66331304Y-62142995D01*
X66154608Y-62089847D01*
X66006644Y-62054338D01*
X65823249Y-62022157D01*
X65720222Y-62008763D01*
X65576668Y-61991042D01*
X65471017Y-61974005D01*
X65433092Y-61964043D01*
X65369841Y-61958637D01*
X65244994Y-61967586D01*
X65083470Y-61987342D01*
X64910188Y-62014359D01*
X64750068Y-62045089D01*
X64628028Y-62075985D01*
X64613817Y-62080666D01*
X64450650Y-62137156D01*
X64612140Y-62325821D01*
X64695468Y-62432679D01*
X64742785Y-62512530D01*
X64746467Y-62541648D01*
X64687210Y-62565159D01*
X64582527Y-62583784D01*
X64581484Y-62583899D01*
X64399193Y-62630429D01*
X64179879Y-62727013D01*
X63947994Y-62860253D01*
X63727992Y-63016752D01*
X63614775Y-63113544D01*
X63493645Y-63221768D01*
X63401550Y-63296586D01*
X63353330Y-63326232D01*
X63349565Y-63323793D01*
X63328443Y-63324148D01*
X63294348Y-63361864D01*
X63249003Y-63407841D01*
X63198888Y-63400018D01*
X63129926Y-63351672D01*
X63020722Y-63268121D01*
X62921020Y-63430321D01*
X62821569Y-63603063D01*
X62754273Y-63755592D01*
X62711044Y-63916372D01*
X62683794Y-64113864D01*
X62667812Y-64321391D01*
X62661217Y-64811536D01*
X62543281Y-64811536D01*
X62542555Y-64608522D01*
X62545019Y-64300341D01*
X62553667Y-64062784D01*
X62572466Y-63878151D01*
X62605382Y-63728747D01*
X62656381Y-63596873D01*
X62729430Y-63464833D01*
X62828494Y-63314929D01*
X62834381Y-63306386D01*
X62972223Y-63106609D01*
X62973155Y-62307248D01*
X62974021Y-62199649D01*
X63087729Y-62199649D01*
X63089699Y-62364003D01*
X63096602Y-62524099D01*
X63108649Y-62661433D01*
X63115491Y-62709043D01*
X63145487Y-62885739D01*
X63179267Y-62731130D01*
X63192885Y-62606201D01*
X63195016Y-62433148D01*
X63186463Y-62267304D01*
X63168139Y-62098260D01*
X63145881Y-61954850D01*
X63125001Y-61869739D01*
X63109330Y-61866083D01*
X63097755Y-61932186D01*
X63090485Y-62049542D01*
X63087729Y-62199649D01*
X62974021Y-62199649D01*
X62975768Y-61982765D01*
X62983971Y-61737977D01*
X62987953Y-61693714D01*
X63269744Y-61693714D01*
X63274928Y-61812701D01*
X63289042Y-61980136D01*
X63303658Y-62116232D01*
X63325466Y-62373857D01*
X63334231Y-62637924D01*
X63328751Y-62865909D01*
X63325902Y-62902738D01*
X63295818Y-63239130D01*
X63488343Y-63057648D01*
X63641505Y-62924257D01*
X63813937Y-62789644D01*
X63894178Y-62732868D01*
X64063807Y-62632979D01*
X64252311Y-62542043D01*
X64335917Y-62509024D01*
X64564348Y-62428477D01*
X64344441Y-62226413D01*
X64228983Y-62124455D01*
X64138157Y-62051831D01*
X64091834Y-62024348D01*
X64051141Y-62057295D01*
X63975525Y-62143779D01*
X63881162Y-62265265D01*
X63878766Y-62268503D01*
X63765262Y-62408285D01*
X63685564Y-62472629D01*
X63638699Y-62459926D01*
X63623697Y-62368565D01*
X63639585Y-62196936D01*
X63684661Y-61947005D01*
X63696633Y-61860309D01*
X63675726Y-61804684D01*
X63604179Y-61756708D01*
X63506032Y-61711401D01*
X63384112Y-61663434D01*
X63298138Y-61640677D01*
X63274689Y-61642760D01*
X63269744Y-61693714D01*
X62987953Y-61693714D01*
X62999594Y-61564310D01*
X63024465Y-61453190D01*
X63060414Y-61396046D01*
X63109270Y-61384303D01*
X63165593Y-61405362D01*
G37*
%TO.C,Q1*%
D12*
X47790000Y-37200000D02*
X47790000Y-40800000D01*
X47801522Y-37161522D02*
G75*
G02*
X52240001Y-39000000I1838478J-1838478D01*
G01*
X52240000Y-39000000D02*
G75*
G02*
X47801522Y-40838478I-2600000J0D01*
G01*
%TO.C,D1*%
X48920000Y-47940000D02*
X48764000Y-47940000D01*
X51236000Y-47940000D02*
X51080000Y-47940000D01*
X48920000Y-50540961D02*
G75*
G02*
X48920000Y-48459039I1080000J1040961D01*
G01*
X48920000Y-51171437D02*
G75*
G02*
X48764484Y-47940000I1080000J1671437D01*
G01*
X51080000Y-48459039D02*
G75*
G02*
X51080000Y-50540961I-1080000J-1040961D01*
G01*
X51235516Y-47940000D02*
G75*
G02*
X51080000Y-51171437I-1235516J-1560000D01*
G01*
%TD*%
%LPC*%
D13*
%TO.C,R2*%
X62000000Y-40500000D03*
X62000000Y-48120000D03*
%TD*%
%TO.C,R4*%
X39000000Y-43500000D03*
X39000000Y-35880000D03*
%TD*%
D14*
%TO.C,Q1*%
X49640000Y-37730000D03*
D15*
X49640000Y-39000000D03*
X49640000Y-40270000D03*
%TD*%
D16*
%TO.C,D1*%
X50000000Y-48230000D03*
D17*
X50000000Y-50770000D03*
%TD*%
D18*
%TO.C,J1*%
X35500000Y-57040000D03*
D19*
X35500000Y-54500000D03*
X35500000Y-51960000D03*
%TD*%
D18*
%TO.C,J2*%
X29500000Y-42960000D03*
D19*
X29500000Y-45500000D03*
X29500000Y-48040000D03*
%TD*%
%LPD*%
M02*
