%TF.GenerationSoftware,KiCad,Pcbnew,10.0.3*%
%TF.CreationDate,2026-05-25T20:08:36+09:00*%
%TF.ProjectId,rs_lamp,72735f6c-616d-4702-9e6b-696361645f70,rev?*%
%TF.SameCoordinates,Original*%
%TF.FileFunction,Legend,Bot*%
%TF.FilePolarity,Positive*%
%FSLAX46Y46*%
G04 Gerber Fmt 4.6, Leading zero omitted, Abs format (unit mm)*
G04 Created by KiCad (PCBNEW 10.0.3) date 2026-05-25 20:08:36*
%MOMM*%
%LPD*%
G01*
G04 APERTURE LIST*
%ADD10C,0.150000*%
%ADD11C,0.120000*%
%ADD12C,1.600000*%
%ADD13R,1.500000X1.050000*%
%ADD14O,1.500000X1.050000*%
%ADD15R,1.800000X1.800000*%
%ADD16C,1.800000*%
%ADD17R,1.700000X1.700000*%
%ADD18C,1.700000*%
G04 APERTURE END LIST*
D10*
X31453333Y-59264819D02*
X31453333Y-59979104D01*
X31453333Y-59979104D02*
X31500952Y-60121961D01*
X31500952Y-60121961D02*
X31596190Y-60217200D01*
X31596190Y-60217200D02*
X31739047Y-60264819D01*
X31739047Y-60264819D02*
X31834285Y-60264819D01*
X30453333Y-60264819D02*
X31024761Y-60264819D01*
X30739047Y-60264819D02*
X30739047Y-59264819D01*
X30739047Y-59264819D02*
X30834285Y-59407676D01*
X30834285Y-59407676D02*
X30929523Y-59502914D01*
X30929523Y-59502914D02*
X31024761Y-59550533D01*
X25448333Y-40144819D02*
X25448333Y-40859104D01*
X25448333Y-40859104D02*
X25495952Y-41001961D01*
X25495952Y-41001961D02*
X25591190Y-41097200D01*
X25591190Y-41097200D02*
X25734047Y-41144819D01*
X25734047Y-41144819D02*
X25829285Y-41144819D01*
X25019761Y-40240057D02*
X24972142Y-40192438D01*
X24972142Y-40192438D02*
X24876904Y-40144819D01*
X24876904Y-40144819D02*
X24638809Y-40144819D01*
X24638809Y-40144819D02*
X24543571Y-40192438D01*
X24543571Y-40192438D02*
X24495952Y-40240057D01*
X24495952Y-40240057D02*
X24448333Y-40335295D01*
X24448333Y-40335295D02*
X24448333Y-40430533D01*
X24448333Y-40430533D02*
X24495952Y-40573390D01*
X24495952Y-40573390D02*
X25067380Y-41144819D01*
X25067380Y-41144819D02*
X24448333Y-41144819D01*
%TO.C,J1*%
D11*
X25410000Y-50630000D02*
X34040000Y-50630000D01*
X25410000Y-53230000D02*
X34040000Y-53230000D01*
X25410000Y-55770000D02*
X34040000Y-55770000D01*
X25410000Y-55888095D02*
X34040000Y-55888095D01*
X25410000Y-56006190D02*
X34040000Y-56006190D01*
X25410000Y-56124286D02*
X34040000Y-56124286D01*
X25410000Y-56242381D02*
X34040000Y-56242381D01*
X25410000Y-56360476D02*
X34040000Y-56360476D01*
X25410000Y-56478571D02*
X34040000Y-56478571D01*
X25410000Y-56596667D02*
X34040000Y-56596667D01*
X25410000Y-56714762D02*
X34040000Y-56714762D01*
X25410000Y-56832857D02*
X34040000Y-56832857D01*
X25410000Y-56950952D02*
X34040000Y-56950952D01*
X25410000Y-57069048D02*
X34040000Y-57069048D01*
X25410000Y-57187143D02*
X34040000Y-57187143D01*
X25410000Y-57305238D02*
X34040000Y-57305238D01*
X25410000Y-57423333D02*
X34040000Y-57423333D01*
X25410000Y-57541429D02*
X34040000Y-57541429D01*
X25410000Y-57659524D02*
X34040000Y-57659524D01*
X25410000Y-57777619D02*
X34040000Y-57777619D01*
X25410000Y-57895714D02*
X34040000Y-57895714D01*
X25410000Y-58013810D02*
X34040000Y-58013810D01*
X25410000Y-58131905D02*
X34040000Y-58131905D01*
X25410000Y-58250000D02*
X34040000Y-58250000D01*
X25410000Y-58370000D02*
X25410000Y-50630000D01*
X25410000Y-58370000D02*
X34040000Y-58370000D01*
X34040000Y-51600000D02*
X34450000Y-51600000D01*
X34040000Y-52320000D02*
X34450000Y-52320000D01*
X34040000Y-54140000D02*
X34450000Y-54140000D01*
X34040000Y-54860000D02*
X34450000Y-54860000D01*
X34040000Y-56680000D02*
X34390000Y-56680000D01*
X34040000Y-57400000D02*
X34390000Y-57400000D01*
X34040000Y-58370000D02*
X34040000Y-50630000D01*
X35500000Y-58370000D02*
X36610000Y-58370000D01*
X36610000Y-58370000D02*
X36610000Y-57040000D01*
%TO.C,J2*%
X19350000Y-45070000D02*
X19350000Y-45930000D01*
X19350000Y-45930000D02*
X25350000Y-45930000D01*
X19350000Y-47610000D02*
X19350000Y-48470000D01*
X19350000Y-48470000D02*
X25350000Y-48470000D01*
X25350000Y-45070000D02*
X19350000Y-45070000D01*
X25350000Y-47610000D02*
X19350000Y-47610000D01*
X28110000Y-44230000D02*
X25350000Y-44230000D01*
X28110000Y-46770000D02*
X25350000Y-46770000D01*
X28340000Y-42530000D02*
X28110000Y-42530000D01*
X28340000Y-43390000D02*
X28110000Y-43390000D01*
X28422642Y-45070000D02*
X28110000Y-45070000D01*
X28422642Y-45930000D02*
X28110000Y-45930000D01*
X28422642Y-47610000D02*
X28110000Y-47610000D01*
X28422642Y-48470000D02*
X28110000Y-48470000D01*
X30770000Y-41690000D02*
X29500000Y-41690000D01*
X30770000Y-42960000D02*
X30770000Y-41690000D01*
X19350000Y-42530000D02*
X25350000Y-42530000D01*
X25350000Y-43390000D01*
X19350000Y-43390000D01*
X19350000Y-42530000D01*
G36*
X19350000Y-42530000D02*
G01*
X25350000Y-42530000D01*
X25350000Y-43390000D01*
X19350000Y-43390000D01*
X19350000Y-42530000D01*
G37*
X25350000Y-41580000D02*
X28110000Y-41580000D01*
X28110000Y-49420000D01*
X25350000Y-49420000D01*
X25350000Y-41580000D01*
%TD*%
%LPC*%
D12*
%TO.C,R2*%
X62000000Y-40500000D03*
X62000000Y-48120000D03*
%TD*%
%TO.C,R4*%
X39000000Y-43500000D03*
X39000000Y-35880000D03*
%TD*%
D13*
%TO.C,Q1*%
X49640000Y-37730000D03*
D14*
X49640000Y-39000000D03*
X49640000Y-40270000D03*
%TD*%
D15*
%TO.C,D1*%
X50000000Y-48230000D03*
D16*
X50000000Y-50770000D03*
%TD*%
D17*
%TO.C,J1*%
X35500000Y-57040000D03*
D18*
X35500000Y-54500000D03*
X35500000Y-51960000D03*
%TD*%
D17*
%TO.C,J2*%
X29500000Y-42960000D03*
D18*
X29500000Y-45500000D03*
X29500000Y-48040000D03*
%TD*%
%LPD*%
M02*
