%TF.GenerationSoftware,KiCad,Pcbnew,10.0.3*%
%TF.CreationDate,2026-06-08T14:07:37+09:00*%
%TF.ProjectId,rs_lamp,72735f6c-616d-4702-9e6b-696361645f70,rev?*%
%TF.SameCoordinates,Original*%
%TF.FileFunction,Copper,L1,Top*%
%TF.FilePolarity,Positive*%
%FSLAX46Y46*%
G04 Gerber Fmt 4.6, Leading zero omitted, Abs format (unit mm)*
G04 Created by KiCad (PCBNEW 10.0.3) date 2026-06-08 14:07:37*
%MOMM*%
%LPD*%
G01*
G04 APERTURE LIST*
%TA.AperFunction,ComponentPad*%
%ADD10C,1.600000*%
%TD*%
%TA.AperFunction,ComponentPad*%
%ADD11R,1.500000X1.050000*%
%TD*%
%TA.AperFunction,ComponentPad*%
%ADD12O,1.500000X1.050000*%
%TD*%
%TA.AperFunction,ComponentPad*%
%ADD13R,1.800000X1.800000*%
%TD*%
%TA.AperFunction,ComponentPad*%
%ADD14C,1.800000*%
%TD*%
%TA.AperFunction,ComponentPad*%
%ADD15R,1.700000X1.700000*%
%TD*%
%TA.AperFunction,ComponentPad*%
%ADD16C,1.700000*%
%TD*%
%TA.AperFunction,Conductor*%
%ADD17C,0.500000*%
%TD*%
G04 APERTURE END LIST*
D10*
%TO.P,R2,1*%
%TO.N,Net-(Q1-D)*%
X60000000Y-53310000D03*
%TO.P,R2,2*%
%TO.N,Net-(D1-K)*%
X60000000Y-45690000D03*
%TD*%
%TO.P,R4,1*%
%TO.N,/IN*%
X32690000Y-46000000D03*
%TO.P,R4,2*%
%TO.N,GND*%
X40310000Y-46000000D03*
%TD*%
D11*
%TO.P,Q1,1,S_1*%
%TO.N,GND*%
X44000000Y-54230000D03*
D12*
%TO.P,Q1,2,G_2*%
%TO.N,/IN*%
X44000000Y-55500000D03*
%TO.P,Q1,3,D_3*%
%TO.N,Net-(Q1-D)*%
X44000000Y-56770000D03*
%TD*%
D13*
%TO.P,D1,1,K_1*%
%TO.N,Net-(D1-K)*%
X50000000Y-48230000D03*
D14*
%TO.P,D1,2,A_2*%
%TO.N,+5V*%
X50000000Y-50770000D03*
%TD*%
D15*
%TO.P,J1,1,Pin_1_1*%
%TO.N,GND*%
X35500000Y-57040000D03*
D16*
%TO.P,J1,2,Pin_2_2*%
%TO.N,/IN*%
X35500000Y-54500000D03*
%TO.P,J1,3,Pin_3_3*%
%TO.N,+5V*%
X35500000Y-51960000D03*
%TD*%
D15*
%TO.P,J2,1,Pin_1_1*%
%TO.N,GND*%
X29500000Y-42960000D03*
D16*
%TO.P,J2,2,Pin_2_2*%
%TO.N,/IN*%
X29500000Y-45500000D03*
%TO.P,J2,3,Pin_3_3*%
%TO.N,+5V*%
X29500000Y-48040000D03*
%TD*%
%TO.N,Net-(Q1-D)*%
D17*
X44000000Y-56770000D02*
X56540000Y-56770000D01*
X56540000Y-56770000D02*
X60000000Y-53310000D01*
%TO.N,/IN*%
X36500000Y-55500000D02*
X44000000Y-55500000D01*
X35500000Y-54500000D02*
X36500000Y-55500000D01*
%TO.N,Net-(D1-K)*%
X57460000Y-48230000D02*
X60000000Y-45690000D01*
X50000000Y-48230000D02*
X57460000Y-48230000D01*
%TO.N,/IN*%
X34121522Y-54500000D02*
X35500000Y-54500000D01*
X28200000Y-48578478D02*
X34121522Y-54500000D01*
X28200000Y-46800000D02*
X28200000Y-48578478D01*
X29500000Y-45500000D02*
X28200000Y-46800000D01*
X30000000Y-46000000D02*
X29500000Y-45500000D01*
X32690000Y-46000000D02*
X30000000Y-46000000D01*
%TO.N,+5V*%
X36690000Y-50770000D02*
X50000000Y-50770000D01*
X35500000Y-51960000D02*
X36690000Y-50770000D01*
X31580000Y-48040000D02*
X29500000Y-48040000D01*
X35500000Y-51960000D02*
X31580000Y-48040000D01*
%TD*%
%TA.AperFunction,Conductor*%
%TO.N,GND*%
G36*
X71442539Y-38520185D02*
G01*
X71488294Y-38572989D01*
X71499500Y-38624500D01*
X71499500Y-61375500D01*
X71479815Y-61442539D01*
X71427011Y-61488294D01*
X71375500Y-61499500D01*
X28624500Y-61499500D01*
X28557461Y-61479815D01*
X28511706Y-61427011D01*
X28500500Y-61375500D01*
X28500500Y-58934110D01*
X28500500Y-58934108D01*
X28466392Y-58806814D01*
X28400500Y-58692686D01*
X28307314Y-58599500D01*
X28250250Y-58566554D01*
X28193187Y-58533608D01*
X28129539Y-58516554D01*
X28065892Y-58499500D01*
X28065891Y-58499500D01*
X25624500Y-58499500D01*
X25557461Y-58479815D01*
X25511706Y-58427011D01*
X25500500Y-58375500D01*
X25500500Y-48652398D01*
X27449499Y-48652398D01*
X27478340Y-48797385D01*
X27478343Y-48797395D01*
X27534913Y-48933968D01*
X27534915Y-48933971D01*
X27546735Y-48951662D01*
X27546734Y-48951662D01*
X27617046Y-49056892D01*
X27617052Y-49056899D01*
X33643106Y-55082952D01*
X33643108Y-55082954D01*
X33665944Y-55098211D01*
X33716792Y-55132186D01*
X33766027Y-55165084D01*
X33822602Y-55188518D01*
X33902610Y-55221659D01*
X34018074Y-55244626D01*
X34037760Y-55248542D01*
X34047603Y-55250500D01*
X34047604Y-55250500D01*
X34047605Y-55250500D01*
X34195440Y-55250500D01*
X34312779Y-55250500D01*
X34379818Y-55270185D01*
X34413097Y-55301615D01*
X34469892Y-55379788D01*
X34583818Y-55493714D01*
X34617303Y-55555037D01*
X34612319Y-55624729D01*
X34570447Y-55680662D01*
X34539471Y-55697577D01*
X34407912Y-55746646D01*
X34407906Y-55746649D01*
X34292812Y-55832809D01*
X34292809Y-55832812D01*
X34206649Y-55947906D01*
X34206645Y-55947913D01*
X34156403Y-56082620D01*
X34156401Y-56082627D01*
X34150000Y-56142155D01*
X34150000Y-56790000D01*
X35066988Y-56790000D01*
X35034075Y-56847007D01*
X35000000Y-56974174D01*
X35000000Y-57105826D01*
X35034075Y-57232993D01*
X35066988Y-57290000D01*
X34150000Y-57290000D01*
X34150000Y-57937844D01*
X34156401Y-57997372D01*
X34156403Y-57997379D01*
X34206645Y-58132086D01*
X34206649Y-58132093D01*
X34292809Y-58247187D01*
X34292812Y-58247190D01*
X34407906Y-58333350D01*
X34407913Y-58333354D01*
X34542620Y-58383596D01*
X34542627Y-58383598D01*
X34602155Y-58389999D01*
X34602172Y-58390000D01*
X35250000Y-58390000D01*
X35250000Y-57473012D01*
X35307007Y-57505925D01*
X35434174Y-57540000D01*
X35565826Y-57540000D01*
X35692993Y-57505925D01*
X35750000Y-57473012D01*
X35750000Y-58390000D01*
X36397828Y-58390000D01*
X36397844Y-58389999D01*
X36457372Y-58383598D01*
X36457379Y-58383596D01*
X36592086Y-58333354D01*
X36592093Y-58333350D01*
X36707187Y-58247190D01*
X36707190Y-58247187D01*
X36793350Y-58132093D01*
X36793354Y-58132086D01*
X36843596Y-57997379D01*
X36843598Y-57997372D01*
X36849999Y-57937844D01*
X36850000Y-57937827D01*
X36850000Y-57290000D01*
X35933012Y-57290000D01*
X35965925Y-57232993D01*
X36000000Y-57105826D01*
X36000000Y-56974174D01*
X35965925Y-56847007D01*
X35933012Y-56790000D01*
X36850000Y-56790000D01*
X36850000Y-56374500D01*
X36869685Y-56307461D01*
X36922489Y-56261706D01*
X36974000Y-56250500D01*
X42694612Y-56250500D01*
X42761651Y-56270185D01*
X42807406Y-56322989D01*
X42817350Y-56392147D01*
X42809174Y-56421947D01*
X42788909Y-56470873D01*
X42788908Y-56470876D01*
X42788907Y-56470880D01*
X42749500Y-56668992D01*
X42749500Y-56871007D01*
X42788907Y-57069119D01*
X42788909Y-57069127D01*
X42866212Y-57255752D01*
X42866217Y-57255762D01*
X42978441Y-57423718D01*
X43121281Y-57566558D01*
X43289237Y-57678782D01*
X43289241Y-57678784D01*
X43289244Y-57678786D01*
X43475873Y-57756091D01*
X43673992Y-57795499D01*
X43673996Y-57795500D01*
X43673997Y-57795500D01*
X44326004Y-57795500D01*
X44326005Y-57795499D01*
X44524127Y-57756091D01*
X44710756Y-57678786D01*
X44878718Y-57566558D01*
X44878721Y-57566555D01*
X44888458Y-57556819D01*
X44949781Y-57523334D01*
X44976139Y-57520500D01*
X56613920Y-57520500D01*
X56711462Y-57501096D01*
X56758913Y-57491658D01*
X56895495Y-57435084D01*
X56944729Y-57402186D01*
X57018416Y-57352952D01*
X59734895Y-54636471D01*
X59796216Y-54602988D01*
X59841971Y-54601681D01*
X59897648Y-54610500D01*
X59897649Y-54610500D01*
X60102351Y-54610500D01*
X60102352Y-54610500D01*
X60304534Y-54578477D01*
X60499219Y-54515220D01*
X60681610Y-54422287D01*
X60774590Y-54354732D01*
X60847213Y-54301971D01*
X60847215Y-54301968D01*
X60847219Y-54301966D01*
X60991966Y-54157219D01*
X60991968Y-54157215D01*
X60991971Y-54157213D01*
X61044732Y-54084590D01*
X61112287Y-53991610D01*
X61205220Y-53809219D01*
X61268477Y-53614534D01*
X61300500Y-53412352D01*
X61300500Y-53207648D01*
X61294140Y-53167491D01*
X61268477Y-53005465D01*
X61205218Y-52810776D01*
X61171503Y-52744607D01*
X61112287Y-52628390D01*
X61104556Y-52617749D01*
X60991971Y-52462786D01*
X60847213Y-52318028D01*
X60681613Y-52197715D01*
X60681612Y-52197714D01*
X60681610Y-52197713D01*
X60624653Y-52168691D01*
X60499223Y-52104781D01*
X60304534Y-52041522D01*
X60129995Y-52013878D01*
X60102352Y-52009500D01*
X59897648Y-52009500D01*
X59873329Y-52013351D01*
X59695465Y-52041522D01*
X59500776Y-52104781D01*
X59318386Y-52197715D01*
X59152786Y-52318028D01*
X59008028Y-52462786D01*
X58887715Y-52628386D01*
X58794781Y-52810776D01*
X58731522Y-53005465D01*
X58699500Y-53207648D01*
X58699500Y-53412351D01*
X58708318Y-53468025D01*
X58699364Y-53537318D01*
X58673526Y-53575104D01*
X56265451Y-55983181D01*
X56204128Y-56016666D01*
X56177770Y-56019500D01*
X45305388Y-56019500D01*
X45238349Y-55999815D01*
X45192594Y-55947011D01*
X45182650Y-55877853D01*
X45190825Y-55848052D01*
X45211091Y-55799127D01*
X45250500Y-55601003D01*
X45250500Y-55398997D01*
X45211091Y-55200873D01*
X45177451Y-55119661D01*
X45169983Y-55050194D01*
X45189592Y-55005144D01*
X45189101Y-55004876D01*
X45192102Y-54999379D01*
X45192748Y-54997896D01*
X45193352Y-54997089D01*
X45243597Y-54862376D01*
X45243598Y-54862372D01*
X45249999Y-54802844D01*
X45250000Y-54802827D01*
X45250000Y-54480000D01*
X44365866Y-54480000D01*
X44341674Y-54477617D01*
X44326004Y-54474500D01*
X44326003Y-54474500D01*
X44285830Y-54474500D01*
X44300075Y-54460255D01*
X44349444Y-54374745D01*
X44375000Y-54279370D01*
X44375000Y-54180630D01*
X44349444Y-54085255D01*
X44300075Y-53999745D01*
X44280330Y-53980000D01*
X45250000Y-53980000D01*
X45250000Y-53657172D01*
X45249999Y-53657155D01*
X45243598Y-53597627D01*
X45243596Y-53597620D01*
X45193354Y-53462913D01*
X45193350Y-53462906D01*
X45107190Y-53347812D01*
X45107187Y-53347809D01*
X44992093Y-53261649D01*
X44992086Y-53261645D01*
X44857379Y-53211403D01*
X44857372Y-53211401D01*
X44797844Y-53205000D01*
X44250000Y-53205000D01*
X44250000Y-53949670D01*
X44230255Y-53929925D01*
X44144745Y-53880556D01*
X44049370Y-53855000D01*
X43950630Y-53855000D01*
X43855255Y-53880556D01*
X43769745Y-53929925D01*
X43750000Y-53949670D01*
X43750000Y-53205000D01*
X43202155Y-53205000D01*
X43142627Y-53211401D01*
X43142620Y-53211403D01*
X43007913Y-53261645D01*
X43007906Y-53261649D01*
X42892812Y-53347809D01*
X42892809Y-53347812D01*
X42806649Y-53462906D01*
X42806645Y-53462913D01*
X42756403Y-53597620D01*
X42756401Y-53597627D01*
X42750000Y-53657155D01*
X42750000Y-53980000D01*
X43719670Y-53980000D01*
X43699925Y-53999745D01*
X43650556Y-54085255D01*
X43625000Y-54180630D01*
X43625000Y-54279370D01*
X43650556Y-54374745D01*
X43699925Y-54460255D01*
X43714170Y-54474500D01*
X43673997Y-54474500D01*
X43673996Y-54474500D01*
X43658326Y-54477617D01*
X43634134Y-54480000D01*
X42750000Y-54480000D01*
X42750000Y-54625500D01*
X42730315Y-54692539D01*
X42677511Y-54738294D01*
X42626000Y-54749500D01*
X36973002Y-54749500D01*
X36905963Y-54729815D01*
X36860208Y-54677011D01*
X36850743Y-54611187D01*
X36850118Y-54611138D01*
X36850336Y-54608359D01*
X36850264Y-54607853D01*
X36850499Y-54606293D01*
X36850500Y-54606287D01*
X36850500Y-54393713D01*
X36835969Y-54301971D01*
X36817246Y-54183757D01*
X36751557Y-53981588D01*
X36655051Y-53792184D01*
X36530104Y-53620208D01*
X36379792Y-53469896D01*
X36379786Y-53469890D01*
X36207820Y-53344951D01*
X36207115Y-53344591D01*
X36199054Y-53340485D01*
X36148259Y-53292512D01*
X36131463Y-53224692D01*
X36153999Y-53158556D01*
X36199054Y-53119515D01*
X36207816Y-53115051D01*
X36229789Y-53099086D01*
X36379786Y-52990109D01*
X36379788Y-52990106D01*
X36379792Y-52990104D01*
X36530104Y-52839792D01*
X36530106Y-52839788D01*
X36530109Y-52839786D01*
X36655048Y-52667820D01*
X36655047Y-52667820D01*
X36655051Y-52667816D01*
X36751557Y-52478412D01*
X36817246Y-52276243D01*
X36850500Y-52066287D01*
X36850500Y-51853713D01*
X36835382Y-51758267D01*
X36836083Y-51752844D01*
X36834171Y-51747717D01*
X36840512Y-51718563D01*
X36844336Y-51688978D01*
X36848168Y-51683373D01*
X36849023Y-51679444D01*
X36870171Y-51651194D01*
X36964549Y-51556818D01*
X37025872Y-51523334D01*
X37052229Y-51520500D01*
X48750976Y-51520500D01*
X48818015Y-51540185D01*
X48851295Y-51571616D01*
X48931754Y-51682361D01*
X49087636Y-51838243D01*
X49087641Y-51838247D01*
X49243192Y-51951260D01*
X49265978Y-51967815D01*
X49347789Y-52009500D01*
X49462393Y-52067895D01*
X49462396Y-52067896D01*
X49567221Y-52101955D01*
X49672049Y-52136015D01*
X49889778Y-52170500D01*
X49889779Y-52170500D01*
X50110221Y-52170500D01*
X50110222Y-52170500D01*
X50327951Y-52136015D01*
X50537606Y-52067895D01*
X50734022Y-51967815D01*
X50912365Y-51838242D01*
X51068242Y-51682365D01*
X51197815Y-51504022D01*
X51297895Y-51307606D01*
X51366015Y-51097951D01*
X51400500Y-50880222D01*
X51400500Y-50659778D01*
X51366015Y-50442049D01*
X51297895Y-50232394D01*
X51297895Y-50232393D01*
X51263093Y-50164091D01*
X51197815Y-50035978D01*
X51165675Y-49991741D01*
X51068247Y-49857641D01*
X51068243Y-49857636D01*
X51018071Y-49807464D01*
X50984586Y-49746141D01*
X50989570Y-49676449D01*
X51031442Y-49620516D01*
X51062420Y-49603601D01*
X51142326Y-49573798D01*
X51142326Y-49573797D01*
X51142331Y-49573796D01*
X51257546Y-49487546D01*
X51343796Y-49372331D01*
X51394091Y-49237483D01*
X51400500Y-49177873D01*
X51400500Y-49104500D01*
X51420185Y-49037461D01*
X51472989Y-48991706D01*
X51524500Y-48980500D01*
X57533920Y-48980500D01*
X57631462Y-48961096D01*
X57678913Y-48951658D01*
X57815495Y-48895084D01*
X57864729Y-48862186D01*
X57938416Y-48812952D01*
X59734894Y-47016471D01*
X59796215Y-46982988D01*
X59841970Y-46981681D01*
X59897648Y-46990500D01*
X59897649Y-46990500D01*
X60102351Y-46990500D01*
X60102352Y-46990500D01*
X60304534Y-46958477D01*
X60499219Y-46895220D01*
X60681610Y-46802287D01*
X60786720Y-46725921D01*
X60847213Y-46681971D01*
X60847215Y-46681968D01*
X60847219Y-46681966D01*
X60991966Y-46537219D01*
X60991968Y-46537215D01*
X60991971Y-46537213D01*
X61059327Y-46444504D01*
X61112287Y-46371610D01*
X61205220Y-46189219D01*
X61268477Y-45994534D01*
X61300500Y-45792352D01*
X61300500Y-45587648D01*
X61268477Y-45385466D01*
X61205220Y-45190781D01*
X61205218Y-45190778D01*
X61205218Y-45190776D01*
X61171503Y-45124607D01*
X61112287Y-45008390D01*
X61104556Y-44997749D01*
X60991971Y-44842786D01*
X60847213Y-44698028D01*
X60681613Y-44577715D01*
X60681612Y-44577714D01*
X60681610Y-44577713D01*
X60624653Y-44548691D01*
X60499223Y-44484781D01*
X60304534Y-44421522D01*
X60129995Y-44393878D01*
X60102352Y-44389500D01*
X59897648Y-44389500D01*
X59873329Y-44393351D01*
X59695465Y-44421522D01*
X59500776Y-44484781D01*
X59318386Y-44577715D01*
X59152786Y-44698028D01*
X59008028Y-44842786D01*
X58887715Y-45008386D01*
X58794781Y-45190776D01*
X58731522Y-45385465D01*
X58699500Y-45587648D01*
X58699500Y-45792351D01*
X58708318Y-45848026D01*
X58699363Y-45917320D01*
X58673526Y-45955105D01*
X57185451Y-47443181D01*
X57124128Y-47476666D01*
X57097770Y-47479500D01*
X51524499Y-47479500D01*
X51457460Y-47459815D01*
X51411705Y-47407011D01*
X51400499Y-47355500D01*
X51400499Y-47282129D01*
X51400498Y-47282123D01*
X51400497Y-47282116D01*
X51394091Y-47222517D01*
X51387466Y-47204755D01*
X51343797Y-47087671D01*
X51343793Y-47087664D01*
X51257547Y-46972455D01*
X51257544Y-46972452D01*
X51142335Y-46886206D01*
X51142328Y-46886202D01*
X51007482Y-46835908D01*
X51007483Y-46835908D01*
X50947883Y-46829501D01*
X50947881Y-46829500D01*
X50947873Y-46829500D01*
X50947864Y-46829500D01*
X49052129Y-46829500D01*
X49052123Y-46829501D01*
X48992516Y-46835908D01*
X48857671Y-46886202D01*
X48857664Y-46886206D01*
X48742455Y-46972452D01*
X48742452Y-46972455D01*
X48656206Y-47087664D01*
X48656202Y-47087671D01*
X48605908Y-47222517D01*
X48599501Y-47282116D01*
X48599501Y-47282123D01*
X48599500Y-47282135D01*
X48599500Y-49177870D01*
X48599501Y-49177876D01*
X48605908Y-49237483D01*
X48656202Y-49372328D01*
X48656206Y-49372335D01*
X48742452Y-49487544D01*
X48742455Y-49487547D01*
X48857664Y-49573793D01*
X48857671Y-49573797D01*
X48937580Y-49603601D01*
X48960718Y-49620921D01*
X48985485Y-49635809D01*
X48988342Y-49641601D01*
X48993514Y-49645472D01*
X49003613Y-49672550D01*
X49016401Y-49698466D01*
X49015673Y-49704884D01*
X49017931Y-49710936D01*
X49011787Y-49739177D01*
X49008534Y-49767892D01*
X49004110Y-49774471D01*
X49003080Y-49779209D01*
X48990351Y-49798141D01*
X48986372Y-49803020D01*
X48931758Y-49857635D01*
X48849261Y-49971182D01*
X48847080Y-49973858D01*
X48821005Y-49991741D01*
X48795965Y-50011051D01*
X48791677Y-50011856D01*
X48789460Y-50013377D01*
X48782462Y-50013586D01*
X48750976Y-50019500D01*
X36616080Y-50019500D01*
X36471092Y-50048340D01*
X36471082Y-50048343D01*
X36334511Y-50104912D01*
X36334498Y-50104919D01*
X36245943Y-50164091D01*
X36211581Y-50187050D01*
X35808807Y-50589824D01*
X35747484Y-50623309D01*
X35701728Y-50624616D01*
X35606292Y-50609500D01*
X35606287Y-50609500D01*
X35393713Y-50609500D01*
X35393708Y-50609500D01*
X35298270Y-50624616D01*
X35228977Y-50615662D01*
X35191191Y-50589824D01*
X33638828Y-49037461D01*
X32058416Y-47457048D01*
X32058415Y-47457047D01*
X32058413Y-47457045D01*
X31983528Y-47407011D01*
X31976355Y-47402218D01*
X31935495Y-47374916D01*
X31935494Y-47374915D01*
X31935492Y-47374914D01*
X31935490Y-47374913D01*
X31798917Y-47318343D01*
X31798907Y-47318340D01*
X31653920Y-47289500D01*
X31653918Y-47289500D01*
X30687221Y-47289500D01*
X30620182Y-47269815D01*
X30586903Y-47238385D01*
X30530107Y-47160211D01*
X30379792Y-47009896D01*
X30355113Y-46991966D01*
X30331511Y-46974818D01*
X30288846Y-46919489D01*
X30282867Y-46849876D01*
X30315472Y-46788080D01*
X30376311Y-46753723D01*
X30404397Y-46750500D01*
X31564582Y-46750500D01*
X31631621Y-46770185D01*
X31664900Y-46801615D01*
X31698028Y-46847212D01*
X31698032Y-46847217D01*
X31842786Y-46991971D01*
X31997749Y-47104556D01*
X32008390Y-47112287D01*
X32102440Y-47160208D01*
X32190776Y-47205218D01*
X32190778Y-47205218D01*
X32190781Y-47205220D01*
X32244013Y-47222516D01*
X32385465Y-47268477D01*
X32471660Y-47282129D01*
X32587648Y-47300500D01*
X32587649Y-47300500D01*
X32792351Y-47300500D01*
X32792352Y-47300500D01*
X32994534Y-47268477D01*
X33189219Y-47205220D01*
X33371610Y-47112287D01*
X33503488Y-47016473D01*
X33537213Y-46991971D01*
X33537215Y-46991968D01*
X33537219Y-46991966D01*
X33681966Y-46847219D01*
X33681968Y-46847215D01*
X33681971Y-46847213D01*
X33769976Y-46726082D01*
X33802287Y-46681610D01*
X33895220Y-46499219D01*
X33958477Y-46304534D01*
X33990500Y-46102352D01*
X33990500Y-45897682D01*
X39010000Y-45897682D01*
X39010000Y-46102317D01*
X39042009Y-46304417D01*
X39105244Y-46499031D01*
X39198141Y-46681350D01*
X39198147Y-46681359D01*
X39230523Y-46725921D01*
X39230524Y-46725922D01*
X39910000Y-46046446D01*
X39910000Y-46052661D01*
X39937259Y-46154394D01*
X39989920Y-46245606D01*
X40064394Y-46320080D01*
X40155606Y-46372741D01*
X40257339Y-46400000D01*
X40263553Y-46400000D01*
X39584076Y-47079474D01*
X39628650Y-47111859D01*
X39810968Y-47204755D01*
X40005582Y-47267990D01*
X40207683Y-47300000D01*
X40412317Y-47300000D01*
X40614417Y-47267990D01*
X40809031Y-47204755D01*
X40991349Y-47111859D01*
X41035921Y-47079474D01*
X40356447Y-46400000D01*
X40362661Y-46400000D01*
X40464394Y-46372741D01*
X40555606Y-46320080D01*
X40630080Y-46245606D01*
X40682741Y-46154394D01*
X40710000Y-46052661D01*
X40710000Y-46046448D01*
X41389474Y-46725922D01*
X41389474Y-46725921D01*
X41421859Y-46681349D01*
X41514755Y-46499031D01*
X41577990Y-46304417D01*
X41610000Y-46102317D01*
X41610000Y-45897682D01*
X41577990Y-45695582D01*
X41514755Y-45500968D01*
X41421859Y-45318650D01*
X41389474Y-45274077D01*
X41389474Y-45274076D01*
X40710000Y-45953551D01*
X40710000Y-45947339D01*
X40682741Y-45845606D01*
X40630080Y-45754394D01*
X40555606Y-45679920D01*
X40464394Y-45627259D01*
X40362661Y-45600000D01*
X40356446Y-45600000D01*
X41035922Y-44920524D01*
X41035921Y-44920523D01*
X40991359Y-44888147D01*
X40991350Y-44888141D01*
X40809031Y-44795244D01*
X40614417Y-44732009D01*
X40412317Y-44700000D01*
X40207683Y-44700000D01*
X40005582Y-44732009D01*
X39810968Y-44795244D01*
X39628644Y-44888143D01*
X39584077Y-44920523D01*
X39584077Y-44920524D01*
X40263554Y-45600000D01*
X40257339Y-45600000D01*
X40155606Y-45627259D01*
X40064394Y-45679920D01*
X39989920Y-45754394D01*
X39937259Y-45845606D01*
X39910000Y-45947339D01*
X39910000Y-45953553D01*
X39230524Y-45274077D01*
X39230523Y-45274077D01*
X39198143Y-45318644D01*
X39105244Y-45500968D01*
X39042009Y-45695582D01*
X39010000Y-45897682D01*
X33990500Y-45897682D01*
X33990500Y-45897648D01*
X33976429Y-45808807D01*
X33958477Y-45695465D01*
X33923445Y-45587648D01*
X33895220Y-45500781D01*
X33895218Y-45500778D01*
X33895218Y-45500776D01*
X33802419Y-45318650D01*
X33802287Y-45318390D01*
X33770092Y-45274077D01*
X33681971Y-45152786D01*
X33537213Y-45008028D01*
X33371613Y-44887715D01*
X33371612Y-44887714D01*
X33371610Y-44887713D01*
X33283436Y-44842786D01*
X33189223Y-44794781D01*
X32994534Y-44731522D01*
X32819995Y-44703878D01*
X32792352Y-44699500D01*
X32587648Y-44699500D01*
X32563329Y-44703351D01*
X32385465Y-44731522D01*
X32190776Y-44794781D01*
X32008386Y-44887715D01*
X31842786Y-45008028D01*
X31698032Y-45152782D01*
X31698028Y-45152787D01*
X31664900Y-45198385D01*
X31609571Y-45241051D01*
X31564582Y-45249500D01*
X30928698Y-45249500D01*
X30861659Y-45229815D01*
X30815904Y-45177011D01*
X30810767Y-45163818D01*
X30807183Y-45152787D01*
X30751557Y-44981588D01*
X30655051Y-44792184D01*
X30655049Y-44792181D01*
X30655048Y-44792179D01*
X30530109Y-44620213D01*
X30416181Y-44506285D01*
X30382696Y-44444962D01*
X30387680Y-44375270D01*
X30429552Y-44319337D01*
X30460529Y-44302422D01*
X30592086Y-44253354D01*
X30592093Y-44253350D01*
X30707187Y-44167190D01*
X30707190Y-44167187D01*
X30793350Y-44052093D01*
X30793354Y-44052086D01*
X30843596Y-43917379D01*
X30843598Y-43917372D01*
X30849999Y-43857844D01*
X30850000Y-43857827D01*
X30850000Y-43210000D01*
X29933012Y-43210000D01*
X29965925Y-43152993D01*
X30000000Y-43025826D01*
X30000000Y-42894174D01*
X29965925Y-42767007D01*
X29933012Y-42710000D01*
X30850000Y-42710000D01*
X30850000Y-42062172D01*
X30849999Y-42062155D01*
X30843598Y-42002627D01*
X30843596Y-42002620D01*
X30793354Y-41867913D01*
X30793350Y-41867906D01*
X30707190Y-41752812D01*
X30707187Y-41752809D01*
X30592093Y-41666649D01*
X30592086Y-41666645D01*
X30457379Y-41616403D01*
X30457372Y-41616401D01*
X30397844Y-41610000D01*
X29750000Y-41610000D01*
X29750000Y-42526988D01*
X29692993Y-42494075D01*
X29565826Y-42460000D01*
X29434174Y-42460000D01*
X29307007Y-42494075D01*
X29250000Y-42526988D01*
X29250000Y-41610000D01*
X28602155Y-41610000D01*
X28542627Y-41616401D01*
X28542620Y-41616403D01*
X28407913Y-41666645D01*
X28407906Y-41666649D01*
X28292812Y-41752809D01*
X28292809Y-41752812D01*
X28206649Y-41867906D01*
X28206645Y-41867913D01*
X28156403Y-42002620D01*
X28156401Y-42002627D01*
X28150000Y-42062155D01*
X28150000Y-42710000D01*
X29066988Y-42710000D01*
X29034075Y-42767007D01*
X29000000Y-42894174D01*
X29000000Y-43025826D01*
X29034075Y-43152993D01*
X29066988Y-43210000D01*
X28150000Y-43210000D01*
X28150000Y-43857844D01*
X28156401Y-43917372D01*
X28156403Y-43917379D01*
X28206645Y-44052086D01*
X28206649Y-44052093D01*
X28292809Y-44167187D01*
X28292812Y-44167190D01*
X28407906Y-44253350D01*
X28407913Y-44253354D01*
X28539470Y-44302422D01*
X28595404Y-44344293D01*
X28619821Y-44409758D01*
X28604969Y-44478031D01*
X28583819Y-44506285D01*
X28469889Y-44620215D01*
X28344951Y-44792179D01*
X28248444Y-44981585D01*
X28182753Y-45183760D01*
X28149500Y-45393713D01*
X28149500Y-45606292D01*
X28164616Y-45701728D01*
X28155662Y-45771021D01*
X28129824Y-45808807D01*
X27617045Y-46321586D01*
X27583623Y-46371610D01*
X27578156Y-46379792D01*
X27556536Y-46412148D01*
X27534916Y-46444504D01*
X27534912Y-46444511D01*
X27478343Y-46581082D01*
X27478340Y-46581092D01*
X27449500Y-46726079D01*
X27449500Y-46726082D01*
X27449500Y-48652396D01*
X27449500Y-48652398D01*
X27449499Y-48652398D01*
X25500500Y-48652398D01*
X25500500Y-41624500D01*
X25520185Y-41557461D01*
X25572989Y-41511706D01*
X25624500Y-41500500D01*
X28065890Y-41500500D01*
X28065892Y-41500500D01*
X28193186Y-41466392D01*
X28307314Y-41400500D01*
X28400500Y-41307314D01*
X28466392Y-41193186D01*
X28500500Y-41065892D01*
X28500500Y-38624500D01*
X28520185Y-38557461D01*
X28572989Y-38511706D01*
X28624500Y-38500500D01*
X40934108Y-38500500D01*
X58934108Y-38500500D01*
X71375500Y-38500500D01*
X71442539Y-38520185D01*
G37*
%TD.AperFunction*%
%TD*%
M02*
